<svg xmlns="http://www.w3.org/2000/svg" width="83" height="50" fill="none" viewBox="0 0 83 50"><path fill="#fff" d="M4 33.88C4 42.74 11.31 50 20.27 50h41.49a14.3 14.3 0 0 0 14.37-14.25c0-6.88-4.91-12.63-11.47-14 .5-1.25.76-2.5.76-3.88A10.8 10.8 0 0 0 54.57 7.13c-2.27 0-4.29.63-6.05 1.75A18.26 18.26 0 0 0 32.88 0a17.95 17.95 0 0 0-18.03 18.75A16.1 16.1 0 0 0 4 33.88Z"/><g filter="url(#a)"><path fill="url(#b)" d="m79 10-5.9 10.05H60.38c-2.8 0-5.37 1.5-6.8 3.9l-7.73 13.28a5.65 5.65 0 0 1-10.06-.67l-3.86-9.46c-.76-1.87-3.33-2.02-4.4-.3l-6.12 10.5a5.41 5.41 0 0 1-9.7-.67l-7.7-18.98L12.48 10l7.11 17.4a2.4 2.4 0 0 0 4.31.3l6.06-10.35a5.38 5.38 0 0 1 9.61.68l3.94 9.6a2.4 2.4 0 0 0 4.3.3l6.82-11.78A13.05 13.05 0 0 1 65.6 10H79Z"/><path fill="url(#c)" d="m67.95 24.93-3.48 6h-7.11c-2.2 0-3.86.6-4.92 2.47l1.43-2.47 1.97-3.38a5.45 5.45 0 0 1 4.7-2.7h7.41v.08Z"/></g><defs><linearGradient id="b" x1="12.16" x2="63.81" y1="4.15" y2="35.46" gradientUnits="userSpaceOnUse"><stop stop-color="#51A1DB"/><stop offset=".11" stop-color="#4E9FD9"/><stop offset=".18" stop-color="#4599D2"/><stop offset=".25" stop-color="#368FC6"/><stop offset=".3" stop-color="#2180B6"/><stop offset=".35" stop-color="#066EA1"/><stop offset=".35" stop-color="#056DA0"/><stop offset=".41" stop-color="#2D88BF"/><stop offset=".47" stop-color="#51A1DB"/><stop offset=".5" stop-color="#479AD3"/><stop offset=".59" stop-color="#2382B7"/><stop offset=".66" stop-color="#0D73A6"/><stop offset=".71" stop-color="#056DA0"/><stop offset=".71" stop-color="#056DA0"/><stop offset=".75" stop-color="#2180B5"/><stop offset=".8" stop-color="#368FC6"/><stop offset=".85" stop-color="#4599D2"/><stop offset=".91" stop-color="#4E9FD9"/><stop offset="1" stop-color="#51A1DB"/></linearGradient><linearGradient id="c" x1="56.18" x2="64.12" y1="26.83" y2="31.46" gradientUnits="userSpaceOnUse"><stop stop-color="#056DA0"/><stop offset=".05" stop-color="#1376AB"/><stop offset=".14" stop-color="#2A86BC"/><stop offset=".25" stop-color="#3B92CA"/><stop offset=".39" stop-color="#489BD4"/><stop offset=".57" stop-color="#4FA0D9"/><stop offset="1" stop-color="#51A1DB"/></linearGradient><filter id="a" width="83" height="38"><feDropShadow dx="0" dy="4" flood-opacity=".3" stdDeviation="2"/></filter></defs></svg>