<svg xmlns="http://www.w3.org/2000/svg" width="21" height="24" fill-opacity=".4" viewBox="0 0 21 24"><path d="M6 0c.83 0 1.5.67 1.5 1.5V3h6V1.5a1.5 1.5 0 1 1 3 0V3h2.25C19.99 3 21 4 21 5.25V7.5H0V5.25C0 4.01 1 3 2.25 3H4.5V1.5C4.5.67 5.17 0 6 0ZM0 9h21v12.75c0 1.24-1 2.25-2.25 2.25H2.25C1.01 24 0 23 0 21.75V9Zm3 3.75v1.5c0 .41.34.75.75.75h1.5c.41 0 .75-.34.75-.75v-1.5a.75.75 0 0 0-.75-.75h-1.5a.75.75 0 0 0-.75.75Zm6 0v1.5c0 .41.34.75.75.75h1.5c.41 0 .75-.34.75-.75v-1.5a.75.75 0 0 0-.75-.75h-1.5a.75.75 0 0 0-.75.75Zm6.75-.75a.75.75 0 0 0-.75.75v1.5c0 .41.34.75.75.75h1.5c.41 0 .75-.34.75-.75v-1.5a.75.75 0 0 0-.75-.75h-1.5ZM3 18.75v1.5c0 .41.34.75.75.75h1.5c.41 0 .75-.34.75-.75v-1.5a.75.75 0 0 0-.75-.75h-1.5a.75.75 0 0 0-.75.75ZM9.75 18a.75.75 0 0 0-.75.75v1.5c0 .41.34.75.75.75h1.5c.41 0 .75-.34.75-.75v-1.5a.75.75 0 0 0-.75-.75h-1.5Zm5.25.75v1.5c0 .41.34.75.75.75h1.5c.41 0 .75-.34.75-.75v-1.5a.75.75 0 0 0-.75-.75h-1.5a.75.75 0 0 0-.75.75Z"/></svg>