<svg xmlns="http://www.w3.org/2000/svg" viewBox="0 0 576 512" fill-opacity=".4"><path d="M288 32c-80.8 0-145.5 36.8-192.6 80.6A396.2 396.2 0 0 0 2.5 243.7a31.8 31.8 0 0 0 0 24.6 396.2 396.2 0 0 0 92.9 131.1C142.5 443.2 207.2 480 288 480s145.5-36.8 192.6-80.6a399.2 399.2 0 0 0 93-131.1 31.8 31.8 0 0 0 0-24.6 398.2 398.2 0 0 0-93-131.1C433.5 68.8 368.8 32 288 32zM144 256a144 144 0 1 1 288 0 144 144 0 1 1-288 0zm144-64a64 64 0 0 1-84.3 60.7c-5.5-1.8-11.9 1.6-11.7 7.4A96 96 0 1 0 292.1 160c-5.8-.2-9.2 6.1-7.4 11.7A65 65 0 0 1 288 192z"/></svg>