<svg xmlns="http://www.w3.org/2000/svg" viewBox="0 0 448 512" width="448" height="512" fill-opacity=".3"><path d="M0 32v13.6c0 17.1 1.7 34 5 50.4h352.8a65.3 65.3 0 0 1 13-18.8l38.6-38.6a22.6 22.6 0 0 0-16-38.6H32A32 32 0 0 0 0 32zm352.2 96H13.6a256.3 256.3 0 0 0 58.8 96H412l-47.2-62.9a64 64 0 0 1-12.6-33.1zm-226 138.2 116.4 68.5c8.2 4.8 15.8 10.7 22.5 17.3H445a150.6 150.6 0 0 0-12.3-96H110.2c5.2 3.6 10.5 7 16 10.2zM288 384a115.5 115.5 0 0 1 9.9 69l-5.9 35.7a20.1 20.1 0 0 0 34 17.5l78.2-78.2a148.4 148.4 0 0 0 30.4-43.9H288z"/></svg>