<svg xmlns="http://www.w3.org/2000/svg" viewBox="0 0 576 512" fill-opacity=".4"><path d="M288 0a32 32 0 0 1 32 32v17.7C451.8 63.4 557.7 161 573.9 285.9a16 16 0 0 1-27.8 12.7C532.1 283 504.8 272 480 272a80 80 0 0 0-78.4 64.1c-1.7 8.7-8.7 15.9-17.6 15.9s-15.8-7.2-17.6-15.9a80 80 0 0 0-156.8 0c-1.7 8.7-8.7 15.9-17.6 15.9s-15.8-7.2-17.6-15.9A80 80 0 0 0 96 272c-24.8 0-52.1 11-66.1 26.7-10.5 11.7-29.8 2.8-27.8-12.8C18.3 161 124.2 63.4 256 49.7V32a32 32 0 0 1 32-32zm0 304c12.3 0 23.5 4.6 32 12.2v114.4A81.4 81.4 0 0 1 165.8 467l-2.3-4.7a32 32 0 1 1 57.2-28.6l2.3 4.7a17.5 17.5 0 0 0 33-7.8V316.2a47.8 47.8 0 0 1 32-12.2z"/></svg>