<svg xmlns="http://www.w3.org/2000/svg" xml:space="preserve" id="svg1306" x="0" y="0" style="enable-background:new 0 0 48 48" version="1.1" viewBox="0 0 48 48"><style>.st2{fill:#fff}</style><circle cx="24" cy="24" r="24" style="fill:#ce1720"/><path d="M46.6 32a24 24 0 0 1-35.4 12.3V32h35.4z" style="fill:#007c30"/><path id="a_1_" d="M10.2 9.8h-.5v-1h.4v1zm-2.9 0h-.4v-1h.4v1zm3.9 6.5h-.3v.7h-.3v.9h-.5v.8h-.7v-.8h-.5V17h-.4v-.7h.6v-.8H8v.5h-.7v.9h-.6v1h.4v.7h.4v.7h.3v.7h.5v.6h.4v.6h.5v.7h.7v-.8h.5v-.7h.4v-.5h.4v-1.2h-.4v-1.1h.4v-1.3z" class="st2"/><path id="a_3_" d="M10.2 38.2h-.5v1h.4v-1zm-2.9 0h-.4v1h.4v-1zm3.9-6.5h-.3V31h-.3v-.9h-.5v-.8h-.7v.8h-.5v.9h-.4v.7h.6v.8H8V32h-.7v-.9h-.6v-1h.4v-.7h.4v-.7h.3V28h.5v-.6h.4v-.6h.5v-.7h.7v.8h.5v.7h.4v.5h.4v1.2h-.4v1.1h.4v1.3z" class="st2"/><path d="M.5 21.8h.4v.7h.4v.4h.4v.7h.4v.6h-.4v.7h-.4v.4H.9v.7H.5v-4.2zm10.7 0v4.5h-.4v-.7h-.4v-.4h-.5v-.7h-.3v-.6h.4v-.7h.4v-.4h.4v-.7h.4zm-7.4 2.7h.4v-1h-.4v1zm4.1 0v-1h-.5v1h.5zm-2.3-3.2H6v-1h-.4v1zm0 5.4v1H6v-1h-.4zm-2.6-4h.7v-.6h.5v-.5h.3V21h.3v-.7h.4v-.7h.2v-.7h.7v.7h.2v.7h.4v.7H7v.5h.3v.5H8v.6h.7v2.7H8v.6h-.6v.5h-.2v.6h-.3v.7h-.5v.7h-.2v.7h-.7v-.7h-.2v-.7h-.5V27h-.3v-.5h-.3V26h-.5v-.6H3v-2.7zm2.6.4v-.8h-.4v-.5h-.4v1.3h.4v.5h.3v.7h-.3v.5h-.4v1.3h.4v-.5h.4v-.8H6v.8h.4v.5h.4v-1.3h-.3v-.5h-.3v-.7h.3v-.5h.4v-1.3h-.4v.5h-.4v.8h-.5zM11.2 5.6V4.1h-.4v.7h-.4v.9h-.7v.7h-.4v.8h-.4v.6h-.8v-.6h-.3v-.9L5.4 8.8h.8V8h.5v-.7h.5V8h.5v.8h.4v1h-.2v.8h-.6v.7h-.5v-.7h-.5v-.8h-.9v.8h-.5v.7h-.6v-.7h-.1l-.6.7H4v.5h.4v.8h.4v.7h.4v.7h.3v.6h.6V14h.3v-.7h.4v-.7h.4v-.8h.4v-.5h.5v-.8h.6v.8h.5v.5h.4v.8h.4v.7h.3v.7h.3v.9h.4v-2.3h-.4v-1.1h.4V9.8h-.4v.8h-.5v.7h-.4v-.7h-.5v-.8h-.5v-1h.4V8h.5v-.7h.5V8h.5v.8h.4V6.6h-.4v-1h.6zM6 12.7h-.4v-1.4H6v1.4zM4.9 16.9v1h-.4v.8h-.4v.7h-.3v.8h-.5v.6H3v.6h-.5v.8h-.7v-.8h-.5v-.8H.9V20H.5v-1l.1-.3H1v-1.1H.8L1 17h.1v.8h.5v.8h.6v-.8h.5V17h.4v-.7h-.6v-.8h1.1v.5h.7v.9h.6zM4.9 30.1v1h-.6v.9h-.6v.5H2.5v-.8h.6V31h-.3v-.8h-.5v-.8h-.7v.8h-.4v.8H1l-.2-.8h.1v-1.1H.6l-.1-.3v-1h.4v-.5h.4v-.8h.5v-.8h.7v.8H3v.6h.4v.6h.5v.8h.3v.7h.4v.8h.3zM11.2 35.4v-2.3h-.4v.9h-.3v.7h-.3v.7h-.5v.8h-.4v.5h-.5v.8h-.6v-.8h-.5v-.5h-.4v-.8h-.5v-.7h-.3V34h-.3v-.6h-.7v.6h-.3v.7h-.4v.7h-.4v.8H4v.5h-.4l.6.8h.2v-.7h.5v.7h.5v.8h.9v-.8h.5v-.7h.5v.7h.5v.8h.4v1h-.3v.7h-.6v.7h-.5V40h-.5v-.8h-.9l2.3 2.5v-.8h.4v-.6h.8v.6h.4v.8h.5v.7h.6v.9h.4v.7h.4v-1.5h-.4v-1h.4v-2.2h-.4v.7h-.5v.7h-.6V40h-.5v-.8h-.5v-1h.4v-.8h.5v-.7h.5v.7h.5v.8h.4v-1.8h-.4v-1.1h.6zM6 36.8h-.4v-1.4H6v1.4z" class="st2"/></svg>