<svg xmlns="http://www.w3.org/2000/svg" xml:space="preserve" id="svg1306" x="0" y="0" style="enable-background:new 0 0 48 48" version="1.1" viewBox="0 0 48 48"><style>.st0{fill-rule:evenodd;clip-rule:evenodd;fill:#d52b1e}</style><path d="M11.3 44.4V3.6a24 24 0 0 0 0 40.8zM36.7 3.6v40.7a24 24 0 0 0 0-40.7z" class="st0"/><path d="M36.7 44.4V3.6a23.8 23.8 0 0 0-25.4 0v40.7a23.8 23.8 0 0 0 25.4.1z" style="fill-rule:evenodd;clip-rule:evenodd;fill:#fefefe"/><path d="m24 11.3-2 4c-.2.4-.6.4-1.1.1l-1.5-.8 1.1 6.1c.2 1.1-.5 1.1-.9.6l-2.6-3-.4 1.5c0 .2-.3.4-.6.4l-3.3-.7.9 3.2c.2.7.3 1-.2 1.2l-1.2.6 5.6 4.8c.2.2.3.5.3.8l-.5 1.7 5.6-.7c.2 0 .5.2.5.4l-.3 6.2h.9l-.2-6.2c0-.2.3-.4.4-.4l5.6.7-.5-1.7c-.1-.3 0-.6.3-.8l5.6-4.8-1.2-.6c-.5-.2-.4-.5-.2-1.2l.9-3.3-3.3.7c-.3.1-.5-.2-.6-.4l-.4-1.5-2.6 3c-.4.5-1.1.5-.9-.6l1.1-6.1-1.5.8c-.4.2-.8.3-1.1-.1L24 11.3z" class="st0"/></svg>