<svg xmlns="http://www.w3.org/2000/svg" viewBox="0 0 48 48"><defs><style>.b{fill:red}</style></defs><circle cx="24" cy="24" r="24" style="fill:#fff"/><path d="M48 24a23.7 23.7 0 0 1-.3 3.6H27.6V42h-7.2V27.6H.3a24.1 24.1 0 0 1 0-7.2h20.1V6h7.2v14.4h20.1A23.7 23.7 0 0 1 48 24Z" class="b"/><path d="M12.4 14.5a18 18 0 0 0-2.8-.4A18 18 0 0 0 10 17a9.6 9.6 0 0 0-2.6 0 18 18 0 0 0 .4-2.8 18 18 0 0 0-2.8.4 9.6 9.6 0 0 0 0-2.6 18 18 0 0 0 2.8.4 18 18 0 0 0-.4-2.8 9.6 9.6 0 0 0 2.6 0 18 18 0 0 0-.4 2.8 18 18 0 0 0 2.8-.4 9.6 9.6 0 0 0 0 2.6ZM43 14.5a18 18 0 0 0-2.8-.4 18 18 0 0 0 .4 2.8 9.6 9.6 0 0 0-2.6 0 18 18 0 0 0 .4-2.8 18 18 0 0 0-2.8.4 9.6 9.6 0 0 0 0-2.6 18 18 0 0 0 2.8.4 18 18 0 0 0-.4-2.8 9.6 9.6 0 0 0 2.6 0 18 18 0 0 0-.4 2.8 18 18 0 0 0 2.8-.4 9.6 9.6 0 0 0 0 2.6ZM12.4 36a18 18 0 0 0-2.8-.3 18 18 0 0 0 .4 2.8 9.6 9.6 0 0 0-2.6 0 18 18 0 0 0 .4-2.8 18 18 0 0 0-2.8.4 9.6 9.6 0 0 0 0-2.6 18 18 0 0 0 2.8.4 18 18 0 0 0-.4-2.8 9.6 9.6 0 0 0 2.6 0 18 18 0 0 0-.4 2.8 18 18 0 0 0 2.8-.4 9.6 9.6 0 0 0 0 2.6ZM43 36a18 18 0 0 0-2.8-.3 18 18 0 0 0 .4 2.8 9.6 9.6 0 0 0-2.6 0 18 18 0 0 0 .4-2.8 18 18 0 0 0-2.8.4 9.6 9.6 0 0 0 0-2.6 18 18 0 0 0 2.8.4A18 18 0 0 0 38 31a9.6 9.6 0 0 0 2.6 0 18 18 0 0 0-.4 2.8 18 18 0 0 0 2.8-.4 9.6 9.6 0 0 0 0 2.6Z" class="b"/></svg>