<svg xmlns="http://www.w3.org/2000/svg" xml:space="preserve" id="svg1306" x="0" y="0" style="enable-background:new 0 0 48 48" version="1.1" viewBox="0 0 48 48"><style>.st1,.st2{fill-rule:evenodd;clip-rule:evenodd;fill:#c8102e}.st2{fill:#012169}</style><ellipse cx="24" cy="24" rx="23.9" ry="24" style="fill-rule:evenodd;clip-rule:evenodd;fill:#fefefe"/><path d="m35.1 17.4 9-6.2-1.5-2.1-12.1 8.3h4.6zM34.1 31.6l9.2 6.4 1.4-2.2-6-4.2h-4.6zM3.1 12.3l7.3 5.1H15L4.5 10l-1.4 2.3zM14 31.6l-9.4 6.5 1.7 2 12.3-8.5H14z" class="st1"/><path d="M29.2.6v15.5l12.2-8.4C38.2 4.2 34 1.7 29.2.6zM6.6 7.5l12.5 8.7V.5a24 24 0 0 0-12.5 7zM45.7 14.3l-4.4 3.1h5.6c-.3-1.1-.7-2.1-1.2-3.1zM46.6 31.6h-5.3l4.1 2.8c.5-.9.8-1.8 1.2-2.8zM19.1 47.5V32.8l-12 8.3c3.3 3.2 7.4 5.5 12 6.4zM40.9 40.9l-11.6-8v14.6c4.4-1.2 8.4-3.5 11.6-6.6zM2.5 34.7 7 31.6H1.2l1.3 3.1zM.9 17.4H7L2.2 14 .9 17.4z" class="st2"/><path d="M21.2.2v20H.3a23.4 23.4 0 0 0 .2 8.6h20.7v19.1l2.8.1 3.4-.2v-19h20.2a24.4 24.4 0 0 0 .2-8.6H27.2V.2L24 0l-2.8.2z" class="st1"/></svg>