<svg xmlns="http://www.w3.org/2000/svg" viewBox="0 0 48 48"><defs><style>.a{fill:#fff}.d{fill:#2c2c6f}</style></defs><circle cx="24" cy="24" r="24" class="a"/><path d="M1.4 16h45.3a24 24 0 0 0-45.3 0Z" style="fill-rule:evenodd;fill:#f15b25"/><path d="M46.6 32H1.4a24 24 0 0 0 45.2 0Z" style="fill:#006934;fill-rule:evenodd"/><circle cx="24" cy="24" r="7.4" class="d"/><circle cx="24" cy="24" r="6.4" class="a"/><circle cx="24" cy="24" r="1.3" class="d"/><path d="m19.5 28.5 2.5-2.9 1.5-1.1-1.1 1.5Z" class="d"/><circle cx="18.9" cy="27.9" r=".3" class="d"/><path d="M28.5 19.5 26 22.4l-1.5 1.1 1.1-1.5Z" class="d"/><circle cx="29.1" cy="20.1" r=".3" class="d"/><path d="m20.8 29.5 1.7-3.4 1.2-1.5-.8 1.7Z" class="d"/><circle cx="20.1" cy="29.1" r=".3" class="d"/><path d="m27.2 18.5-1.7 3.4-1.2 1.5.8-1.7Z" class="d"/><circle cx="27.9" cy="18.9" r=".3" class="d"/><path d="m22.3 30.2.8-3.8.7-1.8-.2 2Z" class="d"/><circle cx="21.6" cy="29.9" r=".3" class="d"/><path d="m25.7 17.8-.8 3.8-.7 1.8.2-2Z" class="d"/><circle cx="26.4" cy="18.1" r=".3" class="d"/><path d="m24 17.6.2 3.9-.2 1.9-.2-2Z" class="d"/><circle cx="24.8" cy="17.7" r=".3" class="d"/><path d="m24 30.4-.2-3.9.2-1.9.2 2Z" class="d"/><circle cx="23.2" cy="30.3" r=".3" class="d"/><path d="m17.8 22.3 3.8.8 1.8.7-2-.2Z" class="d"/><circle cx="18.1" cy="21.6" r=".3" class="d"/><path d="m30.2 25.7-3.8-.8-1.8-.7 2 .2Z" class="d"/><circle cx="29.9" cy="26.4" r=".3" class="d"/><path d="m17.6 24 3.9-.2 1.9.2-2 .2Z" class="d"/><circle cx="17.7" cy="23.2" r=".3" class="d"/><path d="m30.4 24-3.9.2-1.9-.2 2-.2Z" class="d"/><circle cx="30.3" cy="24.8" r=".3" class="d"/><path d="m17.8 25.7 3.7-1.3 1.9-.2-1.8.7Z" class="d"/><circle cx="17.7" cy="24.8" r=".3" class="d"/><path d="m30.2 22.3-3.7 1.3-1.9.2 1.8-.7Z" class="d"/><circle cx="30.3" cy="23.2" r=".3" class="d"/><path d="m18.5 27.2 3.2-2.1 1.7-.8-1.5 1.2Z" class="d"/><circle cx="18.1" cy="26.4" r=".3" class="d"/><path d="m29.5 20.8-3.2 2.1-1.7.8 1.5-1.2Z" class="d"/><circle cx="29.9" cy="21.6" r=".3" class="d"/><path d="m19.5 19.5 2.9 2.5 1.1 1.5-1.5-1.1Z" class="d"/><circle cx="20.1" cy="18.9" r=".3" class="d"/><path d="M28.5 28.5 25.6 26l-1.1-1.5 1.5 1.1Z" class="d"/><circle cx="27.9" cy="29.1" r=".3" class="d"/><path d="m18.5 20.8 3.4 1.7 1.5 1.2-1.7-.8Z" class="d"/><circle cx="18.9" cy="20.1" r=".3" class="d"/><path d="m29.5 27.2-3.4-1.7-1.5-1.2 1.7.8Z" class="d"/><circle cx="29.1" cy="27.9" r=".3" class="d"/><path d="m27.2 29.5-2.1-3.2-.8-1.7 1.2 1.5Z" class="d"/><circle cx="26.4" cy="29.9" r=".3" class="d"/><path d="m20.8 18.5 2.1 3.2.8 1.7-1.2-1.5Z" class="d"/><circle cx="21.6" cy="18.1" r=".3" class="d"/><path d="m25.7 30.2-1.3-3.7-.2-1.9.7 1.8Z" class="d"/><circle cx="24.8" cy="30.3" r=".3" class="d"/><path d="m22.3 17.8 1.3 3.7.2 1.9-.7-1.8Z" class="d"/><circle cx="23.2" cy="17.7" r=".3" class="d"/></svg>