<svg xmlns="http://www.w3.org/2000/svg" viewBox="0 0 48 48"><defs><style>.a{fill:#da0000}.b{fill:#fff}</style></defs><circle cx="24" cy="24" r="24" class="a"/><path d="M48 24a23.6 23.6 0 0 1-1.4 8H1.4A23.6 23.6 0 0 1 0 24a24 24 0 0 1 48 0Z" class="b"/><path d="M46.6 16H1.4a24 24 0 0 1 45.2 0Z" style="fill:#239f40"/><path d="M5.1 16.4H1.8v-.8H5ZM5.1 32.4H1.8v-.8H5ZM12.6 15.3h-1.9v-.8h-1v.4h.7v.4H9.3V14h1.4v-.7h.4v1.5h.4v-1.5h.4v1.5h.3v-1.5h.4Zm-3.7 0H7v-.8H6v.8h-.4V14h1.9v.8h1.1v-.4h-.7v-.4h1Zm-2.3 0h-.3v-.4h.3Zm3.8-1.5H5.5v-.4h4.9ZM12.6 16.4H9.3v-.8h3.3Zm-3.7 0H5.5v-.8H9ZM12.6 32.4H9.3v-.8h3.3Zm-3.7 0H5.5v-.8H9ZM12.6 34.6h-1.9V34h-1v.3h.7v.4H9.3v-1.1h1.4v-.8h.4v1.5h.4v-1.5h.4v1.5h.3v-1.5h.4Zm-3.7 0H7V34H6v.7h-.4v-1.1h1.9v.7h1.1V34h-.7v-.4h1Zm-2.3 0h-.3v-.4h.3Zm3.8-1.5H5.5v-.4h4.9ZM20 15.3h-1.8v-.8h-1.1v.4h.7v.4h-1V14h1.4v-.7h.4v1.5h.4v-1.5h.3v1.5h.4v-1.5h.4Zm-3.7 0h-1.8v-.8h-1.1v.8H13V14h1.9v.8h1v-.4h-.7v-.4h1.1Zm-2.2 0h-.4v-.4h.4Zm3.7-1.5H13v-.4h4.8ZM20 16.4h-3.3v-.8h3.4Zm-3.7 0H13v-.8h3.3ZM20 32.4h-3.3v-.8h3.4Zm-3.7 0H13v-.8h3.3ZM20 34.6h-1.8V34h-1.1v.3h.7v.4h-1v-1.1h1.4v-.8h.4v1.5h.4v-1.5h.3v1.5h.4v-1.5h.4Zm-3.7 0h-1.8V34h-1.1v.7H13v-1.1h1.9v.7h1V34h-.7v-.4h1.1Zm-2.2 0h-.4v-.4h.4Zm3.7-1.5H13v-.4h4.8ZM27.5 15.3h-1.8v-.8h-1.1v.4h.7v.4h-1.1V14h1.5v-.7h.4v1.5h.3v-1.5h.4v1.5h.4v-1.5h.3Zm-3.7 0H22v-.8h-1v.8h-.4V14h1.8v.8h1.1v-.4h-.7v-.4h1.1Zm-2.2 0h-.4v-.4h.4Zm3.7-1.5h-4.8v-.4h4.8ZM27.5 16.4h-3.3v-.8h3.3Zm-3.7 0h-3.3v-.8h3.3ZM27.5 32.4h-3.3v-.8h3.3Zm-3.7 0h-3.3v-.8h3.3ZM27.5 34.6h-1.8V34h-1.1v.3h.7v.4h-1.1v-1.1h1.5v-.8h.4v1.5h.3v-1.5h.4v1.5h.4v-1.5h.3Zm-3.7 0H22V34h-1v.7h-.4v-1.1h1.8v.7h1.1V34h-.7v-.4h1.1Zm-2.2 0h-.4v-.4h.4Zm3.7-1.5h-4.8v-.4h4.8ZM35 15.3h-1.9v-.8h-1v.4h.7v.4h-1.1V14H33v-.7h.4v1.5h.4v-1.5h.4v1.5h.3v-1.5h.4Zm-3.7 0h-1.9v-.8h-1.1v.8h-.4V14h1.9v.8h1.1v-.4h-.7v-.4h1Zm-2.3 0h-.3v-.4h.3Zm3.8-1.5h-4.9v-.4h4.9ZM35 16.4h-3.3v-.8H35Zm-3.7 0h-3.4v-.8h3.4ZM35 32.4h-3.3v-.8H35Zm-3.7 0h-3.4v-.8h3.4ZM35 34.6h-1.9V34h-1v.3h.7v.4h-1.1v-1.1H33v-.8h.4v1.5h.4v-1.5h.4v1.5h.3v-1.5h.4Zm-3.7 0h-1.9V34h-1.1v.7h-.4v-1.1h1.9v.7h1.1V34h-.7v-.4h1Zm-2.3 0h-.3v-.4h.3Zm3.8-1.5h-4.9v-.4h4.9ZM42.5 15.3h-1.9v-.8h-1.1v.4h.7v.4h-1V14h1.4v-.7h.4v1.5h.4v-1.5h.3v1.5h.4v-1.5h.4Zm-3.8 0H37v-.8h-1.1v.8h-.4V14h1.9v.8h1v-.4h-.7v-.4h1.1Zm-2.2 0h-.4v-.4h.4Zm3.7-1.5h-4.8v-.4h4.8ZM42.5 16.4H39v-.8h3.4Zm-3.8 0h-3.3v-.8h3.3ZM42.5 32.4H39v-.8h3.4Zm-3.8 0h-3.3v-.8h3.3ZM42.5 34.6h-1.9V34h-1.1v.3h.7v.4h-1v-1.1h1.4v-.8h.4v1.5h.4v-1.5h.3v1.5h.4v-1.5h.4Zm-3.8 0H37V34h-1.1v.7h-.4v-1.1h1.9v.7h1V34h-.7v-.4h1.1Zm-2.2 0h-.4v-.4h.4Zm3.7-1.5h-4.8v-.4h4.8ZM43.6 14.9v.4h.4v-.4ZM46.2 16.4H43v-.8h3.3ZM46.2 32.4H43v-.8h3.3ZM43.6 34.2v.4h.4v-.4Z" class="b"/><path d="M46.2 15v.3h-1.9v-.8h-1v.7h-.5v-1h2v.7h1v-.4h-.7v-.4h.8l.3.8ZM45.7 13.8h-2.9v-.4h2.7a2.5 2.5 0 0 1 .2.4ZM46.3 32.8l-.1.3h-3.4v-.4ZM45.8 34v-.1h-.7v-.4h1a4.4 4.4 0 0 1-.3.4Z" class="b"/><path d="M45.7 34.2a2.5 2.5 0 0 1-.2.4h-1.1V34h-1.2v.7h-.4v-1.1h2v.7ZM5.2 32.8v1.8h-2V34h-1a4.4 4.4 0 0 1-.2-.4h1.3v-.8h.3v1.5H4v-1.5h.4v1.5h.4v-1.5Z" class="b"/><path d="M3 32.8v.3H1.7l-.1-.4ZM3 34.2v.4h-.5a2.5 2.5 0 0 1-.2-.4ZM3 13.4v.4h-.7a2.5 2.5 0 0 1 .2-.4Z" class="b"/><path d="M5.2 13.4v1.9h-2v-.8h-1v.4h.7v.3H1.8V15c0-.3.2-.5.3-.8h1.2v-.7h.3v1.5H4v-1.5h.4v1.5h.4v-1.5Z" class="b"/><path d="M25 28.7a6 6 0 0 0 2.3.3 5.4 5.4 0 0 1-2.8.2v.2l-.5.6-.5-.6v-.2a5.4 5.4 0 0 1-2.8-.2 6 6 0 0 0 2.4-.3 5.5 5.5 0 0 1-1-9 6 6 0 0 0 1.4 8.2l-.2-4.5v-3.5a1.9 1.9 0 0 0 .7-.6 1.9 1.9 0 0 0 .7.6v3.5l-.2 4.5a6 6 0 0 0 1.5-8.2 5.5 5.5 0 0 1-1 9Z" class="a"/><path d="M20.3 28a4.6 4.6 0 0 1 1.2-8.4 6 6 0 0 0-1.2 8.4M27.7 28a4.6 4.6 0 0 0-1.2-8.4 6 6 0 0 1 1.2 8.4M25.2 19.2A.9.9 0 0 1 24 19a.9.9 0 0 1-1.5-.8.8.8 0 0 0 1.5.3.8.8 0 0 0 1.5-.3.9.9 0 0 1-.3 1Z" class="a"/></svg>