<svg xmlns="http://www.w3.org/2000/svg" xml:space="preserve" id="svg1306" x="0" y="0" style="enable-background:new 0 0 48 48" version="1.1" viewBox="0 0 48 48"><style>.st0{fill:#007749}.st0,.st1{fill-rule:evenodd;clip-rule:evenodd}</style><path d="M42.5 39.3 24 28.5 5.5 39.3a24 24 0 0 0 37 0zM5.5 8.7 24 19.5 42.5 8.7a24 24 0 0 0-37 0z" class="st0"/><path d="M1.6 32.6 16.3 24 1.6 15.4a24.8 24.8 0 0 0 0 17.2zM46.4 15.4 31.7 24l14.7 8.6a24.8 24.8 0 0 0 0-17.2z" class="st1"/><path d="m31.7 24 14.7 8.6a37.8 37.8 0 0 1-3.9 6.7L24 28.5 5.5 39.3a22.7 22.7 0 0 1-3.9-6.7L16.3 24 1.6 15.4c.5-1.2 1-2.4 1.7-3.5.6-1.1 1.4-2.2 2.2-3.2L24 19.5 42.5 8.7a22.7 22.7 0 0 1 3.9 6.7L31.7 24z" style="fill-rule:evenodd;clip-rule:evenodd;fill:#ffb81c"/></svg>