<svg xmlns="http://www.w3.org/2000/svg" viewBox="0 0 48 48"><path d="M24 0a24 24 0 1 0 24 24A24 24 0 0 0 24 0Z" style="fill-rule:evenodd;fill:red"/><path d="m26.1 14.5.3-5.4h-.1l-1.4 5.2a.6.6 0 1 0 1.2.2Zm1.5.4 1-5.2-2.1 4.8a.6.6 0 0 0 1 .4Zm1.4.7 1.9-5h-.1L27.9 15a.6.6 0 0 0 1 .6Zm1.2.9 2.7-4.6-3.6 3.8a.6.6 0 1 0 .9.8Zm1.1 1 3.4-4.1h-.1l-4.1 3.3a.6.6 0 0 0 .8.9Zm1 1.3 3.9-3.6-4.6 2.6a.6.6 0 1 0 .6 1ZM33 20l4.4-2.9-5 1.8a.6.6 0 0 0 .5 1.1Zm.5 1.5 4.8-2.2-5.2 1a.6.6 0 0 0 .3 1.2Zm.2 1.5 5.2-1.4-5.3.2a.6.6 0 1 0 0 1.2Zm0 1.5L39 24l-5.2-.6a.6.6 0 0 0 0 1.2Zm-.2 1.5 5.4.3v-.1l-5.2-1.4a.6.6 0 0 0-.2 1.2Zm-.4 1.5 5.2 1-4.8-2.1a.6.6 0 0 0-.4 1Zm-.7 1.4 5 1.9v-.1L33 27.9a.6.6 0 0 0-.6 1Zm-.9 1.2 4.6 2.7-3.8-3.6a.6.6 0 0 0-.8.9Zm-1 1.1 4.1 3.4v-.1l-3.3-4.1a.6.6 0 0 0-.9.8Zm-1.3 1 3.6 3.9-2.6-4.6a.6.6 0 1 0-1 .6ZM28 33l2.9 4.4-1.8-5a.6.6 0 1 0-1.1.5Zm-1.5.5 2.2 4.8-1-5.2a.6.6 0 1 0-1.2.3Zm-1.5.2 1.4 5.2-.2-5.3a.6.6 0 1 0-1.2 0Zm-1.5 0L24 39l.6-5.2a.6.6 0 1 0-1.2 0Zm-1.5-.2-.3 5.4h.1l1.4-5.2a.6.6 0 1 0-1.2-.2Zm-1.5-.4-1 5.2 2.1-4.8a.6.6 0 1 0-1-.4Zm-1.4-.7-1.9 5h.1l2.9-4.4a.6.6 0 1 0-1-.6Zm-1.2-.9L15 36.1l3.6-3.8a.6.6 0 1 0-.9-.8Zm-1.1-1-3.4 4.1h.1l4.1-3.3a.6.6 0 0 0-.8-.9Zm-1-1.3-3.9 3.6 4.6-2.6a.6.6 0 0 0-.6-1ZM15 28l-4.4 2.9 5-1.8a.6.6 0 1 0-.5-1.1Zm-.5-1.5-4.8 2.2 5.2-1a.6.6 0 0 0-.3-1.2Zm-.2-1.5L9 26.3l5.3-.2a.6.6 0 0 0 0-1.2Zm0-1.5L9 24l5.2.6a.6.6 0 0 0 0-1.2Zm.2-1.5L9 21.6v.1l5.2 1.4a.6.6 0 1 0 .2-1.2Zm.4-1.5-5.2-1 4.8 2.1a.6.6 0 0 0 .4-1Zm.7-1.4-5-1.9v.1l4.4 2.9a.6.6 0 1 0 .6-1Zm.9-1.2L11.9 15l3.8 3.6a.6.6 0 0 0 .8-.9Zm1-1.1-4.1-3.4v.1l3.3 4.1a.6.6 0 0 0 .9-.8Zm1.3-1-3.6-3.9 2.6 4.6a.6.6 0 1 0 1-.6ZM20 15l-2.9-4.4 1.8 5a.6.6 0 1 0 1.1-.5Zm1.5-.5-2.2-4.8 1 5.2a.6.6 0 1 0 1.2-.3Zm1.5-.2L21.7 9l.2 5.3a.6.6 0 1 0 1.2 0Zm1.5 0L24 9l-.6 5.2a.6.6 0 1 0 1.2 0Zm-.6.6a9.1 9.1 0 1 1-9.1 9.1 9.1 9.1 0 0 1 9.1-9.1Zm0 1a8 8 0 1 1-8 8.1 8 8 0 0 1 8-8Zm-6.7 10.5a15.9 15.9 0 0 1 3.3-4.5l.6.4a15.8 15.8 0 0 0-3.5 5 7.2 7.2 0 0 1-.4-.9Zm7.3-4.1.5.5.6-.5-.5-.5-.6.5Zm-1.2-1 .6.5.6-.4-.6-.5-.6.5Zm0 2 .6.5.5-.6-.5-.5-.5.5Zm-1.1-1 .6.5.5-.5-.6-.5-.5.5Zm3.6-1.7-.6-.5-.7.4.6.5.7-.4Zm1 .8-.5-.4-.6.4.5.5.6-.5Zm-3.6-1.6.7-.5.7.5-.7.4-.7-.4Zm-1.2.8.6-.5.7.4-.6.5-.7-.4Zm-1 .8.5-.4.6.4-.5.5-.6-.5Zm-3.4-1a16 16 0 0 1 2.2 1 15.6 15.6 0 0 0-3 4 7.2 7.2 0 0 1 .8-5Zm.6-1a15.4 15.4 0 0 1 2.6 1.2l-.5.5A18.3 18.3 0 0 0 18 20l.3-.5Zm.8-.8a14.8 14.8 0 0 1 3 1.2l-.7.4a18.8 18.8 0 0 0-2.7-1.1l.4-.5Zm1-.8h.2a14.8 14.8 0 0 1 3 1.2l-.7.4a19 19 0 0 0-3-1.1 7.2 7.2 0 0 1 .6-.5Zm7.1-.4a19 19 0 0 0-3.2 1.2 19 19 0 0 0-3-1.1h-.2a7.2 7.2 0 0 1 6.4 0Zm1.3.8h-.1a19 19 0 0 0-3 1.2l-.8-.4a14.8 14.8 0 0 1 3.1-1.2.6.6 0 0 0 .1 0 7.2 7.2 0 0 1 .7.4Zm.8.9a18.8 18.8 0 0 0-2.7 1.1l-.7-.4a14.8 14.8 0 0 1 3-1.2l.4.5Zm.7.9a18.3 18.3 0 0 0-2.4 1l-.5-.4a15.4 15.4 0 0 1 2.6-1.1l.3.5Zm1 5.3a15.6 15.6 0 0 0-3-3.8 16 16 0 0 1 2.3-1.1 7.2 7.2 0 0 1 .7 5Zm-.7 2a15.8 15.8 0 0 0-3.5-5l.6-.4a15.9 15.9 0 0 1 3.3 4.5 7.1 7.1 0 0 1-.4.9Zm-1.1 1.5a16 16 0 0 0-3.6-5.5l.6-.5a15.6 15.6 0 0 1 3.6 5.3 7.2 7.2 0 0 1-.6.7Zm-1.4 1.1v-.3a16.2 16.2 0 0 0-3.3-5.3l.6-.5a15.4 15.4 0 0 1 3.4 5.6 7.2 7.2 0 0 1-.7.5Zm-7 .4.2-.3a15.2 15.2 0 0 1 3-5.1 15.2 15.2 0 0 1 3 5.1l.1.3a7.2 7.2 0 0 1-6.2 0Zm-1.3-1a15.4 15.4 0 0 1 3.4-5.5l.6.5a16.2 16.2 0 0 0-3.2 5.3l-.1.3a7.2 7.2 0 0 1-.7-.5Zm-1.3-1.2a15.6 15.6 0 0 1 3.6-5.3l.6.5a16 16 0 0 0-3.6 5.5 7.2 7.2 0 0 1-.6-.7" style="fill:#ffed00;fill-rule:evenodd"/></svg>