<svg xmlns="http://www.w3.org/2000/svg" viewBox="0 0 48 48"><defs><style>.b{fill:#ffec2d}</style></defs><circle cx="24" cy="24" r="24" style="fill:#00abc2"/><circle cx="25.9" cy="20.2" r="6.5" class="b"/><path d="M25.9 12.8a.5.5 0 0 0 .5-.5 19 19 0 0 0-.5-2.2 19 19 0 0 0-.6 2.2.5.5 0 0 0 .6.5ZM33.2 20.2a.5.5 0 0 0 .5.5 19 19 0 0 0 2.2-.5 19 19 0 0 0-2.2-.6.5.5 0 0 0-.5.6ZM25.9 27.5a.5.5 0 0 0-.6.5 19 19 0 0 0 .6 2.2 19 19 0 0 0 .5-2.2.5.5 0 0 0-.5-.5ZM18.5 20.2a.5.5 0 0 0-.5-.6 19 19 0 0 0-2.2.6 19 19 0 0 0 2.2.5.5.5 0 0 0 .5-.5ZM28.7 13.4a.5.5 0 0 0 .7-.3 19 19 0 0 0 .3-2.3 19 19 0 0 0-1.3 1.9.5.5 0 0 0 .3.7ZM32.6 23a.5.5 0 0 0 .3.7 19 19 0 0 0 2.3.3 19 19 0 0 0-1.9-1.3.5.5 0 0 0-.7.3ZM23 27a.5.5 0 0 0-.6.2 19 19 0 0 0-.4 2.3 19 19 0 0 0 1.3-1.9.5.5 0 0 0-.2-.7ZM19 17.4a.5.5 0 0 0-.2-.7 19 19 0 0 0-2.3-.4 19 19 0 0 0 1.9 1.3.5.5 0 0 0 .7-.2ZM31 15a.5.5 0 0 0 .8 0 19 19 0 0 0 1.2-2 19 19 0 0 0-2 1.2.5.5 0 0 0 0 .8ZM31 25.4a.5.5 0 0 0 0 .7 19 19 0 0 0 2 1.2 19 19 0 0 0-1.2-2 .5.5 0 0 0-.7 0ZM20.7 25.4a.5.5 0 0 0-.8 0 19 19 0 0 0-1.2 1.9 19 19 0 0 0 2-1.2.5.5 0 0 0 0-.8ZM20.7 15a.5.5 0 0 0 0-.8 19 19 0 0 0-2-1.2 19 19 0 0 0 1.2 2 .5.5 0 0 0 .8 0ZM32.6 17.4a.5.5 0 0 0 .7.2 19 19 0 0 0 1.9-1.3 19 19 0 0 0-2.3.4.5.5 0 0 0-.3.7ZM28.7 27a.5.5 0 0 0-.3.6 19 19 0 0 0 1.3 1.9 19 19 0 0 0-.3-2.3.5.5 0 0 0-.7-.3ZM19 23a.5.5 0 0 0-.6-.3 19 19 0 0 0-1.9 1.3 19 19 0 0 0 2.3-.3.5.5 0 0 0 .3-.7ZM23 13.4a.5.5 0 0 0 .3-.7 19 19 0 0 0-1.3-1.9 19 19 0 0 0 .4 2.3.5.5 0 0 0 .7.3ZM27.3 13a.5.5 0 0 0 .6-.5 19 19 0 0 0 0-2.2 19 19 0 0 0-1 2 .5.5 0 0 0 .4.7ZM33 21.6a.5.5 0 0 0 .5.6 19 19 0 0 0 2.3 0 19 19 0 0 0-2.1-1 .5.5 0 0 0-.6.4ZM24.4 27.4a.5.5 0 0 0-.6.4A19 19 0 0 0 24 30a19 19 0 0 0 1-2.1.5.5 0 0 0-.5-.6ZM18.7 18.7a.5.5 0 0 0-.5-.6 19 19 0 0 0-2.2 0 19 19 0 0 0 2 1 .5.5 0 0 0 .7-.4ZM30 14a.5.5 0 0 0 .7 0 19 19 0 0 0 .8-2.2 19 19 0 0 0-1.7 1.5.5.5 0 0 0 .1.8ZM32 24.2a.5.5 0 0 0 .1.8 19 19 0 0 0 2.1.8 19 19 0 0 0-1.5-1.7.5.5 0 0 0-.7.1ZM21.8 26.3a.5.5 0 0 0-.7.1 19 19 0 0 0-.8 2.1 19 19 0 0 0 1.6-1.5.5.5 0 0 0-.1-.7ZM19.8 16a.5.5 0 0 0-.2-.7 19 19 0 0 0-2.1-.7 19 19 0 0 0 1.5 1.6.5.5 0 0 0 .8-.1ZM32 16a.5.5 0 0 0 .7.2 19 19 0 0 0 1.5-1.6 19 19 0 0 0-2 .7.5.5 0 0 0-.2.8ZM30 26.3a.5.5 0 0 0-.2.7 19 19 0 0 0 1.7 1.5 19 19 0 0 0-.8-2 .5.5 0 0 0-.8-.2ZM19.8 24.2a.5.5 0 0 0-.8-.1 19 19 0 0 0-1.5 1.7 19 19 0 0 0 2.1-.8.5.5 0 0 0 .2-.8ZM21.8 14a.5.5 0 0 0 .1-.7 19 19 0 0 0-1.6-1.5 19 19 0 0 0 .8 2.1.5.5 0 0 0 .7.2ZM33 18.7a.5.5 0 0 0 .7.4 19 19 0 0 0 2-1 19 19 0 0 0-2.2 0 .5.5 0 0 0-.4.6ZM27.3 27.4a.5.5 0 0 0-.4.6 19 19 0 0 0 1 2 19 19 0 0 0 0-2.2.5.5 0 0 0-.6-.4ZM18.7 21.6a.5.5 0 0 0-.7-.4 19 19 0 0 0-2 1 19 19 0 0 0 2.2 0 .5.5 0 0 0 .5-.6ZM24.4 13a.5.5 0 0 0 .4-.7 19 19 0 0 0-1-2 19 19 0 0 0 0 2.2.5.5 0 0 0 .6.5ZM24.7 34.1a2 2 0 0 0-.5.1l-.7.2h-.2a.6.6 0 0 1 0 .1.4.4 0 0 1 0 .2.4.4 0 0 1-.2.1.3.3 0 0 1-.1 0 .3.3 0 0 1-.1 0 .4.4 0 0 1-.1 0 1 1 0 0 1-.2 0 .6.6 0 0 1-.1 0 1.3 1.3 0 0 1-.1 0 .8.8 0 0 1-.2-.1 1.1 1.1 0 0 0-.4.3.5.5 0 0 0 0 .3.7.7 0 0 0 0 .3.8.8 0 0 1 .4-.3v.2a3.1 3.1 0 0 1 1-.2h3a3.5 3.5 0 0 0 .7 0h.2a.9.9 0 0 0-.3-.1h-1a2.8 2.8 0 0 1-.7-.1s-.1-.1-.2 0a1 1 0 0 1-.8 0l.4-.5h-.3l.5-.5Z" class="b"/><path d="M32.2 35.8c-.4.2-.6-.2-1-.3-.1.1-.1.5-.3.7-.3.3-.6 0-.5-.3-.3.2-.5.7-.9.7-.2-.2-.4-.6-.5-.2-.2.2-.5.5-.7.2 0-.2-.2-.6-.3-.1a.6.6 0 0 1-.8.4c-.2-.2.2-.7 0-.7-.4.3-.6.8-1 .7-.2-.2 0-.5-.1-.7-.2.3-.5.7-.9.7-.2-.1 0-.6-.1-.6-.4.2-.8.7-1.4.5.2-.7 1-1 1.8-1 1.2-.2 2.4 0 3.6-.4.2 0 .6-.3.5-.5-.2-.2.4-.1.4-.4 0-.3.2-.3.5-.3 1.2 0 2.3.2 3.5.3a.8.8 0 0 1-1 .8c-.3 0-.7-.6-.6-.2 0 .3 0 .6-.2.7m-10-1.2c.3.3.5 0 .7-.1a9.6 9.6 0 0 0 2.4-1.3 3.4 3.4 0 0 1 1.4-1c1.1-.3 2.4-.3 3.5-.6 1-1.2 2.4-1.7 3.7-2.4a.8.8 0 0 0 .5-.5 5.8 5.8 0 0 1 1.9-2 1.8 1.8 0 0 1 1.2-.2 2 2 0 0 1-.6 1.3l.8-.2c0 .6-.5.8-.8 1.1.2 0 .8.1.5.3a14.1 14.1 0 0 0-1.4.8c.4.1.4.2 0 .3-.1.2-.5.2-.6.5.3.1 0 .3-.2.4-.3 0-.7.2-.3.4a.8.8 0 0 1-.7.2c0 .3.2.6-.1.7a5.2 5.2 0 0 1-2.6 1 5.5 5.5 0 0 0 3.4-.7c.1-.1.8-.3.4-.4l-.6-.3c.6-.4 1.3-.3 1.8-.5 0-.2-.4-.1-.6-.1-.4 0-.4-.2 0-.2a4 4 0 0 0 1.5-.5c-.3-.2-.8 0-1.1-.2a9.2 9.2 0 0 0 1.9-.7c.2-.2-.3-.2-.5-.1-.3 0-.5-.1-.1-.3a7 7 0 0 0 2-1.5c0-.2.2-.7-.1-.5-.5.2-.9.7-1.4.5a11.6 11.6 0 0 0 2.7-2.8c0-.3-.5-.4-.6-.1a8.6 8.6 0 0 1-2.1 1.8 13.4 13.4 0 0 0 2-2.7c.2-.3.5-.6.4-1-.3-.2-.7 0-.9.3a11.4 11.4 0 0 1-1.6 2 8.2 8.2 0 0 0 1.3-3.6c0-.2-.1-.6-.5-.6-.3 0-.2.5-.3.7a8.7 8.7 0 0 1-1 2.6 5.8 5.8 0 0 0 .3-2.2c-.1-.3-.6-.1-.6.2a11.4 11.4 0 0 1-5.5 7.5 11.9 11.9 0 0 1-4.1 1.4 9.6 9.6 0 0 0-1.2.2c-1 .7-1.5 1.8-2.6 2.2-.5.2-1.2.3-1.5.7a.4.4 0 0 0 0 .2" class="b"/><path d="M25.6 31.4a6.4 6.4 0 0 1-.4 1 3.7 3.7 0 0 0-2.5-.6 3 3 0 0 1-2-.6 14.4 14.4 0 0 0-1.5-1.4 4 4 0 0 1-1.6-.8c-1-.8-1.5-2-2.5-2.8a5.5 5.5 0 0 0-.6-.4c-.2 0-.1.4-.3.2h-.5a2.6 2.6 0 0 1 .6 1.4h-.6a4 4 0 0 0 1 1l-.7.1a2.8 2.8 0 0 0 1.3.7v.5c.2 0 .6.2.3.3a.2.2 0 0 0 .1.4l.6.2c-.2.2-.6.3-.2.5a2.5 2.5 0 0 0 1 .3c-.1.2-.4.3-.6.4a15.3 15.3 0 0 0 2.9 1.2 9 9 0 0 0 1.2.3 9.7 9.7 0 0 1-3.4-.9l-1.7-.6.8-.3a4.6 4.6 0 0 1-1.5-.4c0-.2.3-.2.4-.2.3-.1.5-.2.1-.2a3.8 3.8 0 0 1-1.2-.3c0-.2.4-.1.5-.2a1.1 1.1 0 0 0 .6-.2c-.6-.2-1.5 0-2-.6 0-.2.4 0 .5 0a2.6 2.6 0 0 0 1-.1 7.5 7.5 0 0 1-2.5-1.5c-.1-.1-.3-.5-.1-.5.5 0 .9.7 1.5.6l-.5-.4A11 11 0 0 1 11 25c0-.3.4-.4.6-.1a9.6 9.6 0 0 0 2 1.7l-.2-.2a14.3 14.3 0 0 1-2-2.8c0-.2-.2-.5 0-.6a.5.5 0 0 1 .7.3 13.2 13.2 0 0 0 1.7 2 8.3 8.3 0 0 1-1.3-3.5c0-.3 0-.7.4-.7.3 0 .3.4.3.5a9.8 9.8 0 0 0 1 2.8 6.3 6.3 0 0 1-.2-2.1.3.3 0 0 1 .5-.2l.3 1.2a11.4 11.4 0 0 0 4.4 6 11.7 11.7 0 0 0 6 2.1h.5" class="b"/><circle cx="23" cy="34.6" r=".1" class="b"/><path d="M7.4 11.3a1 1 0 0 1-.8-1.3l-.4.1a.8.8 0 0 1 .2-.5 1.2 1.2 0 0 0-.3 0 .5.5 0 0 1 .3-.3.8.8 0 0 1-1-.5l.4-.4a.3.3 0 0 0 0 .1c0 .3 0 .4.4.4.2 0 .5-.2.5-.7a.7.7 0 0 0-.3-.5l.8-.8a.7.7 0 0 1-.4.4 1.2 1.2 0 0 1 .5.9c0 .8-.3 1-.3 2a1.6 1.6 0 0 0 .4 1.1Z" class="b"/><path d="M6.3 8.3a.2.2 0 0 1-.2.4s.1-.4-.2-.4l.4-.5a.2.2 0 0 1 0 .2.5.5 0 0 1 .3.2.5.5 0 0 1-.3.1ZM7.4 17.8a2.3 2.3 0 0 0 .2-1 1.2 1.2 0 0 0-1.2-1.3 1.2 1.2 0 0 0 1.2-1.3 2.2 2.2 0 0 0-.2-1l-2-4.3-.4.5 2 4.1a1.5 1.5 0 0 1 0 .7.8.8 0 0 1-.8.7.7.7 0 0 1-.7-.6c0-.2.1-.3.3-.3.4 0 .4.3.3.5a.5.5 0 0 0 .4-.5.6.6 0 0 0 .4-.2.5.5 0 0 0-.4-.3c0-.3-.2-.4-.4-.5 0 .2.1.5-.3.5a.8.8 0 0 0-.7.3v-1.3c0-.4.5-.4.9-.3a.8.8 0 0 0-1-.6.5.5 0 0 0 .3-.5 1.2 1.2 0 0 0-.5-.9 1.2 1.2 0 0 0-.5 1 .5.5 0 0 0 .3.4.8.8 0 0 0-1 .6c.3-.1.8-.1.8.3v1.3a.8.8 0 0 0-.7-.3c-.4 0-.3-.3-.3-.5-.2 0-.4.2-.3.6a.5.5 0 0 0-.4.2.6.6 0 0 0 .4.2.5.5 0 0 0 .3.5c0-.2 0-.5.3-.5.2 0 .3.1.3.3a.7.7 0 0 1-.7.6.8.8 0 0 1-.8-.8 1.5 1.5 0 0 1 .1-.6l1-2.2A22 22 0 0 0 2 14.6a1.2 1.2 0 0 0 1.2.9A1.2 1.2 0 0 0 2 16.7a2.3 2.3 0 0 0 .2 1.1l2.2 4.4a1.3 1.3 0 0 1 0 .6.8.8 0 0 1-1.5 0c0-.5.3-.7.5-.7.3 0 .5.1.5.3 0 .2-.1.3-.2.3-.3 0-.2-.4-.2-.4a.2.2 0 0 0-.2.3.5.5 0 0 0-.3.2.4.4 0 0 0 .3.1c0 .2 0 .3.2.4a.3.3 0 0 1 0-.2.6.6 0 0 0 .7-.6.8.8 0 0 0-1-.8.5.5 0 0 0 .3-.4.7.7 0 0 1-.3 0 .8.8 0 0 0 .2-.5c-.1.1-.2.2-.4.1a1 1 0 0 0-.8-1.3 1.6 1.6 0 0 1 .4 1c0 1.2-.3 1.4-.3 2.2a1.2 1.2 0 0 0 .5.9.7.7 0 0 0-.4.3.7.7 0 0 0 .4.3 1.2 1.2 0 0 0-.5 1c0 .7.3.9.3 2a1.6 1.6 0 0 1-.4 1 1 1 0 0 0 .8-1.2c.2-.1.3 0 .4 0a.8.8 0 0 0-.2-.5.7.7 0 0 1 .3.1.5.5 0 0 0-.3-.4.8.8 0 0 0 1-.8.6.6 0 0 0-.7-.6.3.3 0 0 1 0-.2c-.2 0-.3.2-.2.4a.4.4 0 0 0-.3.1.5.5 0 0 0 .3.2.2.2 0 0 0 .2.3s0-.4.2-.4c0 0 .2.1.2.3 0 .2-.2.3-.5.3-.2 0-.5-.2-.5-.7a.8.8 0 0 1 1.6 0 1.3 1.3 0 0 1-.1.6L2 30.2a2.3 2.3 0 0 0-.2 1A1.2 1.2 0 0 0 3 32.6a1.2 1.2 0 0 0-1.2 1 22 22 0 0 0 1.7 3.2l-1-2.2a1.5 1.5 0 0 1-.1-.6.8.8 0 0 1 .8-.8.7.7 0 0 1 .7.6c0 .2-.1.3-.3.3-.4 0-.4-.3-.3-.5a.5.5 0 0 0-.3.5.6.6 0 0 0-.4.2.5.5 0 0 0 .4.2c-.1.4.1.5.3.6 0-.2 0-.5.3-.5a.8.8 0 0 0 .7-.3v1.3c0 .4-.5.4-.8.3a.8.8 0 0 0 1 .6.5.5 0 0 0-.3.5 1.2 1.2 0 0 0 .5.9 1.2 1.2 0 0 0 .5-1 .5.5 0 0 0-.4-.4.8.8 0 0 0 1-.6c-.3.1-.8.1-.8-.3v-1.3a.8.8 0 0 0 .7.3c.4 0 .4.3.3.5.2 0 .4-.2.4-.6a.5.5 0 0 0 .4-.2.6.6 0 0 0-.4-.2.5.5 0 0 0-.4-.5c0 .2.1.5-.3.5-.2 0-.3-.1-.3-.3a.7.7 0 0 1 .7-.6.8.8 0 0 1 .9.7 1.5 1.5 0 0 1-.2.7l-2 4.1.4.5 2-4.3a2.2 2.2 0 0 0 .3-1 1.2 1.2 0 0 0-1.2-1.3 1.2 1.2 0 0 0 1.2-1.2 2.3 2.3 0 0 0-.2-1.1l-2.1-4.4a1.3 1.3 0 0 1-.1-.6.8.8 0 0 1 1.5 0c0 .5-.3.7-.5.7-.3 0-.5-.1-.5-.3 0-.2.1-.3.2-.3.3 0 .2.4.2.4a.2.2 0 0 0 .2-.3.5.5 0 0 0 .3-.2.4.4 0 0 0-.3-.1c0-.2 0-.3-.2-.4a.3.3 0 0 1 0 .2.6.6 0 0 0-.7.6.8.8 0 0 0 1 .8.5.5 0 0 0-.3.4.7.7 0 0 1 .3 0 .8.8 0 0 0-.2.5c.1-.1.3-.2.4-.1a1 1 0 0 0 .8 1.3 1.6 1.6 0 0 1-.4-1c0-1.2.3-1.4.3-2.2a1.2 1.2 0 0 0-.5-.9.7.7 0 0 0 .5-.3.7.7 0 0 0-.5-.3 1.2 1.2 0 0 0 .5-1c0-.7-.3-.9-.3-2a1.6 1.6 0 0 1 .4-1 1 1 0 0 0-.8 1.2c-.1.1-.3 0-.4 0a.8.8 0 0 0 .2.5.7.7 0 0 1-.3-.1.5.5 0 0 0 .3.4.8.8 0 0 0-1 .8.6.6 0 0 0 .7.6.3.3 0 0 1 0 .2c.2 0 .3-.2.2-.4a.4.4 0 0 0 .3-.1.5.5 0 0 0-.3-.2.2.2 0 0 0-.2-.3s.1.4-.2.4l-.1-.3c0-.2 0-.3.4-.3.3 0 .5.2.5.7a.8.8 0 0 1-1.5 0 1.3 1.3 0 0 1 0-.6Zm-2.6-3.3a1.6 1.6 0 0 0 1.2 1 1.6 1.6 0 0 0-1.2 1 1.5 1.5 0 0 0-1.3-1 1.6 1.6 0 0 0 1.3-1Zm0 19a1.5 1.5 0 0 0-1.3-1 1.6 1.6 0 0 0 1.3-1 1.6 1.6 0 0 0 1.2 1 1.6 1.6 0 0 0-1.2 1Zm2.1-3a1.5 1.5 0 0 1 .2.7.8.8 0 0 1-.9.8.7.7 0 0 1-.7-.6c0-.3.1-.4.3-.4.4 0 .4.4.3.6a.5.5 0 0 0 .4-.6.6.6 0 0 0 .4-.2.5.5 0 0 0-.4-.2c0-.3-.2-.5-.4-.6 0 .3.1.6-.3.6a.8.8 0 0 0-.7.2v-1.3c0-.4.5-.4.9-.3a.8.8 0 0 0-1-.6.5.5 0 0 0 .3-.5 1.3 1.3 0 0 0-.5-.8 1.3 1.3 0 0 0-.5.8.5.5 0 0 0 .3.5.8.8 0 0 0-1 .6c.3 0 .8 0 .8.3v1.3a.8.8 0 0 0-.7-.2c-.4 0-.4-.3-.3-.6-.2.1-.4.3-.3.6a.5.5 0 0 0-.4.2.6.6 0 0 0 .4.2.5.5 0 0 0 .3.6c0-.3 0-.6.3-.6.2 0 .3.1.3.4a.7.7 0 0 1-.7.6.8.8 0 0 1-.9-.8 1.5 1.5 0 0 1 .2-.6L4.8 26ZM5.6 24a1.2 1.2 0 0 0-.8.6 1.2 1.2 0 0 0-.9-.6 1.2 1.2 0 0 0 .9-.6 1.2 1.2 0 0 0 .8.6Zm-.8-2-2.2-4.6a1.5 1.5 0 0 1-.1-.6.8.8 0 0 1 .8-.8.7.7 0 0 1 .7.6c0 .3-.1.4-.3.4-.4 0-.4-.4-.3-.6a.5.5 0 0 0-.3.6.6.6 0 0 0-.4.2.5.5 0 0 0 .4.2c-.1.3.1.5.3.6 0-.3 0-.6.3-.6a.8.8 0 0 0 .7-.2v1.3c0 .4-.5.4-.8.3a.8.8 0 0 0 1 .6.5.5 0 0 0-.3.5 1.3 1.3 0 0 0 .5.8 1.3 1.3 0 0 0 .5-.8.5.5 0 0 0-.4-.5.8.8 0 0 0 1-.6c-.3 0-.8 0-.8-.3v-1.3a.8.8 0 0 0 .7.2c.4 0 .4.3.3.6.2-.1.4-.3.4-.6a.5.5 0 0 0 .4-.2.6.6 0 0 0-.4-.2.5.5 0 0 0-.4-.6c0 .3.1.6-.3.6-.2 0-.3-.1-.3-.4a.7.7 0 0 1 .7-.6.8.8 0 0 1 .9.8 1.5 1.5 0 0 1-.2.6ZM6.8 40.7a.7.7 0 0 1 .5.3.3.3 0 0 1-.1.1l-.8-.8a.7.7 0 0 0 .3-.5c0-.5-.3-.7-.5-.7-.3 0-.5.1-.5.4a.3.3 0 0 0 0 .1l-.3-.4a.8.8 0 0 1 1-.5.5.5 0 0 1-.3-.4 1.2 1.2 0 0 0 .3 0 .8.8 0 0 1-.2-.4c.1 0 .2.1.4 0a1 1 0 0 1 .8-1.2 1.6 1.6 0 0 0-.4 1c0 1.1.3 1.3.3 2.1a1.2 1.2 0 0 1-.5 1Z" class="b"/></svg>