<svg xmlns="http://www.w3.org/2000/svg" viewBox="0 0 48 48"><defs><style>.d{fill:#fff;fill-rule:evenodd}</style></defs><circle cx="24" cy="24" r="24" style="fill:#fff"/><path d="M10.3 6.7v34.5H37L19.7 23.9h18L10.3 6.7Zm1.3 2.4 21.6 13.5H16.5l17.3 17.3H11.6Z" style="fill-rule:evenodd;fill:#003893"/><path d="M10.9 7.9v32.7h24.5L18.1 23.3h17.3L10.9 7.9z" style="fill:#dc143c;fill-rule:evenodd"/><path d="M17.1 22.4a5 5 0 0 0 4.9-4.9 5.1 5.1 0 0 1-2.2 2.6l-.4-.3.8-.6-1-.2.5-.9-1 .1.1-1-.9.5-.3-1-.6.8-.6-.8-.3 1-.9-.5.1 1-1-.1.5.9-1 .2.8.6-.4.3a5.1 5.1 0 0 1-2.2-2.6 5.2 5.2 0 0 0 5.1 4.9ZM20.3 32.8l2-.9-2-.8 1.3-1.8-2.2.3.3-2.2-1.8 1.3-.8-2-.9 2-1.8-1.3.3 2.2-2.2-.3 1.4 1.8-2.1.8 2.1.9-1.4 1.8 2.2-.3-.3 2.2 1.8-1.4.9 2.1.8-2.1 1.8 1.4-.3-2.2 2.2.3-1.3-1.8z" class="d"/></svg>