<svg xmlns="http://www.w3.org/2000/svg" viewBox="0 0 48 48"><defs><style>.a{fill:#fff}.b{fill:#0b4ea2}.c{fill:#ee1c25}</style></defs><circle cx="24" cy="24" r="24" class="a"/><path d="M48 24a24 24 0 0 1-48 0 23.6 23.6 0 0 1 1.4-8h45.2a23.6 23.6 0 0 1 1.4 8Z" class="b"/><path d="M46.6 32a24 24 0 0 1-45.2 0Z" class="c"/><path d="M28.2 11.6s.4 3.8.4 11.3c0 7.6-5.8 11.5-10 13.5-4.2-2-10-5.9-10-13.5 0-7.5.4-11.3.4-11.3Z" class="c"/><path d="M17.8 32v-9.4a14.4 14.4 0 0 0-5 .6 15.5 15.5 0 0 0 0-2.9 14.3 14.3 0 0 0 5 .6v-2.6a11.8 11.8 0 0 0-4 .6 15.5 15.5 0 0 0 0-2.9 12 12 0 0 0 4 .6 22.2 22.2 0 0 0-.6-3.7 15.5 15.5 0 0 0 2.8 0 22.2 22.2 0 0 0-.6 3.7 12 12 0 0 0 4-.6 15.5 15.5 0 0 0 0 2.9 11.8 11.8 0 0 0-4-.6V21a14.3 14.3 0 0 0 5-.6 15.5 15.5 0 0 0 0 3 14.4 14.4 0 0 0-5-.7V32Z" class="a"/><path d="M28.5 11.6v-.3H8.7v.3s-.4 3.8-.4 11.3a13.4 13.4 0 0 0 2.3 7.5 14.5 14.5 0 0 0 1.2 1.6 21.1 21.1 0 0 0 6.6 4.7l.2.1h.2a21.1 21.1 0 0 0 6.6-4.8 14.4 14.4 0 0 0 1.2-1.6A13.4 13.4 0 0 0 29 23c0-7.5-.4-11.3-.4-11.3Zm-2.2 18a18.3 18.3 0 0 1-7.7 6.4 18.3 18.3 0 0 1-7.7-6.3A12.6 12.6 0 0 1 9 22.9c0-6.2.3-9.8.3-10.9H28c0 1 .3 4.7.3 10.9a12.6 12.6 0 0 1-2 6.8Z" class="a"/><path d="M26.3 29.7a18.3 18.3 0 0 1-7.7 6.3 18.3 18.3 0 0 1-7.7-6.3 3 3 0 0 1 2.5-2 2.7 2.7 0 0 1 2.1 1.4c1.4-3.2 3.8-3.7 5.5-1.2a7 7 0 0 1 .7 1.2c1.4-2 3.4-1.7 4.6.6Z" class="b"/></svg>