<svg xmlns="http://www.w3.org/2000/svg" viewBox="0 0 48 48"><defs><style>.a{fill:red}.d{fill:#00f}.e{fill:#ff0}</style></defs><circle cx="24" cy="24" r="24" class="a"/><path d="M48 24a23.6 23.6 0 0 1-1.4 8H1.4A23.6 23.6 0 0 1 0 24a24 24 0 0 1 48 0Z" style="fill-rule:evenodd;fill:#00f"/><path d="M46.6 16H1.4a24 24 0 0 1 45.2 0Z" style="fill:#fff;fill-rule:evenodd"/><path d="M10.2 9.2a14.4 14.4 0 0 1 11.6 0q1 13-5.8 14.6-6.7-1.7-5.8-14.6Z" class="d"/><path d="m16 10.8.2.4h.4l-.2.3.2.3h-.4l-.2.4-.2-.4h-.4l.2-.3-.2-.4h.4M14.4 8.6l.1.4h.5l-.3.3.3.3h-.5l-.1.4-.2-.4h-.5l.3-.3-.3-.4h.5M17.6 8.6l.2.4h.5l-.3.3.3.3h-.5l-.2.4-.1-.4H17l.3-.3-.3-.4h.5" class="e"/><path d="m16 13 1.4 2.9 1-1.3 2.3 3.1a1.6 1.6 0 0 1 0 .5A7.3 7.3 0 0 1 16 23a7.3 7.3 0 0 1-4.6-4.8 1.6 1.6 0 0 1-.1-.5l2.4-3 .9 1.2Z" style="fill:#fff"/><path d="M11.4 18.2a1.6 1.6 0 0 0 2.3.9 1.6 1.6 0 0 1 1.5 0 1.6 1.6 0 0 0 1.6 0 1.6 1.6 0 0 1 1.5 0 1.6 1.6 0 0 0 2.3-1h.1v1.2a1.6 1.6 0 0 0-.8.2 1.6 1.6 0 0 1-1.6 0 1.6 1.6 0 0 0-1.5 0 1.6 1.6 0 0 1-1.6 0 1.6 1.6 0 0 0-1.5 0 1.6 1.6 0 0 1-1.6 0 1.6 1.6 0 0 0-.8-.2v-1.1" class="d"/><path d="M11.4 19a1.6 1.6 0 0 0 2.3 1 1.6 1.6 0 0 1 1.5 0 1.6 1.6 0 0 0 1.6 0 1.6 1.6 0 0 1 1.5 0 1.6 1.6 0 0 0 2.3-1h.1v1.2a1.6 1.6 0 0 0-.8.2 1.6 1.6 0 0 1-1.6 0 1.6 1.6 0 0 0-1.5 0 1.6 1.6 0 0 1-1.6 0 1.6 1.6 0 0 0-1.5 0 1.6 1.6 0 0 1-1.6 0 1.6 1.6 0 0 0-.8-.2v-1.1" class="d"/><path d="M9.7 9.4q.3 0 .5-.2l.4 7.5a7.7 7.7 0 0 0 5.4 6.8 7.7 7.7 0 0 0 5.4-6.8l.4-7.5.5.2-.5 7.3A8.2 8.2 0 0 1 16 24a8.2 8.2 0 0 1-5.8-7.3Z" class="a"/></svg>