<svg xmlns="http://www.w3.org/2000/svg" viewBox="0 0 48 48"><defs><style>.g{fill:#00843d}.b{fill:#d22630}.c{fill:#fff}.d{fill:#383739}.e{fill:#ffc72c}.f{fill:none}</style></defs><path d="M24 0a24 24 0 1 0 24 24A24 24 0 0 0 24 0Z" style="fill-rule:evenodd;fill:#00843d"/><path d="M18.6.6v46.8a24 24 0 0 1-13-8V8.7a24 24 0 0 1 13-8Z" class="b"/><path d="M32.7 5.3a6 6 0 1 1-6.2 10 6 6 0 0 0 6.2-10ZM28.1 8.9h-.8l-.2.8-.3-.8H26l.6-.5-.2-.8.7.5.6-.5-.2.8.6.5zM28.1 5.9h-.8l-.2.7-.3-.7H26l.6-.5-.2-.8.7.5.6-.5-.2.8.6.5zM31.2 7.4h-.9l-.2.8-.3-.8H29l.7-.5-.3-.8.7.5.7-.5-.3.8.7.5zM25.1 10.4h-.8l-.3.8-.2-.8h-.9l.7-.5-.3-.8.7.5.7-.5-.3.8.7.5zM28.1 12h-.8l-.2.8-.3-.8H26l.6-.5-.2-.8.7.5.6-.5-.2.8.6.5z" class="c"/><path d="M7.7 8.5V9l.3-.3Zm-1.5 0H6v-.3l-.3.3v1.1l.3-.3V9h.3l.3-.3Zm1.4 1.4 1.2-1.2-1.2-1.1L7 8l-.3-.3.4-.4-.2-.2-.7.7.8.7h.5v-.3h-.3l.4-.3.8.7-.8.8-.4-.3h.3v-.4H7l-1 1v.3h.4v-.3l.2.2-.5.5.3.3-.8.6v.5L7 10.8l-.3-.3.5-.5-.4-.4.3-.2Z" class="d"/><path d="M7.8 8.6V8.9l.1-.2Zm-1.6 0H6v-.3a3.3 3.3 0 0 0-.3.2v1l.3-.2V9h.3l.2-.2Zm1.4 1.2 1.2-1-1.2-1.2-.6.6-.3-.3.4-.5-.2-.2-.7.7.8.7h.5v-.3h-.3l.4-.3.8.7-.8.8-.4-.4h.3V9H7l-1 .9v.3h.4v-.3l.3.2-.5.5.2.3-.8.7v.4l1.2-1.1-.2-.3.5-.5-.5-.4.4-.3Z" class="e"/><path d="M6.4 7.4v.3l-.2.2-.2-.2v-.3ZM5.9 8.2a3.3 3.3 0 0 0-.3.4v-.7Z" class="f"/><path d="M5.6 14.6v.5l.8.6-.3.3.5.5-.2.2v-.3H6v.3l1 1h.5v-.4h-.3l.4-.3.8.8-.8.7-.4-.3h.3v-.3H7l-1 .9v.4h.4v-.3l.2.2-.5.4.3.3-.8.7v.4L7 19.8l-.3-.3.5-.4-.4-.4.3-.3.6.5 1.2-1.1-1.2-1.2-.6.5-.3-.2.4-.4-.5-.5.3-.3-1.3-1.1Zm0 2.3v1.7l.3-.2V18h.3l.3-.2-.3-.3H6v-.3l-.3-.3Zm2.1.6v.5l.3-.3Z" class="d"/><path d="M5.6 14.6v.4l.8.7-.2.3.5.5-.3.2v-.3H6v.3l1 1h.4l.1-.3h-.3l.4-.4.8.8-.8.7-.4-.3h.3v-.3H7l-1 1v.2h.4v-.3l.3.3-.5.4.2.3-.8.7v.4l1.2-1.1-.2-.3.5-.4-.5-.5.4-.3.6.6 1.2-1.1-1.2-1.1-.6.5-.4-.3.5-.4-.5-.5.2-.3-1.2-1Zm0 2.3v1.7l.3-.3V18h.3l.2-.2-.2-.3H6v-.3Zm2.2.7V17.9l.2-.2Z" class="e"/><path d="M5.6 23.6v.5l.8.7-.3.2.5.5-.2.2v-.3H6v.3l1 1h.5v-.3h-.3l.4-.3.8.7-.8.7-.4-.3h.3V27H7l-1 1v.3h.4v-.3l.2.2-.5.5.3.2-.8.7v.5L7 28.8l-.3-.2.5-.5-.4-.4.3-.3.6.5 1.2-1.1-1.2-1.2-.6.6-.3-.3.4-.4-.5-.5.3-.2-1.3-1.2Zm0 2.3v1.8l.3-.3V27h.3l.3-.2-.3-.3H6v-.3l-.3-.3Zm2.1.6v.5l.3-.2Z" class="d"/><path d="M5.6 23.7v.3l.8.8-.2.2.5.5-.3.3v-.4H6v.3l1 1h.4l.1-.3h-.3l.4-.4.8.8-.8.8-.4-.4h.3v-.3H7l-1 1v.2h.4v-.3l.3.3-.5.5.2.2-.8.7v.4l1.2-1-.2-.3.5-.5-.5-.4.4-.3.6.5 1.2-1.1-1.2-1.1-.6.5-.4-.3.5-.4-.5-.5.2-.2-1.2-1.1Zm0 2.2v1.7l.3-.2V27h.3l.2-.2-.2-.2H6v-.4Zm2.2.7V26.9l.2-.1Z" class="e"/><path d="M5.6 32.6v.5l.8.7-.3.2.5.5-.2.2v-.3H6v.4l1 1h.5v-.4h-.3l.4-.3.8.7-.8.7-.4-.3h.3V36H7l-1 1v.3h.4V37l.2.2-.5.5.3.2-.8.7v.5L7 37.8l-.3-.2.5-.5-.4-.4.3-.3.6.6 1.2-1.2-1.2-1.1-.6.5-.3-.3.4-.4-.5-.5.3-.2-1.3-1.2Zm0 2.3v1.8l.3-.3v-.3h.3l.3-.3-.3-.2H6v-.4l-.3-.3Zm2.1.6v.5l.3-.2Z" class="d"/><path d="M5.6 32.7v.4l.8.7-.2.2.5.5-.3.3v-.4H6v.4l1 .9h.4l.1-.3h-.3l.4-.4.8.8-.8.8-.4-.4h.3V36H7l-1 1v.3h.4v-.4l.3.3-.5.5.2.2-.8.8v.3l1.2-1-.2-.3.5-.5-.5-.4.4-.3.6.5 1.2-1-1.2-1.2-.6.5-.4-.3.5-.4-.5-.5.2-.2-1.2-1.1Zm0 2.3v1.6l.3-.2V36h.3l.2-.2-.2-.2H6v-.4Zm2.2.6v.4l.2-.2Z" class="e"/><path d="M18.6 5.6V6l-.7.7.2.2-.5.5.2.2v-.3h.5v.4l-1 1h-.5l-.1-.4h.3l-.3-.3-.8.7.8.8.3-.3h-.3v-.4h.6l1 1v.3h-.5v-.3l-.2.2.5.5-.2.3.7.6v.5l-1.2-1.1.2-.3-.5-.5.4-.4-.3-.2-.5.5-1.3-1.2 1.3-1.1.5.5.3-.3-.4-.4.5-.5-.2-.2 1.2-1.1Zm0 2.3v1.7l-.3-.3V9H18l-.2-.3.2-.2h.3V8l.3-.2Zm-2.1.6V9l-.3-.3Z" class="d"/><path d="M18.6 5.6V6l-.8.7.3.2-.6.5.4.3v-.3h.3v.3l-1 1h-.4v-.4h.3l-.4-.3-.9.7.9.8.4-.4h-.4V9h.5l1 .9v.3H18v-.4l-.4.3.6.5-.3.3.8.7v.4l-1.2-1.1.3-.3-.6-.5.5-.4-.4-.3-.5.5-1.2-1 1.2-1.2.5.6.4-.4-.5-.4.6-.5-.3-.2 1.2-1Zm0 2.3v1.7l-.3-.3V9H18l-.2-.2.2-.2h.3v-.3Zm-2.1.6V9l-.2-.2Z" class="e"/><path d="M18.6 14.6v.5l-.7.6.2.3-.5.5.2.2v-.3h.5v.3l-1 1h-.5l-.1-.4h.3l-.3-.3-.8.8.8.7.3-.3h-.3v-.3h.6l1 .9v.4h-.5v-.3l-.2.2.5.4-.2.3.7.7v.4l-1.2-1.1.2-.3-.5-.4.4-.4-.3-.3-.5.5-1.3-1.1 1.3-1.2.5.5.3-.2-.4-.4.5-.5-.2-.3 1.2-1.1Zm0 2.3v1.7l-.3-.2V18H18l-.2-.2.2-.3h.3v-.3l.3-.3Zm-2.1.6v.5l-.3-.3Z" class="d"/><path d="M18.6 14.6v.4l-.8.7.3.3-.6.5.4.2v-.3h.3v.3l-1 1h-.4v-.3h.3l-.4-.4-.9.8.9.7.4-.3h-.4v-.3h.5l1 1v.2H18v-.3l-.4.3.6.4-.3.3.8.7v.4l-1.2-1.1.3-.3-.6-.4.5-.4-.4-.4-.5.6-1.2-1.1 1.2-1.1.5.5.4-.3-.5-.4.6-.5-.3-.3 1.2-1Zm0 2.3v1.7l-.3-.3V18H18l-.2-.2.2-.3h.3v-.3Zm-2.1.7V17.9l-.2-.2Z" class="e"/><path d="M18.6 23.6v.5l-.7.7.2.2-.5.5.2.2v-.3h.5v.3l-1 1h-.5l-.1-.3h.3l-.3-.3-.8.7.8.7.3-.3h-.3V27h.6l1 1v.3h-.5v-.3l-.2.2.5.5-.2.2.7.7v.5l-1.2-1.2.2-.2-.5-.5.4-.4-.3-.3-.5.5-1.3-1.1 1.3-1.2.5.6.3-.3-.4-.4.5-.5-.2-.2 1.2-1.2Zm0 2.3v1.8l-.3-.3V27H18l-.2-.2.2-.3h.3v-.3l.3-.3Zm-2.1.6v.5l-.3-.2Z" class="d"/><path d="M18.6 23.7v.3l-.8.8.3.2-.6.5.4.3v-.4h.3v.3l-1 1h-.4v-.3h.3l-.4-.4-.9.8.9.8.4-.4h-.4v-.3h.5l1 1v.2H18v-.3l-.4.3.6.5-.3.2.8.7v.4l-1.2-1 .3-.3-.6-.5.5-.4-.4-.3-.5.5-1.2-1.1 1.2-1.1.5.5.4-.3-.5-.4.6-.5-.3-.2 1.2-1.1Zm0 2.2v1.7l-.3-.2V27H18l-.2-.2.2-.2h.3v-.4Zm-2.1.7V26.9l-.2-.1Z" class="e"/><path d="M18.6 32.6v.5l-.7.7.2.2-.5.5.2.2v-.3h.5v.4l-1 1h-.5l-.1-.4h.3l-.3-.3-.8.7.8.7.3-.3h-.3V36h.6l1 1v.3h-.5V37l-.2.2.5.5-.2.2.7.7v.5l-1.2-1.2.2-.2-.5-.5.4-.4-.3-.3-.5.6-1.3-1.2 1.3-1.1.5.5.3-.3-.4-.4.5-.5-.2-.2 1.2-1.2Zm0 2.3v1.8l-.3-.3v-.3H18l-.2-.3.2-.2h.3v-.4l.3-.3Zm-2.1.6v.5l-.3-.2Z" class="d"/><path d="M18.6 32.7v.4l-.8.7.3.2-.6.5.4.3v-.4h.3v.4l-1 .9h-.4v-.3h.3l-.4-.4-.9.8.9.8.4-.4h-.4V36h.5l1 1v.3H18v-.4l-.4.3.6.5-.3.2.8.8v.3l-1.2-1 .3-.3-.6-.5.5-.4-.4-.3-.5.5-1.2-1 1.2-1.2.5.5.4-.3-.5-.4.6-.5-.3-.2 1.2-1.1Zm0 2.3v1.6l-.3-.2V36H18l-.2-.2.2-.2h.3v-.4Zm-2.1.6v.4l-.2-.2Z" class="e"/><path d="M14.8 16.3v-.5h1.3v-.4h1.3V11H16v-.4h-1.3v-.5h-1.2v-.5h-3v.5H9.5v.5H8.1v.4H7v4.3H8v.4h1.3v.5h1.3v.5h2.9v-.5Z" class="d"/><path d="M10.7 9.8v.4H9.4v.5H8.2v.5H6.9v4.1h1.3v.5h1.2v.5h1.3v.4h2.8v-.4h1.3v-.5h1.3v-.5h1.3v-4.1H16v-.5h-1.3v-.5h-1.3v-.4Zm.4.3h2v.5h1.4v.4h1.2v.5H17V15h-1.3v.4h-1.2v.5h-1.3v.5H11v-.5H9.8v-.5H8.5V15H7.2v-3.5h1.3V11h1.3v-.4H11Z" class="e"/><path d="M9.8 15.9v-.5H8.5V15H7.3v-3.4h1.2v-.4h1.3v-.5h1.3v-.4h2v.4h1.3v.5h1.3v.4H17V15h-1.3v.5h-1.3v.5h-1.3v.4h-2V16Z" class="b"/><path d="m10.1 11-.3-.3v.5l-.3.2V11l-.3.3-.3-.3v.3l-.4-.2v.4l-.3.2v-.3l-.3.3-.4-.3v.3l-.3-.2v1.3H7v.7h.3v1.3l.3-.2v.2l.4-.2.3.2v-.2l.3.2v.4l.4-.2v.3l.3-.3.3.3v-.3l.3.2v.5l.3-.3v.4l.3-.3.4.3v-.4l.3.3v.5l.4-.4v.4l.6-.4.6.4V16l.5.4v-.5l.3-.3v.4l.3-.3.3.3v-.4l.4.3v-.5l.3-.2v.3l.3-.3.3.3v-.3l.3.2V15l.3-.2v.2l.4-.2.3.2v-.2l.3.2v-1.3h.4v-.7H17v-1.3l-.3.2v-.3l-.3.3-.4-.3v.3l-.3-.2v-.4l-.3.2V11l-.3.3-.3-.3v.3l-.3-.2v-.5l-.4.3v-.4l-.3.3-.3-.3v.4l-.3-.3v-.5l-.5.4v-.4l-.6.3-.6-.3v.4l-.4-.4v.5l-.3.3v-.4l-.4.3-.3-.3Z" class="d"/><path d="M7.6 11.9v-.3l.3.2.3-.2v.3l.3-.2v3.1l-.3-.2v.3l-.3-.2-.3.2v-.3l-.3.2v-1.3h-.4V13h.4v-1.3ZM10.1 10.7l.3.3.3-.3v.3l.4-.2v5l-.4-.3v.3l-.3-.3-.3.3v-.3l-.3.2v-5l.3.3ZM14 10.7l-.2.3-.3-.3v.3l-.3-.2v5l.3-.3v.3l.3-.3.3.3v-.3l.3.2v-5l-.3.3ZM16.7 11.9v-.3l-.3.2-.3-.2v.3l-.4-.2v3.1l.4-.2v.3l.3-.2.3.2v-.3l.3.2v-1.3h.4V13H17v-1.3Z" class="g"/><path d="m8.9 11.2.3.2.2-.2v.3l.4-.3v4l-.4-.2v.3l-.2-.2-.3.2V15l-.4.3v-4l.4.2ZM11.5 10.7l-.4-.4v5.9l.4-.4v.5l.6-.4.6.4v-.5l.4.4v-5.9l-.4.4v-.5l-.6.4-.6-.4ZM15.3 11.2l-.2.2-.3-.2v.3l-.3-.3v4l.3-.2v.3l.3-.2.3.2V15l.3.3v-4l-.3.2Z" class="e"/><path d="M7.7 12.7a.2.2 0 0 0 .3 0 .7.7 0 0 0 .1-.5l-.1.1-.1-.1-.1.1-.2-.1a.7.7 0 0 0 .1.5ZM9 12.3V12l-.3.2.5.5.4-.5-.3-.2V12.3 12l.1-.2-.2-.2-.3.2.2.2ZM10.4 12l-.1-.2v-.2l-.3.2.4.5.5-.5-.3-.2V12v-.3l.1-.2-.3-.2-.2.2.2.2Z" class="d"/><path d="M7.9 12.2v.2l.2-.1a.6.6 0 0 1-.1.3.2.2 0 0 1-.2 0 .6.6 0 0 1-.1-.3v.1l.2-.2ZM10.5 11.5v.5l.2-.2v-.1l.1.1-.4.4-.3-.4.1-.1v.1l.2.2v-.5l-.2-.1.2-.2.3.2Z" class="c"/><path d="M9.2 12v.4l.2-.2v-.1l.1.1-.3.4-.4-.4.1-.1v.1l.2.2V12H9l.3-.3.2.2Z" class="b"/><path d="M16.5 12.7a.2.2 0 0 1-.3 0 .7.7 0 0 1-.1-.5l.2.1v-.1l.2.1.1-.1a.7.7 0 0 1-.1.5ZM15.2 12.3V12l.3.2-.4.5-.4-.5.2-.2v.2l.1.1V12l-.2-.2.3-.2.2.2-.1.2ZM13.9 12v-.4l.3.2-.4.5-.4-.5.2-.2v.2l.1.1v-.3l-.2-.2.3-.2.3.2-.2.2Z" class="d"/><path d="m16.4 12.2-.1.2-.2-.1a.6.6 0 0 0 .1.3.2.2 0 0 0 .3 0 .6.6 0 0 0 0-.3v.1l-.1-.2ZM13.8 11.5v.5l-.2-.2v-.1l-.2.1.4.4.4-.4-.2-.1v.1l-.2.2v-.5l.2-.1-.2-.2-.2.2Z" class="c"/><path d="M15 12v.4l-.1-.2v-.1l-.2.1.4.4.4-.4-.2-.1v.1l-.2.2V12h.2l-.2-.3-.2.2Z" class="b"/><path d="m12.6 12-.1-.1.3-.3-.3-.3v.2l-.1.1v-.3l.3-.3-.6-.4-.5.4.3.3v.3l-.2-.1v-.2l-.3.3.4.3-.2.2Z" class="d"/><path d="m11.7 12 .1-.1-.3-.3.2-.2v.1l.2.2v-.5l-.3-.2.5-.3.5.3-.3.2v.5l.2-.2v-.1l.3.2-.4.3.2.1Z" class="b"/><path d="m11.9 11 .2.2.3-.2-.3-.2Z" class="d"/><path d="m12.1 10.9.2.1-.2.2-.2-.2Z" class="g"/><path d="M7.7 13.8a.2.2 0 0 1 .3 0 .7.7 0 0 1 .1.5l-.1-.1-.1.1-.1-.1-.2.1a.7.7 0 0 1 .1-.5ZM9 14.2v.3l-.3-.2.5-.5.4.5-.3.2V14.2v.3l.1.2-.2.2-.3-.2.2-.2ZM10.4 14.6h-.1v.3l-.3-.2.4-.5.5.5-.3.2V14.6v.3l.1.2-.3.2-.2-.2.2-.2Z" class="d"/><path d="M7.9 14.3V14l.2.1A.6.6 0 0 0 8 14a.2.2 0 0 0-.2 0 .6.6 0 0 0-.1.3v-.1l.2.2ZM10.5 15v-.5l.2.2v.1l.1-.1-.4-.4-.3.4.1.1v-.1l.2-.2v.5h-.2l.2.3.3-.2Z" class="c"/><path d="M9.2 14.5v-.4l.2.2v.1l.1-.1-.3-.4-.4.4.1.1v-.1l.2-.2v.4l-.2.2.3.2.2-.2Z" class="b"/><path d="M16.5 13.8a.2.2 0 0 0-.3 0 .7.7 0 0 0-.1.5l.2-.1v.1l.2-.1.1.1a.7.7 0 0 0-.1-.5ZM15.2 14.2v.3l.3-.2-.4-.5-.4.5.2.2v-.2l.1-.1v.3l-.2.2.3.2.2-.2-.1-.2ZM13.9 14.6v.3l.3-.2-.4-.5-.4.5.2.2v-.2l.1-.1v.3l-.2.2.3.2.3-.2-.2-.2Z" class="d"/><path d="m16.4 14.3-.1-.2-.2.1a.6.6 0 0 1 .1-.3.2.2 0 0 1 .3 0 .6.6 0 0 1 0 .3v-.1l-.1.2ZM13.8 15v-.5l-.2.2v.1l-.2-.1.4-.4.4.4-.2.1v-.1l-.2-.2v.5h.2l-.2.3-.2-.2Z" class="c"/><path d="M15 14.5v-.4l-.1.2v.1l-.2-.1.4-.4.4.4-.2.1v-.1l-.2-.2v.4l.2.2-.2.2-.2-.2Z" class="b"/><path d="m12.6 14.4-.1.2.3.3-.3.3V15l-.1-.1v.3l.3.3-.6.4-.5-.4.3-.3V15l-.2.1v.2l-.3-.3.4-.3-.2-.2Z" class="d"/><path d="m11.7 14.5.1.1-.3.3.2.2V15l.2-.2v.5l-.3.2.5.3.5-.3-.3-.2v-.5l.2.2v.1l.3-.2-.4-.3.2-.1Z" class="b"/><path d="m11.9 15.5.2-.2.3.2-.3.2Z" class="d"/><path d="m12.1 15.6.2-.1-.2-.2-.2.2Z" class="g"/><path d="M16.7 13H16v-.2h-1.7l-1.2-.8H11l-1.1.8H8v.3h-.5v.3H8v.3H10l1.1.8h2.2l1.2-.8H16v-.3h.6Z" class="d"/><path d="M11 12 10 13H8.2v.2h-.6v.3h.6v.2h1.7l1.2.8h2l1.3-.8H16v-.2h.5v-.3h-.5v-.2h-1.7l-1.2-.8Zm0 .2h2.2l1 .7v.1h1.3v.5h-1.3l-1 .8H11l-1.1-.7v-.1H8.8V13H10Z" class="b"/><path d="m13.1 12.2 1.1.7v.2h1.2v.3h-1.2v.2l-1 .7H11l-1-.7v-.2H8.7v-.3H10v-.2l1.1-.7Z" class="b"/><path d="m10.6 13.6.4.4.3-.2-.1-.2-.2.1 1.7-1.4h-.4Zm1 .6h.3l1.8-1.4-.5-.3-.3.2.2.2.1-.1h.1Zm.7 0h.4l-1.8-1.4h.4l-.3-.3-.4.3Zm1-.6v.1h-.4l.3.3.5-.4-1.8-1.3h-.3ZM10.2 13.2l.3.3.3-.3-.3-.2Z" class="d"/><path d="m11.8 13.2.3.3.3-.3-.3-.2ZM14 13.2l-.3.3-.3-.3.3-.2Z" class="d"/><path d="m13.6 13.6-.4.4-.2-.2v-.1h.4l-1.7-1.3h.2Zm-1 .5h-.3l-1.7-1.3.4-.3.3.2-.1.1H10.9Zm-.7 0h-.2l1.7-1.3H13l.2-.3.4.3Zm.4-1.7h.3l-1.7 1.2.1.2.2-.1-.2.3-.4-.4Z" class="e"/><path d="m10.5 13 .3.2-.3.2-.2-.2ZM12.1 13l.3.2-.3.2-.2-.2ZM13.7 13l-.2.2.2.2.3-.2Z" class="g"/><path d="M6.6 22v.1l.1.2-.2.1.1.2H7l.2-.1.7.3v-.3l-.4-.2.4-.3v-.3l-.7.4-.2-.2ZM6.6 20.8v.2l.1.1-.2.2.1.2H7l.2-.2.7.4v-.3l-.4-.3.4-.2v-.3L7 21l-.2-.2ZM6.6 23.7v-.1l.1-.2-.2-.2.1-.1H7l.2.1.7-.4v.4l-.4.2.4.2v.4l-.7-.4-.2.2ZM17.6 22l.1.1-.2.2.2.1-.1.2h-.3l-.2-.1-.6.3v-.3l.4-.2-.4-.3v-.3l.6.4.2-.2ZM17.6 20.8l.1.2-.2.1.2.2-.1.2h-.3l-.2-.2-.6.4v-.3l.4-.3-.4-.2v-.3l.6.4.2-.2ZM17.6 23.7l.1-.1-.2-.2.2-.2-.1-.1h-.3l-.2.1-.6-.4v.4l.4.2-.4.2v.4l.6-.4.2.2ZM15.1 18.9v.4h.4v.2h.3v-.3h-.3v-.3ZM16.1 19.6v.5h.4v.2h.3v-.4h-.3v-.3ZM9.1 18.9v.4h-.3v.2h-.4v-.3h.3v-.3ZM15.1 25.7v-.5h.4V25h.3v.4h-.3v.3ZM9.1 25.7v-.5h-.3V25h-.4v.4h.3v.3ZM16.1 25v-.5h.4v-.2h.3v.3h-.3v.3ZM8.1 19.6v.5h-.3v.2h-.4v-.4h.3v-.3ZM8.1 25v-.5h-.3v-.2h-.4v.3h.3v.3ZM13.4 18.8l-.3-.2-.2.2.2.2-.3.3h.4l.2-.1.1.1h.5l-.3-.3.2-.2-.3-.2-.2.2ZM12.1 18.8l-.2-.2-.3.2.2.2-.3.3h.5l.1-.1.2.1h.4l-.3-.3.2-.2-.2-.2-.3.2ZM10.9 18.8l.2-.2.3.2-.2.2.2.3H11l-.1-.1-.2.1h-.4l.3-.3-.3-.2.3-.2.3.2ZM13.4 25.7l-.3.3-.2-.3.2-.2-.3-.3h.4l.2.2.1-.2h.5l-.3.3.2.2-.3.3q0-.2-.2-.3ZM12.1 25.7l-.2.3-.3-.3.2-.2-.3-.3h.5l.1.2.2-.2h.4l-.3.3.2.2-.2.3-.3-.3ZM10.9 25.7l.2.3.3-.3-.2-.2.2-.3H11l-.1.2-.2-.2h-.4l.3.3-.3.2.3.3.3-.3Z" class="d"/><path d="M7.7 22.5v.3l-.6-.4-.2.2h-.2l-.1-.2.2-.1-.2-.2V22H7l.2.1.6-.3v.2l-.4.3ZM7.7 21.4v.3l-.6-.4-.2.2h-.2l-.1-.2.2-.2-.2-.1v-.2H7l.2.2.6-.4v.3l-.4.2ZM7.7 23.1V23l-.6.4L7 23h-.2l-.1.1.2.2-.2.2v.1H7l.2-.2.6.4v-.2l-.4-.3ZM16.5 22.5v.3l.6-.4.3.2h.2v-.2l-.2-.1.3-.2-.1-.1h-.2l-.3.1-.6-.3v.2l.4.3ZM16.5 21.4v.3l.6-.4.3.2h.2v-.2l-.2-.2.3-.1-.1-.2h-.2l-.3.2-.6-.4v.3l.4.2ZM16.5 23.1V23l.6.4.3-.2h.2v.1l-.2.2.3.2-.1.1h-.2l-.3-.2-.6.4v-.2l.4-.3ZM15.5 18.9v.3h.3v.3h-.3v-.2h-.3v-.4ZM16.5 19.6v.3h.3v.3h-.3V20h-.3v-.4ZM8.8 18.9v.3h-.3v.3h.2v-.2h.4v-.4ZM15.5 25.7v-.3h.3V25h-.3v.3h-.3v.4ZM8.8 25.7v-.3h-.3V25h.2v.3h.4v.4ZM16.5 25v-.4h.3v-.3h-.3v.2h-.3v.4ZM7.8 19.6v.3h-.3v.3h.2V20h.4v-.4ZM7.8 25v-.4h-.3v-.3h.2v.2h.4v.4ZM13.1 18.6l.3.3.2-.3.2.2-.2.2.3.3h-.4l-.1-.2-.2.2H13l.2-.3-.2-.2.2-.2ZM11.9 18.6l.2.3.3-.3.2.2-.2.2.2.3h-.3L12 19l-.1.2h-.4l.3-.3-.2-.2ZM11.1 18.6l-.2.3-.3-.3-.2.2.2.2-.2.3h.3l.2-.2.1.2h.4L11 19l.2-.2ZM13.1 25.9l.3-.3.2.3.2-.2-.2-.2.3-.2h-.4l-.1.1-.2-.1H13l.2.2-.2.2.2.2ZM11.9 25.9l.2-.3.3.3.2-.2-.2-.2.2-.2h-.3l-.2.1-.1-.1h-.4l.3.2-.2.2ZM11.1 25.9l-.2-.3-.3.3-.2-.2.2-.2-.2-.2h.3l.2.1.1-.1h.4l-.3.2.2.2Z" class="g"/><path d="M8.7 24.5v.8h6.8v-.8h1V20h-1v-.7H8.7v.7h-1v4.5Z" class="d"/><path d="M8.8 19.3v.8h-1v4.4h1v.7h6.7v-.7h1V20h-1v-.8Zm.4.3H15v.7l.3.2h.9V24h-1l-.2.2v.7H9.2v-.7L9 24H8v-3.5h1l.2-.2v-.7Z" class="e"/><path d="M9.2 19.6v.7l1-.7Zm5 0 .8.7v-.7Zm-6.1 1v.5l.8-.6Zm7.2 0 .9.5v-.6Zm.9 2.8-.9.6h.9Zm-8.1 0v.6h.8Zm1.1.9v.6h1Zm5.8 0-.9.6h1Z" class="b"/><path d="m14 19.6 2.2 1.6v2.2L14 24.9h-4l-2-1.5v-2.2l2-1.6Z" class="g"/><path d="m8.6 23.6-.3-.3.3-.2-.3-.3.3-.3-.3-.2.3-.3-.3-.3.3-.2-.3-.3.3-.3h7l.3.3-.2.3.2.2-.2.3.2.3-.2.2.2.3-.2.3.2.2-.2.3Zm4.8-3.6-.2-.3-.3.3-.3-.3-.2.3-.3-.3-.2.3-.3-.3-.3.3-.2-.3-.3.3v4.6l.3.2.2-.2.3.2.3-.2.2.2.3-.2.2.2.3-.2.3.2.2-.2Z" class="d"/><path d="m12.9 20-.3-.2-.2.2v4.5l.2.3.3-.3ZM11.8 20l-.2-.2-.3.2v4.5l.3.3.2-.3Z" class="e"/><path d="m8.6 23.6-.2-.3.2-.2h7l.3.2-.2.3ZM15.7 22l.2.3-.2.2H8.6l-.2-.2.2-.3ZM15.7 21.5l.2-.3-.2-.2H8.6l-.2.2.2.3Z" class="e"/><path d="m13.4 20-.2-.2-.3.2v4.5l.3.3.2-.3ZM11.3 20l-.2-.2-.3.2v4.5l.3.3.2-.3Z" class="b"/><path d="m8.6 23-.2-.2.2-.2h7l.3.2-.2.2ZM8.6 22l-.2-.3.2-.2h7l.3.2-.2.3Z" class="b"/><path d="m12.4 24.5-.3.3-.2-.3V20l.2-.2.3.2Z" class="b"/><path d="M14.5 20H9.7v.5h-.6V24h.6v.4h4.8V24h.6v-3.6h-.6V20Z" class="d"/><path d="M9.8 20.1v.4h-.6V24h.6v.4h.5l-1-.8V21l1-.9Zm4.2 0 1 .9v2.6l-1 .8h.5V24h.6v-3.5h-.6v-.4Z" class="b"/><path d="m10.3 20.1-1 .9v2.6l1 .8H14l1-.8V21l-1-.9Zm0 .2H14l.9.7v2.5l-1 .8h-3.4l-1-.8V21Z" class="g"/><path d="m11.3 23.5.2.1v.2l-.2.2.3.2h-.3l-.2-.1-.2.1h-.3l.3-.2-.2-.2v-.2h.2l.2.1ZM12.3 23.5l.2.1v.2l-.2.2.3.2h-.3l-.2-.1-.2.1h-.3l.3-.2-.2-.2v-.2h.2l.2.1ZM13 23.5l-.2.1v.2l.2.2-.3.2h.2l.2-.1.2.1h.3l-.3-.2.2-.2v-.2h-.2l-.2.1ZM11.3 21h.2v-.2l-.2-.2.3-.3h-.3l-.2.2-.2-.2h-.3l.3.3-.2.2v.1l.2.1.2-.2ZM12.3 21h.2v-.2l-.2-.2.3-.3h-.3l-.2.2-.2-.2h-.3l.3.3-.2.2v.1l.2.1.2-.2ZM13 21h-.2v-.2l.2-.2-.3-.3h.2l.2.2.2-.2h.3l-.3.3.2.2v.1l-.2.1-.2-.2ZM14.8 21.3l-.2.1.2.2v.2l-.3-.2-.2.1h-.1l-.1-.1.1-.2-.1-.1V21h.2l.2.2.3-.2ZM14.8 22.1l-.2.2.2.1v.2l-.3-.2-.2.2h-.1l-.1-.2.1-.1-.1-.2V22h.2l.2.1.3-.2ZM14.8 23.3l-.2-.2.2-.1v-.2l-.3.2-.2-.2h-.1l-.1.2.1.1-.1.2v.1h.2l.2-.1.3.2ZM9.5 21.3l.1.1-.1.2v.2l.2-.2.2.1h.2v-.1l-.1-.2.1-.1V21h-.2l-.2.2-.2-.2ZM9.5 22.1l.1.2-.1.1v.2l.2-.2.2.2h.2v-.2l-.1-.1.1-.2V22h-.2l-.2.1-.2-.2ZM9.5 23.3l.1-.2-.1-.1v-.2l.2.2.2-.2h.2v.2l-.1.1.1.2v.1h-.2l-.2-.1-.2.2Z" class="g"/><path d="m10.4 20.3-.9.7.2.2.2-.1h.2v.6h-.4l-.2.1.2.3.2-.2h.2v.7H10l-.2-.1-.2.2.2.2.2-.1h.2v.6h-.4l-.2.1.9.7h.2l.3-.2-.2-.2v-.2h.8v.2l-.2.2.3.2.3-.2-.2-.2v-.2h.8v.2l-.1.2.2.2.3-.2-.2-.2v-.2h.8v.2l-.1.2.3.2h.2l.8-.7-.2-.2-.1.2H14v-.2l.1-.2-.2-.1.1-.2h.3l.1.1.3-.2-.3-.2-.1.1H14v-.2l.1-.1-.2-.2.1-.1h.4l.3-.1-.3-.3-.1.2H14v-.2l.1-.2-.2-.1.1-.2h.3l.1.1s.2 0 .2-.2l-.8-.7h-.2l-.3.3.2.1v.3h-.3l-.2-.1-.2.1h-.1v-.3l.1-.1-.3-.3-.2.3.1.1v.3h-.2l-.2-.1-.2.1h-.2v-.3l.2-.1-.3-.3-.3.3.2.1v.3h-.2L11 21l-.2.1h-.2v-.3l.2-.1-.3-.3Zm-1 1.9v.2l.2-.1Z" class="b"/><path d="m11.1 24.1-.1.1h.2ZM12.1 24.1l-.1.1h.3ZM13.1 24.1l-.1.1h.3ZM11 20.3l.1.1.1-.1ZM12 20.3l.1.1.2-.1ZM13 20.3l.1.1.2-.1ZM14.8 21.3l-.2.1.2.1ZM14.8 22.2h-.2l.2.2ZM14.8 23l-.2.1.2.1ZM9.5 21.3v.2ZM9.5 22.2v.2-.1ZM9.5 23v.2Z" class="c"/><path d="M13 22v-.3h-.3v-.3h-1.1v.3h-.4v.3h-.4v.6h.4v.3h.4v.3h1v-.3h.4v-.3h.4V22Z" class="d"/><path d="M12.1 21.4v.3l-.5.3v.3H11V22h.4v-.3h.3v-.3ZM12.1 23.2v-.4l.5-.3v-.2h.8v.2H13v.3h-.3v.4Z" class="e"/><path d="M12.6 22.3V22l-.5-.3v-.3h.6v.3h.3v.3h.4v.3ZM10.9 22.3h.7v.2l.5.3v.4h-.5v-.4h-.3v-.3h-.4Z" class="c"/><path d="M11.7 22.3v.2l.4.3v-.5Z" class="b"/><path d="m12.1 21.8-.4.2v.3h.4Z" class="g"/><path d="M12.6 22.3V22l-.5-.2v.5Z" class="b"/><path d="m12.1 22.8.5-.3v-.2H12Z" class="g"/><path d="M8 28.3v1h-.9v.8h-.9v2.4h1v.9H8v.9h3.3l.5.3-.2.2h-1.2l-.1-.1h1l-.2-.3H9.6l.6.7h1.4l.5-.3.5.3H14l.7-.7h-1.5l-.3.3h1v.1h-1.2l-.3-.2.6-.3h3.2v-1h1v-.8h.8v-2.4h-.9v-.9h-.9v-.9H13l-.6-.3.3-.2h1.1l.1.1h-1l.3.3h1.5l-.7-.7h-1.4l-.5.3-.5-.3h-1.4l-.6.7H11l.2-.3h-1l.1-.1h1.2l.2.2-.5.3Z" class="b"/><path d="M13 34.3h3.2v-1h.9v-.8h.9V30h-1v-.8h-.8v-1H13l-1.4-.8h-1.4l-.6.7H11l.3-.3h-1v-.1h1.3l1.5.9h2.8v1h.8v.8h1V32h-1v.9H16v1H13l-1.5.8h-1.2l-.2-.1h1l-.2-.3H9.6l.6.7h1.4Zm-1.8-.4H8.4v-1h-1v-.8h-.8v-1.6h.9v-.9h.9v-1h2.8l1.5-.8h1.2l.1.1h-1l.2.3h1.4l-.6-.7h-1.4l-1.3.8H8v1h-.8v.8h-1v2.4h1v.8H8v1h3.3l1.3.8H14l.6-.7h-1.4l-.2.3h1l-.1.1h-1.2Z" class="e"/><path d="m12.1 28.1-1 .6H8.5v1h-.9v.8h-.9V32h1v.9h.8v.9h2.8l1 .6.9-.6h2.7v-1h1v-.8h.8v-1.6h-.9v-.9h-.9v-.9h-2.7Zm0 .3 1 .5h2.5v1h1v.8h.8v1.2h-.9v.9h-.9v.9H13l-.9.5-.9-.5H8.6v-1h-.9V32h-.9v-1.2h1v-.9h.8V29h2.6Z" class="f"/><path d="M15.6 32.7v1H13l-.9.5-.9-.5H8.7v-1h-1V32H7v-1.2h.9V30h.9v-1h2.5l1-.5.8.5h2.6v1h.9v.8h.9V32h-1v.8Z" class="g"/><path d="M9 32.4v.9h1.4l-1.4-1ZM9 30.2v-.9h1.4l-1.4 1ZM15.3 32.4v.9h-1.5l1.4-1ZM15.3 30.2v-.9h-1.5l1.4 1Z" class="d"/><path d="m9 32.4 1.3.9H9ZM9 30.2l1.3-.9H9ZM15.2 32.4l-1.3.9h1.3ZM15.2 30.2l-1.3-.9h1.3Z" class="b"/><path d="M10.8 31v-.4h-.2L10 30l-.8.5H9v.4h-.4v.5H9v.5H9l.8.5.7-.5h.2v-.5h.5V31Z" class="d"/><path d="m9.9 30.2.7.4H9.2Zm.7 1.8-.7.4-.7-.4ZM10.4 31v.5h-.9v-.4Z" class="b"/><path d="M10.8 31.5v.5h-.9v-.5ZM9.9 31.5v.5H9v-.5ZM11.3 31v.5h-.9v-.4ZM9.5 31v.5h-.9v-.4ZM10.8 30.6v.4h-.9v-.4ZM9.9 30.6v.4H9v-.4Z" class="e"/><path d="M9.3 31.2v.2h-.4v-.2ZM9.6 30.7v.3h-.4v-.3ZM10.5 30.7v.3h-.4v-.3ZM10.2 31.2v.2h-.4v-.2ZM11 31.2v.2h-.3v-.2ZM10.5 31.6v.3h-.4v-.3ZM9.6 31.6v.3h-.4v-.3Z" class="d"/><path d="M9.2 31.2H9v.2h.3ZM9.6 30.8h-.3v.1h.3ZM10.5 30.8h-.3v.1h.3ZM10.1 31.2h-.3v.2h.3ZM11 31.2h-.3v.2h.3ZM10.5 31.7h-.3v.1h.3ZM9.6 31.7h-.3v.1h.3Z" class="c"/><path d="M13.4 31v-.4h.2l.8-.5.7.5h.2v.4h.3v.5h-.3v.5H15l-.7.5-.8-.5h-.2v-.5H13V31Z" class="d"/><path d="m14.4 30.2-.7.4H15Zm-.7 1.8.7.4.7-.4ZM13.8 31v.5h.9v-.4Z" class="b"/><path d="M13.5 31.5v.5h.8v-.5ZM14.4 31.5v.5h.8v-.5ZM13 31v.5h.8v-.4ZM14.7 31v.5h.9v-.4ZM13.5 30.6v.4h.8v-.4ZM14.4 30.6v.4h.8v-.4Z" class="e"/><path d="M15 31.2v.2h.4v-.2ZM14.6 30.7v.3h.4v-.3ZM13.7 30.7v.3h.4v-.3ZM14 31.2v.2h.5v-.2ZM13.2 31.2v.2h.4v-.2ZM13.7 31.6v.3h.4v-.3ZM14.6 31.6v.3h.4v-.3Z" class="d"/><path d="M15 31.2h.3v.2H15ZM14.7 30.8h.3v.1h-.3ZM13.8 30.8h.3v.1h-.3ZM14.1 31.2h.3v.2h-.3ZM13.2 31.2h.3v.2h-.3ZM13.8 31.7h.3v.1h-.3ZM14.7 31.7h.3v.1h-.3Z" class="c"/><path d="M13 30.3v.4H13l-.8.5-.7-.5h-.2v-.4h-.4v-.5h.4v-.5h.2l.7-.5.8.5h.1v.5h.5v.5Z" class="d"/><path d="m12.1 31.2.7-.5h-1.4Zm.7-1.9-.7-.4-.7.4Z" class="e"/><path d="M13 29.8v-.5h-.9v.5ZM12.1 29.8v-.5h-.9v.5ZM13.5 30.2v-.4h-1v.4Z" class="b"/><path d="M12.6 30.2v-.4h-1v.4Z" class="b"/><path d="M11.7 30.2v-.4h-1v.4ZM13 30.7v-.4h-.9v.4ZM12.1 30.7v-.4h-.9v.4Z" class="b"/><path d="M11.9 29.4v.3h-.4v-.3ZM12.8 29.4v.3h-.4v-.3ZM11.4 30v.1H11V30ZM12.3 30v.1H12V30ZM13.2 30v.1h-.4V30ZM11.9 30.4v.2h-.4v-.2ZM12.8 30.4v.2h-.4v-.2Z" class="d"/><path d="M11.8 29.5h-.3v.1h.3ZM12.7 29.5h-.3v.1h.3ZM11.4 30H11v.1h.3ZM12.3 30H12v.1h.3ZM13.2 30h-.3v.1h.3ZM11.8 30.4h-.3v.2h.3ZM12.7 30.4h-.3v.2h.3Z" class="c"/><path d="M13 32.8v.5H13l-.8.5-.7-.5h-.2v-.5h-.4v-.5h.4V32h.2l.7-.5.8.5h.1v.4h.5v.5Z" class="d"/><path d="m12.1 33.7.7-.4h-1.4Zm.7-1.8-.7-.5-.7.5Z" class="e"/><path d="M13 32.3V32h-.9v.4ZM12.1 32.3V32h-.9v.4ZM13.5 32.8v-.4h-1v.4Z" class="b"/><path d="M12.6 32.8v-.4h-1v.4Z" class="b"/><path d="M11.7 32.8v-.4h-1v.4ZM13 33.2v-.4h-.9v.4ZM12.1 33.2v-.4h-.9v.4Z" class="b"/><path d="M11.9 32v.2h-.4V32ZM12.8 32v.2h-.4V32ZM11.4 32.4v.3H11v-.3ZM12.3 32.4v.3H12v-.3ZM13.2 32.4v.3h-.4v-.3ZM11.9 33v.1h-.4V33ZM12.8 33v.1h-.4V33Z" class="d"/><path d="M11.8 32h-.3v.2h.3ZM12.7 32h-.3v.2h.3ZM11.4 32.5H11v.1h.3ZM12.3 32.5H12v.1h.3ZM13.2 32.5h-.3v.1h.3ZM11.8 33h-.3v.1h.3ZM12.7 33h-.3v.1h.3Z" class="c"/><path d="M17 38.4v3L13.7 43h-3.1l-3-1.5v-.1a3 3 0 0 1-.3-.3v-2.9l3.3-1.8h3Z" class="d"/><path d="M10.6 36.8h3l3.2 1.7v2.7l-3.2 1.7h-3l-3.1-1.7v-2.7Zm3-.2h-3l-3.3 1.8v2.8a3 3 0 0 0 .3.3l3 1.6h3l3.4-1.8v-3Z" class="g"/><path d="M12.1 39.8v3h1.5l3.1-1.7V40h-4.6v-3h-1.4l-3.2 1.6v1.3Z" class="e"/><path d="M12.1 39.8v3h-1.4l-3.2-1.7V40h4.6v-3h1.5l3.1 1.6v1.3Z" class="c"/><path d="M12.4 42.7v-.9l-.3.2-.3-.2v.9H11l.6-.5v-.6l-1-.6H10v-2.4h.7l.9-.5v-.7L11 37h.8v.9l.3-.2.3.2V37h.9l-.6.4v.7l.9.5h.6V41h-.6l-1 .6v.6l.7.5Z" class="d"/><path d="M12.4 37v1l-.3-.2v.2l1.4.9h.5v1h.2v-1.2h-.6l-1-.6v-.7l.6-.3ZM10.1 40V41h.6l.9.6v.6l-.5.4h.7v-.9l.3.2v-.2l-1.4-1h-.4V40Z" class="e"/><path d="m11 37 .6.4v.7l-1 .6h-.5v1.1h.2v-1h.4l1.4-.8v-.2l-.3.1v-.8Zm3 2.9v.9h-.5l-1.4.9v.2l.3-.2v1h.8l-.5-.4v-.7l.9-.6h.6V40H14Z" class="c"/><path d="M10.3 40.8h.4l1.4.8 1.4-.8h.4v-1.9h-.4l-1.4-.9-1.4 1h-.4Z" class="b"/><path d="M13 40.3h.4V40h-.2V40h.4v.6h-.4v.5h-1v-.7h.4v.3h-.1v.1h.4v-.2l-1.7-1.1h-.3v.1h.2v.3h-.5v-.6h.5v-.5h1v.6h-.5v-.2h.2V39h-.5v.2Zm0-1V39h-.5.1v.3h-.4v-.6h1v.4h.4v.7h-.4v-.3h.2v-.1H13l-1.8 1v.3h.5v-.1h-.2v-.3h.4v.7h-1v-.5h-.4V40h.5v.2h-.2v.2h.3Z" class="d"/><path d="M13 40.5v.3h-.5v-.2h.1v-.2h-.3v.5h.8v-.4h.5v-.6h-.4v.2h.2v.2h-.3l-1.8-1v-.4h.5v.2h-.2v.2h.4v-.6H11v.5h-.5v.6h.5v-.2h-.3v-.2h.4Zm0-1.1h.4v.2h-.2v.2h.4v-.6H13v-.5h-.8v.6h.3v-.2h-.1V39h.5v.3l-1.8 1.1h-.4v-.2h.3v-.2h-.5v.6h.5v.4h.9v-.5h-.4v.2h.2v.2h-.5v-.3Z" class="c"/><path d="M16 40v1h-.4v-.4h-.4v.3h-.4v-1h.4v.4h.4V40ZM14.6 41.2v1h-.4v-.4h-.4v.4h-.4v-1h.4v.4h.4v-.4ZM16 39.7v-1h-.4v.4h-.4v-.4h-.4v1h.4v-.3h.4v.3ZM8.2 40v1h.4v-.4H9v.3h.4v-1H9v.4h-.4V40ZM8.2 39.7v-1h.4v.4H9v-.4h.4v1H9v-.3h-.4v.3ZM14.6 38.4v-.9h-.4v.3h-.4v-.3h-.4v1h.4V38h.4v.3ZM9.6 41.2v1h.4v-.4h.4v.4h.4v-1h-.4v.4H10v-.4ZM9.6 38.4v-.9h.4v.3h.4v-.3h.4v1h-.4V38H10v.3ZM14.8 37.8v.7h1.4ZM9.4 41.9v-.7H8ZM9.4 37.8v.7H8ZM14.8 41.9v-.7h1.4Z" class="d"/><path d="M15.7 40.6v.3h.3V40h-.3v.4h-.5V40h-.3v.9h.3v-.3ZM14.2 41.8v.3h.4v-.8h-.4v.3h-.4v-.3h-.4v.8h.4v-.3ZM15.7 39.1v-.3h.3v.9h-.3v-.4h-.5v.4h-.3v-1h.3v.4ZM8.6 40.6v.3h-.4V40h.4v.4H9V40h.4v.9H9v-.3ZM8.6 39.1v-.3h-.4v.9h.4v-.4H9v.4h.4v-1H9v.4ZM14.2 37.9v-.4h.4v1h-.4V38h-.4v.3h-.4v-.9h.4v.4ZM10 41.8v.3h-.3v-.8h.3v.3h.5v-.3h.3v.8h-.3v-.3ZM10 37.9v-.4h-.3v1h.3V38h.5v.3h.3v-.9h-.3v.4Z" class="b"/><path d="M14.9 37.8v.7H16Zm-6.7 3.4 1.2.6v-.6H8.2Z" class="e"/><path d="m9.4 37.8-1.2.7h1.2Zm5.5 3.4v.6l1.1-.6Z" class="c"/><path d="M17.4 41.7c0 .3-.3.4-.3.7a1.5 1.5 0 0 0 .1.8c0-.3.3-.5.3-.7a.7.7 0 0 0-.1-.8Zm0 1.7a1.2 1.2 0 0 1-.3.4 1 1 0 0 0-.3-.5 1.4 1.4 0 0 1-.2-.3.6.6 0 0 0 .1.6.7.7 0 0 1 .2.6 1.9 1.9 0 0 0 .7-.6 2 2 0 0 0 .2-.7 1.3 1.3 0 0 0-.4.5Zm-.3 1a2.7 2.7 0 0 0-.4.4 1.2 1.2 0 0 0-.1-.5 1.7 1.7 0 0 1-.1-.5.7.7 0 0 0-.2.6 1.5 1.5 0 0 1 .2.7l.8-.4a1 1 0 0 0 .3-.7 3.6 3.6 0 0 1-.5.4Zm-.6 1a3.5 3.5 0 0 1-.8.4 2.4 2.4 0 0 0 .3-.6.6.6 0 0 0 0-.5 3.6 3.6 0 0 1-.3.6 3 3 0 0 0-.3.7 7.8 7.8 0 0 1 1-.2 1.2 1.2 0 0 0 1-.8 5 5 0 0 1-1 .4ZM16.4 46.2a2.1 2.1 0 0 1-.7.3l-.6-.2a2.3 2.3 0 0 1 .7-.2h.6ZM15.4 45.4a3.7 3.7 0 0 0-.3.6.9.9 0 0 1-.2.2l-.3-.1a1 1 0 0 1 .1-.1 1 1 0 0 1 .7-.6Z" class="e"/><path d="M18 3.5V5l-1 .6v.8L16 7h-.8l-1.5.9h-3.2L9 7h-.8l-.7-.4a24 24 0 0 1 8.4-5.2h.1l1 .6v.8Z" class="d"/><path d="M18 3.5V5l-1 .6v.8L16 7h-.8l-1.5.8h-3.2L9 7h-.8l-.7-.4a1.6 1.6 0 0 1 .3-.3l.5.4h.8l1.5.8h3l1.5-.8h.8l.7-.5v-.8l1-.6V3.7l-1-.7v-.8l-.7-.4h-.8l.6-.3h.3l1 .5v.8Z" class="g"/><path d="M17.6 3.7v.5h-5.5v-1a20.7 20.7 0 0 1 3-1.5v.1h.8l.7.4V3ZM12.1 4.2v3.3h-1.5l-1.5-.8h-.8l-.5-.4a22.3 22.3 0 0 1 2.6-2Z" class="c"/><path d="M12.1 3.2v1h-1.7l1.7-1ZM17.6 4.2v.6l-1 .6v.8l-.7.5h-.8l-1.5.8h-1.5V4.2h5.5z" class="e"/><path d="m8.9 6.3-.3.3-.2-.2.2-.2-.3-.2H9l.6-.6.2.2-.6.6v.4ZM10 6.5l-.2.2-.2-.2.2-.2-.3-.2h.7l.6-.6.2.2-.6.6v.4Z" class="d"/><path d="M12.1 7.5h-.6l-.4-.3h-.6l-.5-.3.1-.2.4.2h.2l.7-.8.7.5Z" class="d"/><path d="m8.6 6.5.2-.2h-.1l-.3.1Zm.6 0v-.3l.6-.6-.2-.1L9 6h-.6l.8.5ZM9.8 6.6l.3-.2h-.2l-.3.1Zm.6 0v-.3l.6-.6-.2-.1-.6.5h-.6l.8.5Z" class="b"/><path d="M12.1 7.5h-.6l-.4-.3h-.6l-.5-.3.1-.2.4.2h.2l.7-.7.7.4Z" class="b"/><path d="m15.4 2.1.2-.2.3.1-.3.3.3.2h-.7l-.6.5-.2-.2.6-.5v-.4Z" class="d"/><path d="m15.5 2.8.2-.3.3.2-.3.2.3.2h-.7l-.6.6-.2-.2.6-.5v-.4Z" class="d"/><path d="m15.6 2-.2.1.2.1.2-.2ZM15 2v.3l-.5.5.1.2.6-.6h.6L15 2Z" class="b"/><path d="m15.7 2.6-.2.2.2.1.2-.2Zm-.6 0V3l-.6.5.2.2.6-.6h.6l-.8-.5Z" class="b"/><path d="m15.4 6.3.2.3.3-.2-.3-.2.3-.2h-.7l-.6-.6-.2.2.6.6v.4ZM14.2 6.5l.2.2.3-.2-.3-.2.3-.2H14l-.6-.6-.2.2.6.6v.4Z" class="d"/><path d="m15.5 5.7.2.2.3-.2-.3-.2.3-.2h-.7l-.6-.6-.2.2.6.6v.4ZM12.1 7.5h.7l.3-.3h.7l.5-.3-.2-.2-.4.2h-.2l-.7-.8-.7.5Z" class="d"/><path d="m15.6 6.5-.2-.2h.2l.2.1Zm-.6 0v-.3l-.5-.6.1-.1.6.5h.6l-.8.5ZM14.4 6.6l-.2-.2h.2l.2.1Zm-.6 0v-.3l-.6-.6.2-.1.6.5h.6l-.8.5Z" class="b"/><path d="m15.7 5.9-.2-.3h.2l.2.1Zm-.6 0v-.4l-.6-.6.2-.1.6.5h.6l-.8.5ZM12.1 7.5h.7l.3-.3h.7l.4-.3v-.2l-.5.2h-.2l-.7-.7-.7.4Z" class="b"/><path d="m15.8 3.2.3-.1.4.2v.1l.6.8-.6.8v.1l-.4.3-.3-.1.2-.2V5h-.4V3.5h.3v-.3Z" class="d"/><path d="M16.5 3.4 16 3h-.2l.1.2v.3h-.4v1.2h.3l.1.1v.3H16l.2.1.4-.2.6-.9-.6-.8Z" class="b"/><path d="m13.3 2.5.4.2h1.2v1l.4.4h.6l.3-.3H16l.3-.3.2.2.4.5-.4.5-.2.2-.3-.3h.2l-.3-.2h-.6l-.4.4v1h-1.2l-1.4.8v.2l.2.2.3-.2v-.1l.2.2-.4.3-.4.3H12l-.4-.3-.4-.3.2-.2v.1l.3.2.3-.2v-.2l-1.4-.9H9.4V5l1.8-1.3Z" class="d"/><path d="m12.1 7 .2.1-.2.1V7Zm-.4.2.4.3v-.2l-.2-.2.2-.2v-.4l-1.5-.9h-1v-.7h-.2v.8h1.2l1.4.9v.2l-.2.2h-.1l-.3-.2-.1.1.3.3Zm4.5-3 .2.2.1-.2Zm-3-1.6.4.2h1.1v1l.6.4h.8l.3-.2.2.2h.2l-.3-.4-.2-.2-.2.2h.2l-.3.3h-.7l-.5-.4v-1h-1.1l-.4-.2Z" class="e"/><path d="m12.1 7.2-.1-.1.1-.1Zm.5 0-.4.3v-.2l.1-.2-.2-.2v-.4l1.5-.9h1.1v-1l.6-.4h.8l.3.3.2-.3h.2l-.3.5-.2.2-.2-.2h.2l-.3-.4h-.7l-.5.4v1h-1.1l-1.5.9v.2l.3.2.3-.2.2.1-.4.3ZM16.4 4l-.2.2h.3Z" class="c"/><path d="M12.1 4.2v2.3l1.5-1h1v-.8l.6-.5Z" class="g"/><path d="M9.6 4.8v.8h1l1.5.9V4.2h3.1l-.5-.4v-1h-1l-.6-.2-1 .5v1.1h-1.7Z" class="b"/><path d="m13.7 5.3.3.3.2-.2-.2-.2.3-.2h-.7l-.6-.6-.2.2.6.6v.3ZM10.5 5.3l-.2.3-.3-.2.3-.2-.4-.2h.8l.6-.6.2.2-.6.6v.3ZM13.7 3.1 14 3l.2.1-.2.3.3.2h-.7L13 4l-.2-.2.6-.6v-.4Z" class="d"/><path d="m14 5.5-.3-.2.2-.1.3.2Zm-.6 0V5l-.6-.5.2-.2.6.6h.6l-.8.5Z" class="b"/><path d="m14 3-.3.1.2.2.3-.3Zm-.6 0v.3l-.6.6.2.1.6-.5h.6l-.8-.5Zm-3.1 2.5.2-.2-.2-.1-.2.2Zm.5 0V5l.6-.5-.1-.2-.6.6H10l.7.5Z" class="g"/><path d="m13.7 4.2-1.6 1-1.6-1 1.6-1Z" class="d"/><path d="m12.1 3.2-1.5 1h3l-1.5-1v2l1.5-1h-3l1.5 1Z" class="c"/><path d="M12.5 4.6v.3h-.8v-.3H11v-.7h.6v-.3h.8v.3h.6v.7Z" class="d"/><path d="M11.7 3.6v.3h-.5v.3h.9v-.6Zm.4.6h1V4h-.6v-.3h-.4v.6Zm-1 0v.4h.6v.2h.4v-.6Zm1 .6h.4v-.2h.6v-.4h-1v.6Z" class="b"/></svg>