<svg xmlns="http://www.w3.org/2000/svg" viewBox="0 0 48 48"><defs><style>.d{fill:#f8c300}</style></defs><path d="M45.7 34.3H2.3a24 24 0 0 0 43.4 0Z" style="fill-rule:evenodd;fill:#060"/><path d="M2.3 34.3h43.4A23.6 23.6 0 0 0 48 24a23.6 23.6 0 0 0-2.3-10.3H2.3A23.6 23.6 0 0 0 0 24a23.6 23.6 0 0 0 2.3 10.3Z" style="fill:#fff;fill-rule:evenodd"/><path d="M2.3 13.7h43.4a24 24 0 0 0-43.4 0Z" style="fill:#c00;fill-rule:evenodd"/><path d="M25.5 22.4a1.4 1.4 0 0 0-1.5.7 1.4 1.4 0 0 0-1.5-.7 1.5 1.5 0 0 1 3 0Z" class="d"/><path d="M25.5 22.4a1.4 1.4 0 0 0-1.5.7 1.4 1.4 0 0 0-1.5-.7 1.5 1.5 0 0 1 3 0Z" style="fill:#fff"/><path d="M32.2 29a2.7 2.7 0 0 1-3.5-1.5 2.6 2.6 0 0 1-4.4-1.7v-2a.9.9 0 0 1 1.6-.5 2 2 0 1 0-3.8 0 .9.9 0 0 1 1.6.4v2.1a2.6 2.6 0 0 1-4.4 1.7 2.7 2.7 0 0 1-4.1 1.2c.3 2.5 4 2 4.3-.5 1.2 2 3.7 1.5 4.5-1 .8 2.5 3.3 3 4.5 1 .3 2.5 4 3 4.3.5a2.7 2.7 0 0 1-.6.3Zm-9.7-6.6a1.5 1.5 0 0 1 3 0 1.4 1.4 0 0 0-1.5.7 1.4 1.4 0 0 0-1.5-.7Z" class="d"/><path d="M21.2 30.2a1.4 1.4 0 0 1-2.5.4 2.2 2.2 0 0 1 .8-.3 1.2 1.2 0 0 1 .2-1 1.5 1.5 0 0 1 .7.9 1.3 1.3 0 0 1 .8 0ZM25.3 30.1a1.4 1.4 0 0 1-2.5 0 2.2 2.2 0 0 1 .8-.2 1.2 1.2 0 0 1 .4-1 1.5 1.5 0 0 1 .5 1 1.3 1.3 0 0 1 .8.2ZM29.3 30.6a1.4 1.4 0 0 1-2.5-.4 2.2 2.2 0 0 1 .9 0 1.2 1.2 0 0 1 .6-.9 1.5 1.5 0 0 1 .3 1 1.3 1.3 0 0 1 .7.4Z" class="d"/><path d="M30.5 33.3a22.7 22.7 0 0 0-13 0l-.3-1a23.8 23.8 0 0 1 13.6 0ZM24.6 16.6l.4 1.2-1-.7-1 .7.4-1.2-1-.7h1.2l.4-1.2.4 1.2h1.2l-1 .7zM19.8 17.9l.4 1.2-1-.7-1 .7.4-1.2-1-.7h1.2l.4-1.2.4 1.2h1.2l-1 .7zM16.3 21.4l.4 1.2-1-.7-1 .7.4-1.2-1-.7h1.2l.4-1.2.4 1.2h1.2l-1 .7zM15 26.2l.4 1.2-1-.7-1 .7.4-1.2-1-.7H14l.4-1.2.4 1.2H16l-1 .7zM29.4 17.9l.4 1.2-1-.7-1 .7.4-1.2-1-.7h1.2l.4-1.2.4 1.2h1.2l-1 .7zM32.9 21.4l.4 1.2-1-.7-1 .7.4-1.2-1-.7h1.2l.4-1.2.4 1.2h1.2l-1 .7zM34.2 26.2l.4 1.2-1-.7-1 .7.4-1.2-1-.7h1.2l.4-1.2.4 1.2h1.2l-1 .7z" class="d"/></svg>