<svg xmlns="http://www.w3.org/2000/svg" viewBox="0 0 48 48"><defs><style>.d{fill:#fff}</style></defs><path d="M1.4 16h45.2a24 24 0 0 0-45.2 0Z" style="fill-rule:evenodd;fill:#fc0"/><path d="M1.4 32h45.2a23.6 23.6 0 0 0 0-16H1.4a23.6 23.6 0 0 0 0 16Z" style="fill:#00247d;fill-rule:evenodd"/><path d="M24 48a24 24 0 0 0 22.6-16H1.4A23.9 23.9 0 0 0 24 48Z" style="fill:#cf142b;fill-rule:evenodd"/><path d="m11.3 28.7.4 1.5-1.2-.9-1.2.8.5-1.4-1.2-.9h1.5l.5-1.4.4 1.4 1.5.1-1.2.8zM15.2 24.7l-1.5.3-.2 1.5-.7-1.3-1.5.2 1.1-1.1-.7-1.3 1.3.7 1.1-1.1-.3 1.5 1.4.6zM18.9 22.3l-1.5-.2-.7 1.4-.3-1.4-1.5-.2 1.3-.8-.3-1.4 1.1 1 1.3-.8-.6 1.4 1.2 1zM22.3 20l.7 1.3-1.4-.7-1 1.1.2-1.5-1.4-.6 1.5-.3.2-1.5.7 1.3 1.5-.2-1 1.1zM38.2 28.7l.6 1.4-1.3-.8-1.2.9.4-1.5-1.2-.8 1.5-.1.4-1.4.5 1.4h1.5l-1.2.9zM36.7 25.4l-1.5-.2-.7 1.3-.2-1.5-1.5-.3 1.4-.6-.2-1.5 1 1.1 1.4-.7-.7 1.3 1 1.1zM33.1 21.9l-1.5.2-.3 1.4-.6-1.4-1.5.2 1.1-1-.6-1.4 1.3.8 1.1-1-.3 1.4 1.3.8zM27.2 20.2l.2 1.5-1-1.1-1.4.7.7-1.3-1-1.1 1.5.2.7-1.3.2 1.5 1.5.3-1.4.6z" class="d"/></svg>