<svg xmlns="http://www.w3.org/2000/svg" viewBox="0 0 48 48"><path d="M48 24H31L6.4 7.6A24 24 0 0 1 48 24Z" style="fill:#e03c31"/><path d="M48 24A24 24 0 0 1 6.5 40.4L31 24Z" style="fill:#001489"/><path d="M48 24a23.6 23.6 0 0 1-1.4 8H33.4L13.3 45.5a24 24 0 0 1 0-43L33.4 16h13.2a23.6 23.6 0 0 1 1.4 8Z" style="fill:#fff"/><path d="M31 24 6.4 40.4a24 24 0 0 1 0-32.8Z"/><path d="M31 24 6.4 40.4A23.8 23.8 0 0 1 2 33.7L16.6 24 2 14.3a23.8 23.8 0 0 1 4.5-6.7Z" style="fill:#ffb81c"/><path d="M48 24a24.5 24.5 0 0 1-.5 4.8h-15L10.2 43.6a24 24 0 0 1-6.7-7L22.4 24 3.5 11.5a24 24 0 0 1 6.7-7.1l22.3 14.8h15A24.5 24.5 0 0 1 48 24Z" style="fill:#007749"/></svg>