<svg xmlns="http://www.w3.org/2000/svg" viewBox="0 0 48 48"><defs><style>.t,.v{fill:#f8d000;stroke:#000;stroke-width:.15px;stroke-miterlimit:22.9256}.v{fill:none}.x{fill:#fff}</style></defs><path d="M48 24c0 .54-.02 1.07-.06 1.6H.06C.02 25.07 0 24.54 0 24a24 24 0 0 1 48 0Z" style="fill:#c81010"/><path d="M17.27 23.84a6.67 6.67 0 0 1-4.64-2.89 6.67 6.67 0 0 0 5.44.52" style="stroke-width:.15px;stroke-miterlimit:22.9256;stroke:#000;fill:#f8d000"/><path d="m17.23 25.43-5.58-1.77 5.81-.72M18.07 21.47a6.67 6.67 0 0 1-3.28-4.36 6.67 6.67 0 0 0 4.88 2.45" style="stroke-miterlimit:22.9256;stroke-width:.15px;stroke:#000;fill:#f8d000"/><path d="m17.46 22.94-4.56-3.67 5.67 1.43M19.67 19.56a6.67 6.67 0 0 1-1.48-5.26 6.67 6.67 0 0 0 3.67 4.05" style="stroke-miterlimit:22.9256;stroke-width:.15px;stroke:#000;fill:#f8d000"/><path d="m18.57 20.7-2.92-5.06 4.77 3.38M21.86 18.35a6.67 6.67 0 0 1 .52-5.44 6.67 6.67 0 0 0 1.95 5.1" style="stroke-miterlimit:22.9256;stroke-width:.15px;stroke:#000;fill:#f8d000"/><path d="m20.42 19.02-.9-5.78 3.23 4.88M24.33 18a6.67 6.67 0 0 1 2.45-4.87 6.67 6.67 0 0 0-.02 5.46" style="stroke-miterlimit:22.9256;stroke-width:.15px;stroke:#000;fill:#f8d000"/><path d="M22.75 18.12 24 12.4l1.25 5.72M26.76 18.59a6.67 6.67 0 0 1 4.05-3.67A6.67 6.67 0 0 0 28.82 20" style="stroke-miterlimit:22.9256;stroke-width:.15px;stroke:#000;fill:#f8d000"/><path d="m25.25 18.12 3.23-4.88-.9 5.78M28.82 20a6.67 6.67 0 0 1 5.1-1.95 6.67 6.67 0 0 0-3.7 4.02" style="stroke-miterlimit:22.9256;stroke-width:.15px;stroke:#000;fill:#f8d000"/><path d="m27.58 19.02 4.77-3.38-2.92 5.06M30.23 22.07a6.67 6.67 0 0 1 5.46.02 6.67 6.67 0 0 0-4.9 2.42" style="stroke-miterlimit:22.9256;stroke-width:.15px;stroke:#000;fill:#f8d000"/><path d="m29.43 20.7 5.67-1.43-4.56 3.67M30.8 24.5a6.67 6.67 0 0 1 5.08 2 6.67 6.67 0 0 0-5.44.48" style="stroke-miterlimit:22.9256;stroke-width:.15px;stroke:#000;fill:#f8d000"/><path d="m30.54 22.94 5.8.72-5.57 1.77" style="stroke-miterlimit:22.9256;stroke-width:.15px;stroke:#000;fill:#f8d000"/><circle cx="24" cy="24.8" r="6.8" class="t"/><path d="M24.77 7.65a14.09 14.09 0 0 0-5.84-1.27c-2.52.02-3.73 1.1-6.13 1.2.95 1.03 4.4 1.28 5.86-.07 2.16.23 2.65.81 3.23 1.54-.9-.14-1.94-.4-2.8.55a11.82 11.82 0 0 1-2.32 0c-.58 0-.78.29-.77.8.38-.52 2.97-.21 3.61 0 .5.16 1.01.84 1.63.95 1.63.3 3.96-.56 6.1-1.14L32 9.6h-3.2l4-.8h-4.34a2.96 2.96 0 0 0-.49-.36 7.13 7.13 0 0 0 2.36-2.65 20.28 20.28 0 0 0 4.87-.58c-10.3-1.13-7.95.1-10.43 2.44Z" class="t"/><path d="M20 9.32a.2.2 0 1 1-.2.2.2.2 0 0 1 .2-.2Z"/><path d="M20 9.32a.2.2 0 1 1-.2.2.2.2 0 0 1 .2-.2Z" style="stroke-width:.15px;fill:none;stroke-miterlimit:22.9256;stroke:#000"/><path d="M22.68 9.1a3.67 3.67 0 0 1-1.39.5M27.35 10.21a2.87 2.87 0 0 1 1.46-.61M15.18 7.28a7.69 7.69 0 0 1 .91-.41M17.75 6.82a5.64 5.64 0 0 1 2.08-.4M20.41 6.92a7.45 7.45 0 0 1 2.49.05M21.9 7.23a5.44 5.44 0 0 1 2.1.11M23 7.56a6.32 6.32 0 0 1 1.64.22M12.8 7.58a4.52 4.52 0 0 0 2.78-.18" class="v"/><path d="M13 7.76s1.98.5 2.9-.42" class="v"/><path d="M13.66 8.1a2.7 2.7 0 0 0 2.68-.75M15.05 8.41a3.43 3.43 0 0 0 1.67-1.06M16 8.43a4.62 4.62 0 0 0 1.1-1.06M26.46 7.8a2.7 2.7 0 0 0 1.51.64M26.67 7.6a2.79 2.79 0 0 0 1.58.65M26.93 7.37a3.44 3.44 0 0 0 1.66.61M27.19 7.1a3.98 3.98 0 0 0 1.7.6M27.5 6.77a3.08 3.08 0 0 0 1.67.65M27.74 6.5a3.14 3.14 0 0 0 1.68.65M27.97 6.23a2.66 2.66 0 0 0 1.72.58M28.2 5.92a2.66 2.66 0 0 0 1.7.6M28.39 5.67a3.13 3.13 0 0 0 1.7.58M28.54 5.45a4.29 4.29 0 0 0 1.66.6M28.73 5.16a5 5 0 0 0 1.6.63M25.18 8.05a1.22 1.22 0 0 0 .64.24M25.37 7.86a1.15 1.15 0 0 0 .69.25M25.6 7.63a.98.98 0 0 0 .73.26M25.83 7.41a1.54 1.54 0 0 0 .74.26M26.07 7.16a1.33 1.33 0 0 0 .75.28M26.29 6.88a1.36 1.36 0 0 0 .78.32M26.52 6.68a1.92 1.92 0 0 0 .8.26M26.73 6.45a4.22 4.22 0 0 0 .86.2M26.97 6.17a1.51 1.51 0 0 0 .86.2M27.19 5.88a1.7 1.7 0 0 0 .83.25M27.35 5.6a1.73 1.73 0 0 0 .91.22M27.53 5.29a1.22 1.22 0 0 0 .89.32M27.65 5.14a1.73 1.73 0 0 0 .94.23M27.89 4.96a1.76 1.76 0 0 0 .8.25M28.32 4.83a2.25 2.25 0 0 0 1.77-.03M28.96 5.1s1.52.35 2.18-.26" class="v"/><path d="M30.15 5.2a6.07 6.07 0 0 0 2.22-.27" class="v"/><path d="M30.85 5.2a15.56 15.56 0 0 0 4.35.01M16.43 8.4a3.58 3.58 0 0 0 1-1.01M16.96 8.3a4.76 4.76 0 0 0 .74-.9M17.5 8.17a2.59 2.59 0 0 0 .57-.72" class="v"/><path d="M15.2 7.42a11.63 11.63 0 0 1 3.46.1M16.14 7.01a7.1 7.1 0 0 1 1.62-.54M16.99 6.84a6.3 6.3 0 0 1 1.55-.44M18.4 6.79a5.02 5.02 0 0 1 1.93-.34M19.5 6.8a7.46 7.46 0 0 1 2.28-.12M22.68 7.37a7.58 7.58 0 0 1 1.95.22M21.13 7a11.57 11.57 0 0 1 2.19.1M29.16 5.14a3.93 3.93 0 0 0 1.7.64M29.86 5.2a5.3 5.3 0 0 0 1.8.54M30.6 5.21a6.19 6.19 0 0 0 2.02.46M31.69 5.3a8.7 8.7 0 0 0 2.24.18" class="v"/><path d="M18.99 6.77a5.13 5.13 0 0 1 1.88-.26M23.47 7.79a1.82 1.82 0 0 1 .92.2" class="v"/><path d="M21.9 9.05a3.45 3.45 0 0 0 .78.06 9.87 9.87 0 0 0 2.09-1.46" class="v"/><path d="M47.94 25.6a24 24 0 0 1-47.88 0Z" style="fill:#183070"/><path d="M48 24.03a23.1 23.1 0 0 1-.23 3.24 9.2 9.2 0 0 0-2.38.62 11.97 11.97 0 0 1-9.18 0 9.79 9.79 0 0 0-7.26.01 14.06 14.06 0 0 1-9.9 0 9.79 9.79 0 0 0-7.26-.01 11.97 11.97 0 0 1-9.18 0 9.2 9.2 0 0 0-2.38-.62A23.1 23.1 0 0 1 0 24.03a12.34 12.34 0 0 1 3.79.88 8.77 8.77 0 0 0 6.82 0 13.03 13.03 0 0 1 9.54-.01 10.86 10.86 0 0 0 7.7 0 13.03 13.03 0 0 1 9.54.01 8.77 8.77 0 0 0 6.82 0 12.34 12.34 0 0 1 3.79-.88ZM47.09 30.53a22.89 22.89 0 0 1-1.35 3.63l-.35.13a11.97 11.97 0 0 1-9.18 0 9.79 9.79 0 0 0-7.26.01 14.06 14.06 0 0 1-9.9 0 9.79 9.79 0 0 0-7.26-.01 11.97 11.97 0 0 1-9.18 0 4.96 4.96 0 0 0-.35-.13 22.89 22.89 0 0 1-1.35-3.63 12.85 12.85 0 0 1 2.88.78 8.77 8.77 0 0 0 6.82 0 13.03 13.03 0 0 1 9.54-.01 10.86 10.86 0 0 0 7.7 0 13.03 13.03 0 0 1 9.54.01 8.77 8.77 0 0 0 6.82 0 12.85 12.85 0 0 1 2.88-.78ZM43.51 37.96a23.5 23.5 0 0 1-3.19 3.63 12.3 12.3 0 0 1-4.11-.9 9.79 9.79 0 0 0-7.26.01 14.06 14.06 0 0 1-9.9 0 9.79 9.79 0 0 0-7.26-.01 12.3 12.3 0 0 1-4.11.9 23.5 23.5 0 0 1-3.19-3.63 8.68 8.68 0 0 0 6.12-.25 13.03 13.03 0 0 1 9.54-.01 10.86 10.86 0 0 0 7.7 0 13.03 13.03 0 0 1 9.54.01 8.68 8.68 0 0 0 6.12.25Z" class="x"/></svg>