<svg xmlns="http://www.w3.org/2000/svg" viewBox="0 0 48 48"><defs><style>.g{fill:#fff}.d{fill:#0c4076}.i{fill:#c6363c}.d,.e,.f,.g,.i,.j,.l{stroke:#21231e;stroke-width:.06px}.e,.f{fill:#edb92e}.e,.g,.l{stroke-linejoin:round}.f,.j,.l{stroke-linecap:round}.h{fill:#21231e}.j,.l{fill:none}</style></defs><circle cx="24" cy="24" r="24" style="fill:#fff"/><path d="M48 24a23.6 23.6 0 0 1-1.4 8H1.4A23.6 23.6 0 0 1 0 24a24 24 0 0 1 48 0Z" style="fill:#0c4076"/><path d="M46.6 16H1.4a24 24 0 0 1 45.2 0Z" style="fill:#c6363c"/><circle cx="17.7" cy="6.5" r=".9" class="d"/><path d="M17.9 4.5a.2.2 0 1 0 0-.3.2.2 0 1 0-.3 0 .2.2 0 1 0 0 .3V5h-.3a.2.2 0 1 0-.4 0 .2.2 0 1 0 0 .3.2.2 0 1 0 .4 0h.3v1.1h.3V5.2h.3a.2.2 0 0 0 .3 0 .2.2 0 0 0 0-.3.2.2 0 0 0-.3 0h-.3Z" class="e"/><path d="M17.9 5.6a1 1 0 0 0-.3 0v1h.3Z" class="e"/><path d="M18.6 6.3a1 1 0 0 1 0 .4h-1.8a1 1 0 0 1 0-.4h1.8ZM23.1 14a5.1 5.1 0 0 1 .6-.9q-1 .7-1-.3-.8 1.2-1.4-.2-1 1.4-1.7-.1-1 1.3-1.9-.1-.8 1.4-2 0-.5 1.6-1.6.2-.5 1.4-1.4.2 0 1-1 .3a5.1 5.1 0 0 1 .6 1Z" class="e"/><path d="m12.3 14.1.3 1.7h10.2L23 14l-5.4-.2Z" class="e"/><path d="M23.6 12.6c-.3 1-.7 1-.7 0 0 0 0-.1.1 0l.1-.2a.2.2 0 0 0-.3 0 .2.2 0 0 0-.3-.1v.1l.1.2q-1 1.3-.9-.4l-.5-.1q-1 1.8-1.4.2c0-.1 0-.2.2-.2V12c-.1-.1-.3 0-.4 0a.2.2 0 0 0-.3 0c.2 0 0 .2.2.3-.3 1-1.7 1-1.4-.5h-.7c.2 1.6-1.2 1.5-1.4.5 0-.1 0-.3.1-.2 0 0 .1-.1 0-.2a.2.2 0 0 0-.3.1c-.1 0-.2-.1-.4 0v.1c.2 0 .2.1.2.2q-.4 1.6-1.4-.2l-.5.1q.2 1.7-.9.4l.1-.2v-.1a.2.2 0 0 0-.3.2.2.2 0 0 0-.3 0h.1l.1.2c0 .8-.3.8-.7-.1h-.2a1 1 0 0 0 .2.7c.5.6 1 .5 1-.3.7.9 1.3.7 1.4-.2.6 1.2 1.6.6 1.6 0a1 1 0 0 0 2-.2 1 1 0 0 0 1.8.1c0 .7 1 1.3 1.6.1.1 1 .7 1 1.4.2 0 .8.5.9 1 .3a1 1 0 0 0 .2-.7Z" class="e"/><path d="M12.3 14.3c-.2 0-.2-.3 0-.3a54 54 0 0 1 10.8 0c.3 0 .3.3 0 .3a54 54 0 0 0-10.8 0ZM17.2 10.6l-.4-.4a12.5 12.5 0 0 0 0-2.9q-.1-.3.2-.2a1.5 1.5 0 0 0 1.4 0q.3-.1.2.2a12.5 12.5 0 0 0 0 2.9l-.4.4Z" class="e"/><path d="m19 14.7-1.3.6-1.2-.6 1.2-.6Z" class="f"/><path d="m23 8.5 1.5.7.2.6-.6 1v.7h.5l.8-2.2-1-.8-2.3-.8 1 .8" class="e"/><path d="M24.2 11.4a1.8 1.8 0 0 0 0-.3.8.8 0 0 0 0-.4 6.9 6.9 0 0 0 .5-.7.8.8 0 0 0 0-.6 1 1 0 0 0-.3-.4 3.4 3.4 0 0 0-.7-.4 4.2 4.2 0 0 0-1.4-.4l.2.2a6.8 6.8 0 0 1 1.7.7c.5.4.5.5-.2 1.5v.1a1 1 0 0 1 0 .6c0 .1.1 0 .2 0ZM19.7 10.8c-.1 0-.1.3 0 .4.1 0 .2-.4 0-.4ZM23.2 11.2c-.2 0-.2.3-.2.4 0 .1 0 .1.1 0 0 0 .3-.3 0-.4Z" class="e"/><circle cx="22.4" cy="7.7" r=".3" class="g"/><circle cx="23" cy="7.9" r=".3" class="g"/><circle cx="23.6" cy="8.2" r=".3" class="g"/><circle cx="24.3" cy="8.5" r=".3" class="g"/><circle cx="24.9" cy="8.8" r=".3" class="g"/><circle cx="24.6" cy="11.2" r=".3" class="g"/><circle cx="24.9" cy="10.6" r=".3" class="g"/><circle cx="25.2" cy="10" r=".3" class="g"/><circle cx="25.3" cy="9.3" r=".3" class="g"/><circle cx="19" cy="15.1" r=".2" class="g"/><circle cx="21.6" cy="15.3" r=".2" class="g"/><circle cx="21.7" cy="14.5" r=".2" class="g"/><circle cx="19" cy="14.3" r=".2" class="g"/><path d="M19.8 11.9c.1-.2.3-1 0-1s-.4.8-.3 1c0 .2.2.2.3 0ZM22.7 12.2c0 .3.1.3.3.1.2 0 .5-.8.1-.9s-.5.6-.4.8Z" class="g"/><path d="M18.6 7.5h1.8l1.2.4.3.7-.8 1.7.3 1 1.2-.9.5-2-1.4-1.2-3-.2Z" class="e"/><path d="M18.7 7.3a6 6 0 0 1 2.8.4c.7.3.7 1.3-.3 2.5a1.3 1.3 0 0 1 .1.6h-.2a.5.5 0 0 0-.1-.5v-.1c.6-.8 1-1.5.7-2-.3-.5-1.3-.7-3-.7v-.1ZM22.4 7.7l-.1.1c.5.3.7.6.7.9l-.5 1.7a3.1 3.1 0 0 0-.6.4v.1c0 .2.2.1.3.1a1 1 0 0 1 .3-.4h.1l.6-1.8c.1-.5-.2-.9-.8-1.1Z" class="e"/><circle cx="18.9" cy="6.9" r=".3" class="g"/><circle cx="19.6" cy="6.9" r=".3" class="g"/><circle cx="20.2" cy="7" r=".3" class="g"/><circle cx="20.9" cy="7.1" r=".3" class="g"/><circle cx="21.5" cy="7.4" r=".3" class="g"/><circle cx="22.1" cy="7.6" r=".3" class="g"/><circle cx="22.5" cy="8.1" r=".3" class="g"/><circle cx="21.8" cy="10.5" r=".3" class="g"/><circle cx="22" cy="9.9" r=".3" class="g"/><circle cx="22.3" cy="9.3" r=".3" class="g"/><circle cx="22.5" cy="8.7" r=".3" class="g"/><path d="M24.3 11.6a1 1 0 0 0 .4.1c-.1-.2-.3-.2-.4-.1Z" class="e"/><path d="M24.4 11.3h-.2a.2.2 0 0 1-.1 0c-.2 0-.2.1-.2.3a.5.5 0 0 1 0 .4v.2h.2c0 .1 0 .1 0 0 .3 0 .3-.3.3-.5.1-.2.4-.3 0-.4Z" class="e"/><path d="M24.3 11.3H24c0 .3 0 .4.3.3a.3.3 0 0 1 .4.1l.2-.1c.1-.3-.4-.4-.6-.3ZM23.6 12.7l-.3.2a1.2 1.2 0 0 1 .3-.9l.2-.3c0-.1.1 0 .1 0a1 1 0 0 1 0 .4c-.2.2-.3.3-.3.6Z" class="e"/><path d="M23.8 11.7a.5.5 0 0 1 0 .1.3.3 0 0 1 0 .2.6.6 0 0 1-.2.1.4.4 0 0 0-.1.2.6.6 0 0 0-.1.2l-.1.4a.2.2 0 0 1-.2 0 .4.4 0 0 1 0-.1.6.6 0 0 0 .2-.4v-.1l.1-.4.3-.1a.5.5 0 0 1 0-.1Z" class="e"/><path d="M24.2 12.1a.3.3 0 0 0-.3 0c-.3 0-.4.6 0 .7v-.2a1 1 0 0 1 .3-.3V12Z" class="e"/><path d="M24 12.1c-.2 0-.4.5-.1.6l.1-.2c0-.2.4-.2 0-.4ZM18.1 10.6a1.1 1.1 0 0 1 .5-.6 6.6 6.6 0 0 1-.2-2.7c0-.1 0-.2.2-.2v.3a13.8 13.8 0 0 0 0 1.6 5.3 5.3 0 0 0 .2 1.1l-.2.2a.5.5 0 0 0-.2.3.1.1 0 0 0-.1 0H18ZM19 11.4h-.1a.3.3 0 0 1 0-.2c0-.3-.2-.3-.4-.1a2.7 2.7 0 0 0-.3.2l-.1.2a6.8 6.8 0 0 0 0 .4l.1.2a2.7 2.7 0 0 0 .3.2c.2.2.4.2.3 0a.3.3 0 0 1 0-.3h.2a.4.4 0 0 0 .1-.2.8.8 0 0 0 0-.2.4.4 0 0 0-.1-.2Z" class="e"/><path d="M18.8 11a.5.5 0 0 0-.1.2v.3a.4.4 0 0 1 0 .4v.3a.6.6 0 0 0 .1.2.4.4 0 0 0 0-.2.3.3 0 0 1 0-.2h.2a.4.4 0 0 0 .1-.2.8.8 0 0 0 0-.2.4.4 0 0 0-.1-.2h-.1a.3.3 0 0 1 0-.2.4.4 0 0 0 0-.1ZM21.5 10.7v.1a.2.2 0 0 1-.3 0c-.2-.1-.2.1-.1.3a2.6 2.6 0 0 0 .2.4v.2a5 5 0 0 0 .4 0l.2-.1a3.2 3.2 0 0 0 .3-.3c.1-.2.2-.3 0-.3a.2.2 0 0 1-.2 0v-.2a.4.4 0 0 0 0-.2H21.6a.4.4 0 0 0-.2 0Z" class="e"/><path d="M21.1 10.8a.7.7 0 0 0 0 .2c.1.1.3 0 .4 0a.3.3 0 0 1 .2 0 .2.2 0 0 1 .2 0c0 .2.1.2.2.2a.8.8 0 0 0 .2-.2.3.3 0 0 0-.1 0 .2.2 0 0 1-.2 0v-.3a.4.4 0 0 0 0-.1H21.6a.4.4 0 0 0-.2 0v.2a.2.2 0 0 1-.3 0ZM22.5 11.8a.3.3 0 0 1 0-.2c.1-.3 0-.3-.2-.2a1 1 0 0 0-.1.1l-.2.2H22l-.1.3-.1.2v.1a2.3 2.3 0 0 0 .2.3l.2.1v-.2a.3.3 0 0 1 .1-.2h.2a.5.5 0 0 0 0-.2.3.3 0 0 0 .1 0 .3.3 0 0 0 0-.2.2.2 0 0 0 0-.1Z" class="e"/><path d="M22.6 11.4a.5.5 0 0 0-.2.1.2.2 0 0 0 0 .2.6.6 0 0 0 0 .2.4.4 0 0 1 0 .2.5.5 0 0 1-.2.1l-.2.4a.2.2 0 0 0 .1 0 .4.4 0 0 1 .2-.2.4.4 0 0 1 0-.1h.2c0-.2.2-.4 0-.5s0-.1 0-.3a.5.5 0 0 0 0-.1ZM20.3 12v.1a.2.2 0 0 1 0 .2c0 .3.1.3.3.2a2.8 2.8 0 0 0 .3-.3h.2v-.7a2.5 2.5 0 0 0-.2-.3c-.2-.1-.3-.2-.4.1a.3.3 0 0 1 0 .2h-.1a.4.4 0 0 0-.2.2.3.3 0 0 0 0 .2.3.3 0 0 0 0 .2Z" class="e"/><path d="M20.4 12.4a.5.5 0 0 0 .1 0c.1-.1.1-.2 0-.4a.3.3 0 0 1 0-.2.3.3 0 0 1 0-.1c.2-.2.3-.3.2-.4a.5.5 0 0 0-.1-.1.5.5 0 0 0 0 .1.3.3 0 0 1-.1.2h-.1a.4.4 0 0 0-.2.2.3.3 0 0 0 0 .2.3.3 0 0 0 0 .2h.2a.2.2 0 0 1 0 .2.4.4 0 0 0 0 .1Z" class="e"/><path d="m21.6 14.9-1.1-.7-1.3.5 1.2.7ZM23 14.4l-1.2.5 1 .7c.3-.1.5-1 .2-1.2Z" class="f"/><path d="M18 11.8a1 1 0 0 1 .6.2.7.7 0 0 0-.5-.3Z" class="h"/><path d="M18 11.6a1 1 0 0 0 .6-.2.7.7 0 0 1-.5.3ZM24.1 12a.4.4 0 0 0 0-.3q.2.1 0 .4ZM21.6 11.7a1.3 1.3 0 0 1 .3-.5 1 1 0 0 0-.3.5ZM21.4 11.7a1 1 0 0 0 0-.6.8.8 0 0 1 0 .6ZM21.7 12.1a.5.5 0 0 1 .4.3.4.4 0 0 0-.4-.3ZM21.8 12a1 1 0 0 0 .5-.3.8.8 0 0 1-.5.3ZM21.1 11.8a.8.8 0 0 1-.4-.3.6.6 0 0 0 .4.4ZM21.1 12a.9.9 0 0 0-.5.2.7.7 0 0 1 .5-.2Z" class="h"/><ellipse cx="20.4" cy="14.8" class="i" rx=".4" ry=".5" transform="rotate(-86 20.4 14.8)"/><path d="M21.5 11.5a.5.5 0 0 0-.4.5.3.3 0 0 0 .3.4.5.5 0 0 0 .4-.4.3.3 0 0 0-.3-.5Z" class="e"/><path d="M21.5 11.7a.3.3 0 0 0-.3.3.3.3 0 0 0 .2.3.3.3 0 0 0 .3-.3.3.3 0 0 0-.2-.3Z" class="e"/><path d="M24 12.2s-.3.3-.1.4a.2.2 0 0 0 .2-.1.2.2 0 0 0 0-.3ZM23 14.6c-.3 0-.6.1-.6.3s.2.4.5.4c.2 0 .3 0 .4-.3s-.1-.4-.3-.4ZM21.5 11.8a.2.2 0 0 0-.2.2.2.2 0 0 0 .1.1.2.2 0 0 0 .2-.1.2.2 0 0 0-.1-.2Z" class="d"/><path d="m12.4 8.5-1.5.7-.1.6.5 1v.7h-.5L10 9.3l1-.8 2.3-.8-.9.8" class="e"/><path d="M11.2 11.4a1.8 1.8 0 0 1 0-.3.8.8 0 0 1 0-.4 6.9 6.9 0 0 1-.4-.7.8.8 0 0 1-.2-.6A1 1 0 0 1 11 9a3.4 3.4 0 0 1 .8-.4 4.2 4.2 0 0 1 1.4-.4l-.3.2a6.8 6.8 0 0 0-1.7.7c-.5.4-.5.5.2 1.5v.1a1 1 0 0 0 0 .6c0 .1 0 0-.2 0ZM15.7 10.8c.2 0 .1.3 0 .4-.1 0-.2-.4 0-.4ZM12.3 11.2c.1 0 .2.3.1.4 0 .1 0 .1-.1 0 0 0-.2-.3 0-.4Z" class="e"/><circle cx="13.1" cy="7.7" r=".3" class="g"/><circle cx="12.4" cy="7.9" r=".3" class="g"/><circle cx="11.8" cy="8.2" r=".3" class="g"/><circle cx="11.2" cy="8.5" r=".3" class="g"/><circle cx="10.6" cy="8.8" r=".3" class="g"/><circle cx="10.8" cy="11.2" r=".3" class="g"/><circle cx="10.5" cy="10.6" r=".3" class="g"/><circle cx="10.2" cy="10" r=".3" class="g"/><circle cx="10.1" cy="9.3" r=".3" class="g"/><circle cx="16.4" cy="15.1" r=".2" class="g"/><circle cx="13.8" cy="15.3" r=".2" class="g"/><circle cx="13.7" cy="14.5" r=".2" class="g"/><circle cx="16.4" cy="14.3" r=".2" class="g"/><path d="M15.6 11.9c-.1-.2-.3-1 .1-1s.3.8.2 1c0 .2-.2.2-.3 0ZM12.7 12.2c0 .3 0 .3-.3.1-.1 0-.5-.8 0-.9s.4.6.3.8Z" class="g"/><path d="M16.9 7.5h-2L14 8l-.4.7.9 1.7-.4 1-1.1-.9-.6-2 1.5-1.2 3-.2Z" class="e"/><path d="M16.8 7.3a6 6 0 0 0-2.8.4c-.8.3-.7 1.3.2 2.5a1.3 1.3 0 0 0-.1.6h.2a.5.5 0 0 1 .1-.5c.1 0 .1 0 0-.1-.5-.8-1-1.5-.7-2 .3-.5 1.3-.7 3-.7v-.1ZM13 7.7l.1.1c-.5.3-.7.6-.7.9l.6 1.7a3.1 3.1 0 0 1 .5.4v.1c0 .2-.1.1-.2.1a1 1 0 0 0-.4-.4h-.1l-.5-1.8c-.2-.5.2-.9.7-1.1Z" class="e"/><circle cx="16.5" cy="6.9" r=".3" class="g"/><circle cx="15.9" cy="6.9" r=".3" class="g"/><circle cx="15.2" cy="7" r=".3" class="g"/><circle cx="14.6" cy="7.1" r=".3" class="g"/><circle cx="13.9" cy="7.4" r=".3" class="g"/><circle cx="13.3" cy="7.6" r=".3" class="g"/><circle cx="13" cy="8.1" r=".3" class="g"/><circle cx="13.7" cy="10.5" r=".3" class="g"/><circle cx="13.4" cy="9.9" r=".3" class="g"/><circle cx="13.1" cy="9.3" r=".3" class="g"/><circle cx="12.9" cy="8.7" r=".3" class="g"/><path d="M11.1 11.6a1 1 0 0 1-.4.1c.2-.2.3-.2.4-.1Z" class="e"/><path d="M11 11.3h.2a.2.2 0 0 0 .2 0c.2 0 .2.1.1.3a.5.5 0 0 0 0 .4v.2h-.1c-.1.1-.1.1-.1 0-.3 0-.2-.3-.3-.5 0-.2-.4-.3 0-.4Z" class="e"/><path d="M11.2 11.3h.3c0 .3-.1.4-.4.3a.3.3 0 0 0-.4.1l-.1-.1c-.2-.3.3-.4.6-.3ZM11.8 12.7l.4.2a1.2 1.2 0 0 0-.3-.9c-.2 0-.2-.1-.2-.3 0-.1-.2 0-.2 0a1 1 0 0 0 0 .4c.2.2.3.3.3.6Z" class="e"/><path d="M11.7 11.7a.5.5 0 0 0 0 .1.3.3 0 0 0 0 .2.6.6 0 0 0 .2.1.4.4 0 0 1 0 .2.6.6 0 0 1 .1.2c0 .2 0 .4.2.4a.4.4 0 0 0 0-.1.6.6 0 0 1 0-.4v-.1c0-.1 0-.4-.2-.4l-.3-.1a.5.5 0 0 0 0-.1ZM11.2 12.1a.5.5 0 0 1 .1 0 .3.3 0 0 1 .2 0c.3 0 .4.6.1.7l-.2-.2a1 1 0 0 0-.2-.3V12Z" class="e"/><path d="M11.3 12.1c.3 0 .5.5.3.6-.2 0-.2-.1-.2-.2 0-.2-.3-.2 0-.4ZM17.3 10.6a1.1 1.1 0 0 0-.5-.6 6.6 6.6 0 0 0 .2-2.7l-.1-.2-.1.3a13.8 13.8 0 0 1 0 1.6 5.3 5.3 0 0 1-.2 1.1l.2.2a.5.5 0 0 1 .3.3h.2ZM16.4 11.4h.2a.3.3 0 0 0 0-.2c0-.3.1-.3.3-.1a2.7 2.7 0 0 1 .3.2l.2.2a6.8 6.8 0 0 1 0 .4l-.2.2a2.7 2.7 0 0 1-.3.2c-.2.2-.3.2-.3 0a.3.3 0 0 0 0-.3h-.2a.4.4 0 0 1 0-.2.8.8 0 0 1 0-.2.4.4 0 0 1 0-.2Z" class="e"/><path d="M16.6 11a.5.5 0 0 1 .2.2l-.1.3a.4.4 0 0 0 0 .4c.1.1.2.3 0 .3a.6.6 0 0 1-.1.2.4.4 0 0 1 0-.2.3.3 0 0 0 0-.2h-.2a.4.4 0 0 1 0-.2.8.8 0 0 1 0-.2.4.4 0 0 1 0-.2h.2a.3.3 0 0 0 0-.2.4.4 0 0 1 0-.1ZM14 10.7v.1a.2.2 0 0 0 .2 0c.2-.1.2.1.2.3a2.6 2.6 0 0 1-.2.4v.2a5 5 0 0 1-.5 0l-.1-.1a3.2 3.2 0 0 1-.4-.3c-.1-.2-.2-.3 0-.3a.2.2 0 0 0 .2 0v-.2a.4.4 0 0 1 .1-.2H13.8a.4.4 0 0 1 .1 0Z" class="e"/><path d="M14.3 10.8a.7.7 0 0 1 0 .2c-.1.1-.2 0-.4 0a.3.3 0 0 0-.2 0 .2.2 0 0 0-.1 0c-.1.2-.2.2-.3.2a.8.8 0 0 1-.2-.2.3.3 0 0 1 .2 0 .2.2 0 0 0 .1 0v-.3a.4.4 0 0 1 .1-.1H13.8a.4.4 0 0 1 .1 0l.1.2a.2.2 0 0 0 .2 0 .3.3 0 0 1 .1 0ZM12.9 11.8a.3.3 0 0 0 0-.2c-.1-.3 0-.3.2-.2a1 1 0 0 1 .2.1l.1.2h.2v.3l.1.2v.1a2.3 2.3 0 0 1-.2.3l-.1.1-.1-.2a.3.3 0 0 0-.1-.2H13a.5.5 0 0 1-.2-.2.3.3 0 0 1 0-.2.2.2 0 0 1 0-.1Z" class="e"/><path d="M12.9 11.4a.5.5 0 0 1 .1.1.2.2 0 0 1 .1.2.6.6 0 0 1 0 .2.4.4 0 0 0 0 .2.5.5 0 0 0 .1.1l.2.4a.4.4 0 0 1-.1 0 .4.4 0 0 0-.1-.2.4.4 0 0 0-.1-.1h-.2v-.8a.5.5 0 0 1 0-.1ZM15.1 12v.1a.2.2 0 0 0 0 .2c0 .3-.1.3-.3.2a2.8 2.8 0 0 1-.3-.3h-.2v-.7a2.5 2.5 0 0 1 .3-.3c.1-.1.3-.2.3.1a.3.3 0 0 0 0 .2h.2a.4.4 0 0 1 .1.2.3.3 0 0 1 0 .2.3.3 0 0 1 0 .2Z" class="e"/><path d="M15 12.4a.5.5 0 0 1-.1 0V12a.3.3 0 0 0 0-.2.3.3 0 0 0 0-.1c-.2-.2-.3-.3-.2-.4a.5.5 0 0 1 .2-.1.5.5 0 0 1 0 .1.3.3 0 0 0 0 .2h.2a.4.4 0 0 1 .1.2.3.3 0 0 1 0 .2.3.3 0 0 1 0 .2H15a.2.2 0 0 0 0 .2.4.4 0 0 1 0 .1Z" class="e"/><path d="m13.8 14.9 1.2-.7 1.2.5-1.1.7ZM12.4 14.4l1.3.5-1 .7c-.4-.1-.6-1-.3-1.2Z" class="f"/><path d="M17.4 11.8a1 1 0 0 0-.6.2.7.7 0 0 1 .6-.3Z" class="h"/><path d="M17.4 11.6a1 1 0 0 1-.6-.2.7.7 0 0 0 .6.3ZM11.3 12a.4.4 0 0 1 0-.3q-.2.1 0 .4ZM13.8 11.7a1.3 1.3 0 0 0-.3-.5 1 1 0 0 1 .4.5ZM14 11.7a1 1 0 0 1 0-.6.8.8 0 0 0 0 .6ZM13.7 12.1a.5.5 0 0 0-.3.3.4.4 0 0 1 .3-.3ZM13.6 12a1 1 0 0 1-.5-.3.8.8 0 0 0 .6.3ZM14.3 11.8a.8.8 0 0 0 .4-.3.6.6 0 0 1-.4.4ZM14.3 12a.9.9 0 0 1 .5.2.7.7 0 0 0-.5-.2Z" class="h"/><ellipse cx="15" cy="14.8" class="i" rx=".5" ry=".4" transform="rotate(-4 15 14.8)"/><path d="M13.9 11.5a.5.5 0 0 1 .4.5.3.3 0 0 1-.3.4.5.5 0 0 1-.4-.4.3.3 0 0 1 .3-.5Z" class="e"/><path d="M14 11.7a.3.3 0 0 1 .2.3.3.3 0 0 1-.2.3.3.3 0 0 1-.3-.3.3.3 0 0 1 .2-.3Z" class="e"/><path d="M11.4 12.2c.1 0 .3.3.1.4a.2.2 0 0 1-.2-.1.2.2 0 0 1 0-.3ZM12.4 14.6c.3 0 .6.1.6.3s-.2.4-.5.4c-.2 0-.3 0-.3-.3s0-.4.2-.4ZM14 11.8a.2.2 0 0 1 .1.2.2.2 0 0 1-.1.1.2.2 0 0 1-.2-.1.2.2 0 0 1 .1-.2Z" class="d"/><circle cx="17.7" cy="10.1" r=".3" class="g"/><circle cx="17.7" cy="9.4" r=".3" class="g"/><circle cx="17.7" cy="8.8" r=".3" class="g"/><circle cx="17.7" cy="7.1" r=".3" class="g"/><circle cx="17.7" cy="7.6" r=".3" class="g"/><circle cx="17.7" cy="8.2" r=".3" class="g"/><path d="M17.7 10.3h.2a.4.4 0 0 1 0 .1l.1.2a.3.3 0 0 0 .2 0c.3 0 .3.1.1.3a2.7 2.7 0 0 1-.2.3l-.1.1h-.5l-.1-.1a2.7 2.7 0 0 1-.3-.3c-.1-.2-.2-.4.1-.3a.3.3 0 0 0 .2 0v-.2a.4.4 0 0 1 .2-.1h.1" class="e"/><path d="M17.8 11.3a1 1 0 0 1 .2-.5.7.7 0 0 0-.2.5ZM17.6 11.3a1 1 0 0 0-.2-.5.7.7 0 0 1 .3.5Z" class="h"/><path d="M17.7 10.3h.2a.4.4 0 0 1 0 .1l.1.2a.3.3 0 0 0 .2 0 .4.4 0 0 1 .2 0 .6.6 0 0 1-.1.2l-.4-.1a.4.4 0 0 0-.4 0h-.3a.6.6 0 0 1-.1-.1.4.4 0 0 1 .1 0 .3.3 0 0 0 .2 0v-.2a.4.4 0 0 1 .2-.1h.1ZM17.7 11.3a.4.4 0 1 1-.4.4.4.4 0 0 1 .4-.4ZM23 15.8l-.3-.2a61 61 0 0 0-10 0q-.2 0-.2.2t.2.2a61 61 0 0 0 10 0q.2 0 .2-.2" class="e"/><circle cx="17.7" cy="11.7" r=".4" class="e"/><circle cx="17.7" cy="11.7" r=".3" class="e"/><ellipse cx="17.7" cy="14.7" class="d" rx=".5" ry=".4"/><circle cx="17.7" cy="11.7" r=".2" class="d"/><path d="m15.2 16-1.2-.1a52.3 52.3 0 0 1 7.4 0l-1.2.1" class="j"/><path d="M26.7 16v14.7a9.6 9.6 0 0 1-2.7 6.5 8.7 8.7 0 0 1-6.3 2.9 8.7 8.7 0 0 1-6.3-3 9.6 9.6 0 0 1-2.7-6.4V16.1Z" style="stroke:#fff;stroke-width:.13px;fill:#c6363c"/><path d="M17.6 39.2a.6.6 0 0 1-.3 0v-.9l.1-6.8a.9.9 0 0 1 .3 0 .9.9 0 0 1 .3 0l.2 6.8-.1.8a.6.6 0 0 1-.3 0Z" class="g"/><path d="M16.8 39.1a.6.6 0 0 0 .3 0l.2-.8.4-6.8a.9.9 0 0 0-.3 0c-.5 3.1-.7 5.4-1 6.7-.1.2-.2.7 0 .8a.6.6 0 0 0 .2.1h.2Z" class="g"/><path d="M15.8 39a.6.6 0 0 0 .3 0c.2 0 .1-.5.2-.8.4-1.3.6-3.6 1-6.7a.9.9 0 0 0-.2 0c-.8 3-1 5.2-1.7 6.5 0 .2-.2.7 0 .9a.6.6 0 0 0 .2 0l.2.1Z" class="g"/><path d="M14.8 38.7h.3c.2 0 .2-.5.3-.7.6-1.3.9-3.5 1.7-6.6a.9.9 0 0 0-.3 0 .4.4 0 0 0-.1-.1c-1 3-1.3 5.1-2.2 6.4-.1.3-.2.7-.1.8a.6.6 0 0 0 .2.2h.2ZM18.6 39.1a.6.6 0 0 1-.3 0l-.1-.8-.4-6.8a.9.9 0 0 1 .2 0l1.1 6.7c0 .2.2.7 0 .8a.6.6 0 0 1-.3.1h-.2Z" class="g"/><path d="M19.6 39a.6.6 0 0 1-.3 0l-.2-.8c-.3-1.3-.5-3.6-1-6.7a.9.9 0 0 1 .2 0c.8 3 1 5.2 1.7 6.5 0 .2.2.7 0 .9a.6.6 0 0 1-.2 0l-.2.1Z" class="g"/><path d="M20.6 38.7h-.3L20 38c-.6-1.3-.9-3.5-1.7-6.6a.9.9 0 0 1 .3 0 .4.4 0 0 1 .2-.1c1 3 1.2 5.1 2.1 6.4.2.3.3.7.2.8a.6.6 0 0 1-.3.2h-.2ZM15.3 36.4a.5.5 0 0 0 .3 0c.2 0 .3-.5.3-.7a55.7 55.7 0 0 0 2.2-6.6.7.7 0 0 0-.2 0 .7.7 0 0 0-.3-.1c-1 3-1.5 5.3-2.5 6.5a1 1 0 0 0-.2.7l.3.2h.1Z" class="g"/><path d="M16.1 36.6a.5.5 0 0 0 .3 0c.2-.1.2-.6.3-.8L18 29a.7.7 0 0 0-.3 0 .7.7 0 0 0-.2-.1c-.8 3.1-1 5.5-1.7 6.7a1 1 0 0 0-.2.7l.3.2h.1Z" class="g"/><path d="M17 36.7a.5.5 0 0 0 .2 0c.2-.2.2-.6.2-.9 0-1.3.3-3.6.6-6.8a.7.7 0 0 0-.2 0 .7.7 0 0 0-.3 0c-.4 3.2-.7 5.5-1 6.8v.8h.5Z" class="g"/><path d="M20.1 36.4a.5.5 0 0 1-.3 0l-.3-.7a55.8 55.8 0 0 1-2.2-6.6.7.7 0 0 1 .3 0 .7.7 0 0 1 .2-.1c1 3 1.5 5.3 2.5 6.5a1 1 0 0 1 .2.7l-.3.2Z" class="g"/><path d="M19.3 36.6a.5.5 0 0 1-.3 0l-.2-.8-1.4-6.7a.7.7 0 0 1 .2 0 .7.7 0 0 1 .3-.1c.7 3.1 1 5.5 1.7 6.7a1 1 0 0 1 .1.7l-.3.2h-.1Z" class="g"/><path d="M18.5 36.7a.5.5 0 0 1-.3 0l-.2-.9c0-1.3-.3-3.6-.6-6.8a.7.7 0 0 1 .3 0 .7.7 0 0 1 .2 0c.4 3.2.7 5.5 1 6.8v.8h-.4Z" class="g"/><path d="M17.6 36.7a.5.5 0 0 1-.2 0c-.2-.2-.1-.6-.1-.9l.2-6.8a.7.7 0 0 1 .2 0 .7.7 0 0 1 .3 0l.1 6.8v.8a.5.5 0 0 1-.3.1Z" class="g"/><path d="M15.9 34.6h.2l.3-.8c.4-1.2.9-3.5 1.6-6.6h-.3c-.8 3-1.2 5.2-2 6.4a1.2 1.2 0 0 0-.1.8l.2.1Z" class="g"/><path d="M16.5 34.7h.2l.2-.8 1-6.7h-.3c-.6 3-.7 5.4-1.3 6.6a1.3 1.3 0 0 0-.1.8h.2l.1.1Z" class="g"/><path d="M17.1 34.8h.3V34l.5-6.8h-.3l-.8 6.7a1.7 1.7 0 0 0 0 .8l.2.1h.1Z" class="g"/><path d="M19.5 34.6h-.2l-.2-.8c-.5-1.2-1-3.5-1.7-6.6h.4c.8 3 1.1 5.2 1.9 6.4a1.2 1.2 0 0 1 .1.8l-.1.1h-.2Z" class="g"/><path d="M19 34.7h-.3l-.2-.8-1-6.7h.3c.6 3 .8 5.4 1.3 6.6a1.3 1.3 0 0 1 .1.8H19v.1Z" class="g"/><path d="M18.3 34.8h-.2L18 34l-.5-6.8h.4l.7 6.7a1.7 1.7 0 0 1 0 .8l-.2.1h-.1Z" class="g"/><path d="M17.7 34.8h-.3V34l.1-6.8h.4L18 34v.8h-.2Z" class="g"/><path d="M18.7 30.7c0 .2-.7 3-1 3s-1-2.8-1-3Z" class="g"/><path d="M22 34h.1a2 2 0 0 0 .4.7.7.7 0 0 1 0 .8 1.8 1.8 0 0 0-.2.7 3 3 0 0 0 0 .8.6.6 0 0 0 .2.4s0 .2-.3.4a.3.3 0 0 0 0 .1H22a.3.3 0 0 0 0-.1c-.3-.2-.4-.3-.3-.4a.6.6 0 0 0 .3-.4 3 3 0 0 0 0-.8 1.8 1.8 0 0 0-.4-.7.7.7 0 0 1 0-.8 2 2 0 0 0 .4-.6Z" class="e"/><path d="M22.8 37.4c-.5.3-.9-.5-.5-1.5.3-.7 1.7-.4 1 .6H23c0-.3 0-.4-.3-.3-.5 0-.5 1.1 0 .9.2 0 0 .2 0 .3M21.4 37.4c.4.3.8-.5.4-1.5-.2-.7-1.6-.4-.8.6 0-.3.1-.4.3-.3.6 0 .6 1.1 0 .9l.1.3" class="e"/><path d="M21.8 36.6a.2.2 0 0 0 0 .3h.6a.2.2 0 1 0 0-.3ZM22.4 31.8a11.4 11.4 0 0 0 1 1.6l.3.2a3 3 0 0 0 .9 0c.2-.3.6-.1.4.1.1.1 0 .4-.2.3h-.9l1 .2c.3 0 .2.3 0 .6a.2.2 0 0 1-.5 0c0-.2-.7-.5-.8-.7a9.3 9.3 0 0 0 .6 1c.1.2.2.2 0 .5H24c-.4 0-.4 0-.4-.3a1.9 1.9 0 0 0-.2-1 2.1 2.1 0 0 0-.2-.3 1.3 1.3 0 0 0-.8-.3c-.3.1-.4 0-.5-.2 0 0 0-.4.2-.5.2 0 .3 0 .4.2.2.2.3.3.4.2.2 0-.3-.2-.7-.8s-.6-1.4.3-.8Z" class="e"/><path d="M25 33.8h.5c-.1-.4-.4-.4-.6-.3l-.1.2.2.1ZM22 33.5h-.6s-.1 0 0-.1c.2-.4.4-.4.6-.2l.2.2a.7.7 0 0 1-.2.1ZM23.7 35.4a.8.8 0 0 1 .2-.3 2 2 0 0 1 .2.2.6.6 0 0 1-.1.8c-.1.1-.1 0-.1 0 0-.2 0-.4-.2-.7ZM24.6 34.7c.2.1.3.2.3.4.3-.6 0-.7-.3-.7a.8.8 0 0 0 0 .3Z" class="e"/><path d="M21.8 32.2s.2-.2.3 0 0 .2-.1.3c0 0 .2-.3.3-.1s0 .3-.1.4c.1-.1.2-.3.3-.1s0 .2 0 .3c0 0 .1-.2.2 0 .1 0 0 .1 0 .2 0 0 .1-.2.2 0s0 .1 0 .2" class="j"/><path d="m21.8 25 .1 4a1.2 1.2 0 0 0 .4.9 2 2 0 0 0 .4-1V25Z" class="g"/><path d="m23.8 24.3.1 4.2a11.5 11.5 0 0 1-.7 3c-.6-.2-.8-1.7-.7-3.2a10.2 10.2 0 0 0 0-3Z" class="g"/><path d="m24.6 25-.1 4.2a11.5 11.5 0 0 1-.9 3c-.6-.5-.5-2.6-.4-3.3a11.8 11.8 0 0 0 .1-3Z" class="g"/><path d="M25.2 26H24a11.8 11.8 0 0 1-.2 3c-.2 1-.4 3.6.6 4.3.7-1.4.2-2.8.5-4ZM21 24.2l.1 4a1.2 1.2 0 0 0 .5.9 2 2 0 0 0 .3-1l-.2-3.8ZM22.9 21.7v3.4a2.6 2.6 0 0 1-.3 1.2 1.2 1.2 0 0 1-.5-1v-3Z" class="g"/><path d="M22.1 22.4v2.9a2 2 0 0 1-.3 1 1.3 1.3 0 0 1-.5-1v-2.2ZM22.8 21.6l.7-1a20.4 20.4 0 0 1 .2 4.7 2 2 0 0 1-.4 1 1 1 0 0 1-.4-.9 26 26 0 0 0-.1-3.8Z" class="g"/><path d="M24.3 24v1.3a2 2 0 0 1-.2 1 1 1 0 0 1-.5-.9 23.2 23.2 0 0 0-.2-4.7l.6-.5Z" class="g"/><path d="m25.1 25.2-.2.7a2 2 0 0 1-.5 1 .9.9 0 0 1-.3-.8 15 15 0 0 0-.3-6.1c1.2.8 1.7 2.5 1.3 5.2ZM25 26l1.1-.4a16.2 16.2 0 0 1-.3 4.2 9 9 0 0 0 0 3.5c-1.1-.1-1.6-1.6-1-4.4a12.5 12.5 0 0 0 .2-3Z" class="g"/><path d="M24.6 21a14 14 0 0 1 .3 4.4 4.8 4.8 0 0 1-.4 1.6c.7-.1 1.2-.9 1.2-2.2l-.2-3.7Z" class="g"/><path d="m25.2 21.1.3 1.2a10.9 10.9 0 0 1-.3 4.3c.8 0 1-.8 1-2.1a18.6 18.6 0 0 0-.2-3.9ZM23.6 20.8h.7l.2 1.3a2.2 2.2 0 0 1-.2 1.2c-.3-.1-.4-.5-.5-1ZM21.7 22.3h.7v1.2a2 2 0 0 1-.3 1 1.2 1.2 0 0 1-.4-.8v-1.4ZM21.7 22.7v1.1a2 2 0 0 1-.4 1 1.2 1.2 0 0 1-.4-.8ZM22.4 22h.6l.1 1.1a2 2 0 0 1-.2 1 1.2 1.2 0 0 1-.5-.8V22Z" class="g"/><path d="M23.7 21a6 6 0 0 1 0 2.7 1.3 1.3 0 0 1-.6-1l-.1-1.4ZM21.2 30.3l1 .5a3.5 3.5 0 0 0 1 1.4 1.2 1.2 0 0 1-1.3-.4 5 5 0 0 0-.7-1Z" class="g"/><path d="m21.4 30.7.5 1a1.9 1.9 0 0 1 .1 1.1 1.2 1.2 0 0 1-.7-.6Z" class="g"/><path d="m21.2 30.9.3 1.1a1.9 1.9 0 0 1-.2 1 1.2 1.2 0 0 1-.5-.7l-.2-1.3Z" class="g"/><path d="M19.9 31.2a3.5 3.5 0 0 1 .5 1.6 1.2 1.2 0 0 0 .4-1.3 7.8 7.8 0 0 1-.3-1.5Z" class="g"/><path d="m21 29.5.4 1.1a1.9 1.9 0 0 1 0 1 1.2 1.2 0 0 1-.7-.5l-.4-1.3Z" class="g"/><path d="m20.9 28.4.5.6a1.1 1.1 0 0 1 .1.1 1.2 1.2 0 0 1 .2.4 3.4 3.4 0 0 0 .7 1.5 1.2 1.2 0 0 1-1.1-.6 5 5 0 0 0-.6-1ZM19.3 31.9a3.5 3.5 0 0 0-.8 1.4 1.2 1.2 0 0 1-.2-1.3c.8-.9.8-.9 1-.1Z" class="g"/><path d="M19.1 31.4a5 5 0 0 0-1 1.5 1.2 1.2 0 0 1-.3-1.3Z" class="g"/><path d="M20 31.3a3.5 3.5 0 0 0-.8 1.4 1.2 1.2 0 0 1-.2-1.3Z" class="g"/><path d="M13.3 34a2 2 0 0 1-.4.7.7.7 0 0 0 0 .8 1.8 1.8 0 0 1 .3.7 3 3 0 0 1 0 .8.6.6 0 0 1-.3.4s0 .2.3.4a.3.3 0 0 1 0 .1h.2a.3.3 0 0 1 .1-.1c.2-.2.3-.3.2-.4a.6.6 0 0 1-.2-.4 3 3 0 0 1 0-.8 1.8 1.8 0 0 1 .3-.7.7.7 0 0 0 0-.8 2 2 0 0 1-.4-.6Z" class="e"/><path d="M12.7 37.4c.4.3.8-.5.4-1.5-.3-.7-1.7-.4-.9.6h.1c0-.3 0-.4.3-.3.6 0 .6 1.1 0 .9v.3M14 37.4c-.4.3-.8-.5-.4-1.5.3-.7 1.7-.4.9.6h-.1c0-.3 0-.4-.3-.3-.6 0-.6 1.1 0 .9v.3" class="e"/><path d="M13.7 36.6a.2.2 0 0 1 0 .3H13a.2.2 0 1 1 0-.3ZM13 31.8a11.4 11.4 0 0 1-.9 1.6l-.4.2a3 3 0 0 1-.8 0c-.3-.3-.7-.1-.5.1-.1.1.1.4.3.3h.8l-.9.2c-.3 0-.3.3-.1.6a.2.2 0 0 0 .5 0c0-.2.7-.5.8-.7a9.3 9.3 0 0 1-.5 1c-.2.2-.3.2-.1.5h.4c.3 0 .3 0 .3-.3a1.9 1.9 0 0 1 .3-1 2.1 2.1 0 0 1 .1-.3 1.3 1.3 0 0 1 .8-.3c.3.1.5 0 .5-.2 0 0 0-.4-.2-.5l-.4.2c-.2.2-.3.3-.4.2-.1 0 .4-.2.8-.8s.6-1.4-.4-.8Z" class="e"/><path d="M10.4 33.8H10s-.1 0 0 0c0-.4.3-.4.5-.3l.1.2-.2.1ZM13.5 33.5h.5c.1 0 .2 0 .1-.1-.2-.4-.5-.4-.7-.2l-.2.2a.7.7 0 0 0 .3.1ZM11.7 35.4a.8.8 0 0 0-.2-.3 2 2 0 0 0-.2.2.6.6 0 0 0 .1.8c.1.1.2 0 .1 0 0-.2 0-.4.2-.7ZM10.8 34.7c-.2.1-.3.2-.3.4-.3-.6 0-.7.3-.7a.8.8 0 0 1 0 .3Z" class="e"/><path d="M13.6 32.2s-.2-.2-.3 0 0 .2.1.3c0 0-.2-.3-.3-.1s0 .3.1.4c-.1-.1-.2-.3-.3-.1s0 .2 0 .3c0 0-.1-.2-.2 0l.1.2c-.1 0-.2-.2-.3 0s0 .1.1.2" class="j"/><path d="M13.6 25v4a1.2 1.2 0 0 1-.5.9 2 2 0 0 1-.3-1V25Z" class="g"/><path d="m11.6 24.3-.1 4.2a11.5 11.5 0 0 0 .7 3c.7-.2.8-1.7.7-3.2a10.2 10.2 0 0 1 .1-3Z" class="g"/><path d="m10.8 25 .1 4.2a11.5 11.5 0 0 0 .9 3c.7-.5.5-2.6.4-3.3a11.8 11.8 0 0 1 0-3Z" class="g"/><path d="M10.3 26h1a11.8 11.8 0 0 0 .2 3c.2 1 .5 3.6-.6 4.3-.7-1.4-.2-2.8-.5-4ZM14.5 24.2l-.2 4a1.2 1.2 0 0 1-.5.9 2 2 0 0 1-.3-1l.2-3.8ZM12.5 21.7v3.4a2.6 2.6 0 0 0 .4 1.2 1.2 1.2 0 0 0 .4-1v-3Z" class="g"/><path d="M13.3 22.4v2.9a2 2 0 0 0 .3 1 1.3 1.3 0 0 0 .5-1l.1-2.2ZM12.6 21.6l-.7-1a20.4 20.4 0 0 0-.1 4.7 2 2 0 0 0 .3 1 1 1 0 0 0 .4-.9 26 26 0 0 1 .1-3.8Z" class="g"/><path d="M11 24v1.3a2 2 0 0 0 .3 1 1 1 0 0 0 .5-.9 23.2 23.2 0 0 1 .3-4.7l-.7-.5Z" class="g"/><path d="m10.3 25.2.2.7a2 2 0 0 0 .5 1 .9.9 0 0 0 .3-.8 15 15 0 0 1 .4-6.1c-1.2.8-1.8 2.5-1.4 5.2ZM10.4 26l-1-.4a16.1 16.1 0 0 0 .3 4.2 9 9 0 0 1-.1 3.5c1.2-.1 1.6-1.6 1-4.4a12.5 12.5 0 0 1-.2-3Z" class="g"/><path d="M10.8 21a14 14 0 0 0-.2 4.4A4.8 4.8 0 0 0 11 27c-.8-.1-1.3-.9-1.2-2.2l.1-3.7Z" class="g"/><path d="m10.2 21.1-.3 1.2a10.9 10.9 0 0 0 .3 4.3c-.7 0-1-.8-1-2.1a18.6 18.6 0 0 1 .2-3.9ZM11.9 20.8H11L11 22a2.2 2.2 0 0 0 .2 1.2c.3-.1.4-.5.5-1ZM13.7 22.3h-.6v1.2a2 2 0 0 0 .2 1 1.2 1.2 0 0 0 .4-.8v-1.4ZM13.8 22.7v1.1a2 2 0 0 0 .3 1 1.2 1.2 0 0 0 .4-.8ZM13 22h-.6V23a2 2 0 0 0 .1 1 1.2 1.2 0 0 0 .5-.8V22Z" class="g"/><path d="M11.8 21a6 6 0 0 0 0 2.7 1.3 1.3 0 0 0 .5-1l.2-1.4ZM14.3 30.3l-1 .5a3.5 3.5 0 0 1-1 1.4 1.2 1.2 0 0 0 1.2-.4 5 5 0 0 1 .7-1Z" class="g"/><path d="m14 30.7-.5 1a1.9 1.9 0 0 0 0 1.1 1.2 1.2 0 0 0 .7-.6Z" class="g"/><path d="M14.2 30.9 14 32a1.9 1.9 0 0 0 0 1 1.2 1.2 0 0 0 .7-.7c0-.4 0-.9.2-1.3Z" class="g"/><path d="M15.6 31.2a3.5 3.5 0 0 0-.5 1.6 1.2 1.2 0 0 1-.5-1.3A7.8 7.8 0 0 0 15 30Z" class="g"/><path d="m14.5 29.5-.5 1.1a1.9 1.9 0 0 0 0 1 1.2 1.2 0 0 0 .7-.5l.4-1.3Z" class="g"/><path d="M14.6 28.4c-.2 0-.4.4-.6.6a1.1 1.1 0 0 0-.1.1 1.2 1.2 0 0 0-.2.4A3.4 3.4 0 0 1 13 31a1.2 1.2 0 0 0 1.2-.6 5 5 0 0 1 .5-1ZM16.2 31.9a3.5 3.5 0 0 1 .7 1.4 1.2 1.2 0 0 0 .2-1.3c-.7-.9-.7-.9-1-.1Z" class="g"/><path d="M16.3 31.4a5 5 0 0 1 1 1.5 1.2 1.2 0 0 0 .3-1.3Z" class="g"/><path d="M15.5 31.3a3.5 3.5 0 0 1 .7 1.4 1.2 1.2 0 0 0 .2-1.3ZM17.7 20.7a5.8 5.8 0 0 0-.8-2.8c.2 0 .5 0 .4-.6a3.2 3.2 0 0 1-1.4-.3c-.7-.4-1.8-.5-1.7-.1a2.7 2.7 0 0 0 1 1.6c.3.6 1 1.7.5 2.4a3.5 3.5 0 0 1-1.1 1.1 1.8 1.8 0 0 0 .2.1 1.3 1.3 0 0 1-.6.2A8 8 0 0 1 13 21c-1-1.1-1.5-2-1.3-2.7.3-.7 1.2-1.5 0-1.4s-2.1 1.8-2.4 3.6L9 22.3a1.8 1.8 0 0 0 1.1-.7 6.8 6.8 0 0 0-.2.8 1.2 1.2 0 0 0 1-.9 2.6 2.6 0 0 1 .2-.4 1 1 0 0 0 .7 0c0 .2.8 1 1.2 1.6a3.1 3.1 0 0 0 1.2 1.2h7a3.1 3.1 0 0 0 1.3-1.2l1.2-1.6a1 1 0 0 0 .6 0 2.6 2.6 0 0 1 .2.4 1.2 1.2 0 0 0 1 .9 6.8 6.8 0 0 0-.2-.8 1.8 1.8 0 0 0 1.1.7l-.3-1.8c-.2-1.8-1.2-3.4-2.4-3.6s-.2.7 0 1.4-.3 1.6-1.3 2.7a8 8 0 0 1-1.1 1.3 1.3 1.3 0 0 1-.7-.2 1.8 1.8 0 0 0 .3 0 3.5 3.5 0 0 1-1.2-1.2c-.4-.7.2-1.8.4-2.4a2.7 2.7 0 0 0 1.2-1.6c0-.4-1-.3-1.8 0a3.2 3.2 0 0 1-1.3.4c-.1.6 0 .6.3.6a5.8 5.8 0 0 0-.8 2.8Z" class="g"/><path d="m19.9 19 1 .2c.8 0 1.2-.3 1.3-.8a1 1 0 0 1-1 .5 4.4 4.4 0 0 0-1-.2Z" class="e"/><path d="M21.8 17c.9 0 .8.6 0 1.4-.2.2-.2.2-.3 0 0-.3-.3-.4-.5-.2-.1.1 0 .2-.5.2-.4.4-.8.7-.2.6l.8.2-.1.2h-1c-.9 0 1.1-2.1 1.1-2.2 0-.2.5-.6.7-.3Z" class="e"/><path d="M20.5 17.6h.1q.1-.2 0-.4l-.3.1a.4.4 0 0 0 .2.3Z" class="h"/><circle cx="21.9" cy="17.4" r=".1" class="h"/><path d="M25.6 26.5a13.1 13.1 0 0 1-.3 2.5 9.7 9.7 0 0 0-.2 2.1M25.2 26.6a10.1 10.1 0 0 0 .3-4.2 6.7 6.7 0 0 0-1.2-3M21.8 17a1 1 0 0 1-.5.5M19.4 21.7a1.3 1.3 0 0 0 1.5.4" class="l"/><path d="M19.3 21.4a3 3 0 0 0 .3.9 1.3 1.3 0 0 1-.8-.5" class="l"/><path d="M18.9 21.3a1.8 1.8 0 0 1-.3.9 1.1 1.1 0 0 1-.4-.6M20 17.5c0 .1.2.4.4.2.3-.1.3-.3.5-.5" class="l"/><path d="M19.7 17.5a1.6 1.6 0 0 0 .6-.1 2.2 2.2 0 0 1 .8-.2M19 17.8a3.3 3.3 0 0 1-.5.1" class="l"/><path d="m15.6 19-1 .2c-.8 0-1.3-.3-1.4-.8a1 1 0 0 0 1 .5 4.4 4.4 0 0 1 1-.2Z" class="e"/><path d="M13.7 17c-1 0-.9.6 0 1.4.1.2.1.2.2 0 0-.3.4-.4.5-.2.1.1.1.2.5.2.5.4.8.7.2.6l-.8.2c0 .2.1.2.2.2h1c.8 0-1.2-2.1-1.2-2.2 0-.2-.5-.6-.7-.3Z" class="e"/><path d="M15 17.6h-.2l.1-.4.2.1a.4.4 0 0 1-.2.3Z" class="h"/><circle cx="13.6" cy="17.4" r=".1" class="h"/><path d="M9.8 26.5a13.1 13.1 0 0 0 .3 2.5 9.7 9.7 0 0 1 .3 2.1M10.2 26.6a10.1 10.1 0 0 1-.3-4.2 6.7 6.7 0 0 1 1.2-3M13.7 17a1 1 0 0 0 .4.5M16 21.7a1.3 1.3 0 0 1-1.4.4" class="l"/><path d="M16 21.4a3 3 0 0 1-.2.9 1.3 1.3 0 0 0 .8-.5M16.6 21.3a1.8 1.8 0 0 0 .3.9 1.1 1.1 0 0 0 .4-.6M15.4 17.5c0 .1-.2.4-.4.2-.3-.1-.3-.3-.4-.5" class="l"/><path d="M15.7 17.5a1.6 1.6 0 0 1-.5-.1 2.2 2.2 0 0 0-.9-.2M16.4 17.8a3.3 3.3 0 0 0 .5.1" class="l"/><path d="M17.2 21.3a2.2 2.2 0 0 0 .5 1.1 2.1 2.1 0 0 0 .5-1.1" class="g"/><path d="M21.3 22.5v5.8a3.9 3.9 0 0 1-1 2.6 3.6 3.6 0 0 1-2.6 1.2 3.6 3.6 0 0 1-2.5-1.2 3.9 3.9 0 0 1-1-2.6v-5.8Z" style="stroke-width:.1px;stroke:#21231e;fill:#c6363c"/><path d="M21.3 26v1.5h-2.9V32a3.3 3.3 0 0 1-1.4 0v-4.5H14v-1.4H17v-3.6h1.4v3.6Z" style="stroke-linecap:round;stroke-width:.06px;stroke:#21231e;fill:#fff"/><path d="M19 28.2c.4-.2 1.5-.6 1.5.4 0 .4-.5.7-.7.3 0-.2 0-.3.2-.4a.2.2 0 0 1 .2.2c.4-.2-.5-.7-.9 0l.2.5c0 .1-.3.4-.2.6.4.6 1.3.1.9-.1a.2.2 0 0 1-.2.2l-.2-.4c.2-.4.7-.1.7.3 0 1-1.1.6-1.6.4ZM16.5 23.4c-.4-.2-1.6-.6-1.6.4 0 .4.5.7.7.3l-.1-.4a.2.2 0 0 0-.2.2c-.5-.2.4-.7.8 0l-.2.5c0 .1.3.4.2.6-.4.6-1.3.1-.8-.1a.2.2 0 0 0 .2.2s.2-.2 0-.4c0-.4-.6-.1-.6.3 0 1 1.2.6 1.6.4ZM19 23.4c.4-.2 1.5-.6 1.5.4 0 .4-.5.7-.7.3 0-.2 0-.3.2-.4a.2.2 0 0 1 .2.2c.4-.2-.5-.7-.9 0l.2.5c0 .1-.3.4-.2.6.4.6 1.3.1.9-.1a.2.2 0 0 1-.2.2l-.2-.4c.2-.4.7-.1.7.3 0 1-1.1.6-1.6.4ZM16.5 28.2c-.4-.2-1.6-.6-1.6.4 0 .4.5.7.7.3l-.1-.4a.2.2 0 0 0-.2.2c-.5-.2.4-.7.8 0l-.2.5c0 .1.3.4.2.6-.4.6-1.3.1-.8-.1a.2.2 0 0 0 .2.2s.2-.2 0-.4c0-.4-.6-.1-.6.3 0 1 1.2.6 1.6.4Z" class="g"/></svg>