<svg xmlns="http://www.w3.org/2000/svg" xml:space="preserve" id="svg1306" x="0" y="0" style="enable-background:new 0 0 48 48" version="1.1" viewBox="0 0 48 48"><style>.st3{fill:#fffffd}</style><circle cx="24" cy="24" r="24" style="fill-rule:evenodd;clip-rule:evenodd;fill:#d32011"/><path d="M12 3.2v41.5a24 24 0 0 1 0-41.5z" style="fill-rule:evenodd;clip-rule:evenodd"/><path d="M48 24a24 24 0 0 1-12 20.8V3.2A24 24 0 0 1 48 24z" style="fill-rule:evenodd;clip-rule:evenodd;fill:#007a36"/><path d="M33.6 8.1v.3s0 .9.5 1.8a3 3 0 0 0-1.7-.4h-.6l.3.1s1.5.6 1.9 1.4l.3.4h-.2l-.3.1.3.1c.2 0 .4.3.6.5l.1.1.1.1.1.1h.1l.1.2.3.3.2.1-.2-.1-.3-.2-.1-.1H35l.1.1.2.1.2.2.2.2-.1-.1-.1-.1h-.1l.1.1.1.1h.1l.2.2.3.4.3.2-.3-.1-.3-.2-.1-.1h-.1l.1.1.2.1h.1l.2.2v.1l.2.4v.1l-.1-.1-.4-.4-.1-.3v.3c0 .2 0 .7.4 1.1h-.1l-.1-.1H36l.1.1-.1.5h.1l.1.2.3.3.2.1-.2-.1-.3-.2H35.9l.1.1.2.1.2.2.2.2-.1-.1-.1-.1h-.1l.1.1.1.1h.1l.2.2.3.4.3.2-.3-.1-.3-.2-.1-.1h-.1l.1.1.2.1h.1l.2.2.3.4-.2.2c-.1-.8-.8-1.1-1-1.2l-.2-.1.2.2.3.7v.2l.3.8-.2.8.2.7.1.7-.1-.1-.1-.1v.1l.1.1v.1l.1.2.1.4.1.1-.1-.1-.2-.3-.1-.1-.1-.1h-.1v.1l.1.1v.1l.1.2.1.4-.1-.2-.1-.1-.1-.1h-.1v.2l.2.2.1.3.1.5.2.3-.2-.2-.2-.3-.1-.1-.1-.1h-.1v.2l.1.1.1.1.1.3.1.5a.9.9 0 0 0-.6-.4l-.5.6.2.2.2.6v.1l.1.3-.3.4-.8 1.5-.2.5V27.9l.1.1-.1.2-.1.5.1.3s-.2-.1-.1-.3l-.1-.3v-.1l-.1-.1h-.1c-.1 0 0 .1 0 .2V29l-.1.4v-.2l-.1-.1h-.1c-.1 0 0 .1 0 .2V29.9l-.1.4-.1-.2V30l-.1-.1h-.1c-.1 0 0 .1 0 .2v.5-.2c-.1-.3-.2-.7 0-.9l.2-.3-.1-.2c-.3.3-1.1 1.2-.6 2.2v.1c-.8-.2-1.2.1-1.2.2l-1.3.7c-.4.2-.6.6-.7.9v.4l-.1.3-.3.5h-.1v-.1l.1-.3c.3-.3.5-.7.5-1.3v-.3l-.1.3s-.4.8-1.2 1h-.1l-.3.1c.5-.5.5-1.4.5-1.7v-.3l-.1.3c-.1.3-.4.5-.7.7l-.2.1c-.8.6-1 1.2-1.1 1.7l-.2-.3c-.4-.5-1.2-.5-1.4-.5-.6-.6-1.3-.3-1.5-.2-.2-.1-.9-.3-1.4.2-.2 0-1 0-1.4.5l-.2.3a3 3 0 0 0-1.1-1.7l-.2-.1c-.2-.2-.6-.4-.7-.7l.2-.5v.3c0 .3 0 1.1.5 1.7l-.3-.1h-.1c-.7-.2-1.2-1-1.2-1l-.1-.3v.3c0 .6.2 1 .5 1.3l.1.3v.1h-.1l-.3-.5-.1-.3v-.4c-.1-.3-.2-.7-.7-.9l-1.3-.7c-.1 0-.5-.4-1.2-.2V31c.5-1-.4-1.9-.6-2.2l-.3-.3.2.3v1.1-.7l-.1.1v.1l-.1.2-.1-.4v-.8h-.1l-.1.1v.2l-.1-.4v-.8h-.1l-.1.1v.1l-.1.3-.1.3.1-.3-.1-.5-.1-.2.1-.1V26.9l-.2-.5-.8-1.5-.3-.4.1-.3v-.1l.2-.6.2-.2-.2.8-.6.4.1-.5.1-.3.2-.2c0-.1.1-.1 0-.2h-.1l-.1.1-.1.1-.2.3-.2.2.2-.3.1-.5.1-.3.2-.2c0-.1.1-.1 0-.2h-.1l-.1.1-.1.1-.1.2.1-.4.1-.2.1-.2c0-.1.1-.1 0-.1h-.1l-.1.1-.1.1-.2.3-.1.1.1-.1.1-.4.1-.2v-.1l.1-.1s.1-.1 0-.1l-.1.1-.1.1.1-.7.2-.7-.2-.8.3-.8v-.2c0-.3.1-.6.3-.7l.2-.2-.1-.1c-.2.1-.9.4-1 1.2l-.2-.2c.2-.1.3-.3.3-.4l.2-.2h.1l.2-.1.1-.1h-.1l-.1.1-.3.2-.4-.1.3-.2c.2-.1.3-.3.3-.4l.2-.2h.1l.1-.1.1-.1H11.6l-.1.1.2-.2.2-.2h.1l.1-.1.1-.1h-.1l-.1.1-.3.2-.2.1.2-.1.3-.3.1-.2h.1l.1-.1.1-.1h-.1l-.3-.3h-.1c.4-.4.4-.9.4-1.1v-.3l-.1.3-.4.4-.1.1v-.1l.2-.4v-.1l.2-.2.1-.1.2-.1.1-.1h-.1l-.1.1-.3.2-.3.1.3-.2c.2-.1.3-.3.3-.4l.2-.2.2-.1.1-.1h-.1l-.1.1-.1.1.2-.2.2-.2h.1l.1-.1.1-.1h-.1l-.5-.1-.3.2-.2.1.2-.1.3-.3.1-.2h.1l.1-.1.1-.1.1-.1.6-.5.3-.1-.3-.1h-.2l.3-.4c.4-.8 1.9-1.3 1.9-1.4l.3-.1h-.6c-.6 0-1.2.1-1.7.4.5-.9.5-1.7.5-1.8v-.3l-.1.3a3 3 0 0 1-.7.8 6 6 0 0 0-1.6 2c0-.4-.2-.7-.3-.8l-.2-.3v.3l-.2.7-.1.1-.1.4c0-.5-.2-.9-.3-1l-.2-.3v.3l-.2.7-.1.1-.2.5c0-.4-.2-.7-.3-.8l.2-.1v.3l-.2.7-.1.1-.2.6v-.1l-.1-.3v-.1l-.1-.1H9c-.1 0 0 .1 0 .1v.4c0 .1-.1.2 0 .4v.2l-.1-.2c.2.2.1 0 .1 0v-.1l-.1-.1h-.1c-.1 0 0 .1 0 .2v.5c0 .1-.1.2 0 .4l-.1-.2-.1-.1-.1-.1h-.1c-.1 0 0 .1 0 .2l.1.2v.9l.1.3s-.2-.1-.2-.3l-.1-.4-.1-.1-.1-.1H8c-.1 0 0 .1 0 .2l.1.2v.9l.1.3-.1-.2-.1-.4-.1-.1-.1-.1h-.1c-.1 0 0 .1 0 .2.2-.4.3-.2.3-.2v.4l-.1.5-.1-.1-.1-.3-.1-.1h-.1c-.1 0 0 .1 0 .1v.4l-.5-.5.1.2.1.8v.2l-.1-.1h-.2v.1l.1.1.1.1.1.2.1.4v.1l-.1-.1-.2-.3.1-.1h-.2v.2l.1.1.1.1.1.3v.1h-.1l-.1-.2v.1h-.6l.2.1.7.5c0 .1 0 .3.2.5l.3.3-.2-.2-.2-.3-.1-.1-.3-.2h-.1l.1.2.1.1.1.1.1.3v.1l-.1-.1-.5-.6V18l-.1.4c-.1.3-.2 1.2.6 1.8l.2.2v.4l-.1-.1-.3-.4v-.2l-.5-.6-.1-.4-.1.4c-.1.2-.2.9.3 1.5v.4c0 .3.2.5.3.7h-.2l-.2-.1-.2-.2-.1-.1h-.1l.1.1.1.1h.1l.1.2.2.4.2.1-.2-.1-.2-.2-.1-.1h-.1l.1.1.2.1.1.2.1.3-.1-.1-.1-.1c-.1 0-.1-.1-.1 0l.1.1.1.1.1.1.1.2-.1.1-.1.1v1l.1.6c.1.5.1.9.7 1.2v.1c-.4-.3-.8-.3-1-.3h-.3l.3.1.5.4.1.1.7.6h-.2l-.7-.2h-.4l.3.1.5.4-.2.5.3.3c-.3.1-.5.4-.5.4l-.1.2c-.2.9 1.3 2.5 1.6 2.8l.3.3-.1-.3-.7-1.5.2.3.1.1.3.3.1.1.4.2.2.2h.1-.1l-.3-.1h-.2l.1.1H9l.2.1.2.2H9.1l.1.1h.2l.2.1.1.1h-.6l-.4.1-.3.1h.3l.6.3.1.1.1.1c0 .2.1.6.6 1l.4.4c.2.2.4.5.7.6h-.7s-1 .1-1.6-.3l-.3-.2.2.3s1.1 1.3 2.7 1.1h1.1-.3l-1.2.2s-.7.2-1.1 0l-.4-.2.3.3s1 .9 2.2.5l.2-.1.2.1.2-.1v.1l.1.1c.1.1.3 0 .3-.1v-.1l.1.1.3-.1.1-.3.6-.1.2.1.2.1.1.2h-.1c-.4-.1-.6 0-.8.1l-.3.2-.4.1H13c0 .1.1.1.1 0h.4l.3.1h.7l-.1.1-.2.1-.3.1-.1.1-.1.1v.1h.1l.1-.1H14.5l-.1.1-.1.1-.1.1v.1h.1l.1-.1h.7-.1l-.1.1-.1.1v.1h.1l.1-.1h.7-.1l.4-.1-.1.1v.1h.2l.2-.1h.7l-.1.1-.1.1v.1h.2l.2-.1h.4l.5-.1.1-.1-.7.6c-.2 0-1.1-.2-2.6.2-1.3.4-2.7-.5-2.8-.5l-.3-.2.1.3c.3 1 1.2 1.5 1.7 1.7-.9.3-2 0-2 0l-.3-.1.1.3c.4.8 2.2 1.3 4 .9 1.7-.3 2.6.1 2.6.2l2.4.6c.7.1 1.1-.2 1.2-.3l.2-.5.2-.6 2.1.2 2-.2.2.6.2.5c.1.2.5.5 1.2.3l2.4-.6s1-.4 2.6-.2c1.8.3 3.6-.1 4-1l.1-.3-.3.1s-1.2.3-2 0c.5-.2 1.4-.7 1.7-1.7l.1-.3-.3.2s-1.4.9-2.8.5-2.4-.2-2.6-.2l-.7-.6.1.1.5.1h.3l.2.1c.1 0 .1.1.2 0v-.1l-.1-.1-.1-.1h.6l.2.1c.1 0 .1.1.2 0v-.1l-.1-.1-.1-.1h-.1.6l.2.1c.1 0 .1.1.1 0v-.1l-.1-.1-.1-.1h-.1.7l.1.1c.1 0 .1.1.1 0v-.1l-.1-.1-.1-.1-.1-.1h.6l.1.1c.1 0 .1.1.1 0V37l-.1-.1-.1-.1-.3-.1-.2-.1-.1-.1h.7l.3-.1h.5v-.1h-.1l-.4-.1-.3-.2c-.1-.1-.4-.2-.8-.1h-.1l.1-.2.2-.1.2-.1.6.1.1.3c.1.1.2.2.3.1l.1-.1v.1c.1.1.2.2.3.1l.1-.1v-.1l.2.1.2-.1.2.1c1.2.4 2.2-.5 2.2-.5l.3-.3.3.8c-.4.2-1.1 0-1.1 0l-1.2-.2h-.3 1.1c1.7.2 2.7-1.1 2.7-1.1l.2-.3-.3.2c-.5.3-1.6.3-1.6.3h-.7c.3-.1.5-.4.7-.6l.4-.4c.4-.4.5-.8.6-1l.1-.1.1-.1.6-.3h.3l-.3-.1h-.9l.1-.1.2-.1h.2l.1-.1H38.8l.2-.2.2-.1h.2l.1-.1v-.1h-.2l-.3.1h-.1.1l.2-.1.4-.2.1-.1.3-.3.1-.1.2-.3-.7 1.5h-.3l.2-.3c.3-.2 1.7-1.9 1.6-2.8l-.1-.2s-.2-.3-.5-.4l.3-.3.1-.1c.1-.2.3-.4.5-.4l.3-.1h-.3c-.1 0-.5 0-.8.2h-.2l.7-.6.1-.1c.1-.2.3-.4.5-.4l.3-.1h-.3c-.2 0-.6 0-1 .3 0 0 .1-.1 0-.1.5-.3.6-.7.7-1.2l.1-.6v-.9s.1-.1 0-.1l-.1-.1-.1-.1.1-.2.2-.2.1-.1h-.1l-.1.1-.1.1.1-.3.1-.2.1-.1.1-.1.1-.1h-.1l-.1.1-.2.2-.2.1.2-.1.2-.4.1-.2.1-.1.1-.1.1-.1H42l-.1.1-.2.2-.2.1h-.2c.1-.1.3-.4.3-.7v-.4c.5-.6.4-1.3.3-1.5l-.1-.4-.1.4c0 .2-.3.5-.5.6l-.1.1-.3.4-.1.1.1-.2v-.2l.2-.2c.8-.6.7-1.5.6-1.8l-.3-.5-.1.4c0 .2-.3.5-.5.6l-.1.1V19l.1-.3.1-.1.1-.1.1-.2h-.1l-.1.1-.1.1-.2.3-.2.2.3-.3.2-.5.7-.5.2-.1h-.6v-.1l-.1.1h-.1v-.1l.1-.3.1-.1.1-.1c0-.1.1-.1 0-.2h-.1l-.1.1-.1.1-.2.3-.1.1v-.1l.1-.4.1-.2.1-.1.1-.1c0-.1.1-.1 0-.1h-.2l-.1.1v-.2l.1-.8.1-.2-.2.1-.5.5v-.6h-.1v.1l-.1.3v.2l-.1-.5v-.3l.1-.3v-.2h-.1l-.1.1-.1.1-.1.4-.1.2.1-.3v-.8l.1-.3v-.2h-.1l-.1.1-.1.1-.1.4-.2.3.1-.3v-.9l.1-.2v-.2h-.1l-.1.1-.1.1-.1.2v-.7l.1-.2v-.2h-.1l-.1.1v.1l-.1.3-.1.2v-.8l.1-.2V12h-.1l-.1.1v.1l-.1.3v.1l-.2-.6-.1-.1c-.1-.2-.3-.5-.2-.7v-.3l.1.4-.3.8-.2-.5-.1-.1c-.1-.2-.3-.5-.2-.7v-.3l-.2.3c-.1.1-.3.5-.3 1l-.1-.4-.1-.1c-.1-.2-.3-.5-.2-.7v-.3l-.2.3-.3.8a6 6 0 0 0-1.6-2s-.6-.5-.7-.8l.1-.5zm.2.5.6.6c1.4 1.2 1.7 2.2 1.7 2.6l-.5-.3-.1-.2h-.1l-.9-1c-.6-.6-.7-1.3-.7-1.7zm-19.6 0c0 .3-.2 1-.6 1.7l-.9 1h-.1l-.1.2-.5.3c.1-.3.3-1.4 1.7-2.6l.5-.6zm18.3 1.3c.7 0 1.3.2 1.8.5.3.5.7.8 1.1 1.1l.1.2v.1l-.9-.3-.4-.5c-.3-.5-1.2-.9-1.7-1.1zm-17 0c-.5.2-1.4.7-1.7 1.3l-.4.5-.9.3v-.1l.1-.2c.3-.3.8-.6 1.1-1.1.5-.5 1.1-.7 1.8-.7zm20.8.7.2.6.1.1.2.5v.3l-.1.2-.2-1 .1.9-.1-.2-.3-.8c-.1-.2 0-.4.1-.6zm-24.6 0 .1.6c0 .3-.1.5-.3.8l-.1.2.1-.9c-.2.4-.2.8-.2 1l-.1-.2v-.3l.2-.5.1-.1.2-.6zm25.4.3.2.6.1.1.1.3-.1-.1v-.1c-.1 0 0 .1 0 .1l.1.4v.4l-.2-1 .1.9-.1-.2v-.2h-.1v.1c-.2-.3-.2-.5-.2-.7l.1-.6zm-26.2 0 .1.6-.1.6V12h-.1c-.1 0 0 .1 0 .2v.1l-.1.2.1-.9c-.2.4-.2.8-.2 1v-.4l.1-.4v-.1.1l-.1.1.1-.3.1-.1c-.1-.2 0-.4.1-.6zm27.1.7.2.6.1.1.2.7-.2.2-.1-.4-.1-.4v.2l-.2-.2-.1-.1v-.1l.2-.6zm-28 0 .1.6v.1l-.1.1-.2.2v-.2l-.1.4-.1.4-.2-.2.2-.7.1-.1.3-.6zm24.6.1c.3 0 .7 0 1 .3l.1.3-.5-.3.7.5.1.1H35.7l-.1-.1-.2-.1-.2-.2H35l-.5-.4.1-.1zm-21.2 0h.1l-.5.4-.1.1-.2.2-.2.1-.1.1H12.1l.1-.1.7-.5-.5.3.1-.3.9-.3zm22.3.1.3.2c.2.1.3.3.4.6v.2h-.2c-.1-.1-.4-.3-.4-.6l-.1-.4zm-23.4 0v.3c0 .3-.3.5-.4.6-.1 0-.1.1-.2 0v-.2c0-.3.2-.5.4-.6l.2-.1zm24.6.1.2.4v.5-.1l-.1-.3-.1-.5zm-25.8 0-.1.4-.1.3v.1s-.1-.1 0-.2v-.3l.2-.3zm26.6.4.3.2c.2.1.3.3.3.6v.2l-.2-.1c-.1-.1-.3-.4-.3-.7v-.1l-.1-.1zm-27.4 0v.2c0 .3-.2.6-.3.7l-.2.1v-.2c0-.3.1-.5.3-.6l.2-.2zm26.5 0 .1.3c0 .3-.2.5-.3.5l-.1-.2v-.1l.2-.4.1-.1zm-25.6 0 .1.2.2.4v.1l-.1.2c-.1 0-.3-.2-.3-.5l.1-.4zm25.2.1.1.1v-.1h-.1zm-24.8 0v.2c-.1-.2-.1-.2 0-.2zm25.6.1.2.4v.2l-.1-.4-.1-.2zm-26.4 0-.1.2-.1.4v-.2l.2-.4zm26.4.3v.1-.1c-.1 0 0 0 0 0zm-26.4 0s.1 0 0 0v.1-.1zm24.7 0h.2s.4 0 .5.2l.1.2c-.1.1-.4.1-.6-.1l-.2-.3zm-23 0-.2.2c-.2.2-.5.2-.6.1l.1-.2c.2-.2.5-.2.5-.2l.2.1zm25.1 0 .1.2v.2l-.1-.3v-.1zm-27.2 0v.1l-.1.3V13l.1-.2zm28.4.1V13.2c0 .3-.3.5-.4.5v-.2c0-.2.3-.4.3-.4l.1-.2zm-29.6 0 .1.1s.3.2.3.4v.2c-.1 0-.3-.2-.4-.5v-.2zM37 13l.1.1.1.1-.1.2H37c-.1 0-.1-.1-.1 0l.1.1h.1l-.2.1-.1-.2v-.1l.2-.3zm-26 0 .2.4v.1l-.1.2-.2-.1h.1l.1-.1h-.2l-.1-.2.1-.1.1-.2zm26.8.2zm-27.6 0zm26.3 0h.1v.2l-.2-.2c0 .1 0 .1.1 0 0 .1 0 0 0 0zm-25 0c0 .1 0 .1 0 0l.1.1-.2.2v-.2l.1-.1zm25.9.1h.2s.4 0 .5.2l.1.2c-.1.1-.4 0-.6-.2l-.2-.2zm-26.8 0-.2.3c-.2.2-.5.3-.6.2l.1-.2c.1-.2.5-.2.5-.2l.2-.1zm25.1.1h.2s.4 0 .6.2l.1.2c-.1.1-.4.1-.7-.1l-.2-.3zm2.5 0zm-25.9 0-.2.3c-.3.2-.6.2-.7.1l.1-.2c.2-.2.6-.2.6-.2h.2zm-2.5 0zm29.2 0V13.7c-.1.3-.3.5-.4.5l-.1-.2c0-.3.3-.5.3-.5.1.1.2 0 .2-.1zm-30 0 .1.2s.3.2.3.4l-.1.2c-.1 0-.4-.2-.4-.5v-.1l.1-.2zm27.7.1zm-25.4 0c.1 0 0 0 0 0zm26.1 0 .1.1.1.1-.1-.1-.1-.1zm-26.8 0-.1.1-.1.1.1-.1.1-.1zm26.7.2.1.2.1.2-.1-.1h-.1c-.1 0-.1-.1-.1 0l.1.1.1.1.1.1-.2.1-.1-.2v-.1c-.1-.2 0-.3.1-.4zm-26.6 0 .2.4v.1l-.1.3-.2-.1.2-.2.1-.1h-.1l-.1.1-.1.1.1-.2v-.4zm26.1.1h.2l-.1.3-.2-.2.1-.1zm-25.6 0 .1.1-.2.2-.1-.3h.2zm27.1 0 .1.2-.2-.2c0 .1 0 .1.1 0zm-28.6 0 .1.1-.2.2.1-.3c0 .1 0 0 0 0zm29.5 0c0 .1 0 .1 0 0l-.1.2.1-.2zm-30.4 0 .1.2-.1-.2c0 .1 0 .1 0 0zm28.7.1.2.1s.4 0 .6.2l.1.2c-.1.1-.4 0-.7-.2l-.2-.3zm-27 0-.2.3c-.2.2-.5.3-.7.2l.1-.2c.1-.2.6-.2.6-.2l.2-.1zM36 14h.2s.5 0 .6.2l.1.2c-.1.1-.5.1-.7-.2a.2.2 0 0 1-.2-.2zm-24 0-.3.3c-.3.2-.6.2-.7.2l.1-.2c.2-.2.6-.2.6-.2l.3-.1zm27.3.1v.4c-.1.3-.3.6-.5.6l-.1-.2c0-.3.3-.5.3-.5l.3-.3zm-30.6 0 .2.2s.3.2.3.5l-.1.2c-.2 0-.4-.2-.5-.6v-.1l.1-.2zm29.8.3.1.1h.1l-.1.3-.2-.2.1-.2zm-29 0 .1.1-.2.2-.1-.3h.1c0 .1 0 0 .1 0zm28 0c0 .1 0 .1 0 0l.3.5-.2-.2-.1-.1c-.1 0 0-.1 0-.2zm-27 0 .1.2-.1.1-.2.2.2-.5zm26.8.1-.1.2v.2l-.3-.2.1-.1.1-.1h.2zm-26.6 0h.2l.1.1.1.1-.3.2v-.2l-.1-.2zm27 0 .2.1s.5 0 .6.3l.1.2c-.1.1-.5 0-.7-.2l-.2-.4zm-27.4 0-.2.4c-.3.3-.6.3-.7.2l.1-.2c.2-.3.6-.3.6-.3l.2-.1zm25.9.2h.3s.5-.1.7.2c.1.1.2.2.1.3-.1.1-.5.1-.8-.2l-.3-.3zm-24.4 0-.3.4c-.3.2-.7.3-.8.2l.1-.2c.2-.3.7-.2.7-.2.1-.2.2-.2.3-.2zm27.8 0 .1.3v.1c-.1.4-.3.6-.5.6l-.1-.2c0-.3.4-.5.4-.5-.1-.1 0-.1.1-.3zm-31.2 0 .2.2s.4.2.4.5l-.1.3c-.2 0-.4-.2-.5-.6v-.4zm29 .2.2.1v.1l-.2-.2zm-26.8 0-.1.2V15l.1-.1zm25.2.1.4.3.1.1.1.1.1.3-.3-.3.4.6-.1-.1c-.5-.3-.7-.7-.7-1zm-23.6 0c0 .3-.1.7-.6 1l-.1.1.4-.6-.3.3.1-.3.1-.1.1-.1.3-.3zm25.7 0 .2.1-.2-.1zm-27.8 0-.2.1.2-.1zm28.9.2-.1.3-.3-.2h.1l.1-.1h.2zm-30 0h.2l.1.1h.1l-.3.2-.1-.3zm28.7 0 .1.3-.1-.1v-.2zm-1.2 0 .3.2c.2.1.3.3.4.6v.2H37c-.1-.1-.4-.3-.4-.6l-.1-.4zm-26.2 0v.2l-.1.1.1-.3zm1.3 0v.3c0 .3-.3.5-.4.6-.1 0-.1.1-.2 0v-.2c0-.3.2-.5.4-.6l.2-.1zm25.9 0v.3l-.1.2-.2.2v-.1l-.2-.5c.2.1.3.1.5-.1-.1.1 0 .1 0 0zm-27 0c0 .1.1.1 0 0l.4.2-.2.5v.1l-.2-.2-.1-.2.1-.4zm27.4 0 .3.1s.5 0 .7.3l.1.2c-.1.1-.5 0-.8-.3l-.1-.1v-.1c-.2.1-.2 0-.2-.1zm-27.8 0-.1.2v.1l-.1.1c-.3.3-.6.3-.8.3l.1-.2c.2-.3.7-.3.7-.3l.2-.2zm29.8.2.1.3v.1l-.1.2-.4.4h-.1l-.1-.2c0-.3.4-.5.4-.5l.2-.3zm-31.8 0 .2.2s.4.2.4.5l-.1.3h-.1l-.4-.4V15.4zm29.6.2.2.1v.3l-.1.2V16l-.1-.4zm-27.4 0-.1.4v.2l-.1-.2v-.3l.2-.1zm27.3.1.1.3c0 .3-.2.5-.3.5l-.1-.2v-.1l.2-.4.1-.1zm-27.2 0 .1.2.2.4v.1l-.1.2c-.1 0-.3-.2-.3-.5l.1-.4zm30.3 0-.1.7v.5l-.2.2.1-.5-.2.5h-.1c.1-.2.2-.5.1-.7v-.1l.4-.6zm-33.4 0 .4.5v.1c-.1.3 0 .5.1.7h-.1l-.2-.5.1.5s-.2 0-.2-.2v-.5l-.1-.6zm30.7.2.2.4v.2l-.1-.4-.1-.2zm-28 0-.1.2-.1.4v-.2l.2-.4zm29 0h.2l-.1.3-.1-.3c0 .1 0 .1 0 0 0 .1 0 0 0 0zm-30 0s0 .1 0 0c0 .1 0 .1 0 0l-.1.3-.1-.3H9zm29.2 0 .3.1s.5 0 .7.3l.1.2c-.1.1-.5 0-.8-.3l-.1-.1V15.8h-.1l-.1.1c0 .1 0 .1 0 0zm-28.4 0-.1.2-.1-.1h-.1c-.1 0 0 .1 0 .2v.1l-.1.1c-.3.3-.6.3-.8.3l.1-.2c.4-.5.9-.5.9-.5l.2-.1zm30.4.1-.3 1.8v.1h1.3c-3.5 2.3-4 3.7-4.1 4.2-.1-.1-.4-.4-.4-1l-.2-.7v-.1c0-.6.6-1.2 1.1-1.6l2.6-2.7zM7.9 16c.4.4 1.5 1.6 2.6 2.5.5.4 1.1 1 1.1 1.6v.1l-.2.7c0 .6-.3.9-.4 1-.1-.4-.6-1.8-4.1-4.2h1.3v-.1c-.1.1-.3-.9-.3-1.6zm28.7 0c.1 0 .1 0 0 0 .1.1.1.1 0 0 .1 0 .1 0 0 0zm-.3 0zm-24.6 0zm-.3 0c-.1 0-.1.1 0 0-.1.1-.1 0 0 0zm26.5.2.1.3c0 .3-.2.5-.3.6l-.1-.2v-.1c0-.2.3-.4.3-.4v-.2zm-27.8 0 .1.2s.3.2.3.4v.1l-.1.2c-.1 0-.3-.2-.3-.6v-.3zm26.2 0h.2s.4 0 .5.2l.1.2c-.1.1-.4.1-.6-.1l-.2-.3zm-24.6 0-.2.2c-.2.2-.5.2-.6.1l.1-.2c.2-.2.5-.2.5-.2l.2.1zm25.4 0zm-26.2 0zm27.4.2.3.2v.2c0 .1-.1.2 0 .4l-.1.3.1-.3-.1-.5c-.2-.1-.2-.2-.2-.3zm-28.6 0-.1.3-.1.5.1.3s-.2-.1-.1-.3v-.6l.2-.2zm28.5.2v.2c-.1-.1-.1-.2 0-.2zm-28.3 0v.2c0-.1-.1-.1 0-.2-.1 0-.1 0 0 0zm29.4 0-.1.1.1-.1c0 .1 0 0 0 0zm-30.6 0s0 .1 0 0l.1.1-.1-.1zm28.6 0h.2V16.9l-.1-.1-.2-.2c0 .1 0 .1.1 0-.1.1-.1 0 0 0zm-26.6 0c.1 0 .1.1 0 0l.1.1-.2.2v.1V16.7h.1v-.1zm28.1.1h.3v.1l-.1.2-.1-.1-.1-.1h-.1l.1-.1zm-29.6 0v.1h-.1l-.1.1v.1l-.1-.1v-.1l.3-.1zm29.1.1.1.4c0 .4-.2.6-.4.6l-.1-.2v-.1c0-.3.3-.5.3-.5l.1-.2zm-28.6 0 .1.2s.3.2.3.5v.1l-.1.3c-.1 0-.4-.3-.4-.6l.1-.5zm26.8 0h.2s.4 0 .6.2l.1.2c-.1.1-.4.1-.7-.1l-.2-.3zm-25 0-.2.3c-.3.2-.6.2-.7.1l.1-.2c.2-.2.6-.2.6-.2h.2zm27.2.1s.1.1 0 0l.1.2-.1.1V16.9zm-29.4 0V17.2l-.1-.1.1-.2c-.1.1 0 0 0 0zm31.3.1-.1.3c-.1.2-.3.3-.5.3l.1-.4.3-.1.2-.1zM7.4 17l.2.1.3.1.1.4-.5-.3-.1-.3zm30.2.2h.2l-.1.3-.2-.2.1-.1zm-27.2 0 .1.1-.2.2-.1-.3h.2zm26.3.2h.2s.5 0 .6.2l.1.2c-.1.1-.5.1-.7-.2l-.2-.2zm-25.4 0-.3.3c-.3.2-.6.2-.7.2l.1-.2c.2-.2.6-.2.6-.2l.3-.1zm29.3.2v.1h-.2l.2-.1zm-33.2 0 .2.1h-.2v-.1zm28.7.2c.3.2.7.5.8 1.1l-.1.2-.3-.6.2.6-.1.2-.3-.7v-.2l-.2-.6zm-24.2 0-.2.6v.2l-.3.7-.1-.2.2-.6-.3.6-.1-.2c0-.6.5-1 .8-1.1zm26 .1h.1l-.2.2-.1-.1.2-.1c0 .1 0 0 0 0zm-27.8 0s.1.1 0 0l.2.1-.1.1-.2-.2h.1zm26.9.2h.8l-.3.2-.1.1h-.1l-.3-.3zm-26 0-.3.4h-.1l-.1-.1-.3-.2.5-.1h.3zm29.6.3-.1.3c-.2.3-.5.4-.7.3l.8-.6zm-33.2 0 .8.6a1 1 0 0 1-.7-.4l-.1-.2zm33.9.3v.1c0 .3-.1.7-.4 1h-.1l-.1.1-.1.1.4-.7-.3.4.1-.3.2-.2.1-.2.2-.3zm-34.6 0 .3.4.1.2.1.1.1.1.1.3-.3-.4.4.7-.1-.1-.1-.1h-.1c-.3-.3-.4-.7-.4-1l-.1-.2zm33.9.3-.1.4c-.2.3-.5.5-.7.4l.1-.2c.1-.3.6-.4.6-.4-.1-.1 0-.1.1-.2zM7.4 19l.2.1s.5.1.6.4l.1.2a.9.9 0 0 1-.7-.4l-.2-.3zm32.3.1s.1.1 0 0l.2.1-.3.3-.1-.3h.1l.1-.1zm-31.4 0 .1.1h.1l-.1.3-.3-.3.2-.1c-.1.1 0 0 0 0zm31.1.2.1.2V19.8l-.5-.2.4-.3zm-30.8 0 .4.3c-.2.2-.3.3-.5.2V19.5l.1-.2zm30.2.5.1.1s.4.2.5.5V20.7c-.2 0-.5-.1-.6-.5l-.1-.3.1-.1zm-29.6 0c.1.2.1.3 0 .4-.1.4-.5.5-.6.5V20.4c0-.4.4-.6.4-.6h.2zm31.3 0-.1.4c-.2.3-.5.5-.7.4l.1-.2c.1-.3.6-.4.6-.4l.1-.2zm-33 0 .2.1s.5.1.6.4l.1.2a.9.9 0 0 1-.7-.4c-.2 0-.2-.2-.2-.3zm34 0v.1l-.1.6-.2.3-.1.1-.1.1.4-.8c-.3.3-.5.7-.5.9l-.1.1-.1.1.6-1.1.1-.1.1-.3zm-35 0 .4.5.1.1c.4.4.6.8.6 1.1l-.1-.1-.1-.1-.5-.9.4.8-.1-.1-.1-.1-.2-.3-.1-.1-.1-.6c-.3-.1-.2-.1-.2-.2zm33.1.1s.1.1 0 0l.2.1-.2.3-.2-.3.2-.1c-.1.1 0 0 0 0zm-31.2 0s.1.1 0 0l.2.1-.2.3-.2-.3.2-.1c-.1.1 0 .1 0 0zm30.2.1zM9.4 20zm29.1.1v.3l.1.5.2.3a.2.2 0 0 1-.2-.2l-.2-.3-.1-.1-.1-.1h-.1c-.1 0 0 .1 0 .2l.1.2.1.1v.5l-.1.1v-.1l-.1-.1-.1-.1h-.1c-.1 0 0 .1 0 .2l.1.2.1.1v.1l-.2.2h-.1v.1l-.1.1v-.7l-.1-.3v-.1l.9-1.1zm-29 0 .7.8v.1l-.1.3v.7l-.1-.1v-.1h-.1l-.2-.2v-.1l.1-.2c0-.1.1-.1 0-.2h-.1l-.1.1-.1.1v.1l-.1-.1v-.5l.1-.1.1-.2c0-.1.1-.1 0-.2h-.1l-.1.1-.1.1-.2.3-.2.2.2-.3.1-.5c.3.1.3 0 .3-.1zm29.2.1.1.2-.1-.2zm-29.4 0-.1.2.1-.2zm29.4.2.2.2s.4.2.5.5V21.4c-.2 0-.5-.1-.6-.5l-.1-.4v-.1zm-29.3 0v.1l-.1.4c-.1.4-.5.5-.6.5V21.1c0-.3.5-.5.5-.5l.2-.2zm31 .1-.1.4-.3.3-.1-.1h-.1c-.1 0 0 .1 0 .1v.1l-.3.1.1-.2c.1-.3.6-.4.6-.4l.2-.3zm-32.8 0 .2.1s.5.1.6.4l.1.2-.3-.1v-.2h-.1L8 21l-.3-.3c-.1.1-.1 0-.1-.2zm32 .2.1.1-.2.3-.1-.3h.1l.1-.1zm-31.2 0 .1.1h.1l-.1.3-.2-.3.1-.1zm29.2.4.1.2v.2l-.1.5-.1.1-.1-.2v-.4l.2-.4c0 .1 0 .1 0 0zm-27.2 0 .1.1.2.4v.4l-.1.2-.1-.1-.1-.5v-.5zm30.7.1v.3c0 .3-.2.6-.4.7-.1 0-.1.1-.2 0V22c0-.3.1-.5.3-.6l.3-.2zm-34.2 0 .3.2c.2.1.3.3.3.6v.2h-.2c-.1-.1-.4-.4-.4-.7v-.3zm31.6 0 .2.2s.4.2.5.5V22.2c-.2 0-.5-.1-.6-.5l-.1-.2V21.2zm-29 0v.2l-.1.2c-.1.4-.4.6-.6.6V21.9c0-.3.5-.5.5-.5l.2-.2zm30.8.1-.1.4V21.4l.1-.1zm-32.6 0 .2.1V21.7c-.2-.1-.2-.3-.2-.4zm31.8.2c.1 0 .1 0 0 0l-.1.3-.1-.3h.2zm-31 0 .1.1h.1l-.1.3-.1-.4c-.1 0 0 0 0 0zm31.4 0v.2l-.1.3-.1-.2v-.1l-.1-.1.3-.1zm-31.8 0 .3.1-.1.1v.1l-.1.2-.1-.3c0-.1-.1-.1 0-.2zm30.3.1s.1.1 0 0l.1.3-.1-.2v-.1zm-28.8 0v.1l-.1.2.1-.3c0 .1 0 0 0 0zm30 .1.1.2V22.2h-.2l.1-.2v-.3zm-31.2 0 .1.2.1.2H8.3v-.2l.1-.2zm32 0c0 .1 0 .1 0 0 0 .1 0 .1 0 0 0 .1 0 .1 0 0zm-32.8 0c0 .1 0 .1 0 0 0 .1 0 .1 0 0 0 .1 0 .1 0 0zm32.4.1.1.1s.3.2.3.4v.2c-.1 0-.3-.2-.4-.5v-.2zm-32 0V22.1c0 .3-.2.5-.4.5v-.2c0-.2.3-.4.3-.4l.1-.2zm30.4.1c0 .1.1.1 0 0v.2-.2zm-28.8 0v.2-.2c0 .1 0 .1 0 0zm28.6.1-.1.3c-.1.3-.4.4-.5.4V22.4l.4-.4c.1.1.1 0 .2 0zM9.8 22l.2.1s.4.1.4.4V22.8a.6.6 0 0 1-.5-.4l-.1-.4zm27.4 0s0 .1 0 0v.1-.1zm-26.4 0c0 .1 0 .1 0 0v.1-.1c0 .1 0 0 0 0zm26 .1.2.1s.4.1.4.3v.2c-.1 0-.4-.1-.5-.3l-.1-.3zm-25.6 0-.1.3c-.1.3-.4.4-.5.3v-.2c.1-.2.4-.3.4-.3l.2-.1zm27.4 0s.5.2.5.5V22.9H39v.1l-.3-.2c0-.1.1-.1 0-.2l-.1.1-.1-.2v-.1l.1-.3zm-29.2 0 .1.2v.1l-.1.2-.1-.1h-.1c-.1 0 0 .1 0 .2l-.3.2v-.1h-.1V22.5c.1-.2.6-.4.6-.4zm32 0-.2.3c-.2.2-.5.2-.6.2l.1-.2c.1-.2.5-.2.5-.2l.2-.1zm-34.8.1h.2s.4 0 .5.2l.1.2c-.1.1-.4 0-.6-.2l-.2-.2zm33.3 0v.1-.1zm-31.8 0v.1-.1zm31.2 0c0 .1 0 .1 0 0v.1l-.1.2-.1-.2.2-.1c0 .1 0 .1 0 0zm-30.6.1s.1 0 0 0h.2l-.1.2-.1-.2zm31.9 0zm-33.2 0zm30.9 0zm-28.6 0zm30.1 0 .1.2s.3.2.3.4l-.1.2c-.1 0-.4-.2-.4-.5v-.1l.1-.2zm-.2 0v.3l-.1-.2.1-.1zm-31.4 0v.4c0 .3-.3.5-.4.5l-.1-.2c0-.3.3-.5.3-.5l.2-.2zm.2 0 .1.1-.1.2v-.3zm29.1 0s0 .1 0 0c0 .1 0 0 0 0zm-27 0c0 .1 0 .1 0 0 0 .1 0 0 0 0zm28.9.2v.3-.3c0 .1 0 0 0 0zm-30.8 0s0 .1 0 0l.1.3-.1-.3zm29.7.1-.1.4c-.1.3-.4.4-.6.4V23.1c.1-.3.4-.4.5-.4l.2-.1zm-28.6 0 .2.1s.4.1.4.4V23.4a.9.9 0 0 1-.6-.4v-.4zm27 .1.2.1s.4.1.5.3V23.4l-.6-.3-.1-.4zm-25.4 0-.1.4c-.2.3-.4.4-.6.3V23.1c.1-.3.5-.3.5-.4 0 .1.1 0 .2 0zm29.2 0 .1.1-.3.2v.1V22.8h.1l.1-.1zm-33 0h.2V23v-.1l-.2-.2c-.1.1-.1 0 0 0zm32.1 0v.1-.1zm-31.2 0v.1-.1zm32.9 0-.2.3c-.2.2-.5.3-.7.2l.1-.2c.2-.2.6-.2.6-.2l.2-.1zm-34.6.1.2.1s.4 0 .6.2l.1.2c-.1.1-.4 0-.7-.2l-.2-.3zm30.9 0h.1l-.2.3v.1-.1l-.1-.2.2-.1c-.1 0-.1 0 0 0zm-27.2 0c.1 0 .1 0 0 0l.2.1-.1.2v.1-.1l-.2-.3h.1zm28.2.1c.1.1.4.2.4.4V23.6l-.2-.1.1-.1c0-.1.1-.1 0-.2h-.1l-.1.1-.1.1-.1-.1v-.2l.1-.2zm-29.2 0 .1.3v.2l-.1.1-.1-.1-.1-.1h-.1v.2l.1.1-.2.1V23.4c.1-.3.3-.5.4-.5zm30.1 0 .2.2s.3.2.3.5l-.1.3c-.1 0-.4-.2-.4-.6v-.4zm-31 0 .1.3v.1c-.1.4-.3.6-.4.6l-.1-.2c0-.3.3-.5.3-.5-.1-.1 0-.2.1-.3zm30.7.1c0 .1 0 0 0 0zM8.8 23c0 .1 0 .1 0 0zM39 23c0 .1 0 .1 0 0zM9 23c0 .1 0 .1 0 0zm27.7.1.2.2-.2-.2zm-25.4 0-.2.2.2-.2zm28 0v.2l.1.2-.1-.2v-.2c0 .1 0 .1 0 0zm-30.6 0c0 .1 0 .1 0 0v.3l-.1.2.1-.2v-.3zm29.7.1-.1.4c-.2.3-.5.5-.6.5V23.8c.1-.3.5-.5.5-.5l.2-.1zm-28.8 0 .2.1.5.4V24c-.1 0-.4-.1-.6-.5l-.1-.3zm30.6.1.1.1-.2.2-.1-.3h.2zm-32.4 0 .1.1H8l-.1.3-.2-.2.1-.2zm28.9 0 .2.1s.4.1.5.4V24.1a.9.9 0 0 1-.6-.4l-.1-.4zm-25.4 0-.1.4c-.2.3-.5.4-.6.4V23.8c.1-.3.5-.4.5-.4l.2-.1zm29.8.1-.2.4c-.3.2-.6.2-.8.2l.1-.2c.2-.3.6-.3.6-.3l.3-.1zm-34.2 0 .2.1s.5 0 .6.3l.1.2c-.1.1-.5 0-.7-.2l-.2-.4zm30.6 0 .1.1-.2.2-.2-.2h.1l.2-.1zm-27 0 .1.1h.1l-.2.2-.2-.2.2-.1zm30.7.1v.2l-.2.2-.4.1.3-.2.3-.3zm-34.4 0 .2.3.4.2-.3-.1-.2-.2-.1-.2zm31.7 0-.1.2-.2.2.2-.3.1-.1zm-29 0 .1.2.2.3a.2.2 0 0 1-.2-.2l-.1-.3c0 .1 0 0 0 0zm29.7.1.2.2s.4.2.4.5v.2h-.2c-.2-.1-.3-.3-.4-.6v-.1c-.1 0 0-.1 0-.2zm-30.4 0 .1.3v.1c0 .3-.2.5-.4.6h-.2v-.2c0-.3.4-.5.4-.5-.1-.1.1-.2.1-.3zm29.8.1v.3-.3zm-29.2 0 .1.3-.1-.3zm31.9 0 .1.5v.3l-.1.6c-.1.5-.1.9-.8 1.2-.9.4-2.7.3-2.8.3-.1 0-1.6-.1-2.1.6a1 1 0 0 0-.3.7v-.2l.2-.5.8-1.5s.2-.7 1.7-.7c1.6 0 2.6-.3 2.7-.3-.2-.1.5-.2.6-1zm-2.5 0h.2l-.3 1h-.2l.3-1zm-32.1 0c.1.8.8.9.8.9s1.1.3 2.7.3c1.5 0 1.7.7 1.7.7l.8 1.5.2.6v.2l-.3-.8c-.5-.6-2.1-.6-2.1-.6s-1.9.1-2.8-.3c-.7-.3-.7-.7-.8-1.2l-.1-.6v-.3c-.2-.1-.2-.2-.1-.4zm2.5 0 .3 1h-.2l-.3-1c.1.1.2 0 .2 0zm29.2.3-.1.5-.2.3h-.5v-.1c.1-.3.5-.5.5-.5l.3-.2zM9.6 24l.2.2s.5.2.5.5v.1h-.5l-.2-.3V24zm30.2 0h.2l.1.1h.1l-.3.2-.1-.3zM8.2 24l-.1.3-.3-.2h.1L8 24h.1c.1.1.1 0 .1 0zm28.5.1.2.1s.5.1.5.4v.2l-.4.1-.3-.3v-.5zm-25.4 0-.1.4-.3.3-.4-.1v-.2c.1-.3.5-.4.5-.4h.3zm29.6 0-.1.2-.3.1-.6.1.1-.1c.2-.3.7-.3.7-.3-.1.1.1.1.2 0zm-1.9 0 .1.2-.1.4h-.1l.1-.6zm-31.9 0 .3.1s.5 0 .7.3l.1.1-.6-.1-.3-.1-.2-.3zm1.9 0 .2.6h-.1l-.1-.3v-.3zm28.6.1h.2l-.2.3-.2-.3c0 .1 0 .1.2 0-.1 0 0 0 0 0zm-27.2 0s.1 0 0 0l.2.1-.2.3-.2-.3.2-.1zm25.8.1.6.6-.2.1-.1-.2.1.3-.1.1-.1-.3v-.1l-.2-.5zm-24.4 0-.1.4v.1l-.1.3-.1-.1.1-.3-.1.3-.2-.1c.1-.3.4-.5.5-.6zm27.4.2.1.1h-.2l.1-.1zm-30.4 0v.1h-.2l.2-.1zm29.6.1v.1h-.1l.1-.1zm-28.8 0 .1.1h-.1v-.1zm27.2.1.1.1h-.1v-.1zm-25.6 0-.1.2H11l.2-.2zm30.2 1.7-.3.4H41c-.4.5-.9.7-1.1.7l.3-.3.7-.6-.6.4.1-.1c.2-.4.7-.5 1-.5zm-34.8 0c.3 0 .8.1 1 .6l.1.1-.6-.4.7.6.3.3c-.3-.1-.7-.2-1.1-.7v-.2l-.4-.3zm33.8.1-.2.1-.3.1c-.2 0-.4.2-.6.5v.1l-.1-.3s-.1-.1 0-.2v-.1l1.2-.2zm-32.8 0 1.2.2v.1c.1.1 0 .2 0 .2l-.1.3v-.1c-.2-.3-.4-.5-.6-.5l-.3-.1-.2-.1zm31.4.2-.1.1-.2.4v.1-.2l.1-.3v-.1h.2zm-30 0h.2v.1l.1.3v.2-.1l-.2-.4-.1-.1zm31.2 0-.1.2c-.1.3-.4.4-.5.5h-.2v-.1c.1-.2.3-.4.5-.4l.3-.2zm-32.4 0 .3.1c.2 0 .4.2.5.4v.1h-.2c-.1 0-.4-.2-.5-.5l-.1-.1zm30.8 0s0 .1 0 0V27l-.1.2-.1.2V27.1l.1-.3.1-.1zm-1 .1h.4l-.1.1-.1.1c-.1.1-.3.2-.3.4h-.1l-.2.2-.1.1.5-.9zm-28.2 0h.3l.1.3V27.4l-.1-.2-.1-.2-.2-.2zm1 0s.1 0 0 0l.5.8-.1-.1-.2-.2h-.1l-.3-.4-.1-.1-.1-.1.4.1zm26.9 0-.5.8h-.2l.3-.6v-.2h.4zm1 0c0 .3-.1.7-.5.9l-.6.6c0-.3.1-.8.7-1.2l.1-.1.2-.1.1-.1zm-27.6 0h.3v.2c0 .3.2.5.3.6h-.2l-.4-.8zm-1 0h.2l.2.1.1.1c.5.4.6 1 .7 1.2-.1-.2-.2-.4-.6-.6-.5-.1-.6-.5-.6-.8zm27.2 0v.1c0 .3-.3.5-.4.6-.1 0-.1.1-.2 0v-.2c0-.3.2-.4.4-.5h.2zm-25.8 0H11.4l.4.5v.2h-.2c-.1-.1-.4-.3-.4-.6l-.1-.1zm25.3.1-.2.5v.1l-.2-.2-.1-.2.5-.2zm-24.8 0 .5.2-.1.2-.2.2v-.1l-.2-.5zM39 27l.1.2.1.4v.1l-.1.2-.2-.4v-.2l.1-.3zM9 27l.1.3v.2l-.2.4-.1-.2v-.2l.1-.4.1-.1zm28.9.1c-.4.3-.6.8-.6.8l.6-.8zm-27.8 0 .6.8s-.2-.5-.6-.8zm25.7.1.1.1s.3.2.3.4l-.1.2c-.1 0-.3-.2-.3-.5v-.1c-.1.1 0 0 0-.1zm-23.6 0 .1.3v.1c0 .3-.2.5-.3.5l-.1-.2c0-.2.3-.4.3-.4v-.3zm23.4.1v.5l-.1-.2.1-.3c0 .1 0 0 0 0zm-23.2 0s0 .1 0 0l.1.2-.1.2v-.4zm26.2 0 .1.2.1.4v.2l-.1.2-.2-.4v-.2l.1-.4zm-29.2 0 .2.3v.2l-.2.4-.1-.2v-.2l.1-.4v-.1zm28.8 0v.1l-.1.2-.2.4v.3-.3l.1-.3v-.1l.2-.3zm-28.4 0 .3.3v.1l.1.3v.3-.3l-.2-.4-.1-.2-.1-.1zm31.4.1-.3.4-.1.1-.4.4H40.1l.6-.5-.4.3V28h-.1c.4-.5.8-.6 1-.6zm-34.4 0c.3 0 .7.1 1 .5h-.1l-.4-.3.6.5H7.6l-.4-.4-.1-.1c-.1.1-.2-.1-.3-.2zm32.5.1c.1 0 .1.1 0 0 .1.1 0 .1 0 .1v-.1zm-30.6 0v.1s-.1 0 0-.1c-.1.1-.1 0 0 0zm31.6.2-.2.3h-.2l.3-.2.1-.1zm-3.2 0-.2.2c-.2.2-.5.2-.6.1l.1-.2c.1-.2.5-.2.5-.2l.2.1zm2.5 0 .3.1h.2l-.2.2h-.6l.1-.1c0-.2.1-.2.2-.2zm-31.2 0 .2.1.2.2c-.1.1-.3.2-.6 0l-.2-.2h.2c-.1-.1.1-.1.2-.1zm-.7 0 .2.1.2.2h-.2l-.2-.3zm3.2 0h.2s.4 0 .5.2l.1.2c-.1.1-.4.1-.6-.1l-.2-.3zm26.3 0-.1.2-.1.1-.2.1.2-.1.2-.3zm-26.4 0 .2.3.2.1-.2-.1-.2-.1v-.2zm24.7 0 .1.2s.3.2.3.4l-.1.2c-.1 0-.3-.2-.4-.5v-.1l.1-.2zm-23 0 .1.3v.1c0 .3-.2.5-.4.5l-.1-.2c0-.2.3-.4.3-.4l.1-.3zm23.8 0zm-24.6 0c0 .1 0 0 0 0zm26 .1v.2l-.1.3-.2.2v-.1l.3-.6c-.1 0 0 0 0 0zm-27.4 0 .1.1.2.4v.1l-.2-.2-.1-.3v-.1zm27.9 0 .1.2.1.4v.2l-.1.2c-.1 0-.2-.2-.2-.5v-.2c-.1-.1 0-.2.1-.3zm-28.4 0 .2.4v.2l-.2.5-.1-.2v-.2l.1-.4v-.3zm29.1.1c.1.1.1.1.2 0l-.3.1v-.1c.1.1.1.1.1 0zm-29.8 0v.2l-.2-.1.2-.1zm31.3.1-.2.1.1-.1h.1c-.1.1-.1.1 0 0zm-.5 0c-.1.1-.1.1 0 0l-.2.1.2-.1c-.1.1-.1 0 0 0zM7.6 28c.1.1.1.1 0 0l.2.1.1.1-.3-.2zm.5 0c.1.1.1.1 0 0l.2.1-.2-.1c.1.1.1.1 0 0zm28.1.1s0 .1 0 0l.1.1-.3.2v.1V28.2h.1l.1-.1zm-24.4 0h.2V28.4l-.1-.1-.3-.2c.1.1.2.1.2 0 0 .1 0 .1 0 0zm27.4 0 .3.1h.2l-.3.2h-.6l.2-.2.2-.1zm-30.4 0 .3.1.2.2c-.1.1-.4.2-.6 0l-.3-.2h.2l.2-.1zm26.5.1.1.2-.1-.2zm-22.6 0-.1.2.1-.2zm27.3 0-.3.3.2-.2.1-.1zm-32 0 .1.1.2.2-.3-.3zm29.1 0v.2H37l-.1.1.2-.3zm-26.2 0 .2.3-.1-.1h-.1v-.2zm26 0-.2.3c-.3.2-.6.2-.7.2l.1-.2c.2-.2.6-.2.6-.2l.2-.1zm-25.8.1h.2s.4 0 .6.2l.1.2c-.1.1-.4.1-.7-.2l-.2-.2zm26.6 0 .1.2.1.5v.2l-.2.2c-.1-.1-.2-.2-.2-.5v-.2l.2-.4zm-27.4 0 .2.4v.2c0 .3-.1.4-.2.5l-.2-.2V29l.1-.5.1-.2zm24.9 0 .2.2s.3.2.3.5v.1l-.1.2c-.1 0-.4-.2-.4-.6v-.4zm-22.4 0 .1.3v.1c0 .3-.3.6-.4.6l-.1-.2V29c0-.3.3-.5.3-.5l.1-.2zm25.7 0h.2v.1l-.2.1v-.2zm-29 0v.3l-.2-.1v-.1l.2-.1zm30.8.1.6.3h-.2a5 5 0 0 0-1.5.9h-.4l.3-.2.2-.2.3-.1.1-.1v-.1h-.4v-.1l.2-.2.1-.1.1-.1.2-.1.1-.1h.1l.2.2zm-32.6 0H8l.1.1H8.4l.1.1.1.1c0 .2.1.3.2.3v.1h-.4v.1l.1.1H8.8l.2.2.3.2h-.4a5 5 0 0 0-1.5-.9h-.2c.1-.3.3-.4.5-.4zm31.8.2h-.1.1zm-31 0h.1-.1zm28.6 0-.3.5-.3.2-.3.1.3-.2c.2-.1.2-.3.3-.4l.3-.2zm-26.2 0 .2.3.3.4.3.2-.3-.1-.3-.2-.2-.6zm27.9 0 .3.1h.2l-.3.2h-.7l.2-.2.3-.1zm-29.6.1.3.1.2.2c-.1.1-.4.2-.7 0l-.3-.2h.2l.3-.1zm26.7 0 .1.1-.2.2-.1-.3h.2zm-23.8 0s.1.1.1 0h.1l-.1.3-.2-.2.1-.1zm28.7.1s.1 0 0 0l.2.1.1.1v.2c0 .6-.9 1.8-1.4 2.4.3-.6.9-1.8.9-2.3v-.2l-.1-.1c.1-.2.2-.2.3-.2zm-33.6 0 .3.1-.1.1v.2c0 .5.6 1.7.9 2.3-.5-.6-1.4-1.8-1.4-2.4v-.2l.1-.1h.2zm29.5 0-.2.3c-.3.2-.6.2-.7.2l.1-.2c.2-.2.6-.2.6-.2l.2-.1zm-25.4 0h.2s.5 0 .6.2l.1.2c-.1.1-.5.1-.7-.2-.1.1-.2 0-.2-.2zm26.7.1s.1 0 0 0l.2.1v.1l.1.1-.3.1v-.4zm-28 0v.3l-.3-.1.1-.1v-.1c0 .1.1.1.2 0-.1 0 0 0 0 0zm27.2 0 .1.2.1.5v.2l-.2.2c-.1-.1-.2-.2-.2-.5V29.2l.1-.1.1-.2zm-26.4 0 .1.1.1.1V29.4c0 .3-.1.4-.2.5l-.2-.2v-.2l.1-.5.1-.1zm24 0 .2.2s.3.2.3.5v.1l-.1.3c-.2 0-.4-.3-.4-.6v-.1c-.1-.2 0-.3 0-.4zm-21.6 0 .1.4v.1c0 .4-.3.6-.4.6l-.1-.3v-.1c0-.3.3-.5.3-.5l.1-.2zm27.1 0c.1 0 .1.1 0 0 .2.2.1.5-.1.9-.2 0-.7 0-1 .4l.2-.3s.1-.1 0-.1h-.1l-.3.2-.3.1h-.1l1.7-1.2zm-32.6 0c.1 0 .5.2 1.5 1.2h-.1l-.3-.1-.3-.2h-.1v.1l.2.3c-.3-.3-.8-.4-1-.4 0-.4-.1-.7.1-.9-.1.1-.1 0 0 0zm31.3.2c-.1.1-.2.1-.2 0 0 .1.1.1.2 0zm-30 0h.2c0 .1-.1.1-.2 0zm29.3.1.3.1h.2l-.1.2-.1.1c-.3.2-.7.1-.7 0l.2-.2.2-.2zm-28.6 0 .3.1.2.2c-.1.1-.4.2-.7 0l-.1-.1-.1-.2h.2c-.2.1 0 0 .2 0zm24.1.1s0 .1 0 0l.1.7v.2l.1.6-.1.7-.3-.1.1-.8v-.2.3l-.1.8-.1-.2-.1-.6c-.1-.7.2-1.1.4-1.4zm-19.6 0c.2.3.6.7.6 1.3l-.1.6-.1.2-.1-.8v-.3.2l.1.8-.3.1c-.3-.1-.3-.4-.3-.6l.1-.6V30l.1-.7c0 .1 0 0 0 0zm-3 .1.2.4h-.1l.1.1.2.1h.1l.2.5h-.2l-.4-.5-.1-.6zm25.6 0 .1.5-.4.5h-.2l.2-.5h.1l.2-.1.1-.1h-.1v-.3zm-1.4 0h.2l.1.1h.1l-.3.2-.1-.3zm-22.8 0-.1.3-.3-.2h.1l.1-.1h.2zm22 .1.1.2-.1-.2zm-21.2 0-.1.2.1-.2zm24.1 0c.1 0 .1 0 0 0h.1v.1l-.3.1c.2 0 .3-.1.2-.2zm-27 0v.3l-.3-.1v-.1l.3-.1c-.1 0-.1 0 0 0zm26 0-.3.4c-.3.2-.7.3-.8.2l.1-.2c.2-.3.7-.2.7-.2l.3-.2zm-25 0h.3s.5 0 .7.2l.1.2c-.1.1-.5.1-.8-.2-.1.1-.2 0-.3-.2zm23 .1.2.2s.3.2.3.5v.1l-.1.3c-.2 0-.4-.3-.4-.6V30c-.1-.1 0-.3 0-.4zm-21 0 .1.4v.1c0 .4-.3.6-.4.6l-.1-.3v-.1c0-.3.3-.5.3-.5l.1-.2zm25.5.1-.7.7.2-.3.1-.1.2-.2.2-.1zm-30 0h.2l.2.2.1.1.2.3-.7-.6zm29.5 0s0 .1 0 0h-.1c.1.1.1.1.1 0zm-29 .1zm27 0c-.1.1-.1.1 0 0-.1 0 0 0 0 0zm-25 0s.1.1 0 0zm26.4 0h.2v.2l-.1.1h-.1v-.2h-.1l-.1.1v.1l-.4-.1.2-.2h.4zm-27.8 0 .3.1.2.2-.4.1v-.1l-.1-.1H10v.2h-.1l-.1-.1v-.2l.3-.1zm28.1.1h.2v.1l-.2.1v-.2zm-28.4 0v.2l-.2-.1v-.1h.2zm27.2 0 .2.2-.2.3h-.1l-.3.3-.2.1.6-.9zm-26 0 .6.8-.2-.1-.3-.3s-.1-.1-.1 0l-.2-.3c.1.1.2 0 .2-.1zm29.2.1-.3.4-.1.1c-.1.1-.2.3-.4.3h-.1l-.2.1h-.2l.7-.6-.6.4.1-.1c.3-.5.8-.6 1.1-.6zM7.8 30c.3 0 .8.1 1 .6l.1.1-.6-.4.7.6h-.2l-.2-.1h-.1l-.4-.3-.1-.1c.1-.2 0-.3-.2-.4zm27.3.1h.2l.1.1h.1l-.3.2-.1-.3zm-22.2 0-.1.3-.3-.2h.1l.1-.1h.2zm21.4 0 .1.2-.1-.2zm-20.6 0-.1.2.1-.2zm25.4.1-.1.2-.5.4h-.1v-.1l.4-.4.3-.1zm-30.2 0 .2.1c.2 0 .3.2.4.4v.1h-.1l-.5-.4v-.2zm28.4 0-.7 1.2-.1.1-.2.2h-.2c.2-.1.4-.3.5-.6l.7-.9zm-26.6 0 .6.8c.1.3.3.5.5.6h-.2l-.2-.2-.1-.1-.6-1.1zm25.5 0-.3.4-.4.2v-.2h-.1c-.1 0-.1.1 0 .1v.1h-.2l.1-.2c.2-.3.7-.2.7-.2l.2-.2zm-24.4 0h.3s.5 0 .7.2l.1.2h-.2v-.2h-.1v.2l-.4-.2c-.3.1-.3-.1-.4-.2zm26.4.1zm-28.4 0zm24.4 0 .2.2s.3.2.3.5l-.4.2-.2-.3v-.5l.1-.1zm3.2 0 .3.1-.1.2-.1.2V30.5h-.1l-.1.1v.2l-.1.2-.2.4v.1-.1l.1-.3v-.2l.3-.6zm-23.6 0 .1.2v.5l-.2.3-.4-.2c0-.3.3-.5.3-.5l.2-.3zm-3.2 0 .4.5v.2l.1.3v.1-.1l-.2-.4-.1-.2v-.2l-.1-.1h-.1V30.7l-.1-.2-.1-.2c0 .1.1.1.2 0zm27.3.1zm-27.8 0zm28 0 .1.1.1.3v.1l-.1.2-.1-.3v-.2c-.1-.1-.1-.2 0-.2zm-28.2 0 .1.2v.2l-.1.3-.1-.1v-.1l.1-.3v-.2zm28.4.2zm-28.6 0zm26.6 0-.2.2-.1.1.1-.2.2-.1zm-24.6 0 .2.1.1.2-.1-.1-.2-.2zm23.8.1zm2.2 0 .1.1.1.3v.1l-.1.2-.2-.4v-.2l.1-.1zm-27.4 0 .1.3v.2l-.2.4-.1-.2v-.1l.1-.3.1-.3zm28.5.1-.1.1.1-.1zm-29.6 0 .1.1-.1-.1zm26.8 0c-.2.3-.5.8-1.3.8h-.2l.8-.5c-.5.1-.9.4-1.1.5l-.2-.1 1.1-.6h.2l.7-.1zm-24 0 .6.2h.2c.5.1.9.3 1.1.6l-.2.1c-.2-.1-.6-.4-1.1-.5l.8.5h-.2c-.7-.1-1-.6-1.2-.9zm23 0s0 .1 0 0l.1.1H35l-.1-.2h.1c-.1.1-.1.1 0 .1zm-22 0h.2l-.1.2H13v-.2l-.1.1.1-.1c0 .1 0 0 0 0zm23.5 0-.1.2c-.1.3-.3.5-.5.5h-.2v-.2l.4-.5c.3.1.4.1.4 0zm-25 0 .3.1c.2.1.3.2.4.5v.2H12l-.5-.5v-.3zm26.8.1c.1 0 .1 0 0 0 .1 0 .1 0 0 0zm-28.6 0c-.1 0-.1 0 0 0-.1 0-.1 0 0 0zm28.9.1H38.9l-.2.1h-.5l.1-.1h.3zM9.4 31l.2.1.1.1h-.5l-.2-.1h.1l.3-.1zm27.5 0v.1l-.1.2-.1.2v-.1l.2-.4zm-25.8 0 .3.4v.1l-.1-.2-.1-.2-.1-.1zm26.2.1.1.2.1.4v.2l-.1.2-.2-.4v-.2l.1-.4zm-26.6 0 .2.3v.2l-.2.4-.1-.2v-.2l.1-.4c-.1.1 0 0 0-.1zm23.4.1.1.1-.1.1v-.2zm-20.2 0v.2l-.1-.1.1-.1zm24.1 0h.1-.1c0 .1 0 0 0 0zm-28 0s0 .1 0 0h-.1.1zm28 .1h.1-.1zm-28 0c.1.1.1.1 0 0h-.1.1zm22.8 0c.3 0 .8.1 1.3.5a14 14 0 0 0 2.5 1.3s.9.3 1.4 0l.2-.2c-.1.2-.2.5-.5.7l-.4.4c-.4.4-.7.8-1.4.6-1-.2-3-1.5-3-1.6-.1 0-1.4-1.1-2.1-.6l-.6.6c0-.3.1-.7.6-.9l1.3-.7c.1.1.3 0 .7-.1zm-17.6.1c.4 0 .6.2.6.2l1.3.7c.5.2.6.6.6.9l-.6-.6c-.7-.5-2 .6-2.1.6 0 0-2 1.3-3 1.5-.7.2-1-.2-1.4-.6l-.4-.4c-.3-.2-.4-.5-.5-.7l.2.2c.5.3 1.4 0 1.4-.1 0 0 1.1-.4 2.5-1.3.6-.3 1.1-.4 1.4-.4zm23.1 0 .3.1h.2l-.2.2H38l.1-.1c0-.2.1-.2.2-.2zm-28.6 0 .2.1.2.1c-.1.1-.3.2-.6 0a.2.2 0 0 1-.2-.2h.2c0 .1.1 0 .2 0zm1.3.1zm24.5 0 .1.3v.1l-.1.2-.2-.4.2-.2zm-23 0 .3.1-.2.4-.1-.2v-.1c-.1-.1-.1-.2 0-.2zm24.4 0 .1.2.1.4v.2l-.1.2-.2-.4v-.2c-.1-.2 0-.3.1-.4zm-25.8 0 .2.3v.2l-.2.4-.1-.2V32l.1-.4v-.1zm-.7.1v.2l-.2-.1v-.1h.2zm27.2 0h.1v.1l-.2.1.1-.2zm-1.8.1c.1.1 0 .1 0 .1v-.1zm-23.6 0v.1-.1zm22.8 0c.1 0 .1.1 0 0 .1.1.3.3.3.5v.1l-.4-.2v-.4h.1zm-22 0h.1v.4l-.4.2v-.1c0-.2.2-.4.3-.5-.1 0-.1 0 0 0zm21.8 0V32l-.3-.2v-.1h.3zm-21.6 0h.3v.1l-.3.2V31.7zm23 .1H36.5l-.1.1-.1.1h-.5l.1-.2h.3zm-24.4 0 .3.1.1.2h-.5l-.1-.1-.1-.1h.1l.2-.1zm26.1.1.3.1h.2l-.3.2h-.6l.2-.2.2-.1zm-27.8 0 .3.1.2.2c-.1.1-.4.2-.6 0l-.4-.2h.2l.3-.1zm26.3.2.1.2.1.4V33l-.3-.1v-.4l.1-.4zm-24.8 0 .2.3v.4l-.3.1V32.6l.1-.4v-.1zm25.6 0c.1 0 .1.1.1 0v.1l-.2.1.1-.2zm-26.4 0v.2l-.2-.1v-.1h.2zm24.6 0s.1 0 0 0h.2l-.1.1v-.1c-.1.1-.1.1-.1 0 0 .1 0 0 0 0zm-22.8 0s0 .1 0 0V32.4h-.1l-.1-.1c0-.2.1-.1.2-.2-.1 0 0 0 0 0zm16.3 0c0 .5-.1 1.2-.8 1.6l-.2.1h-.1l.7-1c-.5.4-.8.9-.9 1.1l-.4.5c.1-.4.3-1.2 1.1-1.8l.1-.1.5-.4zm-9.8 0 .6.5.1.1c.8.6 1.1 1.4 1.1 1.8l-.4-.5c-.1-.2-.4-.8-.9-1.1l.7 1h-.1l-.2-.1c-.8-.4-.9-1.2-.9-1.7zm19.7.1h.2l-.4.3-.1.1V32.3h.1l.1-.1h.1zm-29.6 0h.1l.1.1h.1V32.6l-.1-.1-.4-.3h.2zm26.7.1h.2v.2l-.1.1-.4-.2.3-.1zm-23.8 0 .4.1-.4.2-.1-.1v-.2h.1zm26.3 0v.2l-.1.3-.6.2.2-.1.2-.1.1-.1v-.1H37.9l.2-.2.3-.1zm-28.8 0 .3.2.2.2H9.8v.1l.1.1H10.2l.2.1-.5-.2-.1-.3-.2-.2zm27.9 0 .3.1h.2l-.3.2H37l.2-.2.3-.1zm-27 .1.3.1.2.2c-.1.1-.4.2-.7 0l-.3-.2h.2l.3-.1zm26.2.2s.1 0 0 0l.1.1v.1l-.2.1.1-.3zm-25.4 0v.3l-.2-.1v-.1l.2-.1c-.1 0 0 0 0 0zm20 0 .4.1-.1.1-.3.3-.1.1-.1-.2v-.1l.2-.2v-.1zm-14.6 0v.1l.2.2v.1l-.1.2-.1-.1-.3-.3-.1-.1.4-.1zm14.3.1s-.1 0 0 0l-.3.4-.1.1v-.1l.1-.2.3-.2zm-14 0 .3.2.1.2v.1l-.1-.1-.3-.4c.1 0 .1 0 0 0zm15 .1.2.1-.1.1c-.1.3-.4.5-.6.5h-.2l.1-.2c.1-.3.3-.5.6-.5zm-16 0c.3.1.5.2.6.5l.1.2h-.2c-.1 0-.5-.2-.6-.5l-.1-.1.2-.1zm14 0a2.6 2.6 0 0 1-1.6 1.8s-.6.2-.9.6c-.6.9-1.2 1.4-1.4 1.6H26l.3-.4.2-.3.6-.9c.1-.1.5-.6 1-.8.8-.3.9-.6.9-.6l-1.1.5c-.6.2-1 .7-1.1 1v-.1l.1-.3c.2-.4.5-.7.9-.9h.1l.7-.2h.1c.8-.4 1.1-.8 1.3-1zm-12 0c.2.3.6.7 1.1.8h.1l.7.2h.1c.6.2.8.7.9.9l.1.3v.1c-.2-.3-.6-.8-1.1-1l-1.1-.5s.1.3.9.6c.6.2 1 .8 1 .8l.6.9.2.3.3.4h-.1c-.1-.1-.7-.6-1.4-1.6-.3-.4-.9-.6-.9-.6.1.1-1.2-.3-1.4-1.6zm19 .1.3.1h.2l-.2.1-.7-.1.4-.1zm-26 0 .3.1-.7.1-.2-.1h.2l.4-.1zm20 0 .1.2.1.4v.2l-.1.2-.2-.4v-.2c-.1-.2 0-.3.1-.4zm1.3 0 .3.2-.6.6h-.1l-.2-.1.6-.5v-.2zm-15.3 0 .2.3v.2l-.2.4-.1-.2v-.2l.1-.4v-.1zm-1.3 0v.1c.1.3.4.5.6.5l-.2.1H16l-.6-.6.3-.1zm17 .2.2.1.1.1-.1.1-.1.1H32.5l.2-.4zm-17.4 0 .4.4H15.4l-.1-.1-.3-.1.1-.1.2-.1zm15.2.1.1.2.1.4v.2l-.1.2-.2-.4v-.2c-.1-.2 0-.3.1-.4zm-13 .1.2.3v.2l-.2.4-.1-.2v-.2l.1-.4v-.1zm13.1.1zm-6 0 .8.3h.1s.9-.1 1.3.4l.2.6-.1.6c-.2.5-.8 1.2-.9 1.4h-.1c.3-.3.7-.9.7-1.3v-.1c0-.2-.2-.3-.4-.4-.3-.1-.6-.1-.8 0-.1-.1-.6-.5-1.3-.2-.7-.3-1.1.1-1.2.2-.2-.1-.5-.1-.8 0-.2.1-.4.2-.4.4v.1c0 .5.5 1.1.7 1.3h-.1c-.1-.1-.8-.9-1-1.4l-.1-.6.2-.6c.4-.5 1.3-.4 1.3-.4h.1c.5-.6 1.3-.2 1.3-.2l.5-.1zm8.5 0-.1.2.1-.2zm-18.2 0 .1.2-.1-.2zm18.4.1-.1.2-.1.1.1-.1.1-.2zm-2 0c0 .1 0 .1 0 0 0 .1 0 0 0 0zm-14.6 0s0 .1 0 0c0 .1 0 .1 0 0zm-2 0 .1.1.1.1-.1-.1-.1-.1zm18.7.1c.1.1.1.1 0 0l.1.3-.1.3-.2.1-.1-.2.1-.3.2-.2zm-18.8 0 .1.1.1.3-.1.2-.2-.1-.1-.3.2-.2c-.1.1-.1.1 0 0zm18 0v.1l-.2.2-.1.1h-.1V33.7h.1l.3-.1zm-17.2 0 .2.1h.1V34h-.1l-.1-.1-.2-.2.1-.1zm16.1.1.4.1h.2l-.3.2c-.3.1-.6 0-.6-.1l.2-.2h.1zm-15 0 .2.1.2.2c-.1.1-.3.2-.5.1l-.2-.2c0-.2.1-.2.3-.2zm16.5 0c0 .1 0 .1 0 0v.4l-.1.3-.2.1-.1-.2.1-.4.3-.2zm-18 0 .2.2.1.4-.1.2-.2-.1v-.7c0 .1 0 .1 0 0zm15 0 .1.2.1.4-.1.2-.2.2c-.1-.1-.2-.2-.2-.5v-.3c.1.1.2-.1.3-.2zm-12 0 .2.4v.3l-.2.5-.2-.2-.1-.2.1-.4.2-.4zm15.6.1c.1 0 .1 0 0 0v.1-.1zm-19.2 0v.1c-.1 0-.1 0 0-.1-.1 0-.1 0 0 0zm16.4 0c0 .1 0 .1 0 0l.2.1.1.1-.3.1V33.8zm-13.6 0 .1.3v.1h-.1l-.3-.2.1-.1.2-.1c0 .1 0 .1 0 0zm16.6.1.3.2-.3.1-.1-.1.1-.2zm-19.6 0 .1.2-.1.1-.3-.1.3-.2zm17.9 0-.1.1-.3.1h-.1l.5-.2zm-16.2 0 .3.2h-.1L16 34l-.1-.1zm16.5.1c0 .1 0 .1 0 0v.4l-.1.3-.2.2-.1-.3.1-.4c.2 0 .3-.1.3-.2zm-16.8 0 .3.3.1.4-.1.3-.2-.1-.1-.4V34c0 .1 0 .1 0 0zm18.7.1 1.6.7h.2l-.5.1-.2.1-.1-.2H35l-.1.1-.1-.1h-.3l-.1.2-.1-.1h-.6l.2-.1.2-.1h.2l.1-.1v-.1h-.7.2l.4-.1.2-.1H34.8h-.5l-.2-.1-.1-.1c.1.2.2.1.3 0zm-20.6.1.4.1-.1.1-.2.1h-.5c0 .1.1.1.1 0h.2l.2.1.4.1h.2-.7v.1l.1.1h.2l.2.1.2.1H13.8l-.1.1-.1-.2h-.3l-.1.1-.1-.1h-.3l-.1.2-.2-.1-.5-.1h.2l1.5-.8zm19.9 0zm-19.2 0zm16.7 0 .4.1v.1l-.1.1c-.3.1-.6 0-.7-.1l.2-.2h.2zm-14.1 0 .2.1.2.2-.4.1-.4-.3.4-.1c-.1 0-.1 0 0 0zm12.3 0-.1.2v-.1l.1-.1zm-10.6 0 .1.1v.1l-.1-.2zm10.8 0 .1.3.1.5-.1.2-.2.2a.8.8 0 0 1-.2-.5v-.3l.3-.4zm-11 0 .2.4v.3c0 .3-.1.4-.2.5l-.2-.2-.1-.2.1-.5c.2-.1.2-.2.2-.3zm-2.1.1zm17.2 0 .4.2.1.1-.3.1c-.3 0-.5-.1-.5-.2l.3-.2zm-19.3 0c.1 0 .1 0 0 0l.3.1c0 .1-.2.2-.5.2l-.3-.1.1-.1c.1.1.3-.1.4-.1zm16 0s.1 0 0 0c.1.1.1.1.2 0v.1l-.3.1.1-.2zm-12.6 0v.3l-.3-.1v-.1l.3-.1c-.1 0 0 0 0 0zm14.2 0v.4l-.1.4-.2.2-.1-.3.1-.4.3-.3zm-15.8 0 .3.3.1.4-.1.3a.2.2 0 0 1-.2-.2l-.1-.4v-.4zm17 0c0 .1 0 .1 0 0l.1.1v.1h-.3c.2 0 .2-.1.2-.2zm-18.2 0 .1.2h-.3v-.1l.2-.1c0 .1 0 .1 0 0zm14.1.1-.2.3-.2.2-2.2 1.6 1.1-1.3c.3-.4.9-.5.9-.5l.6-.3zm-10 0 .5.2s.6.2.9.5l1.1 1.3-2.2-1.6-.2-.2-.1-.2zm15.7 0zm-21.4 0zm19.3.2.1.1v.1h-.2l.1-.2zm-17.2 0 .1.2h-.2v-.1l.1-.1zm17.7.1.4.2.2.1-.3.1-.6-.2c.1-.2.2-.2.3-.2zm-18.2 0 .3.1c0 .1-.3.3-.6.2l-.3-.1.2-.1c-.1 0 .2-.2.4-.1zm15.7 0 .4.1-.1.2-.1.2c-.3.1-.6 0-.6-.1l.2-.2c0-.2.1-.2.2-.2zm-13.2 0 .3.1.2.2-.3.1-.5-.4h.3zm13.9 0v.4l-.1.4-.2.2-.1-.3.1-.4.3-.3zm-14.6 0 .3.3.1.4-.1.3a.2.2 0 0 1-.2-.2l-.1-.4V34.8c.1 0 0 0 0-.1zm6.8 0 .4.1h.1c.7-.3 1.1.2 1.2.2H26c.1 0 .3.1.3.3.1.2-.1.5-.3.8h-.3V36l-.2-.1-.2.1v-.1l-.2-.1-.2.1-.1-.1-.2-.1-.3.2-.2-.2H24c-.2 0-.3.1-.3.2l-.3-.2-.2.1-.1.1-.2-.1-.2.1v.1l-.2-.1-.2.1s-.1.1 0 .1H22l-.3-.8c0-.2.2-.3.3-.3H22.8c.1 0 .3-.3.7-.3zm15.3.1a3 3 0 0 1-2.4.8h-1.3l.2-.4.3-.1c.9-.3 1.8-.2 1.8-.2l1.4-.1zm-29.6 0c.6.2 1.3.1 1.3.1s.9-.1 1.8.2l.3.1.2.4h-1.3c-1.1.1-1.9-.5-2.3-.8zm19.7 0 .1.3.1.5-.1.2-.2.2a.8.8 0 0 1-.2-.5v-.3l.3-.4zm-9.8.1.2.4v.3c0 .3-.1.4-.2.5l-.2-.2-.1-.2.1-.5.2-.3zm10.7 0s.1.1 0 0l.2.1v.1l.1.1-.3.1v-.4zm-11.6 0 .1.3-.3-.1.1-.1v-.1c0 .1 0 .1.1 0-.1.1 0 0 0 0zm-1.1 0 .2.2h-.2c.1 0 .1-.1 0-.2zm18.1.1.1.1-.1.1-.1.3v.7l.1.2v.1l-.1.1-.2-.1-.1-.3v-.7l.1-.3.1-.1.2-.1c-.1 0-.1 0 0 0zm-22.3 0 .2.2.1.1.1.3V36.3l-.1.3-.2.1-.1-.1v-.1l.1-.2v-.7l-.1-.3-.1-.1c-.1-.2-.1-.2.1-.2-.1 0-.1 0 0 0zm19.7 0 .5.2.2.1-.4.1c-.3 0-.6-.1-.6-.3l.3-.1c-.1 0-.1 0 0 0zm-17.2 0s.1 0 0 0l.3.1c0 .1-.3.3-.6.3l-.4-.1.2-.1.5-.2zm19.3.1.1.1-.1.1-.1.1v.7l.1.1h-.1l-.1-.2V35.2l.2-.1c-.1 0 0 0 0 0zm-21.4 0c.1 0 .1 0 0 0l.2.2V36.1l-.1.2s-.1.1-.1 0l.1-.1v-.7l-.1-.1-.1-.1.1-.2zm18.7 0c.1 0 .1 0 0 0l.1.1h-.2l.1-.1zm-16 0 .1.2h-.2l.1-.2c-.1 0-.1 0 0 0zm12.6.1v.3l-1.3.9-.5.1 1.8-1.3zm5.6.1.1.1v.1l-.1.2v.1l-.1-.1-.1-.2v-.1l.2-.1c-.1 0-.1-.1 0 0zm-14.8 0 1.9 1.4-.5-.1-1.4-.9c.1-.2.1-.3 0-.4zm11.3 0zm-16.8 0 .2.1v.1l-.1.2-.1.1v-.1l-.1-.2v-.1l.1-.1c-.1 0-.1 0 0 0zm3.4 0zm12.8 0 .4.1h.2l-.3.2c-.4.1-.7 0-.8-.1l.2-.2h.3zm-12.2 0 .3.1.2.2-.1.1-.5-.4h.1zm15.7 0h.2v.1l-.5.1H33l.3-.1.3-.1zm-19.2 0 .3.1.3.1H14.7l-.5-.1v-.1h.2zm3.2 0 .5.4-.5-.1-.3-.2h.2l.1-.1zm14.4.1.5.2.2.1-.5.1h-.1c-.2 0-.4-.2-.4-.3l.2-.1h.1zm-16 0h.1l.2.1-.4.3h-.1l-.5-.1.2-.1s.2-.3.5-.2zm15.4 0zm-14.8 0zm12.7.1.2.1v.1l.1.1-.3.1v-.4zm-10.6 0v.3l-.3-.1.1-.1v-.1c.1.1.1.1.2 0zm12.8 0c0 .1 0 .1 0 0 0 .1 0 .1 0 0zm-15 0c0 .1 0 .1 0 0 0 .1 0 .1 0 0 0 .1 0 0 0 0zm16.4 0h-.1.1zm1 0 .1.2-1.3.1.1-.1h.5l.2-.1.4-.1zm-18.8 0h.1-.1zm-1 0 .4.1.2.1h.4l.1.1h.1l-1.3-.1.1-.2zm16.6.2zm-13.4 0c-.1 0 0 0 0 0zm14.1 0 .4.1-.3.1-.3.1h.1-.1.8l-.4.1c-.4 0-.6-.1-.7-.3l.2-.1h.3zm-2.9 0c0 .2.1.4.3.4l-.1.1h-.9l.7-.5zm-11.9 0h.1l.2.1c0 .1-.3.3-.7.3l-.4-.1h.8-.1.1l-.3-.1-.3-.1.6-.1zm2.9 0 .8.6h-.9l-.1-.1.2-.5zm15.7 0 .1.1c.1.1.3.3.3.5l-.1.1h-.1l-.1-.1v-.1l-.2-.3v-.1l.1-.1c0 .1 0 .1 0 0zm-1.2 0h-.1.1zm-21.1 0c0 .1 0 .1 0 0V36l-.2.3v.1l-.1.1h-.1l-.1-.1c0-.3.2-.4.3-.5l.2-.2c-.1.1-.1 0 0 0zm11.1.1.2.1v1h-.3v-1l.1-.1zm10.1 0 .1.1v.2l-.4-.1v-.1h-.5v-.2l.8.1zm-20.2 0 .8.1v.2h-.4c-.1 0-.1-.1-.1 0v.1h-.4V36l.1-.2zm21.6 0h.1l1.2.2s.5.2.9.1c-.4.2-1 .5-1.8.3l-.2-.1v-.1c.1-.1 0-.3-.2-.4zm-23 0-.2.5v.1l-.3.1c-.8.3-1.5-.1-1.8-.3l.9-.1 1.2-.2.2-.1zm18.4 0-.3.2h-.2l.2-.1.3-.1zm-13.8 0h.2l.2.1h-.2l-.2-.1zm7.5.1h.1v.1l-.1.9h-.3l.1-.9.2-.1zm-1.2 0 .2.1.1.9h-.3l-.1-.9v-.1h.1zm9.7 0-.1.1H32.7l.4-.1zm-3.5 0 .4.1h.1l-.6.4-.4-.2.2-.2.3-.1zm-14.7 0h.4-.2l-.1.1-.1-.1zm3.5 0 .6.3c-.1.1-.3.2-.6.1l-.3-.2-.2-.1-.1-.1h.6zm6.7 0s.1 0 0 0l.1.1-.1.8h-.2l.1-.8.1-.1zm-2.2 0 .1.1.1.8v.1h-.2l-.1-.9.1-.1c-.1 0 0 0 0 0zm2.6.1h.1v.6l-.1.1h-.2l.1-.7h.1zm-3 0 .1.1.1.7h-.1l-.1-.1v-.6c-.1-.1-.1-.1 0-.1zm8.5 0zm-14 0c0 .1 0 0 0 0zm15.5 0h.2-.3c0 .1 0 .1.1 0-.1 0 0 0 0 0zm-17 .1c0-.1.1 0 0 0l.1.1h-.3l.2-.1zm17.6 0h.3-.2l-.4.1-.1.1.1-.1.3-.1zm-18.2 0 .3.1.1.1-.1-.1-.4-.1h-.2.3zm16.2.1s.1 0 0 0v.2s-.1.4-.4.4h-.3c0-.1.1-.3.4-.5l.3-.1zm-14.2 0 .3.1c.3.1.4.4.4.5h-.3a.7.7 0 0 1-.4-.4v-.2c-.1 0 0 0 0 0zm13.5 0-.1.2s-.1.4-.4.4h-.3c0-.1.1-.3.4-.5l.4-.1zm-12.8 0 .4.1c.3.1.4.4.4.5h-.3a.7.7 0 0 1-.4-.4l-.1-.2zm15 0-.1.1s-.1.3-.4.4h-.3c0-.1.1-.3.4-.4l.4-.1zm-17.2 0 .3.1c.3.1.4.3.4.4h-.3a.7.7 0 0 1-.4-.4c.1 0 .1 0 0-.1zm.5 0c.1 0 .1.1 0 0 .1.1.1 0 0 0zm17.3.1-.1.1s-.1.3-.3.3h-.2l.3-.4h.3zm-18.4 0 .3.1c.2.1.3.3.3.4h-.2l-.3-.3-.1-.2zm14.2 0 .3.2h-.1l-.2-.2c-.1 0-.1 0 0 0zm-10 0-.2.2h-.1l.3-.2zm6.9 0-.1.1h-.1v-.1h.2zm-3.8 0h.2v.1h-.1l-.1-.1zm9.7 0c0 .1-.1.4-.4.5h-.3c0-.1.1-.3.4-.4l.3-.1zm-15.6 0h.4c.3.1.4.3.4.4h-.3c-.4 0-.5-.3-.5-.4zm12.1.2c.3 0 .6.1.8.5.4.9 1.5 1.5 1.5 1.5h.1c-.9-.2-2.1.2-3.1.7-1.7.8-3.6.7-3.6.7s-1.8.1-3.6-.6c-1.1-.4-2.4-.9-3.2-.7l.1-.1s1.1-.6 1.5-1.5c.4-.8 1.4-.4 1.4-.4 1.4.5 2.9.6 3.6.6 0 0 1.8 0 3.9-.6l.6-.1zm1.2 0-.1.2h-.1l-.1-.2h.3zm-11 0 .3.1-.1.2h-.1l-.1-.3zm15 .2.4.1.2.1-.2.1a1 1 0 0 1-.8-.1l-.1-.1.2-.1h.3zm-19 0h.3l.2.1-.1.1c-.1.1-.5.2-.8.1l-.2-.1.2-.1.4-.1zm17.3 0 .1.1-.1.1-.2-.1.2-.1zm.6 0s0 .1 0 0l.1.1v.1l-.3-.1.2-.1zm-16.2 0 .2.1-.2.1-.1-.1.1-.1zm-.6 0 .2.1-.3.1v-.1c.1.1.1 0 .1-.1 0 .1 0 0 0 0zm14.6.1s.1 0 0 0l-.2.1.2-.1zm-12.4 0 .2.1-.2-.1c-.1 0 0 0 0 0zm15.1 0zm-17.8 0zm15.9.1s0 .1 0 0c0 .1-.1 0-.1 0h.1zm-14 0h.1-.1c0 .1 0 0 0 0zm12.5 0c0 .1 0 .1 0 0zm-11 0c0 .1 0 .1 0 0zm14.2 0h.2c.3 0 .4.3.4.3l.1.1-.3-.1c-.4 0-.5-.2-.4-.3-.1 0-.1 0 0 0-.1 0-.1 0 0 0zm-17.4 0c.1 0 .1 0 0 0 .1 0 .1 0 0 0 .1.1 0 .3-.3.4l-.3.1.1-.1s.1-.3.4-.3l.1-.1zm16.7 0h.1c.3 0 .4.3.4.3l.1.1-.4-.1c-.3-.1-.4-.3-.4-.4l.2.1zm-.7 0h.2c.3 0 .5.4.5.4l.1.1-.4-.1c-.3-.1-.5-.3-.5-.4h.1zm-15.3 0h.1c0 .1-.1.3-.4.4l-.4.1.1-.1s.1-.3.4-.3l.2-.1zm.7 0h.1c0 .1-.1.3-.5.4l-.4.1.1-.1s.2-.3.5-.4h.2zm13.8 0h.2c.3 0 .5.4.5.4l.1.2-.4-.1-.4-.2-.1-.1V37l.1-.1zm-13 0h.1v.1l-.1.1-.4.2-.4.1.1-.2s.2-.4.5-.4c.1.2.1.1.2.1zm12.3.1h.2c.3 0 .5.4.5.4l.1.2-.4-.1c-.3-.1-.5-.4-.5-.5h.1zm-11.6 0h.1c0 .1-.1.3-.5.5l-.4.1.1-.2s.2-.4.5-.4h.2zm8.8.1v.2l.2.1v-.2l-.2-.1zm.8 0v.3l.3.5.3.5v.1l-.1-.5c-.1-.4-.3-.6-.5-.9zm-7.4 0-.2.1.1.2.2-.1-.1-.2zm12.4.2.1.1-.1-.1zm-17.6 0-.1.1.1-.1zm6.2.1-.2.1v.1l-.2.7-.1.4.2.2.2.1h.1l.2-.1c0 .1 0 .2.2.2h.2l1.1.2.2-.2c0 .1 0 .2.2.2h.1c.2 0 .2-.1.3-.2 0 .1 0 .2.2.2s.2-.1.2-.2c0 .1.1.2.3.2H24.9c.3 0 .3-.3.3-.5l-.1-.4-.1.3.1.2-.2.1h-.1l-.3-.1v-.2l-.2.2h-.2c-.1 0 0-.1 0-.2H24l-.2.2h-.2c-.1 0-.2 0-.1-.2h-.1l-.1.1H23l-.5-.1-.5.1h-.1c-.1 0-.4 0-.2-.2h-.1l-.1.1h-.3l-.2-.1v-.2l.1-.4.3-.6zm-.7 0-.2.2v.5c-.1.2-.4.1-.5 0-.2-.1-.3-.2-.2-.5l.2-.2-.4.5c-.1.2 0 .4.2.5.3.2.7.1.8-.3l.1-.7zm6.6.1c-.2.1-.1.4-.1.6v.1l.2.1.1-.3.1.1c.1.2-.3.3-.4.4l-.3.1.1-.3c-.1-.2-.3-.2-.4-.2-.2.1-.3.2-.3.4l.3.1-.2.2-.6.1h-.3l-.1-.1-.1-.4-.1-.5-.1.2v.1l.2.7.1.4.2.1h.2l.5-.1h.1l.3-.3c.1 0 .2.2.4.1l.1-.1h.1c.3-.1.4-.3.3-.7.2-.4-.1-.9-.3-.8zm-.8.2-.1.2.2.1v-.2l-.1-.1zm.9.1h.1l-.1.1-.1-.1c0 .1 0 0 .1 0-.1 0-.1 0 0 0zm-5.8.1-.2.2.1.2.1-.1.1.2.2-.2-.1-.2-.1.1-.1-.2zm3.2.1-.1.2.2.1.1-.2-.2-.1zm10.9.2c-.5 1-1.7 1.3-1.7 1.3l-.4.1.3.2c.7.4 1.7.3 2.2.3-.6.5-1.9.8-3.4.5-1.7-.3-2.7.1-2.8.2l-2.3.6c-.4.1-.8 0-.9-.2-.1-.2-.2-.4-.1-.6.2-.5 1.5-.4 2.7 0 .6.2 1.4.2 1.9-.1.2-.2.4-.4.4-.7v-.1c0-.6-.4-.9-.6-1.1.4 0 1.1-.1 2.1.2 1 0 2.1-.4 2.6-.6zm-23.4 0c.5.3 1.6.7 2.6.4 1-.3 1.7-.2 2.1-.2-.3.2-.6.5-.6 1.1v.1c0 .3.2.5.4.7.5.4 1.4.3 1.9.1 1.2-.3 2.5-.4 2.7 0 .1.2.1.4-.1.6-.2.2-.5.3-.9.2a11 11 0 0 1-2.3-.6c-.1 0-1.1-.5-2.8-.2-1.5.3-2.9 0-3.4-.5.5.1 1.5.1 2.2-.3l.3-.2-.4.1s-1.3-.3-1.7-1.3zm18 .6c.5 0 .9.2 1 .5v.2c0 .2-.1.4-.3.5-.4.3-1.2.3-1.7.1-.7-.2-2.4-.6-2.9.1l-.1-.2 1.4-.5c1.2-.5 2-.7 2.6-.7zm-12.7 0c.7 0 1.7.4 2.6.7l1.4.4-.1.2c-.5-.7-2.2-.3-2.9-.1-.6.2-1.3.2-1.7-.1a.5.5 0 0 1-.3-.5v-.2c.3-.2.6-.4 1-.4z" class="st3"/><path d="m24.3 4.8-.2.3.1.2-.6.4.2-.1.4-.3.1.1v-.2l-.1-.1.1-.2c.1 0 0-.1 0-.1zm-.1.2.1.1v.1l-.1-.2zm-1 .1-.8.4-.2.2.8-.4c.2 0 .3-.1.2-.2zm-2 .2-.7.5-.2.3.7-.5c.2-.1.3-.2.2-.3zm5.6 0c-.1 0-.1 0 0 0l-.1.2h-.1l-.1-.1v-.1l-.1.2s-.1.1-.1 0h-.1v-.1l-.1.1v.1l.1.1h.1l.1-.1h.1l.1-.2.2-.1zm-2.2.1-.2.3.1.1c-.2.1-.6.1-.7.5l.4.2-.4.1h-.2c-.2 0-.3-.4-.5-.4-.3 0-.2.4-.5.4H22.3l-.2-.6-.1-.3-.1.2.1.6c0 .2-.1.2-.3.2l-.3-.1-.1.3.4.1c.2 0 .3-.1.4-.3l.3.3.3-.1.1-.1.5.2c.2 0 .2-.1.2-.2l.2.1h.2l.5-.2.7-.1-.1-.3c-.4 0-.5-.1-.8-.3h.6l.2-.3-.4-.3zm1.5 0-.6.3-.2.2.6-.3.2-.2zm-2.8.1-.1.3-.1-.2-.2.3-.1-.2v.2l.1.2.1-.2h.1l.2-.3v-.1zm-3.9.1-.1.4h.2l-.2.6.2-.2.2-.5h.2l-.1-.1h-.1l-.1-.2h-.2zm8.8 0-.3.2.1.3.1-.1.3.8c0 .2-.1.2-.2.3h-.1l-.2.3.3.1c.2.1.4.1.5-.1V7l.3-.6v-.1l.2-.2-.2-.3-.2.2v.1l-.1.4-.2.3c.1-.4 0-.8-.3-1.2zm-8.8.2c.1 0 .1 0 0 0l.1.1-.1-.1zm8.2 0-.2.2v.6l-.1.6h.1l.1-.3.1-1.1zm-1 0-.1.1V6.6l-.1.1h-.1l-.1-.1V6l-.2.1-.1.2-.2.1-.1.1-.1.1v.2l.1.1h.1l.1-.1.1.2h.5l.1-.2.1.2.1.1.2-.1.1-.2v-1l-.2.2v.8l-.1-.1v-.5l-.1-.4zm-8.9.3v.3h.1l.3.6.3.5v.1L18 8c-.2.1-.4.1-.5-.1-.1-.1 0-.2 0-.4v.7c.1.3.4.3.6.2.4-.2.5-.5.4-.8l-.4-.8-.1-.3v-.3c-.1.1-.2.1-.3-.1zm3.1 0v.3l.2.4c0 .3-.3.6-.6.7h-.1l.4.1c.3-.1.4-.6.4-.8a1 1 0 0 0-.3-.7zm2.3.2.1.3v.1l-.2-.1.1-.3zm6.6.1-.3.2a1 1 0 0 0-.2.5l-.3.5c.1-.1.2-.1.2-.3l.6-.9zm-9.4 0v.3l.2.2-.1.1-.4-.2v.1l-.3.1-.3-.1V7l-.2.1-.2.1-.3-.4-.1.6c.1.2.2.1.4.1-.1.3-.2.6-.5.7h-.2.5c.3-.1.3-.6.3-.9h.2l.1-.2.3.1c.1 0 .2-.1.2-.3.1.1.1.2.3.1.2 0 .2-.3.2-.5l-.1-.1zm5.7 0v.1H25.7h.1l.2-.1zm-8.6.1c-.1 0-.1 0 0 0l-.1.4.2.1-.2.6.2-.2.2-.5h.2l-.1-.1h-.1l-.1-.2-.2-.1zm12.5.2-.2.1.8.1.2-.1-.8-.1c.1 0 .1 0 0 0zm1.4 0-.2.1v.1l-.4 1-.2.1h-.1l-.1-.1.2-.8-.2.1v.2l-.4.1-.2.2.1.2c.1.1.3 0 .3-.1v.3h.2c.2.1.4-.1.5-.2.2-.2.2-.5.3-.8l.3-.1c-.1 0-.2-.2-.1-.3zm-14 0c.1 0 .1 0 0 0l.1.1-.1-.1zm11.2.3v.1c0 .1-.1 0-.1 0h-.1l.2-.1zm-12.1.1v.3l.3.5.3.5-.1-.3-.5-1zm15.4 0-.3.2a1 1 0 0 0-.2.5l-.2.5c.1-.1.2-.1.2-.3l.5-.9zm-13 .1.2.1h-.1l-.1-.1c-.1 0 0 0 0 0zm-3.7 0-.3.6v.3l.3-.6v-.3zm17.3.1-.3.1c-.1.1-.1.3 0 .4h.1c.1.3.1.5 0 .8l-.4.1-.1-.1-.2.2.2.2c.2.1.3.2.5 0l.1-.4c.3-.1.3-.2.5-.4v-.1l.4-.1c-.1 0-.2-.2-.1-.3l-.3.1v.1l-.2.4-.2.2V7.3zm-17 0s0 .1 0 0l.1.2v.1h-.1l-.1-.1.1.2v.1h-.1l-.1-.1.1.1.1.1h.1l.1-.1v-.1h.1l.1-.1-.1-.2-.3-.1zm14.8 0-.1.2H30l-.2-.1.4-.1zm-14.3.3V8l.1.1.2.2.1.1.1.1h-.1l-.2-.1-.2-.2-.3-.2V8.3l.1.1h.3v.1l-.1.1h-.1l-.1-.1-.3-.3v.2l.1.2-.1.2V9.1l.1.1h.2l.1-.1V9h.4l.1-.1v-.2l.2.1h.1l.1-.2-.1-.2-.1-.1-.2-.2-.2-.2-.2-.3zm13.1.1h-.2l-.1.1v.1l.1.2h-.1l-.1.1h.5l.1-.1h-.1l-.2-.2-.1-.1h.1l.1.1.1-.1c.1-.1 0-.1-.1-.1.1 0 .1 0 0 0zm2.1.8h-.2l-.1.1v.2h-.2l.4.1h.1l.1-.1h-.1l-.1-.1-.1-.1h.1l.1.1.1-.1-.1-.1zm-15.5.2c.1.1 0 .2 0 .2h-.2v-.1l.2-.1zm16.6 0v.1H32l.2-.1zM25 7.2v.1-.1.1h-.1v-.1.2h.2l.1-.1h.1v-.1H25zm-1.1 0a2 2 0 0 0-.8.3V7.8l.1.1h.1l.2.1-.3.1H23l-.1-.2-.1-.3-.1.2-.2-.1-.1.2.2.2c0 .2-.3.3-.5.3H22l.2.1c.2 0 .4-.2.4-.4V8l.2-.2c0 .1 0 .5.2.5h.2c.2 0 .4 0 .4-.3 0-.2-.2-.2-.4-.3l-.1-.1.6-.2.2-.2zm.6.1-.1.2.1.1-.3.2h.1l.2-.2.1.1v-.1l-.1-.3c.1.1 0 0 0 0zm1.1.1-.1.2.1.4v.4l.1-.3-.1-.7zm-1.1 0c0 .1 0 .1 0 0 0 .1-.1 0 0 0-.1 0-.1 0 0 0zm-.5 0-.1.2.1.4v.4l.1-.3-.1-.7zm1.2.1-.1.1v.2l.1.2v.2l-.1-.1-.1-.2v-.2l-.1-.2-.1.1v.5h-.2v-.4l-.1.1v.1l-.1.1-.1.1V8.4h.2l.1-.1.1.1h.2l.1-.1.1.1h.1l.1-.1v-.7l-.1-.1zm-.6.6v.1h-.1.1c-.1-.1-.1-.1 0-.1zm-1.4.3-.1.1.1.1.1-.1-.1-.1zm.8 1.7c.8 0 1.5.2 2.1.5v-.1l.5-.7v-.1h-.1l-.5.7-.1-.1.2-.5v-.1H26l-.2.5-.1-.1.3-.7v-.1h-.1l-.4.9h-.1l.2-.6v-.1h-.1l-.2.6h-.1l.3-1V9h-.1l-.3 1H25l.1-.6-.1-.1-.1.1-.2.6h-.1l.2-1.1-.1-.1-.1.1-.2 1.1h-.1v-.6l-.1-.1-.1.1v.6H24V8.8l-.1-.1-.1.1V10h-.1v-.6l-.1-.1-.1.1v.6h-.1l-.2-1.1-.1-.1-.1.1.2 1.1h-.1l-.1-.6-.1-.1.1.1.1.6H23l-.3-1s-.1-.1-.1 0c0 0-.1.1 0 .1l.3 1h-.1l-.2-.6s-.1-.1-.1 0c0 0-.1.1 0 .1l.2.6h-.1l-.6-.9h-.1v.1l.4.9-.1.1-.2-.6h-.1v.1l.2.5-.1.1-.5-.7h-.1v.1l.5.7.1.1c.5-.4 1.2-.6 2-.6m0 21.6-.2.2-.1.3.1.2.2.1h.1l.1.3.1.2.1-.2a.8.8 0 0 1-.2-.5V32c0-.2-.1-.3-.2-.3zm-1.7 0-.1.2.2.4.1.5v-.3l-.1-.4c.1-.1 0-.2-.1-.4zm.6 0-.1.2c.2.3.4.6.4 1v-.2l-.1-.5.2-.1.1-.2v-.1l-.1.1-.1.1H22.9v-.3zm2.1.1-.2.5-.3.5v.2l.4-.7.4.7.1-.2-.4-1c.1 0 .1 0 0 0zm-1 .1.2.2H24l-.1-.1.1-.1c-.1.1-.1 0 0 0z" class="st3"/><path d="M24.1 10.2s-.1 0 0 0c-.1.1-.1.1 0 0-.1.1-.1.1 0 0l-.4.6c-.2.1-.3.3-.3.6l.2.4-.1.2.2.2c-.1.1-.5.5-1 .7-.8.3-1.6.7-1.7 1.7v.2c0 .5.3 1.1.7 1.4v.5l-1.9.9v-3.2c.1 0 .2-.1.2-.3 0-.2-.2-.3-.3-.3l.3-.6v-.1c0-.3-.3-.5-.4-.6v-.1l-.1-.1-.2-.2-.2-.6-.1-.1-.1.1-.2.6-.2.2-.1.1v.1c-.1.1-.4.3-.4.6v.1l.3.6c-.1 0-.3.1-.3.3 0 .2.1.3.2.3v3.2h-2s0 .3.4.4c0 0 0 .3.4.4 0 0 .1.4.4.5v3.2H17l.6.8s-.3.2-.1.6v.9l-2-6.8c.2-.1.2-.3.2-.4-.1-.2-.3-.3-.7-.3s-.5.3-.5.5.2.3.4.3l.2.7c-.1.3-.7.9-.9 1.1l1.5 3.8c.2-.2.5-.5.6-.8l1.1 3.7v.3s-.3.2 0 .4c0 0-.3.2 0 .4v1.3l-.5 1s-.5-.1-.4.3c0 0-.5 0-.2.4l.7.5h15.5v-.1l-.1-.2-.3-.2c0-.2-.2-.4-.3-.4h-.1l-.9-1.2V28l.2-.3-.2-.2.1-.2-.2-.3v-.2l1.2-4 .6.8 1.5-3.8c-.3-.2-.8-.8-.9-1.1l.2-.7c.2 0 .4-.1.4-.3.1-.2-.2-.4-.5-.5-.3-.1-.6.1-.7.3l.2.4-2 7.1v-1.2l.2-.3-.2-.3.5-.8h-.6v-2.9l.2-.3c.2-.1.3-.3.3-.5.2-.1.3-.2.3-.4.3-.1.4-.4.4-.4v-.1H30v-3.2l.1-.3c0-.2-.2-.3-.3-.3l.3-.6v-.1c0-.3-.3-.5-.4-.6v-.1l-.1-.1-.2-.2-.2-.6-.1-.1-.1.1-.2.6-.2.2-.1.1v.1c-.1.1-.4.3-.4.6v.1l.3.6c-.1 0-.3.1-.3.3 0 .2.1.3.2.3v3.2l-1.9-.9v-.5c.5-.4.7-.9.7-1.4v-.2c-.1-1-.9-1.4-1.7-1.7-.5-.2-.9-.6-1-.7l.2-.2-.1-.2.2-.4-.3-.6-.3-.8c.1.1.1.1 0 0 .1.1 0 0 0 0zm0 .3.3.4c.1.1.3.3.3.5l-.2.3h-.7l-.2-.3c0-.2.1-.4.3-.5l.2-.4zm-.1.3-.2.3c-.1.1-.3.3 0 .6h.3s-.3-.2-.2-.4l.1-.5zm-.3 1h.7l.1.2-.1.2h-.7l-.1-.2.1-.2zm.1.1s-.2.1 0 .2h.2l-.2-.2zm-4.8.2.2.3.1.1h-.6l.1-.1.2-.3zm10.2 0 .2.3.1.1h-.6l.1-.1.2-.3zm-5.5.2h.7c.1.1.5.6 1 .8.7.3 1.5.7 1.6 1.6v.2c0 .5-.2.9-.6 1.3l-2.4-.1-2.4.2c-.4-.3-.6-.8-.6-1.3v-.2c.1-.9.9-1.3 1.6-1.6.7-.3 1-.8 1.1-.9zm0 .1s-.1.6-1.2 1c0 0-1 .4-1.1 1.3-.1.9.5 1.3.7 1.4h.4s-.8-.6-.7-1.6c.1-.4.4-.7.8-.9 1.2-.6 1.1-1.2 1.1-1.2zm.7 0s.2.6 1.3 1.2c.8.5.8 1.1.8 1.1 0 .9-.5 1.4-.5 1.4h.2s.6-.5.5-1.4c-.1-.9-.9-1.2-.9-1.2-.9-.3-1.4-1.1-1.4-1.1zm-5.8.2h.7l.1.1h-.9l.1-.1c-.1 0 0 0 0 0zm10.2 0h.7l.1.1h-.9l.1-.1c-.1 0 0 0 0 0zm-10.3.2h1c.1 0 .4.2.4.5 0 .1 0 .3-.2.4h-1.4l-.2-.4c0-.3.3-.4.4-.5zm10.2 0h1c.1 0 .4.2.4.5 0 .1 0 .3-.2.4h-1.4l-.2-.4c0-.3.3-.4.4-.5zm-10.2.1s-.6.3-.2.8h.7s-.7-.2-.5-.8zm5.2 0-.7.9c-.3.2-.4.6-.5.7s-.2.8.4 1.5h.3s-.7-.8-.5-1.6l.4-.6.6-.9zm5.1 0s-.6.3-.2.8h.6s-.6-.2-.4-.8zm-4.1 0 .6.9.4.6c.2.7-.5 1.6-.5 1.6h.3c.6-.8.5-1.4.4-1.5 0-.2-.2-.5-.5-.7s-.7-.9-.7-.9zm-.9.3-.4.9c-.2.3-.4 1 .2 1.9h.1s-.5-.8-.4-1.2l.1-.6c.3-.4.4-1 .4-1zm.7 0s0 .5.3 1l.1.6c.1.4-.4 1.2-.4 1.2h.1c.7-.9.4-1.6.2-1.9l-.3-.9zm-6.1.7h1.2v.1l-1.2-.1zm10.2 0h1.2v.1l-1.2-.1zm-10.3.1h1.3s.2 0 .2.2-.2.2-.2.2h-1.3s-.2 0-.2-.2l.2-.2zm10.2 0h1.3s.2 0 .2.2l-.1.2h-1.5l-.1-.2.2-.2zm.1.1s-.3.2-.1.3h.3s-.3-.1-.2-.3zm-10.2 0s-.3.2-.1.3h.3s-.3-.1-.2-.3zm10.4.6h.2v3h-.2v-3zm-10.3 0h.2v3h-.2v-3zm.4 0h.2v3h-.2v-3zm10.3 0h.2v3h-.2v-3zm.4 0h.2v3h-.2v-3zm-10.3 0h.2v3h-.2v-3zm4.6 1.5h.2l2.3.1-2.3-.1-2.3.2 2.1-.2zm.1.2h.1l2.3.1v.1l-2.3-.1-2.3.2v-.1l2.2-.2zm0 .2h.1l2.3.1v.1l-2.3-.1-2.3.1v-.1l2.2-.1zm0 .2h.1l2.2.1 1.8.8H20l1.8-.8 2.2-.1zm-2.1.3-1.5.7h2.4s-1.4-.1-1.1-.5l.2-.2zm10.8.2-.1.2.2.3h.5c-.1.1-.3 0-.4 0-.2 0-.3-.1-.3-.3-.1-.1.1-.2.1-.2zm-17.9.1v.2l.3.2.5-.1-.4.2-.4-.1c-.2-.3 0-.4 0-.4zm.5.4 2.1 7.4v.7l-2.3-8 .2-.1zm17.4.1.3.1-2.4 8.1v-.7l2.1-7.5zm-15.4 0h14.3l-.3.2H17.4l-.1-.2zm.2.4h13.7c0 .1-.1.2-.3.2H17.6l-.1-.2zm.3.4h13l-.3.4H18.1l-.3-.4zm.6.5h12.2v.2H18.4v-.2zm0 .3h1.8v2.9h-.3v-2.6h-1v2.6h-.4l-.1-2.9zm1.9 0h8.3v2.8c-.2-.6-1.3-2.6-4.2-2.7-2.7 0-3.8 1.7-4.1 2.4v-2.5zm8.4 0h1.7v2.9H30v-2.6h-1v2.6h-.3v-2.9zm-8.1.3V21s.6-.9 1.7-1.3h-1.7zm5.9 0c1.1.3 1.7 1.3 1.7 1.3v-1.3h-1.7zm-12.4 0c-.7.8-.9 1.4-.7 2.3.3.9 1.5 2.7 1.5 2.8l.1.1c0-.5.2-1 .6-1.4l-1.5-3.8zm19.8.1-1.5 3.8c.4.3.6.8.6 1.3l.1-.1s1.2-1.8 1.5-2.8c.2-.8 0-1.4-.7-2.2zm-9.8.1h.1c2.5.1 3.4 2.3 3.4 2.3H27l.4.7c-.2.1-.2.3-.1.5l.1.1v3.2l-.2.2h-.8l-.3-.3v-.6l-.5-.3v-.4l-.6-.5V24.1l-.1-.1.1-.1-.1-.1v-.1.1l-.1.1.1.1-.1.1v.2h-.6v-.1l-.1-.1.1-.1-.1-.1v-.1.1l-.1.1.1.1-.1.1V27h-.2v-3.7h-2.6V27h-.9v-3.2l.2-.4-.2-.3.6-.8h-.6c.4-.5 1.6-2.2 3.8-2.3zm5.1.4h.4v2h-.4v-2zm-10.2 0h.4v2H19v-2zm-5.6 1.9a2 2 0 0 0-.7 1.5c0 .6.3 1.1.7 1.7.4.6.5 1.1.5 1.5l-.1.6c.6-.4 1.1-.9 1.3-1.4l.1-.4v-.4l-.2-.5c-.2 0-1.3-1.7-1.6-2.6zm21.2 0c-.4 1-1.4 2.6-1.5 2.7l-.2.5v.4l.1.4c.2.5.6 1 1.3 1.4l-.1-.6c0-.4.1-.9.5-1.5s.7-1.2.7-1.7c0-.6-.2-1.1-.8-1.6zm-13.7.1.2.8h2.6l.3-.8h-.4s-.2.3-.5.2l-.3-.2h-.4s-.3.3-.6.3l-.4-.3h-.5zm-3 .1h2.7l-.4.6h-1.9l-.4-.6zm10.2 0h2.8l-.4.6h-2l-.4-.6zm-7 0h.2c.1.2.3.3.5.3.3 0 .6-.2.7-.3h.3c.1.2.3.3.4.3.3 0 .5-.2.6-.3h.1l-.2.5h-2.3l-.3-.5zm-2.7.7h1.9l.2.2-.2.3h-1.9c-.3 0-.4-.3 0-.5zm10 .1h2l.1.2-.1.2h-2a.3.3 0 0 1 0-.4zm-7.1.1h2.3V27h-2.3v-3.6zm.2.2v1h.1l-.2.1.2.1h-.1v2h1.9v-2h-.1l.2-.1-.2-.1h.1v-1h-1.9zm3.6 0c0 .1 0 .1 0 0 0 .1 0 .1 0 0-.1.1-.1.1 0 0 0 .1 0 .1 0 0zm-.9.1c-.1 0-.1 0 0 0-.1 0 0 0 0 0zm-2.6 0h1.7v.8h-.2v-.1c0-.1-.1-.4-.7-.6-.7.2-.7.5-.7.6v.1h-.2l.1-.8zm3.4.1h.2-.2zm-.9 0h.2-.2zm.9 0h.2l.1.1v.1h-.4v-.1l.1-.1zm-.9 0h.2l.1.1v.1H24v-.1l.1-.1zm.9 0s-.1.1 0 .2h.1s-.2-.1-.1-.2zm3.6 0h1.8V27h-1.8v-3.2zm-4.5 0s-.1.1 0 .2h.1s-.2 0-.1-.2zm-5.8.1h1.8V27h-1.8v-3.1zm4.1 0c.6.2.6.4.6.5v.2l.1.1H23l.1.1H23v1.7h-1.3v-1.7h-.1l.1-.1-.2-.1.1-.1v-.2l.8-.4zm2.5.1h.2-.2zm-.9 0h.2-.2zm5 .1-.1.1v.2l.1.1.1-.1v-.2l-.1-.1zm.5 0-.1.1v.2l.1.1.1-.1v-.2l-.1-.1zm.5 0-.1.1v.2l.1.1.1-.1v-.2l-.1-.1zm-5.1 0h.3v.2h-.3v-.2zm-6.1 0-.1.1v.2l.1.1.1-.1v-.2l-.1-.1zm.5 0-.1.1v.2l.1.1.1-.1v-.2l-.1-.1zm.5 0-.1.1v.2l.1.1.1-.1v-.2l-.1-.1zm4.2 0h.3v.2H24v-.2zm.9 0c.1.1 0 0 0 0zm-.9 0c.1.1 0 0 0 0zm1.1.1v.7-.7zm-1 0v.7-.7zm.1 0v.7-.7zm.8 0v.7-.7zm-.7.2h.6v.5h-.6v-.5zm.1.1v.3h.4v-.3h-.4zm.1 0h.2v.2h-.2v-.2zm4.5.2-.1.1v1.3l.1.1.1-.1v-1.3l-.1-.1zm.5 0-.1.1v1.3l.1.1.1-.1v-1.3l-.1-.1zm.5 0-.1.1v1.3l.1.1.1-.1v-1.3l-.1-.1zm-8.4 0zm1.6 0zm-4.4 0-.1.1v1.3l.1.1.1-.1v-1.3l-.1-.1zm.5 0-.1.1v1.3l.1.1.1-.1v-1.3l-.1-.1zm.5 0-.1.1v1.3l.1.1.1-.1v-1.3l-.1-.1zm1.8.2.1 1.7h1.5v-1.7h.2v1.8h-1.7l-.1-1.8zm2.5.3.3.3v.4l.5.3v.6l.5.4v.7l.5.4v.5L24.1 27v-1.8zm.5.2h1.1v.3h-1.1v-.3zm.4.8h1.1v.5H25v-.5zm4 .2-.1.1v.2l.1.1.1-.1v-.2l-.1-.1zm.5 0-.1.1v.2l.1.1.1-.1v-.2l-.1-.1zm.5 0-.1.1v.2l.1.1.1-.1v-.2l-.1-.1zm-11.2 0-.1.1v.2l.1.1.1-.1v-.2l-.1-.1zm.5 0-.1.1v.2l.1.1.1-.1v-.2l-.1-.1zm.5 0-.1.1v.2l.1.1.1-.1v-.2l-.1-.1zm.6.7h1.3l.3.3h-1.6V27.1zm1.5 0h2l.3.3h-2l-.3-.3zm4.9 0h.7l.1.1-.1.2H27l-.1-.1-.1-.2zm1.8 0h1.9l.1.2-.1.2h-2s-.1-.1 0-.2c-.1-.2.1-.2.1-.2zm-10.3 0h1.9l.1.2-.1.1h-1.9c-.1 0-.2-.2 0-.3zm7.2.1h1.1v.6h-1.1v-.6zm1.3.3.4.4.1.1.3.3v.4l-.2.3h-.1v-.7l-.5-.4v-.4zm-6.5 0h.7l.3.3h-.9v-.1l-.1-.2zm.9 0h.9l.3.3h-.9l-.3-.3zm1.1 0h1l.3.3h-1l-.3-.3zm1.2 0h.9l.3.3h-.9l-.3-.3zm3.5 0h.4l.1.1v.2h-.2l-.3-.3zm1.5.1h1.9l.2.2-.1.2h-2c-.2-.2-.1-.4 0-.4zm-10.3 0h1.9l.1.2-.1.1h-2l.1-.3zm.1.4h1.8v1.1h-1.8V28zm2 0h.2l.2.4h-.4V28zm.3 0h1.9l.3.4h-2l-.2-.4zm2.2 0h2l.3.4H23l-.2-.4zm4.7 0zm1 0h1.8v1.1h-1.8V28zm-2.5.3h1.1v.6H26v-.6zm-5.7.2h1.5l.3.4h-1.9l.1-.4zm1.7 0h2.2l.4.4h-2.2l-.4-.4zm2.4 0h.9l.4.4h-.9l-.4-.4zm-4.1.5h.8l.3.5h-.9l-.2-.3V29zm1 0h2.2l.4.5h-2.4l-.2-.5zm2.4 0h2.1l.5.5h-2.1l-.5-.5zm2.3 0h1.2l-.4.4h-.4L26 29zm-7.7.2h1.9l.8 1.1h-3.4l.7-1.1zm10.2.1h1.9l.9 1.1h-3.5l.7-1.1zm-7.9.4h2.2l.6.7h-2.3l-.5-.7zm2.4 0h2.3l.7.7h-2.4l-.6-.7zm2.5 0H27l.7.7h-1.6l-.6-.7zm-8.3.8h14.4s.2 0 .2.2H17l.2-.2zm-.3.4h15l.3.1.1.1H16.9c-.1 0-.2-.1 0-.2z" class="st3"/></svg>