<svg xmlns="http://www.w3.org/2000/svg" viewBox="0 0 48 48"><defs><style>.b{fill:#4e5b31}</style></defs><path d="M24 48A24 24 0 1 0 0 24a24 24 0 0 0 24 24Z" style="fill:#fff;fill-rule:evenodd"/><path d="M24.8 37a1.4 1.4 0 0 1-.1 0l-.3-.4-.4-.5-.5-.2-.4-.2.2-.2.7.3h.5l.9.8a8.7 8.7 0 0 0-.5.4m-3.4-1a2.5 2.5 0 0 1-1.3-.3.6.6 0 0 1 .2-.2 1.2 1.2 0 0 1 .7-.2 3.8 3.8 0 0 1 1.5.5 2.3 2.3 0 0 1-1.1.3Zm-2-.3a.3.3 0 0 1-.1-.1.4.4 0 0 1-.1-.2 1 1 0 0 1 0-.3.4.4 0 0 1 .4.3.3.3 0 0 1 0 .2.2.2 0 0 1-.1 0Zm3.4-.4a2.3 2.3 0 0 1-1.8-.9 1 1 0 0 1-.2-.6.7.7 0 0 1 .2 0c.3 0 1 .1 1.8 1.5Zm-2.3-.2a2 2 0 0 1-1-.3.7.7 0 0 1-.3-.2.4.4 0 0 1 0-.2 1.4 1.4 0 0 1 .5 0 2.1 2.1 0 0 1 1.5.6 5.7 5.7 0 0 1-.7 0Zm-2.3-.1a2.4 2.4 0 0 1-1.6-.6 5 5 0 0 1 1-.1h.1a1.8 1.8 0 0 1 1 .2.3.3 0 0 1 .2.2.1.1 0 0 1 0 .2 1 1 0 0 1-.6 0Zm-1.6-.8a.2.2 0 0 1-.1-.1.4.4 0 0 1-.1-.2.9.9 0 0 1 0-.2.2.2 0 0 1 .2 0 .4.4 0 0 1 .1.2.3.3 0 0 1 0 .2Zm3.7-.1a.3.3 0 0 1-.2-.1.4.4 0 0 1 0-.2 1 1 0 0 1 0-.3.4.4 0 0 1 .4.3.3.3 0 0 1 0 .2.2.2 0 0 1-.2 0Zm-1.8-.1a2.7 2.7 0 0 1-1.7-.5 1.2 1.2 0 0 1-.3-.4.7.7 0 0 1 0-.1.9.9 0 0 1 .2 0 2.5 2.5 0 0 1 1.8 1Zm1.1-.1a2.4 2.4 0 0 1-1.5-.7 1.5 1.5 0 0 1-.3-.6 1.2 1.2 0 0 1 .2 0h.1a1.6 1.6 0 0 1 1.5 1.3Zm-4.1-.4a3.1 3.1 0 0 1-.8 0 1 1 0 0 1-.6-.5.4.4 0 0 1-.1-.1 2.9 2.9 0 0 1 .7-.2 2.8 2.8 0 0 1 .5 0 1.7 1.7 0 0 1 1 .7 3.1 3.1 0 0 1-.7.1Zm1.9-.7a.3.3 0 0 1-.2 0 .4.4 0 0 1-.1-.2 1 1 0 0 1 0-.3.4.4 0 0 1 .4.3.3.3 0 0 1 0 .2.1.1 0 0 1-.1 0Zm-1.4-.2a3 3 0 0 1-.8-.3 1.6 1.6 0 0 1-.8-1.2 1 1 0 0 1 .7.2 3.3 3.3 0 0 1 .9 1.3Zm.9 0a2.5 2.5 0 0 1-.6-.4 3.8 3.8 0 0 1-1-1.5.5.5 0 0 1 .1 0 1 1 0 0 1 .7.4 4.2 4.2 0 0 1 .8 1.5Zm-2.4 0a.4.4 0 0 1-.4-.3.5.5 0 0 1 0-.2.6.6 0 0 1 .6.2v.2h-.2Zm-.7-1a4 4 0 0 1-.7 0 .7.7 0 0 1-.5-.4 1.6 1.6 0 0 1-.1-.4 2 2 0 0 1 1.4.4.7.7 0 0 1 .2.5H14Zm1-.8-.3-.3a1 1 0 0 1-.2-.4v-.9a.8.8 0 0 1 .5.7v1Zm-.7 0a2.6 2.6 0 0 1-.8-.3 3 3 0 0 1-.7-.6 1.3 1.3 0 0 1-.2-.7 2.7 2.7 0 0 1 0-.5.7.7 0 0 1 .4.2 3.1 3.1 0 0 1 .4.3 6.3 6.3 0 0 1 .5.5l.3.6a1.8 1.8 0 0 1 .1.3.2.2 0 0 1 0 .1Z" class="b"/><path d="M23.2 37a1.4 1.4 0 0 0 .1 0l.3-.4.4-.5.5-.2.4-.2-.2-.2-.7.3h-.5l-.9.8a8.7 8.7 0 0 1 .5.4m3.4-1a2.5 2.5 0 0 0 1.3-.3.6.6 0 0 0-.2-.2 1.2 1.2 0 0 0-.7-.2 3.8 3.8 0 0 0-1.5.5 2.3 2.3 0 0 0 1.1.3Zm2-.3a.3.3 0 0 0 .1-.1.4.4 0 0 0 .1-.2 1 1 0 0 0 0-.3.4.4 0 0 0-.4.3.3.3 0 0 0 0 .2.2.2 0 0 0 .1 0Zm-3.4-.4a2.3 2.3 0 0 0 1.8-.9 1 1 0 0 0 .2-.6.7.7 0 0 0-.2 0c-.3 0-1 .1-1.8 1.5Zm2.3-.2a2 2 0 0 0 1-.3.7.7 0 0 0 .3-.2.4.4 0 0 0 0-.2 1.4 1.4 0 0 0-.5 0 2.1 2.1 0 0 0-1.5.6 5.7 5.7 0 0 0 .7 0Zm2.3-.1a2.4 2.4 0 0 0 1.6-.6 5 5 0 0 0-1-.1h-.1a1.8 1.8 0 0 0-1 .2.3.3 0 0 0-.2.2.1.1 0 0 0 0 .2 1 1 0 0 0 .6 0Zm1.6-.8a.2.2 0 0 0 .1-.1.4.4 0 0 0 .1-.2.9.9 0 0 0 0-.2.2.2 0 0 0-.2 0 .4.4 0 0 0-.1.2.3.3 0 0 0 0 .2Zm-3.7-.1a.3.3 0 0 0 .2-.1.4.4 0 0 0 0-.2 1 1 0 0 0 0-.3.4.4 0 0 0-.4.3.3.3 0 0 0 0 .2.2.2 0 0 0 .2 0Zm1.8-.1a2.7 2.7 0 0 0 1.7-.5 1.2 1.2 0 0 0 .3-.4.7.7 0 0 0 0-.1.9.9 0 0 0-.2 0 2.5 2.5 0 0 0-1.8 1Zm-1.1-.1a2.4 2.4 0 0 0 1.5-.7 1.5 1.5 0 0 0 .3-.6 1.2 1.2 0 0 0-.2 0h-.1a1.6 1.6 0 0 0-1.5 1.3Zm4.1-.4a3.1 3.1 0 0 0 .8 0 1 1 0 0 0 .6-.5.4.4 0 0 0 .1-.1 2.9 2.9 0 0 0-.7-.2 2.8 2.8 0 0 0-.6 0 1.7 1.7 0 0 0-1 .7 3.1 3.1 0 0 0 .8.1Zm-1.9-.7a.3.3 0 0 0 .2 0 .4.4 0 0 0 .1-.2 1 1 0 0 0 0-.3.4.4 0 0 0-.4.3.3.3 0 0 0 0 .2.1.1 0 0 0 .1 0Zm1.4-.2a3 3 0 0 0 .8-.3 1.6 1.6 0 0 0 .8-1.2 1 1 0 0 0-.7.2 3.3 3.3 0 0 0-.9 1.3Zm-.9 0a2.5 2.5 0 0 0 .6-.4 3.8 3.8 0 0 0 1-1.5.5.5 0 0 0-.1 0 1 1 0 0 0-.7.4 4.2 4.2 0 0 0-.8 1.5Zm2.4 0a.4.4 0 0 0 .4-.3.5.5 0 0 0 0-.2.6.6 0 0 0-.6.2v.2h.2Zm.7-1a4 4 0 0 0 .7 0 .7.7 0 0 0 .5-.4 1.6 1.6 0 0 0 .1-.4 2 2 0 0 0-1.4.4.7.7 0 0 0-.2.5h.3Zm-1-.8.3-.3a1 1 0 0 0 .2-.4v-.9a.8.8 0 0 0-.5.7v1Zm.7 0a2.6 2.6 0 0 0 .8-.3 3 3 0 0 0 .7-.6 1.3 1.3 0 0 0 .2-.7 2.7 2.7 0 0 0 0-.5.7.7 0 0 0-.4.2 3.1 3.1 0 0 0-.4.3 6.3 6.3 0 0 0-.5.5l-.3.6a1.8 1.8 0 0 0-.1.3.2.2 0 0 0 0 .1Z" class="b"/><path d="M41.6 11.6h-.4l-.2.1-.3.2h-.2l-.1.2-.1.1H40l-.2.2-.2-.1h-.2l-.2.3h-.4l-.2.1h-.2v.1l-.1.2-.2.1H38v.2H37.6v.2h-.5l-.2.1h-.1v.1h-.2v.1H36l-.1.2h-.1l-.2.3-.3.3-.3.1h-.2l-.2.2-.5.3-.8.4H33l-.4.2-.4.1-.6.2h-1.1l-.3.1-.5.3-.1.1-.3.2H28.4l-.5.2h-.6l-.3.1h-2.6V17h-.9l-.3-.1v-.1H22.3l-.6-.1h-.2l-.1.1H20.9l-.2-.1h-.3l-.4-.2-.4-.3-.3-.1h-.1v.7l.2.1v1.4l-.1.3v.3l-.3.7-.2.2-.3.2-.3.2H17.5l-.1-.1-.2-.2H17l-.2-.2h-.2l-.2-.1H16l-.3-.2h-.4l-.1.1h-.1l-.2.1H14.6v.1h-.2v.1H14.1v.2H14l-.1.2-.1.1-.2.6-.2.2-.2.2h-.1l-.3.3-.3.1H11.6l-.2-.1-.2-.2-.4-.4-.2-.1h-.1v.8l.2.4.1.2.1.2.1.3v.2l-.1.2.2.3v.6l.2.2.1.3H11.7l.1.1.1.1h.1v.3l.1.3v.2l.1.2v.4h.4v.3h.2l.4.3h.1l.1.1h.6l.3.2h.2l.2.2h.2v.1h.1l.2.2H15.5l.3.2h.4l.1.1h.5l.2-.2h.2l.3-.1h.1l.3-.1h.7l.1.1.1.2h.2v.2l.2.2.2.4v.4h.9l.3.1h.1v-.2l-.2-.2-.1-.2v-.7l.1-.1.3-.2.2-.2.2-.1.2-.1.6-.2h1.8l.1-.1.2-.1H24.7l.3-.2h.1l.3-.2h.3l.3-.2.2-.1.1-.1H27v-.2h.3v-.2h.2v-.1l.1-.1.1-.1h.8v-.3h.2l.2-.4v-1l.2-.3.2-.2.2-.1.2-.1h1.5l.1.1.2.2.2.1.2.1h.2l.1-.1.2-.1v-.2h.1l.3-.1h.3l.2-.2.2.1h.5l.2.1h.1l.4.2H35h-.2v-.4l-.1-.2-.1-.1-.3-.5-.4-.3-.2-.1-.2-.3-.2-.2-.1-.3-.2-.1v-.1l-.4-.4v-.1h-.2l.1-.1v-1.2l.2-.4.1-.1.2-.2v-.2l.2-.1.2-.1h1.1l.1-.1.2-.4v-.2l.4-.4.2-.2.6-.5.3-.1.1-.1 1.3-.6.3-.3.2-.2.3-.2.4-.1.3-.3.1-.3h.1v-.2l.3-.2 1-.5h.2v-.1h.3l.2-.1V12l.1-.2v-.1h.2v-.1Z" style="fill:#d57800"/></svg>