<svg xmlns="http://www.w3.org/2000/svg" xml:space="preserve" id="svg1306" x="0" y="0" style="enable-background:new 0 0 48 48" version="1.1" viewBox="0 0 48 48"><style>.st1{fill-rule:evenodd;clip-rule:evenodd;fill:#ff0}</style><circle cx="24" cy="24" r="24" style="fill-rule:evenodd;clip-rule:evenodd;fill:#ee1c25"/><path d="m7.9 17.4 1.6-4.8-4.1-3h5L12 4.8l1.6 4.8h5l-4.1 3 1.6 4.8-4.1-3zM21.9 20l1.7.7 1.2-1.5-.1 1.9 1.7.7-1.8.4-.1 1.8-1-1.5-1.8.4 1.2-1.4zM31.1 10.8l-1.8-.4-.8 1.7-.3-1.9-1.8-.3 1.7-.8-.3-1.8 1.3 1.3 1.6-.8-.8 1.6zM27.3 19l.6-1.8-1.5-1.1h1.8l.6-1.7.6 1.7h1.8l-1.5 1.1.6 1.8-1.5-1.1zM22 3l1.7.8L25 2.5l-.3 1.8 1.7.8-1.8.3-.2 1.9-.9-1.6-1.8.3 1.2-1.4z" class="st1"/></svg>