<svg xmlns="http://www.w3.org/2000/svg" viewBox="0 0 48 48"><defs><style>.a,.c{fill:#fff}.c,.f{stroke:#c09300;stroke-linejoin:round;stroke-width:.1px}.d,.k{fill:#c09300}.f{fill:none}.k{fill-rule:evenodd}</style></defs><circle cx="24" cy="24" r="24"/><path d="M48 24a23.6 23.6 0 0 1-1.4 8H1.4A23.6 23.6 0 0 1 0 24a24 24 0 0 1 48 0Z" class="a"/><path d="M46.6 16H1.4a24 24 0 0 1 45.2 0Z" style="fill:#ce1126"/><path d="m24 24.2 5.5 5-.3-9.2c-.1-1.4-1.3-1-2.2-.5a3.3 3.3 0 0 1-3 .2 3.3 3.3 0 0 1-3-.2c-.9-.5-2.1-.9-2.2.5l-.3 9.3Z" class="c"/><path d="m19.5 19.7-.4 9-.6.6.3-9.3a2 2 0 0 1 .7-.3Zm.7.7-.3 7.5-.6.6.4-8.6.5.5Zm.7.5-.2 6.3-.5.5.3-7.1.4.3Zm.8.4-.2 5.3-.6.4.3-6a1.8 1.8 0 0 0 .5.3Zm.7 0-.2 4.4-.5.5.2-4.9a1.3 1.3 0 0 0 .5 0ZM28.5 19.7l.4 9 .6.6-.3-9.3a2 2 0 0 0-.7-.3Zm-.7.7.3 7.5.6.6-.4-8.6-.5.5Zm-.7.5.2 6.3.5.5-.3-7.1-.4.3Zm-.8.4.2 5.3.6.4-.3-6a1.8 1.8 0 0 1-.5.3Zm-.7 0 .2 4.4.5.5-.2-4.9a1.3 1.3 0 0 1-.5 0Z" class="d"/><path d="m24.3 25.2.7 3.5-.2.3-.3-.2-.4-3.2.2 3.2-.3.3-.3-.3.2-3.2-.4 3.2-.3.2-.2-.3.7-3.5Z" style="fill:#c09300;stroke-width:.1px;stroke-linejoin:round;stroke:#c09300"/><path d="M22.3 23.7 20.8 29l2 .3 1-4-1.5-1.7Z" class="c"/><path d="m21.8 25.5.2.5 1-1" class="f"/><path d="m22.5 24.4.2 2 .6-.9m-.3.3.4 1.2m.1-.4-.7 1m.2 1.1-.2-1-.2-1.1-.4.6-.2-.7-.7.6.3 1.3.5-.8.2.8.5-.7M21.2 29l.4-.6.3.9.4-.7.2.8" class="f"/><path d="m25.7 23.7 1.5 5.4-2 .3-1-4 1.5-1.7Z" class="c"/><path d="m26.2 25.5-.2.5-1-1" class="f"/><path d="m25.5 24.4-.2 2-.6-.9m.3.3-.4 1.2m-.1-.4.7 1m-.2 1.1.2-1 .2-1.1.4.6.2-.7.7.6-.3 1.3-.5-.8-.2.8-.5-.7m1.6 1.3-.4-.6-.3.9-.4-.7-.2.8" class="f"/><path d="M24 31.5a17 17 0 0 0 4-.4c.4 0 .4-.2.4-.5.4-.1.2-.6.4-.6-.2.1-.3-.4-.6-.3 0-.5-.4-.5-.8-.4a12.7 12.7 0 0 1-3.4.3 15.8 15.8 0 0 1-3.4-.3c-.4-.1-.8 0-.8.4-.3-.1-.4.4-.6.3.2 0 0 .5.4.6 0 .3 0 .5.4.5a16.7 16.7 0 0 0 4 .4Z" style="stroke-width:.2px;stroke-linejoin:round;stroke:#c09300;fill:#fff"/><path d="M21.8 29a6.4 6.4 0 0 0 1.6.2c.2 0 .4.4-.1.5a6 6 0 0 1-1.5-.1l-1.5-.3c-.4-.2-.1-.6.1-.5a8.4 8.4 0 0 0 1.4.3Zm4.4 0a6.4 6.4 0 0 1-1.6.2c-.2 0-.4.4.1.5a6 6 0 0 0 1.5-.1l1.5-.3c.4-.2.1-.6-.1-.5a8.4 8.4 0 0 1-1.4.3Z" class="c"/><path d="M20.2 28.8a.4.4 0 0 0-.4.7c0-.2.3-.2.4-.3v-.4Zm1.6 1.2c0-.2.2-.2.2-.5 0 0 0-.3-.2-.3a.3.3 0 0 0-.2.3l.2.5Zm1.8-.7c.4 0 .3.5.1.7l-.3-.3c0-.2.3-.2.2-.4Zm4.2-.5a.4.4 0 0 1 .4.7c0-.2-.3-.2-.4-.3v-.4ZM26.2 30c0-.2-.2-.2-.2-.5 0 0 0-.3.2-.3a.3.3 0 0 1 .2.3l-.2.5Zm-1.8-.7c-.4 0-.3.5-.1.7l.3-.3c0-.2-.3-.2-.2-.4ZM20.4 29a.6.6 0 0 1 .4 0h-.4Zm.6.2a1.4 1.4 0 0 1 .5 0H21Zm2.3.2a1 1 0 0 0-.4 0h.4Zm-.7 0a.5.5 0 0 0-.4 0h.4Zm5-.4a.7.7 0 0 0-.4 0Zm-.6.2a1.4 1.4 0 0 0-.5 0h.5Zm-2.3.2a1 1 0 0 1 .4 0h-.4Zm.7 0a.5.5 0 0 1 .4 0h-.4Z" class="c"/><path d="M20.3 30v-.1Zm4.4.3a.1.1 0 0 1 0-.2v.2Zm0 .2v-.2l.1.1h-.1Zm-4-.9a.2.2 0 0 0-.2 0h-.1l-.2.1H20.5v.3a.2.2 0 0 0-.2 0 .2.2 0 0 0-.1.1.4.4 0 0 0-.1.2h.1l.2.1h.2l.4.2.1-.1.1-.3s0-.1 0 0a.3.3 0 0 1-.1 0c-.1 0 0 0 0 0a.2.2 0 0 1 0 .2H20.7v-.2a.6.6 0 0 0 0-.2s-.2 0-.1.1v.2h-.2v-.4a.5.5 0 0 1 .1-.1v-.2Zm-.4.6Zm0 .4v-.1.1Zm.2 0Zm7.1 0h.2-.1c-.1 0 0 0 0 0Zm-6.8.2v-.1h.1Zm1.8 0a.5.5 0 0 1 0-.1.8.8 0 0 1 0-.1V30a.7.7 0 0 0 .2.1v.4a.8.8 0 0 0-.1.2.1.1 0 0 1 0 .2h-.1Zm2.3-.7c-.1 0 0 .1 0 .1a.8.8 0 0 1 0 .2.4.4 0 0 1 0 .1l-.2.2a.3.3 0 0 0 0 .1v.1a.3.3 0 0 0 .2 0 2.3 2.3 0 0 1 .3 0h.2V30.6a1 1 0 0 1 0-.1h-.2a.4.4 0 0 1 0 .2h-.1v-.3l-.1-.3Zm0 .6a.3.3 0 0 1 0 .1Zm-2.4-.7h-.1v.1a.3.3 0 0 1 0 .1V30.8h-.2v-.2H22c.2 0 .1-.2.1-.2l-.1-.1a.2.2 0 0 0-.1-.2.2.2 0 0 0-.2.2l-.2.1.2.1a.1.1 0 0 1-.2 0h-.1a.7.7 0 0 0 0-.2h-.1a.1.1 0 0 0 0 .2.2.2 0 0 1 0 .2h-.2s-.2 0-.1.1a.4.4 0 0 0 .2 0 .2.2 0 0 0 .1 0l.2-.1h.2s.1-.1.1 0a.1.1 0 0 0 .1 0c.1 0 0 .1 0 .2a.2.2 0 0 0 .2.1l.2-.1a1.5 1.5 0 0 0 0-.2 2.2 2.2 0 0 0 0-.3l.1-.2V30Zm-.5.3v.1a.1.1 0 0 1-.1 0s0-.1 0 0Zm5.2-.6c-.2 0-.2 0-.1.1 0 .1 0 0 .2 0l.1.2a1.2 1.2 0 0 0 0 .3c.1.1 0 .2 0 0H27l-.1.2-.2-.1-.2-.1V30l-.1.2-.1.2a.4.4 0 0 0 0 .2l-.2-.1c0-.1-.1 0-.2 0l-.1.1a1.5 1.5 0 0 0 0 .2h.1c.1 0 .1 0 0 .1l-.1.1a.7.7 0 0 0 .1 0 .2.2 0 0 0 .2-.2h.7a.2.2 0 0 0 0-.1h.4l.2-.2h.4c.1-.1 0-.2 0-.2h-.3v-.2a.6.6 0 0 0-.2-.4.2.2 0 0 0-.2 0Zm-.5.7a.1.1 0 0 1 0 .1Zm.5 0v.2-.1Zm-.7 0v.2-.1Zm-.4.2H26Zm.7 0v.1Zm-1.4.5a.1.1 0 0 1 0-.1.3.3 0 0 0 .2 0v-.2a.1.1 0 0 0 0-.1l-.1-.1v-.2h.1a.3.3 0 0 1 0 .1.2.2 0 0 1 .1.1v.2a.3.3 0 0 1 0 .1.3.3 0 0 1 0 .1h-.1a.7.7 0 0 1-.2 0Zm-.5 0V31H25.3v.1H25a.2.2 0 0 0-.1 0h-.1Zm-1.6-.7a.1.1 0 0 0-.1 0v.3h-.1a1.2 1.2 0 0 0-.1-.2l-.1.1v.2a.2.2 0 0 1 0 .2h-.2c-.1.1 0 .1 0 .1a.3.3 0 0 0 .3 0l.1-.2H23.7a.2.2 0 0 0 .2.2c.2 0 .1-.1.2-.2h.4v-.4h-.2a.2.2 0 0 0-.2.3v-.1l-.2-.1h-.3a1.2 1.2 0 0 1-.2 0v-.2h-.1Zm.2.3h.4v.2a.1.1 0 0 0-.1-.1h-.2a.9.9 0 0 1-.2 0v-.1Zm.9 0c0 .1-.1.1-.1 0Z" class="d"/><path d="M25 20.2V20l.6.1c-.3-.1-.7-1.2-.6-2 0-.9-.1-1.2-.3-1.3a2 2 0 0 0-1-.4c-.2 0-.1.2-.1.2a1.3 1.3 0 0 0-1 0v.5c.3-.2.5 0 .7.2a2.1 2.1 0 0 1 0 1.5 4.9 4.9 0 0 1-.9 1.4 1.9 1.9 0 0 0 .8-.3l-.1.4a2.7 2.7 0 0 0 .6-.4l.3.4a3.3 3.3 0 0 1 .3-.4 1.2 1.2 0 0 0 .7.3Z" style="stroke-width:.1px;stroke:#c09300;fill:#fff"/><path d="M23.7 18.2a4.8 4.8 0 0 1-.5 1.7m.8-1.7a6.5 6.5 0 0 1-.3 1.7m.5-1.7a12.8 12.8 0 0 0 .1 1.7m.2-1.6A4.7 4.7 0 0 0 25 20" style="fill:none;stroke-width:.1px;stroke:#c09300"/><path d="M23.4 17.6a.6.6 0 0 0-.1-.3c-.2-.2-.4-.4-.7-.2 0 0 .1-.3.3-.3.2 0 .5.1.8.6h-.3v.2Zm-.8-.9a.3.3 0 0 1 0-.1 1.3 1.3 0 0 1 1 0s0-.2.1-.2a2 2 0 0 1 1 .4.6.6 0 0 1 .2.2l-.4-.1a1.4 1.4 0 0 0-.3 0 .5.5 0 0 0-.1 0l-.2.2-.1-.1c-.1 0-.3 0-.4-.2a.5.5 0 0 0-.5-.2.4.4 0 0 0-.3.2Z" class="d"/><circle cx="23.9" cy="16.9" r=".1" class="a"/><path d="M24 26.2a6 6 0 0 0 2.4-5 1 1 0 0 1-.2 0 3.9 3.9 0 0 1-2.2-.7 4.4 4.4 0 0 1-2.2.7 1 1 0 0 1-.2 0 6 6 0 0 0 2.4 5Z" style="stroke-miterlimit:10;stroke-width:.1px;stroke:#c09300;fill:#fff"/><path d="M23.3 21.2v4A5.7 5.7 0 0 1 22 23a6.4 6.4 0 0 1-.2-1.1v-.4a5 5 0 0 0 1.5-.2Z" class="k"/><path d="M24.7 21.2v4a6 6 0 0 1-.7.7 5.3 5.3 0 0 1-.7-.7v-4a3.3 3.3 0 0 0 .7-.4 2.2 2.2 0 0 0 .7.4Z" style="fill-rule:evenodd;fill:#fff"/><path d="M26.2 21.4v.4a6.5 6.5 0 0 1-.2 1.1 5.7 5.7 0 0 1-1.3 2.3v-4a5 5 0 0 0 1.4.3Z" class="k"/><path d="M26.2 21.4a4.3 4.3 0 0 1-2.2-.6 4.8 4.8 0 0 1-2.1.6v.4a5.8 5.8 0 0 0 .1 1.1 5.7 5.7 0 0 0 2 3 5.7 5.7 0 0 0 2-3 5.9 5.9 0 0 0 .2-1.1v-.4Z" style="stroke-width:.06px;stroke-miterlimit:10;fill:none;stroke:#c09300"/></svg>