<svg xmlns="http://www.w3.org/2000/svg" viewBox="0 0 48 48"><defs><style>.b{fill:#fcdd09}</style></defs><circle cx="24" cy="24" r="24" fill="#da121a"/><path d="M48 24a23.6 23.6 0 0 1-1.4 8H1.4A23.6 23.6 0 0 1 0 24a24 24 0 0 1 48 0Z" class="b"/><path fill="#078930" d="M46.6 16H1.4a24 24 0 0 1 45.2 0Z"/><circle cx="24" cy="24" r="16" fill="#0f47af"/><path d="m27.2 19.1 4-5.6.5.3-4 5.6z" class="b"/><path d="m24 11.2-.6 1.7 2.4 7.1h-3.1l-.4 1.1h10l1.4-1h-6.8ZM29.5 26l.1-.4 6.6 2.1-.2.5z" class="b"/><path d="M36.2 20h-1.8l-6.1 4.4-1-2.9h-1l3 9.4 1.5 1-2.2-6.4ZM23.7 29.9h.5v6.9h-.5z" class="b"/><path d="m31.5 34.4-.5-1.8-6-4.4 2.4-1.8-.3-1-8 5.8-.6 1.7 5.5-4ZM11.8 27.7l6.5-2.2.2.5-6.6 2.1z" class="b"/><path d="m16.5 34.4 1.4-1.1 2.4-7.1 2.5 1.8.9-.7-8-5.8h-1.9l5.6 4ZM16.2 13.8l.4-.3 4 5.6-.3.3z" class="b"/><path d="m11.8 20 1.5 1.1h7.5l-1 3 1 .6 3-9.4-.6-1.7-2 6.4Z" class="b"/></svg>