<svg xmlns="http://www.w3.org/2000/svg" viewBox="0 0 48 48"><defs><style>.a{fill:#171796}.e{fill:#fff}.i,.j{fill-rule:evenodd}.d{fill:red}.f{fill:#0093dd}.h,.i{fill:#f7db17}</style></defs><circle cx="24" cy="24" r="24" class="a"/><path d="M48 24a23.6 23.6 0 0 1-1.4 8H1.4A23.6 23.6 0 0 1 0 24a24 24 0 0 1 48 0Z" style="fill-rule:evenodd;fill:#fff"/><path d="M46.6 16H1.4a24 24 0 0 1 45.2 0Z" style="fill:red;fill-rule:evenodd"/><path d="M24 36.4a9.4 9.4 0 0 0 9.3-9.3V16H14.7v11a9.4 9.4 0 0 0 9.3 9.4Z" class="d"/><path d="M24 36.3a9.2 9.2 0 0 0 9.2-9.2v-11H14.8v11a9.2 9.2 0 0 0 9.2 9.2Z" class="e"/><path d="M18.7 16.5h-3.5v3.9h3.5ZM18.7 24.3h3.5v-4h-3.5ZM15.2 27a8.8 8.8 0 0 0 0 1.1h3.5v-3.8h-3.5ZM25.8 24.3h-3.6V28h3.6ZM25.8 32h3.5v-3.9h-3.5ZM29.3 34.1a9 9 0 0 0 2-2.1h-2ZM18.7 32h3.5v-3.9h-3.5ZM16.7 32a9 9 0 0 0 2 2.1V32ZM24.6 35.9a8.7 8.7 0 0 0 1.2-.2V32h-3.6v3.7a8.7 8.7 0 0 0 1.2.2 10.3 10.3 0 0 0 1.2 0ZM32.7 28.1a8.8 8.8 0 0 0 .1-1v-2.8h-3.5V28h3.4ZM25.8 24.3h3.5v-4h-3.5ZM25.8 16.5h-3.6v3.9h3.6Z" class="d"/><path d="M32.8 20.4v-3.9h-3.5v3.9Z" class="d"/><path d="m33 15.9 2.2-5-1.7-2.7-2.7 1-2-2.1-2.5 1.4L24 6.7l-2.3 1.8-2.5-1.4-2 2.2-2.7-1-1.7 2.6 2.2 5a21.9 21.9 0 0 1 18 0Z" class="e"/><path d="m17.3 9.5-2.7-1-1.6 2.4.6 1.4 1.5 3.3a22 22 0 0 1 3.5-1.1l-1.3-5Z" class="f"/><path d="M17.1 12a1.3 1.3 0 0 1 .2.5 1.3 1.3 0 0 1-2.7.3 1.3 1.3 0 0 0 2.5-.9Z" style="stroke:#000;stroke-miterlimit:10;stroke-width:.35px;fill:#fff"/><path d="m15.9 10.1-.1.5.4.3-.5.2-.1.5-.4-.4-.4.2.1-.5-.4-.3.5-.2v-.5h.1l.3.3.5-.1z"/><path d="m15.4 10.8.3.3.4-.2ZM15.4 10.7l.7.2-.3-.3ZM14.5 10.6l.8.1-.3-.3ZM15.3 10.7l-.8-.1.4.3ZM15.3 10.7l.6-.6-.5.2ZM14.8 11.4l.5-.6-.4.1ZM15.3 10.8l-.5.6.4-.2Z" class="h"/><path d="m15.9 10.1-.5.6.4-.1ZM15.3 10.7l-.2-.7-.1.4ZM15.6 11.5l-.3-.7v.4ZM15.4 10.8l.2.7.1-.4Z" class="h"/><path d="m15 10 .3.7.1-.4Z" class="h"/><path d="m21.8 8.7-2.6-1.4-1.9 2.2 1.3 5a22 22 0 0 1 3.6-.7l-.4-5Z" class="a"/><path d="M18.2 13.2a23.2 23.2 0 0 1 3.9-.6l-.1-1.3a24.6 24.6 0 0 0-4 .7l.2 1.2ZM17.6 10.7A25.8 25.8 0 0 1 22 10l-.1-1.3a27 27 0 0 0-4.5.8Z" class="d"/><path d="M26.3 8.7 24 7l-2.3 1.8.5 5.1a22 22 0 0 1 3.6 0l.5-5Z" class="f"/><path d="m24 11-.2.2v.2h-.3v-.2a.2.2 0 0 1-.2 0l.1.3.1.1a.4.4 0 0 0-.2 0 .5.5 0 0 0 0 .4 6 6 0 0 0-.1 0 .3.3 0 0 0 .2.2.2.2 0 0 0-.1.1.1.1 0 0 1 0 .1.2.2 0 0 0 .2 0 .3.3 0 0 0 0 .3.2.2 0 0 1 0 .1.4.4 0 0 0 .2 0 .6.6 0 0 0 0 .2.4.4 0 0 1 .2-.1v.1l.2-.1a.3.3 0 0 1 .1.1.7.7 0 0 0 0-.2.4.4 0 0 0 .3 0 .2.2 0 0 0 0-.1.2.2 0 0 0 .1 0 .3.3 0 0 0 0-.2.3.3 0 0 0 .2 0 .1.1 0 0 1 0-.2.2.2 0 0 0-.2-.1.3.3 0 0 0 .2-.2h-.2a.5.5 0 0 0 .2-.4.1.1 0 0 1-.1 0 .4.4 0 0 0-.2 0v-.1l.3-.3h-.1a.2.2 0 0 1-.1 0l-.1.1-.2.1v-.1h-.1L24 11Z"/><path d="M24.6 11.4ZM23.4 11.4ZM24.5 11.6ZM23.5 11.6ZM24.5 11.5a4.5 4.5 0 0 0-.5 0 4.4 4.4 0 0 1 .5 0Z" class="h"/><path d="M23.5 11.5h.5a4.5 4.5 0 0 1 .5 0v-.1c0-.1 0 0 .1 0l.1-.2a.3.3 0 0 1-.1 0l-.1.1-.2.1h-.1v-.1L24 11l-.1.1v.1h-.1v.1h-.2l-.2-.1a.3.3 0 0 1-.1 0h.1v.2ZM24.5 11.7a.2.2 0 0 0-.1 0h-.8a.1.1 0 0 1 .1 0 .2.2 0 0 0-.1 0 .4.4 0 0 0-.2 0 .3.3 0 0 1-.1 0 .2.2 0 0 0 0 .1.2.2 0 0 0 .1 0v.1a.2.2 0 0 1 0-.1.1.1 0 0 1-.1 0 .2.2 0 0 1 0-.1.5.5 0 0 0 0 .2.2.2 0 0 0 .1 0v.1l.1.1a.5.5 0 0 0-.2 0 .2.2 0 0 1 .1 0 .3.3 0 0 1-.1 0 .3.3 0 0 0 .1 0l.1.1c.1.1 0 0 0 0a.1.1 0 0 0-.2.1.1.1 0 0 1 .2 0 .1.1 0 0 0-.1 0 .1.1 0 0 1-.1.1.2.2 0 0 1 .1 0 .1.1 0 0 1 .1 0 .2.2 0 0 1 .1 0h-.1a.2.2 0 0 0 0 .1.3.3 0 0 0 0 .1.1.1 0 0 1 .1 0 .6.6 0 0 0-.2 0 .3.3 0 0 0 .2 0 .7.7 0 0 1 0 .2.2.2 0 0 1 0-.1.2.2 0 0 1 .1 0 .2.2 0 0 1-.1.1h.1a.1.1 0 0 1 .1-.1.7.7 0 0 1 0 .1.5.5 0 0 0 0 .2.8.8 0 0 0 0-.1.4.4 0 0 0 0-.1v.1a.2.2 0 0 0 0-.1h.1v.1a.1.1 0 0 1 .1 0 .2.2 0 0 0 0-.1.4.4 0 0 1 0 .2.2.2 0 0 0 .1-.1.2.2 0 0 1 0-.1.2.2 0 0 0 0 .1.4.4 0 0 1 0-.1s.1 0 .1 0a.8.8 0 0 0 0 .1v-.2c0-.1 0 0 0 0v.1a.3.3 0 0 0 .2 0s-.1 0 0 0a.2.2 0 0 0 0-.1.2.2 0 0 0-.1 0 .2.2 0 0 1 .1 0 .1.1 0 0 0 0 .1.7.7 0 0 1 0-.1c0-.1 0 0 0 0a.3.3 0 0 0 .2 0 .6.6 0 0 0-.1-.1h-.1a.1.1 0 0 1 .1 0 .2.2 0 0 0 0-.1.4.4 0 0 1 0 .1.2.2 0 0 0 0-.1v-.1c0-.1 0 0 0 0a.3.3 0 0 0 .2 0 .2.2 0 0 0-.1 0 .7.7 0 0 1 .1 0 .4.4 0 0 0 0-.1.1.1 0 0 0-.2 0 .1.1 0 0 1 .1 0v-.1c0-.1 0 0 0 0a.3.3 0 0 0 .2-.2.3.3 0 0 1-.1 0 .2.2 0 0 0 0 .1.1.1 0 0 0-.1 0 .3.3 0 0 0 .1 0 .5.5 0 0 0-.1 0V12a.5.5 0 0 0 .2-.3.1.1 0 0 1-.1 0 .2.2 0 0 1 0 .1.2.2 0 0 1-.2.1.2.2 0 0 0 .1 0 .2.2 0 0 0 0-.2.2.2 0 0 1 0 .1.1.1 0 0 0 .1 0 .2.2 0 0 0 0-.1.4.4 0 0 0-.2 0Z" class="h"/><path d="M24.5 11.7a3.8 3.8 0 0 0-.5 0 4.7 4.7 0 0 0-.5 0h.5a4.1 4.1 0 0 1 .5 0Z" class="h"/><path d="M23.5 11.6a4.7 4.7 0 0 1 .5 0 3.7 3.7 0 0 1 .5 0 4.5 4.5 0 0 0-.5 0h-.5Zm.8 0Zm0 0Zm-.3 0Zm0 0Zm-.3 0Zm0 0Z" class="i"/><path d="M24 11.4v-.1a.2.2 0 0 0 0-.1v.1Zm0 0v-.1ZM24.2 12.6h-.1.1Zm0-.1h-.1.1Zm-.4 0h.1-.1Zm0 0h.1v.1c0 .1 0 0 0 0h-.1Zm0 .1a.2.2 0 0 0 .1 0v-.1a.1.1 0 0 1 0-.1.3.3 0 0 0 .2 0 .3.3 0 0 1-.1 0v.2a.2.2 0 0 0 .1 0h-.2Zm.1 0h.1v.1c0 .1 0 0 0 0ZM24 12a.6.6 0 0 1 .2-.1.6.6 0 0 0-.1 0Zm0 0a.5.5 0 0 0-.2-.1.5.5 0 0 1 .1 0Zm-.1.2Zm0-.4a.2.2 0 0 1 .1 0 .2.2 0 0 1 0 .1.1.1 0 0 1 0 .1h-.1a.1.1 0 0 1 0 .1.3.3 0 0 1-.1 0 .2.2 0 0 1 0-.1h-.1v-.1c0-.1 0 0 0 0a.3.3 0 0 1 .1 0 .5.5 0 0 1 0 .1h.1a.2.2 0 0 0 0-.1v-.1Zm0 .2a.3.3 0 0 0-.2 0 .3.3 0 0 0 .1 0v.1Zm.2-.2a.2.2 0 0 0 0 .1.1.1 0 0 0 0 .1.4.4 0 0 1 .1 0 .3.3 0 0 1 .1 0 .2.2 0 0 0 0-.1.2.2 0 0 1 0 .1.4.4 0 0 1-.1.1H24a.1.1 0 0 1 0-.1.2.2 0 0 1 0-.1.2.2 0 0 1 0-.1Zm.2.2a.4.4 0 0 0-.2 0 .1.1 0 0 0 0 .1.4.4 0 0 0 .1 0 .2.2 0 0 0 0-.1Z"/><path d="M24.2 12Zm0 0Zm0 0Zm-.4 0Zm0 0Zm0 0Z" class="j"/><path d="m23 8.7-.2.2v.2h-.3V9a.2.2 0 0 1-.2 0c0-.1 0 0 0 0l.1.2.1.2a.4.4 0 0 0-.2 0 .5.5 0 0 0 0 .3 6.5 6.5 0 0 0-.1 0 .3.3 0 0 0 .2.2.2.2 0 0 0 0 .1.1.1 0 0 1-.1.2.2.2 0 0 0 .2 0 .3.3 0 0 0 0 .2.2.2 0 0 1 0 .1.4.4 0 0 0 .3 0 .6.6 0 0 0 0 .2.4.4 0 0 1 .1-.1l.1.1.2-.1a.3.3 0 0 1 0 .1h.1a.7.7 0 0 0 0-.2.3.3 0 0 0 .2 0 .2.2 0 0 0 0-.2.2.2 0 0 0 .1 0 .3.3 0 0 0 0-.1.3.3 0 0 0 .2 0V10a.1.1 0 0 1 0-.1.2.2 0 0 0-.2-.1.3.3 0 0 0 .2-.2h-.2a.5.5 0 0 0 .2-.4.1.1 0 0 1-.1 0 .4.4 0 0 0-.2 0v-.1l.2-.3a.2.2 0 0 1-.1 0l-.1.1-.2.1-.1-.1-.2-.3Z"/><path d="M23.6 9v.1ZM22.4 9v.1c0 .1 0 0 0 0ZM23.5 9.3ZM22.5 9.3ZM23.5 9.2a4.5 4.5 0 0 0-.5 0 4.4 4.4 0 0 1 .5 0Z" class="h"/><path d="M22.5 9.2h.5a4.5 4.5 0 0 1 .5 0V9h.1l.1-.2a.3.3 0 0 1-.1 0l-.1.1-.2.1h-.1V9l-.2-.2-.2.1v.2h-.3V9a.3.3 0 0 1-.2 0l.1.1c0 .1 0 0 0 0v.1ZM23.5 9.4a.2.2 0 0 0-.1 0H23c-.1 0 0 0 0 0h-.4a.1.1 0 0 1 .1 0 .2.2 0 0 0-.1 0v.1c0 .1 0 0 0 0a.4.4 0 0 0-.2-.1.3.3 0 0 1-.1 0 .2.2 0 0 0 0 .2.2.2 0 0 0 .1 0 .2.2 0 0 1 0-.2.2.2 0 0 0 0 .1.3.3 0 0 0 0 .1.2.2 0 0 1 0-.1.1.1 0 0 1-.1 0 .2.2 0 0 1 0-.1.5.5 0 0 0 0 .3.2.2 0 0 0 .1 0l.1.1a.5.5 0 0 0-.1 0h-.2a.3.3 0 0 0 .2 0 .3.3 0 0 1-.1 0 .3.3 0 0 0 .1.1h.1a.1.1 0 0 0-.2.1.4.4 0 0 1 .1 0h.1a.4.4 0 0 0-.2 0 .1.1 0 0 1 0 .2.7.7 0 0 1 .1 0 .3.3 0 0 0 .1 0 .2.2 0 0 1 .1 0 .2.2 0 0 0-.1 0 .3.3 0 0 0 0 .1.2.2 0 0 1 0-.1h.1a.3.3 0 0 0-.1.1.1.1 0 0 1 .1 0 .7.7 0 0 0-.1 0h.2c.1 0 0 0 0 0a.2.2 0 0 0 0 .1.7.7 0 0 1-.1.1.2.2 0 0 1 0-.1.2.2 0 0 1 .2 0 .2.2 0 0 0-.1 0 .2.2 0 0 1 0 .1.1.1 0 0 1-.1 0 .1.1 0 0 0 .1 0h.1a.1.1 0 0 1 0-.1.7.7 0 0 1 0 .1.5.5 0 0 0 0 .2.8.8 0 0 0 0-.1.4.4 0 0 0 0-.1v.1a.2.2 0 0 0 .1 0 .2.2 0 0 0 0-.1l.1.1a.2.2 0 0 0 0-.1.5.5 0 0 1 0 .2.2.2 0 0 0 .1-.1.2.2 0 0 1 0-.1.2.2 0 0 0 .1 0v.1a.4.4 0 0 1 0-.1.7.7 0 0 0 0 .1v-.2l.1.1a.3.3 0 0 0 .1 0 .2.2 0 0 0 0-.1.1.1 0 0 0 .1.1.7.7 0 0 1 0-.1v-.1a.3.3 0 0 0 .1 0 .1.1 0 0 0-.2 0 .1.1 0 0 1 .1 0 .5.5 0 0 1 .1 0 .2.2 0 0 0-.1-.1.4.4 0 0 1 .1 0h-.1a.2.2 0 0 0 0-.1.3.3 0 0 0 .2 0 .2.2 0 0 0-.1 0h.1a.4.4 0 0 0 0-.1.1.1 0 0 0-.1 0 .4.4 0 0 1 .1 0 .1.1 0 0 0-.1-.1.3.3 0 0 0 .2-.2.3.3 0 0 1-.1 0 .1.1 0 0 0-.1.1.3.3 0 0 0 .2-.1h-.1a.5.5 0 0 0-.1 0 .5.5 0 0 0 .1-.4.1.1 0 0 1 0 .1.2.2 0 0 1 0 .1.2.2 0 0 1-.2 0 .2.2 0 0 0 .1 0 .2.2 0 0 0 0-.1.2.2 0 0 1 0 .2.2.2 0 0 0 0-.2.1.1 0 0 0 .1 0 .4.4 0 0 0-.2 0Z" class="h"/><path d="M23.5 9.3a3.8 3.8 0 0 0-.5 0 4.7 4.7 0 0 0-.5 0v.1h.5a4.1 4.1 0 0 1 .5 0Z" class="h"/><path d="M22.5 9.4a4.7 4.7 0 0 1 .5 0 3.8 3.8 0 0 1 .5 0v-.1a4.5 4.5 0 0 0-.5 0h-.5Zm.7-.2Zm0 0Zm-.2 0Zm0 0Zm-.3 0Zm0 0Z" class="i"/><path d="M23 9a.2.2 0 0 0 0-.1V9Zm0 0ZM23.2 10.2v.1H23c-.1 0 0 0 0 0h.1Zm0 0h-.1.1Zm-.4 0h.2-.2Zm0 0h.2v.1c0 .1 0 0 0 0h-.2Zm0 .1a.2.2 0 0 0 .2 0v-.1h-.1a.1.1 0 0 1 0-.1.3.3 0 0 0 .1 0h.1v.2H23a.2.2 0 0 1-.1 0Zm.2 0v.1ZM23 9.7a.6.6 0 0 1 .2-.1.6.6 0 0 0-.1 0Zm0 0a.5.5 0 0 0-.2-.1.5.5 0 0 1 .2 0Zm-.1.2Zm0-.4a.2.2 0 0 1 .1 0 .2.2 0 0 1 0 .1.1.1 0 0 1 0 .1.1.1 0 0 1 0 .1h-.1a.3.3 0 0 1-.1 0 .2.2 0 0 1 0-.1h-.1a.3.3 0 0 1 .1 0 .5.5 0 0 1 .1 0 .1.1 0 0 0 .1 0 .2.2 0 0 0 0-.1v-.1Zm0 .3a.3.3 0 0 0-.2-.1.1.1 0 0 0 .1 0 .3.3 0 0 0 0 .1h.1Zm.2-.3a.2.2 0 0 0 0 .1.1.1 0 0 0 0 .1.4.4 0 0 1 .1 0 .3.3 0 0 1 .1 0 .2.2 0 0 0 0-.1.2.2 0 0 1 0 .1.4.4 0 0 1-.1.1H23a.1.1 0 0 1 0-.1.2.2 0 0 1 0-.2Zm.2.2a.4.4 0 0 0-.2 0 .1.1 0 0 0 0 .1.3.3 0 0 0 .1 0v-.1a.2.2 0 0 0 .1 0Z"/><path d="M23.2 9.7Zm0 0Zm0 0Zm-.4 0Zm0 0Zm0 0Z" class="j"/><path d="M25 8.7 25 9l-.1.2q-.1-.1-.2 0l-.1-.2a.2.2 0 0 1-.1 0h-.1l.2.3v.1a.4.4 0 0 0-.2 0 .5.5 0 0 0 0 .4 6 6 0 0 0-.1 0 .3.3 0 0 0 .2.2.2.2 0 0 0-.1 0 .1.1 0 0 1 0 .2.2.2 0 0 0 .1 0 .3.3 0 0 0 0 .3.2.2 0 0 0 .1 0 .2.2 0 0 1 0 .1.3.3 0 0 0 .2 0 .6.6 0 0 0 0 .2.4.4 0 0 1 .2-.1v.1H25.2a.7.7 0 0 0 0-.2.4.4 0 0 0 .3 0 .2.2 0 0 0 0-.1.3.3 0 0 0 0-.2.3.3 0 0 0 .3 0 .1.1 0 0 1-.1-.2.3.3 0 0 0 .1-.3h-.2a.5.5 0 0 0 .2-.3.1.1 0 0 1-.1 0 .4.4 0 0 0-.2 0v-.1l.3-.4h-.1a.2.2 0 0 1-.1 0l-.1.1-.2.1-.1-.2-.2-.2Z"/><path d="M25.6 9v.1c0 .1 0 0 0 0ZM24.4 9v.1ZM25.5 9.3ZM24.5 9.3ZM25.6 9.2a4.5 4.5 0 0 0-.6 0 4.4 4.4 0 0 1 .6 0Z" class="h"/><path d="M24.5 9.2h.5a4.5 4.5 0 0 1 .6 0s0-.1 0-.1l.1-.2c-.2 0-.2.1-.2.2H25.2V9l-.2-.2-.1.1V9h-.1v.1s-.1-.1-.2 0l-.1-.2a.3.3 0 0 1-.2 0l.1.1v.1ZM25.5 9.4a.4.4 0 0 1 0 .1.2.2 0 0 0-.1 0v-.1h-.8a.1.1 0 0 1 .1 0h-.2a.4.4 0 0 0 .1 0 .4.4 0 0 0-.2 0 .3.3 0 0 1-.1 0 .2.2 0 0 0 0 .1.2.2 0 0 0 .1 0 .2.2 0 0 1 0-.1.3.3 0 0 0 0 .2.2.2 0 0 1 0-.2.1.1 0 0 1-.1 0 .5.5 0 0 0 0 .2.2.2 0 0 0 .1 0 .4.4 0 0 1 0 .1h.1a.5.5 0 0 0-.2 0 .2.2 0 0 1 .1 0 .2.2 0 0 1 0 .1.3.3 0 0 1-.1 0 .3.3 0 0 1 0-.1.3.3 0 0 0 .1.2s.1 0 .1 0a.1.1 0 0 0-.2.1.1.1 0 0 1 .2 0 .1.1 0 0 0-.1 0 .1.1 0 0 1-.1.1.2.2 0 0 1 .1 0 .1.1 0 0 1 .1 0 .2.2 0 0 0 0 .1.1.1 0 0 0 0 .1s.1 0 0 0h.1a.7.7 0 0 1 0 .2.2.2 0 0 1 0-.1h.1a.2.2 0 0 0-.1 0 .1.1 0 0 1 0 .1.3.3 0 0 0 .1 0 .1.1 0 0 1 0-.1h.1a.7.7 0 0 1 0 .1.5.5 0 0 0 0 .2.8.8 0 0 0 0-.2v.1a.2.2 0 0 0 0-.1h.1v.1a.2.2 0 0 0 0-.1.4.4 0 0 1 0 .2.2.2 0 0 0 .2-.1.2.2 0 0 1 0-.1.2.2 0 0 0 0 .1.4.4 0 0 1 0-.1.7.7 0 0 0 0 .1.6.6 0 0 1 .1 0v-.2c0-.1 0 0 0 0v.1a.3.3 0 0 0 .2 0 .1.1 0 0 1-.1 0 .2.2 0 0 0 .1 0 .2.2 0 0 0 0-.1.2.2 0 0 0-.1 0 .2.2 0 0 0 0 .1.1.1 0 0 0 .1 0 .7.7 0 0 1 0-.1.3.3 0 0 0 .2 0 .6.6 0 0 0-.1-.1.1.1 0 0 0-.1 0 .5.5 0 0 1 .1 0 .2.2 0 0 0 0-.1.4.4 0 0 1 0 .1.2.2 0 0 0 0-.1.2.2 0 0 0-.1 0 .2.2 0 0 1 .1 0 .3.3 0 0 0 .2 0 .2.2 0 0 0-.1 0h.1a.1.1 0 0 1 0-.1.5.5 0 0 0-.1 0 .1.1 0 0 0 0-.1v-.1a.3.3 0 0 0 .2-.2.3.3 0 0 1-.1.1.1.1 0 0 0-.1 0 .3.3 0 0 0 .1 0 .5.5 0 0 0-.1 0h-.1a.4.4 0 0 1 .1 0 .2.2 0 0 0 0-.1.5.5 0 0 0 .2-.3.1.1 0 0 1-.1 0 .2.2 0 0 1 0 .2.2.2 0 0 1-.2 0 .2.2 0 0 0 .1 0 .2.2 0 0 0 0-.2.2.2 0 0 1 0 .1.2.2 0 0 1 0 .1.2.2 0 0 0 0-.1.1.1 0 0 0 .1 0 .2.2 0 0 0 0-.1.4.4 0 0 0-.2 0Z" class="h"/><path d="M25.5 9.4a3.8 3.8 0 0 0-.5 0 4.7 4.7 0 0 0-.5 0h.5a4.1 4.1 0 0 1 .5 0Z" class="h"/><path d="M24.5 9.3a4.7 4.7 0 0 1 .5 0 3.8 3.8 0 0 1 .5 0 4.5 4.5 0 0 0-.5 0h-.5Zm.8 0Zm0 0Zm-.3 0Zm0 0Zm-.2 0Zm0 0Z" class="i"/><path d="M25 9a.2.2 0 0 0 0-.1.1.1 0 0 0 .1 0V9Zm0 0ZM25.2 10.3H25Zm0-.1h-.1.1Zm-.4 0h.1-.1Zm0 0h.1v.1h-.1Zm0 .1a.2.2 0 0 0 .1 0v-.1a.1.1 0 0 1 0-.1.3.3 0 0 0 .1 0h.1-.1.1a.3.3 0 0 1-.1 0v.2a.2.2 0 0 0 .1 0h-.2Zm.1 0h.1v.1h-.1ZM25 9.7a.6.6 0 0 1 .2-.1.6.6 0 0 0-.1 0Zm0 0a.5.5 0 0 0-.2-.1.5.5 0 0 1 .1 0Zm-.1.2Zm0-.4a.2.2 0 0 1 .1 0 .2.2 0 0 1 0 .1.1.1 0 0 1 0 .1h-.1a.1.1 0 0 1 0 .1.3.3 0 0 1-.1 0v-.1h-.1a.2.2 0 0 1 0-.1.3.3 0 0 1 .1 0 .5.5 0 0 1 0 .1h.1a.2.2 0 0 0 0-.1v-.1Zm0 .2a.3.3 0 0 0-.2 0 .3.3 0 0 0 .1 0v.1Zm.2-.2a.2.2 0 0 0 0 .1.1.1 0 0 0 0 .1.4.4 0 0 1 .1 0 .5.5 0 0 0 .1 0 .4.4 0 0 1-.1.1H25a.1.1 0 0 1 0-.1.2.2 0 0 1 0-.1.2.2 0 0 1 0-.1Zm.2.2a.4.4 0 0 0-.2 0 .1.1 0 0 0 0 .1.3.3 0 0 0 .1 0 .2.2 0 0 0 0-.1Z"/><path d="M25.2 9.7Zm0 0Zm0 0Zm-.4 0Zm0 0Zm0 0Z" class="j"/><path d="m30.7 9.5-2-2.2-2.4 1.4-.5 5.2a22 22 0 0 1 3.6.6l1.3-5Z" class="a"/><path d="M26.8 9.8a.3.3 0 0 1 .2 0 .2.2 0 0 1 .1 0 1.2 1.2 0 0 1 .1 0 .7.7 0 0 1 .2-.1.7.7 0 0 1 .3 0 1.3 1.3 0 0 1 .3 0 .5.5 0 0 1 .2 0h.2a2.2 2.2 0 0 0 .2.2 1 1 0 0 0 .3 0 .5.5 0 0 0 .2 0c-.4.3-.6 0-.8 0a1.6 1.6 0 0 1 .2.2 1.1 1.1 0 0 0 .3.2.8.8 0 0 0 .4.1.9.9 0 0 0 .1 0 .5.5 0 0 1-.2.1 1 1 0 0 1-.5-.1 2.6 2.6 0 0 1-.4-.3.8.8 0 0 0-.3 0 .6.6 0 0 0-.2 0 .5.5 0 0 0 .2 0 .2.2 0 0 1-.2.1c-.1.1-.1 0-.2 0a.3.3 0 0 1 0 .1.1.1 0 0 1 0 .1.1.1 0 0 1 0 .1h.1a.4.4 0 0 1 0 .1.1.1 0 0 1 .2.2.1.1 0 0 1 .1 0 2.6 2.6 0 0 1 .3 0 .3.3 0 0 1 .2.2.4.4 0 0 1 .2 0 .7.7 0 0 1 .2 0 .2.2 0 0 1 .2 0 .1.1 0 0 0 .1 0 .3.3 0 0 1 .3 0 .1.1 0 0 1 .2 0v.1a.1.1 0 0 1 0 .1.1.1 0 0 1-.1 0l-.1.2a.1.1 0 0 1-.2.1c.1.1 0 .2 0 .2v.2a.1.1 0 0 1 0 .2l-.1.1v.1a1 1 0 0 0-.2.2 1 1 0 0 1-.2.2.1.1 0 0 1-.1.1v.2a.3.3 0 0 1-.2 0h-.2v-.1a.3.3 0 0 0 .1 0 .2.2 0 0 1 0-.1.2.2 0 0 1 .2-.2.4.4 0 0 0 .1 0v-.2a.1.1 0 0 1 0-.1v-.1a.1.1 0 0 1-.2 0 .7.7 0 0 1 0 .1h-.1l-.2.2a.1.1 0 0 0 0 .1l-.1.1v.1a.1.1 0 0 1-.2 0 .4.4 0 0 1-.1 0l-.1-.1a.5.5 0 0 1 .3-.2.2.2 0 0 1 .1-.2.1.1 0 0 1 0-.2h-.2a.2.2 0 0 1-.1 0 .3.3 0 0 1-.1 0 .3.3 0 0 1-.1.2 1 1 0 0 1 0 .1.1.1 0 0 1-.1.1v.2l-.1.1h-.1a.1.1 0 0 1-.1 0H27a.2.2 0 0 0 0-.1h.1v-.2a1.5 1.5 0 0 1 .1-.1.1.1 0 0 1 0-.2.2.2 0 0 0 .1-.2v-.1h-.1a.2.2 0 0 1-.1.3v.1a.1.1 0 0 0-.1.1v.1a.2.2 0 0 1-.2 0h-.1v-.1a.3.3 0 0 0 .2-.2v-.1a.4.4 0 0 1 .1-.1.2.2 0 0 0 0-.2V11.4c-.1 0 0 0 0-.1-.2 0-.2-.1-.2-.2a.3.3 0 0 1 .1 0 .1.1 0 0 0 0-.1l.1-.1v-.5h-.2c-.1 0-.1-.1 0-.2a.4.4 0 0 1 .1-.2.1.1 0 0 0-.1-.2v-.1Z"/><path d="M28.4 12.2s-.1 0 0 0v.1h-.1c-.2 0-.2.2-.3.2a.2.2 0 0 0 0 .1.6.6 0 0 0-.2 0v.1h.1c0 .1-.2.1-.2 0h-.1a.3.3 0 0 1 .1 0 .5.5 0 0 1 .2-.2.2.2 0 0 1 .1-.2.1.1 0 0 1 0-.2l.1-.1c.1 0 0 0 0 0v.1a.1.1 0 0 0 .1 0 .6.6 0 0 0 0-.1.2.2 0 0 0 0 .1h.1a.1.1 0 0 0 .1 0Z" class="h"/><path d="M26.9 11.3a.4.4 0 0 1 .1-.1v.4a.2.2 0 0 0 0-.1.1.1 0 0 0 .1 0 .3.3 0 0 0-.1.1v.2a.2.2 0 0 1 0 .1.5.5 0 0 0 0 .2v.2a.4.4 0 0 1-.3.1v.1a.2.2 0 0 0 .2 0s.1 0 0 0a.1.1 0 0 1 .2-.2.3.3 0 0 1 0-.2V12a.1.1 0 0 0 .1 0v-.1a.3.3 0 0 1 0-.1.3.3 0 0 1 0-.1h.1v-.2.2a.3.3 0 0 0 0 .2.3.3 0 0 1 0 .3v.2a1.7 1.7 0 0 0-.1.2H27a.3.3 0 0 1 0 .1c-.1 0-.1 0 0 0a.2.2 0 0 0 0 .1.3.3 0 0 0 .2 0v-.1a.3.3 0 0 1-.1 0 .3.3 0 0 0 .1-.1v-.1a1 1 0 0 0 .2-.2.2.2 0 0 0 0-.2V12h.1a.1.1 0 0 0 0-.1.1.1 0 0 1 0 .1.2.2 0 0 0 .1 0 .4.4 0 0 1 0-.1.2.2 0 0 1 .1 0 .4.4 0 0 0 0 .1h.2a.7.7 0 0 1 0-.1l-.1.1a.3.3 0 0 0 .1 0 .6.6 0 0 1 .1 0 .3.3 0 0 1 0-.1.4.4 0 0 1 .1-.1.2.2 0 0 0 .1-.1.4.4 0 0 0-.1.2.3.3 0 0 0 0 .1.2.2 0 0 1 .1-.1v.2a.3.3 0 0 1 .1-.1.3.3 0 0 0 0 .1.4.4 0 0 1 .1 0l.1.1a.2.2 0 0 0 .1 0 .2.2 0 0 1 0 .1l-.2.4a.1.1 0 0 0-.1 0 .2.2 0 0 0 0 .2.3.3 0 0 1-.2 0h.1l.1.1a.2.2 0 0 0 .2 0v-.1c-.1 0-.1-.1 0 0v-.1a.1.1 0 0 0 0-.1 1 1 0 0 0 .2-.2.1.1 0 0 0 0-.1 1.5 1.5 0 0 1 .2 0v-.1c.1 0 0 0 0 0l.1-.2c.1 0 0 0 0 0a.3.3 0 0 0 0-.1.1.1 0 0 0 .1 0 .1.1 0 0 0 0-.1v-.1H29a.3.3 0 0 0 0-.1.1.1 0 0 1 0-.1.1.1 0 0 0 .1 0 .2.2 0 0 1 0-.1.1.1 0 0 0 .1 0 .4.4 0 0 0 0-.1v-.1h.1l.1-.1a.1.1 0 0 0 .1 0V11a.1.1 0 0 0-.1 0 .2.2 0 0 0-.1 0 .3.3 0 0 0-.1 0 .3.3 0 0 0-.1 0 .3.3 0 0 1-.1 0 .2.2 0 0 1 0 .1.1.1 0 0 1-.1-.1.8.8 0 0 1 0 .1.5.5 0 0 0 0-.1.2.2 0 0 0-.1 0 .3.3 0 0 0-.1-.1v.1a.5.5 0 0 0 0-.1h-.1a.5.5 0 0 1 0 .1.5.5 0 0 1 0 .1.5.5 0 0 0 0-.2.4.4 0 0 0-.2 0c.1 0 .1 0 0 0a.4.4 0 0 1 0 .1.4.4 0 0 1 0 .1.6.6 0 0 0-.1-.2 1 1 0 0 1 0 .2 1 1 0 0 0 0-.2.4.4 0 0 0-.2 0H28a.1.1 0 0 0 .1 0v.1c0 .1 0 0 0 0a.2.2 0 0 1 0-.1.1.1 0 0 0-.1 0h-.1v.1a.7.7 0 0 0 0-.1.1.1 0 0 0 0-.1l-.1-.1-.1-.2a.1.1 0 0 1 0 .1l-.1-.1a.3.3 0 0 1 0 .1.2.2 0 0 0 0-.1v-.1h-.1v-.1a.3.3 0 0 0-.1 0 .2.2 0 0 1-.1 0 .4.4 0 0 0 .2 0v-.1c0-.1 0-.1 0 0h.2a.2.2 0 0 0 .1-.1.2.2 0 0 1-.1 0 .7.7 0 0 0 .1 0 .5.5 0 0 1-.1-.1.2.2 0 0 0-.2 0h-.1a.4.4 0 0 1 .2-.1.6.6 0 0 1 .2 0v-.1a.2.2 0 0 0 0-.1h-.2a.2.2 0 0 1 0 .1.9.9 0 0 0-.2 0 .2.2 0 0 0-.2 0 .2.2 0 0 1 .1 0 .9.9 0 0 1 .2-.1.1.1 0 0 0-.1 0 .6.6 0 0 0-.1 0 1.2 1.2 0 0 0-.2.1.1.1 0 0 0-.1 0v.1a.4.4 0 0 0 0 .1.4.4 0 0 0-.2.2v.1a.2.2 0 0 1 0 .1h.1c0-.1 0-.1 0 0a.2.2 0 0 1 .1 0c.1-.1.1 0 0 0v.2a.4.4 0 0 0 .1 0v-.2h.1a.1.1 0 0 0 .1 0 .1.1 0 0 1-.1 0 1.2 1.2 0 0 0 0 .1.4.4 0 0 1-.1.1.2.2 0 0 0 0 .1.6.6 0 0 0 .1-.2v.1a1.1 1.1 0 0 1-.1.1s-.1 0 0 0v.1s-.2.1-.1.2a.2.2 0 0 0 0-.1.1.1 0 0 1 0 .2h-.1Z" class="h"/><path d="M27 10a.2.2 0 0 0-.1 0c-.1 0-.1 0 0-.1h-.1a.3.3 0 0 1 .2 0v.1Z" class="h"/><path d="M28.5 12.2ZM28.7 12.6a.4.4 0 0 1-.1 0ZM28.8 12.4ZM28.7 12.4a.1.1 0 0 1 0 .1ZM28.9 12.3ZM29 12.3ZM29 11.7a.3.3 0 0 1 0 .1.1.1 0 0 0 0-.1v.2a.3.3 0 0 0 0-.2ZM28.9 11.8ZM28.8 12h.1ZM29 12ZM29 12a.1.1 0 0 0 0 .1.1.1 0 0 0 0-.1ZM29 11.8ZM29 11.5ZM29 11.3v.1a.1.1 0 0 0 0 .1v-.1ZM28.9 11.3a.1.1 0 0 1 0 .1.4.4 0 0 1 0 .2.2.2 0 0 1-.1 0 .4.4 0 0 0 0-.2h.1a.3.3 0 0 0 0-.1ZM29.4 11.2ZM29.3 11.2ZM29 11.2a.1.1 0 0 1 .1 0 .2.2 0 0 1 0 .1ZM28.5 11.3ZM28.6 11.2ZM28.8 11.4ZM28.9 11.2ZM28.3 11.2v.1ZM28.6 11.4a.2.2 0 0 1 0 .1.2.2 0 0 0 0 .2.3.3 0 0 1 0-.1.2.2 0 0 1 0-.1.1.1 0 0 0 .1 0 .2.2 0 0 0 0-.1.2.2 0 0 0 0 .2.3.3 0 0 1-.1 0 .2.2 0 0 0 0-.2ZM28.5 11.5a.3.3 0 0 1 0 .1h-.1v-.1ZM28.4 11.5ZM28.3 11.4a.2.2 0 0 1 0 .1.2.2 0 0 0 0 .1.3.3 0 0 0-.1 0 .5.5 0 0 0 .1 0 .2.2 0 0 0-.1 0c0 .1 0 .1 0 0a.2.2 0 0 0 .1-.1.2.2 0 0 0 0-.1ZM28.5 11.7a.1.1 0 0 1 0 .2.3.3 0 0 0 0-.1.2.2 0 0 1 0 .1.1.1 0 0 0 0-.1ZM28.6 11.7ZM28.7 11.8ZM28.8 12.1ZM28.7 12v.1ZM28.6 12ZM28.5 12ZM28.3 12.1v.1ZM27.9 12.6ZM28 12.6ZM28 12.5ZM28.2 12.1a.1.1 0 0 0 0 .1ZM28.3 11v.1ZM28.2 11a.2.2 0 0 1 0 .1V11ZM28 11.2V11ZM28.2 11.4ZM28 11.2a.2.2 0 0 1 0 .1.3.3 0 0 1 0 .1h.1a.3.3 0 0 0 0-.1.3.3 0 0 0 0-.1.4.4 0 0 1 .1 0 .3.3 0 0 1 0 .1.4.4 0 0 0 0-.1.3.3 0 0 1 0 .2H28a.2.2 0 0 0-.1-.2ZM28.1 11.7v.1ZM27.9 11.8ZM28 11.6a.1.1 0 0 0 0 .1.2.2 0 0 0 0 .1.1.1 0 0 1 0-.1.2.2 0 0 0 0-.1Z"/><path d="M28 11.5a.2.2 0 0 1 0 .1.4.4 0 0 0 0 .1.2.2 0 0 1 0-.1v-.1ZM27.8 11.6a.2.2 0 0 1 0 .1.2.2 0 0 0 0-.1ZM27.5 11.8ZM27.4 11.8a.2.2 0 0 0 0 .1.2.2 0 0 1 0 .1.2.2 0 0 1 0-.2ZM27.4 12.2ZM27.4 12.3ZM27.3 12.5ZM27.2 11.9ZM27 12.3ZM27.5 11.5a.4.4 0 0 0 0 .1.1.1 0 0 1 0 .1v-.1a.4.4 0 0 1 0-.1ZM27.4 11.4a.4.4 0 0 1 0 .1.2.2 0 0 0 0 .1.3.3 0 0 0 0 .1.3.3 0 0 1 0-.2.2.2 0 0 0 0-.1ZM27.2 11.7v.1c0 .1 0 0 0 0v-.1ZM27.1 11.7ZM27.7 10.8a.2.2 0 0 0 0 .1.2.2 0 0 1 0-.1ZM27.6 10.9a.4.4 0 0 1 0 .1.4.4 0 0 0 0-.1ZM27.3 10.9a.3.3 0 0 0 0 .1v.1a.3.3 0 0 1 0 .2.2.2 0 0 0 0-.1.2.2 0 0 0 0-.1.2.2 0 0 1-.1-.1.3.3 0 0 1 0-.1ZM27.6 10.7a.1.1 0 0 1 0 .1.2.2 0 0 0 0 .1.1.1 0 0 0 0-.1Z"/><path d="M27.2 10.8a.2.2 0 0 1 0 .1.3.3 0 0 0 0 .1.1.1 0 0 1 0-.1.1.1 0 0 0 0-.1ZM27.4 10.8ZM27.4 10.7a.2.2 0 0 0 0 .1.3.3 0 0 1 0 .2.2.2 0 0 0 0-.1.3.3 0 0 0 0 .2.3.3 0 0 1-.1-.1.2.2 0 0 1 0-.2.1.1 0 0 1 .1 0Z"/><path d="M27.4 10.7a.2.2 0 0 0 0 .1.1.1 0 0 0 0-.1ZM28 11.3ZM28 11.4a.2.2 0 0 1 0 .1l-.1.1a.2.2 0 0 0 0-.1ZM27.8 11.3a.3.3 0 0 1 0 .2.2.2 0 0 0 0-.1.3.3 0 0 0 0-.1ZM27.8 11.5a.5.5 0 0 1 0 .1.2.2 0 0 0-.1 0 .3.3 0 0 0 0 .1.1.1 0 0 1 0-.2.3.3 0 0 0 0-.1.1.1 0 0 0 0 .1.1.1 0 0 0 0 .1.5.5 0 0 0 .1-.1ZM27.5 11.4a.2.2 0 0 0 0 .1.3.3 0 0 1 0-.1ZM27.3 11.5ZM27.4 11.3a.1.1 0 0 1 0 .1v-.1ZM27.2 11.6a.3.3 0 0 1 0-.2.2.2 0 0 0 .1-.1.2.2 0 0 0 0-.1.2.2 0 0 1 0 .1.2.2 0 0 0 0 .2.3.3 0 0 0 0 .1ZM27.1 11.5ZM27.6 11.2a.2.2 0 0 1 0 .2.1.1 0 0 0 0-.1.2.2 0 0 0 0-.1ZM27.7 11a.2.2 0 0 1 0 .2.2.2 0 0 0 0-.1ZM27.8 11a.4.4 0 0 1 0 .1v.1a.4.4 0 0 0 0-.2ZM27.6 11ZM27.2 11.2a.2.2 0 0 1 0 .1.2.2 0 0 1-.2.1.2.2 0 0 0 .1 0 .2.2 0 0 0 0-.2ZM27.1 11a.1.1 0 0 1 0 .1ZM27.4 11v.2-.1ZM27.5 11a.2.2 0 0 1 0 .2.3.3 0 0 1 0 .1.3.3 0 0 0 0-.1.2.2 0 0 0 0-.1.2.2 0 0 1 0-.1ZM27 10.1a.2.2 0 0 1 .2 0h.1a.3.3 0 0 1-.1 0 .1.1 0 0 1-.1 0 .2.2 0 0 0 .2 0 .2.2 0 0 0-.1 0 .2.2 0 0 0-.1 0ZM27.2 10.1ZM27.3 10.3a.2.2 0 0 0 .1-.1ZM27.7 10.1ZM27.5 10.1a.1.1 0 0 1 .1 0h-.1ZM27.5 10.1ZM27.2 10.3ZM27.3 10.3ZM27.2 10.2ZM27.3 10ZM27.2 10ZM27.1 10ZM27 10v.1ZM27 10.2ZM27 10.2ZM27 10.3v.1ZM27 10.3ZM27 9.8v.1ZM27.4 10.5a.2.2 0 0 1 0 .2.2.2 0 0 0 0-.1ZM27.3 10.7a.6.6 0 0 1 0-.1.2.2 0 0 0 0-.2.2.2 0 0 1 0 .1.2.2 0 0 1 0 .1.3.3 0 0 0 0 .1ZM27 10.7h.1ZM27 10.6ZM27.2 10.4ZM27.1 10.4ZM29.5 11.1ZM26.9 12.4Z"/><path d="M28.9 10a.8.8 0 0 0 .1 0 .5.5 0 0 1-.1 0ZM28.7 10h.2a.6.6 0 0 1-.1 0ZM27.7 9.6a1.3 1.3 0 0 1 .2 0 .1.1 0 0 1 0 .2.1.1 0 0 0 0-.1.5.5 0 0 1 .3 0 .1.1 0 0 1 0 .1h.2v.1h.1a.8.8 0 0 0 .2 0v.1a1.6 1.6 0 0 1-.4-.1l-.2-.1a.8.8 0 0 0-.2 0 .6.6 0 0 0-.1 0 .1.1 0 0 0 0-.1.1.1 0 0 0-.1 0ZM27.4 9.7a.9.9 0 0 1 .3 0 .4.4 0 0 0-.2 0Z" class="d"/><path d="M28.2 10a.7.7 0 0 0-.4 0 .1.1 0 0 0 0-.1.2.2 0 0 0 0-.1.5.5 0 0 1 .1 0 .8.8 0 0 1 .2 0 .1.1 0 0 1 0 .1v.1c0 .1 0 0 0 0a.1.1 0 0 0 0-.2.4.4 0 0 1 .1.1h.1v.2a.1.1 0 0 1-.1 0Z" class="d"/><path d="m28.4 10.2-.2-.1a.2.2 0 0 0 .1 0V10a1.4 1.4 0 0 1 .2.1v.1h-.1ZM28.6 10.4a1.3 1.3 0 0 1-.2-.1h.1v-.1a1 1 0 0 0 .2 0v.1ZM28.8 10.5a1.2 1.2 0 0 1-.2-.1.3.3 0 0 0 .1 0 1 1 0 0 0 .2 0ZM29.3 10.4a.6.6 0 0 1-.4 0 .9.9 0 0 0 .2 0 .9.9 0 0 0 .2 0ZM28.3 12.8a.3.3 0 0 1-.1 0v.1h.1l.1.1a.2.2 0 0 0 .2 0v-.1h-.1a.4.4 0 0 0-.2 0ZM26.8 12.3a.3.3 0 0 1 0 .1h-.1v.1a.2.2 0 0 0 .2 0s.1 0 0 0v-.1ZM27.8 12.7h.1c0 .1-.2.1-.2 0h-.1a.3.3 0 0 1 .1 0 .5.5 0 0 1 .1 0ZM27.1 12.6a.3.3 0 0 1 0 .1c-.1 0-.1 0 0 0a.2.2 0 0 0 0 .1.3.3 0 0 0 .2 0v-.1a.3.3 0 0 1-.1 0ZM27.4 10a.4.4 0 0 1 .3 0 .6.6 0 0 1 .1 0v-.1a.2.2 0 0 0 0-.1h-.2a.2.2 0 0 1 0 .1.9.9 0 0 0-.2 0 .2.2 0 0 0-.2 0 .7.7 0 0 1 .2.1Zm-.2 0a.4.4 0 0 1 0-.1.2.2 0 0 1 .1 0 .2.2 0 0 1 .1 0 .9.9 0 0 1 .1-.1.6.6 0 0 0-.2 0 1 1 0 0 0-.2.1Z" class="d"/><path d="m32.9 15.6 2-4.7-1.5-2.4-2.7 1-1.3 5a22 22 0 0 1 3.5 1.1Z" class="f"/><path d="M30.2 11.3a25.2 25.2 0 0 1 4 1.4l-.8 1.8a23.2 23.2 0 0 0-3.6-1.3Z" class="e"/><path d="m33.5 14.2.6-1.2a24.8 24.8 0 0 0-4-1.4l-.3 1.3a23.6 23.6 0 0 1 3.8 1.3Z" class="d"/><path d="M30.6 12.6a.3.3 0 0 1 .2 0v-.1a.3.3 0 0 1-.1-.2h-.1a.1.1 0 0 1-.1 0v-.1h-.1V12a.2.2 0 0 1 .2 0V12a.1.1 0 0 1 .2 0 .2.2 0 0 1 0 .1h.2v.1a.4.4 0 0 1 0 .1 1 1 0 0 1 .6.2 1.9 1.9 0 0 1 .4.2.9.9 0 0 1 .7.1.8.8 0 0 1 .3 0 .5.5 0 0 0 .1.1.8.8 0 0 1 .3 0 .4.4 0 0 1 .2.2v.1h-.4a1 1 0 0 1-.2-.2.3.3 0 0 0-.1 0 .1.1 0 0 0-.1 0v.2a.3.3 0 0 0 .2.1 1 1 0 0 0 0 .2c.1 0 .1.1 0 .1a.3.3 0 0 1 0 .1h-.1c-.1 0 0-.1 0-.1a.1.1 0 0 1 0-.1.3.3 0 0 1-.1 0 1.1 1.1 0 0 0-.2-.2.4.4 0 0 1-.2-.1h-.2a1 1 0 0 0-.1 0 .1.1 0 0 0-.2 0h-.1c-.2 0-.1 0 0 0a.1.1 0 0 0 .2 0 .3.3 0 0 1 0-.1.4.4 0 0 1-.2 0l-.2-.1h-.1a.2.2 0 0 1-.2 0 .4.4 0 0 1-.2 0H31l-.1-.1a.3.3 0 0 1 .1 0h.2a.1.1 0 0 1 0-.1.3.3 0 0 1-.2-.1.2.2 0 0 1-.2 0 .3.3 0 0 1-.1 0H30.3v-.1a.1.1 0 0 1 .1 0Z"/><path d="M32.1 13a.5.5 0 0 1-.2 0 .4.4 0 0 0-.2 0 .2.2 0 0 1 0-.1.3.3 0 0 1 .2 0 1 1 0 0 1 .2 0 .2.2 0 0 1 0 .1.3.3 0 0 1 .1 0Z" class="e"/><path d="M32.3 9.5v.5l-.3.3.5.2v.5h.1l.4-.3.4.1v-.5l.3-.3-.4-.2-.1-.5-.4.3-.5-.1Z"/><path d="m32 10.3.4-.3.4.1ZM32.9 10.1l.3-.3.5.2ZM33.7 10l-.4.3-.4-.2ZM32.8 10.2l-.3.3-.4-.2ZM32.3 9.5l.5.2v.4ZM32.9 10.2l.4.1.1.5ZM33.4 10.8l-.4-.2-.1-.4Z" class="h"/><path d="m32.8 10.1-.4-.1v-.5ZM33.1 9.4l.1.4-.3.3ZM32.9 10.2v.4l-.3.3Z" class="h"/><path d="m32.6 11-.1-.5.4-.3ZM32.9 10.1l-.1-.4.3-.3Z" class="h"/></svg>