<svg xmlns="http://www.w3.org/2000/svg" viewBox="0 0 48 48"><defs><style>.b{fill:#fff}</style></defs><circle cx="24" cy="24" r="24" fill="#bf0a30"/><path d="M42.5 39.3a24 24 0 0 1-4.7 4.3H10.2a24 24 0 0 1-4.7-4.3ZM47 30.6a22.8 22.8 0 0 1-1.6 4.3H2.6A22.8 22.8 0 0 1 1 30.6ZM48 24l-.1 2.2H.1a22.4 22.4 0 0 1 0-4.4h47.8L48 24ZM47 17.4H1a22.8 22.8 0 0 1 1.6-4.3h42.8a22.8 22.8 0 0 1 1.7 4.3ZM42.5 8.7h-37a24 24 0 0 1 4.7-4.3h27.6a24 24 0 0 1 4.7 4.3Z" class="b"/><path fill="#002868" d="M24 0v24H0A24 24 0 0 1 24 0Z"/><path d="m15.5 11.7 1.4 4.5-3.8-2.8-3.9 2.8 1.5-4.5-3.8-2.8h4.7l1.5-4.5 1.5 4.5h4.7l-3.8 2.8z" class="b"/></svg>