<svg xmlns="http://www.w3.org/2000/svg" xmlns:xlink="http://www.w3.org/1999/xlink" viewBox="0 0 48 48"><defs><radialGradient id="a" cx="-1460.7" cy="532.3" r="1.8" gradientTransform="matrix(-.022 .163 .153 .02 -92.2 253)" gradientUnits="userSpaceOnUse"><stop offset="0" stop-color="#fff"/><stop offset="1" stop-color="#f15770"/></radialGradient><radialGradient xlink:href="#a" id="b" cx="-827.9" cy="1192.3" r="1.8" gradientTransform="matrix(.159 .024 .023 -.148 122.5 220.9)"/><radialGradient xlink:href="#a" id="c" cx="3299.1" cy="-1119.5" r="1.8" gradientTransform="matrix(-.008 -.164 .17 -.008 246 558.4)"/><style>.h,.l{fill:#fff}.d,.w{fill:#fcca3e;stroke:#aa8c30}.aj,.d,.l{stroke-miterlimit:4.6733}.d{stroke-width:.05px}.e{fill:#aa8c30}.f{fill:#9ca168}.g{fill:#717732}.j{fill:#cd202a}.l{stroke:#0872a7}.l,.r{stroke-width:.1px}.aj,.aw,.az,.m{fill:#f8c83c}.n{fill:#f9aa51;stroke:#953220}.az,.n{stroke-linejoin:round}.n,.w{stroke-width:.08px}.q{fill:#231f20}.r,.u{fill:#8cbebf}.r{stroke:#04534e}.s{fill:#0c8489}.t{fill:#04534e}.z{fill:#e92736}.aa{fill:#f7e204}.ae{fill:#a8ac71}.ag{fill:#78732e}.aj,.aw,.az{stroke:#977c2e;stroke-width:.06px}.ak{fill:#af7029}.al{fill:#816c2a}.am{fill:#fcca3d}.au{fill:#ab6d29}.ar{fill:#4d2a15}.as{fill:#d2a567}.at{fill:#8f4620}.av{fill:#202020}.ax{fill:#202220}.ay{fill:#4b4139}.az{stroke-linecap:round}.ba{fill:#904720}.bb{fill:#803f1d}.be{fill:#8b441f}.bh{fill:#1e2121}.bi{fill:#5c3818}.bl{fill:#dbad6c}.bn{fill:#b27129}.br{fill:#6c4119}.bx{fill:#f9c83a}</style></defs><circle cx="24" cy="24" r="24" style="fill:#ce1126"/><path d="M35.7 3v42A24 24 0 1 1 24 0a23.8 23.8 0 0 1 11.7 3Z" style="fill-rule:evenodd;fill:#fff"/><path d="M12.3 3v42a24 24 0 0 1 0-42Z" style="fill:#006847;fill-rule:evenodd"/><path d="M28 29.4v.5l.1-.1-.1-.4Z" class="d"/><circle cx="27.9" cy="29.3" r=".2" class="d"/><path d="m28.5 30.2-.4-.4-.1.2.5.2ZM28.5 30.4a.2.2 0 0 1 0-.2.2.2 0 0 1 .2 0 .2.2 0 0 1 0 .2.2.2 0 0 1-.2 0ZM31.3 25l.3.4v-.2l-.3-.2Z" class="d"/><circle cx="31.2" cy="25" r=".2" class="d"/><path d="m32.2 25.3-.5.1v-.2h.5Z" class="d"/><circle cx="32.3" cy="25.2" r=".2" class="d"/><path d="m30.3 28-.3-.5.4.4Z" class="d"/><circle cx="30" cy="27.4" r=".2" class="d"/><path d="m30.4 28 .4.1-.3-.2Z" class="d"/><circle cx="30.9" cy="28.1" r=".2" class="d"/><path d="M20.1 29.3h-.2l.1-.2a.1.1 0 0 1 .1.2ZM20.1 29.5l.1.6-.1-.1v-.5Z" class="d"/><path d="M20.2 29.3c.1.1 0 .2-.1.3s-.3 0-.3-.2h.2c.1 0 .2-.2.2 0Z" class="d"/><ellipse cx="19.3" cy="30.2" class="d" rx=".2" ry=".1"/><path d="M19.6 30.1h.5V30h-.5ZM19.6 30v.4l-.2-.2v-.3c0-.1.2 0 .2.2Z" class="d"/><ellipse cx="17.9" cy="27.2" class="d" rx=".1" ry=".2"/><path d="M18 27.5v.6l-.2-.2v-.4Z" class="d"/><path d="M18.1 27.4c0 .1-.1.2-.3.2s-.2-.1-.1-.2h.2s.2-.2.2 0Z" class="d"/><ellipse cx="17" cy="28" class="d" rx=".2" ry=".1"/><path d="M17.3 28h.4l.2.1h-.6Z" class="d"/><path d="M17.2 27.8a.2.2 0 0 1 .1.2c0 .2 0 .3-.2.2v-.4Zm-.3-3.1s-.2.1-.2 0v-.1l.2-.1v.2ZM16.4 25.5l.2-.5-.3.3Z" class="d"/><path d="m16.6 25-.1-.3h.1a.5.5 0 0 0 .1 0l.2.1a.1.1 0 0 1 0 .2.3.3 0 0 1-.3 0Zm-1-.1.2.2h-.2l-.1-.2h.2ZM15.9 25.1l.4.3v.2l-.4-.4Z" class="d"/><path d="M15.9 25.2h-.3a.5.5 0 0 0 .1-.2l.1-.1a.1.1 0 0 1 .1 0 .3.3 0 0 1 0 .3Z" class="d"/><path d="M28 29.5a.8.8 0 0 0 0 .1v-.2ZM28 29.4h-.2a.2.2 0 0 1 0-.2v.2h.2Zm.5.8a1.8 1.8 0 0 1-.5-.2l.5.2Zm.3 0a.1.1 0 0 1-.1.2h-.2a.2.2 0 0 1 0-.2v.2h.2v-.1Zm2.6-5.1Zm0-.2-.2.2a.1.1 0 0 1-.1-.2c0-.1 0 0 0 0v.2h.2V25Zm1 .2-.1.2a.1.1 0 0 1-.1-.2v.2h.2v-.1Z" class="e"/><path d="m32 25.2-.1.2.3-.1v-.1H32Zm-1.8 2.5a.5.5 0 0 0 0 .1l-.2-.3.2.2Zm0-.3a.2.2 0 0 1-.3 0s-.1 0 0-.1h-.1v.2H30.2Zm.5.6h-.2l.3.1ZM31 28.1a.1.1 0 0 1 0 .2.1.1 0 0 1-.2-.2v.1h.2Zm-10.8 1.2-.1.2a.2.2 0 0 1-.2 0H20.2v-.1ZM20.1 29.6a.3.3 0 0 0 0 .1v-.1Zm-.4.4a.7.7 0 0 0 .1.1h-.2Zm0 .2c-.1.1-.1.2-.2.1a.1.1 0 0 0-.1-.1v.1h.2ZM19.1 30.2a.1.1 0 0 0 .2 0h.1-.2Zm-1-2.8a.2.2 0 0 1-.2.1.2.2 0 0 1-.2 0 .2.2 0 0 1 0-.1l.1.1H18.1v-.1Zm-.2.2a.4.4 0 0 0-.1 0h.1Zm-.5.4a2.3 2.3 0 0 0 .4 0h-.5Zm0 0-.3.2V28v.1h.2V28Zm-.3 0a.7.7 0 0 1-.3 0h.2Zm-.2-3.1a.2.2 0 0 1-.3 0 1.2 1.2 0 0 1-.1 0H16.8ZM16.6 25a.9.9 0 0 1 0 .2V25Zm-.6.2a2.3 2.3 0 0 0 .2.3l-.3-.3Zm-.2 0h-.2.2Zm-.1-.2a.4.4 0 0 1-.2 0h.1Z" class="e"/><path d="M32.7 24c0 .4-.4.7-.6.8a1.2 1.2 0 0 0-.3.4l-.1.2v.2a.8.8 0 0 1 0 .2v.5l.3-.2h.2a1.6 1.6 0 0 0-.3.4c0 .3-.3.8-.6 1s-.5 0-.6.2h-.1l-.1.3-.2.1-.1.1a.8.8 0 0 1 0 .2l-.1.3a.4.4 0 0 1 .1 0 1.2 1.2 0 0 1 .2 0 .5.5 0 0 0-.1 0 1 1 0 0 1-.4.8 3.6 3.6 0 0 1-1.5.2l-.2.1-.2.2-.1.1a1.4 1.4 0 0 1-.3.3l-.3.2a1 1 0 0 1 .3 0l.4.2a1.3 1.3 0 0 0-.4 0 4.3 4.3 0 0 1-1.3.5c-.4 0-.9-.5-.9-.5l-.2-.2h-.8v-.2a2 2 0 0 1 .4 0l.5.1a.8.8 0 0 0 .4 0l.6-.5.6-.3h.3v.1h.2a.7.7 0 0 1-.1.2.8.8 0 0 1-.2 0l.1.1h.5a.4.4 0 0 1 .1-.1 2.6 2.6 0 0 1 .4-.3.8.8 0 0 0 .2-.1 3.5 3.5 0 0 0 .1-.4V29l.5-.4.3-.3.1-.4a.4.4 0 0 1 .1.3.8.8 0 0 1 0 .3 4.1 4.1 0 0 1 .4-.3.5.5 0 0 1 .3 0 .7.7 0 0 0 .2-.3l.1-.2v-1.1l.3-.5.3-.4h.1a.7.7 0 0 0 0 .1v.2a1.5 1.5 0 0 1 .3-.4.8.8 0 0 0 .1-.2 2.3 2.3 0 0 0 0-.3V24.5l-.2-.5v-.6l-.1-.2.3.2a1.5 1.5 0 0 1 .2.6l.3-1.2a1.3 1.3 0 0 1 .2.4 2.5 2.5 0 0 1 0 .4l.2-.3a1 1 0 0 1 .2.7Zm-7.3 7.1-.4-.3a2.1 2.1 0 0 0-.7-.2v.1l.6.3.3.2h.2Z" class="f"/><path d="M27.9 30a2.6 2.6 0 0 1 .5-.3 1 1 0 0 1 .3 0 1.6 1.6 0 0 0 .7-.4 2 2 0 0 0 .7-.6.6.6 0 0 1 .3 0s-.2.1-.4.3a3.2 3.2 0 0 1-.6.5 2 2 0 0 1-.9.2.8.8 0 0 0-.4.3 1.6 1.6 0 0 0-.2.2.1.1 0 0 1 0-.1Zm1.3-1.3a2.3 2.3 0 0 0-.6.8s.4-.4.6-.5l.6-.5.2-.3a1 1 0 0 1 .2 0s-.2-.2-1 .5Zm-1 1a.6.6 0 0 0 .3-.3 1.7 1.7 0 0 1 .1-.3s.5-.5.7-.7a.6.6 0 0 0 .1-.6.4.4 0 0 1 0 .3l-.9.8a2.1 2.1 0 0 0 0 .4.6.6 0 0 1-.2.3Zm-.2 1a.9.9 0 0 0-.5 0c-.6 0-1 .3-1.4.3s-.5-.1-.7-.3a2.3 2.3 0 0 0-1-.2 4 4 0 0 1 .7.1c.4.1.6.5 1 .5.6 0 1.1-.4 1.3-.4h.6Zm-2.7-.2a1 1 0 0 0 .8-.1 3 3 0 0 1 .9-.6 1.6 1.6 0 0 1 .4 0 1.4 1.4 0 0 0-.5 0 1.2 1.2 0 0 0-.6 0l-.5.5a1.4 1.4 0 0 1-.5.2Zm0 .6H25a3 3 0 0 0-.3-.2 2 2 0 0 0-.5-.2l.5.2a1 1 0 0 1 .3.3.2.2 0 0 0 .1 0h.2l-.2-.1Zm.2-.4a.9.9 0 0 0 .5 0c.5 0 1-.3 1.3-.5a.7.7 0 0 1 .6 0 .8.8 0 0 0-.5-.2 3.8 3.8 0 0 0-1.5.5 2 2 0 0 1-.4.2Zm6.2-4.4a10.7 10.7 0 0 0-.7 1 1.7 1.7 0 0 1-.3.3l-.4.5h.1a1.9 1.9 0 0 1 .3-.4 5.2 5.2 0 0 0 .5-.4l.6-1a1.3 1.3 0 0 1 .4-.3s-.2 0-.5.3Zm-1 1.2a.5.5 0 0 1 .1-.3c.2-.1.2-.1.3-.4l.3-.7a3.1 3.1 0 0 1 .2-.5.5.5 0 0 0-.3.2 3.8 3.8 0 0 0-.5 1 3 3 0 0 0-.1.7Zm-.2.3v-.4a3.6 3.6 0 0 1 .1-1 4.7 4.7 0 0 1 .6-.7 1.4 1.4 0 0 0-.5.2 1 1 0 0 0-.4.8l.2.6v.5Zm1.2-2.2.1-.6a1.3 1.3 0 0 1 .3-.4 1.1 1.1 0 0 0 .4-.5 5.1 5.1 0 0 0 0-.8.6.6 0 0 0-.1.1l-.1.7a4 4 0 0 1-.4.7 3.8 3.8 0 0 1 0-.6 3.4 3.4 0 0 1 .2-.6 4.2 4.2 0 0 0 0-.8 1.4 1.4 0 0 0-.2.4 2.6 2.6 0 0 0-.2.8 5.6 5.6 0 0 0 .1.7.8.8 0 0 1 0 .4.8.8 0 0 0-.1.2v.3Zm-.4-2.4a.6.6 0 0 1 0 .4 1.6 1.6 0 0 0 0 .7l.3.4a2.1 2.1 0 0 1 0 .4 2.3 2.3 0 0 0 0-.6v-.3l-.1-.7a.5.5 0 0 0-.2-.3Z" class="g"/><path d="m22.5 31.1.4-.3a3.6 3.6 0 0 1 .8-.3v.2h-.3l-.3.2-.2.2Z" class="f"/><path d="M23.3 30.3a2.4 2.4 0 0 0-.7.1.5.5 0 0 1-.3-.1v.2l-.6-.5v.3l-.1.2-.6-.5v.4H21l-.4-.3h-.1l.1.3H20a.6.6 0 0 0-.1.1.7.7 0 0 0-.1.1.5.5 0 0 0 .2 0s.1.1.2.1.3-.2.4 0c.2 0-.2.1-.2.3s.4 0 .5 0 .3-.3.4-.2c0 .1-.3.2-.2.4 0 .1.3.1.4 0s.3-.4.4-.3c0 .1-.2.3-.1.4s.2 0 .3-.1l.3-.4h.2l.2-.2.4-.1h.5a1 1 0 0 0-.4-.2Zm-3 0v-.1a1.3 1.3 0 0 1-.2-.3.8.8 0 0 0-.2-.2l-.3-.1v-.3l-.1-.1h-.2l-.2-.6v-.1l-.2.4-.2-.3v-.5h-.1l-.2.2-.2-.5a1 1 0 0 0 0 .3 2.8 2.8 0 0 1-.4-.2 1.5 1.5 0 0 1-.3-.3l-.1-.3V27l.1-.3h-.2v-.5l-.1-.2-.3.4-.1-.2v-.4l-.2.2a1.9 1.9 0 0 0-.2-.3 1.4 1.4 0 0 0 0-.5 1.1 1.1 0 0 1-.1-.5v-.3s.4-.4.3-.5-.4.2-.3 0 .4-.2.4-.6c0-.1-.3.2-.3 0l.2-.3v-.3l-.3.3H16v.3l-.1.2-.3-.1v.3l.2.3h-.3l.1.2.2.2.1.2h.1l.2.2v1h-.1l.1.2H16a.2.2 0 0 0 .2.4c.1 0 .5 0 .5.2s-.5-.3-.5 0a.4.4 0 0 0 .3.3l.5.1c0 .1-.4 0-.4.2s.2.1.3.1a.7.7 0 0 1 .3 0l.5.5.5.4h-.3c0 .1.7.4.5.4s-.5-.2-.5 0 .1.3.2.4.8 0 .6.2-.5-.1-.5 0 .3.5.4.4.3-.2.4 0-.1.1 0 .2.3-.2.5-.2a1.4 1.4 0 0 1 .6.3l.3.3Z" class="f"/><path d="M22.7 31h.2s.2 0 .3-.2a2 2 0 0 1 .5-.1 1.8 1.8 0 0 0-.5.2l-.3.2a.2.2 0 0 1-.2 0h-.2.2Zm1-.4a.2.2 0 0 1-.2 0 .5.5 0 0 0-.3-.2.7.7 0 0 0-.4.2.6.6 0 0 1-.2.2l.3-.1a.8.8 0 0 1 .4-.2.3.3 0 0 1 .2 0 .3.3 0 0 0 .2.1ZM18 28.3a1.8 1.8 0 0 1-.2-.2l-.6-.4.3.3a3.8 3.8 0 0 0 .5.3Zm4 2.8v-.3a1 1 0 0 1 .3-.2v-.2a.3.3 0 0 1-.1-.1.4.4 0 0 0 .1.1 1 1 0 0 1 .1.1s.2 0 .2 0h-.2l-.2-.3-.1.2c-.1 0-.2-.5-.5-.5h-.3l.2.4c-.1 0-.4-.4-.6-.4l-.3.1c0 .1.3 0 .2.2 0 .2-.2-.2-.4-.2l-.3.1c0 .1.1.2 0 .2a1 1 0 0 0-.2 0 1.5 1.5 0 0 0-.2.3.5.5 0 0 1 .3-.2 5.7 5.7 0 0 1 .6 0 1 1 0 0 1-.1 0 .7.7 0 0 1-.1-.2s0 0 .1.1a1.3 1.3 0 0 0 .3.2.7.7 0 0 1 .2 0l-.1.1a8 8 0 0 1-.2.2l.2-.1.2-.2h.1v-.1L21 30a2.1 2.1 0 0 1 .2.2l.1.3a1 1 0 0 0 .2 0v.1a1.2 1.2 0 0 0-.2.3 1.5 1.5 0 0 1 .2-.2l.1-.2h.2v-.2a1 1 0 0 1-.2-.3 1.1 1.1 0 0 0 .2.3l.1.2h.2v.2a2 2 0 0 0-.2.3Zm-2.4-1.4a.7.7 0 0 0 .2 0 .6.6 0 0 1-.3-.2V29l-.3.2v-.7c0-.2-.3-.3-.3-.2s0 .4-.2.4 0-.5 0-.6l-.2-.2-.1.3-.2-.2-.1-.2c-.1 0 0 .1 0 .2a.9.9 0 0 0 0 .2l.1.1c0 .1 0 0 0 0H18a1.7 1.7 0 0 0 .2.1h.2l.2.3a1.3 1.3 0 0 0 0-.3 2.2 2.2 0 0 0 0-.3 1.4 1.4 0 0 1 0 .3v.3s.1.1 0 .2a.8.8 0 0 1-.2 0 2 2 0 0 1-.4 0 1.5 1.5 0 0 0 .3 0h.5l.2.3a.9.9 0 0 0 0-.3 2.4 2.4 0 0 0 0-.4 2 2 0 0 1 .1.3 1.3 1.3 0 0 1 0 .5.5.5 0 0 1-.3 0l-.4.1a1.4 1.4 0 0 0 .5 0h.2a1.2 1.2 0 0 0 .2.1v.1l-.2.1h.2l.1-.1a.7.7 0 0 0 0-.1v-.2a.6.6 0 0 1 .1.1 1 1 0 0 1 0 .2s0 0 .2 0Zm-3.4-4a2.2 2.2 0 0 0 0-.3 1.6 1.6 0 0 0-.2-.6l.1-.2-.1.1a.5.5 0 0 1-.2 0 .3.3 0 0 1 0-.1h.1v-.2a2.1 2.1 0 0 1-.2 0 1.5 1.5 0 0 1-.3-.3 3.2 3.2 0 0 0 .3.2.6.6 0 0 0 .2 0 1 1 0 0 0 .2 0l.2-.2a1 1 0 0 1-.2.1H16V24l-.2-.1a1.6 1.6 0 0 1-.1-.3 1.3 1.3 0 0 0 .1.1 1 1 0 0 1 .2.2s0 0 .2-.1l.3-.2-.3.1c-.2.1-.2 0-.2 0v-.3a1.4 1.4 0 0 1 0-.3s0 0 0 .1l.1.1a1.6 1.6 0 0 0 .4-.3s.1-.2 0-.2l-.3.2-.1-.1a.5.5 0 0 0-.2.3v.3l-.3-.2-.1.3.2.4c-.1 0-.3-.2-.4 0s.3.4.4.5v.1l.3.2a1.4 1.4 0 0 1 .3.7 2 2 0 0 1 0 .3Zm1.3 2a.5.5 0 0 1-.1-.4c0-.2.2-.6.1-.7s-.2.3-.2.2v-.6l-.2-.3c-.1 0-.2.5-.3.4v-.4c0-.1 0-.2-.2-.1s0 .2-.1.2l-.3-.2c-.2 0 .3.5.3.5a.4.4 0 0 0 0-.2l.2-.1a.5.5 0 0 1 0 .2 1 1 0 0 0 0 .2.5.5 0 0 1-.3 0 1 1 0 0 1-.3-.1.9.9 0 0 0 .3 0l.3.2v.1l.2.2a1.6 1.6 0 0 0 0-.3l.2-.3v.4l-.1.3h-.3l-.4-.1.4.1.3.1.1.2.1-.2a1.1 1.1 0 0 0 .2-.2 1.1 1.1 0 0 1-.1.3l-.1.1a.8.8 0 0 1-.2 0h-.3a2.2 2.2 0 0 0 .3.1h.2a.4.4 0 0 0 .1.2.5.5 0 0 0 .2.2Z" class="g"/><path d="M23.4 31.8a.7.7 0 0 0-.2-.2H23v-.2l.7-.6v-.6h.4v.8h.1l.7.5v.1a.2.2 0 0 0-.2.1h-.2l-.5-.3-.2-.2-.3.5h-.2Z" class="h"/><path d="M23.9 30.2a.5.5 0 0 0 0 .1v.7l-.6.3c-.2.1-.2.3-.2.3a.7.7 0 0 0-.2 0 .4.4 0 0 0-.1.2 1.2 1.2 0 0 1 .3-.6 3.1 3.1 0 0 1 .5-.3 4.6 4.6 0 0 0 0-.6s.3 0 .3 0Zm.7 1.7a.7.7 0 0 1 .1 0 1 1 0 0 1 .1-.2s0 0-.1 0l-.4-.2a1.5 1.5 0 0 1-.2-.2l-.2.1a1.8 1.8 0 0 0 .2.2l.4.2a1 1 0 0 1 .1.1Z" style="fill:#016848"/><path d="M24.2 30.2h.2a4 4 0 0 1 0 .7.9.9 0 0 1-.2.3l-.4.4a2.9 2.9 0 0 0-.3.3l-.1-.2a1.1 1.1 0 0 1 .3-.4.9.9 0 0 0 .5-.5 2.9 2.9 0 0 0 0-.6Z" class="j"/><path d="M25.4 31.7H25a1 1 0 0 0-.2-.3l-.4-.1a.7.7 0 0 1-.2-.3l.1-.2a1.4 1.4 0 0 0 .3.3l.5.3.3.3Z" class="j"/><path d="M26.7 29s-.4 0-.3-.2.9-.4.9-.4v-.2a1 1 0 0 0-.4 0 3.1 3.1 0 0 1-1 .2 1.5 1.5 0 0 1-.3 0 202.8 202.8 0 0 0-3.4-.2c-.4 0-.6-.7-.6-.7h-.2v.4a7.2 7.2 0 0 1-1.6-.7v.3s.7.5.7.6l-.2.2v.2s1.4 0 1.4.4c0 .2-.3.3-.3.3l.1.1a3.3 3.3 0 0 1 1 .2c.1.1.2.3.5.4a7.3 7.3 0 0 0 2.1 0c.3 0 .5-.4 1-.5a3.2 3.2 0 0 1 .6-.2Z" style="stroke-width:.1px;stroke:#0872a7;fill:#30c2dc;stroke-miterlimit:4.6733"/><circle cx="20.1" cy="28.5" r=".2" class="l"/><circle cx="21.4" cy="27.4" r=".2" class="l"/><circle cx="26.9" cy="29.1" r=".2" class="l"/><path d="M19 27c0 .2.3.5.5.6s.3 0 .4-.1a.3.3 0 0 0 0-.3c-.2-.2-.7-.3-.8-.2Z" class="m"/><path d="M19.7 27.3s-.1-.2-.3-.2h-.2l.4.2s-.1.1 0 .1h.1Z" class="h"/><path d="m21.6 29.3-.3.3-.5-.1c-.1-.1.1-.3.3-.4s.4 0 .5.2Z" class="m"/><path d="M21.2 29.4h.2a.2.2 0 0 0-.2-.2l-.3.3h.2l.1-.1Z" class="h"/><path d="M27.2 28.5c.1.2.4 0 .5 0s.2-.3.1-.4a.3.3 0 0 0-.3 0 .6.6 0 0 0-.3.1.3.3 0 0 0 0 .3Z" class="m"/><path d="M27.2 28.4a.2.2 0 0 1 .2-.2H27.7v.1h-.5Z" class="h"/><path d="M24.2 28h-.8l.4 1 .4.7H24.8v-.2l-.1-1-.5-.5Z" class="n"/><path d="M23 28h.2a.8.8 0 0 1 .2 0 2.6 2.6 0 0 1 .4.4l.3.8c0 .2.3.5.3.5H23.8l-.7-1-.1-.6Z" class="n"/><path d="M22.7 28a2 2 0 0 1 .3 0 1.5 1.5 0 0 1 .4.5 5.7 5.7 0 0 0 .2.7 2.2 2.2 0 0 0 .4.5 3.8 3.8 0 0 1-.7 0l-.4-.1a1 1 0 0 0-.2-.1h-.2V28h.2Zm2.6.1-.4-.1H24v.3a3.3 3.3 0 0 0 .3.8 4.6 4.6 0 0 0 .4.6l.5-.1h.2v-1.4Z" class="n"/><path d="m22.6 28.1.1.1a.2.2 0 0 0 .1-.1.2.2 0 0 0-.2-.3c-.2 0-.3.2-.3.3l.1.3a.5.5 0 0 0 0 .3.6.6 0 0 0 .1.4s-.2.2-.2.3a.3.3 0 0 0 .3.3l.3-.2a.2.2 0 0 0-.2-.2h-.1m2.8-1.1h-.2l.2-.2a.3.3 0 0 1 .3.3.4.4 0 0 1-.1.2s0 0 0 .3a.6.6 0 0 1 0 .3.3.3 0 0 1 0 .3.3.3 0 0 1-.2.3s-.3 0-.3-.2.1-.2.2-.2a.2.2 0 0 1 .2.2" style="stroke-miterlimit:10;stroke-width:.08px;fill:#f9aa51;stroke:#953220"/><path d="M22.9 29.3a.4.4 0 0 0 0 .2 3.6 3.6 0 0 0 1 .1 4.2 4.2 0 0 0 1 0c.2 0 .2-.2.3-.2V29.7a.5.5 0 0 1-.3 0H23a.5.5 0 0 1-.1-.1V29.3ZM25 28h.2l-.2.3v.3a6.2 6.2 0 0 1-.7 0l-.1-.2Z" style="fill:#953220"/><path d="M26.9 28a.3.3 0 0 1-.2-.2v-.2l.1.1v.3Zm1.1-.4a.8.8 0 0 0 .1.2h.2a.5.5 0 0 1-.2 0 1 1 0 0 1-.2-.2Zm.4.1a.2.2 0 0 1-.2 0h-.1a.4.4 0 0 0 .3 0Zm.6-.4a.3.3 0 0 1-.2 0h-.1H29ZM28 26a.4.4 0 0 0 0 .1c-.1 0-.1.1 0 .1a.8.8 0 0 1 0-.2Zm-.5.3a.4.4 0 0 0-.1.1v.2-.1a1.4 1.4 0 0 1 .1-.2Z" class="q"/><path d="m26.5 27.1-.3.3a3 3 0 0 0 1.3.4 2.1 2.1 0 0 0 1.2-.5 1.1 1.1 0 0 0 0-.6l-.7-.4a1.6 1.6 0 0 0-.6.4c-.3.2-.2.4-.6.4h-.3Z" class="r"/><path d="M26.4 27.2s.8.2 1 0l.6-.7a.6.6 0 0 1 .3-.1 2 2 0 0 1 .1.1l.2.2V27.3l-.2.2-.4.2h-.8l-.7-.1-.2-.2Z" class="s"/><path d="M27.6 26.8h.2l-.1.2-.1-.2Zm.3.2.1-.1a.2.2 0 0 1 .2.1.1.1 0 0 1-.2.1L28 27Zm-.1.5.1-.1h.1a.1.1 0 0 1-.1.2l-.1-.1Zm-.4-.2h.1a.1.1 0 0 1 0 .2l-.1-.2Zm-.7 0a.2.2 0 0 1 .4 0 .2.2 0 1 1-.4 0Z" class="t"/><path d="m27.9 27 .1-.1a.1.1 0 0 1 0 .2L28 27Zm-.1.4h.2a.1.1 0 0 1-.2 0Zm-.4-.1.1-.1v.2a.1.1 0 0 1-.1-.1Zm.2-.5h.1v.1l-.1-.1Zm-.9.5a.1.1 0 0 1 .2-.1l.2.1a.3.3 0 0 1-.2.2.1.1 0 0 1-.2-.2Z" class="u"/><path d="M27 27.2a.4.4 0 0 0-.1 0v.2a1.4 1.4 0 0 1 .1-.2Zm.5-.1V27.4 27ZM27.6 27.2l-.1.2.1-.2Zm.1-.6c0 .1-.1.2 0 .2a.3.3 0 0 0 0-.2Zm.4.3H28c-.1 0 0 .1 0 .1a.4.4 0 0 1 .1-.1Zm0 .4a.2.2 0 0 1-.1.1h-.1c-.1 0 0 0 0 0h.2Z" class="q"/><path d="M28.7 27a.3.3 0 0 1-.2.3 2.2 2.2 0 0 1-1.1.5 3.5 3.5 0 0 1-1.1-.4v.1l.4.2.5.1h.5l.4-.1.4-.2.2-.2V27Z" class="t"/><path d="m19 24.2.2.2-.1.1c-.1 0 0 0 0-.1a.8.8 0 0 0 0-.2Zm.9.8v.2h-.2l.1-.1a.9.9 0 0 1 .1 0Zm-1.8.1a.2.2 0 0 0 0 .1h.2-.1a1 1 0 0 1-.1 0Zm.3.7a.3.3 0 0 0 .2 0 .1.1 0 0 0 .1 0H18.4Zm.6.5.1-.1c0-.1.1-.1 0-.1a.5.5 0 0 1-.1.2Z" class="q"/><path d="M20 25.9a1.3 1.3 0 0 0-.5-1.2c-.6-.4-1-.3-1.1-.1a.9.9 0 0 0 .2 1.2 1.6 1.6 0 0 0 1.3.3Z" class="r"/><path d="M18.3 25.2s0-.4.1-.5a.8.8 0 0 1 1 .3 1.4 1.4 0 0 1 .3 1.1h-.3l-.5-.2-.4-.3-.2-.4Z" class="s"/><path d="M19.8 26a.4.4 0 0 1-.3 0 1.6 1.6 0 0 1-1.3-1v.2l.1.2.2.3.2.2.3.1.2.1h.5l.1-.1Zm-.4-.3h.2l-.1.2-.1-.2Zm0-.4a.1.1 0 1 1 .1.1.1.1 0 0 1-.1 0Zm-.4.5h.2-.2c-.2 0 0 0 0 0Zm0-.5h.2l-.2.2v-.2Zm-.4 0a.2.2 0 0 1 .2 0 .1.1 0 0 1-.2 0Zm0-.4H19l-.2.2v-.2Zm.5 0a.1.1 0 0 1 .2 0l-.2.1V25Z" class="t"/><path d="M18.6 24.9h.2a.1.1 0 0 1 0 .1l-.2-.1Zm0 .4h.1a.1.1 0 0 1 0 .1h-.1Zm.5-.4h.1-.1Zm-.1.4a.1.1 0 0 0 0 .1.1.1 0 0 0 .2-.1.1.1 0 0 0-.1-.1.1.1 0 0 0-.1.1Zm.4 0a.1.1 0 1 0 .1-.2.1.1 0 0 0 0 .1Zm-.4.5a.1.1 0 0 1 0-.1h.2l-.2.2v-.1Zm.4 0v-.2l.2.1a.1.1 0 0 1-.1.1h-.1Z" class="u"/><path d="M19.5 25a.4.4 0 0 1 0 .2v.1c0 .1 0 0 0 0a.7.7 0 0 1 0-.3Zm-.4-.3v.2-.1a.8.8 0 0 1 0-.1Zm-.4 0a.3.3 0 0 1 0 .1v.1a.8.8 0 0 1 0-.2ZM18.6 24.8l.1.1a1.3 1.3 0 0 0-.1-.1Zm.3.4a.2.2 0 0 1 .1 0v.2a.9.9 0 0 1-.1-.2Zm-.4 0a.4.4 0 0 1 .1 0v.1Zm1 .3a.7.7 0 0 1 0 .1v.2l-.1-.2a.5.5 0 0 1 0-.1Zm-.2.1a.4.4 0 0 1 .1 0v.2-.1c0-.1 0 0 0 0Zm-.4 0a.3.3 0 0 1 .1 0v.2a.9.9 0 0 0 0-.1Z" class="q"/><path d="M18.8 24.4s-.4.1-.5.3a2.2 2.2 0 0 0 0 .5v-.6l.2-.1h.2Zm1 1.4v-.4a5.2 5.2 0 0 0-.3-.6l.2.2v.2l.2.2V25.7Z" class="t"/><path d="m20.2 25.3.2.2h-.1a.7.7 0 0 1 0-.2Zm-.5 1.4a.4.4 0 0 1 .1-.1h.2-.1l-.2.1Zm.9.4a.5.5 0 0 0 .1-.1c.1 0 .1-.1 0-.1a.8.8 0 0 0-.1.2Zm-.1-.1a.6.6 0 0 1 0-.2h.2v.1a.9.9 0 0 1-.2.1Z" class="q"/><path d="M22 26.3a2 2 0 0 0-1.4-.8.8.8 0 0 0-.9.7c0 .2.3.6 1.2.7s1-.4 1-.5Z" class="r"/><path d="M21.3 25.8a2 2 0 0 1 .3.3l.1.2a5.3 5.3 0 0 0-1-.5c-.4 0-.7 0-.8.2a.5.5 0 0 0 .2.6 5.4 5.4 0 0 0 1 .3l.4-.1.3-.1v-.4h.1l-.2-.3-.4-.2Z" class="s"/><path d="M20.6 25.9h-.2l.1-.1a.1.1 0 0 1 .1 0Zm-.5.2h.1a.1.1 0 0 1 .1 0l-.1.1a.1.1 0 0 1 0-.1Zm.6.3a.1.1 0 0 1 .2 0l-.1.1-.1-.1Z" class="t"/><path d="M20.3 26.5a.1.1 0 0 1 .2 0l-.1.1-.1-.1Z" class="u"/><path d="M21 26.7v-.1h.2a.1.1 0 0 1-.1.2l-.1-.1Zm.3-.3h.1a.1.1 0 0 1 .1 0l-.1.2c-.1 0 0-.1 0-.2Z" class="t"/><path d="M20.6 25.8v.1h-.2l.1-.1h.1Zm-.3.3H20l.1-.1h.1Zm.2.4h-.2v-.1h.2Zm.4-.2-.2.1v-.1a.2.2 0 0 1 .2 0Zm.6.2h-.1c-.1 0 0 0 0 0v-.2l.1.2Zm-.4.2H21v-.1h.1Z" class="u"/><path d="M21.2 26.4a.5.5 0 0 1 .2 0h-.2Zm-.4.3a.5.5 0 0 1 .2 0 .7.7 0 0 1-.2 0Zm-.2-.5h.2v.2h-.1l-.1-.2Z" class="q"/><path d="M20.6 26.4a1 1 0 0 1 .1 0h.1c.1 0 0 0 0 0h-.2Zm-.4 0a.4.4 0 0 1 .1 0v.1c0 .1 0 0 0 0l-.1-.1Z" class="q"/><path d="M20.2 26.6v-.1h.2-.1a1.1 1.1 0 0 1-.1 0ZM20 26l.1.1a.2.2 0 0 1-.1-.1Zm.2-.3a.4.4 0 0 1 .2 0v.2a.9.9 0 0 1-.2-.2Z" class="q"/><path d="M21.8 26.6a1.3 1.3 0 0 1-.8.2 1.6 1.6 0 0 1-1.3-.6v.2l.2.2.4.2h.5l.3.1h.4l.3-.2Zm.1-.3a2.8 2.8 0 0 0-.2-.2l-.7-.5.4.2.3.2.2.3Z" class="t"/><path d="M22 25.8a.6.6 0 0 1 .1 0 .6.6 0 0 0 0 .2.8.8 0 0 1-.1 0 1 1 0 0 1 0-.2Zm.4-.2a.6.6 0 0 1 .2 0v.2h-.2v-.2Z" class="q"/><path d="M22.5 25.5a.8.8 0 0 1 .2.2s-.1 0-.1 0v-.2Zm.8.2v.1a.4.4 0 0 1 0 .2s0 0 0-.1Zm.2 0a.4.4 0 0 1 0 .2v.1ZM22 27.5a.2.2 0 0 0 .1 0l.1-.1c0-.1 0 0 0 0h-.1v.1Zm.8.2a.3.3 0 0 0 .1 0c0-.1.1-.2 0-.2a.6.6 0 0 1-.1.2Zm.6 0 .1-.2a1 1 0 0 1-.1.2ZM23.6 27.6a.7.7 0 0 0 .1-.1v-.1.2Z" class="q"/><path d="M21.8 26.6c0-.2.4-.8.8-.8a2.6 2.6 0 0 1 .8.2l.5.3a1.4 1.4 0 0 0 .4 0h.6l-.5.5-.1.2a1 1 0 0 1-.5.4 2.7 2.7 0 0 1-1.4 0 .8.8 0 0 1-.6-.8Z" class="r"/><path d="M21.8 26.6a.7.7 0 0 1 0-.2 1.3 1.3 0 0 1 .4-.4.6.6 0 0 1 .4-.2 1.7 1.7 0 0 1 .4 0 3.2 3.2 0 0 1 .4.2 1.5 1.5 0 0 1 .3.2.6.6 0 0 0 .2 0 1 1 0 0 0 .2.1 1.7 1.7 0 0 0 .2 0h.5l-.4.5-.1.2a1 1 0 0 1-.5.4 1.4 1.4 0 0 1-.5 0 3.8 3.8 0 0 1-.9 0 1 1 0 0 1-.4-.3.6.6 0 0 1-.2-.4.7.7 0 0 0 .2.4 1 1 0 0 0 .4.3 3.8 3.8 0 0 0 .9 0 1.4 1.4 0 0 0 .5 0 1 1 0 0 0 .5-.4l.2-.1.4-.7h-.8a1 1 0 0 1-.2 0 .6.6 0 0 1-.2 0 1.6 1.6 0 0 0-.2-.2 3.2 3.2 0 0 0-.5-.2 1.7 1.7 0 0 0-.4 0 .6.6 0 0 0-.3 0 1.2 1.2 0 0 0-.4.4 1 1 0 0 0-.1.4Z" class="t"/><path d="M24.4 26.7a.2.2 0 0 1-.1 0 6.8 6.8 0 0 0-1.7-.6c-.3 0-.7.1-.7.5s0 .4.2.5a3.2 3.2 0 0 0 .8.3h.8l.3-.2.2-.2.1-.1.1-.2Z" class="s"/><path d="M22.5 26.5v.2s-.2 0-.2-.2 0 0 .1 0h.1Zm.1-.3.2-.1h.1a.1.1 0 0 1-.1.2.1.1 0 0 1-.2-.1Zm.8.2Zm.1.4a.1.1 0 0 1 .1 0h.2l-.1.1h-.2Zm-.3.3a.1.1 0 0 1 .2 0 .1.1 0 0 1-.1.1.1.1 0 0 1-.1 0Zm-.7-.1a.1.1 0 1 1 .1.1.1.1 0 0 1-.1-.1Z" class="t"/><path d="M22.5 26.5a.1.1 0 0 1-.2 0h.2Zm.4-.3H22.6a.1.1 0 0 1 .3 0Zm.7.2a.1.1 0 1 1-.1-.1Z" class="u"/><path d="M23.2 26.7H23v-.1h.2Z" class="t"/><path d="M22.7 27a.1.1 0 0 1-.2 0l.1-.1Zm.5-.4a.1.1 0 1 1-.1 0Zm.6.2a.1.1 0 0 1-.2.1.1.1 0 0 1 0-.1v-.1h.2Zm-.4.3h-.2.2Z" class="u"/><path d="M23.4 26.7h.2v.1a1 1 0 0 0-.2 0Zm-.2-.6a.5.5 0 0 1 .2.1c.1.1 0 .2 0 .2a2.1 2.1 0 0 1-.2-.3Zm-.4.3a1 1 0 0 1 .2.2s-.2-.2-.2-.2Zm0 .2a.8.8 0 0 1 .2 0v.1a.4.4 0 0 1-.1 0Zm-.2-.6a1 1 0 0 1 .2 0v.2h-.1a.9.9 0 0 0-.1-.2Zm-.4.3a.7.7 0 0 1 .2.2h-.1a1 1 0 0 0-.1-.2Z" class="q"/><path d="M22.1 26.5a1 1 0 0 1 .2 0h.1-.3Zm1 .6h.2-.2Zm-.7 0 .1-.1c.1 0 0 0 0 0h-.1Z" class="q"/><path d="M24.3 27a1.3 1.3 0 0 1-.4.2 1.5 1.5 0 0 1-.8.2 1.6 1.6 0 0 1-.8-.2 1.2 1.2 0 0 1-.5-.4v.1l.3.3.2.1.4.1H24l.1-.2h.2Zm-.4-.7-.3-.1a1.7 1.7 0 0 0-1-.3.8.8 0 0 0-.6.3l.2-.3h.2l.2-.1h.4l.2.1h.2l.2.2.3.1Zm.7.1h-.4a.5.5 0 0 1 0 .1l-.2-.2H24.6Z" class="t"/><path d="M24 28.4a.1.1 0 0 0 .2.1H24.8l.1-.2V28l.2-.1.4-.2.3-.1h.2l.2-.1.2-.1.1-.2.1-.2v-.3l-.3-.2-.3-.2h-.4l-.3.1-.6.2a1 1 0 0 0-.5.4 1.2 1.2 0 0 0-.1.6v.8Z" style="fill:#0c8489;stroke:#04534e;stroke-width:.1px"/><path d="M24.2 28.3c.2 0 0-.2.2-.4a2.2 2.2 0 0 1 .3-.5h.1a.3.3 0 0 0 .2-.1.3.3 0 0 1 0-.2 1.3 1.3 0 0 1 .4-.2s.2 0 .3 0a.2.2 0 0 0 0-.1.2.2 0 0 1 .2 0h.1v.1c0 .1 0 0 0 0l.1.2a.2.2 0 0 0 .1 0v-.2c0-.1 0 0 0 0h.3a.2.2 0 0 0 0-.1l-.2-.3-.3-.1h-.5l-.4.2-.4.3-.1.2-.2-.1-.1.4a2.5 2.5 0 0 0-.2.6l.1.3Z" class="u"/><path d="M24.6 27.8a.1.1 0 0 0 0 .1v.1h.2a.2.2 0 0 0 0-.1l-.2-.1Zm.7-.6a.1.1 0 0 0 0 .1v.1h.1v-.2Zm.6.1h-.1a.1.1 0 0 0-.1.1l.1.1c.1 0 0 0 0-.1Zm-1.6.2a.1.1 0 0 0 .1 0 .1.1 0 0 0 .1 0c0-.1 0 0 0 0h-.2Z" class="u"/><path d="M24.8 27.9a.2.2 0 0 1-.2.1.2.2 0 0 0 .2-.1Zm1.5-1a.1.1 0 0 1 0 .2.2.2 0 0 1-.2 0 .2.2 0 0 1-.1-.2s0 .2.1.2a.2.2 0 0 0 .2-.1Zm-1.3.4-.2.1c-.2 0 0 0 0 0a.6.6 0 0 0 .2-.1Zm.2 0v.1a.2.2 0 0 0 .1 0 .1.1 0 0 0 .1 0h-.2v-.1Zm.5-.5a.1.1 0 0 1 0 .1h-.2.1a.4.4 0 0 0 0-.1Zm-1.5 1.7h.6s0-.5.3-.7a1.4 1.4 0 0 1 .8-.3.7.7 0 0 0 .7-.5c0-.2-.3-.2-.4-.4s-.4-.1-.4-.1a.8.8 0 0 0-.5.1l-.1.3h-.5v.2h-.1v-.4l.5-.2.6-.3h.3l.4.2.2.2a1 1 0 0 1 0 .2.6.6 0 0 1 0 .2.8.8 0 0 1-.7.6 1.5 1.5 0 0 0-.8.3l-.2.6a3 3 0 0 1-.7 0Z" class="t"/><path d="M24.4 27.4a.5.5 0 0 1 0-.3 1 1 0 0 0 0 .2Zm.4-.1v-.1a1.3 1.3 0 0 1 .2-.2l-.1.2-.1.1Zm-.1.6V27.6v.2ZM25 27.7a.5.5 0 0 1-.2.1s-.1.1-.1 0a1.7 1.7 0 0 1 .2 0Zm.4-.7a.4.4 0 0 0 0 .2l-.1.1v-.1l.1-.2ZM25.6 27.3a.3.3 0 0 0-.1 0c-.1-.1-.2 0-.2 0a.2.2 0 0 1 .2 0Zm-.1-.5h.1a.5.5 0 0 0 0-.2l-.1.2Zm.7 0c-.1.1-.2.1-.1.2s.1-.2.1-.2Zm-.2.5-.2.1a.5.5 0 0 1 .1 0 .8.8 0 0 0 .1-.1Z" class="q"/><path d="m21.3 24.8-.2.4h.2v-.4ZM21.4 24.6a.1.1 0 1 0 0 .1.1.1 0 0 0 0-.1ZM17.7 23.2l.3.6v-.2l-.2-.4Z" class="w"/><path d="M17.6 23a.1.1 0 0 0 0 .2.1.1 0 0 0 .2 0 .1.1 0 0 0 0-.2.1.1 0 0 0-.2 0Z" class="w"/><ellipse cx="21.1" cy="25.6" rx=".5" ry=".3" style="fill:url(#a)" transform="rotate(-81.3 21.1 25.6)"/><path d="M21.4 24.6h-.1a.1.1 0 0 0 0 .2c.1 0 0 0 0 0v-.2h.1ZM21.3 24.9l-.1.1.1-.2ZM17.7 23a.2.2 0 0 0 0 .2.1.1 0 0 0 .1 0h-.2V23ZM17.9 23.3v.3l-.2-.3h.1Z" class="e"/><ellipse cx="18.3" cy="24.2" rx=".3" ry=".5" style="fill:url(#b)" transform="rotate(-27.1 18.3 24.2)"/><path d="m21.5 25.4.1-.2-.1-.2a.3.3 0 0 0-.1.2.3.3 0 0 0 0 .2h.1ZM21.1 25a.3.3 0 0 0 0 .2.2.2 0 0 0 .2 0l.1-.1V25c0-.1-.2-.1-.2 0Z" class="z"/><path d="m20.8 25.1.1.1a.2.2 0 0 0 .1 0 .1.1 0 0 0 .1 0 .4.4 0 0 0 0-.2s-.2-.1-.2 0v.1ZM17.7 24.1a.3.3 0 0 0 .2 0 .2.2 0 0 0 0-.2.4.4 0 0 0 0-.1h-.1l-.2.1c0 .1 0 0 0 0a.5.5 0 0 1 0 .1l.1.1Z" class="z"/><path d="M17.9 23.8a.4.4 0 0 0 0 .1.2.2 0 0 0 .2 0v-.4l-.3.1v.2Z" class="z"/><path d="M18.4 23.7a.3.3 0 0 0 0-.2s-.3 0-.3 0a.3.3 0 0 0 0 .2s.1 0 .1 0a.4.4 0 0 0 .2 0Z" class="z"/><path d="M21 25.1Zm.2 0a.2.2 0 0 0 0 .1h.1a.1.1 0 0 0 0-.1.3.3 0 0 0-.1 0Zm.3 0v.1c0 .1 0 0 0 0ZM17.9 23.9v.1h-.2l.1-.1Zm0-.2v.1a.2.2 0 0 0 .2 0 .3.3 0 0 0 0-.1.4.4 0 0 0-.2 0Zm.3-.1a.2.2 0 0 0 .1.1v-.1Z" class="aa"/><path d="m29.5 25.6-.3.5-.1-.2.4-.3Z" style="stroke-width:.409px;fill:#fcca3e;stroke:#aa8c30"/><path d="M29.7 25.4a.1.1 0 0 1 0 .2.1.1 0 0 1-.3 0 .1.1 0 0 1 0-.2.1.1 0 0 1 .3 0Z" style="stroke-width:.35px;fill:#fcca3e;stroke:#aa8c30"/><ellipse cx="28.7" cy="26.5" rx=".5" ry=".3" style="fill:url(#c)" transform="rotate(-48.5 28.7 26.5)"/><path d="M29.3 26.5a.3.3 0 0 1-.1 0 .2.2 0 0 1 0-.2.4.4 0 0 1 0-.2h.2l.1.2a.5.5 0 0 0 0 .1h-.2Z" class="z"/><path d="M29.3 26.1a.4.4 0 0 1-.2.1.3.3 0 0 1-.2-.2l.1-.1h.1v-.1l.2.2v.1Z" class="z"/><path d="M28.7 26a.3.3 0 0 1 0-.3h.4v.2a.3.3 0 0 1-.1 0v.1h-.1a.4.4 0 0 1-.2 0Z" class="z"/><path d="M29.2 26.2v.2h.1v-.2Zm0-.1a.2.2 0 0 1-.2 0 .3.3 0 0 1 0-.2.1.1 0 0 1 .1 0 .4.4 0 0 1 .1.2Zm-.2-.3a.1.1 0 0 1 0 .1.2.2 0 0 1-.2 0s0-.1 0-.1h.2Z" class="aa"/><path d="M29.6 25.4a.2.2 0 0 1 0 .2.1.1 0 0 1-.2 0c0-.1 0 0 0 0H29.8v-.2Z" class="e"/><path d="m29.4 25.7-.1.2.2-.3Z" class="e"/><path d="M20.3 19.5a3.4 3.4 0 0 1-.8 0c-.2 0-.2-.8-.2-.8l-.1-.4c0-.2.5-.6.6-.6a.3.3 0 0 1 .2 0s0 0 .1 0h.1l-.2.2a.6.6 0 0 1 0 .3 1.2 1.2 0 0 0-.2.3v.1a.6.6 0 0 0 .4 0l.2-.2s0 .2-.3.2-.2.2-.3.2c0 0-.1.2.2.2a1 1 0 0 0 .4 0Zm-1.7 1.8a.4.4 0 0 1 .2.3l-.2 1c0 .4 0 .3.6.8a.6.6 0 0 1 .2.3c0 .1.2 1 .7 1s.6-.4.6-.4l-.2-.3a.8.8 0 0 1-.3 0 .4.4 0 0 1-.3-.2 4.2 4.2 0 0 0-.1-.6c-.3-.4-.7-.4-.7-.8s.3-.4.2-.8-.6-.7-.6-.7h-.2v.4Z" class="ae"/><path d="M20.1 18.3c.2 0 .1-.6.1-.6l-.1.1a.4.4 0 0 1 0 .3.8.8 0 0 1 0 .2Z" style="fill:#f1a720"/><path d="M20.5 23h-.1s-.4-.3-.3-1c0-.8 1.2-1.2 1.2-1.5.1-.3.4-.5-.5-1.2l-.2.2.3.3h.1l-.1.4a5.4 5.4 0 0 1-.6.5l-.4.2a1.6 1.6 0 0 0-.3.5 1.4 1.4 0 0 0 0 .7 1 1 0 0 0 .9 1Z" class="ae"/><path d="M20 23.5v.3H19.7l-.2.2v-.2h.2v-.1Zm-.6 0h-.1a.4.4 0 0 0-.1-.1l.1-.1h.2v.1Zm.3-.4a.3.3 0 0 1 .1 0v.2H19.6V23Zm-.1 1.3a.2.2 0 0 1 0-.1 1.4 1.4 0 0 1-.1-.2H19.8v.2h-.2Zm.6-.5H20v-.1.2l-.1.1h.1a1.2 1.2 0 0 0 .1 0v-.2Zm-.6.6h.2a.3.3 0 0 0 .1.1l.2-.2h-.4Zm.5-.2.3-.1V24h-.2v.2Zm-.2.3a.8.8 0 0 0 .6 0l.2-.2h-.2l-.1.1-.5.1Zm-.3-2.2v-.2h.2v.2Zm.3.4a.9.9 0 0 1-.1-.1 1.3 1.3 0 0 1 0-.1h.2l-.1.2Z" class="ag"/><path d="m19.2 18.2.1.2s.3 0 .5-.2a.4.4 0 0 0 .1-.3v-.2a.2.2 0 0 0-.2 0 4.6 4.6 0 0 0-.5.5Z" style="fill:#c6c7a6"/><path d="M19.6 17.9a2 2 0 0 0-.2.1.8.8 0 0 0 .3-.1.4.4 0 0 1 .3 0v-.1a.2.2 0 0 0-.2 0 2.2 2.2 0 0 0-.2 0Z" class="ae"/><path d="M20 22.3a.9.9 0 0 1 0-.1.5.5 0 0 1 0-.1l-.1.2h.1Zm-.4-.3a1.8 1.8 0 0 1 0-.2 3 3 0 0 1 0-.4v.2l.3.2-.1.2h-.2Zm.5 0a1.2 1.2 0 0 1 0-.2 1 1 0 0 1 0-.1s-.1.1-.1.1v.2m-.3-.7a.6.6 0 0 1 0-.2l.2-.2v.3l.1.2H19.7Zm.5.3.2-.2H20l.1.2ZM20 21a.5.5 0 0 0 .1-.1l.2-.1v.4H20Z" class="ag"/><path d="m20.4 21.4.2-.2-.3-.1v.2Zm.2-.6v-.3a.8.8 0 0 0-.2 0 1.1 1.1 0 0 1-.1.2l.2.1Zm.3-.3v-.3a.7.7 0 0 1-.1.1.6.6 0 0 0-.1.1h.2Zm.1.4.2-.2a.7.7 0 0 0 .1-.2H21v.2Zm-1-1.6v.2h.3l-.2-.2H20Zm.7 1.8.2-.1a1 1 0 0 1 0-.1h-.3v.2Zm.7-.6a1.2 1.2 0 0 0 0-.3.7.7 0 0 0 0-.2l-.3.2v.1l.2.1Z" class="ag"/><path d="M21 20.1a.4.4 0 0 0 0-.1H21.3l-.2.2H21Zm.3-.2v-.2a.5.5 0 0 0-.2-.1v.3H21Z" class="ag"/><path d="M18.7 22v.1a.6.6 0 0 1 .2 0l.2.1-.2-.2a.5.5 0 0 0-.2 0Zm0-.6h.1a.3.3 0 0 1 .2-.1.3.3 0 0 1 .2 0s0-.1-.1-.1a.2.2 0 0 0-.2 0 .4.4 0 0 0-.1.2Zm.6.5a.3.3 0 0 0-.2-.2.4.4 0 0 0-.3 0v.2a.4.4 0 0 1 .3 0 .3.3 0 0 1 .1 0Zm-.6-.6a.4.4 0 0 1 .1-.1.5.5 0 0 1 .1-.2.4.4 0 0 0-.2.1.3.3 0 0 0 0 .2Zm0-.2a.2.2 0 0 1 0-.1.3.3 0 0 0-.1 0 .6.6 0 0 0 0 .3.6.6 0 0 1 0-.2Zm.8-2.1a.3.3 0 0 1 .2 0 .3.3 0 0 0-.1.3 1.1 1.1 0 0 0-.1.2l.1-.2a.7.7 0 0 0 .2.3h.1a.8.8 0 0 1 .1-.3.6.6 0 0 0 .2.1.8.8 0 0 1-.2-.2.5.5 0 0 1 .2-.2l.1.1h-.1a2.2 2.2 0 0 0-.2 0l-.1-.1a.3.3 0 0 0-.3.2l.2-.3h-.3a.4.4 0 0 0-.2.2.9.9 0 0 1 .2-.1Zm.2.2a.6.6 0 0 1 .2-.1.4.4 0 0 0 0 .1.9.9 0 0 0 0 .3.8.8 0 0 1-.2-.2Zm-.9 2.3v.1a.3.3 0 0 1 .3 0 .4.4 0 0 1 .2 0s0 0 0-.1a.5.5 0 0 0-.2 0 .5.5 0 0 0-.3 0Zm2.4-1.2a1.1 1.1 0 0 1 0-.1 1.4 1.4 0 0 0 .2-.2H21v-.3a1 1 0 0 1 .1-.1s0 0-.1 0a.7.7 0 0 1-.3-.1 2.3 2.3 0 0 0 .2.1.2.2 0 0 0 .2 0 1 1 0 0 0 0 .1.6.6 0 0 0-.1.1v.1H21.3a.7.7 0 0 1-.1.2L21 20v.2h-.1v.3l-.2-.1h-.1a1.2 1.2 0 0 0 0 .4.5.5 0 0 1-.3-.1 1 1 0 0 0 0 .4.6.6 0 0 1-.3-.2v.5a.4.4 0 0 1-.3 0 .9.9 0 0 0 .2.5.7.7 0 0 1-.3.1v.1l.2.2a.5.5 0 0 1-.2 0v.1l.3-.1a1 1 0 0 0 .2 0 .9.9 0 0 1-.2 0 1.7 1.7 0 0 0 .2-.2V22a.3.3 0 0 1-.2-.1l.3-.2a.3.3 0 0 1-.1-.2h.3v-.1a1 1 0 0 1 0-.3h.2a1.5 1.5 0 0 1 0-.2h.4a1 1 0 0 1 0-.4h.3a.8.8 0 0 1-.1-.2ZM20 22a1.2 1.2 0 0 1-.1.2.5.5 0 0 1-.1 0 .3.3 0 0 1-.1-.1 3 3 0 0 0 .2-.2l.1.1Zm.1-.3a2.3 2.3 0 0 1-.2.2l-.2-.5a.2.2 0 0 0 .2.1h.1a.4.4 0 0 0 .1.2Zm.3-.3a2.2 2.2 0 0 1-.3 0 1.8 1.8 0 0 1-.1-.4 1 1 0 0 0 .3.1Zm-.1-.3a1 1 0 0 1 0-.4.5.5 0 0 0 .3.2 1.6 1.6 0 0 0 0 .2 1.6 1.6 0 0 1-.3 0Zm.6-.3a.7.7 0 0 1-.3 0 2.5 2.5 0 0 1 0-.4 1.7 1.7 0 0 0 .3.1 1.1 1.1 0 0 0 0 .3Zm0-.3v-.3a.5.5 0 0 0 .2 0 .4.4 0 0 0 0 .1.7.7 0 0 0 .2.2 1.8 1.8 0 0 1-.4 0Zm-.8 2a.4.4 0 0 0-.1.1h-.3.2v.2a.6.6 0 0 1 0-.2h.2V23h.2-.1a.4.4 0 0 0-.1 0V22.6a.5.5 0 0 1-.1 0 .3.3 0 0 1 .1 0Zm-1.2-.1a.5.5 0 0 1 .2 0s-.1-.1-.2-.1a.5.5 0 0 0-.3 0v.2a.4.4 0 0 1 .3-.1Zm1.4 2.1a.9.9 0 0 1-.3 0 .9.9 0 0 0 .1-.1.5.5 0 0 0 .3-.3.5.5 0 0 1-.3.2l.1-.3a.6.6 0 0 1-.3.1.8.8 0 0 0 .1-.3.4.4 0 0 1-.2 0 3.5 3.5 0 0 0 .1-.3 1.7 1.7 0 0 1-.2.3 1.3 1.3 0 0 1-.3 0 .7.7 0 0 0 .2 0l-.1.2v.1h.3a.8.8 0 0 1-.2.3 2 2 0 0 0 .5 0 1 1 0 0 1-.2.2 1 1 0 0 0 .4 0 .5.5 0 0 0 .2-.2.3.3 0 0 1-.2.1Zm-.7-.5.1-.1h.2v.2a.9.9 0 0 1-.3 0Zm.1.4.2-.2a.3.3 0 0 0 .2-.2.6.6 0 0 1 0 .3.8.8 0 0 1-.4 0Zm-.2-1a1.6 1.6 0 0 1 .4 0l-.4-.2a.4.4 0 0 1 .2-.1s-.1 0-.2.1a.5.5 0 0 0-.3.1.8.8 0 0 1 .3 0l-.1.3.1-.3Zm-.3-.8a.4.4 0 0 0-.3 0 .7.7 0 0 0-.3.2.5.5 0 0 1 .3-.1.9.9 0 0 1 .3 0Zm.3.3h-.1a.8.8 0 0 0-.2 0 .4.4 0 0 0-.1.3.2.2 0 0 0 0 .1.5.5 0 0 1 .1-.3 1.1 1.1 0 0 1 .3-.1Zm-.4 0a.5.5 0 0 1 .2-.2.5.5 0 0 0-.3 0 1.7 1.7 0 0 0-.2.3v.1a2.5 2.5 0 0 1 .3-.3Zm.5-5h.3a1 1 0 0 0 0 .2l-.2.2a.8.8 0 0 0-.1.3v.2h.1c0-.1 0 0 0 0v-.2a.8.8 0 0 1 0-.3.6.6 0 0 0 .2-.2 2.5 2.5 0 0 1 0-.3.3.3 0 0 0-.3.1.5.5 0 0 1-.2.1.3.3 0 0 0 .2 0Z" class="h"/><path d="M20.2 19h-.3v.2Zm-.3 0a.2.2 0 0 0-.1 0h-.1v.2Zm0 .6-.3-.3v.2h.2Zm.7 4.9a1 1 0 0 1-.5.1.7.7 0 0 1-.4 0 .4.4 0 0 1-.1-.3 1.8 1.8 0 0 1-.1-.4 1.2 1.2 0 0 0-.2-.4 1.9 1.9 0 0 0-.4-.4.8.8 0 0 1-.3-.5v-.1a1.2 1.2 0 0 1 .1-.5 1.1 1.1 0 0 0 .2-.4.4.4 0 0 0-.2-.3 1 1 0 0 0-.1 0h-.1a1 1 0 0 1 .2 0 .4.4 0 0 1 .1.2 1.1 1.1 0 0 1 0 .5 1.3 1.3 0 0 0-.2.5.8.8 0 0 0 .3.7 1.9 1.9 0 0 1 .4.3 1.8 1.8 0 0 1 .2.5 1.3 1.3 0 0 0 0 .3.5.5 0 0 0 .2.2.8.8 0 0 0 .4.2 1 1 0 0 0 .6-.2Zm-.2-.6a.3.3 0 0 1-.1 0 .3.3 0 0 1-.2 0 .4.4 0 0 1-.2-.3 1.7 1.7 0 0 0 0-.3 1.2 1.2 0 0 0-.4-.5c-.2 0-.3-.2-.4-.3a1 1 0 0 1 .1-.4 1.2 1.2 0 0 0 .1-.5.7.7 0 0 0-.3-.6 1.5 1.5 0 0 0-.3-.1 1.5 1.5 0 0 1 .3.2.6.6 0 0 1 .3.4v.1a1.1 1.1 0 0 1-.1.4 1 1 0 0 0-.1.4c0 .2.2.4.3.5a1.2 1.2 0 0 1 .4.4 1.6 1.6 0 0 1 .1.3.5.5 0 0 0 .2.3.3.3 0 0 0 .2 0 .3.3 0 0 0 .1 0Z" class="ag"/><path d="M21.4 23s.2.1.2.3a1.5 1.5 0 0 1-.1.3l-.3-.2.2-.1v-.1Z" class="ae"/><path d="M18.1 21.2H18a.3.3 0 0 1 0-.2l-.1-.1.1-.1s0-.2.2-.2.1.2.1.2Z" class="aj"/><path d="M18.3 21.3h-.2V21s-.1 0 0-.2l.2-.2a.2.2 0 0 1 .1.1v.5Z" class="aj"/><path d="M18.6 21.3a.1.1 0 0 1-.2 0v-.1l-.1-.2c0-.2 0 0 .1-.1l.2-.2.1.2s-.2 0-.2.2a.3.3 0 0 0 .1.2Z" class="aj"/><path d="m21.1 23-.2-.3a3.1 3.1 0 0 0-.3-.2l-.2-.2-.2-.2v-.5l.2-.1s-.5.1-.3 1.1a.6.6 0 0 0 .4.5h.5Z" class="ak"/><path d="M20.9 19.8a.1.1 0 0 1 0 .1h.1c-.2.4-.5.6-.9.8a1.5 1.5 0 0 0-.4.5 1.3 1.3 0 0 0-.1.7 1.2 1.2 0 0 0 .4 1 1 1 0 0 0 .6.2s0 0 .2 0h.3a1.2 1.2 0 0 1 .2 0 .2.2 0 0 1 .1 0 .2.2 0 0 1 0 .2.4.4 0 0 1-.1 0v.1a.2.2 0 0 0 .2-.2.1.1 0 0 0 0-.1.2.2 0 0 0-.2 0 1.3 1.3 0 0 0-.2 0 4.6 4.6 0 0 0-.5 0 1 1 0 0 1-.6-.2 1.1 1.1 0 0 1-.4-1 1.3 1.3 0 0 1 .2-.7 2 2 0 0 1 .6-.6 1.5 1.5 0 0 0 .6-.6.2.2 0 0 0 0-.2.1.1 0 0 0-.1 0Z" class="al"/><path d="m21.6 23.2-.2.2.2.1a.6.6 0 0 0-.3 0v-.1a.4.4 0 0 0 .1 0 .4.4 0 0 0 .1-.3Z" class="h"/><path d="m22 23.3-.3.1h-.1v-.2a.6.6 0 0 0-.2-.1 1.3 1.3 0 0 0-.3 0l-.6-.7H21.7v.1l.2.1v.2l.1.1v.2Z" class="am"/><path d="M22 23.3a.9.9 0 0 1-.2 0 1.1 1.1 0 0 1-.2 0s0 0 0 .1a1.3 1.3 0 0 1 0 .2v.3H21.8l.1-.4Z" class="ak"/><path d="M22 23.2v.1-.1Zm-.3-3.3v-.2l-.1-.2-.1-.2-.2-.1V19h-.4l-.1.2a2.1 2.1 0 0 1 .5.6.8.8 0 0 1 .3.2Z" class="am"/><path d="M21.4 20.2a.9.9 0 0 1 0 .4l.1-.2.1-.3a.8.8 0 0 0-.3-.2.5.5 0 0 1 .1.3Z" class="ak"/><path d="m21.8 23.8-.1-.2a.6.6 0 0 0-.2-.1.6.6 0 0 1 .2.1v.1h.1Z" class="al"/><path d="M22 23.5a.5.5 0 0 1-.1.2 1.2 1.2 0 0 1-.3.2h.4l.2-.1Z" style="fill:#6f5b24"/><path d="M22 23.8v.1-.3.1Z" style="fill:#404118"/><path d="M20.3 19.5a3.4 3.4 0 0 1-.8 0c-.2 0-.2-.8-.2-.8l-.1-.4c0-.2.5-.6.6-.6a.3.3 0 0 1 .2 0s0 0 .1 0h.1l-.2.2a.6.6 0 0 1 0 .3 1.2 1.2 0 0 0-.2.3v.1a.6.6 0 0 0 .4 0l.2-.2s0 .2-.3.2-.2.2-.3.2c0 0-.1.2.2.2a1 1 0 0 0 .4 0Z" style="fill:none;stroke:#78732e;stroke-width:.06px;stroke-miterlimit:4.6733"/><path d="M23.9 16.4s-.8-.1-.8.5c0 .2 0 .3.2.3a1.6 1.6 0 0 1 .8.3.7.7 0 0 1 .3.6.7.7 0 0 1-.1.3l.2.8.1.7.6-.3.3-1L25 17Z" style="stroke:#4d2a15;fill:#ab6d29;stroke-width:.06px"/><path d="M24.6 19.6a.6.6 0 0 0 .4-.3l-.3-.3a1.6 1.6 0 0 1 .2.1l.1.1s.2-.3.1-.4a1 1 0 0 0-.2-.2.5.5 0 0 0-.3-.1.5.5 0 0 1 .4 0s0 .1 0 0a1.2 1.2 0 0 0 0-.3.3.3 0 0 0-.2-.2 1.1 1.1 0 0 0-.3 0 .5.5 0 0 1 .3 0h.2a1.4 1.4 0 0 0-.1-.3.7.7 0 0 0-.2-.2 1.2 1.2 0 0 0-.2 0h-.1a.4.4 0 0 1 .2 0h.2l-.1-.1-.5-.2H24a.1.1 0 0 1 0-.1h.2a1.4 1.4 0 0 0-.3-.1H23.2a.3.3 0 0 1 .1-.1.4.4 0 0 1 .2 0l-.1-.2v-.1h.5l1 .5.3.4.3.7v1.1l-.7.5h-.2v-.2Z" class="ar"/><path d="M23.8 16.7a.6.6 0 0 1 0-.2.7.7 0 0 0-.5 0 .4.4 0 0 0 0 .5.7.7 0 0 1 .1-.1 1.1 1.1 0 0 1 .4 0c0-.1 0-.2-.2-.2a1.4 1.4 0 0 0-.2 0 .4.4 0 0 1 .3 0h.1Z" class="as"/><path d="M24.7 19.7h-.2l.2.9.7 1.3h.4l.2-.3.4.4.3.1a8.3 8.3 0 0 1 .6.8v-.3l-.2-.4-.1-.2h.2l.3.2.1.1v.2l.1.2.1.3.2.2v-.4l-.2-.6-.2-.3a1.9 1.9 0 0 0 .2.2 1.3 1.3 0 0 1 .2.2l.1.3.1.2v.2l.1.2.1-.1v-.6l-.1-.5a.2.2 0 0 1 .1 0 1 1 0 0 1 .1.3v.5l.2.4v.4l.2.3.1.1v-.2l-.1-1.7V22a1.6 1.6 0 0 1 .2.3v.8l.1.4.2.4.1.2V22a.7.7 0 0 1 .1 0 .6.6 0 0 0 .1.2l.1.4V24l.4-3.1h.3v-.1l-.2-.2-.3-.5-.3-.5-.4-.8-.7-.9-.6-.4a2.2 2.2 0 0 0-.2-.2l.2-.3H27.4l-.5-.4-.5-.2-.3-.1-.7-.2H24a.4.4 0 0 0-.2.4c0 .1 0 .2.3.3a6.3 6.3 0 0 1 .7.4l.2.2v.1l.1.1.2 1.2-.3.7-.3.1Z" class="at"/><path d="M25.5 21.6a.2.2 0 0 0 .3 0c.2-.1 0-.6 0-.6l.2.2a.6.6 0 0 1 0 .3.8.8 0 0 1-.2.4h-.3Z" class="au"/><path d="M30 24.5 30 24v-.4l-.1-1v-.4l-.2-.2v-.1a1.4 1.4 0 0 0 0-.5 6.3 6.3 0 0 0-.4-.9v.1l.3.2.4.2h.3l.1.3a5 5 0 0 1 .1.8 2.1 2.1 0 0 1 0 .8 7.3 7.3 0 0 0-.2 1.3 1.2 1.2 0 0 1-.1.2Z" class="ar"/><path d="M30 23a.8.8 0 0 0 .2-.2 4.2 4.2 0 0 0-.1-1.5 1.1 1.1 0 0 0-.4-.3 3.4 3.4 0 0 0 0 .4.8.8 0 0 1 .2.2 1.1 1.1 0 0 1 0 .2 3.6 3.6 0 0 1 .1.6Z" class="at"/><path d="M29.4 23.8a6.9 6.9 0 0 0 0-1v-.5a3.5 3.5 0 0 1-.4-.7 3 3 0 0 0-.2-.7l-.2-.2a.3.3 0 0 0 0 .1h-.2v-.5l.2.2.5.3.2 1 .2.5v1.9Zm.3-2.7a1.4 1.4 0 0 0 .2.1s.2.1.1.2a.6.6 0 0 1-.2-.1.6.6 0 0 1-.1-.1Z" class="ar"/><path d="M28.8 23.6a1 1 0 0 0 0-.5 5.4 5.4 0 0 0-.1-1 2.4 2.4 0 0 1-.4-.5l-.2-.5-.3-.3v-.3l.5.2h.1l.2 1 .2.3v.4l.2.9v.7Zm-.5-.4a2 2 0 0 0 0-.6 1.4 1.4 0 0 0-.2-.5 3.8 3.8 0 0 1-.5-.5 6.3 6.3 0 0 0-.4-.6v-.4a1.1 1.1 0 0 0 .2.2l.3.1v.5l.2.2.2.3.1.1.1.5v.2l.2.4v.2l-.2-.1Zm-.3 0-.1-.1a.3.3 0 0 0 0-.3 1.7 1.7 0 0 0-.1-.4 1.4 1.4 0 0 0-.1-.2l-.5-.5-.4-.3a.7.7 0 0 0-.2-.1v-.4l.2.2h.2l.3.6.1.1.3.3.1.2v.3l.2.4v.2Zm-.6-.2a1.1 1.1 0 0 1-.2-.3v-.3a1.5 1.5 0 0 0-.5-.5l-.3-.4v-.1h.1l.5.6.2.3v.3l.1.2.1.2Zm1.8-2.5s.3.4.4 0a1 1 0 0 0-.1-.5s-.4-.5-.5-.7l-.6-.8-.4-.1.2.2a4.7 4.7 0 0 1 .6 1 1.6 1.6 0 0 1 .3.9Zm-2-2.5a7.5 7.5 0 0 1 1.1 1.2l.5 1-.5-.1a4.3 4.3 0 0 0-.6-1 1.9 1.9 0 0 0-.6-.5l-.3-.5Zm-.3 1.3a8.5 8.5 0 0 1 .6.6 4.1 4.1 0 0 1 .4.5l.1.2v-.3a.1.1 0 0 1 .1 0L27 19Zm-.1 0a2 2 0 0 0 .3.5l.4.5.1.3-.5-.4a1 1 0 0 0 .1.4l-.2-.1-.2-.4-.2-.3-.1-.4h.3ZM25 20.8s.3.3.5 0a.7.7 0 0 0 0-.5s.5.6.6 0l-.3-.5h.1l.2.3a.4.4 0 0 0 .2-.4 1.3 1.3 0 0 0-.2-.5l.2.2s.4 0 .4-.2-.3-.5-.3-.5.3 0 .3-.2-.4-.2-.4-.3a.2.2 0 0 1 .3-.2c.1 0 .3.2.4 0s0-.2 0-.2h-.2l-.4-.3h-.3l-.3-.1.1.2.1.6v1.5h-.1l-.1.1-.1.3-.2.2-.2.3-.3.2Z" class="ar"/><path d="M27.2 22a.7.7 0 0 0-.7-.5l.4.4Zm.6 0a2.2 2.2 0 0 0-.3-.4l-.4-.4v.3l.3.3.4.2Zm.5 0a2.8 2.8 0 0 0-.3-.7 1.4 1.4 0 0 0-.3-.4v.3l.2.4.2.3Zm.4-.2a2.3 2.3 0 0 0 0-.9.5.5 0 0 0-.3-.2v.6l.2.4Zm.4-1.1a.7.7 0 0 1 .2.3 5.1 5.1 0 0 1 .3.9s-.5-.6-.5-.6v-.6Z" class="au"/><path d="m26.2 21.5.2-.2c0-.2-.2-.2-.2-.3h.2s-.2-.4-.1-.5.3.4.3.4a.6.6 0 0 1 0 .3c0 .4-.4.3-.4.3Zm.5-.5h.4l-.3-.3v-.2h.2l-.3-.4h.1a2.8 2.8 0 0 1 .3.4.7.7 0 0 1 .2.5c0 .3-.6 0-.6 0Zm1.5-.5v-.3a.4.4 0 0 1 .1 0 .8.8 0 0 0-.2-.1H28l.1.2Zm-1 .1a2.5 2.5 0 0 0 .6.1l-.4-.4c0-.1.1-.1.2 0l.2.3v-.3l.2.2.4.1v-.2s.1.3 0 .4a.4.4 0 0 1-.3 0l-.1-.2-.1.3a.5.5 0 0 1-.2 0h-.2l-.3-.3Zm1.2-.3.6.3s-.2-.9-.1-1c0 0 .4 1 .2 1-.1.2-.2 0-.2 0h-.3l-.2-.3Zm1.5 1.4a.4.4 0 0 0 .1 0s.1 0 0 0h-.1Zm-.5-1.8a.2.2 0 0 1 .1 0h-.1Zm-.2-.3a.1.1 0 0 0 .1 0l.1-.1h-.1v-.1H29Zm.5 1.6a1.5 1.5 0 0 0 .2 0l.1.2a.3.3 0 0 1-.2 0l-.1-.2Zm-.9-2.5h.1a.2.2 0 0 1 0 .2.3.3 0 0 1-.1 0l-.2-.2ZM28 18h.2a.4.4 0 0 1 .2 0 .8.8 0 0 1 0 .5l-.4-.2-.1-.3Zm-.3-.1s.3 0 .2-.2a.4.4 0 0 0-.1-.2l-.3.2.2.2Zm-.7-.3a.2.2 0 0 0 .1 0l.5-.4h.2a.3.3 0 0 1 0 .3 3.9 3.9 0 0 1-.5.2 1.2 1.2 0 0 1-.2 0 1 1 0 0 1-.1 0v-.1Zm-.1-.5c0-.2-.2-.3-.2-.2l.1.3a2 2 0 0 1 0 .4h.2v-.4a.5.5 0 0 0-.1-.1Zm-.6-.3a1.7 1.7 0 0 0-.6-.4l.5.5.1.4h.1v-.4Zm-.6-.2a1.8 1.8 0 0 0-1.2-.3c-.3 0-.5 0-.5.2s.3.3.6.3a1.8 1.8 0 0 1 .5 0 1 1 0 0 1 .4.2 1.4 1.4 0 0 0-.2-.3l-.3-.1s0-.1.2 0a.8.8 0 0 1 .6.3.6.6 0 0 1 0 .3h.1V17a.3.3 0 0 0 0-.2.9.9 0 0 0-.1-.2l-.1-.1Zm-1.1 3.1a.9.9 0 0 0 .6-.7 3.7 3.7 0 0 0-.3-1.4c0-.1.1 0 .2 0a2.8 2.8 0 0 1 .3 1.2.9.9 0 0 1-.4.8.6.6 0 0 1-.4.2Zm.6 1.3h.1c.2 0 .5-.1.5-.4l-.3-.3a.3.3 0 0 1 0-.1h.2v.3h.2l.3-.3-.3-.4a.2.2 0 0 1 0-.1h.2v.2a.1.1 0 0 0 .2 0l.2-.2-.2-.3a.3.3 0 0 1 0-.1.3.3 0 0 0 .3 0l.2-.2v-.2h.1V19.3l-.2.2h-.1v.5h-.1l-.2.2v.2l-.1.2-.3.2-.2.3-.3.2h-.1l-.1-.2Z" class="as"/><path d="M26.6 18.7s.4.1.4-.2l-.5-.5a.3.3 0 0 1 0-.2l.2.2s.3 0 .4 0v-.3h.2v.2l-.2.6s0 .3-.1.3a.8.8 0 0 1-.4-.1Zm.4 3.2a.3.3 0 0 0-.1-.2 1.7 1.7 0 0 0-.3-.2l.3.4Zm.6 0-.3-.3-.2-.3v.3l.4.3Zm.6 0-.3-.4a1.3 1.3 0 0 0-.2-.5c-.1 0 0 .1 0 .1l.1.4.2.3Zm.4-.2a4.8 4.8 0 0 0 0-.5.7.7 0 0 0-.3-.4v.4Zm.9.2-.2-.5a2.4 2.4 0 0 0-.2-.5 2.3 2.3 0 0 0 0 .3l.2.6Zm.8-1a1.3 1.3 0 0 0-.5-.2 2 2 0 0 0-.6-.1l.2.1.3.2h.4Z" class="as"/><path d="M27 21.1a.7.7 0 0 0 .2.4l.5.5a4.2 4.2 0 0 1 .2.7l.2.5s.1.2 0 .2l-.1-.2c-.1-.2 0 0 0-.2a2.6 2.6 0 0 0-.3-.9 4.3 4.3 0 0 1-.7-.7c-.2-.2-.1-.3-.1-.3h.2Z" class="av"/><path d="M27.8 22.8a2 2 0 0 1-.1-.4 1.6 1.6 0 0 0-.5-.5h-.3l-.4-.5.5.6a2.2 2.2 0 0 1 .3.6v.3l.2.2a1.1 1.1 0 0 1-.2-.4 2.8 2.8 0 0 0-.3-.7h.1a1.2 1.2 0 0 1 .5.4 1.5 1.5 0 0 0 .2.4 1.9 1.9 0 0 0 .2.4l-.2-.4Zm-.6-2.2a2.7 2.7 0 0 0 .4.2 1 1 0 0 0 .1 0 1.8 1.8 0 0 0 .2.8 1.4 1.4 0 0 0 .4.4 3 3 0 0 0 .1.9 2 2 0 0 1 .2.8l-.3-.4-.2-.7a1.4 1.4 0 0 0-.2-.5c-.1 0 0 0 0 0a1.2 1.2 0 0 1 .3.5l.1.5h.1v-.5a1.9 1.9 0 0 0-.2-.5 2.2 2.2 0 0 1-.3-.4 2.2 2.2 0 0 1-.3-.6V21a.8.8 0 0 1-.2-.1.7.7 0 0 1-.2-.3Z" class="av"/><path d="M28 20.6a1.7 1.7 0 0 0 .2.1.8.8 0 0 0 .2 0 1.5 1.5 0 0 0 .1.8 2.4 2.4 0 0 0 .4.5 7.2 7.2 0 0 1 0 .7l.1 1a7.3 7.3 0 0 1 0 1V24a3.1 3.1 0 0 1-.4-.9l-.1-.9-.2-.2a.4.4 0 0 0 .2.2l.2 1a2.7 2.7 0 0 0 .3.7s0-.7-.1-1a4.5 4.5 0 0 0-.1-.9c-.1-.1-.3-.2-.3-.4l-.2-.7-.2-.1a.4.4 0 0 1-.2-.2Z" class="av"/><path d="M28.4 20.3a1.6 1.6 0 0 0 .3.3.9.9 0 0 0 .4 0 2 2 0 0 0 .1.9l.3.4a79 79 0 0 0 0 3.2c-.2 0 0-1-.1-1.2a2.7 2.7 0 0 0-.1-.3l-.2-1.3-.2-.3a.5.5 0 0 1 .2.3c0 .3 0 1.1.2 1.2a1.8 1.8 0 0 1 .2.5v-1.7a4.6 4.6 0 0 1-.5-1.1v-.4a.7.7 0 0 1-.3-.2 2.2 2.2 0 0 1-.3-.3Z" class="av"/><path d="M29.2 20.5a1.3 1.3 0 0 0 .4.3 3.8 3.8 0 0 0 .6.1 2.5 2.5 0 0 1 .3 1.2 3.5 3.5 0 0 1-.2 1L30 25a1 1 0 0 0 0 .2l-.1.3-.2-.2a4.7 4.7 0 0 0 .1-.7 4.8 4.8 0 0 0 0-.7l-.1-1.5a2 2 0 0 0-.3-.4.7.7 0 0 1 .3.3v1.7c.1.2.1-.1.1-.3a8.4 8.4 0 0 0 .1-1 3.2 3.2 0 0 0-.2-1.2 1 1 0 0 1 0 .2.4.4 0 0 0 .2.1 2.6 2.6 0 0 1 0 .9 12.7 12.7 0 0 0 0 1.8c.2 0 .1-.7.2-1.3a3.6 3.6 0 0 0 .2-1 2.2 2.2 0 0 0-.2-1c-.1-.1-.4 0-.7-.2l-.3-.4Zm-4 .6a.2.2 0 0 0 .2 0c.2 0 .4-.3.4-.3v-.2h.1a.5.5 0 0 0 .3-.2.9.9 0 0 0 0-.4h.1l.3-.3a.5.5 0 0 0-.1-.3.6.6 0 0 0 .1 0c.1 0 .3-.1.3-.3s0-.3-.2-.3a.5.5 0 0 0 .2 0 .2.2 0 0 0 .2-.3 1 1 0 0 0-.3-.4h.3a.3.3 0 0 0 .1-.3.1.1 0 0 0 0-.1.5.5 0 0 0 .2 0 1.7 1.7 0 0 1 .4-.3l-.2.3.2.2a2.8 2.8 0 0 0 .4.1H28a3.7 3.7 0 0 1 .6.6l.2.1h-.1l.3.5a.3.3 0 0 0 .1.1h.1-.1l.4.7a7 7 0 0 0-.8-1l-.5-.5a7.6 7.6 0 0 0 .5.7 6.5 6.5 0 0 1 .3.7 5.2 5.2 0 0 0-1-1.4l-.7-.6v.5l.8.8a12.5 12.5 0 0 1 .8 1.2 7.7 7.7 0 0 0-.9-1.1c-.5-.6-.8-.7-.8-.7l-.1.1-.2.2a3.4 3.4 0 0 0 .5.5h.3a1 1 0 0 1 .1.2s0 0-.2-.1h-.1a3.5 3.5 0 0 0 .4.5h.2a1.2 1.2 0 0 1 .2.2 1 1 0 0 0-.2-.1H28l.2.4-.8-.8-.5-.4v.1l-.3.1.6.6.4.5-.5-.5-.4-.3v.2l.5.6-.6-.7v.1l-.3.1.8.9a6 6 0 0 0-.7-.6l.3.6-.4-.5-.2.1c-.2.1-.2 0-.2 0l.5.7-.5-.5.1.5-.2-.3h-.1l-.2.2.2.1a1.4 1.4 0 0 1 0 .3 1 1 0 0 0-.1-.2l-.2-.2h-.1Z" class="av"/><path d="m30.2 21 .2-.1-.2-.2c-.2-.2-.5-1.3-1-1.9a6.2 6.2 0 0 0-1.4-1.4 4.9 4.9 0 0 1 1.4 1.4c.7.9.8 1.6 1 1.8l.3.3h-.3Zm-5.2-.3.3-.3a.5.5 0 0 1-.2 0 .4.4 0 0 1-.1-.3.6.6 0 0 0 .1.2h.2s.4-.2.3-.3a.3.3 0 0 1-.1-.1.3.3 0 0 1-.2-.2.4.4 0 0 0 .2.2.2.2 0 0 0 .2 0l.2-.5a.3.3 0 0 1-.2 0 .5.5 0 0 1-.1-.3.3.3 0 0 0 .2.2.2.2 0 0 0 .2-.1v-.5a.4.4 0 0 1-.3 0 .4.4 0 0 1-.1-.2.4.4 0 0 0 .2.1.2.2 0 0 0 .2 0 .6.6 0 0 0 0-.4l-.2-.3-.2.1c-.2 0-.2-.2-.2-.2a.4.4 0 0 0 .3.1.2.2 0 0 0 .1-.2v-.2l-.1-.2a.2.2 0 0 1-.3 0 .2.2 0 0 1-.2 0 .4.4 0 0 0 .3 0h.1s0-.3-.2-.4l-.4-.3a3.4 3.4 0 0 1 .4.3 1.7 1.7 0 0 1 .3.2s.2.1.2 0a.3.3 0 0 0 0-.2 1.7 1.7 0 0 0-.2-.3 1.2 1.2 0 0 1 .2.3.5.5 0 0 1 0 .3l.5.1V17l-.1-.2a1.3 1.3 0 0 1 .1.2v.3a1.1 1.1 0 0 0 .3.2l.2.1a.5.5 0 0 0 0-.2 1.5 1.5 0 0 0 0-.3 1.3 1.3 0 0 1 0 .3c.1 0 0 .2 0 .2h.2a.3.3 0 0 1-.2 0l-.9-.3.5.4a1.2 1.2 0 0 1 .2.3 1.8 1.8 0 0 0-.2-.1 2.3 2.3 0 0 0-.5-.3l.1.1v.2l.4.5a.4.4 0 0 1-.1 0H26h.1v.2l.2.4c0 .1-.1.1 0 .2v.2a1.6 1.6 0 0 1-.1-.1L26 19a.8.8 0 0 0 0 .3v.2a.5.5 0 0 1 0 .3l-.2-.2-.2.3s.2 0 .2.2a.4.4 0 0 1-.1.3l-.3-.3a1.5 1.5 0 0 0-.2.3l.1.2h-.2a.8.8 0 0 1-.2 0Z" class="av"/><path d="m27.8 17.4.2-.3h-.3l-.5-.2a5.4 5.4 0 0 0-2.6-.8c-.5 0-.7.1-.8.2a.8.8 0 0 1 .7-.2 5.4 5.4 0 0 1 2.6.8s.3.3.6.3h.3a1.9 1.9 0 0 1-.1.1 1 1 0 0 0 0 .1Zm-2.7.2a1.3 1.3 0 0 0-.3-.3 4.2 4.2 0 0 0-.9-.5 5.8 5.8 0 0 1 .9.5 2.8 2.8 0 0 1 .3.3Z" class="av"/><path d="M25 18.8a.6.6 0 0 0 0-.2 1 1 0 0 0-.4-.1h.4a.5.5 0 0 1 0 .3Zm0-.6-.2-.1a.9.9 0 0 0-.3-.1.4.4 0 0 1 .3 0 .3.3 0 0 1 .2.2Zm-.1-.5a.4.4 0 0 0-.2-.2 1.3 1.3 0 0 0-.3 0 .6.6 0 0 1 .3 0 .2.2 0 0 1 .2.2Zm-.2-.3-.4-.2a2.6 2.6 0 0 0-.4 0 2.3 2.3 0 0 1 .5 0 .7.7 0 0 1 .3.2ZM24 17a2.3 2.3 0 0 0-.4-.1 3.8 3.8 0 0 0-.5 0 3.6 3.6 0 0 1 .7 0h.2Z" class="as"/><path d="M22.3 23.8a.4.4 0 0 0 .3.2c.2 0 .3.3.3.3l-.2.2h-.5l-.2-.2.3-.5Zm0-.1a.8.8 0 0 0-.3-.5v.2a.4.4 0 0 0 0 .2s.1.1 0 .2l.3-.1Z" class="aw"/><path d="M22.2 24.1a.3.3 0 0 0 .2 0 .3.3 0 0 0 .1 0m-.4 0 .3-.4s0-.1-.1 0a.8.8 0 0 0-.3.1 1 1 0 0 0 .1.2Z" class="aw"/><path d="M22 24.2v.1l.3-.1c0-.1 0-.2-.2-.2H22Z" class="aw"/><path d="M22.2 24a.5.5 0 0 1-.3.1l-.1-.2h.2a.1.1 0 0 1 .2 0Z" class="aw"/><path d="m22 24.1-.4.4v-.6a.6.6 0 0 0 .2 0l.2.2Z" class="aw"/><path d="m21.5 23.8.4.1-.3.2-.1-.3Z" class="aw"/><path d="m20.6 24.4.2.2a.5.5 0 0 0 .3-.2l-.4-.2Z" class="ax"/><path d="M20.6 24.4a.2.2 0 0 0 .2.2.5.5 0 0 0 .3-.2l-.4-.2-.1.2.1-.1.4.1a.4.4 0 0 1-.3.1.2.2 0 0 1-.1 0 .3.3 0 0 1 0-.1Z" class="ay"/><path d="M20.7 24.3a.3.3 0 0 0 .3.2.6.6 0 0 0 .3-.2L21 24Z" class="ax"/><path d="M20.7 24.3a.3.3 0 0 0 .3.2.6.6 0 0 0 .3-.2L21 24l-.3.3.3-.2.3.2a.5.5 0 0 1-.3.2.3.3 0 0 1-.2-.1Z" class="ay"/><path d="M20.7 24.4a.4.4 0 0 0 .2 0 1 1 0 0 0 .3 0h-.4Z" class="ay"/><path d="M21 24.2s0 .2.3.2.2-.2.2-.2l-.3-.3-.2.3Z" class="ax"/><path d="M21 24.2a.3.3 0 0 0 .2.2.3.3 0 0 0 .2-.1l-.2-.4-.2.3.2-.3.2.3-.1.2a.2.2 0 0 1-.3-.1.4.4 0 0 1 0-.1Z" class="ay"/><path d="m21 24.2.2.2a.4.4 0 0 0 .2 0H21l-.1-.2Zm-.4.2a.3.3 0 0 0 .2.1.5.5 0 0 0 .2 0H20.6Z" class="ay"/><path d="m21.5 23.8.2.4v.3a.7.7 0 0 1-.4-.3c0-.1-.1-.2 0-.2a1.4 1.4 0 0 1 .2-.2Zm-.9 0h-.2a.3.3 0 0 0 0 .3l.2-.1Z" class="aw"/><path d="M20.6 24h-.2a.3.3 0 0 0 .1.3l.2-.1Z" class="aw"/><path d="m20.7 24.1-.2.1.1.2.1-.1v-.2Zm0-.5a.2.2 0 0 0-.2.2.6.6 0 0 0 0 .2l.3-.1Z" class="aw"/><path d="m20.8 23.8-.3.2a.2.2 0 0 0 .1.2l.3-.2Z" class="aw"/><path d="M21 24.2a2 2 0 0 1-.3.2.2.2 0 0 1 0-.3l.2-.1c.2 0 0 .2 0 .2Zm.2-1a.3.3 0 0 0-.2 0c-.2 0-.3.2-.3.3v.4l.4-.3Z" class="aw"/><path d="M21 24a.2.2 0 0 1-.3-.2.4.4 0 0 1 .4-.2v.2s0 .2-.2.2Z" class="aw"/><path d="M21.2 24a.4.4 0 0 1-.1.2l-.3-.1.1-.2a.6.6 0 0 1 .2 0Z" class="aw"/><path d="M21 23.7v.2a.3.3 0 0 0 .2.2l.2-.1.2-.3a.2.2 0 0 0-.1-.2.5.5 0 0 0-.4.2Z" class="aw"/><path d="M21.4 23.2a.3.3 0 0 0-.2 0 .3.3 0 0 0-.2.3 1.6 1.6 0 0 0 0 .2.7.7 0 0 0 .3 0v-.2a.2.2 0 0 1 0-.1l.1-.2Z" class="ax"/><path d="M21.4 23.2a.4.4 0 0 0-.2 0 .4.4 0 0 0-.2.3.3.3 0 0 1 .2-.3.4.4 0 0 1 .2 0Z" class="ay"/><path d="m25 25.9.1-.1.3-.2v.3l-.2.1H25ZM24.7 25.9a.7.7 0 0 0 .1 0h.2v.2H24.7v-.2Zm1.3-.1a.5.5 0 0 0 0-.1l-.3-.2v.5h.2l.2-.2Z" class="aw"/><path d="M24.7 25.9a.1.1 0 0 0-.1 0 .3.3 0 0 0-.3.1v.3a.3.3 0 0 0 .3 0 6.9 6.9 0 0 0 .7-.3h-.1a.3.3 0 0 1-.2 0 .3.3 0 0 1-.2 0 .5.5 0 0 1-.1-.1Z" class="aw"/><path d="M25 26a.7.7 0 0 0 0 .1 1 1 0 0 1-.2 0v.3h.3l.2-.1v-.2Zm1.2 0v-.1a.1.1 0 0 0-.2-.1l-.1.2.1.1h.2Z" class="aw"/><path d="M25.4 25.9a1 1 0 0 0-.2 0l-.1.2a1 1 0 0 0 .1.1h.1l.3-.2V26h-.2Zm1 .2a.3.3 0 0 0 0-.1.2.2 0 0 0-.2 0l-.1.1v.2h.3v-.1Z" class="aw"/><path d="M26 26.3h.1s0 0 0 0a.3.3 0 0 0 .5.3s0 0 0 0l.2-.3h0s0-.2-.1-.2a.4.4 0 0 0-.3 0s0 .2-.1.2a.3.3 0 0 1-.1-.1.6.6 0 0 1-.1-.1.1.1 0 0 1-.1 0 .4.4 0 0 1-.1-.1.3.3 0 0 1-.1 0 .4.4 0 0 1 0-.2l-.3.2-.1.1a.4.4 0 0 1-.2.1s0 .2-.2.2a.4.4 0 0 1-.2-.2.2.2 0 0 0-.1 0l-.1.2a.4.4 0 0 0 0 .3.3.3 0 0 0 .4 0 .2.2 0 0 0 .1-.2s0 0 .1 0a2.5 2.5 0 0 1 .3-.2" class="az"/><path d="M25.7 25.2v.7h-.3a1.3 1.3 0 0 1 0-.3Z" class="aw"/><path d="M25.5 26.2s-.1.1 0 .1a.1.1 0 0 0 .2 0 .1.1 0 0 0 .1 0 .1.1 0 0 0 .2 0" class="az"/><path d="M24.1 26.5s0-.1 0-.2h.3v-.2c-.1-.1-.5 0-.4.2a.3.3 0 0 0 .1.2Zm.6.6v-.6a.3.3 0 0 0-.3.3.4.4 0 0 0 .3.3Zm2-.2s.4.2.4-.2a.3.3 0 0 0-.2-.4l-.2.1c0 .1-.1.2 0 .2h.1c.1.3-.1.3-.1.3Z" class="ax"/><path d="M24.7 27.1a.4.4 0 0 1-.3-.4c0-.2.2-.2.2-.2l-.2.2a.4.4 0 0 0 .3.4Zm-.6-.6a.3.3 0 0 1-.2-.3c0-.2.4-.2.4-.2s-.4 0-.3.3l.1.2Zm2.6.4a.4.4 0 0 0 .1 0 .2.2 0 0 0 .3-.1.3.3 0 0 0-.1-.4h-.1a.4.4 0 0 1 .2.4.2.2 0 0 1-.3.1.6.6 0 0 1-.1 0Z" class="ay"/><path d="M22.1 18.8v-.2H22.7l.2.3-.4.2-.2-.2Z" class="ba"/><path d="M25.9 24.6V24l-1.7.5.6.6Z" class="av"/><path d="M22.8 23.6v-.2a.8.8 0 0 0-.2 0 .3.3 0 0 0-.2 0l.2.2.2.1.1.1Zm0 .2h.1v.1l.1.1.1.2H23l-.6-.1v-.2h.4Z" class="as"/><path d="M23.1 24.2h.1V24l.1-.6-.4-.6-.1.3.1.6.1.3Z" class="as"/><path d="M22.8 23v.3a2.8 2.8 0 0 0 .3.8l-.1-.2a2.2 2.2 0 0 1-.2-1v.2Z" class="au"/><path d="M23.2 23.4a.6.6 0 0 0-.2.2 1 1 0 0 0 0 .3s0-.2.1-.2l.1.3v-.5Zm0 1h-.5l-.4-.3h.5a2.1 2.1 0 0 1 .3.1H23.4v.2h-.2Zm-.8 0a.5.5 0 0 1-.2.1l.5.1-.3-.2Z" class="au"/><path d="m22.3 24.2.2.1a.4.4 0 0 0 .2 0h.2l-.1.2-.3-.1h-.2Z" class="as"/><path d="M23.4 24v.1-.6Z" class="au"/><path d="m22.9 23.6-.2-.3-.2-.3.2-.2.1.2a.7.7 0 0 0 0 .3 2.4 2.4 0 0 0 0 .3Z" class="ar"/><path d="M21.9 24.4a.3.3 0 0 1 .2 0 .8.8 0 0 1 .3 0l.3.1v.1h-.5l-.3-.2Z" class="as"/><path d="M23.3 23.5v.4l.1.2v.1a.6.6 0 0 1-.3 0s.1 0 .2 0l-.1-.3c-.1 0 0-.2 0-.2H23a1.7 1.7 0 0 1 0-.4l.2.2Z" class="at"/><path d="M22.3 24.3a.4.4 0 0 0 .3.1h.5v.1l-.3.2h-.1v-.2l-.3-.1Z" class="au"/><path d="M22.9 23.6a3.3 3.3 0 0 1-.5-.6 1 1 0 0 1 0-.6l.3.4a.4.4 0 0 0 0 .3 2.7 2.7 0 0 0 .2.5Z" class="at"/><path d="M22.6 24.9a.2.2 0 0 1 0-.2 2 2 0 0 1 .8-.4v.3l-.7.3Z" class="au"/><path d="m22.7 24.7.1-.2h-.2a1.1 1.1 0 0 1-.3-.2 2 2 0 0 0 .3.2s0 .2 0 .2Zm.9 0a1.4 1.4 0 0 1-.1-.2 1.6 1.6 0 0 1 0-.2h-.2l-.2.1h.2l-.3.2h.2l-.2.1-.3.2a.3.3 0 0 0 .1 0 2.3 2.3 0 0 0 .3 0l.4-.2Z" class="at"/><path d="m23.6 24.7-.2-.5a2.3 2.3 0 0 1 0-.6l.1.1.2.3Z" class="au"/><path d="M23.7 24a1.8 1.8 0 0 0-.1.4 1 1 0 0 0 0 .3 1 1 0 0 0 .2.3l.1-.3v-.4l-.2-.4Z" class="at"/><path d="M24 24.3s0 .7-.2.7l-.2-.3.2.3c.1 0 0-.8 0-.8l.1.1Zm-.4.4-.5.1-.5.1h.5a1.9 1.9 0 0 0 .4-.2Z" class="av"/><path d="M23 23.9a.6.6 0 0 1 0 .1l.1.3a1.4 1.4 0 0 0 0-.3l-.3-.3Z" class="au"/><path d="M22.7 24.7v-.1h-.3a3.7 3.7 0 0 1-.5-.2 1.5 1.5 0 0 0 .3.2h.4Z" class="at"/><path d="m22.7 24.7-.4-.1a1.4 1.4 0 0 1-.4-.2 1 1 0 0 0 .4.2l.4.1Z" class="av"/><path d="M22.8 23.8a.8.8 0 0 0-.3 0 1.2 1.2 0 0 0-.2.3h.2a.3.3 0 0 1 0-.2.5.5 0 0 1 .3 0Z" class="au"/><path d="M22.4 23.4a.6.6 0 0 0 .2.1 1 1 0 0 1 .2.2.7.7 0 0 1 .1.2 2 2 0 0 1-.4-.3 1 1 0 0 1-.1-.2Z" class="at"/><path d="M22.7 23.4a.3.3 0 0 0-.1 0 .2.2 0 0 0-.2 0l.1.2v-.2h.2Z" class="at"/><path d="m23.6 23 1.8-1 1 1.3-1.7.4H24l-.4-.2Z" class="av"/><path d="m26 23.6 2.4 2-.3.1-.5-.1-1.1-1.1-.4-.5ZM29 25.2l-1.3-1-1.6-1.3v.6l1.9 1.7.6.3h.3l.2-.2v-.1Z" class="ar"/><path d="M26 23.7a10.6 10.6 0 0 0 1.2 1.2c.5.4 1 .8 1.1.7l.1-.1-2.3-2v.2Z" class="bb"/><path d="m27.7 25.7-.2.1h-.3l-1.4-1.5V24h.3Z" class="ar"/><path d="M29 25.2s-.1.4-.5.3a20 20 0 0 1-2.4-2v.1a17.4 17.4 0 0 0 2.4 2c.4 0 .8-.3.7-.3l-.2-.1Z" class="av"/><path d="M25.8 24a12.6 12.6 0 0 0 1 1.2c.4.3.7.6.8.5s0-.2 0-.2l-1-1-.5-.5h-.3Z" class="bb"/><path d="m26 24 1.8 1.8.7-.2-.2-.1s0 .2-.4.1A10.9 10.9 0 0 1 26 24Z" class="av"/><path d="M26.6 25.7 26 25l-.1-.3v-.3l1.2 1.3H26.8Z" class="ar"/><path d="M27.7 25.7s-.1.2-.3.2a.6.6 0 0 1-.3-.2l-1.2-1.2v-.1a12.5 12.5 0 0 0 1.5 1.4c.2 0 .3-.2.3-.2v.1Z" class="av"/><path d="M27 25.7a.2.2 0 0 1-.1.1.3.3 0 0 1-.3 0l-.7-1v-.2a7.1 7.1 0 0 0 1 1.1.2.2 0 0 0 .1-.1Z" class="av"/><path d="m26.3 23.4.8.7h.3-.2a1.4 1.4 0 0 0 .4.4h.4-.2a1.1 1.1 0 0 0 .3.4h.5l-.3.1.4.4-.6-.4v.2-.2l-.5-.4v.2-.2a1.6 1.6 0 0 0-.4-.3v.1l-.1-.2a9 9 0 0 1-.8-.8Z" style="fill:#b07229"/><path d="M25.1 25.4v.3l-.4-.5v-.5l.3.3.1.4Zm1-.2a.8.8 0 0 0 0-.1v-.4l-.1-.2-.1-.1h-.3v.6l.2.3H26Z" class="ar"/><path d="M25.8 25.7v-.4l-.2-.5v-.2h-.4v.3l.3.4c0 .2.3.4.3.4Z" class="ar"/><path d="M25.6 24.6a.5.5 0 0 1 .2.2 2.3 2.3 0 0 1 .1.5s.1.2.2.2v-.3H26a1.7 1.7 0 0 1-.1-.5 1 1 0 0 1 0-.3 1 1 0 0 1 .1.5h.1v-.3l-.1-.2a1.3 1.3 0 0 0 0-.2l.2-.2a5.8 5.8 0 0 0 0-.7l-.8 1 .2.3Z" class="av"/><path d="M25.6 24.5a1.3 1.3 0 0 0 .1.5 1.3 1.3 0 0 0 .2.3.8.8 0 0 1 0 .4s-.3-.5-.3-.7l-.1-.4a.3.3 0 0 0-.1 0Z" class="av"/><path d="M25.6 25.9v-.4l-.3-.5-.3-.3-.1-.2v.4a2.8 2.8 0 0 0 .3.6l.4.4Z" class="ar"/><path d="M24.5 24.7a.7.7 0 0 1 0 .2v.1l.3.4c0 .2.1.3.2.3l.1-.2s0 .2-.1.1a4.3 4.3 0 0 1-.3-.7s-.2-.2-.2-.2Zm.8.6-.2-.4a.4.4 0 0 0-.2-.2v-.2a.5.5 0 0 0 .2.2h.2a1 1 0 0 1 0 .3v.3Z" class="av"/><path d="M24.8 25a1.4 1.4 0 0 0 .2.2 3.3 3.3 0 0 0 .2.3 2.7 2.7 0 0 1-.3-.3 1.5 1.5 0 0 1-.1-.3Z" style="fill:#5c3a1d"/><path d="m25.3 24.7.1-.1h.1a.3.3 0 0 1-.1-.1l-.1-.2v.2a1.5 1.5 0 0 1 0 .2Zm0 0 .2.7a1.2 1.2 0 0 1 0 .4 2 2 0 0 0 0-.3l-.2-.6a.3.3 0 0 1 0-.1Z" class="av"/><path d="M25.6 24.5V23.6l-.3-.7-.1.1a.7.7 0 0 1-.4-.2 1 1 0 0 1 0 .3 1.2 1.2 0 0 1 0 .2l.6 1.1Z" class="ar"/><path d="M24.4 25h.2v-.3a10.2 10.2 0 0 0-1-1.1 12.9 12.9 0 0 0 .8 1.3Z" class="be"/><path d="M24.9 24.5v.4c-.2 0-1-1-1.1-1.2l-.5-.4.5.2 1 1Z" style="stroke:#5c3a1d;stroke-width:.07px;fill:#8b441f"/><path d="M24.4 25a.8.8 0 0 1 0-.3.8.8 0 0 0-.1-.2l-.7-1a2.3 2.3 0 0 0-.2-.1 1.7 1.7 0 0 1 0 .2 3.8 3.8 0 0 0 .5.7l.5.6Z" class="av"/><path d="M25.3 24.8v-.4l-.5-1h-.1l-.3-.2-.1-.2a1.9 1.9 0 0 1 0 .4v.2l.4.6.6.6Zm.5-.6.1-.1v-.5l-.4-1a.2.2 0 0 1-.1 0 .8.8 0 0 1-.2-.2l.1.6.3.9v.2l.2.1Z" class="ar"/><path d="M24.8 24.4a4.8 4.8 0 0 1-.4-.5l-.2-.3a.3.3 0 0 1-.1 0 1 1 0 0 1-.3-.2s0 .2.4.6c.5.5.6.4.6.4Z" class="av"/><path d="M25.6 24.6v-1a3.5 3.5 0 0 0-.3-.7 7.6 7.6 0 0 1 .3.8v.4l-.2-.3a.9.9 0 0 0-.2-.3s.4 1 .3 1a7.3 7.3 0 0 1-.6-1.2s.4 1.4.7 1.3Z" class="be"/><path d="m25.9 22 .2.4V24.1a.1.1 0 0 1-.2 0l-.2-1-.1-.9V22h.2Z" class="ar"/><path d="M25.3 24.8v-.3s-.1.1-.2 0a1.9 1.9 0 0 1-.1-.3v-.1l-.2.2-.5-.8v.1s.5 1.2 1 1.2Z" class="be"/><path d="M25 24.2a.7.7 0 0 0 0-.3 3.2 3.2 0 0 0-.2-.5.3.3 0 0 1-.2 0 1.6 1.6 0 0 1-.2-.2 4 4 0 0 0 .2.5l.4.5Zm.3-.2a2.7 2.7 0 0 0-.2-.7 1.8 1.8 0 0 0-.3-.5 1.1 1.1 0 0 1 0 .2 1.7 1.7 0 0 0 0 .2.6.6 0 0 1 .3.3 3.8 3.8 0 0 1 .2.5Zm.5-.6a4 4 0 0 0 0-.7l-.2-.5c.2 0 .2.2.2.2V22a.1.1 0 0 1-.1 0l-.1.1h-.1a1.3 1.3 0 0 1 0 .2.7.7 0 0 1 0 .2 3 3 0 0 0 .2.4 3.5 3.5 0 0 1 .1.5Zm.4-.1a2.6 2.6 0 0 0-.1-1 1.2 1.2 0 0 0-.2-.4h-.1a2.2 2.2 0 0 1 .3.7v.7Zm-.6.3a7.3 7.3 0 0 0-.2-.8v-.3l-.2-.2a2.5 2.5 0 0 1 0 .4v.2a2 2 0 0 0 .2.3 2.8 2.8 0 0 1 .2.4Z" class="av"/><path d="M25.9 24.3c.1 0 0-.6 0-.8l-.4-1 .3 1.2-.2-.3.2.7-.2-.1v.2a.3.3 0 0 0 .3.1ZM26 24v-1c0-.3-.3-.7-.3-.7a5 5 0 0 0 .3.8v1-.2Z" class="ba"/><path d="m25 24.7-.1.3a.6.6 0 0 1-.4-.4s.2.3.3.3v-.4l.2.2Z" style="fill:#312317"/><path d="M25.5 21.8a.3.3 0 0 0 .3 0 .4.4 0 0 0 .2-.3.4.4 0 0 0 0-.3c-.1-.1 0 0 0 .2s0 .5-.2.6-.2 0-.2 0Z" class="as"/><path d="M25.3 21.2a2.5 2.5 0 0 1 .3.6v.3l-.3-.9Z" class="at"/><path d="m22.3 21.6 1.1 1.7 1.5-1.7-1-1Z" class="bh"/><path d="M23.7 20.6v.2l.1.5.2.2.3.2v-.2l.2-.3H24.8l.2-.4v-.2l-.4-.6v.2H24.2l-.2.3-.3-.2Z" class="ar"/><path d="M24.3 21.7v-.2a3 3 0 0 0 0-.7 1.5 1.5 0 0 0 0-.4 2.3 2.3 0 0 1 0 .7v.6ZM24.4 21s.2.3.3.2 0-.4 0-.6l-.2-.3.2.3v.6l-.3-.1Z" class="bi"/><path d="M23.8 21.2a.3.3 0 0 1 .1 0c.1-.1.1 0 .1 0l.1.2.1.2.1.1h-.4v-.2l-.1-.3Z" class="at"/><path d="M24.2 23.6s-.3 0-.4-.2l-.7-.7-.1-.3h.2l.4-.2.1-.1.5-.3.3-.1h.6l.2-.3a3 3 0 0 1 .2.5 1.4 1.4 0 0 1 0 .6l-.3-.2v.7l-.4-.2v.5a1 1 0 0 1-.6-.3s.2.5 0 .6Z" class="as"/><path d="m24.1 22.9.1.2a1 1 0 0 1 0 .3c0 .1-.2-.1-.2-.3l-.3-.4.4.2Zm1.2-1.5s.2 1 .1 1L25 22l-.5-.7h.1l.7.1ZM23.8 23.2l-.2-.2-.3-.4a1.3 1.3 0 0 1-.3-.2v-.2h.1a7.6 7.6 0 0 1 .6.5 1.3 1.3 0 0 1 0 .5Zm.9 0a1.7 1.7 0 0 1-.6-.5 4.5 4.5 0 0 1-.4-.6V22a13.4 13.4 0 0 1 1 1.3Zm0-.4-.2-.3a.4.4 0 0 1 0-.3 4.4 4.4 0 0 1 .3.6Zm.3-.1-.5-.5c0-.3-.1-.3-.2-.3a.5.5 0 0 0-.1 0v-.1l.2-.1v-.2l.5 1 .1.2Z" class="at"/><path d="M23.8 23.4s0 .1-.1 0a2.3 2.3 0 0 1-1.1-.8l-.3-.5.1-.2 1 1.2.4.3Z" class="au"/><path d="M23.8 23.4s0 .1-.1 0a1.8 1.8 0 0 1-.8-.5 3.6 3.6 0 0 1-.5-.8V22l.8 1 .6.5Z" class="at"/><path d="M24.5 23a2.3 2.3 0 0 1-.3-.4 2.5 2.5 0 0 1-.5-.6h.2v-.3h.2l.3.4v.1l.2.4-.3-.1s.3.4.2.5Zm-.4-.1v.1c0 .1 0 .2-.1 0a1.7 1.7 0 0 0-.3-.3v.2l-.3-.3-.3-.5a1 1 0 0 0 0-.2v-.3a.8.8 0 0 0 0 .1.3.3 0 0 0 0 .1l.5.5v-.1l.3.4.2.3Zm-1.5-.7a5.3 5.3 0 0 0 .6.8 2 2 0 0 0 .6.4l-.9-1-.3-.2Zm2.3.3a1.5 1.5 0 0 1-.3-.4 1.2 1.2 0 0 1-.2-.5v-.4a2.6 2.6 0 0 1 .4.5l.2.4s-.2-.2-.3-.1.3.5.2.5Zm.4-.3-.2-.3a1.6 1.6 0 0 1-.1-.4l-.1-.3v-.4h.1l.2.3a1 1 0 0 1 .1.4 3 3 0 0 1 0 .7Zm-2.5.9a4.6 4.6 0 0 1-.4-.7l-.1-.3a1.8 1.8 0 0 0 .6.8 2.7 2.7 0 0 0 .5.5s0 .2 0 .3a5.8 5.8 0 0 1-.6-.6Z" class="ar"/><path d="M23.3 23.6a6.3 6.3 0 0 1-.7-.7 5 5 0 0 1-.4-.8 5.1 5.1 0 0 0 .5.7l.6.8Zm.5-.2-.6-.6a2.4 2.4 0 0 1-.4-.5h.2a1.6 1.6 0 0 0 .2.4l.6.7Zm0-.7-.4-.5-.2-.4.4.4a.5.5 0 0 0 0 .2l.1.3Zm0-1.2a1 1 0 0 1 0 .3v.2a2.7 2.7 0 0 0 .1.2 2.5 2.5 0 0 0 .3.2s-.2-.2-.2-.3l-.1-.3.3.1.2.3a1 1 0 0 0-.1-.4c-.2 0-.5-.3-.5-.3Z" class="av"/><path d="m24.8 22.1-.2-.4-.2-.6v.3l-.1.4H24c-.2 0 0 0 0 0a.3.3 0 0 0 .2 0l.1-.2.2.3.2.2ZM24.4 21s.2.3.3.2v-.4h.2v-.2l.4.6a2.6 2.6 0 0 1 .2.7 3.6 3.6 0 0 1-.3-.7c0-.3-.2-.4-.3-.4a.6.6 0 0 0 0 .4l.2.4.1.3-.2-.2a1 1 0 0 0-.2-.2.7.7 0 0 0-.1-.2h-.2v-.1Z" class="av"/><path d="M23.6 22.2a3 3 0 0 0 .3.3l.2.4a2.7 2.7 0 0 1-.3-.4 1.7 1.7 0 0 1-.2-.3Z" style="fill:#171717"/><path d="M25.1 22.2H25a.5.5 0 0 0 .1.3h.1v-.3Z" class="at"/><path d="m22.5 20.6-.2.1-.1.3v.6l.2.4.5.4.2-.4v-.3a1.6 1.6 0 0 0 .2.2l.3.3.2-.4-.4-1.1-.2-.1h-.7Z" class="as"/><path d="m23.4 21.5.1.4v.3a1 1 0 0 0 .3-.5 3.6 3.6 0 0 0 0-.7v-.5l-.1-.1-.3.5v.6Zm-.7-.2v.5l.2.4a1.1 1.1 0 0 0 .2-.5 1.4 1.4 0 0 1-.1-.6v-.5l-.3.7Z" class="au"/><path d="M22 20.4a2 2 0 0 0-.3.8c0 .3.1.2.2.5a4.3 4.3 0 0 1 .1.6v-1.9Z" style="fill:#45392d"/><path d="M22 20.5a1.7 1.7 0 0 0-.2.7 1.2 1.2 0 0 0 .2.5 2.3 2.3 0 0 1 0 .6.8.8 0 0 0 .2-.1 1 1 0 0 0 .2-.2v-.3a.9.9 0 0 1-.1-.2l-.1-.1v-.8Z" class="au"/><path d="M23.7 21.3a1 1 0 0 1-.2 0 .2.2 0 0 1-.1-.2Z" class="bl"/><path d="M22.1 20.6a2 2 0 0 0-.1.7 2.2 2.2 0 0 0 .2.8v-1.6Z" class="as"/><path d="M22.7 20.7a.6.6 0 0 1 0 .2s-.2 0-.2.2a2.7 2.7 0 0 0-.1.3.8.8 0 0 1 .1-.2l.1-.1a.8.8 0 0 1 0 .3.8.8 0 0 0 0 .2.5.5 0 0 0 0 .2v-.2a.2.2 0 0 1 0-.1l.2.2a1.2 1.2 0 0 1 0-.2l.2-.2a1.1 1.1 0 0 1 0-.6h.1a1.2 1.2 0 0 0-.2-.3 2.1 2.1 0 0 0-.2.3Z" class="at"/><path d="M23.7 21.6h-.2v-.2l.1.1Z" class="bl"/><path d="M22.3 21.7a.8.8 0 0 1 0 .1 1.3 1.3 0 0 0-.1.2v-.4a.7.7 0 0 0 0-.2H22a1 1 0 0 1 0-.2l.1-.2H22v.2a1 1 0 0 1 0-.2l.2-.3a.4.4 0 0 0 0-.2h.1l.2.2h-.2v1Zm1-1a1 1 0 0 1 0 .3 2.1 2.1 0 0 1-.1.2.8.8 0 0 0 0 .2.6.6 0 0 1 0-.1v-.1a.3.3 0 0 1 .2.1v.3-.1a.1.1 0 0 1 .2 0v.1a.2.2 0 0 0 0-.1l-.1-.2a.7.7 0 0 1 0-.2s.2.2.2.2v-.1a1.9 1.9 0 0 1 0-.3v-.3a.2.2 0 0 0 0-.2 2.4 2.4 0 0 0-.4.3Z" class="at"/><path d="M24.5 20.3a2.5 2.5 0 0 0 0 .3l.2.5a2.3 2.3 0 0 1-.2-.4l-.2-.4v.1a1.4 1.4 0 0 0 0 .5 1 1 0 0 1 0-.3l-.2-.2a.5.5 0 0 0 0 .2 1 1 0 0 0 .1.3.6.6 0 0 0-.1-.2.7.7 0 0 0 0 .3l.1.2a1.3 1.3 0 0 1-.1-.2 1.6 1.6 0 0 0 0 .3l.2.3a.8.8 0 0 1-.2-.3 2.9 2.9 0 0 1-.2-.9s.1 0 .2-.2a2.6 2.6 0 0 0 .1-.5 2.1 2.1 0 0 0 .2.5.4.4 0 0 0 .1 0Zm-1-.1a1.6 1.6 0 0 0 .1.1l.1.1a2.3 2.3 0 0 1-.2.3c-.2 0-.3.2-.4.1a.2.2 0 0 1 0-.1 1.5 1.5 0 0 0 .2-.2.7.7 0 0 0 .2-.2.6.6 0 0 1 0-.1Zm-1.1.4v.2l.5-.3a.2.2 0 0 0 0-.1.4.4 0 0 0 0-.1l-.4.3a.1.1 0 0 1-.1 0Zm0-.4a1.3 1.3 0 0 0 0 .3s-.3.1-.3 0a.3.3 0 0 1 0-.1 1 1 0 0 0 .1 0l.2-.2Zm2.2-.3a3.1 3.1 0 0 0 .2.3l.1.4-.2-.3h-.1a.5.5 0 0 0 0-.2v-.2Z" class="bh"/><path d="M22 20.4a1 1 0 0 0 .2 0l.2-.2a.6.6 0 0 0 0 .3v.1a.4.4 0 0 0 .3 0 2.6 2.6 0 0 1 .2-.3.6.6 0 0 0 0 .3h.3a2.6 2.6 0 0 0 .3-.3l.2-.2.1-.6h-.4v-.1l-.2.2H22.8v-.1h-.1l-.3.2h-.1l-.2.2v.2l-.2.2Z" class="bl"/><path d="M23.3 19.8a1 1 0 0 1 0 .4 2.2 2.2 0 0 1-.2.4 1.1 1.1 0 0 0 .4-.5 1.5 1.5 0 0 0 0-.6l-.2.3Zm.4-.3v.3a4.4 4.4 0 0 1-.1.4v.1l.2.2a.4.4 0 0 0 .3-.2l.1-.3.2.2c.2 0 .1.1.1 0a.2.2 0 0 0 .1 0l-.1-.5-.2-.4-.1-.2h-.3l-.2.4Z" class="at"/><path d="M24.2 19.1a1.1 1.1 0 0 1 0 .4 2 2 0 0 1 0 .4 2 2 0 0 0 0-.4v-.3Z" class="au"/><path d="M24.6 19.9a1.2 1.2 0 0 1 0 .3l-.2-.4a4.4 4.4 0 0 0-.1-.4l-.1-.3h.1l.3.8Zm-.7.5a.8.8 0 0 0 .3-.7 1.9 1.9 0 0 0-.1-.6 2.2 2.2 0 0 1-.2.7l-.2.4a.3.3 0 0 0 .1 0l.1-.2a.4.4 0 0 1 0 .2 1.6 1.6 0 0 1 0 .2Zm-.3-.9a.3.3 0 0 1-.1.2 2.4 2.4 0 0 1-.4.2 1.1 1.1 0 0 0 .2-.2.3.3 0 0 0 0-.3.3.3 0 0 1 0 .2.4.4 0 0 1-.2 0 .3.3 0 0 1 0-.1 1.5 1.5 0 0 1 .2-.3 1 1 0 0 0 .1.2l.2.1Z" class="ar"/><path d="M24.5 19a2 2 0 0 1 .1.4 2.8 2.8 0 0 1 0 .5 3.2 3.2 0 0 1-.2-.3v-.3a.4.4 0 0 0-.2-.2.5.5 0 0 0 0-.2.5.5 0 0 0 .2 0 .3.3 0 0 0 .1 0Zm-.6 1a1.3 1.3 0 0 0 .2-.5.7.7 0 0 0 0-.4.2.2 0 0 1-.2 0 1.4 1.4 0 0 1-.1-.2 1 1 0 0 1 0 .3.8.8 0 0 1-.2.3.2.2 0 0 0 .2 0 .3.3 0 0 0 .1-.3s0 0 0 .3a2.8 2.8 0 0 1 0 .5Z" class="bh"/><path d="m22 20.4.1-.4.3-.4a.4.4 0 0 0 .3-.1 1.1 1.1 0 0 0 .1-.3.6.6 0 0 0 .1.3c.1.2.1.1.2.1a1.4 1.4 0 0 1 0 .3l-.2.4a1 1 0 0 0 0-.4v.2a.5.5 0 0 1-.2.1 2 2 0 0 0 0-.2l.1-.2a.2.2 0 0 1-.2.1.3.3 0 0 0 .1 0 .6.6 0 0 1 .1-.3v-.1h-.1l-.2.2a2.6 2.6 0 0 0 0 .3 1.7 1.7 0 0 1-.2.3v-.2a1.3 1.3 0 0 0 .2-.4h-.1l-.2.3-.2.4Z" class="at"/><path d="M24.6 18.8a.2.2 0 0 1 0 .1.4.4 0 0 1-.3 0 .6.6 0 0 1 0-.2Z" style="fill:#874f20"/><path d="M22.5 19.1a1 1 0 0 1-.1.2c0 .2-.2.3-.2.3a.2.2 0 0 0 .2 0l.1-.5Z" class="bn"/><path d="M23.8 18.8s0 .7-.2.7-.3-.3-.3-.3 0 .4-.3.4l-.2-.4a.7.7 0 0 1-.1.4c-.3.1-.4 0-.4 0a1.3 1.3 0 0 0 .2-.5s.2-.2.2-.2a1.3 1.3 0 0 0 .4-.1l.1-.2h.2a.4.4 0 0 0 .1-.2l.3.2v.2Z" class="bl"/><path d="m23 18.2.4.4v.5a.3.3 0 0 1 0-.2l.1-.2.1.6.1-.4c0-.2 0 0 0 0s.3.3.4.2l.2-.3-.1-.4-.7-.5v.2c-.1.1-.4 0-.4 0Z" class="bn"/><path d="M24 18a.6.6 0 0 1 .1.3v.7a.4.4 0 0 1-.3-.2v-.4a.9.9 0 0 1-.2-.3v-.2h.2Z" class="at"/><path d="m24 18 .2.3.3.4a.7.7 0 0 1 .1 0 .3.3 0 0 1-.3.1l-.2-.5a.9.9 0 0 0-.3-.4Z" class="ar"/><path d="M23.8 17.7a1.2 1.2 0 0 1 .3.3l.3.5a1.1 1.1 0 0 0 .2.3.1.1 0 0 1-.1 0 .5.5 0 0 1-.2-.2l-.2-.5a1 1 0 0 0-.3-.2l.2.2a.8.8 0 0 1 .1.4l-.1-.2-.3-.4a1.5 1.5 0 0 0 .1.3 2.1 2.1 0 0 1 .2.4l-.2-.3a.9.9 0 0 0-.2-.2l-.1-.2a.3.3 0 0 0 .2 0 .5.5 0 0 0 .1-.2Z" class="bh"/><path d="M23.2 18.2a1 1 0 0 0 .2 0 .6.6 0 0 1 .1 0 .3.3 0 0 1 0 .1.4.4 0 0 1 0 .3v-.2a2.9 2.9 0 0 0-.3-.2Z" class="at"/><path d="M23.2 18.6a1 1 0 0 1 0 .4 1 1 0 0 1-.2.5v-.4.1-.3l.1-.3Z" class="bn"/><path d="M23 18.8h-.3v.2a2.5 2.5 0 0 1-.2.4 1.5 1.5 0 0 0 .3-.3.5.5 0 0 0 0-.2.2.2 0 0 1 .2 0l.1.3a1.2 1.2 0 0 0 0-.3 2 2 0 0 0 .1-.3.8.8 0 0 1-.2-.1.5.5 0 0 1 0 .3Z" class="at"/><path d="M23.8 17.5a.3.3 0 0 1 0 .3.2.2 0 0 1-.2 0 .5.5 0 0 1-.2 0l-.4-.2h-.3v-.2h.3l.3.1h.2v.1h.2a.2.2 0 0 0 .1 0Z" class="bl"/><path d="M23.8 17.5a.2.2 0 0 1 0 .2.3.3 0 0 1-.3 0l-.4-.2a1.2 1.2 0 0 0-.3 0c-.1 0 0-.1 0-.1a1.2 1.2 0 0 1 .4 0 1.3 1.3 0 0 0 .4.2h.2Z" class="au"/><path d="M22.6 17.4a.3.3 0 0 0 .1 0 .2.2 0 0 0 .1 0 .3.3 0 0 1-.1 0Z" class="ar"/><path d="M23.5 18v.2l-.2-.2-.5-.1-.2-.1a.4.4 0 0 0 0-.2h.3l.4.1Zm-.3.1s.2.4.2.5l-.7-.4-.2.3-.5-.2.5-.4h.6Z" class="bl"/><path d="M23 17.6a2 2 0 0 1 .4.1 1 1 0 0 0 .3.1.3.3 0 0 1-.2.1l-.2-.1a1.4 1.4 0 0 0-.3-.1Z" class="au"/><path d="M22.6 17.5a1.5 1.5 0 0 1 .3 0c0 .1 0 .1.1 0v.2a.4.4 0 0 1-.2-.1.2.2 0 0 0-.2 0Z" class="ar"/><path d="M23.5 18v.2a.4.4 0 0 1-.3 0s-.1-.2-.3-.2l-.3-.1a.6.6 0 0 0-.1 0v-.1h.4l.3.2H23.5Zm-.6.3v.5h-.2a.1.1 0 0 0 0-.2.7.7 0 0 0-.2-.1s0-.2.2-.2 0-.1 0-.1Z" class="au"/><path d="M22.6 17.7a.3.3 0 0 0 .1 0 1.3 1.3 0 0 1 .3.1 2.7 2.7 0 0 1 .3.1.6.6 0 0 1 .2.2l-.2-.1a2 2 0 0 0-.3-.1h-.5a.1.1 0 0 0 0-.2Z" class="ar"/><path d="M23.3 18.5v.1a.4.4 0 0 1-.3 0 .4.4 0 0 0 0-.2 1.6 1.6 0 0 0-.3-.2c-.1 0 0 0 0 0l.4.1a1.8 1.8 0 0 1 .2.2Z" class="au"/><path d="M23.4 18.5a1.3 1.3 0 0 0-.6-.3h.1-.2V18h-.4a.5.5 0 0 1 .2 0l.1.2-.1.2s0-.2.2-.2a.2.2 0 0 1 .1.1s-.1-.2 0-.2a1.1 1.1 0 0 1 .3.1.8.8 0 0 1 .3.2Z" class="ar"/><path d="M22.7 18.2a.4.4 0 0 1 .3.4c0 .3-.3.3-.3.2h.1l.1-.2a.3.3 0 0 0 0-.3 1.3 1.3 0 0 0-.2-.1Z" class="bl"/><path d="M21.4 17.4v.3a1.2 1.2 0 0 1-.3.4l-.4.4.2.1.4-.6.1-.4v-.2Z" style="fill:#6c3f18"/><path d="M22.5 17a.9.9 0 0 1 0 .5c0 .4-.5.7-.5.7l-.7.5h-.2a.3.3 0 0 1-.1 0l-.1-.1V18.3l.3-.2.1-.2a.8.8 0 0 0 .1-.3.4.4 0 0 0 0-.2v.5l.2-.1.3-.1v-.2a1.7 1.7 0 0 0 .2-.4V17a.4.4 0 0 1 0 .2l.1.3.1-.1a1 1 0 0 0 .1-.2.6.6 0 0 0 0-.2Z" class="bl"/><path d="M22.6 18.8v.1a.2.2 0 0 1-.2.2V19l-.1-.2H22a1.5 1.5 0 0 1 .2-.1Z" class="ba"/><path d="M22.4 18.8a.1.1 0 0 0 .2 0 .1.1 0 0 0 0-.2v.1l-.2-.1a.2.2 0 0 0-.2 0c0 .1 0 0 0 0l.2.1Z" class="au"/><path d="M21.4 18.3a.5.5 0 0 0 .2 0 2.2 2.2 0 0 0 .4-.1 1 1 0 0 0 .1-.2.9.9 0 0 0 .4-.5 1.3 1.3 0 0 0 0-.6.7.7 0 0 1 0 1 1.2 1.2 0 0 1-.4.3s.4 0 .4 0a.4.4 0 0 1 0 .3s.2 0 .2.1-.2 0-.4 0a.5.5 0 0 0-.3.2s0 0-.2 0h-.3a1 1 0 0 1-.5-.2l.2-.2c.1-.2.2-.1.2-.1Z" class="ba"/><path d="M22.2 17.4a1.2 1.2 0 0 0 .2-.3.7.7 0 0 0 0-.2.4.4 0 0 1 0 .3 1.4 1.4 0 0 1-.2.2Z" class="au"/><path d="M22.2 17s.1.5 0 .7a2.4 2.4 0 0 1-.7.5 1.6 1.6 0 0 0 .5-.5 1.1 1.1 0 0 0 .2-.5V17Z" class="ba"/><path d="M21.6 18.3a.7.7 0 0 0 .3 0 2.1 2.1 0 0 0 .2-.3s0 .1-.1.1a.4.4 0 0 1-.2 0 .7.7 0 0 1-.2.2Zm.4-.6a.7.7 0 0 0 .2-.5l-.1-.3v.4a1.4 1.4 0 0 1 0 .4Zm.2 0a.4.4 0 0 0 .3-.1.7.7 0 0 0 0-.3.7.7 0 0 1 0 .2 1.8 1.8 0 0 1-.3.2Zm0 1h.1a.2.2 0 0 1 .1 0 .4.4 0 0 0-.3 0Zm-.4-.2.4-.2h.3a1.2 1.2 0 0 1-.3.2.8.8 0 0 1-.3.1 1.6 1.6 0 0 0 .4-.2 1.7 1.7 0 0 1-.5 0Z" class="bh"/><path d="M21.4 18a.3.3 0 0 1 0 .5.3.3 0 0 1-.3 0" class="h"/><path d="M21.4 18.1a.3.3 0 0 1 0 .4.3.3 0 0 1-.3 0" style="fill:#f16e16"/><path d="M21.3 18.2a.1.1 0 1 1-.1.2"/><path d="M21.3 18.4Z" style="fill:#d5d3ca"/><path d="M21.5 17.9a.8.8 0 0 0 .2-.4 1 1 0 0 0 0-.3l.1.2v.3h.1a1.4 1.4 0 0 0 .2-.8.7.7 0 0 1 0 .4.5.5 0 0 1-.4.5 1 1 0 0 0-.4.5 2 2 0 0 1-.3.3 2.6 2.6 0 0 0 .2-.3 1.3 1.3 0 0 1 .2-.3V18Z" class="au"/><path d="M21.4 18a1.5 1.5 0 0 0 0-.3.7.7 0 0 0 0-.3s0 0 0 .3v.3Z" class="ba"/><path d="M21.7 17.7a1 1 0 0 0 0-.3.5.5 0 0 0 0-.2s.1 0 .1.2v.3Z" class="ar"/><path d="M21 18.6a.2.2 0 0 1-.1-.1l.1-.2a1.4 1.4 0 0 0 .3-.4s.2-.3 0-.5a.6.6 0 0 1 0 .5 1.7 1.7 0 0 1-.4.4l-.1.2v.1a.3.3 0 0 0 .1 0Z" class="au"/><path d="M22.4 19.1a.2.2 0 0 0 0-.2.4.4 0 0 0-.2-.1 1.6 1.6 0 0 0-.2 0 .4.4 0 0 0 .2.1h.2a.4.4 0 0 1 0 .2ZM22.4 19.1a.3.3 0 0 0 .2-.2.3.3 0 0 0 0-.1h.1s0 .4-.3.3Z" class="br"/><path d="M21.2 19.1a.3.3 0 0 1 .1.1.8.8 0 0 0 .1 0h.4l.2-.1-.1-.2h-.3Z" style="fill:#bf802d"/><path d="M22.2 19v-.1a.2.2 0 0 0-.1-.1 1.2 1.2 0 0 0-.3 0h-.2a.2.2 0 0 1-.2 0 2.6 2.6 0 0 1-.2 0l-.2-.2a.8.8 0 0 0-.3 0s-.1.2 0 .2h-.1a.8.8 0 0 0-.4.5c0 .3.5.8.7.5 0 0-.3-.2-.2-.4a.4.4 0 0 1 .4-.3.5.5 0 0 0 .4-.1.3.3 0 0 1 .4 0c.2.2-.5.3-.5.3v.1s.9-.3.8-.4Z" style="stroke:#8f4620;fill:#f9c83a;stroke-width:.06px"/><path d="M20.6 19.7s-.3 0-.3-.4a.5.5 0 0 1 .4-.5l.1-.2a.3.3 0 0 1 .2.1.7.7 0 0 0 .2.1s-.6.3-.6.6v.3Z" style="fill:#fcf3d8"/><path d="M22.2 19a.4.4 0 0 0-.4-.2h-.5c-.1 0-.4-.2-.5-.1 0 .1-.2.1-.2 0l.2-.1.7.2h.3l.4.1Z" style="fill:#fdeaaf"/><path d="M21.3 19.2a1.4 1.4 0 0 0 .2-.1 2 2 0 0 1 .3 0 2.3 2.3 0 0 1-.2 0 1 1 0 0 1-.3.1Z" style="fill:#513625"/><path d="m20.8 19.9-.3-.2a.6.6 0 0 1-.3-.3.5.5 0 0 1 .2-.4l.2-.2-.2.2v.2h-.1v.4l.3.2h.2Z" class="bx"/><path d="M20.8 18.6c-.1 0-.1.1 0 0h-.2v.2a.4.4 0 0 0 .2 0 .3.3 0 0 1-.1 0 .3.3 0 0 1 0-.1v-.1Z" class="at"/><path d="m21.3 19-.4.1h.2a.5.5 0 0 1 .2 0c.2 0 .5-.2.6 0l-.5.2h.4l.2-.2-.1-.2h-.4Z" class="bx"/><path d="M20.7 19.6a.5.5 0 0 0 .2.2h-.2a.6.6 0 0 1-.5-.4l.1.2.1.1.2.2H21v-.2l-.2-.2Z" class="at"/><path d="M22 23.5a1.6 1.6 0 0 0-.2-.1 1.2 1.2 0 0 0-.2 0 1 1 0 0 1 .2 0 1.6 1.6 0 0 1 .2.1Zm0-.3H22a.7.7 0 0 0-.2 0 .4.4 0 0 0-.1 0 .4.4 0 0 1 .1 0 .7.7 0 0 1 .2 0h.1Zm0-.3a3 3 0 0 0-.3.1l-.2.2h.1l.1-.1.2-.1h.1Zm-.2-.3a.3.3 0 0 1 0 .1 1 1 0 0 1-.1 0l-.2.3v.1l.1-.2h.1v-.2a.3.3 0 0 0 .1-.1Zm-.2-.2a.4.4 0 0 1 0 .1.5.5 0 0 1 0 .2 2.2 2.2 0 0 1-.2.2v.1a3.5 3.5 0 0 0 .2-.3.5.5 0 0 0 0-.2Zm-.3 0v.1a.6.6 0 0 1 0 .2v.2l-.1.1.1-.3a.7.7 0 0 0 0-.2Zm-.1 0v.1a1.4 1.4 0 0 1 0 .3l-.1.2v-.2a2.2 2.2 0 0 0 0-.4Zm-.2 0v.2a.6.6 0 0 1 0 .2 2.2 2.2 0 0 0 0 .2v-.2a.6.6 0 0 0 0-.2 1.8 1.8 0 0 0 0-.2Zm-.2 0a1 1 0 0 1 0 .3v.2l-.1.1.1-.3a1 1 0 0 0 0-.2Zm-.1 0v.1a.5.5 0 0 1 0 .3.6.6 0 0 1-.2.1h-.1v.1a.8.8 0 0 0 .2-.2.5.5 0 0 0 0-.3Zm-.2 0a.7.7 0 0 1 0 .3.7.7 0 0 1-.2 0v.1a1 1 0 0 0 .2-.1.8.8 0 0 0 0-.3Zm-.1 0a.3.3 0 0 1-.1.1.9.9 0 0 1-.1 0v.1a.9.9 0 0 0 .1 0 .4.4 0 0 0 0-.2h.1Zm0-.1h-.2v.1a.2.2 0 0 1-.1 0v.1a1.8 1.8 0 0 0 .2-.2Zm-.1-.1a1 1 0 0 1-.2 0 .2.2 0 0 1 0 .1 1 1 0 0 0 .2 0Zm0 0H20h.2Zm-.1-.2a.2.2 0 0 1-.2 0 .2.2 0 0 0 .2 0Zm0-.3a.3.3 0 0 0-.1.2.3.3 0 0 1 0-.1h.1Zm1.2-1.4h.1-.1Zm0 0a.2.2 0 0 0 0-.1 1.3 1.3 0 0 0 .2 0V20h-.1a.2.2 0 0 1-.1 0Zm0-.2.2-.2h-.1a.3.3 0 0 1-.1.1Zm0-.2a1.5 1.5 0 0 0 0-.1l.3-.2-.2.1-.2.2Zm-.2-.2.4-.2-.4.2Zm-.2-.1a2 2 0 0 1 .2-.2h.2v-.1h-.2l-.2.2Zm0-.1.1-.2h.1l.1-.1a.9.9 0 0 0-.1 0l-.3.2Z" class="al"/><path d="M21.2 19.1a1.9 1.9 0 0 1 .3.3.8.8 0 0 1 .2.5 1 1 0 0 1-.3.6 7.8 7.8 0 0 1-.8.7 2 2 0 0 0-.3.3.7.7 0 0 0-.1.4.7.7 0 0 0 .1.4.5.5 0 0 0 .4.2h.7a.6.6 0 0 1 .4.1 1 1 0 0 1 .2.6 2.7 2.7 0 0 1 0 .5v.2a2.8 2.8 0 0 0 0-.7 1 1 0 0 0-.1-.6.6.6 0 0 0-.5-.2h-.7a.4.4 0 0 1-.4-.2.7.7 0 0 1 0-.3.7.7 0 0 1 .1-.5 10 10 0 0 1 .8-.7 1.4 1.4 0 0 0 .5-.8.9.9 0 0 0-.2-.6 1.9 1.9 0 0 0-.3-.2Z" class="ag"/></svg>