<svg xmlns="http://www.w3.org/2000/svg" viewBox="0 0 48 48"><defs><style>.d{fill:#fcd116}</style></defs><path d="M48 24a23.6 23.6 0 0 1-1.4 8H13L3.4 11.6A24 24 0 0 1 48 24Z" style="fill:#0038a8"/><path d="M48 24A24 24 0 0 1 4.4 37.8L12.9 24Z" style="fill:#ce1126"/><path d="M39.6 24 8.2 42a24 24 0 0 1 0-36Z" style="fill:#fff"/><path d="m23 24-.6.6-.5.6-.5.5-3.8-.8a4.7 4.7 0 0 1-.7 1.8l3.2 2.1v2.4H17.7L15.6 28a5 5 0 0 1-1.7.7l.7 3.8-.5.5-.5.5-.7.6-.6-.6-.6-.5-.4-.5.7-3.8a4.6 4.6 0 0 1-1.7-.7L8 31.2H5.8v-2.4l3.1-2.1a4.7 4.7 0 0 1-.7-1.8l-3.7.8-.6-.5-.5-.6-.6-.6.6-.6.5-.6.6-.5 3.7.8a4.7 4.7 0 0 1 .7-1.8l-3.2-2.1v-2.4h2.4l2.2 3.2a4.6 4.6 0 0 1 1.7-.7l-.8-3.8.6-.5.5-.5.6-.6.7.6.5.5.5.5-.7 3.8a5 5 0 0 1 1.7.7l2.1-3.2h2.4v2.4L17 21.3a4.7 4.7 0 0 1 .7 1.8l3.8-.8.5.5.5.6ZM34.8 24l-1.8.6v2L31.7 25l-1.9.6L31 24l-1-1.6 1.8.6 1.1-1.5v1.9Z" class="d"/></svg>