<svg xmlns="http://www.w3.org/2000/svg" viewBox="0 0 48 48"><defs><style>.a{fill:#d91023}.b,.j{fill:#fff}.c{fill:#00a854}.d{fill:#d4af37}.g{fill:#e3e4e5}.j,.m,.o{fill-rule:evenodd}.s,.t{fill-opacity:.502}.n,.o{fill:#e7ca00}.q{fill:#9eab05}.r{fill:#75b52b}.s{fill:#eac102}.t{fill:#cab313}.u{fill:#ed1c24}</style></defs><circle cx="24" cy="24" r="24" class="a"/><path d="M36 3v42a24 24 0 0 1-24 0V3a24 24 0 0 1 24 0Z" class="b"/><path d="M25 15a4 4 0 0 1 1 1 2 2 0 0 1 1 1 2 2 0 0 1-1 2 2 2 0 0 1-1 0 5 5 0 0 1-1 0 3 3 0 0 0 2 0 2 2 0 0 0 1-1 2 2 0 0 0 0-1 2 2 0 0 0-2-2Z" class="c"/><path d="M24 19a5 5 0 0 0 1 0 2 2 0 0 0 1 0 2 2 0 0 0 1-2 2 2 0 0 0-1-1 4 4 0 0 0-1-1 2 2 0 0 1 2 2 2 2 0 0 1 0 1 2 2 0 0 1-1 1 3 3 0 0 1-2 0Zm0 0a3 3 0 0 0 2 0 2 2 0 0 0 1-1 2 2 0 0 0 0-1 2 2 0 0 0-2-2 3 3 0 0 1 1 1 2 2 0 0 1 1 1 2 2 0 0 1-1 2 2 2 0 0 1-1 0 5 5 0 0 1-1 0Z" class="d"/><path d="M24 19Z" class="c"/><path d="M24 19Zm0 0Z" class="d"/><path d="M24 15Z" class="c"/><path d="M24 15h1-1Zm0 0Z" class="d"/><path d="M25 15a2 2 0 0 0-1 0 2 2 0 0 1 1 0Z" class="c"/><path d="M25 15a2 2 0 0 0-1 0 2 2 0 0 1 1 0Z" class="d"/><path d="M24 15Z" class="c"/><path d="M24 15Z" class="d"/><path d="M24 15Z" class="c"/><path d="M24 15Z" class="d"/><path d="M24 15Z" class="c"/><path d="M24 15Z" class="d"/><path d="M24 15Z" class="c"/><path d="M24 15Z" class="d"/><path d="M26 16h-1c-1 0 0 0 0 0v-1h1c1 0 0 0 0 0a1 1 0 0 1 0 1Z" class="c"/><path d="M25 16v-1h1a1 1 0 0 1 0 1h-1Zm0 0h1a1 1 0 0 0 0-1h-1v1Z" class="d"/><path d="M26 16a2 2 0 0 0-1 0 2 2 0 0 1 1 0Z" class="c"/><path d="M25 16a2 2 0 0 1 1 0 2 2 0 0 0-1 0Zm1 0Z" class="d"/><path d="M26 16h-1Z" class="c"/><path d="M25 16h1-1Z" class="d"/><path d="M25 16Z" class="c"/><path d="M25 16Z" class="d"/><path d="M25 16Z" class="c"/><path d="M25 16v-1 1Z" class="d"/><path d="m26 16-1-1 1 1Z" class="c"/><path d="m26 16-1-1 1 1Z" class="d"/><path d="M27 17v-1 1Z" class="c"/><path d="M27 17v-1 1Zm0 0v-1 1Z" class="d"/><path d="M27 17a1 1 0 0 0 0-1 1 1 0 0 1 0 1Z" class="c"/><path d="M27 17a1 1 0 0 0 0-1 1 1 0 0 1 0 1Zm0 0Z" class="d"/><path d="M27 17Z" class="c"/><path d="M27 17Z" class="d"/><path d="M27 17v-1 1Z" class="c"/><path d="M27 17v-1 1Z" class="d"/><path d="M27 17Z" class="c"/><path d="M27 17Z" class="d"/><path d="M27 17Z" class="c"/><path d="M27 17Z" class="d"/><path d="M27 16v-1 1Z" class="c"/><path d="M27 16v-1 1Zm0 0v-1 1Z" class="d"/><path d="M27 16a1 1 0 0 0 0-1 1 1 0 0 1 0 1Z" class="c"/><path d="M27 16a1 1 0 0 0 0-1 1 1 0 0 1 0 1Zm0 0Z" class="d"/><path d="M27 16Z" class="c"/><path d="M27 16Z" class="d"/><path d="M27 16Z" class="c"/><path d="M27 16Z" class="d"/><path d="M27 16Z" class="c"/><path d="M27 16Z" class="d"/><path d="M27 16Z" class="c"/><path d="M27 16Z" class="d"/><path d="M26 16h-1c-1 0 0 0 0 0h1Z" class="c"/><path d="M26 16h-1 1Zm0 0h-1 1Z" class="d"/><path d="M26 16a2 2 0 0 0-1 0 2 2 0 0 1 1 0Z" class="c"/><path d="M26 16a2 2 0 0 0-1 0 2 2 0 0 1 1 0Zm0 0Z" class="d"/><path d="M26 16Z" class="c"/><path d="M26 16Z" class="d"/><path d="M26 16h-1 1Z" class="c"/><path d="M25 16h1-1Z" class="d"/><path d="M26 16Z" class="c"/><path d="M26 16Z" class="d"/><path d="M26 16Z" class="c"/><path d="M26 16Z" class="d"/><path d="M27 16h-1 1-1l1-1h-1 1v1Z" class="c"/><path d="M27 16h-1 1-1v-1h1-1 1v1c0 1 0 0 0 0Zm0-1h-1 1-1v1h1-1 1v-1Z" class="d"/><path d="M26 16a1 1 0 0 0 1-1 1 1 0 0 1-1 1Z" class="c"/><path d="M26 16a1 1 0 0 0 1-1 1 1 0 0 1-1 1Zm0 0a1 1 0 0 0 1 0 1 1 0 0 1-1 0Z" class="d"/><path d="M27 16Z" class="c"/><path d="M27 16Z" class="d"/><path d="M27 15Z" class="c"/><path d="M27 15h-1 1Z" class="d"/><path d="M27 15Z" class="c"/><path d="M27 15Z" class="d"/><path d="M27 16Z" class="c"/><path d="M27 16Z" class="d"/><path d="M26 15h-1l1-1v1c0 1 0 0 0 0Z" class="c"/><path d="M26 15h-1l1-1v1Zm0-1v1h-1 1v-1Z" class="d"/><path d="M26 15a1 1 0 0 0 0-1 1 1 0 0 1 0 1Z" class="c"/><path d="M26 15a1 1 0 0 0 0-1 1 1 0 0 1 0 1Zm0 0Z" class="d"/><path d="M26 15Z" class="c"/><path d="M26 15Z" class="d"/><path d="M26 15Z" class="c"/><path d="M26 15Z" class="d"/><path d="M26 15Z" class="c"/><path d="M26 15Z" class="d"/><path d="M26 15Z" class="c"/><path d="M26 15Z" class="d"/><path d="M25 15v-1 1h1-1s1 0 0 0Z" class="c"/><path d="M25 15v-1l1 1h-1Zm0-1v1h1-1 1-1v-1Z" class="d"/><path d="M25 15a1 1 0 0 0 0-1 1 1 0 0 1 0 1Z" class="c"/><path d="M25 15a1 1 0 0 0 0-1 1 1 0 0 1 0 1Zm0 0Z" class="d"/><path d="M25 15Z" class="c"/><path d="M25 15Z" class="d"/><path d="M25 15Z" class="c"/><path d="M25 15Z" class="d"/><path d="M25 15h1-1Z" class="c"/><path d="M25 15h1-1Z" class="d"/><path d="M25 15Z" class="c"/><path d="M25 15Z" class="d"/><path d="M26 19v-1a1 1 0 0 1 0 1Z" class="c"/><path d="M26 19v-1a1 1 0 0 1 0 1Zm0-1v1a1 1 0 0 0 0-1Z" class="d"/><path d="M26 19a1 1 0 0 0 0-1 1 1 0 0 1 0 1Z" class="c"/><path d="M26 19a1 1 0 0 0 0-1 1 1 0 0 1 0 1Zm0 0a1 1 0 0 0 0-1 1 1 0 0 1 0 1Z" class="d"/><path d="M26 18Z" class="c"/><path d="M26 18Z" class="d"/><path d="M26 18Z" class="c"/><path d="M26 18Z" class="d"/><path d="M26 18Z" class="c"/><path d="M26 18Z" class="d"/><path d="M26 18Z" class="c"/><path d="M26 18Z" class="d"/><path d="M27 17h-1v-1 1-1h1v1Z" class="c"/><path d="M27 17a1 1 0 0 1-1 0v-1 1-1h1v1Zm0 0v-1h-1v1-1 1a1 1 0 0 0 1 0Z" class="d"/><path d="M26 16Z" class="c"/><path d="M26 16Z" class="d"/><path d="M26 16Z" class="c"/><path d="M26 16Z" class="d"/><path d="M26 16Z" class="c"/><path d="M26 16Z" class="d"/><path d="M26 16Z" class="c"/><path d="M26 16Z" class="d"/><path d="M27 17a2 2 0 0 0-1-1 2 2 0 0 1 1 1Z" class="c"/><path d="M27 17a2 2 0 0 0-1-1 2 2 0 0 1 1 1Zm0 0a1 1 0 0 0-1-1 1 1 0 0 1 1 1Z" class="d"/><path d="M27 17h-1 1c1 0-1 0 0 0Z" class="c"/><path d="M27 17h-1 1Zm-1 0h1-1 1-1Z" class="d"/><path d="M26 17Z" class="c"/><path d="M26 17Z" class="d"/><path d="M26 17Z" class="c"/><path d="M26 17Z" class="d"/><path d="M26 17Z" class="c"/><path d="M27 17h-1Z" class="d"/><path d="M27 17a2 2 0 0 0-1 0h1Z" class="c"/><path d="M27 17a2 2 0 0 0-1 0h1Zm0 0a1 1 0 0 0-1 0 1 1 0 0 1 1 0Z" class="d"/><path d="M26 17Z" class="c"/><path d="M26 17Z" class="d"/><path d="M25 15c-1 0 0 0 0 0h-1v-1 1c0 1 0-1 0 0h1Z" class="c"/><path d="M25 15h-1v-1 1h1Zm-1 0h1-1v-1 1Z" class="d"/><path d="M25 15a2 2 0 0 0-1-1 1 1 0 0 1 1 1Z" class="c"/><path d="M25 15a2 2 0 0 0-1-1 2 2 0 0 1 1 1Z" class="d"/><path d="M25 15h-1 1Z" class="c"/><path d="M25 15h-1 1Z" class="d"/><path d="M24 15Z" class="c"/><path d="M24 15Z" class="d"/><path d="M24 15Z" class="c"/><path d="M24 15Z" class="d"/><path d="M25 15Z" class="c"/><path d="M25 15Z" class="d"/><path d="M25 15v-1 1Z" class="c"/><path d="M25 15v-1 1Zm0 0v-1 1Z" class="d"/><path d="M25 15a1 1 0 0 0 0-1 1 1 0 0 1 0 1Z" class="c"/><path d="M25 15a1 1 0 0 0 0-1 1 1 0 0 1 0 1Z" class="d"/><path d="M25 15Z" class="c"/><path d="M25 15Z" class="d"/><path d="M25 15Z" class="c"/><path d="M25 15Z" class="d"/><path d="M25 15v-1 1Z" class="c"/><path d="M25 15v-1 1Z" class="d"/><path d="M25 15Z" class="c"/><path d="M25 15Z" class="d"/><path d="M25 15h-1 1Z" class="c"/><path d="M24 15h1-1Zm0 0h1-1Z" class="d"/><path d="M25 15a2 2 0 0 1-1 0 2 2 0 0 0 1 0Z" class="c"/><path d="M24 15a2 2 0 0 0 1 0 2 2 0 0 1-1 0Z" class="d"/><path d="M24 15Z" class="c"/><path d="M24 15Z" class="d"/><path d="M24 15Z" class="c"/><path d="M24 15Z" class="d"/><path d="M24 15Z" class="c"/><path d="M24 15Z" class="d"/><path d="M24 15Z" class="c"/><path d="M24 15Z" class="d"/><path d="M25 15h-1v1-1h1Z" class="c"/><path d="M24 16v-1h1-1v1Zm0-1v1-1h1-1Z" class="d"/><path d="M25 15a3 3 0 0 1-1 0 2 2 0 0 0 1 0Z" class="c"/><path d="M24 15a2 2 0 0 0 1 0 2 2 0 0 1-1 0Z" class="d"/><path d="M25 15h-1 1Z" class="c"/><path d="M25 15h-1 1Z" class="d"/><path d="M24 15Z" class="c"/><path d="M24 15Z" class="d"/><path d="M24 15Z" class="c"/><path d="M24 15Z" class="d"/><path d="M25 15Z" class="c"/><path d="M25 15h-1 1Z" class="d"/><path d="M25 15h-1v1h1a1 1 0 0 0 0-1Z" class="c"/><path d="M24 16v-1h1a1 1 0 0 1 0 1h-1Zm1-1h-1v1h1a1 1 0 0 0 0-1Z" class="d"/><path d="M25 15a2 2 0 0 1-1 1 2 2 0 0 0 1-1Z" class="c"/><path d="M24 16a2 2 0 0 0 1-1 2 2 0 0 1-1 1Z" class="d"/><path d="M25 15Z" class="c"/><path d="M25 15Z" class="d"/><path d="M25 16v-1 1Z" class="c"/><path d="M25 16v-1 1Z" class="d"/><path d="M25 16Z" class="c"/><path d="M25 16Z" class="d"/><path d="M25 15a1 1 0 0 0 0 1 1 1 0 0 1 0-1Z" class="c"/><path d="M25 16a1 1 0 0 1 0-1 1 1 0 0 0 0 1Z" class="d"/><path d="M24 19h1s-1 0 0 0h-1c-1 0 1 0 0 0Z" class="c"/><path d="M24 19h1-1Zm1 0h-1 1Z" class="d"/><path d="M24 19a1 1 0 0 1 1 0 1 1 0 0 0-1 0Z" class="c"/><path d="M24 19a1 1 0 0 1 1 0 1 1 0 0 0-1 0Zm0 0Z" class="d"/><path d="M24 19h1-1Z" class="c"/><path d="M24 19h1-1Z" class="d"/><path d="M25 19Z" class="c"/><path d="M25 19Z" class="d"/><path d="M25 19Z" class="c"/><path d="M25 19Z" class="d"/><path d="M24 19Z" class="c"/><path d="M24 19Z" class="d"/><path d="M25 19h1l-1 1c-1 0 0 0 0 0a1 1 0 0 1 0-1Z" class="c"/><path d="M25 20a1 1 0 0 1 0-1h1l-1 1Zm0 0 1-1h-1a1 1 0 0 0 0 1Z" class="d"/><path d="M24 19a2 2 0 0 0 2 0 2 2 0 0 1-2 0Z" class="c"/><path d="M25 20a2 2 0 0 1-1-1 2 2 0 0 0 2 0 3 3 0 0 1-1 1Zm-1-1a2 2 0 0 0 1 0 2 2 0 0 1-1 0Z" class="d"/><path d="M25 19Z" class="c"/><path d="M25 19Z" class="d"/><path d="M25 19Z" class="c"/><path d="M25 19Z" class="d"/><path d="M25 19v1-1Z" class="c"/><path d="M25 20v-1 1Z" class="d"/><path d="M25 19v1-1Z" class="c"/><path d="M25 20v-1 1Z" class="d"/><path d="M25 19Z" class="c"/><path d="M25 19Zm0 0Z" class="d"/><path d="M25 19Z" class="c"/><path d="M25 19Zm0 0Z" class="d"/><path d="M25 19Z" class="c"/><path d="M25 19Z" class="d"/><path d="M25 19Z" class="c"/><path d="M25 19Z" class="d"/><path d="M25 19Z" class="c"/><path d="M25 19Z" class="d"/><path d="M25 19Z" class="c"/><path d="M25 19Z" class="d"/><path d="M25 19h1c1 0 0 0 0 0h-1Z" class="c"/><path d="M26 19h-1 1Zm0 0h-1 1Z" class="d"/><path d="M25 19a2 2 0 0 0 1 0 2 2 0 0 1-1 0Z" class="c"/><path d="M25 19a2 2 0 0 0 1 0 3 3 0 0 1-1 0Zm0 0a2 2 0 0 0 1 0 2 2 0 0 1-1 0Z" class="d"/><path d="M26 19Z" class="c"/><path d="M26 19Z" class="d"/><path d="M26 19Z" class="c"/><path d="M26 19Z" class="d"/><path d="M26 19Z" class="c"/><path d="M26 19Z" class="d"/><path d="M26 19Z" class="c"/><path d="M26 19Z" class="d"/><path d="M26 19h1c1 0 0 0 0 0h-1c-1 0 0 0 0 0Z" class="c"/><path d="M26 19h1-1Zm0 0h1-1Z" class="d"/><path d="M26 19a2 2 0 0 0 1 0 2 2 0 0 1-1 0Z" class="c"/><path d="M26 19a2 2 0 0 0 1 0 2 2 0 0 1-1 0Zm0 0Z" class="d"/><path d="M26 19Z" class="c"/><path d="M26 19Z" class="d"/><path d="M27 19Z" class="c"/><path d="M27 19Z" class="d"/><path d="M27 19Z" class="c"/><path d="M27 19Z" class="d"/><path d="M26 19Z" class="c"/><path d="M26 19Z" class="d"/><path d="M25 19h1l-1-1v1Z" class="c"/><path d="M25 19v-1h1v1h-1Zm0-1v1h1v-1h-1Z" class="d"/><path d="M25 19a1 1 0 0 1 0-1 1 1 0 0 0 0 1Z" class="c"/><path d="M25 19a1 1 0 0 1 0-1 1 1 0 0 0 0 1Zm0 0Z" class="d"/><path d="M25 19Z" class="c"/><path d="M25 19Z" class="d"/><path d="M25 19Z" class="c"/><path d="M25 19Z" class="d"/><path d="M25 19Z" class="c"/><path d="M25 19Z" class="d"/><path d="M25 19Z" class="c"/><path d="M25 19Z" class="d"/><path d="M26 19v-1 1Z" class="c"/><path d="M26 19v-1c0-1 0 0 0 0v1Zm0-1v1-1Z" class="d"/><path d="M26 19a1 1 0 0 1 0-1 1 1 0 0 0 0 1Z" class="c"/><path d="M26 19a1 1 0 0 1 0-1 1 1 0 0 0 0 1Zm0 0Z" class="d"/><path d="M26 19v-1 1Z" class="c"/><path d="M26 19v-1 1Z" class="d"/><path d="M26 18Z" class="c"/><path d="M26 18Z" class="d"/><path d="M26 18Z" class="c"/><path d="M26 18Z" class="d"/><path d="M26 19Z" class="c"/><path d="M26 19Z" class="d"/><path d="M27 18v-1c-1 0 0 0 0 0v1Z" class="c"/><path d="M27 18v-1h1-1v1Zm0-1v1-1Z" class="d"/><path d="M27 18a1 1 0 0 0 0-1 1 1 0 0 1 0 1Z" class="c"/><path d="M27 18a1 1 0 0 0 0-1 1 1 0 0 1 0 1Zm0 0a1 1 0 0 0 0-1 1 1 0 0 1 0 1Z" class="d"/><path d="M27 17Z" class="c"/><path d="M27 17Z" class="d"/><path d="M27 17Z" class="c"/><path d="M27 17Z" class="d"/><path d="M27 17Z" class="c"/><path d="M27 17Z" class="d"/><path d="M27 17Z" class="c"/><path d="M27 17Z" class="d"/><path d="M26 16v-1h1-1 1-1v1Z" class="c"/><path d="M26 16v-1h1-1c-1 0 0 0 0 0h1c1 0 0 0 0 0h-1v1Zm0-1v1-1h1-1s1 0 0 0Z" class="d"/><path d="M26 16a1 1 0 0 0 0-1 1 1 0 0 1 0 1Z" class="c"/><path d="M26 16a1 1 0 0 0 0-1 1 1 0 0 1 0 1Zm0 0a1 1 0 0 0 0-1 1 1 0 0 1 0 1Z" class="d"/><path d="M26 15Z" class="c"/><path d="M26 15Z" class="d"/><path d="M26 15Z" class="c"/><path d="M26 15Z" class="d"/><path d="M26 15Z" class="c"/><path d="M26 15Z" class="d"/><path d="M26 15Z" class="c"/><path d="M26 15Z" class="d"/><path d="M26 15Z" class="c"/><path d="M26 15Zm0 0Z" class="d"/><path d="M26 16a1 1 0 0 0 0-1 1 1 0 0 1 0 1Z" class="c"/><path d="M26 16a1 1 0 0 0 0-1 1 1 0 0 1 0 1Zm0 0a1 1 0 0 0 0-1 1 1 0 0 1 0 1Z" class="d"/><path d="M26 15Z" class="c"/><path d="M26 15Z" class="d"/><path d="M26 15Z" class="c"/><path d="M26 15Z" class="d"/><path d="M26 15Z" class="c"/><path d="M26 15Z" class="d"/><path d="M26 15Z" class="c"/><path d="M26 15Z" class="d"/><path d="M26 16h-1 1c1 0 0 0 0 0Z" class="c"/><path d="M26 16h-1 1Zm0 0h-1 1Z" class="d"/><path d="M27 16a2 2 0 0 0-2 0 2 2 0 0 1 2 0Z" class="c"/><path d="M27 16a2 2 0 0 0-2 0 2 2 0 0 1 2 0Zm-1 0a2 2 0 0 1 1 0 2 2 0 0 0-1 0Z" class="d"/><path d="M26 16Z" class="c"/><path d="M26 16Z" class="d"/><path d="M26 16Z" class="c"/><path d="M26 16Z" class="d"/><path d="M26 16Z" class="c"/><path d="M26 16Z" class="d"/><path d="M26 16Z" class="c"/><path d="M26 16Z" class="d"/><path d="M27 17v-1 1Z" class="c"/><path d="M27 17v-1 1Zm0-1v1-1Z" class="d"/><path d="M27 17a1 1 0 0 0 0-1 1 1 0 0 1 0 1Z" class="c"/><path d="M27 17a1 1 0 0 0 0-1 1 1 0 0 1 0 1Zm0 0a1 1 0 0 0 0-1 1 1 0 0 1 0 1Z" class="d"/><path d="M27 16Z" class="c"/><path d="M27 16Z" class="d"/><path d="M27 16Z" class="c"/><path d="M27 16Z" class="d"/><path d="M27 16Z" class="c"/><path d="M27 16Z" class="d"/><path d="M27 16Z" class="c"/><path d="M27 16Z" class="d"/><path d="M26 18v-1 1c0 1 0 0 0 0Z" class="c"/><path d="M26 18v-1 1Zm0 0v-1 1Z" class="d"/><path d="M26 18Z" class="c"/><path d="M26 18Z" class="d"/><path d="M26 18v-1 1Z" class="c"/><path d="M26 18v-1 1Z" class="d"/><path d="M26 18Z" class="c"/><path d="M26 18Z" class="d"/><path d="M26 18a1 1 0 0 0 0-1v1Z" class="c"/><path d="M26 18v-1 1Zm0 0Z" class="d"/><path d="M26 18Z" class="c"/><path d="M26 18Z" class="d"/><path d="m27 18-1-1h1a1 1 0 0 1 0 1Z" class="c"/><path d="M27 18h-1v-1h1-1 1a1 1 0 0 1 0 1Zm-1-1v1h1a1 1 0 0 0 0-1h-1s1 0 0 0Z" class="d"/><path d="M26 17Z" class="c"/><path d="M26 17Z" class="d"/><path d="M26 17Z" class="c"/><path d="M26 17Z" class="d"/><path d="M26 17Z" class="c"/><path d="M26 17Z" class="d"/><path d="M27 18a2 2 0 0 0-1-1l1 1Z" class="c"/><path d="m27 18-1-1 1 1Zm0 0a1 1 0 0 0-1-1 1 1 0 0 1 1 1Z" class="d"/><path d="M26 17Z" class="c"/><path d="M26 17Z" class="d"/><path d="m26 19 1-1v1s0-1 0 0a1 1 0 0 1-1 0Z" class="c"/><path d="M27 19a1 1 0 0 1-1 0v-1h1v1Zm-1 0a1 1 0 0 0 1 0v-1 1-1h-1v1Z" class="d"/><path d="M26 19a2 2 0 0 0 1-1 2 2 0 0 1-1 1Z" class="c"/><path d="M26 19a2 2 0 0 0 1-1 2 2 0 0 1-1 1Zm0 0a2 2 0 0 0 1-1 2 2 0 0 1-1 1Z" class="d"/><path d="M27 18Z" class="c"/><path d="M27 18Z" class="d"/><path d="M27 18Z" class="c"/><path d="M27 18Z" class="d"/><path d="M27 18Z" class="c"/><path d="M27 18Z" class="d"/><path d="M27 18Z" class="c"/><path d="M27 18Z" class="d"/><path d="M27 18Z" class="c"/><path d="M27 18Zm0 0Z" class="d"/><path d="M27 18a2 2 0 0 1-1 0Z" class="c"/><path d="M26 18a2 2 0 0 0 1 0 2 2 0 0 1-1 0Zm1 0Z" class="d"/><path d="M27 18Z" class="c"/><path d="M27 18Z" class="d"/><path d="M27 18Z" class="c"/><path d="M27 18Z" class="d"/><path d="M27 18Z" class="c"/><path d="M27 18Z" class="d"/><path d="M27 18Z" class="c"/><path d="M27 18Z" class="d"/><path d="M23 15a4 4 0 0 0-1 1 2 2 0 0 0-1 1 2 2 0 0 0 1 2 2 2 0 0 0 1 0 5 5 0 0 0 1 0 3 3 0 0 1-2 0 2 2 0 0 1-1-1 2 2 0 0 1 0-1 2 2 0 0 1 2-2Z" class="c"/><path d="M24 19a3 3 0 0 1-2 0 2 2 0 0 1-1-1 2 2 0 0 1 0-1 2 2 0 0 1 2-2 4 4 0 0 0-1 1 2 2 0 0 0-1 1 2 2 0 0 0 1 2 2 2 0 0 0 1 0 5 5 0 0 0 1 0Zm-1-4a2 2 0 0 0-2 2 2 2 0 0 0 0 1 2 2 0 0 0 1 1 3 3 0 0 0 2 0 5 5 0 0 1-1 0 2 2 0 0 1-1 0 2 2 0 0 1-1-2 2 2 0 0 1 1-1 3 3 0 0 1 1-1Z" class="d"/><path d="M24 19Z" class="c"/><path d="M24 19Zm0 0Z" class="d"/><path d="M24 15Z" class="c"/><path d="M24 15Zm0 0Z" class="d"/><path d="M23 15a2 2 0 0 1 1 0 2 2 0 0 0-1 0Z" class="c"/><path d="M23 15a2 2 0 0 1 1 0 2 2 0 0 0-1 0Z" class="d"/><path d="M24 15Z" class="c"/><path d="M24 15Z" class="d"/><path d="M24 15Z" class="c"/><path d="M24 15Z" class="d"/><path d="M24 15Z" class="c"/><path d="M24 15Z" class="d"/><path d="M24 15Z" class="c"/><path d="M24 15Z" class="d"/><path d="M22 16h1v-1h-1a1 1 0 0 0 0 1Z" class="c"/><path d="M23 16h-1a1 1 0 0 1 0-1h1v1Zm0 0v-1h-1a1 1 0 0 0 0 1h1Z" class="d"/><path d="M22 16a2 2 0 0 1 1 0 2 2 0 0 0-1 0Z" class="c"/><path d="M23 16a2 2 0 0 0-1 0 2 2 0 0 1 1 0Zm-1 0Z" class="d"/><path d="M23 16Z" class="c"/><path d="M23 16Z" class="d"/><path d="M23 16Z" class="c"/><path d="M23 16Z" class="d"/><path d="M23 16Z" class="c"/><path d="M23 16Z" class="d"/><path d="m22 16 1-1-1 1Z" class="c"/><path d="m22 16 1-1-1 1Z" class="d"/><path d="M21 17v-1 1Z" class="c"/><path d="M21 17v-1 1Zm0 0v-1 1Z" class="d"/><path d="M21 17a1 1 0 0 1 0-1 1 1 0 0 0 0 1Z" class="c"/><path d="M21 17a1 1 0 0 1 0-1 1 1 0 0 0 0 1Zm0 0Z" class="d"/><path d="M21 17Z" class="c"/><path d="M21 17Z" class="d"/><path d="M21 17v-1 1Z" class="c"/><path d="M21 17v-1 1Z" class="d"/><path d="M21 17Z" class="c"/><path d="M21 17Z" class="d"/><path d="M21 17Z" class="c"/><path d="M21 17Z" class="d"/><path d="M21 16v-1 1Z" class="c"/><path d="M21 16v-1 1Zm0-1v1-1Z" class="d"/><path d="M21 16a1 1 0 0 1 0-1 1 1 0 0 0 0 1Z" class="c"/><path d="M21 16a1 1 0 0 1 0-1 1 1 0 0 0 0 1Zm0 0Z" class="d"/><path d="M21 16Z" class="c"/><path d="M21 16Z" class="d"/><path d="M21 16Z" class="c"/><path d="M21 16Z" class="d"/><path d="M21 16Z" class="c"/><path d="M21 16Z" class="d"/><path d="M21 16Z" class="c"/><path d="M21 16Z" class="d"/><path d="M22 16h1c1 0 0 0 0 0h-1Z" class="c"/><path d="M22 16h1-1Zm0 0h1-1Z" class="d"/><path d="M22 16a2 2 0 0 1 1 0 2 2 0 0 0-1 0Z" class="c"/><path d="M22 16a2 2 0 0 1 1 0 2 2 0 0 0-1 0Zm0 0Z" class="d"/><path d="M22 16Z" class="c"/><path d="M22 16Z" class="d"/><path d="M22 16h1-1Z" class="c"/><path d="M23 16h-1 1Z" class="d"/><path d="M22 16h1-1Z" class="c"/><path d="M22 16h1-1Z" class="d"/><path d="M22 16Z" class="c"/><path d="M22 16Z" class="d"/><path d="M21 16h1-1 1v-1c1 0 0 0 0 0h-1v1Z" class="c"/><path d="M21 16v-1h1v1h-1 1-1Zm0-1v1h1-1 1v-1h-1 1-1Z" class="d"/><path d="M22 16a1 1 0 0 1-1-1 1 1 0 0 0 1 1Z" class="c"/><path d="M22 16a1 1 0 0 1-1-1 1 1 0 0 0 1 1Zm-1 0a1 1 0 0 0 1 0 1 1 0 0 1-1 0Z" class="d"/><path d="M21 16Z" class="c"/><path d="M21 16Z" class="d"/><path d="M21 15h1-1Z" class="c"/><path d="M21 15h1-1Z" class="d"/><path d="M21 15Z" class="c"/><path d="M21 15Z" class="d"/><path d="M21 16Z" class="c"/><path d="M21 16Z" class="d"/><path d="M22 15h1l-1-1c1 0 0 0 0 0v1c0 1 0 0 0 0Z" class="c"/><path d="M22 15v-1h1v1h-1Zm0-1v1h1l-1-1Z" class="d"/><path d="M22 15a1 1 0 0 1 0-1 1 1 0 0 0 0 1Z" class="c"/><path d="M22 15a1 1 0 0 1 0-1 1 1 0 0 0 0 1Zm0 0Z" class="d"/><path d="M22 15Z" class="c"/><path d="M22 15Z" class="d"/><path d="M22 15Z" class="c"/><path d="M22 15Z" class="d"/><path d="M22 15Z" class="c"/><path d="M22 15Z" class="d"/><path d="M22 15Z" class="c"/><path d="M22 15Z" class="d"/><path d="M23 15v-1 1h-1 1-1 1Z" class="c"/><path d="M23 15h-1 1-1l1-1v1Zm0-1v1h-1 1-1 1v-1Z" class="d"/><path d="M23 15a1 1 0 0 1 0-1 1 1 0 0 0 0 1Z" class="c"/><path d="M23 15a1 1 0 0 1 0-1 1 1 0 0 0 0 1Zm0 0Z" class="d"/><path d="M23 15Z" class="c"/><path d="M23 15Z" class="d"/><path d="M23 15Z" class="c"/><path d="M23 15Z" class="d"/><path d="M23 15Z" class="c"/><path d="M23 15Z" class="d"/><path d="M23 15Z" class="c"/><path d="M23 15Z" class="d"/><path d="M22 19v-1a1 1 0 0 0 0 1Z" class="c"/><path d="M22 19a1 1 0 0 1 0-1v1Zm0-1v1-1Z" class="d"/><path d="M22 19a1 1 0 0 1 0-1 1 1 0 0 0 0 1Z" class="c"/><path d="M22 19a1 1 0 0 1 0-1 1 1 0 0 0 0 1Zm0-1a1 1 0 0 0 0 1 1 1 0 0 1 0-1Z" class="d"/><path d="M22 18Z" class="c"/><path d="M22 18Z" class="d"/><path d="M22 18Z" class="c"/><path d="M22 18Z" class="d"/><path d="M22 18Z" class="c"/><path d="M22 18Z" class="d"/><path d="M22 18Z" class="c"/><path d="M22 18Z" class="d"/><path d="M21 17h1v-1 1-1c1 0 1 0 0 0h-1v1Z" class="c"/><path d="M21 17v-1h1v1-1 1a1 1 0 0 1-1 0Zm0-1v1a1 1 0 0 0 1 0v-1 1-1h-1Z" class="d"/><path d="M22 16Z" class="c"/><path d="M22 16Z" class="d"/><path d="M22 16Z" class="c"/><path d="M22 16Z" class="d"/><path d="M22 16Z" class="c"/><path d="M22 16Z" class="d"/><path d="M22 16Z" class="c"/><path d="M22 16Z" class="d"/><path d="M21 17a2 2 0 0 1 1-1 2 2 0 0 0-1 1Z" class="c"/><path d="M21 17a2 2 0 0 1 1-1 2 2 0 0 0-1 1Zm1-1a1 1 0 0 0-1 1 1 1 0 0 1 1-1Z" class="d"/><path d="M21 17h1-1Z" class="c"/><path d="M21 17h1-1 1-1Zm1 0c-1 0-1 0 0 0h-1 1Z" class="d"/><path d="M22 17Z" class="c"/><path d="M22 17Z" class="d"/><path d="M22 17Z" class="c"/><path d="M22 17Z" class="d"/><path d="M22 17Z" class="c"/><path d="M22 17Z" class="d"/><path d="M21 17a2 2 0 0 1 1 0h-1Z" class="c"/><path d="M21 17h1a2 2 0 0 0-1 0Zm1 0a1 1 0 0 0-1 0 1 1 0 0 1 1 0Z" class="d"/><path d="M22 17Z" class="c"/><path d="M22 17Z" class="d"/><path d="M23 15c1 0 0 0 0 0h1v-1 1c0 1 0-1 0 0h-1Z" class="c"/><path d="M23 15h1v-1 1h-1Zm1 0h-1 1v-1 1Z" class="d"/><path d="M23 15a2 2 0 0 1 1-1 1 1 0 0 0-1 1Z" class="c"/><path d="M23 15a2 2 0 0 1 1-1 2 2 0 0 0-1 1Z" class="d"/><path d="M23 15h1-1Z" class="c"/><path d="M23 15h1-1Z" class="d"/><path d="M24 15Z" class="c"/><path d="M24 15Z" class="d"/><path d="M24 15Z" class="c"/><path d="M24 15Z" class="d"/><path d="M23 15Z" class="c"/><path d="M23 15Z" class="d"/><path d="M23 15v-1 1Z" class="c"/><path d="M23 15v-1 1Zm0-1v1-1Z" class="d"/><path d="M23 15a1 1 0 0 1 0-1 1 1 0 0 0 0 1Z" class="c"/><path d="M23 15a1 1 0 0 1 0-1 1 1 0 0 0 0 1Z" class="d"/><path d="M23 15Z" class="c"/><path d="M23 15Z" class="d"/><path d="M23 15Z" class="c"/><path d="M23 15Z" class="d"/><path d="M23 15v-1 1Z" class="c"/><path d="M23 15v-1 1Z" class="d"/><path d="M23 15Z" class="c"/><path d="M23 15Z" class="d"/><path d="M23 15h1-1Z" class="c"/><path d="M24 15h-1 1Zm0 0h-1 1Z" class="d"/><path d="M23 15a2 2 0 0 0 1 0 2 2 0 0 1-1 0Z" class="c"/><path d="M24 15a2 2 0 0 1-1 0 2 2 0 0 0 1 0Z" class="d"/><path d="M24 15Z" class="c"/><path d="M24 15Z" class="d"/><path d="M24 15Z" class="c"/><path d="M24 15Z" class="d"/><path d="M24 15Z" class="c"/><path d="M24 15Z" class="d"/><path d="M24 15Z" class="c"/><path d="M24 15Z" class="d"/><path d="M23 15h1v1-1h-1Z" class="c"/><path d="M24 16v-1h-1 1v1Zm0-1v1-1h-1 1Z" class="d"/><path d="M23 15a3 3 0 0 0 1 0 2 2 0 0 1-1 0Z" class="c"/><path d="M24 15a2 2 0 0 1-1 0 2 2 0 0 0 1 0Z" class="d"/><path d="M23 15h1-1Z" class="c"/><path d="M23 15h1-1Z" class="d"/><path d="M24 15Z" class="c"/><path d="M24 15Z" class="d"/><path d="M24 15Z" class="c"/><path d="M24 15Z" class="d"/><path d="M23 15a1 1 0 0 1 1 0 1 1 0 0 0-1 0Z" class="c"/><path d="M24 15h-1a1 1 0 0 1 1 0Z" class="d"/><path d="M23 15h1v1h-1a1 1 0 0 1 0-1Z" class="c"/><path d="M24 16h-1a1 1 0 0 1 0-1h1v1Zm-1 0h1v-1h-1a1 1 0 0 0 0 1Z" class="d"/><path d="M23 15a2 2 0 0 0 1 1 2 2 0 0 1-1-1Z" class="c"/><path d="M24 16a2 2 0 0 1-1-1 2 2 0 0 0 1 1Z" class="d"/><path d="M23 15Z" class="c"/><path d="M23 15Z" class="d"/><path d="m23 16 1-1-1 1Z" class="c"/><path d="M23 16v-1h1l-1 1Z" class="d"/><path d="M23 16a1 1 0 0 1 1 0 1 1 0 0 0-1 0Z" class="c"/><path d="M24 16h-1a1 1 0 0 1 1 0Z" class="d"/><path d="M23 15a1 1 0 0 1 0 1 1 1 0 0 0 0-1Z" class="c"/><path d="M23 16a1 1 0 0 0 0-1 1 1 0 0 1 0 1Z" class="d"/><path d="M24 19h-1 1-1 1Z" class="c"/><path d="M24 19h-1 1-1 1Zm-1 0h1-1 1-1Z" class="d"/><path d="M24 19a1 1 0 0 0-1 0 1 1 0 0 1 1 0Z" class="c"/><path d="M24 19a1 1 0 0 0-1 0 1 1 0 0 1 1 0Zm0 0Z" class="d"/><path d="M24 19h-1 1Z" class="c"/><path d="M24 19h-1 1Z" class="d"/><path d="M23 19Z" class="c"/><path d="M23 19Z" class="d"/><path d="M23 19Z" class="c"/><path d="M23 19Z" class="d"/><path d="M24 19Z" class="c"/><path d="M24 19Z" class="d"/><path d="M23 19h-1l1 1a1 1 0 0 0 0-1Z" class="c"/><path d="m23 20-1-1h1a1 1 0 0 1 0 1Zm0 0a1 1 0 0 0 0-1h-1l1 1Z" class="d"/><path d="M24 19a2 2 0 0 1-2 0 2 2 0 0 0 2 0Z" class="c"/><path d="M23 20a3 3 0 0 1-1-1 2 2 0 0 0 2 0 2 2 0 0 1-1 1Zm0-1a2 2 0 0 0 1 0 2 2 0 0 1-1 0Z" class="d"/><path d="M23 19Z" class="c"/><path d="M23 19Z" class="d"/><path d="M23 19Z" class="c"/><path d="M23 19Z" class="d"/><path d="M23 19v1-1Z" class="c"/><path d="M23 20v-1 1Z" class="d"/><path d="M23 19v1-1Z" class="c"/><path d="M23 20v-1 1Z" class="d"/><path d="M23 19Z" class="c"/><path d="M23 19Zm0 0Z" class="d"/><path d="M23 19Z" class="c"/><path d="M23 19Zm0 0Z" class="d"/><path d="M23 19Z" class="c"/><path d="M23 19Z" class="d"/><path d="M23 19Z" class="c"/><path d="M23 19Z" class="d"/><path d="M23 19Z" class="c"/><path d="M23 19Z" class="d"/><path d="M23 19Z" class="c"/><path d="M23 19Z" class="d"/><path d="M23 19h-1 1Z" class="c"/><path d="M22 19h1-1Zm0 0h1-1Z" class="d"/><path d="M23 19a2 2 0 0 1-1 0 2 2 0 0 0 1 0Z" class="c"/><path d="M23 19a3 3 0 0 1-1 0 2 2 0 0 0 1 0Zm-1 0a2 2 0 0 0 1 0 2 2 0 0 1-1 0Z" class="d"/><path d="M22 19Z" class="c"/><path d="M22 19Z" class="d"/><path d="M22 19Z" class="c"/><path d="M22 19Z" class="d"/><path d="M22 19Z" class="c"/><path d="M22 19Z" class="d"/><path d="M22 19Z" class="c"/><path d="M22 19h1-1Z" class="d"/><path d="M22 19h-1c-1 0 0 0 0 0h1c1 0 0 0 0 0Z" class="c"/><path d="M22 19h-1 1Zm0 0h-1 1Z" class="d"/><path d="M22 19a2 2 0 0 1-1 0 2 2 0 0 0 1 0Z" class="c"/><path d="M22 19a2 2 0 0 1-1 0 2 2 0 0 0 1 0Zm0 0Z" class="d"/><path d="M22 19Z" class="c"/><path d="M22 19Z" class="d"/><path d="M21 19Z" class="c"/><path d="M21 19Z" class="d"/><path d="M21 19Z" class="c"/><path d="M21 19Z" class="d"/><path d="M22 19Z" class="c"/><path d="M22 19Z" class="d"/><path d="M23 19h-1 1v-1 1Z" class="c"/><path d="M23 19h-1l1-1v1Zm0-1v1h-1 1v-1Z" class="d"/><path d="M23 19a1 1 0 0 0 0-1 1 1 0 0 1 0 1Z" class="c"/><path d="M23 19a1 1 0 0 0 0-1 1 1 0 0 1 0 1Zm0 0Z" class="d"/><path d="M23 19Z" class="c"/><path d="M23 19Z" class="d"/><path d="M23 19Z" class="c"/><path d="M23 19Z" class="d"/><path d="M23 19Z" class="c"/><path d="M23 19Z" class="d"/><path d="M23 19Z" class="c"/><path d="M23 19Z" class="d"/><path d="M22 19v-1l1 1h-1Z" class="c"/><path d="M22 19v-1h1-1l1 1h-1Zm0-1v1-1Z" class="d"/><path d="M22 19a1 1 0 0 0 0-1 1 1 0 0 1 0 1Z" class="c"/><path d="M22 19a1 1 0 0 0 0-1 1 1 0 0 1 0 1Zm0 0Z" class="d"/><path d="M22 19v-1 1Z" class="c"/><path d="M22 19v-1 1Z" class="d"/><path d="M22 18Z" class="c"/><path d="M22 18Z" class="d"/><path d="M22 18Z" class="c"/><path d="M22 18Z" class="d"/><path d="M22 19Z" class="c"/><path d="M22 19Z" class="d"/><path d="M21 18v-1 1Z" class="c"/><path d="M21 18v-1 1Zm0-1v1-1Z" class="d"/><path d="M21 18a1 1 0 0 1 0-1 1 1 0 0 0 0 1Z" class="c"/><path d="M21 18a1 1 0 0 1 0-1 1 1 0 0 0 0 1Zm0-1a1 1 0 0 0 0 1 1 1 0 0 1 0-1Z" class="d"/><path d="M21 17Z" class="c"/><path d="M21 17Z" class="d"/><path d="M21 17Z" class="c"/><path d="M21 17Z" class="d"/><path d="M21 17Z" class="c"/><path d="M21 17Z" class="d"/><path d="M21 17Z" class="c"/><path d="M21 17Z" class="d"/><path d="M22 16v-1h-1 1v1Z" class="c"/><path d="M22 16v-1h-1 1c1 0 0 0 0 0s-1 0 0 0v1Zm0-1h-1 1v1-1Z" class="d"/><path d="M22 16a1 1 0 0 1 0-1 1 1 0 0 0 0 1Z" class="c"/><path d="M22 16a1 1 0 0 1 0-1 1 1 0 0 0 0 1Zm0-1a1 1 0 0 0 0 1 1 1 0 0 1 0-1Z" class="d"/><path d="M22 15Z" class="c"/><path d="M22 15Z" class="d"/><path d="M22 15Z" class="c"/><path d="M22 15Z" class="d"/><path d="M22 15Z" class="c"/><path d="M22 15Z" class="d"/><path d="M22 15Z" class="c"/><path d="M22 15Z" class="d"/><path d="M22 15Z" class="c"/><path d="M22 15Zm0 0Z" class="d"/><path d="M22 16a1 1 0 0 1 0-1 1 1 0 0 0 0 1Z" class="c"/><path d="M22 16a1 1 0 0 1 0-1 1 1 0 0 0 0 1Zm0-1a1 1 0 0 0 0 1 1 1 0 0 1 0-1Z" class="d"/><path d="M22 15Z" class="c"/><path d="M22 15Z" class="d"/><path d="M22 15Z" class="c"/><path d="M22 15Z" class="d"/><path d="M22 15Z" class="c"/><path d="M22 15Z" class="d"/><path d="M22 15Z" class="c"/><path d="M22 15Z" class="d"/><path d="M22 16h1-1c-1 0 0 0 0 0Z" class="c"/><path d="M22 16h1-1Zm0 0h1-1Z" class="d"/><path d="M21 16a2 2 0 0 1 2 0 2 2 0 0 0-2 0Z" class="c"/><path d="M21 16a2 2 0 0 1 2 0 2 2 0 0 0-2 0Zm0 0a2 2 0 0 1 1 0 2 2 0 0 0-1 0Z" class="d"/><path d="M22 16Z" class="c"/><path d="M22 16Z" class="d"/><path d="M22 16Z" class="c"/><path d="M22 16Z" class="d"/><path d="M22 16Z" class="c"/><path d="M22 16Z" class="d"/><path d="M22 16Z" class="c"/><path d="M22 16Z" class="d"/><path d="M21 17v-1 1Z" class="c"/><path d="M21 17v-1 1Zm0-1v1-1Z" class="d"/><path d="M21 17a1 1 0 0 1 0-1 1 1 0 0 0 0 1Z" class="c"/><path d="M21 17a1 1 0 0 1 0-1 1 1 0 0 0 0 1Zm0-1a1 1 0 0 0 0 1 1 1 0 0 1 0-1Z" class="d"/><path d="M21 16Z" class="c"/><path d="M21 16Z" class="d"/><path d="M21 16Z" class="c"/><path d="M21 16Z" class="d"/><path d="M21 16Z" class="c"/><path d="M21 16Z" class="d"/><path d="M21 16Z" class="c"/><path d="M21 16Z" class="d"/><path d="M22 18v-1 1c0 1 0 0 0 0Z" class="c"/><path d="M22 18v-1c0-1 0 0 0 0v1Zm0-1v1-1Z" class="d"/><path d="M22 18Z" class="c"/><path d="M22 18Z" class="d"/><path d="M22 18v-1 1Z" class="c"/><path d="M22 18v-1 1Z" class="d"/><path d="M22 18Z" class="c"/><path d="M22 18Z" class="d"/><path d="M22 18a1 1 0 0 1 0-1v1Z" class="c"/><path d="M22 18v-1 1Zm0 0Z" class="d"/><path d="M22 18Z" class="c"/><path d="M22 18Z" class="d"/><path d="m21 18 1-1h-1a1 1 0 0 0 0 1Z" class="c"/><path d="M21 18a1 1 0 0 1 0-1h1s-1 0 0 0v1h-1Zm1-1h-1a1 1 0 0 0 0 1h1v-1Z" class="d"/><path d="M22 17Z" class="c"/><path d="M22 17Z" class="d"/><path d="M22 17Z" class="c"/><path d="M22 17Z" class="d"/><path d="M22 17Z" class="c"/><path d="M22 17Z" class="d"/><path d="M21 18a2 2 0 0 1 1-1l-1 1Z" class="c"/><path d="m21 18 1-1-1 1Zm1-1a1 1 0 0 0-1 1 1 1 0 0 1 1-1Z" class="d"/><path d="M22 17Z" class="c"/><path d="M22 17Z" class="d"/><path d="M22 19v-1h-1v1s0-1 0 0a1 1 0 0 0 1 0Z" class="c"/><path d="M21 19v-1h1v1a1 1 0 0 1-1 0Zm0-1v1a1 1 0 0 0 1 0v-1h-1v1-1Z" class="d"/><path d="M22 19a2 2 0 0 1-1-1 2 2 0 0 0 1 1Z" class="c"/><path d="M22 19a2 2 0 0 1-1-1 2 2 0 0 0 1 1Zm-1-1a2 2 0 0 0 1 1 2 2 0 0 1-1-1Z" class="d"/><path d="M21 18Z" class="c"/><path d="M21 18Z" class="d"/><path d="M21 18Z" class="c"/><path d="M21 18Z" class="d"/><path d="M21 18Z" class="c"/><path d="M21 18Z" class="d"/><path d="M21 18Z" class="c"/><path d="M21 18Z" class="d"/><path d="M21 18Z" class="c"/><path d="M21 18Zm0 0Z" class="d"/><path d="M22 18a2 2 0 0 1-1 0 2 2 0 0 0 1 0Z" class="c"/><path d="M22 18a2 2 0 0 1-1 0 2 2 0 0 0 1 0Zm-1 0a1 1 0 0 0 1 0 1 1 0 0 1-1 0Z" class="d"/><path d="M21 18Z" class="c"/><path d="M21 18Z" class="d"/><path d="M21 18Z" class="c"/><path d="M21 18Z" class="d"/><path d="M21 18Z" class="c"/><path d="M21 18Z" class="d"/><path d="M21 18Z" class="c"/><path d="M21 18Z" class="d"/><path fill="#007ea8" d="m21 19-2 2a3 3 0 0 1 1 2 6 6 0 0 1 0 2h4v-6a3 3 0 0 1-3 0Z"/><path d="M24 25h-4a6 6 0 0 0 0-2 3 3 0 0 0-1-2l2-2a3 3 0 0 0 3 0v6Zm-4 0h4v-6a3 3 0 0 1-3 0l-2 2a3 3 0 0 1 1 2 6 6 0 0 1 0 2Z" class="d"/><path d="M27 19a3 3 0 0 1-3 0v6h4a6 6 0 0 1 0-2 3 3 0 0 1 1-2Z" class="b"/><path d="M28 25h-4v-6a3 3 0 0 0 3 0l2 2a3 3 0 0 0-1 2 6 6 0 0 0 0 2Zm-4 0h4a6 6 0 0 1 0-2 3 3 0 0 1 1-2l-2-2a3 3 0 0 1-3 0Z" class="d"/><path d="M20 25a10 10 0 0 0-1 2 3 3 0 0 0 2 3 8 8 0 0 0 2 0 1 1 0 0 1 1 1 1 1 0 0 1 1-1 8 8 0 0 0 2 0 3 3 0 0 0 2-3 10 10 0 0 0-1-2Z" class="a"/><path d="M24 31a1 1 0 0 0-1-1h-1a4 4 0 0 1-1 0 3 3 0 0 1-2-3 7 7 0 0 1 1-2h9a7 7 0 0 1 0 2 3 3 0 0 1-2 3 4 4 0 0 1-1 0h-1a1 1 0 0 0-1 1Zm-4-6a7 7 0 0 0-1 2 3 3 0 0 0 2 3 4 4 0 0 0 1 0h1a1 1 0 0 1 1 1 1 1 0 0 1 1-1h1a4 4 0 0 0 1 0 3 3 0 0 0 2-3 7 7 0 0 0-1-2Z" class="d"/><path d="M24 23a1 1 0 0 1 1 0v-1 1a1 1 0 0 1-1 0Z" class="c"/><path d="M24 23a1 1 0 0 1 1 0v-1 1a1 1 0 0 1-1 0Zm1-1v1a1 1 0 0 0-1 0 1 1 0 0 0 1 0 1 1 0 0 1 0-1Z" class="d"/><path d="M25 22a1 1 0 0 0 0 1" class="c"/><path d="M25 23v-1 1Z" class="d"/><path d="M25 23" class="c"/><path d="M25 23Z" class="d"/><path d="M25 23" class="c"/><path d="M25 23h-1 1Z" class="d"/><path d="M25 23h-1" class="c"/><path d="M24 23h1-1Z" class="d"/><path d="M25 23h-1" class="c"/><path d="M24 23h1-1Z" class="d"/><path d="M25 22a1 1 0 0 1 0 1" class="c"/><path d="M25 23v-1 1Z" class="d"/><path d="M25 23" class="c"/><path d="M25 23Z" class="d"/><path d="M25 23" class="c"/><path d="M25 23Z" class="d"/><path d="M25 23" class="c"/><path d="M25 23Z" class="d"/><path d="M25 23h-1" class="c"/><path d="M24 23h1-1Z" class="d"/><path d="M25 22v1h-1 1v-1" class="c"/><path d="M24 23h1v-1 1h-1Z" class="d"/><path d="M25 22Z" class="c"/><path d="M25 22Zm0 0Z" class="d"/><path d="M25 22" class="c"/><path d="M25 22Z" class="d"/><path d="M25 22" class="c"/><path d="M25 22Z" class="d"/><path d="M25 22" class="c"/><path d="M25 22Z" class="d"/><path d="M25 22" class="c"/><path d="M25 22Z" class="d"/><path d="M25 22" class="c"/><path d="M25 22Z" class="d"/><path d="M25 22" class="c"/><path d="M25 22Z" class="d"/><path d="M25 22" class="c"/><path d="M25 22Z" class="d"/><path d="M25 22" class="c"/><path d="M25 22Z" class="d"/><path d="M25 22" class="c"/><path d="M25 22Z" class="d"/><path d="M25 22" class="c"/><path d="M25 22Z" class="d"/><path d="M25 22" class="c"/><path d="M25 22Z" class="d"/><path d="M26 22v1a1 1 0 0 1 0-1Z" class="c"/><path d="M26 23a1 1 0 0 1 0-1v1Zm0-1a1 1 0 0 0 0 1v-1Z" class="d"/><path d="M26 23" class="c"/><path d="M26 23Z" class="d"/><path d="M26 23v-1" class="c"/><path d="M26 23v-1 1Z" class="d"/><path d="M26 23v-1" class="c"/><path d="M26 23v-1 1Z" class="d"/><path d="M26 22" class="c"/><path d="M26 22Z" class="d"/><path d="M26 22" class="c"/><path d="M26 22Z" class="d"/><path d="M26 23" class="c"/><path d="M26 23Z" class="d"/><path d="M26 23" class="c"/><path d="M26 23Z" class="d"/><path d="M26 23v-1" class="c"/><path d="M26 23v-1 1Z" class="d"/><path d="M26 22" class="c"/><path d="M26 22Z" class="d"/><path d="M26 22" class="c"/><path d="M26 22Z" class="d"/><path d="M26 23v-1 1" class="c"/><path d="M26 23v-1 1c0 1 0 0 0 0Z" class="d"/><path d="M25 23h1a1 1 0 0 1-1 0Z" class="c"/><path d="M25 23h1a1 1 0 0 1-1 0Zm1 0h-1a1 1 0 0 0 1 0Z" class="d"/><path d="M26 23" class="c"/><path d="M26 23h-1 1Z" class="d"/><path d="M26 23h-1" class="c"/><path d="M25 23h1-1Z" class="d"/><path d="M26 23h-1" class="c"/><path d="M25 23h1-1Z" class="d"/><path d="M26 23h-1" class="c"/><path d="M25 23h1-1Z" class="d"/><path d="M25 23" class="c"/><path d="M25 23Z" class="d"/><path d="M26 23" class="c"/><path d="M26 23Z" class="d"/><path d="M26 23" class="c"/><path d="M26 23Z" class="d"/><path d="M26 23" class="c"/><path d="M26 23Z" class="d"/><path d="M26 23h-1" class="c"/><path d="M25 23h1-1Z" class="d"/><path d="M25 23" class="c"/><path d="M25 23Z" class="d"/><path d="M26 23h-1 1" class="c"/><path d="M25 23h1c1 0 0 0 0 0h-1Z" class="d"/><path d="M24 22a1 1 0 0 1 1 0h-1Z" class="c"/><path d="M25 22h-1a1 1 0 0 1 1 0Zm-1 0h1a1 1 0 0 0-1 0Z" class="d"/><path d="M25 22" class="c"/><path d="M25 22Z" class="d"/><path d="M25 22" class="c"/><path d="M25 22Z" class="d"/><path d="M25 22h-1" class="c"/><path d="M25 22h-1 1Z" class="d"/><path d="M24 22" class="c"/><path d="M24 22Z" class="d"/><path d="M24 22" class="c"/><path d="M24 22Z" class="d"/><path d="M25 22" class="c"/><path d="M25 22Z" class="d"/><path d="M25 22h-1" class="c"/><path d="M25 22h-1 1Z" class="d"/><path d="M25 22h-1" class="c"/><path d="M24 22h1-1Z" class="d"/><path d="M24 22" class="c"/><path d="M24 22Z" class="d"/><path d="M24 22" class="c"/><path d="M24 22Z" class="d"/><path d="M25 22h-1 1" class="c"/><path d="M25 22h-1 1c1 0 0 0 0 0Z" class="d"/><path d="M24 21a1 1 0 0 1 1 0 1 1 0 0 1-1 0Z" class="c"/><path d="M25 21a1 1 0 0 1-1 0 1 1 0 0 1 1 0Zm-1 0a1 1 0 0 0 1 0 1 1 0 0 0-1 0Z" class="d"/><path d="M25 21" class="c"/><path d="M25 21Z" class="d"/><path d="M25 21" class="c"/><path d="M25 21Z" class="d"/><path d="M25 21" class="c"/><path d="M25 21Z" class="d"/><path d="M25 21h-1" class="c"/><path d="M25 21h-1 1Z" class="d"/><path d="M25 21h-1" class="c"/><path d="M25 21h-1 1Z" class="d"/><path d="M25 21" class="c"/><path d="M25 21Z" class="d"/><path d="M25 21" class="c"/><path d="M25 21Z" class="d"/><path d="M25 21" class="c"/><path d="M25 21Z" class="d"/><path d="M25 21" class="c"/><path d="M25 21Z" class="d"/><path d="M25 21h-1" class="c"/><path d="M24 21h1-1Z" class="d"/><path d="M25 21h-1 1" class="c"/><path d="M24 21h1-1Z" class="d"/><path d="M25 20v1a1 1 0 0 1 0-1Z" class="c"/><path d="M25 21a1 1 0 0 1 0-1v1Zm0-1a1 1 0 0 0 0 1v-1Z" class="d"/><path d="M25 21" class="c"/><path d="M25 21Z" class="d"/><path d="M25 21v-1" class="c"/><path d="M25 21v-1 1Z" class="d"/><path d="M25 21v-1" class="c"/><path d="M25 21v-1 1Z" class="d"/><path d="M25 21v-1" class="c"/><path d="M25 21v-1 1Z" class="d"/><path d="M25 20" class="c"/><path d="M25 20Z" class="d"/><path d="M25 21" class="c"/><path d="M25 21Z" class="d"/><path d="M25 21" class="c"/><path d="M25 21Z" class="d"/><path d="M25 21" class="c"/><path d="M25 21Z" class="d"/><path d="M25 21v-1" class="c"/><path d="M25 21v-1 1Z" class="d"/><path d="M25 20" class="c"/><path d="M25 20Z" class="d"/><path d="M25 21v-1 1" class="c"/><path d="M25 21v-1 1Z" class="d"/><path d="M26 21Z" class="c"/><path d="M26 21Zm0 0Z" class="d"/><path d="M26 21" class="c"/><path d="M26 21Z" class="d"/><path d="M26 21" class="c"/><path d="M26 21Z" class="d"/><path d="M26 21" class="c"/><path d="M26 21Z" class="d"/><path d="M26 21" class="c"/><path d="M26 21Z" class="d"/><path d="M26 21" class="c"/><path d="M26 21Z" class="d"/><path d="M26 21" class="c"/><path d="M26 21Z" class="d"/><path d="M26 21" class="c"/><path d="M26 21Z" class="d"/><path d="M26 21" class="c"/><path d="M26 21Z" class="d"/><path d="M26 21" class="c"/><path d="M26 21Z" class="d"/><path d="M26 21" class="c"/><path d="M26 21Z" class="d"/><path d="M26 21v1" class="c"/><path d="M26 22v-1Z" class="d"/><path d="M25 22h1a1 1 0 0 1-1 0Z" class="c"/><path d="M25 22h1-1Zm0 0a1 1 0 0 0 1 0h-1Z" class="d"/><path d="M26 22" class="c"/><path d="M26 22Z" class="d"/><path d="M26 22h-1" class="c"/><path d="M25 22h1-1Z" class="d"/><path d="M26 22h-1" class="c"/><path d="M25 22h1-1Z" class="d"/><path d="M26 22h-1" class="c"/><path d="M25 22h1-1Z" class="d"/><path d="M25 22" class="c"/><path d="M25 22Z" class="d"/><path d="M26 22" class="c"/><path d="M26 22Z" class="d"/><path d="M26 22" class="c"/><path d="M26 22Z" class="d"/><path d="M26 22h-1" class="c"/><path d="M26 22h-1 1Z" class="d"/><path d="M26 22h-1" class="c"/><path d="M25 22h1-1Z" class="d"/><path d="M25 22" class="c"/><path d="M25 22Z" class="d"/><path d="M26 22h-1 1" class="c"/><path d="M25 22h1-1Z" class="d"/><path d="M25 20a1 1 0 0 1 1 0v1a1 1 0 0 1-1-1Z" class="c"/><path d="M26 21a1 1 0 0 1-1-1 1 1 0 0 1 1 0v1Zm-1-1a1 1 0 0 0 1 1v-1a1 1 0 0 0-1 0Z" class="d"/><path d="M26 21v-1" class="c"/><path d="M26 21v-1 1Z" class="d"/><path d="M26 21v-1" class="c"/><path d="M26 21v-1 1Z" class="d"/><path d="M26 21v-1" class="c"/><path d="M26 21v-1 1Z" class="d"/><path d="M26 20" class="c"/><path d="M26 21v-1Z" class="d"/><path d="M26 20h-1" class="c"/><path d="M26 20h-1 1Z" class="d"/><path d="M26 21" class="c"/><path d="M26 21Z" class="d"/><path d="M26 21" class="c"/><path d="M26 21Z" class="d"/><path d="M26 21" class="c"/><path d="M26 21Z" class="d"/><path d="M26 20v1" class="c"/><path d="M26 21v-1 1Z" class="d"/><path d="M26 20h-1" class="c"/><path d="M26 20h-1 1Z" class="d"/><path d="m26 21-1-1 1 1" class="c"/><path d="m26 21-1-1 1 1c0 1 0 0 0 0Z" class="d"/><path d="M26 20Z" class="c"/><path d="M26 20Zm0 0Z" class="d"/><path d="M26 20" class="c"/><path d="M26 20Z" class="d"/><path d="M26 20" class="c"/><path d="M26 20Z" class="d"/><path d="M26 20" class="c"/><path d="M26 20Z" class="d"/><path d="M26 20" class="c"/><path d="M26 20Z" class="d"/><path d="M26 20" class="c"/><path d="M26 20Z" class="d"/><path d="M26 20" class="c"/><path d="M26 20Z" class="d"/><path d="M26 20" class="c"/><path d="M26 20Z" class="d"/><path d="M26 20" class="c"/><path d="M26 20Z" class="d"/><path d="M26 20" class="c"/><path d="M26 20Z" class="d"/><path d="M26 20" class="c"/><path d="M26 20Z" class="d"/><path d="M26 20" class="c"/><path d="M26 20Z" class="d"/><path d="M25 22a1 1 0 0 1 1 0v1l-1-1Z" class="c"/><path d="M26 23h-1v-1a1 1 0 0 1 1 0v1Zm-1-1v1a1 1 0 0 1 1 0v-1a1 1 0 0 0-1 0Z" class="d"/><path d="M26 23a1 1 0 0 0 0-1" class="c"/><path d="M26 23v-1 1Z" class="d"/><path d="m25 23 1-1" class="c"/><path d="m25 23 1-1-1 1Z" class="d"/><path d="M25 22h1" class="c"/><path d="M25 22h1-1Z" class="d"/><path d="M25 22" class="c"/><path d="M25 22Z" class="d"/><path d="M25 22" class="c"/><path d="M25 22Z" class="d"/><path d="m26 23-1-1" class="c"/><path d="M26 23h-1v-1 1h1Z" class="d"/><path d="M25 23v-1" class="c"/><path d="M25 23v-1 1Z" class="d"/><path d="M25 22" class="c"/><path d="M25 22Z" class="d"/><path d="M25 22" class="c"/><path d="M25 22Z" class="d"/><path d="M25 22" class="c"/><path d="M25 22Z" class="d"/><path d="m26 23-1-1c0-1 0 0 0 0l1 1" class="c"/><path d="m26 23-1-1c0-1 0 0 0 0l1 1Z" class="d"/><path d="M25 23Z" class="c"/><path d="M25 23Zm0 0Z" class="d"/><path d="M25 23" class="c"/><path d="M25 23Z" class="d"/><path d="M25 23" class="c"/><path d="M25 23Z" class="d"/><path d="M25 23" class="c"/><path d="M25 23Z" class="d"/><path d="M25 23" class="c"/><path d="M25 23Z" class="d"/><path d="M25 23" class="c"/><path d="M25 23Z" class="d"/><path d="M25 23" class="c"/><path d="M25 23Z" class="d"/><path d="M25 23" class="c"/><path d="M25 23Z" class="d"/><path d="M25 23" class="c"/><path d="M25 23Z" class="d"/><path d="M25 23" class="c"/><path d="M25 23Z" class="d"/><path d="M25 23" class="c"/><path d="M25 23Z" class="d"/><path d="M25 23" class="c"/><path d="M25 23h1-1Z" class="d"/><path d="M25 22Z" class="c"/><path d="M25 22Zm0 0Z" class="d"/><path d="M25 22" class="c"/><path d="M25 22Z" class="d"/><path d="M25 22" class="c"/><path d="M25 22Z" class="d"/><path d="M25 22" class="c"/><path d="M25 22Z" class="d"/><path d="M25 22" class="c"/><path d="M25 22Z" class="d"/><path d="M25 22" class="c"/><path d="M25 22Z" class="d"/><path d="M25 22" class="c"/><path d="M25 22Z" class="d"/><path d="M25 22" class="c"/><path d="M25 22Z" class="d"/><path d="M25 22" class="c"/><path d="M25 22Z" class="d"/><path d="M25 22" class="c"/><path d="M25 22Z" class="d"/><path d="M25 22" class="c"/><path d="M25 22Z" class="d"/><path d="M25 23v-1 1" class="c"/><path d="M25 23v-1 1Z" class="d"/><path d="M25 23Z" class="c"/><path d="M25 23Zm0 0Z" class="d"/><path d="M25 23" class="c"/><path d="M25 23Z" class="d"/><path d="M25 23" class="c"/><path d="M25 23Z" class="d"/><path d="M25 23" class="c"/><path d="M25 23Z" class="d"/><path d="M25 23" class="c"/><path d="M25 23Z" class="d"/><path d="M25 23" class="c"/><path d="M25 23Z" class="d"/><path d="M25 23" class="c"/><path d="M25 23Z" class="d"/><path d="M25 23" class="c"/><path d="M25 23Z" class="d"/><path d="M25 23" class="c"/><path d="M25 23Z" class="d"/><path d="M25 23" class="c"/><path d="M25 23Z" class="d"/><path d="M25 23" class="c"/><path d="M25 23Z" class="d"/><path d="M25 23" class="c"/><path d="M25 23Z" class="d"/><path d="M25 20a1 1 0 0 1 0 1 1 1 0 0 1 0-1Z" class="c"/><path d="M25 21a1 1 0 0 1 0-1 1 1 0 0 1 0 1Zm0-1a1 1 0 0 0 0 1 1 1 0 0 0 0-1Z" class="d"/><path d="M25 21" class="c"/><path d="M25 21Z" class="d"/><path d="M25 21" class="c"/><path d="M25 21Z" class="d"/><path d="M25 21" class="c"/><path d="M25 21Z" class="d"/><path d="M25 21" class="c"/><path d="M25 21Z" class="d"/><path d="M25 21v-1" class="c"/><path d="M25 21v-1 1Z" class="d"/><path d="M25 21" class="c"/><path d="M25 21Z" class="d"/><path d="M25 21" class="c"/><path d="M25 21Z" class="d"/><path d="M25 21" class="c"/><path d="M25 21Z" class="d"/><path d="M25 21" class="c"/><path d="M25 21Z" class="d"/><path d="M25 21v-1" class="c"/><path d="M25 21v-1 1Z" class="d"/><path d="M25 21v-1 1" class="c"/><path d="M25 21v-1 1Z" class="d"/><path d="M25 21Z" class="c"/><path d="M25 22v-1 1Zm0-1Z" class="d"/><path d="M25 21" class="c"/><path d="M25 21Z" class="d"/><path d="M25 21" class="c"/><path d="M25 21Z" class="d"/><path d="M25 21" class="c"/><path d="M25 21Z" class="d"/><path d="M25 21" class="c"/><path d="M25 21Z" class="d"/><path d="M25 21" class="c"/><path d="M25 21Z" class="d"/><path d="M25 21" class="c"/><path d="M25 21Z" class="d"/><path d="M25 21" class="c"/><path d="M25 21Z" class="d"/><path d="M25 21" class="c"/><path d="M25 21Z" class="d"/><path d="M25 21" class="c"/><path d="M25 22v-1 1Z" class="d"/><path d="M25 21" class="c"/><path d="M25 22v-1 1Z" class="d"/><path d="M25 21" class="c"/><path d="M25 21Z" class="d"/><path d="M25 21a1 1 0 0 1 1 0h-1Z" class="c"/><path d="M26 21h-1a1 1 0 0 1 1 0Zm-1 0h1a1 1 0 0 0-1 0Z" class="d"/><path d="M26 21" class="c"/><path d="M26 21Z" class="d"/><path d="M26 21" class="c"/><path d="M26 21Z" class="d"/><path d="M26 21" class="c"/><path d="M26 21Z" class="d"/><path d="M26 21" class="c"/><path d="M26 21h-1 1Z" class="d"/><path d="M25 21s1 0 0 0" class="c"/><path d="M25 21h1-1Z" class="d"/><path d="M26 21h-1" class="c"/><path d="M26 21h-1 1Z" class="d"/><path d="M26 21h-1" class="c"/><path d="M26 21h-1 1Z" class="d"/><path d="M26 21h-1" class="c"/><path d="M26 21h-1 1Z" class="d"/><path d="M26 21h-1" class="c"/><path d="M26 21h-1 1Z" class="d"/><path d="M25 21" class="c"/><path d="M25 21Z" class="d"/><path d="M26 21h-1 1" class="c"/><path d="M26 21h-1 1Z" class="d"/><path d="M25 22a1 1 0 0 1 0-1h1l-1 1Z" class="c"/><path d="M25 22a1 1 0 0 1 0-1h1-1v1Zm0 0v-1a1 1 0 0 0 0 1Z" class="d"/><path d="M25 21" class="c"/><path d="M25 21Z" class="d"/><path d="M25 21" class="c"/><path d="M25 21Z" class="d"/><path d="M25 21v1" class="c"/><path d="M25 22v-1 1Z" class="d"/><path d="M25 22" class="c"/><path d="M25 22Z" class="d"/><path d="M25 22" class="c"/><path d="M25 22Z" class="d"/><path d="M25 21v1" class="c"/><path d="M25 22v-1h1-1v1Z" class="d"/><path d="M25 21v1" class="c"/><path d="M25 22v-1 1Z" class="d"/><path d="M25 21v1" class="c"/><path d="M25 22v-1 1Z" class="d"/><path d="M25 22" class="c"/><path d="M25 22Z" class="d"/><path d="M25 22" class="c"/><path d="M25 22Z" class="d"/><path d="M26 21h-1v1-1h1" class="c"/><path d="M25 22v-1h1l-1 1c0 1 0 0 0 0Z" class="d"/><path d="m28 23-1-1v1a1 1 0 0 0 1 0Z" class="c"/><path d="M28 23a1 1 0 0 1-1 0v-1l1 1Zm-1-1a1 1 0 0 1 0 1 1 1 0 0 0 1 0l-1-1Z" class="d"/><path d="M27 22a1 1 0 0 1 1 1" class="c"/><path d="m28 23-1-1h1Z" class="d"/><path d="M27 23h1" class="c"/><path d="M28 23h-1 1Z" class="d"/><path d="M27 23h1" class="c"/><path d="M28 23h-1 1Z" class="d"/><path d="M28 23" class="c"/><path d="M28 23Z" class="d"/><path d="M28 23" class="c"/><path d="M28 23Z" class="d"/><path d="M27 22a1 1 0 0 0 0 1" class="c"/><path d="M27 23v-1 1Z" class="d"/><path d="M27 23" class="c"/><path d="M27 23Z" class="d"/><path d="M27 23h1" class="c"/><path d="M28 23h-1 1Z" class="d"/><path d="M28 23" class="c"/><path d="M28 23Z" class="d"/><path d="M28 23" class="c"/><path d="M28 23Z" class="d"/><path d="M27 22v1h1-1v-1" class="c"/><path d="M28 23h-1v-1 1h1Z" class="d"/><path d="M27 22Z" class="c"/><path d="M27 22Zm0 0Z" class="d"/><path d="M27 22" class="c"/><path d="M27 22Z" class="d"/><path d="M27 22" class="c"/><path d="M27 22Z" class="d"/><path d="M27 22" class="c"/><path d="M27 22Z" class="d"/><path d="M27 22" class="c"/><path d="M27 22Z" class="d"/><path d="M27 22" class="c"/><path d="M27 22Z" class="d"/><path d="M27 22" class="c"/><path d="M27 22Z" class="d"/><path d="M27 22" class="c"/><path d="M27 22Z" class="d"/><path d="M27 22" class="c"/><path d="M27 22Z" class="d"/><path d="M27 22" class="c"/><path d="M27 22Z" class="d"/><path d="M27 22" class="c"/><path d="M27 22Z" class="d"/><path d="M27 22" class="c"/><path d="M27 22Z" class="d"/><path d="M27 22a1 1 0 0 0-1 0v1h1a1 1 0 0 0 0-1Z" class="c"/><path d="M26 23v-1h1a1 1 0 0 1 0 1h-1Zm0-1v1h1a1 1 0 0 0-1-1Z" class="d"/><path d="M26 23" class="c"/><path d="M26 23Z" class="d"/><path d="M26 23v-1" class="c"/><path d="M26 23v-1 1Z" class="d"/><path d="M26 23v-1" class="c"/><path d="M26 23v-1 1Z" class="d"/><path d="M26 22" class="c"/><path d="M26 22Z" class="d"/><path d="M26 22" class="c"/><path d="M26 22Z" class="d"/><path d="M26 23h1" class="c"/><path d="M26 23h1-1Z" class="d"/><path d="M26 23h1" class="c"/><path d="M26 23h1-1Z" class="d"/><path d="m26 23 1-1" class="c"/><path d="m26 23 1-1-1 1Z" class="d"/><path d="M26 22h1" class="c"/><path d="M26 22h1-1Z" class="d"/><path d="M26 22h1" class="c"/><path d="M26 22h1-1Z" class="d"/><path d="m26 23 1-1-1 1c0 1 0 0 0 0" class="c"/><path d="M26 23v-1h1l-1 1c0 1 0 0 0 0Z" class="d"/><path d="M27 23h-1 1Z" class="c"/><path d="M27 23h-1 1Zm-1 0h1a1 1 0 0 1-1 0Z" class="d"/><path d="M26 23h1" class="c"/><path d="M27 23h-1 1Z" class="d"/><path d="M27 23" class="c"/><path d="M27 23h-1 1Z" class="d"/><path d="M27 23" class="c"/><path d="M27 23Z" class="d"/><path d="M27 23" class="c"/><path d="M27 23Z" class="d"/><path d="M27 23" class="c"/><path d="M27 23Z" class="d"/><path d="M26 23a1 1 0 0 0 1 0" class="c"/><path d="M26 23h1Z" class="d"/><path d="M27 23" class="c"/><path d="M27 23h-1 1Z" class="d"/><path d="M27 23" class="c"/><path d="M27 23Z" class="d"/><path d="M27 23" class="c"/><path d="M27 23Z" class="d"/><path d="M27 23" class="c"/><path d="M27 23Z" class="d"/><path d="M26 23h1c1 0 0 0 0 0h-1" class="c"/><path d="M27 23h-1 1c1 0 0 0 0 0Z" class="d"/><path d="M28 22h-1 1Z" class="c"/><path d="M28 22a1 1 0 0 1-1 0h1Zm-1 0h1-1Z" class="d"/><path d="M27 22h1" class="c"/><path d="M27 22h1-1Z" class="d"/><path d="M27 22h1" class="c"/><path d="M27 22h1-1Z" class="d"/><path d="M28 22" class="c"/><path d="M28 22Z" class="d"/><path d="M28 22" class="c"/><path d="M28 22Z" class="d"/><path d="M28 22" class="c"/><path d="M28 22Z" class="d"/><path d="M27 22a1 1 0 0 0 1 0" class="c"/><path d="M28 22h-1 1Z" class="d"/><path d="M27 22h1" class="c"/><path d="M28 22h-1 1Z" class="d"/><path d="M28 22" class="c"/><path d="M28 22Z" class="d"/><path d="M28 22" class="c"/><path d="M28 22Z" class="d"/><path d="M28 22" class="c"/><path d="M28 22Z" class="d"/><path d="M27 22h1c1 0 0 0 0 0h-1" class="c"/><path d="M27 22h1c1 0 0 0 0 0h-1Z" class="d"/><path d="M28 21a1 1 0 0 0-1 0 1 1 0 0 0 1 0Z" class="c"/><path d="M28 21h-1a1 1 0 0 1 1 0Zm-1 0a1 1 0 0 0 1 0 1 1 0 0 0-1 0Z" class="d"/><path d="M27 21" class="c"/><path d="M27 21Z" class="d"/><path d="M27 21h1" class="c"/><path d="M27 21h1-1Z" class="d"/><path d="M27 21h1" class="c"/><path d="M27 21h1-1Z" class="d"/><path d="M28 21" class="c"/><path d="M28 21Z" class="d"/><path d="M28 21" class="c"/><path d="M28 21Z" class="d"/><path d="M27 21" class="c"/><path d="M27 21Z" class="d"/><path d="M27 21" class="c"/><path d="M27 21Z" class="d"/><path d="M27 21h1" class="c"/><path d="M28 21h-1 1Z" class="d"/><path d="M28 21" class="c"/><path d="M28 21Z" class="d"/><path d="M28 21" class="c"/><path d="M28 21Z" class="d"/><path d="M27 21h1-1c-1 0 0 0 0 0" class="c"/><path d="M28 21h-1c-1 0 0 0 0 0h1Z" class="d"/><path d="M27 20v1a1 1 0 0 0 0-1Z" class="c"/><path d="M27 21v-1h1a1 1 0 0 1-1 1Zm0-1v1a1 1 0 0 0 0-1Z" class="d"/><path d="M27 21" class="c"/><path d="M27 21Z" class="d"/><path d="M27 21v-1" class="c"/><path d="M27 21v-1 1Z" class="d"/><path d="M27 21v-1" class="c"/><path d="M27 21v-1 1Z" class="d"/><path d="M27 21v-1" class="c"/><path d="M27 21v-1 1Z" class="d"/><path d="M27 20" class="c"/><path d="M27 20Z" class="d"/><path d="M27 21" class="c"/><path d="M27 21Z" class="d"/><path d="M27 21" class="c"/><path d="M27 21Z" class="d"/><path d="M27 21" class="c"/><path d="M27 21Z" class="d"/><path d="M27 21v-1" class="c"/><path d="M27 21v-1 1Z" class="d"/><path d="M27 20" class="c"/><path d="M27 20h1-1Z" class="d"/><path d="M27 21v-1 1" class="c"/><path d="M27 21v-1h1l-1 1Z" class="d"/><path d="M26 21Z" class="c"/><path d="M26 21Zm0 0Z" class="d"/><path d="M26 21" class="c"/><path d="M26 21Z" class="d"/><path d="M26 21" class="c"/><path d="M26 21Z" class="d"/><path d="M26 21" class="c"/><path d="M26 21Z" class="d"/><path d="M26 21" class="c"/><path d="M26 21Z" class="d"/><path d="M26 21" class="c"/><path d="M26 21Z" class="d"/><path d="M26 21" class="c"/><path d="M26 21Z" class="d"/><path d="M26 21" class="c"/><path d="M26 21Z" class="d"/><path d="M26 21" class="c"/><path d="M26 21Z" class="d"/><path d="M26 21" class="c"/><path d="M26 21Z" class="d"/><path d="M26 21" class="c"/><path d="M26 21Z" class="d"/><path d="M26 21v1" class="c"/><path d="M26 22v-1 1Z" class="d"/><path d="M27 22h-1 1Z" class="c"/><path d="M27 22h-1 1Zm-1 0h1-1Z" class="d"/><path d="M26 22a1 1 0 0 1 1 0" class="c"/><path d="M27 22h-1 1Z" class="d"/><path d="M26 22h1" class="c"/><path d="M27 22h-1 1Z" class="d"/><path d="M27 22" class="c"/><path d="M27 22Z" class="d"/><path d="M27 22" class="c"/><path d="M27 22Z" class="d"/><path d="M27 22" class="c"/><path d="M27 22Z" class="d"/><path d="M26 22h1" class="c"/><path d="M26 22h1Z" class="d"/><path d="M26 22h1" class="c"/><path d="M27 22h-1 1Z" class="d"/><path d="M27 22" class="c"/><path d="M27 22Z" class="d"/><path d="M27 22" class="c"/><path d="M27 22Z" class="d"/><path d="M27 22" class="c"/><path d="M27 22Z" class="d"/><path d="M26 22h1c1 0 0 0 0 0h-1" class="c"/><path d="M27 22h-1 1c1 0 0 0 0 0Z" class="d"/><path d="M27 20a1 1 0 0 0-1 0v1a1 1 0 0 0 1-1Z" class="c"/><path d="M26 21v-1a1 1 0 0 1 1 0 1 1 0 0 1-1 1Zm0 0a1 1 0 0 0 1-1 1 1 0 0 0-1 0v1Z" class="d"/><path d="M26 21v-1" class="c"/><path d="M26 21v-1 1Z" class="d"/><path d="M26 21v-1" class="c"/><path d="M26 21v-1 1Z" class="d"/><path d="m26 21 1-1" class="c"/><path d="M26 21v-1h1-1v1Z" class="d"/><path d="M26 20h1" class="c"/><path d="M26 21v-1h1l-1 1Z" class="d"/><path d="M27 20" class="c"/><path d="M27 20Z" class="d"/><path d="M26 21" class="c"/><path d="M26 21Z" class="d"/><path d="M26 21" class="c"/><path d="M26 21Z" class="d"/><path d="M26 21h1" class="c"/><path d="M27 21h-1 1Z" class="d"/><path d="m26 20 1 1" class="c"/><path d="M27 21h-1v-1l1 1Z" class="d"/><path d="M27 20" class="c"/><path d="M27 20Z" class="d"/><path d="m26 21 1-1-1 1c0 1 0 0 0 0" class="c"/><path d="m26 21 1-1-1 1Z" class="d"/><path d="M26 20Z" class="c"/><path d="M26 20Zm0 0Z" class="d"/><path d="M26 20" class="c"/><path d="M26 20Z" class="d"/><path d="M26 20" class="c"/><path d="M26 20Z" class="d"/><path d="M26 20" class="c"/><path d="M26 20Z" class="d"/><path d="M26 20" class="c"/><path d="M26 20Z" class="d"/><path d="M26 20" class="c"/><path d="M26 20Z" class="d"/><path d="M26 20" class="c"/><path d="M26 20Z" class="d"/><path d="M26 20" class="c"/><path d="M26 20Z" class="d"/><path d="M26 20" class="c"/><path d="M26 20Z" class="d"/><path d="M26 20" class="c"/><path d="M26 20Z" class="d"/><path d="M26 20" class="c"/><path d="M26 20Z" class="d"/><path d="M26 20" class="c"/><path d="M26 20Z" class="d"/><path d="M27 22v1-1Z" class="c"/><path d="M27 23v-1 1Zm0-1v1-1Z" class="d"/><path d="M27 23a1 1 0 0 1 0-1" class="c"/><path d="M27 23v-1 1Z" class="d"/><path d="M27 23v-1" class="c"/><path d="M27 23v-1 1Z" class="d"/><path d="M27 22" class="c"/><path d="M27 22Z" class="d"/><path d="M27 22" class="c"/><path d="M27 22Z" class="d"/><path d="M27 22" class="c"/><path d="M27 22Z" class="d"/><path d="M27 23v-1" class="c"/><path d="M27 23v-1 1Z" class="d"/><path d="M27 23v-1" class="c"/><path d="M27 23v-1 1Z" class="d"/><path d="M27 22" class="c"/><path d="M27 22Z" class="d"/><path d="M27 22" class="c"/><path d="M27 22Z" class="d"/><path d="M27 22" class="c"/><path d="M27 22Z" class="d"/><path d="M27 23v-1c0-1 0 0 0 0v1" class="c"/><path d="M27 23v-1c0-1 0 0 0 0v1Z" class="d"/><path d="M27 23Z" class="c"/><path d="M27 23Zm0 0Z" class="d"/><path d="M27 23" class="c"/><path d="M27 23Z" class="d"/><path d="M27 23" class="c"/><path d="M27 23Z" class="d"/><path d="M27 23" class="c"/><path d="M27 23Z" class="d"/><path d="M27 23" class="c"/><path d="M27 23Z" class="d"/><path d="M27 23" class="c"/><path d="M27 23Z" class="d"/><path d="M27 23" class="c"/><path d="M27 23Z" class="d"/><path d="M27 23" class="c"/><path d="M27 23Z" class="d"/><path d="M27 23" class="c"/><path d="M27 23Z" class="d"/><path d="M27 23" class="c"/><path d="M27 23Z" class="d"/><path d="M27 23" class="c"/><path d="M27 23Z" class="d"/><path d="M27 23" class="c"/><path d="M27 23Z" class="d"/><path d="M27 22Z" class="c"/><path d="M27 22Zm0 0Z" class="d"/><path d="M27 22" class="c"/><path d="M27 22Z" class="d"/><path d="M27 22" class="c"/><path d="M27 22Z" class="d"/><path d="M27 22" class="c"/><path d="M27 22Z" class="d"/><path d="M27 22" class="c"/><path d="M27 22Z" class="d"/><path d="M27 22" class="c"/><path d="M27 22Z" class="d"/><path d="M27 22" class="c"/><path d="M27 22Z" class="d"/><path d="M27 22" class="c"/><path d="M27 22Z" class="d"/><path d="M27 22" class="c"/><path d="M27 22Z" class="d"/><path d="M27 22" class="c"/><path d="M27 22Z" class="d"/><path d="M27 22" class="c"/><path d="M27 22Z" class="d"/><path d="M27 23v-1 1" class="c"/><path d="M27 23v-1 1Z" class="d"/><path d="M27 23Z" class="c"/><path d="M27 23Zm0 0Z" class="d"/><path d="M27 23" class="c"/><path d="M27 23Z" class="d"/><path d="M27 23" class="c"/><path d="M27 23Z" class="d"/><path d="M27 23" class="c"/><path d="M27 23Z" class="d"/><path d="M27 23" class="c"/><path d="M27 23Z" class="d"/><path d="M27 23" class="c"/><path d="M27 23Z" class="d"/><path d="M27 23" class="c"/><path d="M27 23Z" class="d"/><path d="M27 23" class="c"/><path d="M27 23Z" class="d"/><path d="M27 23" class="c"/><path d="M27 23Z" class="d"/><path d="M27 23" class="c"/><path d="M27 23Z" class="d"/><path d="M27 23" class="c"/><path d="M27 23Z" class="d"/><path d="M27 23" class="c"/><path d="M27 23Z" class="d"/><path d="M27 20a1 1 0 0 0 0 1 1 1 0 0 0 0-1Z" class="c"/><path d="M27 21a1 1 0 0 1 0-1 1 1 0 0 1 0 1Zm0-1a1 1 0 0 0 0 1 1 1 0 0 0 0-1Z" class="d"/><path d="M27 21" class="c"/><path d="M27 21Z" class="d"/><path d="M27 21" class="c"/><path d="M27 21Z" class="d"/><path d="M27 21" class="c"/><path d="M27 21Z" class="d"/><path d="M27 21" class="c"/><path d="M27 21Z" class="d"/><path d="M27 21v-1" class="c"/><path d="M27 21v-1 1Z" class="d"/><path d="M27 21" class="c"/><path d="M27 21Z" class="d"/><path d="M27 21" class="c"/><path d="M27 21Z" class="d"/><path d="M27 21" class="c"/><path d="M27 21Z" class="d"/><path d="M27 21" class="c"/><path d="M27 21Z" class="d"/><path d="M27 21v-1" class="c"/><path d="M27 21v-1 1Z" class="d"/><path d="M27 21v-1 1" class="c"/><path d="M27 21v-1 1Z" class="d"/><path d="M27 21Z" class="c"/><path d="M27 22v-1 1Zm0-1Z" class="d"/><path d="M27 21" class="c"/><path d="M27 21Z" class="d"/><path d="M27 21" class="c"/><path d="M27 21Z" class="d"/><path d="M27 21" class="c"/><path d="M27 21Z" class="d"/><path d="M27 21" class="c"/><path d="M27 21Z" class="d"/><path d="M27 21" class="c"/><path d="M27 21Z" class="d"/><path d="M27 21" class="c"/><path d="M27 21Z" class="d"/><path d="M27 21" class="c"/><path d="M27 21Z" class="d"/><path d="M27 21" class="c"/><path d="M27 21Z" class="d"/><path d="M27 21" class="c"/><path d="M27 22v-1Z" class="d"/><path d="M27 21" class="c"/><path d="M27 22v-1Z" class="d"/><path d="M27 21" class="c"/><path d="M27 21Z" class="d"/><path d="M27 21c-1 0 0 0 0 0Z" class="c"/><path d="M27 21Zm0 0Z" class="d"/><path d="M27 21" class="c"/><path d="M27 21Z" class="d"/><path d="M27 21" class="c"/><path d="M27 21Z" class="d"/><path d="M27 21" class="c"/><path d="M27 21Z" class="d"/><path d="M27 21" class="c"/><path d="M27 21Z" class="d"/><path d="M27 21" class="c"/><path d="M27 21Z" class="d"/><path d="M27 21" class="c"/><path d="M27 21Z" class="d"/><path d="M27 21" class="c"/><path d="M27 21Z" class="d"/><path d="M27 21" class="c"/><path d="M27 21Z" class="d"/><path d="M27 21" class="c"/><path d="M27 21Z" class="d"/><path d="M27 21" class="c"/><path d="M27 21Z" class="d"/><path d="M27 21" class="c"/><path d="M27 21Z" class="d"/><path d="M27 22a1 1 0 0 0 0-1v1Z" class="c"/><path d="M27 22v-1a1 1 0 0 1 0 1Zm0-1v1a1 1 0 0 0 0-1Z" class="d"/><path d="M27 21" class="c"/><path d="M27 21Z" class="d"/><path d="M27 21" class="c"/><path d="M27 21Z" class="d"/><path d="M27 21v1" class="c"/><path d="M27 22v-1Z" class="d"/><path d="M27 22" class="c"/><path d="M27 22Z" class="d"/><path d="M27 22" class="c"/><path d="M27 22Z" class="d"/><path d="M27 21v1" class="c"/><path d="M27 22v-1 1Z" class="d"/><path d="M27 21v1" class="c"/><path d="M27 22v-1 1Z" class="d"/><path d="M27 21v1" class="c"/><path d="M27 22v-1 1Z" class="d"/><path d="M27 22" class="c"/><path d="M27 22Z" class="d"/><path d="M27 22" class="c"/><path d="M27 22Z" class="d"/><path d="M27 21v1-1c0-1 0 0 0 0" class="c"/><path d="M27 22v-1 1Z" class="d"/><path fill="#947245" d="M26 20a5 5 0 0 0 0 1 5 5 0 0 1-1 0 3 3 0 0 0 1 1v1l-1-1a3 3 0 0 0 1 1v2-2a3 3 0 0 0 1-1l-1 1v-1a3 3 0 0 0 1-1 5 5 0 0 1-1 0 5 5 0 0 0 0-1Z"/><path d="M26 25v-2a3 3 0 0 1-1-1l1 1v-1a2 2 0 0 1-1-1 5 5 0 0 0 1 0 5 5 0 0 1 0-1 5 5 0 0 1 0 1 5 5 0 0 0 1 0 2 2 0 0 1-1 1v1l1-1a3 3 0 0 1 0 1h-1v2Zm0 0v-2h1a3 3 0 0 0 0-1l-1 1v-1a2 2 0 0 0 1-1 5 5 0 0 1-1 0 5 5 0 0 1-1 0 2 2 0 0 0 1 1v1l-1-1a3 3 0 0 0 1 1v2Z" class="d"/><path d="M21 22a2 2 0 0 1 0 1v1-2h-1" class="g"/><path d="M21 24v-2h-1 1v2-1a1 1 0 0 0 0-1 1 1 0 0 1 0 1v1Z" class="d"/><path d="M22 23v1h1-1v-1" class="g"/><path d="M22 24v-1 1h1-1v-1 1h1-1Z" class="d"/><path d="M23 20v1a1 1 0 0 1 0 1h-1v-1h-1l-1 1a1 1 0 0 1 0 1v1h1v1-1h-1l1-1v-1a1 1 0 0 0 1 1v2-2a2 2 0 0 0 1 0 1 1 0 0 0 0-1 2 2 0 0 0 0-1h1v-1h-1Z" class="b"/><path d="M21 25v-1h-1v-1a1 1 0 0 0 0-1l1-1a3 3 0 0 1 1 0 2 2 0 0 0 0 1 1 1 0 0 0 1 0 1 1 0 0 0 0-1v-1h1v1h-1a2 2 0 0 1 0 1 1 1 0 0 1 0 1 1 1 0 0 1-1 0v2-2a1 1 0 0 1-1-1 1 1 0 0 1 0 1v2Zm0 0Zm0 0v-1h-1 1v-2l1 1v1-1a1 1 0 0 0 1 0 1 1 0 0 0 0-1 2 2 0 0 0 0-1h1v-1h-1v1a1 1 0 0 1 0 1 2 2 0 0 1-1 0 2 2 0 0 1 0-1 3 3 0 0 0-1 0l-1 1a1 1 0 0 1 1 1h-1v1h1v1Zm3-4Zm-1-1Z" class="d"/><path fill="#d18219" d="M23 20v1a1 1 0 0 1 0 1h-1v-1h-1l-1 1a4 4 0 0 1 1 1 1 1 0 0 1-1 0s0 1 0 0a3 3 0 0 0 1 0v-1h1a2 2 0 0 0 0 1v1-1a1 1 0 0 0 0-1h1a1 1 0 0 0 0-1 1 1 0 0 1 0-1 1 1 0 0 1 1 1v-1h-1Z"/><path d="M21 25v-1h-1v-1a1 1 0 0 0 0-1l1-1a3 3 0 0 1 1 0 2 2 0 0 0 0 1 1 1 0 0 0 1 0 1 1 0 0 0 0-1v-1h1v1h-1a2 2 0 0 1 0 1 1 1 0 0 1 0 1 1 1 0 0 1-1 0v2-2a1 1 0 0 1-1-1 1 1 0 0 1 0 1v2Zm0 0Zm0 0v-1h-1 1v-2l1 1v1-1a1 1 0 0 0 1 0 1 1 0 0 0 0-1 2 2 0 0 0 0-1h1v-1h-1v1a1 1 0 0 1 0 1 2 2 0 0 1-1 0 2 2 0 0 1 0-1 3 3 0 0 0-1 0l-1 1a1 1 0 0 1 1 1h-1v1h1v1Zm3-4Zm-1-1Z" class="d"/><path fill="#d39044" d="M24 21Z"/><path d="M24 21Z" class="d"/><path d="M23 23s-1 0 0 0h-1 1" class="j"/><path d="M23 23h-1 1-1 1Z" class="d"/><path d="M23 22v1a1 1 0 0 1 0-1" class="j"/><path d="M23 23a1 1 0 0 1 0-1 1 1 0 0 0 0 1 1 1 0 0 0 0-1 1 1 0 0 1 0 1Z" class="d"/><path d="M23 22a2 2 0 0 0 0 1 1 1 0 0 1 0-1" class="j"/><path d="M23 23a1 1 0 0 1 0-1 1 1 0 0 0 0 1 2 2 0 0 1 0-1 2 2 0 0 0 0 1Z" class="d"/><path d="M23 22a1 1 0 0 0 0 1v-1" class="j"/><path d="M23 23v-1 1a1 1 0 0 1 0-1 1 1 0 0 0 0 1Z" class="d"/><path fill="#d18219" fill-rule="evenodd" d="M23 20"/><path d="M23 20Z" class="d"/><path fill-opacity=".5" fill-rule="evenodd" d="M23 20"/><path d="M23 20Zm0 0Z" class="d"/><path d="M23 20" class="m"/><path d="M23 20ZM24 21Z" class="d"/><path d="M24 21" class="m"/><path d="M24 21Zm0 0Z" class="d"/><path d="M22 23" class="j"/><path d="M22 23ZM20 22Z" class="d"/><path d="M27 26v1-1Z" class="n"/><path d="M27 27v-1 1Zm0-1v1-1Z" class="d"/><path d="M27 26Z" class="n"/><path d="M27 26Zm0 0Z" class="d"/><path d="M27 26Z" class="n"/><path d="M27 26Zm0 0Z" class="d"/><path d="M27 26Z" class="n"/><path d="M27 26Zm0 0Z" class="d"/><path d="M28 27h-1 1Z" class="n"/><path d="M28 27a1 1 0 0 0-1 0h1Zm0 0h-1 1Z" class="d"/><path d="M28 27v-1l-1 1h1Z" class="n"/><path d="m27 27 1-1v1h-1Zm1-1-1 1h1v-1Z" class="d"/><path d="M28 27h-1a1 1 0 0 1 1 0Z" class="n"/><path d="M28 27a1 1 0 0 0-1 0h1Zm-1 0a1 1 0 0 1 1 0h-1Z" class="d"/><path d="m28 26-1 1 1-1Z" class="n"/><path d="m27 27 1-1v1-1l-1 1Zm1-1h-1v1l1-1Z" class="d"/><path d="M28 26h-1v1a1 1 0 0 1 1-1Z" class="n"/><path d="M27 27v-1h1a1 1 0 0 0-1 1Zm1-1h-1a1 1 0 0 1 1 0Z" class="d"/><path d="M28 26h-1 1Z" class="n"/><path d="M27 26h1-1Zm0 0h1-1Z" class="d"/><path d="M27 26Z" class="n"/><path d="M27 26Zm0 0Z" class="d"/><path d="M28 27h-1a1 1 0 0 1 1 0Z" class="n"/><path d="M28 27h-1 1Zm-1 0a1 1 0 0 1 1 0h-1Z" class="d"/><path d="M28 28v-1h-1l1 1Z" class="n"/><path d="M28 28v-1a1 1 0 0 0-1 0 1 1 0 0 1 1 0 1 1 0 0 1 0 1Zm-1-1a1 1 0 0 1 1 0v1a1 1 0 0 0 0-1h-1Z" class="d"/><path d="M27 28v-1a1 1 0 0 1 0 1Z" class="n"/><path d="M27 28a1 1 0 0 0 0-1h1l-1 1Zm0-1a1 1 0 0 1 0 1l1-1h-1Z" class="d"/><path d="M27 28a1 1 0 0 0 0-1 1 1 0 0 1 0 1Z" class="n"/><path d="M27 28a1 1 0 0 0 0-1 1 1 0 0 1 0 1Zm0-1a1 1 0 0 1 0 1 1 1 0 0 0 0-1Z" class="d"/><path d="M27 28v-1a1 1 0 0 1 0 1Z" class="n"/><path d="M27 28a1 1 0 0 0 0-1 1 1 0 0 1 0 1Zm0 0a1 1 0 0 0 0-1 1 1 0 0 1 0 1Z" class="d"/><path d="m26 28 1-1h-1a1 1 0 0 1 0 1Z" class="n"/><path d="M26 28a1 1 0 0 0 0-1h1a1 1 0 0 1 0 1 1 1 0 0 1-1 0Zm0 0a1 1 0 0 0 1 0 1 1 0 0 0 0-1h-1a1 1 0 0 1 0 1Z" class="d"/><path d="M25 28c1 1 2 0 1-1l-1 1Z" class="n"/><path d="M26 28a1 1 0 0 1-1 0 1 1 0 0 0 1 0 1 1 0 0 0 0-1 1 1 0 0 1 0 1Zm-1 0a1 1 0 0 0 1 0 1 1 0 0 0 0-1 1 1 0 0 1 0 1 1 1 0 0 1-1 0Z" class="d"/><path d="M25 28c1 1 1 0 1-1v-1a2 2 0 0 1-1 2Z" class="n"/><path d="M25 28a2 2 0 0 0 1-2v1a1 1 0 0 1 0 1 1 1 0 0 1-1 0Zm0 0a1 1 0 0 0 1 0 1 1 0 0 0 0-1v-1a2 2 0 0 1-1 2Z" class="d"/><path d="M24 28c1 1 2 0 2-1a1 1 0 0 0-1-1 3 3 0 0 1-1 2Z" class="n"/><path d="M25 28a1 1 0 0 1-1 0 2 2 0 0 0 1-1 2 2 0 0 0 0-1 1 1 0 0 1 1 1 1 1 0 0 1-1 1Zm-1 0a1 1 0 0 0 1 0 1 1 0 0 0 1-1 1 1 0 0 0-1-1 3 3 0 0 1-1 2Z" class="d"/><path d="M24 28c1 1 2-2 1-2a3 3 0 0 1-1 2Z" class="n"/><path d="m24 28 1-1a2 2 0 0 0 0-1 2 2 0 0 1 0 2 1 1 0 0 1-1 0Zm0 0a1 1 0 0 0 1 0 2 2 0 0 0 0-2 2 2 0 0 1 0 1 2 2 0 0 1-1 1Z" class="d"/><path d="m24 28 1-2a2 2 0 0 1-1 1v1Z" class="n"/><path d="M24 28a1 1 0 0 1 0-1 2 2 0 0 0 1-1 2 2 0 0 1 0 1 2 2 0 0 1-1 1Zm0 0a3 3 0 0 0 1-2 2 2 0 0 1-1 1 1 1 0 0 0 0 1Z" class="d"/><path d="m24 29 1-3-1-1c1 1-1 3-1 4h1Z" class="n"/><path d="M24 29h-1a2 2 0 0 1 1-2v-2a1 1 0 0 1 1 1 6 6 0 0 1-1 1 4 4 0 0 0 0 2Zm0-4v2a2 2 0 0 0-1 2h1a4 4 0 0 1 0-2 6 6 0 0 0 1-1 1 1 0 0 0-1-1Z" class="d"/><path d="M24 28v-2a1 1 0 0 0-1-1l1 3Z" class="n"/><path d="M24 29v-1 1-1a2 2 0 0 1-1-1v-2a1 1 0 0 1 1 0 1 1 0 0 1 0 1 5 5 0 0 1 0 1 2 2 0 0 0 0 1v1Zm0-1a2 2 0 0 1 0-1 5 5 0 0 0 0-1 1 1 0 0 0 0-1 1 1 0 0 0-1 0v2a2 2 0 0 0 1 1Z" class="d"/><path d="M24 29v-3h-2c2 0 1 1 2 3Z" class="n"/><path d="M24 29a3 3 0 0 1-1-2l-1-1a1 1 0 0 1 1-1 1 1 0 0 1 1 1 8 8 0 0 1 0 1 3 3 0 0 0 0 2Zm0 0a3 3 0 0 1 0-2 7 7 0 0 0 0-1 1 1 0 0 0-1-1 1 1 0 0 0-1 1l1 1a3 3 0 0 0 1 2Z" class="d"/><path d="m24 28-1-2h-1l1 3 1-1Z" class="n"/><path d="M24 29h-1a3 3 0 0 1 0-2l-1-1a1 1 0 0 1 1 0 5 5 0 0 1 0 1 3 3 0 0 0 1 1v1Zm-1 0 1-1a3 3 0 0 1-1-1 5 5 0 0 0 0-1 1 1 0 0 0-1 0l1 1a3 3 0 0 0 0 2Z" class="d"/><path d="m23 28-1-2h-1l2 2Z" class="n"/><path d="M23 28a2 2 0 0 1-1-1 1 1 0 0 0-1-1h1a4 4 0 0 1 1 1 2 2 0 0 0 0 1Zm-2-2a1 1 0 0 1 1 1 2 2 0 0 0 1 1 2 2 0 0 1 0-1 4 4 0 0 0-1-1h-1Z" class="d"/><path d="m23 28-1-1h-1l2 1Z" class="n"/><path d="M23 28a3 3 0 0 1-1 0 2 2 0 0 0-1-1 1 1 0 0 1 0-1 1 1 0 0 1 1 1 2 2 0 0 1 1 1Zm0 0a2 2 0 0 0-1-1 1 1 0 0 0-1-1 1 1 0 0 0 0 1 2 2 0 0 1 1 1 3 3 0 0 0 1 0Z" class="d"/><path d="m20 28 3 1h1v-1l-3-1h-1Z" class="o"/><path d="m23 29-3-1v-1h1l3 1v1Zm-3-1 3 1h1v-1l-3-1h-1v1Z" class="d"/><path d="m20 28 1-1a1 1 0 0 1 1 1 8 8 0 0 1 2 0v1-1h-1a2 2 0 0 1-1-1 2 2 0 0 0-1 0 1 1 0 0 0-1 0v1Z" class="n"/><path d="M24 29v-1a2 2 0 0 0-1 0 3 3 0 0 1-1 0 1 1 0 0 0-1-1h-1v1-1a1 1 0 0 1 1 0 2 2 0 0 1 1 0 2 2 0 0 0 1 1h1v1Zm-3-2a1 1 0 0 1 1 1 3 3 0 0 0 1 0 2 2 0 0 1 1 0v1-1h-1a2 2 0 0 1-1-1 2 2 0 0 0-1 0 1 1 0 0 0-1 0v1-1h1Z" class="d"/><path d="M23 29a1 1 0 0 0 0 1 1 1 0 0 0 1-1h-1Z" class="o"/><path d="M23 30v-1h1a1 1 0 0 1-1 1Zm0-1v1a1 1 0 0 0 1-1Z" class="d"/><path d="M23 28v1-1Z" class="n"/><path d="M23 29v-1 1Zm0-1v1-1Z" class="d"/><path d="M21 29h-1 1Z" class="n"/><path d="M21 29h-1 1Zm0 0h-1 1Z" class="d"/><path d="M21 28v1l-1-1h1Z" class="n"/><path d="M21 29h-1v-1h1v1Zm-1-1v1h1v-1h-1Z" class="d"/><path d="M22 29v1-1Z" class="n"/><path d="M22 30v-1 1Z" class="d"/><path d="M21 29Z" class="n"/><path d="M21 29Zm0 0Z" class="d"/><path d="M22 29v1-1 1-1Z" class="n"/><path d="m22 30-1-1h1v1-1 1Zm0-1h-1l1 1v-1 1-1Z" class="d"/><path d="M22 29v1-1Z" class="n"/><path d="M22 30v-1 1Zm0-1v1-1Z" class="d"/><path d="M23 30v-1a1 1 0 0 0 0 1l1-1-1 1Z" class="n"/><path d="M23 30v-1a1 1 0 0 0 0 1l1-1-1 1Zm0-1v1l1-1a1 1 0 0 1-1 1 1 1 0 0 1 0-1Z" class="d"/><path d="M24 30h-1v-1a1 1 0 0 0 1 0v1Z" class="n"/><path d="M24 30h-1v-1h1v1Zm0-1-1 1h1v-1Z" class="d"/><path d="M24 29v1-1Z" class="n"/><path d="M24 30v-1 1Zm0-1v1-1Z" class="d"/><path d="M23 29v1h-1v-1a1 1 0 0 0 1 0Z" class="n"/><path d="M22 30v-1a1 1 0 0 0 1 0v1h-1Zm0-1v1h1v-1a1 1 0 0 1-1 0Z" class="d"/><path d="M23 29h-1a1 1 0 0 1 1 0Z" class="n"/><path d="M23 29h-1a1 1 0 0 1 1 0Zm0 0a1 1 0 0 0-1 0h1Z" class="d"/><path d="M24 29h-1 1Z" class="n"/><path d="M24 29h-1 1Zm-1 0h1-1Z" class="d"/><path d="M22 29Z" class="n"/><path d="M22 29Zm0 0Z" class="d"/><path d="M22 29h-1a1 1 0 0 1 1 0Z" class="n"/><path d="M22 29h-1a1 1 0 0 1 1 0Zm-1 0h1a1 1 0 0 0-1 0Z" class="d"/><path d="M23 29h-1 1Z" class="n"/><path d="M22 29h1-1Zm0 0h1a1 1 0 0 1-1 0Z" class="d"/><path d="M22 28v1h-1l1-1Z" class="n"/><path d="M22 29h-1l1-1v1Zm-1 0h1v-1l-1 1Z" class="d"/><path d="m22 28 1 1h-1v-1Z" class="n"/><path d="M22 29v-1l1 1h-1Zm0-1v1h1l-1-1Z" class="d"/><path d="M21 29Z" class="n"/><path d="M21 29Zm0 0Z" class="d"/><path d="M20 28h1-1 1-1Z" class="n"/><path d="M20 28h1-1 1-1Zm0 0h1-1 1-1Z" class="d"/><path d="M21 28h-1 1Z" class="n"/><path d="M21 28h-1 1Zm0 0h-1 1Z" class="d"/><path d="M21 28v1-1Z" class="n"/><path d="M21 29v-1 1Zm0-1v1-1Z" class="d"/><path d="M25 30h-1v-1a1 1 0 0 0 1 1Z" class="n"/><path d="M24 30v-1a1 1 0 0 0 1 1 1 1 0 0 1-1 0Zm0-1v1h1a1 1 0 0 1-1-1Z" class="d"/><path d="M25 29v1l-1-1h1Z" class="n"/><path d="m25 30-1-1h1v1Zm-1-1 1 1v-1a1 1 0 0 1-1 0Z" class="d"/><path d="M25 29v1-1Z" class="n"/><path d="M25 30v-1 1Zm0 0v-1 1Z" class="d"/><path d="M26 29v1l-1-1a1 1 0 0 0 1 0Z" class="n"/><path d="m26 30-1-1a1 1 0 0 0 1 0v1Zm-1-1 1 1v-1a1 1 0 0 1-1 0Z" class="d"/><path d="M26 29Z" class="n"/><path d="M26 29Zm0 0Z" class="d"/><path d="M26 29Z" class="n"/><path d="M26 29Zm0 0Z" class="d"/><path d="M25 29h-1 1Z" class="n"/><path d="M24 29h1-1 1-1Zm0 0h1-1Z" class="d"/><path d="M21 28h1-1Z" class="n"/><path d="M21 29a1 1 0 0 1 0-1h1l-1 1Zm0-1h1-1Z" class="d"/><path d="M25 29h-1 1Z" class="n"/><path d="M25 29h-1 1Zm0 0h-1 1Z" class="d"/><path d="M26 29h-1 1Z" class="n"/><path d="M25 29h1-1Zm0 0h1-1Z" class="d"/><path d="m21 19-2 2a3 3 0 0 1 1 2 6 6 0 0 1 0 2 10 10 0 0 0-1 2 3 3 0 0 0 1 2 3 3 0 0 0 1 1 8 8 0 0 0 2 0 1 1 0 0 1 1 1 1 1 0 0 1 1-1 8 8 0 0 0 2 0 3 3 0 0 0 1-1 3 3 0 0 0 1-2 10 10 0 0 0-1-2 6 6 0 0 1 0-2 3 3 0 0 1 1-2l-2-2a2 2 0 0 1-1 1 3 3 0 0 1-2-1 3 3 0 0 1-2 1 2 2 0 0 1-1-1Zm0 0a2 2 0 0 0 1 1 3 3 0 0 0 2-1v6h-4a6 6 0 0 0 0-2 3 3 0 0 0-1-2Zm6 0 2 2a3 3 0 0 0-1 2 6 6 0 0 0 0 2h-4v-6a3 3 0 0 0 2 1 2 2 0 0 0 1-1Zm-7 6h8a9 9 0 0 1 1 2 2 2 0 0 1-1 2 3 3 0 0 1-1 1 8 8 0 0 1-2 0 1 1 0 0 0-1 1 1 1 0 0 0-1-1 8 8 0 0 1-2 0 3 3 0 0 1-1-1 2 2 0 0 1-1-2 9 9 0 0 1 1-2Z" class="n"/><path d="M24 31a1 1 0 0 0-1-1h-1a4 4 0 0 1-1 0 3 3 0 0 1-1-1 3 3 0 0 1-1-2 8 8 0 0 1 0-2h1a6 6 0 0 0 0-2 3 3 0 0 0-1-2l2-2a2 2 0 0 0 1 0 3 3 0 0 0 2 0 3 3 0 0 0 2 0 2 2 0 0 0 1 0l2 2a3 3 0 0 0-1 2 6 6 0 0 0 0 2h1a8 8 0 0 1 0 2 3 3 0 0 1-1 2 3 3 0 0 1-1 1 4 4 0 0 1-1 0h-1a1 1 0 0 0-1 1Zm-5-10a3 3 0 0 1 1 2 6 6 0 0 1 0 2h-1a8 8 0 0 0 0 2 3 3 0 0 0 1 2 3 3 0 0 0 1 1 4 4 0 0 0 1 0h1a1 1 0 0 1 1 1 1 1 0 0 1 1-1h1a4 4 0 0 0 1 0 3 3 0 0 0 1-1 3 3 0 0 0 1-2 8 8 0 0 0 0-2h-1a6 6 0 0 1 0-2 3 3 0 0 1 1-2l-2-2a2 2 0 0 1-1 1 3 3 0 0 1-2-1 3 3 0 0 1-2 1 2 2 0 0 1-1-1Zm5 10a1 1 0 0 0-1-1h-1a4 4 0 0 1-1 0 3 3 0 0 1-1-1 2 2 0 0 1-1-2 7 7 0 0 1 1-2h8a7 7 0 0 1 1 2 2 2 0 0 1-1 2 3 3 0 0 1-1 1 4 4 0 0 1-1 0h-1a1 1 0 0 0-1 1Zm-4-6a7 7 0 0 0-1 2 2 2 0 0 0 1 2 3 3 0 0 0 1 1 4 4 0 0 0 1 0h1a1 1 0 0 1 1 1 1 1 0 0 1 1-1h1a4 4 0 0 0 1 0 3 3 0 0 0 1-1 2 2 0 0 0 1-2 7 7 0 0 0-1-2Zm4 0h-4a6 6 0 0 0 0-2 3 3 0 0 0-1-2l2-2a2 2 0 0 0 1 1 3 3 0 0 0 2-1v6Zm-4 0h4v-6a3 3 0 0 1-2 1 2 2 0 0 1-1-1l-2 2a3 3 0 0 1 1 2 6 6 0 0 1 0 2Zm8 0h-4v-6a3 3 0 0 0 2 1 2 2 0 0 0 1-1l2 2a3 3 0 0 0-1 2 6 6 0 0 0 0 2Zm-4 0h4a6 6 0 0 1 0-2 3 3 0 0 1 1-2l-2-2a2 2 0 0 1-1 1 3 3 0 0 1-2-1Z" class="d"/><path d="M30 16a7 7 0 0 0 0 1h-2a3 3 0 0 0 1 1h-1l1 1h-1 1l1 1a2 2 0 0 0 1 0 1 1 0 0 0-1 0v1l1-1v1-1 1a1 1 0 0 0-1 0v1c0-1 0-1 0 0h-1a3 3 0 0 0 1 1 2 2 0 0 0 1 1h1a3 3 0 0 1 0 1 2 2 0 0 1-1 0c0-1 0-1 0 0a2 2 0 0 0 0-1h-1v-1a1 1 0 0 0 0 1h-1a4 4 0 0 0 0 1 6 6 0 0 1 0 1 2 2 0 0 0 1 1v1a1 1 0 0 1 0 1v-1a4 4 0 0 0-2 2 5 5 0 0 1 0 1v1a1 1 0 0 1 0-1v1-1a2 2 0 0 1-1 1 22 22 0 0 1-3 0 42 42 0 0 0-3 1 1 1 0 0 0-1 0h1a3 3 0 0 1 1 0h2a22 22 0 0 0 4-1 2 2 0 0 1 1 0 3 3 0 0 0 2-1 6 6 0 0 0 1 0 3 3 0 0 1 0-1h-1a4 4 0 0 0 1-1 1 1 0 0 0-1 0v-1a1 1 0 0 1 1 0v1-1h-1 2-1a2 2 0 0 0-1 0h1a7 7 0 0 0 1 0 3 3 0 0 0 1-2 6 6 0 0 0 0-1h-1a7 7 0 0 1 0-1 3 3 0 0 0-1 1 1 1 0 0 1 0-1h1-1 1a2 2 0 0 0 0-1v-1a5 5 0 0 0 0-1 2 2 0 0 0-1 0v-1l1-1h-1v1h-1a4 4 0 0 1 0-1 2 2 0 0 0 0-2 6 6 0 0 0-1-1Zm0 2a8 8 0 0 1 1 2 5 5 0 0 1 0-1 11 11 0 0 0-1-1Z" class="c"/><path fill="#008f4c" d="m31 24 1 1v-1h-1Z"/><path d="M20 33a1 1 0 0 0 1 0h-1Z" class="q"/><path d="M30 17a3 3 0 0 0 1 1 5 5 0 0 0-1-1ZM28 18a3 3 0 0 0 1 1v-1h-1ZM29 19a11 11 0 0 0 1 1c1 0 1 0 0 0a6 6 0 0 1 0-1h-1ZM32 20a11 11 0 0 0 0 2v1-1a23 23 0 0 0 0-2ZM31 21v1a2 2 0 0 0 0-1v-1ZM30 21h1-1ZM29 22a8 8 0 0 0 1 1 2 2 0 0 0 0-1h-1ZM30 24a3 3 0 0 0 0 1 6 6 0 0 0 0-1v-1Z" class="r"/><path d="M30 24a1 1 0 0 0 1 0v1-1h-1ZM29 24a8 8 0 0 0 1 2v-1a3 3 0 0 0-1-1ZM33 25a8 8 0 0 0-1 1l1-1a10 10 0 0 0 0-1 1 1 0 0 0 0 1ZM32 29Z" class="r"/><path d="M30 20s0 1 0 0ZM32 19ZM32 19a1 1 0 0 0 0 1v-1ZM30 28ZM31 24h1-1ZM32 24h1-1ZM32 28h1-1ZM32 29Z" class="a"/><path d="M30 18a7 7 0 0 1 1 1v1a9 9 0 0 0-1-1 3 3 0 0 0 0-1Z" class="r"/><path d="M31 25v1a18 18 0 0 1 0 2v1a1 1 0 0 1 0-1 17 17 0 0 0 2-2 9 9 0 0 0 1-1l-1 1-1 1-1 1a10 10 0 0 0 0-2v-1ZM30 29h-1a8 8 0 0 1-1 2h3l1-1a4 4 0 0 0-1 1 6 6 0 0 1-2 0 5 5 0 0 0 1-1 9 9 0 0 0 1-1 4 4 0 0 0-1 1 5 5 0 0 1-1 1h-1 1a7 7 0 0 0 0-2 3 3 0 0 0 1 0ZM30 21a6 6 0 0 0 0 1l1 1a4 4 0 0 0 1 1 7 7 0 0 0 1-2 4 4 0 0 0 0-1 9 9 0 0 0-1 1 10 10 0 0 1 0 2l-1-2a3 3 0 0 0-1-1Z" class="s"/><path d="M30 17a3 3 0 0 0-1 0h-1a7 7 0 0 0 1 1h-1v1h1a4 4 0 0 0 0 1 2 2 0 0 0 2 0 3 3 0 0 0-1-1 4 4 0 0 1-1-1v-1a3 3 0 0 1 1 0 4 4 0 0 1 1 1 1 1 0 0 1 0 1v1a2 2 0 0 1 0-1 2 2 0 0 0 0-2 5 5 0 0 1-1-1v1Zm1 0a2 2 0 0 1 0 2v-1a3 3 0 0 0-1-1v-1l1 1Zm-2 1v1a1 1 0 0 1-1-1 2 2 0 0 1 1 0Zm1 1a2 2 0 0 0 0 1h1a2 2 0 0 1-1 0l-2-1a2 2 0 0 1 1 0h1ZM31 20a1 1 0 0 1 0 1 1 1 0 0 1 0 1 2 2 0 0 1 0-1v-1c0 1 0 1 0 0a1 1 0 0 0 0 1h-1c0 1 0 1 0 0h1-1a2 2 0 0 0 0 1h-1a2 2 0 0 0 2 2 3 3 0 0 1 1 0 1 1 0 0 0-1 0 3 3 0 0 1-1-1 2 2 0 0 1 0-1s0-1 0 0a1 1 0 0 1 1 0 2 2 0 0 1 1 1 2 2 0 0 0 0 1v-1a3 3 0 0 1 0-2h1a1 1 0 0 1 0 2 2 2 0 0 1-1 1 2 2 0 0 0 1-1v-1a1 1 0 0 0 0-1h-1a2 2 0 0 0 0-1h-1Zm1 1a4 4 0 0 0 0 1v1a2 2 0 0 0-1-1 2 2 0 0 1 1-2v1Zm-2 1 1 1a2 2 0 0 1-1 0 2 2 0 0 1-1-1h1Zm3 1-1 1 1-1Z" class="t"/><path d="m30 23-1 1a4 4 0 0 0 0 2 2 2 0 0 0 1 2h1a7 7 0 0 0 0-1 2 2 0 0 1 0-2 2 2 0 0 1 1 2 4 4 0 0 1-1 1l1-1a3 3 0 0 1 0-1 3 3 0 0 1 1-1h1a6 6 0 0 1 0 1 3 3 0 0 1-1 1 3 3 0 0 1-1 1 1 1 0 0 0-1 0 3 3 0 0 0 1 0 3 3 0 0 0 2-2 7 7 0 0 0 0-1h-1a5 5 0 0 1 0-1 4 4 0 0 0-1 1v-1a2 2 0 0 1 0 1 1 1 0 0 1-1 0s0-1 0 0v-1h-1a2 2 0 0 0 0-1Zm0 1a6 6 0 0 1 1 1 4 4 0 0 0-1-1 10 10 0 0 1 0-1 2 2 0 0 1 0 1Zm1 0v1l-1-1h1Zm-1 0a3 3 0 0 1 1 1v1a3 3 0 0 0-1 1 3 3 0 0 1 0-1 4 4 0 0 1-1-2 5 5 0 0 0 1 0Zm3 0v1a3 3 0 0 0-1 1v-1a4 4 0 0 1 1-1Zm-3 3v1-1a2 2 0 0 1 0-1v1ZM30 29a4 4 0 0 0-2 2 4 4 0 0 1 1-2 2 2 0 0 1 1-1 1 1 0 0 1 0 1 2 2 0 0 1 0 1 3 3 0 0 1-1 1c-1 0-1 0 0 0a3 3 0 0 0 1-1 2 2 0 0 0 0-1 9 9 0 0 1 1 0 5 5 0 0 1 0 1 3 3 0 0 1-1 1 5 5 0 0 1-1 0 4 4 0 0 0 2-1h1l-1 1a3 3 0 0 1-2 1l-1-1a2 2 0 0 1 0 1v-1h1-1a9 9 0 0 1-1 1 2 2 0 0 1-1 0h-1s-1 0 0 0h1a3 3 0 0 0 1 0c1-1 1-1 0 0h2-1a14 14 0 0 1-2 0 9 9 0 0 0-1 1 2 2 0 0 0 1-1h1a13 13 0 0 0 1 0 1 1 0 0 1 1 0 4 4 0 0 0 2 0 2 2 0 0 0 1-1 3 3 0 0 1 0-1 3 3 0 0 1-1 0v-1h1-1a1 1 0 0 1-1 0v-1a1 1 0 0 0 0 1Z" class="t"/><path d="m24 32-2 1h-2l1 1-1-1a4 4 0 0 1 2 0l2-1c1 0 1 0 0 0Z" class="t"/><path d="M23 33a9 9 0 0 0-2 0c0 1 0 1 0 0a4 4 0 0 1 1 0h2a8 8 0 0 0-1 0Z" class="t"/><path d="M29 33a1 1 0 0 1-1 0l-1-1-1 1a2 2 0 0 1-1 0h-1a2 2 0 0 0 1 0 2 2 0 0 0 1 0 1 1 0 0 1 2 0 2 2 0 0 0 1 0 1 1 0 0 0 0-1v1Z" class="b"/><path d="M25 33a2 2 0 0 1-1 0h1a2 2 0 0 0 1 0l1-1 1 1a1 1 0 0 0 1 0 3 3 0 0 0 0-1v1a2 2 0 0 1-1 0 1 1 0 0 0-2 0 2 2 0 0 1-1 0Zm-1 0a2 2 0 0 0 1 0 2 2 0 0 0 1 0 1 1 0 0 1 2 0 2 2 0 0 0 1 0v-1 1a1 1 0 0 1-1 0 12 12 0 0 1-1-1l-1 1a2 2 0 0 1-1 0 1 1 0 0 0-1 0Z" class="d"/><path d="M28 32a3 3 0 0 0-1 0 2 2 0 0 0-1 1 5 5 0 0 1-1 0 2 2 0 0 1-1 0 2 2 0 0 0 1 0 2 2 0 0 0 1 0h1a1 1 0 0 1 0-1l1 1 1-1a2 2 0 0 1-1 0Z" class="a"/><path d="M25 33a2 2 0 0 1-1 0 2 2 0 0 0 1 0 3 3 0 0 0 1 0 1 1 0 0 1 1-1 2 2 0 0 1 1 0 2 2 0 0 0 1 0l-1 1-1-1a1 1 0 0 0 0 1h-1a2 2 0 0 1-1 0Zm-1 0a2 2 0 0 0 1 0 2 2 0 0 0 1 0h1a1 1 0 0 1 0-1h1v1l1-1a2 2 0 0 1-1 0 2 2 0 0 0-1 0 1 1 0 0 0-1 1 3 3 0 0 1-1 0 2 2 0 0 1-1 0Z" class="d"/><path d="M27 33h-1a2 2 0 0 1-1 0 3 3 0 0 1-1 0 1 1 0 0 0 1 0 2 2 0 0 0 1 0 2 2 0 0 1 1 0h1a3 3 0 0 0 1 0 2 2 0 0 1-1 0 2 2 0 0 0-1 0Z" class="a"/><path d="M25 33a1 1 0 0 1-1 0 3 3 0 0 0 1 0 2 2 0 0 0 1 0h1a2 2 0 0 1 1 0 2 2 0 0 0 1 0 2 2 0 0 1-1 0 3 3 0 0 1-1 0 2 2 0 0 0-1 0 2 2 0 0 1-1 0Zm-1 0a1 1 0 0 0 1 0 2 2 0 0 0 1 0 2 2 0 0 1 1 0 3 3 0 0 0 1 0 2 2 0 0 0 1 0 2 2 0 0 1-1 0 2 2 0 0 0-1 0h-1a2 2 0 0 1-1 0 3 3 0 0 1-1 0Z" class="d"/><path d="M19 17a4 4 0 0 0-2 1v1a6 6 0 0 1 0-1 5 5 0 0 0 0-1 5 5 0 0 0-1 2 4 4 0 0 0 0 1 3 3 0 0 0 0-1h-1a2 2 0 0 0 1 1h-1v1-1a1 1 0 0 0 0 1h-1a2 2 0 0 0 0 1h1a9 9 0 0 1 1 2c0 1 0 1 0 0a15 15 0 0 0-2-2v1a4 4 0 0 0 1 1l-1-1a3 3 0 0 0 0 1h1-1v2-1h1a18 18 0 0 1 1 2l1 1-1-1a8 8 0 0 0-2-1l1 1 1 1h-1a8 8 0 0 0 1 1s1 0 0 0a4 4 0 0 0-1 0 2 2 0 0 0 1 0 9 9 0 0 0 1 1 4 4 0 0 1 1 0v1-1a13 13 0 0 0-2 0l1 1a8 8 0 0 0 2 1 10 10 0 0 0 2 0h1a11 11 0 0 0 1 1 11 11 0 0 1 4 0 2 2 0 0 0 1 1v-1h-1l-1-1h-3a5 5 0 0 1-3-1 5 5 0 0 1-2-4 4 4 0 0 0 0-1 3 3 0 0 0 0 1 3 3 0 0 1 1-3 1 1 0 0 0-1 1 3 3 0 0 1 1-1v-1l-1 1c-1 1-1 1 0 0a5 5 0 0 1 0-1l1-1-2 1a5 5 0 0 1 1-1 3 3 0 0 0-1 1 5 5 0 0 1 1-3h1a2 2 0 0 0-2 1 6 6 0 0 1 2-2 5 5 0 0 0 1-1 3 3 0 0 0-1 1 4 4 0 0 0-1 0 5 5 0 0 1 1-1 4 4 0 0 0-2 1 5 5 0 0 1 2-2h1a1 1 0 0 0-1 0Zm9 16h-1 1Z" class="c"/><path d="M27 33h1-1Z" class="q"/><path d="M19 17a4 4 0 0 0-1 1 5 5 0 0 0-1 0v1-1a5 5 0 0 0 0-1l-1 1a4 4 0 0 0 0 2v1-1a3 3 0 0 0-1-1l1 1h-1a5 5 0 0 1 1 1 10 10 0 0 1 0 2v-1a7 7 0 0 0 0-1 4 4 0 0 1-1-1v1-1 1a1 1 0 0 0-1 0v1h1a9 9 0 0 1 1 2 13 13 0 0 1 0 2 2 2 0 0 1 0-1 5 5 0 0 0-1-2 3 3 0 0 0-1-1 3 3 0 0 0 1 2 2 2 0 0 0-1-1 3 3 0 0 0 0 1h1-1v1c0 1 0 1 0 0h1v1a25 25 0 0 1 2 2 8 8 0 0 0-3-2 11 11 0 0 0 2 2h-1a5 5 0 0 1 2 0 8 8 0 0 1 1 2 5 5 0 0 0-1-1 2 2 0 0 1-1 0 7 7 0 0 0-1 0 4 4 0 0 0 2 1 7 7 0 0 1 1 0 4 4 0 0 1 0 1 2 2 0 0 1 0-1 14 14 0 0 0-2 0 9 9 0 0 0 1 1 9 9 0 0 0 5 1l1 1a11 11 0 0 1 4 0 3 3 0 0 0 1 1v-1h-1a8 8 0 0 1-1-1h-2a11 11 0 0 1-3-1 5 5 0 0 1-3-4 6 6 0 0 1 0-1 4 4 0 0 0 0 1 4 4 0 0 1 0-2 4 4 0 0 0 1-1l-1 1a4 4 0 0 1 1-1h-1a4 4 0 0 0-1 3 4 4 0 0 1 0 1 4 4 0 0 1 0-1 4 4 0 0 1 1-3h-1v1a1 1 0 0 1 0-1 5 5 0 0 1 1-1l1-1a2 2 0 0 0-1 1 2 2 0 0 1-1 0 3 3 0 0 1 1-1 3 3 0 0 0-1 1 6 6 0 0 1 0-1 5 5 0 0 1 1-2c1 0 1 0 0 0a3 3 0 0 0-1 1 3 3 0 0 1 0-1 6 6 0 0 1 2-1l1-1a2 2 0 0 0-1 0 4 4 0 0 0-1 1 5 5 0 0 1 1-1 4 4 0 0 0-2 1 5 5 0 0 1 2-2c1 0 1 0 0 0Zm-4 3Zm4-3a8 8 0 0 0-1 1 7 7 0 0 0-1 2 10 10 0 0 1 0-1 5 5 0 0 1 0-1 6 6 0 0 1 1 0 4 4 0 0 1 1-1Zm-2 0a7 7 0 0 1 0 1 26 26 0 0 0-1 3c0 1 0 1 0 0v-1a4 4 0 0 1 0-2 3 3 0 0 1 1-1Zm2 1a3 3 0 0 1-1 1 6 6 0 0 0-2 3 7 7 0 0 1 1-1 9 9 0 0 1 0-1 2 2 0 0 1 0-1h1a3 3 0 0 1 1-1Zm0 0v1a8 8 0 0 0-2 1 9 9 0 0 0 0 2c-1 1-1 0 0 0a8 8 0 0 1 0-2l1-1a4 4 0 0 1 1-1Zm-4 1a4 4 0 0 1 1 1 10 10 0 0 1 0 2 9 9 0 0 0 0-1 7 7 0 0 1-1-2Zm3 1a6 6 0 0 0-1 4 3 3 0 0 1-1 0 5 5 0 0 1 1-2v-1a4 4 0 0 1 1-1Zm-3 0v1a13 13 0 0 1 1 2 8 8 0 0 0-1-1v-2Zm0 1v1a8 8 0 0 1 1 2 16 16 0 0 1 1 2 3 3 0 0 1-1-1 11 11 0 0 0 0-2 7 7 0 0 0-1-1v-1c-1 0-1 0 0 0Zm-1 0 1 1a1 1 0 0 1-1 0v-1Zm4 1a8 8 0 0 0-1 3 3 3 0 0 1 1-3Zm-4 0a4 4 0 0 1 1 1 8 8 0 0 1 1 1 5 5 0 0 1 0 1l-1-1a4 4 0 0 1-1-2Zm4 0a5 5 0 0 1 0 1 6 6 0 0 0 0 1 10 10 0 0 0-1 2 4 4 0 0 1 1-3v-1Zm-4 2a4 4 0 0 1 1 0 2 2 0 0 0 1 1 8 8 0 0 1 1 2 6 6 0 0 1-1-1 7 7 0 0 0-1-1 2 2 0 0 1-1-1Zm5 0a5 5 0 0 0-1 1 4 4 0 0 0 0 1 8 8 0 0 0 0 3 5 5 0 0 1-1-1 7 7 0 0 1 0-2 3 3 0 0 1 1-1 1 1 0 0 1 1-1Zm-5 0a1 1 0 0 1 1 1 9 9 0 0 1 2 3l1 1a30 30 0 0 0-3-4 2 2 0 0 0-1 0v-1Zm0 1Zm4 1v1a5 5 0 0 0 4 5h2a9 9 0 0 1 1 0 21 21 0 0 1 3 1 1 1 0 0 1 0 1 2 2 0 0 1-1-1 10 10 0 0 0-3 0l-4-1a8 8 0 0 1-2-1 6 6 0 0 1-1-1h-1 1a10 10 0 0 1 2 1 4 4 0 0 0 2 1 4 4 0 0 1-3-4 4 4 0 0 1 0-1 6 6 0 0 1 0-1Zm-4 0h1a8 8 0 0 1 2 2 3 3 0 0 1 0 1 7 7 0 0 0-1-1 9 9 0 0 1-1-1l-1-1Zm1 3a1 1 0 0 1 1 0 5 5 0 0 1 3 2h-1a3 3 0 0 0 0-1 10 10 0 0 0-1 0 4 4 0 0 1-2-1Z" class="t"/><path d="M19 23a2 2 0 0 0-1 1 2 2 0 0 1 1-1v1a2 2 0 0 0 0-1ZM15 28a8 8 0 0 0 2 1 3 3 0 0 0-1 0 7 7 0 0 1-1-1Z" class="t"/><path d="M20 33a2 2 0 0 1-1 0 2 2 0 0 0 1 0 3 3 0 0 1 1 0 2 2 0 0 1 1 0 3 3 0 0 0 1 0 2 2 0 0 0 1 0 2 2 0 0 1-2 0 3 3 0 0 0-1-1l-1 1Z" class="b"/><path d="M23 33a3 3 0 0 1-2 0 3 3 0 0 0-1 0 2 2 0 0 1-1 0 2 2 0 0 0 1-1h1a3 3 0 0 1 1 1 2 2 0 0 0 2 0 2 2 0 0 1-1 0Zm-2 0a2 2 0 0 1 1 0 3 3 0 0 0 1 0 2 2 0 0 0 1 0 2 2 0 0 1-2 0 3 3 0 0 0-1-1l-1 1a2 2 0 0 1-1 0 2 2 0 0 0 1 0 3 3 0 0 1 1 0Z" class="d"/><path d="M19 32v1h3a2 2 0 0 0 2 0h-1a1 1 0 0 1-1 0 2 2 0 0 0-1-1h-1a3 3 0 0 1-1 0s-1 0 0 0Z" class="a"/><path d="M23 33a3 3 0 0 1-1 0h-3a1 1 0 0 1 0-1 3 3 0 0 0 1 0h1l1 1a1 1 0 0 0 1 0 1 1 0 0 0 1 0 2 2 0 0 1-1 0Zm-2-1a3 3 0 0 1 1 1 2 2 0 0 0 2 0 1 1 0 0 1-1 0 1 1 0 0 1-1 0l-1-1h-1a3 3 0 0 1-1 0 1 1 0 0 0 0 1h1a2 2 0 0 1 1-1Z" class="d"/><path d="M20 33a2 2 0 0 1-1 0 2 2 0 0 0 1 0 2 2 0 0 1 1 0 2 2 0 0 0 2 0 3 3 0 0 0 1 0h-1a3 3 0 0 1-2 0h-1Z" class="a"/><path d="M23 33a2 2 0 0 1-2 0 2 2 0 0 0-1 0 2 2 0 0 1-1 0 2 2 0 0 0 1 0h1a3 3 0 0 0 2 0 2 2 0 0 0 1 0 3 3 0 0 1-1 0Zm-2 0a2 2 0 0 0 2 0 3 3 0 0 0 1 0 2 2 0 0 1-1 0 3 3 0 0 1-2 0h-1a2 2 0 0 1-1 0 2 2 0 0 0 1 0 2 2 0 0 1 1 0Z" class="d"/><path d="M22 31a3 3 0 0 0 2 1 4 4 0 0 1-1 0 2 2 0 0 1-1-1Z" class="b"/><path d="M24 32a4 4 0 0 1-1 0 2 2 0 0 1-1-1 3 3 0 0 0 2 1Zm-2-1a2 2 0 0 0 1 1 3 3 0 0 0 1 0 3 3 0 0 1-2-1Z" class="d"/><path d="M22 31a3 3 0 0 0 2 1 4 4 0 0 1-2 0v-1Z" class="a"/><path d="M24 32a4 4 0 0 1-2 0v-1a3 3 0 0 0 2 1Zm-2-1v1a4 4 0 0 0 2 0 3 3 0 0 1-2-1Z" class="d"/><path d="M22 31h1a4 4 0 0 0 1 1 3 3 0 0 1-2-1Z" class="u"/><path d="M24 32a3 3 0 0 1-2-1h1a4 4 0 0 0 1 1Zm-2-1a3 3 0 0 0 2 1 4 4 0 0 1-1-1h-1Z" class="d"/><path d="M26 31a3 3 0 0 1-2 1 4 4 0 0 0 1 0 2 2 0 0 0 1-1Z" class="b"/><path d="M24 32a3 3 0 0 0 2-1 2 2 0 0 1-1 1 4 4 0 0 1-1 0Zm2-1a3 3 0 0 1-2 1 4 4 0 0 0 1 0 2 2 0 0 0 1-1Z" class="d"/><path d="M26 31a3 3 0 0 1-1 1h-1a4 4 0 0 0 2 0v-1Z" class="a"/><path d="M25 32a1 1 0 0 1-1 0s0 0 1 0a3 3 0 0 0 1-1v1a4 4 0 0 1-1 0Zm1-1a3 3 0 0 1-1 1h-1a4 4 0 0 0 2 0v-1Z" class="d"/><path d="M26 31h-1a4 4 0 0 1-1 1 3 3 0 0 0 2-1Z" class="u"/><path d="M24 32a4 4 0 0 0 1-1h1a3 3 0 0 1-2 1Zm1-1a4 4 0 0 1-1 1 3 3 0 0 0 2-1Z" class="d"/><path d="M25 31a2 2 0 0 0-1 1 2 2 0 0 1 2-1h-1Z" class="b"/><path d="M24 32a2 2 0 0 1 1-1h1a2 2 0 0 0-2 1Zm0 0a2 2 0 0 1 2-1h-1a2 2 0 0 0-1 1Z" class="d"/><path d="M22 31a3 3 0 0 1 2 1 2 2 0 0 0-1-1 3 3 0 0 0-1 0Z" class="b"/><path d="M24 32a3 3 0 0 0-2-1 3 3 0 0 1 1 0 2 2 0 0 1 1 1Zm-2-1a3 3 0 0 1 2 1 2 2 0 0 0-1-1 3 3 0 0 0-1 0Z" class="d"/><path d="M25 31a3 3 0 0 0-1 0v1a2 2 0 0 1 2-1 1 1 0 0 0-1 0Z" class="a"/><path d="M24 32v-1a3 3 0 0 1 1 0 1 1 0 0 1 1 0 2 2 0 0 0-2 1Zm2-1a1 1 0 0 0-1 0 3 3 0 0 0-1 0v1a2 2 0 0 1 2-1Z" class="d"/><path d="M22 31h1a3 3 0 0 1 1 1l-1-1h-1Z" class="a"/><path d="M24 32a3 3 0 0 0-1-1h-1 1l1 1Zm-2-1a1 1 0 0 0 1 0 3 3 0 0 1 1 1l-1-1h-1Zm0 0Z" class="d"/><path d="M25 31a3 3 0 0 0 0 1h-1a2 2 0 0 0 1 0 2 2 0 0 1 1 0v-1h-1Z" class="a"/><path d="M24 32h1a3 3 0 0 1 0-1h1v1a2 2 0 0 0-1 0 2 2 0 0 1-1 0Zm2-1a2 2 0 0 0-1 0 3 3 0 0 0 0 1h-1a2 2 0 0 0 1 0 2 2 0 0 1 1 0v-1Z" class="d"/><path d="M22 31a5 5 0 0 1 1 1 2 2 0 0 0 1 0 3 3 0 0 0-2-1Z" class="a"/><path d="M24 32a2 2 0 0 1-1 0 5 5 0 0 0-1-1 3 3 0 0 1 2 1Zm-2-1a5 5 0 0 1 1 1 2 2 0 0 0 1 0 3 3 0 0 0-2-1Z" class="d"/><path d="M24 32a1 1 0 0 0 0 1 2 2 0 0 1 1 0v-1a3 3 0 0 0-1 0Z" class="a"/><path d="M24 33a1 1 0 0 1 0-1h1v1a2 2 0 0 0-1 0Zm0-1a1 1 0 0 0 0 1 2 2 0 0 1 1 0v-1h-1Z" class="d"/><path d="M24 33a2 2 0 0 1 0-1Z" class="b"/><path d="M24 33v-1a2 2 0 0 0 0 1Zm0 0a2 2 0 0 1 0-1v1Z" class="d"/><path d="M23 33a2 2 0 0 0 1 0 1 1 0 0 1 0-1 1 1 0 0 0-1 0 1 1 0 0 1 0 1Z" class="a"/><path d="M23 33a1 1 0 0 0 0-1 1 1 0 0 1 1 0 1 1 0 0 0 0 1 3 3 0 0 1-1 0Zm0 0a2 2 0 0 0 1 0 1 1 0 0 1 0-1 1 1 0 0 0-1 0 1 1 0 0 1 0 1Z" class="d"/></svg>