<svg xmlns="http://www.w3.org/2000/svg" viewBox="0 0 48 48"><path fill="#00914c" d="M48 24a24 24 0 0 1-48 0Z"/><path d="M48 24H0a24 24 0 0 1 48 0Z"/><path fill="#fff" d="M48 24a23.9 23.9 0 0 1-2 9.7H2a24 24 0 0 1 0-19.4h44a23.9 23.9 0 0 1 2 9.7Z"/><path fill="#e22028" d="M48 24a23.9 23.9 0 0 1-1 7.2H1a24 24 0 0 1 0-14.4h46a23.9 23.9 0 0 1 1 7.2Z"/><path fill="#00b6f2" d="M37.6 24 7.5 41.4a24 24 0 0 1 0-34.8Z"/><path fill="#ffe51a" d="m9.9 16 1.8 5.5h5.8l-4.7 3.4 1.8 5.6-4.7-3.4-4.7 3.4L7 24.9l-4.8-3.4h5.9L9.9 16z"/></svg>