<svg xmlns="http://www.w3.org/2000/svg" viewBox="0 0 48 48"><defs><style>.c{fill:#fff}</style></defs><circle cx="24" cy="24" r="24" fill="#fe0000"/><path fill="#000095" d="M36 3.2V24H0A24 24 0 0 1 24 0a23.7 23.7 0 0 1 12 3.2Z"/><path d="M16.4 7.1a5.1 5.1 0 0 0-1.8 1.1l-1.1-4ZM19 7a5.1 5.1 0 0 0-2 0l1-4ZM22.5 4.2l-1 4a5.1 5.1 0 0 0-2-1ZM25.8 7.5l-3 3a5 5 0 0 0-1-2ZM23 13a5.1 5.1 0 0 0 0-2l4 1ZM25.8 16.5l-4-1a5 5 0 0 0 1-2ZM22.5 19.8l-3-3a5.1 5.1 0 0 0 2-1ZM19 17l-1 4-1-4a5.1 5.1 0 0 0 2 0ZM16.4 16.9l-2.9 2.9 1-4a5.1 5.1 0 0 0 2 1ZM14.2 15.4l-4 1.1 3-3a5 5 0 0 0 1 2ZM12.9 12a5 5 0 0 0 .1 1l-4-1 4-1a5 5 0 0 0-.1 1ZM14.2 8.6a5 5 0 0 0-1 1.8l-3-2.9Z" class="c"/><circle cx="18" cy="12" r="4.5" class="c"/></svg>