<svg xmlns="http://www.w3.org/2000/svg" viewBox="0 0 48 48"><defs><style>.b{fill:#ffce00}</style></defs><circle cx="24" cy="24" r="24" fill="#006a4e"/><path d="M47.5 19.2H.5a24 24 0 0 1 4.3-9.6h38.4a24 24 0 0 1 4.3 9.6Z" class="b"/><path fill="#d21034" d="M26.9.2v33.4H2A23.7 23.7 0 0 1 0 24 24 24 0 0 1 24 0a22.7 22.7 0 0 1 2.9.2Z"/><path d="M47.5 28.8a24 24 0 0 1-4.3 9.6H4.8a24 24 0 0 1-4.3-9.6Z" class="b"/><path fill="#fff" d="m16.8 15.5 2 6.3-5.4-3.9-5.3 3.9 2-6.3-5.3-3.9h6.6l2-6.3 2.1 6.3h6.6l-5.3 3.9z"/></svg>