<svg xmlns="http://www.w3.org/2000/svg" viewBox="0 0 48 48"><defs><style>.c,.f,.i,.k,.r{fill:#fcd116}.c,.d,.e,.f,.g,.h,.i,.k,.r{stroke:#7b3f00;stroke-width:.1px}.c,.d,.f,.g{stroke-linecap:square}.c,.d,.e{stroke-miterlimit:77}.d,.g,.j{fill:#7b3f00}.e,.h{fill:none}.f,.g,.h,.i,.k{stroke-miterlimit:77}.r{stroke-miterlimit:75.5906}</style></defs><path d="M24 48A24 24 0 1 0 0 24a24 24 0 0 0 24 24Z" style="fill-rule:evenodd;fill:#fefefe"/><path d="M26.7 10.7H44a22.4 22.4 0 0 0-4.9-5.3H26.7v5.3ZM46.6 16a24 24 0 0 1 1.2 5.3H26.7V16Zm1.3 10.7a22.7 22.7 0 0 1-1.2 5.3H1.4a24 24 0 0 1-1.2-5.3ZM44 37.3a22.4 22.4 0 0 1-4.9 5.3H8.9A24.7 24.7 0 0 1 4 37.3Z" style="fill:#0038a8;fill-rule:evenodd"/><path d="m12 11-1.6-.2c.7-4.5-2-4-.8-6.4 0 2.2 1.5 1.3 2.9 4.6" class="c"/><path d="M12 11v-.6h0a9.3 9.3 0 0 0-1.8-3.7 4.6 4.6 0 0 1-.7-1 1.7 1.7 0 0 1 0-.9c-.7 2 1.5 1.8.9 6Z" class="d"/><path d="M12.1 10.4c-1-3.8-3.1-4.2-2.5-6" class="e"/><path d="m10.7 12.7-1.3 1c-2.6-3.7-4.2-1.5-5-4 1.5 1.5 1.8-.3 5 1" class="f"/><path d="m10.7 12.7-.4-.6h0A9.3 9.3 0 0 0 6.4 11a4.6 4.6 0 0 1-1.2-.3 1.7 1.7 0 0 1-.6-.5c.8 1.8 2.4.1 4.8 3.5Z" class="g"/><path d="M10.4 12.1c-3.3-2-5.2-.7-6-2.5" class="h"/><path d="M13.3 13.3v-1.7l-9.6 1.7 9.6 1.8v-1.8H3.7" class="i"/><path d="M13.3 13.3H3.7l9.6 1.8" class="j"/><path d="m13.3 13.3 1.3-1.2-8.1-5.6 5.6 8 1.2-1.2-6.8-6.8" class="k"/><path d="m13.3 13.3-1.2 1.3 1.2-1.3-6.8-6.8 5.6 8" class="j"/><path d="m14 10.7-1-1.3c3.7-2.6 1.5-4.2 4-5-1.6 1.6.2 1.8-1.1 5" class="f"/><path d="m14 10.7.5-.4h0a9.3 9.3 0 0 0 1.3-3.9 4.6 4.6 0 0 1 .3-1.2 1.7 1.7 0 0 1 .5-.6c-1.9.8-.2 2.4-3.5 4.8Z" class="g"/><path d="M14.6 10.4c2-3.3.7-5.2 2.4-6" class="h"/><path d="M13.3 13.3h1.8l-1.8-9.6-1.7 9.6h1.7V3.7" class="i"/><path d="M13.3 13.3V3.7l-1.7 9.6" class="j"/><path d="m15.6 12 .3-1.6c4.4.7 4-2 6.4-.8-2.3 0-1.3 1.5-4.5 2.8" style="stroke-miterlimit:77;stroke-linecap:square;stroke:#7b3f00;stroke-width:.1px;fill:#fcd116"/><path d="M15.6 12h.7a9.3 9.3 0 0 0 3.7-1.8 4.6 4.6 0 0 1 1-.7 1.7 1.7 0 0 1 .8 0C20 8.7 20 11 16 10.3Z" style="stroke-miterlimit:77;fill:#7b3f00;stroke-linecap:square;stroke:#7b3f00;stroke-width:.1px"/><path d="M16.3 12.1c3.8-1 4.1-3.1 6-2.5" style="stroke-miterlimit:77;fill:none;stroke:#7b3f00;stroke-width:.1px"/><path d="m13.3 13.3 1.3 1.3 5.6-8.1L12 12l1.2 1.2 6.9-6.8" style="stroke-miterlimit:77;stroke:#7b3f00;stroke-width:.1px;fill:#fcd116"/><path d="m13.3 13.3-1.2-1.2 1.2 1.2 6.9-6.8L12 12" class="j"/><path d="m12.7 16 1 1.3c-3.7 2.6-1.5 4.1-4 5 1.5-1.6-.3-1.8 1-5" style="stroke-miterlimit:75.5906;stroke-linecap:square;stroke:#7b3f00;stroke-width:.1px;fill:#fcd116"/><path d="m11 14.8-.2 1.5c-4.5-.7-4 2-6.4.7 2.2 0 1.2-1.4 4.4-2.8" style="stroke-miterlimit:77;stroke-linecap:square;stroke:#7b3f00;stroke-width:.1px;fill:#fcd116"/><path d="m13.3 13.3-1.2-1.2-5.6 8 8-5.5-1.2-1.3-6.8 6.9" class="r"/><path d="m11 14.8-.6-.2h0a9.3 9.3 0 0 0-3.7 1.9 4.6 4.6 0 0 1-1 .6 1.7 1.7 0 0 1-.9.1c2 .7 1.8-1.6 6-.9Z" style="stroke-miterlimit:77;fill:#7b3f00;stroke-linecap:square;stroke:#7b3f00;stroke-width:.1px"/><path d="M10.4 14.6c-3.8.9-4.1 3.1-6 2.4" style="stroke-miterlimit:77;fill:none;stroke:#7b3f00;stroke-width:.1px"/><path d="m16 14 1.3-1c2.6 3.7 4.1 1.5 5 4-1.6-1.6-1.9.2-5.1-1.1" class="f"/><path d="m16 14 .3.5h0a9.3 9.3 0 0 0 4 1.3 4.6 4.6 0 0 1 1.2.3 1.7 1.7 0 0 1 .6.5c-.9-1.9-2.4-.2-4.8-3.5Z" class="g"/><path d="M16.3 14.6c3.3 2 5.1.7 6 2.4" class="h"/><path d="M13.3 13.3v1.8l9.7-1.8-9.7-1.7v1.7H23" class="i"/><path d="M13.3 13.3H23l-9.7-1.7" class="j"/><path d="m14.8 15.6 1.5.3c-.7 4.4 2 4 .7 6.4 0-2.3-1.4-1.2-2.8-4.5" class="c"/><path d="m14.8 15.6-.2.7h0a9.3 9.3 0 0 0 1.9 3.7 4.6 4.6 0 0 1 .6 1 1.7 1.7 0 0 1 .1.8c.7-1.9-1.6-1.8-.9-5.9Z" class="d"/><path d="M14.6 16.3c.9 3.8 3.1 4.1 2.4 6" class="e"/><path d="m13.3 13.3-1.2 1.3 8 5.6-5.5-8.1-1.3 1.2 6.9 6.9" class="k"/><path d="m13.3 13.3 1.3-1.2-1.3 1.2 6.9 6.9-5.6-8.1" class="j"/><path d="m12.7 16-.6.3h0a9.3 9.3 0 0 0-1.2 4 4.6 4.6 0 0 1-.3 1.2 1.7 1.7 0 0 1-.5.6c1.8-.9.1-2.4 3.5-4.8Z" style="stroke-miterlimit:75.5906;fill:#7b3f00;stroke-linecap:square;stroke:#7b3f00;stroke-width:.1px"/><path d="M12.1 16.3c-2 3.3-.7 5.1-2.5 6" style="stroke-miterlimit:75.5906;fill:none;stroke:#7b3f00;stroke-width:.1px"/><path d="M13.3 13.3h-1.7l1.7 9.7 1.8-9.7h-1.8V23" class="r"/><path d="M13.3 13.3V23l1.8-9.7" class="j"/><path d="m13.3 13.3 1.3 1.3-1.3-1.3-6.8 6.9 8-5.6" class="j"/><circle cx="13.3" cy="13.3" r="3.2" class="r"/><path d="M15.7 12c-.2.3-.3-.1-1-.1s-.9.4-1 .3.6-.6.8-.6a2 2 0 0 1 1.2.4m-.8.3a.3.3 0 0 1-.2.6c-.2 0-.6-.4-.4-.6" class="j"/><path d="M13.9 12.6c0-.4.3-.4.8-.4s.7.3.8.4c-.2 0-.3-.3-.8-.3s-.5 0-.8.3m0 0c.2-.1.3.2.7.2a1 1 0 0 0 .7-.2c.2-.1-.3.4-.6.4s-.8-.2-.7-.3M11.7 12.3a.3.3 0 0 0 0 .5c-.3-.2 0-.5 0-.5Z" class="j"/><path d="M15 12.3s.3.3 0 .5a.3.3 0 0 0 0-.5ZM12.9 13.5c-.3.1-.2.5-.4.5a.4.4 0 0 0-.4.3 1.3 1.3 0 0 1 .7-.2l.5.1.5-.1a1.3 1.3 0 0 1 .7.2.4.4 0 0 0-.3-.3c-.2 0-.1-.4-.4-.5l.1.3h-.3c0 .2-.1.2-.3.2s-.3 0-.2-.2c0 .1-.4.1-.4 0 0-.2.2-.1.2-.3ZM12 14.5c-.3.2-.3.3-.4.5a2.1 2.1 0 0 1 .2-.2l.2-.3Z" class="j"/><path d="M11.8 14.7a.5.5 0 0 0 .1 0h-.1ZM12 14.8a3.3 3.3 0 0 1 .4 0 8.7 8.7 0 0 1 1.9 0 3.3 3.3 0 0 1 .5 0c-.4 0-.8-.3-1-.3h-.9l-1 .3ZM14.8 14.8ZM14.9 14.7a2.1 2.1 0 0 1 .1.3c0-.2 0-.3-.3-.5l.2.2Z" class="j"/><path d="M14.9 14.8a1.2 1.2 0 0 1-.6 0 2.7 2.7 0 0 1-2 0 1.2 1.2 0 0 1-.5 0c1 .4.8.5 1.5.5s.7-.1 1.6-.5ZM11.8 14.8ZM14.9 14.8ZM11 12c.2.3.3-.1 1-.1s.9.4 1 .3-.6-.6-.9-.6a2 2 0 0 0-1.1.4m.8.3a.3.3 0 0 0 .2.6c.2 0 .6-.4.4-.6" class="j"/><path d="M12.8 12.6c0-.4-.3-.4-.8-.4s-.7.3-.9.4c.2 0 .4-.3.9-.3s.5 0 .8.3m-.1 0c-.1-.1-.3.2-.6.2a1 1 0 0 1-.7-.2c-.2-.1.3.4.6.4s.8-.2.7-.3M13.3 15.6c-.1 0-.5 0 0 0s.2 0 0 0" class="j"/></svg>