<svg xmlns="http://www.w3.org/2000/svg" xml:space="preserve" id="svg1306" x="0" y="0" style="enable-background:new 0 0 48 48" version="1.1" viewBox="0 0 48 48"><style>.st0,.st1{fill-rule:evenodd;clip-rule:evenodd;fill:#b22234}.st1{fill:#fefefe}</style><path d="M36.8 44.3H11.2a24.3 24.3 0 0 0 25.6 0z" class="st0"/><path d="M11.2 44.3h25.6c1.7-1 3.2-2.3 4.5-3.7H6.7c1.3 1.4 2.9 2.7 4.5 3.7z" class="st1"/><path d="M6.7 40.6h34.6c1.1-1.1 2.1-2.4 2.9-3.7H3.8c.8 1.4 1.8 2.6 2.9 3.7z" class="st0"/><path d="M3.8 36.9h40.4c.7-1.2 1.4-2.4 1.9-3.7H1.8c.6 1.3 1.2 2.6 2 3.7z" class="st1"/><path d="M1.8 33.2h44.3c.5-1.2.9-2.4 1.2-3.7H.6c.3 1.3.7 2.5 1.2 3.7z" class="st0"/><path d="M.6 29.5h46.7c.3-1.2.5-2.4.6-3.7H.1l.5 3.7z" class="st1"/><path d="M.1 25.8H48l.1-1.8-.1-1.8H.1L0 24l.1 1.8z" class="st0"/><path d="M.1 22.2H48a22 22 0 0 0-.6-3.7H.6l-.5 3.7z" class="st1"/><path d="M.6 18.5h46.7c-.3-1.3-.7-2.5-1.2-3.7H1.8C1.3 16 .9 17.2.6 18.5z" class="st0"/><path d="M1.8 14.8h44.3c-.5-1.3-1.2-2.5-1.9-3.7H3.8c-.8 1.1-1.4 2.4-2 3.7z" class="st1"/><path d="M3.8 11.1h40.5c-.8-1.3-1.8-2.6-2.9-3.7H6.7a20.6 20.6 0 0 0-2.9 3.7z" class="st0"/><path d="M6.7 7.4h34.6a20.2 20.2 0 0 0-4.5-3.7H11.2C9.5 4.7 8 6 6.7 7.4z" class="st1"/><path d="M11.2 3.7h25.6a24.3 24.3 0 0 0-25.6 0z" class="st0"/><path d="M.1 25.8h20.4V.3A24 24 0 0 0 .1 25.8z" style="fill-rule:evenodd;clip-rule:evenodd;fill:#3c3b6e"/><path d="M1.9 14.7h.8l-.8.6.3 1-.7-.5.4-1.1zM1.4 18.1l.3 1h1l-.8.6.3 1-.8-.7-.8.6.3-1-.4-.3.1-.3H1l.4-.9zM5.1 9.2l.2.5-.4-.2.2-.3zM4.4 11.5l.3 1h1l-.8.6.3.9-.8-.6-.8.6.3-.9-.9-.6h1.1zM4.4 15.8l.3 1h1l-.8.6.3.9-.8-.6-.8.6.3-.9-.9-.6h1.1zM4.4 20.1l.3 1h1l-.8.6.3 1-.8-.6-.8.6.3-1-.9-.6h1.1zM8 6.1h.7l-.8.6.3 1-.8-.6-.8.6.1-.3L8 6.1zM7.4 9.4l.3 1h1l-.8.6.3 1-.8-.6-.8.6.3-1-.8-.6h1zM7.4 13.8l.3.9h1l-.8.6.3 1-.8-.6-.8.6.3-1-.8-.6h1zM7.4 18.1l.3.9h1l-.8.6.3 1-.8-.6-.8.6.3-1-.8-.6h1zM11 3.8h.8l-.8.6.3 1-.8-.6-.9.6.3-.8 1.1-.8zM10.4 7.2l.4.9h1l-.8.6.3 1-.9-.6-.8.6.3-1-.8-.6h1zM10.4 11.5l.4 1h1l-.8.6.3.9-.9-.6-.8.6.3-.9-.8-.6h1zM10.4 15.8l.4 1h1l-.8.6.3.9-.9-.6-.8.6.3-.9-.8-.6h1zM10.4 20.1l.4 1h1l-.8.6.3 1-.9-.6-.8.6.3-1-.8-.6h1zM13.4 5.1l.4 1h1l-.8.6.3 1-.9-.6-.8.6.3-1-.8-.6h1zM13.4 9.4l.4 1h1l-.8.6.3 1-.9-.6-.8.6.3-1-.8-.6h1zM13.4 13.8l.4.9h1l-.8.6.3 1-.9-.6-.8.6.3-1-.8-.6h1zM13.4 18.1l.4.9h1l-.8.6.3 1-.9-.6-.8.6.3-1-.8-.6h1zM16.5 2.8l.3 1h1l-.8.6.3 1-.8-.6-.8.6.3-1-.9-.6h1.1zM16.5 7.2l.3.9h1l-.8.6.3 1-.8-.6-.8.6.3-1-.9-.6h1.1zM16.5 11.5l.3 1h1l-.8.6.3.9-.8-.6-.8.6.3-.9-.9-.6h1.1zM16.5 15.8l.3 1h1l-.8.6.3.9-.8-.6-.8.6.3-.9-.9-.6h1.1zM16.5 20.1l.3 1h1l-.8.6.3 1-.8-.6-.8.6.3-1-.9-.6h1.1z" class="st1"/></svg>