<svg xmlns="http://www.w3.org/2000/svg" viewBox="0 0 48 48"><defs><style>.c{fill:#ef7d00}</style></defs><circle cx="24" cy="24" r="24" fill="#198a00"/><path fill="#de2010" d="M48 24.1A24 24 0 0 1 24 48h-1.7V24Z"/><path d="M48 24.1A24 24 0 0 1 30.9 47V24.1Z"/><path d="M48 24.1a23.9 23.9 0 0 1-8.6 18.3V24ZM34.8 17.4c.2.3.4.2.5.3-.2.2-.5-.2-.6-.2-.2 0 .4.8.4.9a1.1 1.1 0 0 1-.6-.2v.2l.4.1c.3 0 .3.4.2.3a.7.7 0 0 0-.2-.1s-.2 0-.2 0c.4.2.3.5.2.7a.3.3 0 0 1-.3.2s.2-.2 0-.3c-.2 0-.3-.3-.3-.3s0 0-.1 0c0 .6-.3.6-.3.6a.3.3 0 0 0 .1.3c-.3 0-.2-.3-.3-.3V19c-.2.3-.4.2-.4.2a.7.7 0 0 0 0 .3c-.2-.2-.2-.2-.2-.5a.6.6 0 0 1 0-.1.6.6 0 0 1-.1.1.4.4 0 0 1 0 .6.3.3 0 0 0 0 .3.3.3 0 0 1-.2-.2s-.3-.1-.3-.5a.4.4 0 0 1-.4.5.2.2 0 0 0 0 .2.3.3 0 0 1-.2-.4s-.2-.1.2-.5a1 1 0 0 1-.8.2 1.4 1.4 0 0 0-.1.3v-.3a.6.6 0 0 1 .6-.5.6.6 0 0 0 .6-.6l-.2.1.2-1.3c0 .9-.5 1.2-.5 1l.1-.7.2-.5a1.4 1.4 0 0 1-.3.4s.2-.4 0-.3c0 0-1 .2-1.2-.2 0-.2.8-.6.8-.6-.2.1-1.9.7-1.8.4-.1-.1 1-.7 1-.7l-1 .5s-.7.2-.9 0c0 0 2-1 2-1.2a11.6 11.6 0 0 1-1.6 1s-1 .2-1.2 0c0 0 1.2-.6 1.1-.7a2.3 2.3 0 0 1-1.1.5 1.7 1.7 0 0 1-.6 0 .8.8 0 0 1-.5-.2s.9-.2 1-.4c-1.7.5-2.3 0-2.3 0l.5-.1 1-.4a8.2 8.2 0 0 1-1.6.3c-.7 0-1-.3-1-.3a2.1 2.1 0 0 1 .5-.1l1.3-.4-1 .2c-1.3 0-1.5-.2-1.4-.3a2.3 2.3 0 0 1 .5 0l.8-.2-.8.1c-2.2-.5-2.6-1.3-2.6-1.5l.6.3 2.3.9-2-.8c-.5-.2-.9-.9-.8-1 .1 0 .7.6 1.2.8l2.5 1c0-.1-2.1-.8-2.3-1a1.6 1.6 0 0 1-1.1-1.4c.1 0 .5.5.8.6a25.8 25.8 0 0 0 2.7 1.2l-1.6-.7a3.6 3.6 0 0 1-1-1c-.1-.2-.1-.4 0-.4l1 .5a23.9 23.9 0 0 1 2.4 1.1s-1-.9-.7-1c0 0 1.5.8 2.8 1.2a13.3 13.3 0 0 1 2.4.5 1.5 1.5 0 0 1-.1-.2 1.5 1.5 0 0 1 2.4-1.1c1.2.1.8.6.5.7.2-.4-.3-.3-.5-.4l.4.1a1 1 0 0 1-.3.1c-.3 0-.7.2-.3 1a5.4 5.4 0 0 1 2.4-.2 11.2 11.2 0 0 0 1.7-.5 11.5 11.5 0 0 0 2.8-.8c.3 0 0 .6-.5.8 0 0 3.2-1.3 3.4-1.5.2.1-1.1 1.6-3.7 2.1 2.3-.5 4.3-2 4.7-2 .1 0 0 1.5-5.2 2.8a26 26 0 0 0 5.8-2.3s-.4 1.3-3.6 2.2c.9-.1 3.3-1.5 3.3-1.2 0 0-2.4 3-6.8 2 3.6.8 5.8-1.2 6.2-1.1 0 0-.7 1.7-5.1 1.8 2.1-.2 1.5 0 1.5 0a3 3 0 0 1-2.8.3l1.4.4a2.4 2.4 0 0 1-2-.2l1.4.5a1.1 1.1 0 0 1-.7.1 2.8 2.8 0 0 1-1.1-.7c.4.5 1.5 1 1.3 1.2-.4.2-1.4-.3-1.8-.5.6.6 1 .6.9.8-.5.2-1.2-.3-1.3-.5 0 0 .4.3.3.5a1.4 1.4 0 0 1-.9-.5 1.8 1.8 0 0 0 .1.3Z" class="c"/><path d="M44.2 13h-.6c.8-.5.9-1 .9-1l-.5.2-1 .5c1-.7 1-1.1 1-1.1v-.2a3 3 0 0 0-1.1.5l-.8.5a2.8 2.8 0 0 0 .9-1 33 33 0 0 1-3.1 1.3l.3-.5-.2-.1a11.5 11.5 0 0 1-2.8.8h-.3a8.2 8.2 0 0 1-1.4.4 6.1 6.1 0 0 0-2.4.2.7.7 0 0 1 0-.6.4.4 0 0 1 .3-.3.5.5 0 0 0 .3 0 .1.1 0 0 1 .1 0 .2.2 0 0 1 0 .2c.2 0 .4-.2.4-.4s-.3-.3-.9-.4a1.5 1.5 0 0 0-1.3-.2 1.7 1.7 0 0 0-1.2 1.4 15.1 15.1 0 0 0-2-.3h-.2a13 13 0 0 1-2-.9l-.9-.3c0 .2.2.4.6.8l-2.2-1a4.1 4.1 0 0 1-.7-.3 1 1 0 0 0-.3-.1H23a.5.5 0 0 0 .1.5 3.6 3.6 0 0 0 .8.8 9.9 9.9 0 0 1-1-.4 2.4 2.4 0 0 1-.3-.3l-.4-.3c-.1 0 0 .1 0 .2a1.7 1.7 0 0 0 .5 1l-.4-.3c-.2-.2-.3-.3-.4-.2a1.5 1.5 0 0 0 .6.8 2.2 2.2 0 0 1-.5-.2c0-.1-.1-.2-.2-.1 0 .3.4 1 2.4 1.5h-.4a.1.1 0 0 0 0 .2c.1 0 .4.3 1.4.3H25c-.5 0-.5.1-.6.2a1.5 1.5 0 0 0 1 .3 3.7 3.7 0 0 0 1 0 2.6 2.6 0 0 0-.4 0 1.6 1.6 0 0 1-.1 0l-.3.1v.1s.5.5 2.1 0a4.5 4.5 0 0 1-.6.3H27c0 .2.2.3.5.4a1.8 1.8 0 0 0 .6 0h.2-.2v.1c.2.2.7.1 1 0l-.2.2c.1.2.9 0 1 0l-.1.1a.1.1 0 0 0 0 .2c.2 0 .7 0 1.2-.2-.2 0-.3.2-.3.3a.7.7 0 0 0 .5.3 1.7 1.7 0 0 0 .9 0c-.1.1-.1.2 0 .2a.9.9 0 0 0 0-.1 2.6 2.6 0 0 0 0 .2v.3a3.5 3.5 0 0 1-.2.5h.2a.8.8 0 0 0 .2-.3v.5a.1.1 0 0 0 .1 0 .5.5 0 0 1-.5.5.6.6 0 0 0-.6.5v.3a1.8 1.8 0 0 1 .1-.2.8.8 0 0 0 .6-.1.4.4 0 0 0 0 .2.2.2 0 0 0 0 .1.4.4 0 0 0 0 .3.3.3 0 0 0 .2.1.2.2 0 0 1 0-.2.5.5 0 0 0 .4-.3.5.5 0 0 0 .2.3.3.3 0 0 0 .3.3V20a.3.3 0 0 1 0-.2.5.5 0 0 0 .1-.3.6.6 0 0 0 .2.1.7.7 0 0 1 0-.3.4.4 0 0 0 .3 0 .4.4 0 0 0 0 .2.2.2 0 0 0 .1 0 .4.4 0 0 1 0 .2s0 .3.3.3v-.1a.2.2 0 0 1 0-.2.3.3 0 0 0 .1-.1.7.7 0 0 0 .1-.6.4.4 0 0 0 .2.3.3.3 0 0 0 .3 0v.2a.3.3 0 0 0 .3-.1.5.5 0 0 0 0-.4.4.4 0 0 0-.3-.2l.1-.1a.6.6 0 0 1 .3.2l.1-.1a.4.4 0 0 0-.3-.3h-.3v-.2a1.1 1.1 0 0 0 .5.1V18c-.2-.1-.4-.5-.4-.6a.8.8 0 0 1 .1.1c.2.1.3.3.5.2a.2.2 0 0 0-.1-.2.6.6 0 0 1-.4-.3 1.2 1.2 0 0 0 .8.3.1.1 0 0 0 0-.2 1.1 1.1 0 0 0 1 .3.2.2 0 0 0 0-.2l-.2-.2a2.7 2.7 0 0 1-.5-.4c.4.3 1.2.7 1.6.5a.1.1 0 0 0 0-.1c0-.1 0-.3-.4-.5a1 1 0 0 0 .1 0 1.2 1.2 0 0 0 .9 0v-.1l-.2-.1a1 1 0 0 0 .7-.2l-.2-.2a3.2 3.2 0 0 0 1.6-.4l.1-.1c2.7-.5 3.5-1.6 3.5-1.8a.4.4 0 0 0-.3 0 3.8 3.8 0 0 0 .9-.8.2.2 0 0 0 0-.1Zm-8.7.4A7.5 7.5 0 0 0 37 13h.2a11.5 11.5 0 0 0 2.8-.8c.1.1-.2.5-.5.6a10.2 10.2 0 0 1-2.6.7 1 1 0 0 0-.1 0 1 1 0 0 0 .1 0l.2.1c-.1.2-.5.3-1.2.1v.1a1.6 1.6 0 0 1 .3.2 4.8 4.8 0 0 1-.9 0 2.7 2.7 0 0 0-.2 0 .7.7 0 0 0 .2.1l.1.1a3.4 3.4 0 0 1-.8 0h-.1a.5.5 0 0 1 .2.1 1.8 1.8 0 0 1-.7 0 3.3 3.3 0 0 0-.8-.7 6.3 6.3 0 0 1 2.3-.2Zm2.4.5a2.8 2.8 0 0 0 .5.1.8.8 0 0 1 .4.2 3 3 0 0 1-1 0l-.6-.2a2 2 0 0 0 .5.2l.7.3a1.9 1.9 0 0 1-.6 0 4.9 4.9 0 0 1-1.3-.3h-.1a4.6 4.6 0 0 0 .8.5h.2a2.3 2.3 0 0 1-2-.4h.1a.1.1 0 0 0 0-.2 5.5 5.5 0 0 0 .8 0l-.1-.2c.5 0 .8 0 1-.2a.1.1 0 0 0 0-.1 5.6 5.6 0 0 0 .6-.2 8 8 0 0 0 2 .2 1.5 1.5 0 0 1-1.3.3 13.5 13.5 0 0 0-.5-.1Zm-3.3.7a21.6 21.6 0 0 0 2.6 1.6 2 2 0 0 1-1.5-.4 8.8 8.8 0 0 1-1.7-1.4 1.6 1.6 0 0 0 .4 0 1.8 1.8 0 0 0 .3 0 3.6 3.6 0 0 0 .5 0 6 6 0 0 0 2.8 1.2 1.8 1.8 0 0 1 .4.2c-.5.6-2.6-.6-3.5-1.1l-.3-.1ZM28 16a1.7 1.7 0 0 1-.6 0 1 1 0 0 1-.4-.2h.2a2 2 0 0 0 .8-.4 4 4 0 0 1-1.8.2 1 1 0 0 1-.5-.2h.2a1 1 0 0 0 .2-.1l.5-.2a4.1 4.1 0 0 0 .6-.2H27a6.4 6.4 0 0 1-1.5.3 1.6 1.6 0 0 1-1-.3 3.2 3.2 0 0 1 .4 0l1.4-.5h-.5a4.8 4.8 0 0 1-.5.2c-1 0-1.3-.2-1.4-.2a2.8 2.8 0 0 1 .5-.1 2.3 2.3 0 0 0 .3 0l.6-.2h-.8c-2.2-.4-2.6-1.1-2.6-1.4a1 1 0 0 1 .1.1 2.2 2.2 0 0 0 .4.3 116 116 0 0 0 2.3.8l-.2-.1-.7-.3-.9-.4h-.2a1.5 1.5 0 0 1-.7-.8 1.3 1.3 0 0 1 .3.2 3.3 3.3 0 0 0 .7.4l.5.2h.2a15.7 15.7 0 0 0 1.9.8 4.8 4.8 0 0 0-1.1-.5l-.7-.3h-.2l-.1-.1a1.2 1.2 0 0 1-.2 0 1.8 1.8 0 0 1-1-1.1.8.8 0 0 1-.1-.3 1.3 1.3 0 0 1 .3.2 2.4 2.4 0 0 0 .4.4 27 27 0 0 0 2.8 1.2v-.1l-.7-.3-1-.4a3.5 3.5 0 0 1-.8-1c-.2-.2-.2-.3-.1-.4a1 1 0 0 1 .3.2 4.2 4.2 0 0 0 .7.4 24 24 0 0 1 2.4 1l.4.2a1.3 1.3 0 0 1-.7.2.3.3 0 0 0 .1.2 1.2 1.2 0 0 0 .8 0 1.6 1.6 0 0 1-.6.4 1.8 1.8 0 0 0 1 .1 2.2 2.2 0 0 1-.5.4 1.7 1.7 0 0 0 .7 0l-.3.3a2.6 2.6 0 0 0 1.3-.1 3.7 3.7 0 0 1-.8.4l.2.1c.3 0 .6.2 1.6-.2l-.8.5a.5.5 0 0 0 .2.1 2.3 2.3 0 0 1-1.1.6Zm-.1-2.5-.3.3a2 2 0 0 1-1 0 2.5 2.5 0 0 0 .6-.4s-.6.1-.8 0a.2.2 0 0 1 0-.1 1.4 1.4 0 0 0 .6-.2 4.2 4.2 0 0 0 1.1.3 1 1 0 0 1-.2 0Zm0 0a1.6 1.6 0 0 0 .9.2l-.2.1a4 4 0 0 0-.6.4 1.8 1.8 0 0 1-1 .1 4.7 4.7 0 0 0 .7-.5 2.5 2.5 0 0 0 .2-.2Zm2.9 1.1a2 2 0 0 1-1.6.8.6.6 0 0 1-.2 0 9.7 9.7 0 0 0 1.3-1 3 3 0 0 0 .4-.4 1 1 0 0 0 .1.6Zm-2.7 1.6.4-.2.6-.5a1.1 1.1 0 0 0 .2 0 2.3 2.3 0 0 0 1.5-.8 1.3 1.3 0 0 0 .2.3l-.1.2a8.6 8.6 0 0 1-1.7.9s-.9.3-1.1 0Zm3.9.7a1.5 1.5 0 0 1-.9 0 .7.7 0 0 1-.4-.2l.6-.4a1.6 1.6 0 0 0 .2 0V16h-.2c-.4.2-1.4.5-1.5.4a4 4 0 0 1 .8-.7l-.5.2-.4.2s-.7.2-.8.1l.6-.3 1.2-.7a.9.9 0 0 0-.2.3s.3.2.9-.2c.9 1 .6 1.4.6 1.4Zm.3 1.5a2.6 2.6 0 0 1 0-.5 2.7 2.7 0 0 0 0-.8 1.1 1.1 0 0 1-.2 1 .5.5 0 0 1-.2 0 4 4 0 0 0 .1-.3v-.3a3 3 0 0 1 .2-.4 1.5 1.5 0 0 0 0-.2 1.4 1.4 0 0 1-.2.2.6.6 0 0 0 0-.1s.2-.3 0-.8v-.5a1 1 0 0 0 .3.2.5.5 0 0 0 .2 0c.2.2.6.3.7.6v.1a11 11 0 0 1-.1 1.2 1 1 0 0 1 0 .3 1 1 0 0 1-.1-.1 3 3 0 0 1-.2-.3h-.1a1.3 1.3 0 0 1-.3.6h-.1Zm1-.3a1 1 0 0 0-.1-.3 10.9 10.9 0 0 0 0-1.2c.5.8.6 1.2.5 1.8h.2v.2a.8.8 0 0 1 0 .1h-.1a1.2 1.2 0 0 0-.5 0 2 2 0 0 1-.3 0 2.3 2.3 0 0 1 0-.6.7.7 0 0 0 .2.2V18Zm-.3 1.5a.4.4 0 0 1-.1.2.4.4 0 0 0 0 .3.2.2 0 0 1-.1-.2s-.3-.2-.3-.5a.4.4 0 0 1-.4.4.2.2 0 0 0 0 .2.2.2 0 0 1-.1 0 .3.3 0 0 1 0-.3.1.1 0 0 1-.1 0c0-.2 0-.3.2-.5a.9.9 0 0 1-.8.2 1 1 0 0 0-.1.1v-.1a.5.5 0 0 1 .6-.5.6.6 0 0 0 .6-.5 1.5 1.5 0 0 0 .3-.6 2.6 2.6 0 0 0 .2.2 2.4 2.4 0 0 0 0 .7 1.7 1.7 0 0 0 .3.1.3.3 0 0 0-.1.3.5.5 0 0 1-.2 0v.1a.4.4 0 0 1 .1.4Zm0-.4v.1Zm1.9-.5a.3.3 0 0 1 .2 0 .3.3 0 0 1 0 .2.8.8 0 0 0-.2-.2.2.2 0 0 0-.2 0 .1.1 0 0 0 0 .2.4.4 0 0 1 .2.2.5.5 0 0 1 0 .4.2.2 0 0 1-.2.1.2.2 0 0 0 0-.1.1.1 0 0 0 0-.1.2.2 0 0 1-.2 0 .3.3 0 0 1-.1-.3.1.1 0 0 0-.1 0 .2.2 0 0 0-.2 0 .6.6 0 0 1 0 .5.2.2 0 0 1-.2.1.3.3 0 0 0 0 .3l-.1-.3s-.2-.2 0-.5c-.3.3-.5.2-.5.2a.7.7 0 0 0 0 .2L33 19a.6.6 0 0 1 0-.1.3.3 0 0 1 .2-.2 1 1 0 0 1 .5-.1h.1a1 1 0 0 0 .1-.1V18a1.4 1.4 0 0 0 .1-.4 1.2 1.2 0 0 0 .4.5v.2c0 .1.1.2.4.2Zm.2-1a.4.4 0 0 1 .1.1l-.3-.1a.6.6 0 0 0-.2-.2l-.1.1.3.7.1.1a1.3 1.3 0 0 1-.5-.2 1 1 0 0 1-.4-.6 1.1 1.1 0 0 1-.2.6.4.4 0 0 1-.1.1c.1-.6-.1-1-.6-1.8 0-.4-.4-.5-.7-.6a.8.8 0 0 1-.1 0 .5.5 0 0 0-.1-.1.8.8 0 0 1-.3-.2 1.6 1.6 0 0 0-.1.4 3.8 3.8 0 0 0-.5-.6c-.5.3-.7.3-.8.3a5.1 5.1 0 0 1 .5-.7 1 1 0 0 1-.2-1.2.3.3 0 0 0 0-.1l-.1.1a3.7 3.7 0 0 1-.5.5 2.7 2.7 0 0 1-.6.4c-1 .4-1.3.3-1.6.2a4 4 0 0 0 .6-.3l.5-.4a3.4 3.4 0 0 1-1.7.4l1.1-.7a1.4 1.4 0 0 0 .8 0l-.1.2h.4-.3c0-.1 0-.2.2-.3a1.4 1.4 0 0 1-1 0l.3-.1v-.1a1.5 1.5 0 0 1-.9 0 .8.8 0 0 0 .2-.2 5.3 5.3 0 0 1-1.6-.6 1.8 1.8 0 0 0-.3-.3 3 3 0 0 1-.5-.6 3.1 3.1 0 0 1 .7.3 13.2 13.2 0 0 0 2.1.8h.2a11.5 11.5 0 0 1 2.2.5 1.3 1.3 0 0 1 0-.2 1.6 1.6 0 0 1 1-1.3 1.4 1.4 0 0 1 1.3.2c.7 0 .8.3.8.3a.3.3 0 0 1-.2.3.2.2 0 0 0 0-.1l-.4-.2h-.2a.5.5 0 0 0 .1 0v.1h.2a.8.8 0 0 1-.1 0h-.2a.5.5 0 0 0-.3.3.7.7 0 0 0 0 .6 1 1 0 0 1-.2-.3 1 1 0 0 0 .4.5 3.3 3.3 0 0 1 .7.9 10.2 10.2 0 0 1 .2 1h.1a7.5 7.5 0 0 0-.1-.9 10.8 10.8 0 0 0 1.6 1.3 1.8 1.8 0 0 0 .4.4 1.3 1.3 0 0 1 .3.3 2.6 2.6 0 0 1-1.8-1c-.1 0 0 .2.4.5l.4.5a2 2 0 0 1-1.1-.5 3.7 3.7 0 0 0-.4-.3 2 2 0 0 0 .3.4 2.3 2.3 0 0 1 .4.7 2 2 0 0 0 0 .2 1.8 1.8 0 0 0 .2.3.7.7 0 0 0 .3.3Zm2.4-.3c-.5.2-1.6-.4-1.8-.6v.1a2.6 2.6 0 0 0 .7.6l.2.1c-.5.3-1.2-.3-1.3-.4v.2l.3.2a1.4 1.4 0 0 1-.8-.4l-.1-.2a2.4 2.4 0 0 0-.3-.5 1.7 1.7 0 0 0 1 .3c0-.2 0-.3-.2-.5a2.1 2.1 0 0 0 1.2.5c.1-.2 0-.3-.3-.4L36 16a2.1 2.1 0 0 0 .2.2 4.4 4.4 0 0 0 .8.6l.6.5Zm.5-.6a1.2 1.2 0 0 1-.7.1 2.5 2.5 0 0 1-1-.6h.3a3 3 0 0 0 1 .4 2.8 2.8 0 0 1 .4 0Zm2-1a3.1 3.1 0 0 1-2 .5l-.2-.1-.6-.1a2.9 2.9 0 0 0 .8.2 1.6 1.6 0 0 1 .5.2 1.9 1.9 0 0 1-1 0l-.7-.1a.7.7 0 0 0 .5-.1V16a7.3 7.3 0 0 1-1.4-.7c1 .5 2.2 1 2.6.4a14.2 14.2 0 0 0 1.5-.1Zm3.1-1.8a6.6 6.6 0 0 1-1 .6 8 8 0 0 1-1.3.4 7.7 7.7 0 0 1-3.3 0v.1a7.2 7.2 0 0 0 3 .1 7 7 0 0 0 2-.7l.6-.3a2.9 2.9 0 0 1 .4-.2 2.1 2.1 0 0 1-1 .9 7 7 0 0 1-2.7.8h-1.3v.1a2 2 0 0 0-.5-.1 6.1 6.1 0 0 1-2.2-1 2 2 0 0 0 1.7.2h.2a5.3 5.3 0 0 0 .5 0 6.3 6.3 0 0 1-.7 0l-.3-.2-.4-.2a4.7 4.7 0 0 0 1.6.1c0-.1 0-.2-.2-.2a1.3 1.3 0 0 0 .7 0v-.1a1.4 1.4 0 0 0-.2-.2 1.4 1.4 0 0 0 1.3-.4 6.6 6.6 0 0 1-2-.2 12.7 12.7 0 0 0 1.5-.5 48.2 48.2 0 0 0 3.4-1.4 4.5 4.5 0 0 1-1.8 1.3 9.8 9.8 0 0 1-1.9.7 8.3 8.3 0 0 0 2-.6l1.7-1a3.7 3.7 0 0 1 1-.4.3.3 0 0 1 0 .2c-.1.2-.4.8-1.7 1.4a20 20 0 0 1-2.8 1l-.7.2.7-.1a15.5 15.5 0 0 0 2.9-1l1.7-1 .4-.2c0 .2-.3.7-1.3 1.3l-.3.1-1.3.6-.6.2a4.3 4.3 0 0 0 .6-.1 9.8 9.8 0 0 0 1.6-.7 4.6 4.6 0 0 1 1-.4 3.5 3.5 0 0 1-1 1Z"/><path d="M33.6 16.3a.8.8 0 0 0-.3-.5 1.2 1.2 0 0 1-.4-.6 1.1 1.1 0 0 0 .4.5.8.8 0 0 1 .3.5ZM32.6 12.3a1.3 1.3 0 0 1-.3 0 1.8 1.8 0 0 0-.2-.1c.3-.3.5-.3.6-.2a.2.2 0 0 1 .1.1.2.2 0 0 1-.2.2Zm-.4-.2h.5-.5Zm.6 0Zm0 0Z"/></svg>