<svg xmlns="http://www.w3.org/2000/svg" xmlns:xlink="http://www.w3.org/1999/xlink" viewBox="0 0 45 45"><defs><linearGradient id="a" x1="907.1" x2="957.5" y1="234.1" y2="217.2" gradientTransform="matrix(1 0 0 -1 -898.1 240)" gradientUnits="userSpaceOnUse"><stop offset="0" stop-color="#fff"/><stop offset="1" stop-color="#fff" stop-opacity="0"/></linearGradient><linearGradient xlink:href="#a" id="b" x1="712" x2="717.7" y1="207.9" y2="203" gradientTransform="matrix(.88 0 0 -.88 -609.2 187.8)"/><linearGradient xlink:href="#a" id="c" x1="708.3" x2="714.2" y1="213.1" y2="207.2" gradientTransform="matrix(.91 0 0 -.91 -619.3 201.3)"/><linearGradient xlink:href="#a" id="d" x1="629.8" x2="634.1" y1="257.5" y2="254" gradientTransform="matrix(1.14 0 0 -1.14 -709.4 301.7)"/><linearGradient xlink:href="#a" id="e" x1="661.1" x2="668.8" y1="236.8" y2="231" gradientTransform="matrix(1.04 0 0 -1.04 -669 256.2)"/><linearGradient xlink:href="#a" id="f" x1="-641.1" x2="-637.9" y1="19.4" y2="15.4" gradientTransform="matrix(1.42 0 0 -1.42 917.2 39.5)"/><linearGradient xlink:href="#a" id="g" x1="767.3" x2="781.3" y1="282.5" y2="273.4" gradientTransform="matrix(1 0 0 -1 -747 300)"/><linearGradient xlink:href="#a" id="h" x1="768.5" x2="770.7" y1="292.4" y2="288.9" gradientTransform="matrix(1.06 0 0 -1.06 -783.3 324.4)"/><linearGradient xlink:href="#a" id="i" x1="767.5" x2="770.9" y1="293.9" y2="288.7" gradientTransform="matrix(1.06 0 0 -1.06 -776.3 327.4)"/><linearGradient xlink:href="#a" id="j" x1="767.4" x2="770.8" y1="292.8" y2="289.4" gradientTransform="matrix(1.06 0 0 -1.06 -790.3 327.4)"/><linearGradient xlink:href="#a" id="k" x1="776.1" x2="780.2" y1="280.3" y2="275.1" gradientTransform="matrix(1 0 0 -1 -750 300)"/><linearGradient xlink:href="#a" id="l" x1="812.6" x2="815.7" y1="260.1" y2="257.3" gradientTransform="matrix(.91 0 0 -.91 -717.1 260)"/><linearGradient xlink:href="#a" id="m" x1="605.6" x2="609.7" y1="294.8" y2="290.4" gradientTransform="matrix(1.58 0 0 -1.58 -925.8 485.5)"/><linearGradient xlink:href="#a" id="n" x1="797.3" x2="811.3" y1="282.5" y2="273.4" gradientTransform="matrix(1 0 0 -1 -792 296)"/><linearGradient xlink:href="#a" id="o" x1="798.5" x2="800.7" y1="292.4" y2="288.9" gradientTransform="matrix(1.06 0 0 -1.06 -830 320.4)"/><linearGradient xlink:href="#a" id="p" x1="797.5" x2="800.9" y1="293.9" y2="288.7" gradientTransform="matrix(1.06 0 0 -1.06 -823 323.4)"/><linearGradient xlink:href="#a" id="q" x1="797.4" x2="800.9" y1="292.8" y2="289.4" gradientTransform="matrix(1.06 0 0 -1.06 -837 323.4)"/><linearGradient xlink:href="#a" id="r" x1="806.1" x2="810.2" y1="280.3" y2="275.1" gradientTransform="matrix(1 0 0 -1 -795 296)"/><linearGradient xlink:href="#a" id="s" x1="842.6" x2="845.7" y1="260.1" y2="257.3" gradientTransform="matrix(.91 0 0 -.91 -759.3 256)"/><linearGradient xlink:href="#a" id="t" x1="630.2" x2="634.3" y1="294.4" y2="290" gradientTransform="matrix(1.58 0 0 -1.58 -979.6 480.8)"/><style>.p{fill:#888a85}.c,.i{fill:#c4c5c2}.i{stroke:#888a85;stroke-miterlimit:2}.p{fill-rule:evenodd}.y{fill:#fff;stroke:#729fcf;stroke-miterlimit:10}</style></defs><path d="M23 0a7.5 7.5 0 0 0-6.4 3.8 6.5 6.5 0 0 0-3.1-.8 7 7 0 1 0 0 14 6.9 6.9 0 0 0 5.7-3.2A7.1 7.1 0 0 0 23 15a7.5 7.5 0 0 0 2.6-.5 7 7 0 0 0 2 2.2l-.1.4a7 7 0 1 0 14 0 6.7 6.7 0 0 0-3.1-5.6l.1-.4a7 7 0 0 0-7-7 5.8 5.8 0 0 0-1.8.4A7.1 7.1 0 0 0 23 0Z" style="fill:#888a85"/><path d="M23 1a6.7 6.7 0 0 0-6.1 4.2A5.8 5.8 0 0 0 13.5 4a6 6 0 1 0 5.3 8.5A6.4 6.4 0 0 0 23 14a5.7 5.7 0 0 0 2.9-.8 5.7 5.7 0 0 0 1.9 2.4 5.8 5.8 0 0 0-.4 1.8 6.5 6.5 0 1 0 9.8-5.5 3.5 3.5 0 0 0 .2-1A6 6 0 0 0 29 5.4 6.2 6.2 0 0 0 23 1Z" style="fill:url(#a)"/><path d="M40.5 17.5a6.5 6.5 0 1 1-13 0 6.5 6.5 0 1 1 13 0ZM28.5 7.5a5.5 5.5 0 0 1-11 0 5.5 5.5 0 0 1 11 0Z" class="c"/><path d="M28.5 7.5a5.5 5.5 0 0 1-11 0 5.5 5.5 0 0 1 11 0Z" style="fill:url(#b)"/><path d="M36.5 11.5a5.5 5.5 0 1 1-11 0 5.5 5.5 0 1 1 11 0Z" class="c"/><path d="M36.5 11.5a5.5 5.5 0 1 1-11 0 5.5 5.5 0 1 1 11 0Z" style="fill:url(#c)"/><path d="M18.5 10a5 5 0 1 1-5-5 5 5 0 0 1 5 5Z" class="c"/><path d="M18.5 10a5 5 0 1 1-5-5 5 5 0 0 1 5 5Z" style="fill:url(#d)"/><path d="M29.5 14a7 7 0 0 1-14 0 7 7 0 0 1 14 0Z" class="c"/><path d="M29.5 14a7 7 0 0 1-14 0 7 7 0 0 1 14 0Z" style="fill:url(#e)"/><path d="M15 16.5a5 5 0 1 1-5-5 5 5 0 0 1 5 5Z" class="c"/><path d="M15.2 16.4a5 5 0 1 1-5.1-5 5 5 0 0 1 5 5Z" style="fill:url(#f)"/><path d="M30 12.5a5 5 0 0 0-4.7 3.6 4.4 4.4 0 0 0-2.3-.6 5 5 0 0 0-5 5 7.6 7.6 0 0 0 .3 1.6A4.4 4.4 0 0 0 16 26a4.5 4.5 0 0 0 4.5 4.5h19A4.5 4.5 0 0 0 44 26a4.6 4.6 0 0 0-2.3-3.9 4.2 4.2 0 0 0 .3-1.6 5 5 0 0 0-5-5 6 6 0 0 0-2.3.6 5 5 0 0 0-4.7-3.6Z" class="i"/><path d="M30 13c-2.2 0-3.7 1.3-4.4 3.8a6.2 6.2 0 0 0-2.4-.8 4.6 4.6 0 0 0-4.8 4.5 11.6 11.6 0 0 0 .4 1.8 4 4 0 0 0 1.9 7.7H39a4 4 0 0 0 4.3-4.3 4 4 0 0 0-2.4-3.4 6 6 0 0 0 .5-1.8 4.6 4.6 0 0 0-4.8-4.6 6.3 6.3 0 0 0-2.3.8A4.3 4.3 0 0 0 30 13Z" style="fill:url(#g)"/><path d="M33.5 17.5A3.5 3.5 0 1 1 30 14a3.5 3.5 0 0 1 3.5 3.5Z" class="c"/><path d="M33.5 17.5A3.5 3.5 0 1 1 30 14a3.5 3.5 0 0 1 3.5 3.5Z" style="fill:url(#h)"/><path d="M20.5 20h20v9h-20z" class="c"/><path d="M23.5 26a3 3 0 1 1-3-3 3 3 0 0 1 3 3ZM40.5 20.5A3.5 3.5 0 1 1 37 17a3.5 3.5 0 0 1 3.5 3.5Z" class="c"/><path d="M40.5 20.5A3.5 3.5 0 1 1 37 17a3.5 3.5 0 0 1 3.5 3.5Z" style="fill:url(#i)"/><path d="M26.5 20.5A3.5 3.5 0 1 1 23 17a3.5 3.5 0 0 1 3.5 3.5Z" class="c"/><path d="M26.5 20.5A3.5 3.5 0 1 1 23 17a3.5 3.5 0 0 1 3.5 3.5Z" style="fill:url(#j)"/><path d="M29 17a6.5 6.5 0 0 0-6.5 6.5 6.3 6.3 0 0 0 3.3 5.5h6.5a6.4 6.4 0 0 0 3.3-5.5A6.6 6.6 0 0 0 29 17Z" class="c"/><path d="M29 17a6.5 6.5 0 0 0-6.5 6.5 6.2 6.2 0 0 0 3.3 5.5h6.5a6.4 6.4 0 0 0 3.3-5.5A6.6 6.6 0 0 0 29 17Z" style="fill:url(#k)"/><path d="M23.5 26a3 3 0 1 1-3-3 3 3 0 0 1 3 3Z" style="fill:url(#l)"/><path d="M42.5 20.7c0 2.7-3.3 3.7-3.3 3.7s2.3-1.6 2.3-3.7Z" class="p"/><path d="M37.5 25a4 4 0 1 1-4-4 4 4 0 0 1 4 4Z" class="c"/><path d="M37.5 25a4 4 0 1 1-4-4 4 4 0 0 1 4 4Z" style="fill:url(#m)"/><path d="M15 8.5a5 5 0 0 0-4.7 3.6 4.4 4.4 0 0 0-2.3-.6 5 5 0 0 0-5 5 7.6 7.6 0 0 0 .3 1.6A4.4 4.4 0 0 0 1 22a4.5 4.5 0 0 0 4.5 4.5h19A4.5 4.5 0 0 0 29 22a4.6 4.6 0 0 0-2.3-3.9 4.2 4.2 0 0 0 .3-1.6 5 5 0 0 0-5-5 6 6 0 0 0-2.3.6A5 5 0 0 0 15 8.5Z" class="i"/><path d="M15 9c-2.2 0-3.7 1.3-4.4 3.8a6.2 6.2 0 0 0-2.4-.8 4.6 4.6 0 0 0-4.8 4.5 11.6 11.6 0 0 0 .4 1.8A4 4 0 0 0 5.7 26H24a4 4 0 0 0 4.3-4.3 4 4 0 0 0-2.4-3.4 6 6 0 0 0 .5-1.8 4.6 4.6 0 0 0-4.8-4.6 6.3 6.3 0 0 0-2.3.8A4.3 4.3 0 0 0 15 9Z" style="fill:url(#n)"/><path d="M18.5 13.5A3.5 3.5 0 1 1 15 10a3.5 3.5 0 0 1 3.5 3.5Z" class="c"/><path d="M18.5 13.5A3.5 3.5 0 1 1 15 10a3.5 3.5 0 0 1 3.5 3.5Z" style="fill:url(#o)"/><path d="M5.5 16h20v9h-20z" class="c"/><path d="M8.5 22a3 3 0 0 1-3 3 3 3 0 0 1 0-6 3 3 0 0 1 3 3ZM25.5 16.5A3.5 3.5 0 1 1 22 13a3.5 3.5 0 0 1 3.5 3.5Z" class="c"/><path d="M25.5 16.5A3.5 3.5 0 1 1 22 13a3.5 3.5 0 0 1 3.5 3.5Z" style="fill:url(#p)"/><path d="M11.5 16.5A3.5 3.5 0 0 1 8 20a3.5 3.5 0 0 1 0-7 3.5 3.5 0 0 1 3.5 3.5Z" class="c"/><path d="M11.5 16.5A3.5 3.5 0 0 1 8 20a3.5 3.5 0 0 1 0-7 3.5 3.5 0 0 1 3.5 3.5Z" style="fill:url(#q)"/><path d="M14 13a6.5 6.5 0 0 0-6.5 6.5 6.3 6.3 0 0 0 3.3 5.5h6.5a6.4 6.4 0 0 0 3.3-5.5A6.6 6.6 0 0 0 14 13Z" class="c"/><path d="M14 13a6.5 6.5 0 0 0-6.5 6.5 6.2 6.2 0 0 0 3.3 5.5h6.5a6.4 6.4 0 0 0 3.3-5.5A6.6 6.6 0 0 0 14 13Z" style="fill:url(#r)"/><path d="M8.5 22a3 3 0 0 1-3 3 3 3 0 0 1 0-6 3 3 0 0 1 3 3Z" style="fill:url(#s)"/><path d="M27.5 16.7c0 2.7-3.3 3.7-3.3 3.7s2.3-1.6 2.3-3.7Z" class="p"/><path d="M22.5 21a4 4 0 1 1-4-4 4 4 0 0 1 4 4Z" class="c"/><path d="M22.5 21a4 4 0 1 1-4-4 4 4 0 0 1 4 4Z" style="fill:url(#t)"/><path d="M9 30a1.5 1.5 0 0 1-1.5 1.5 1.5 1.5 0 1 1 0-3A1.5 1.5 0 0 1 9 30ZM17 33.5a2 2 0 1 1-2-2 2 2 0 0 1 2 2Z" class="y"/><path d="M10 38a1.5 1.5 0 1 1-1.5-1.5A1.5 1.5 0 0 1 10 38ZM39 35a1.5 1.5 0 1 1-1.5-1.5A1.5 1.5 0 0 1 39 35Z" style="stroke-width:1.47px;stroke-miterlimit:1;fill:#fff;stroke:#729fcf"/><path d="M28 31a2.5 2.5 0 0 1-2.4 2.5 2.4 2.4 0 0 1-2.4-2.5 2.5 2.5 0 0 1 2.4-2.5A2.6 2.6 0 0 1 28 31Z" style="stroke-width:.9px;stroke-miterlimit:1;fill:#fff;stroke:#729fcf"/><path d="M33 38.2a2.5 2.5 0 1 1-2.5-2.3 2.4 2.4 0 0 1 2.5 2.3Z" style="stroke-width:.92px;stroke-miterlimit:1;fill:#fff;stroke:#729fcf"/><path d="M22 39a1.5 1.5 0 1 1-1.5-1.5A1.5 1.5 0 0 1 22 39Z" style="stroke-width:1.46px;stroke-miterlimit:1;fill:#fff;stroke:#729fcf"/></svg>