<svg xmlns="http://www.w3.org/2000/svg" xmlns:xlink="http://www.w3.org/1999/xlink" viewBox="0 0 45 45"><defs><style>.a{fill:#eaece8;}.b,.c,.d,.f{fill:#787974;}.ab,.b,.c,.d,.e,.f,.g,.h,.i,.n{fill-rule:evenodd;}.b{opacity:0.11;}.b,.c,.d,.e,.f,.g,.h,.i,.j,.k,.l,.m{isolation:isolate;}.c{opacity:0.19;}.d,.i{opacity:0.18;}.e{fill:#f3f4f2;opacity:0.47;}.f{opacity:0.12;}.g,.h{fill:#938f8b;}.g{opacity:0.2;}.h{opacity:0.29;}.i{fill:url(#a);}.j,.k,.n,.q{fill:#fff;}.j{opacity:0.62;}.k,.l{opacity:0.54;}.l,.m{fill:#c2c3be;}.m{opacity:0.57;}.o{opacity:0.32;}.p{fill:#a3a4a0;}.r,.s{fill:none;}.r,.t{stroke:#888a85;}.r{stroke-miterlimit:5.52;}.s{stroke:#fff;stroke-linecap:square;stroke-miterlimit:5.24;}.t,.v{fill:#c4c5c2;}.t{stroke-miterlimit:2;}.u{fill:url(#b);}.w{fill:url(#c);}.x{fill:url(#d);}.y{fill:url(#e);}.z{fill:url(#f);}.aa{fill:url(#g);}.ab{fill:#888a85;}.ac{fill:url(#h);}</style><radialGradient id="a" cx="17665.55" cy="6377.54" r="364.55" gradientTransform="translate(-328.96 -149.99) scale(0.02 0.03)" gradientUnits="userSpaceOnUse"><stop offset="0" stop-color="#787974"/><stop offset="1" stop-color="#787974" stop-opacity="0"/></radialGradient><linearGradient id="b" x1="767.72" y1="-242.63" x2="781.32" y2="-233.83" gradientTransform="translate(-747 267.9)" gradientUnits="userSpaceOnUse"><stop offset="0" stop-color="#fff"/><stop offset="1" stop-color="#fff" stop-opacity="0"/></linearGradient><linearGradient id="c" x1="762.16" y1="-250.54" x2="764.26" y2="-247.24" gradientTransform="translate(-778.78 289.62) scale(1.06)" xlink:href="#b"/><linearGradient id="d" x1="761.02" y1="-252.13" x2="764.32" y2="-247.13" gradientTransform="translate(-771.78 292.62) scale(1.06)" xlink:href="#b"/><linearGradient id="e" x1="761.74" y1="-250.83" x2="765.14" y2="-247.43" gradientTransform="translate(-785.78 292.62) scale(1.06)" xlink:href="#b"/><linearGradient id="f" x1="776.32" y1="-240.31" x2="780.22" y2="-235.31" gradientTransform="translate(-750 267.9)" xlink:href="#b"/><linearGradient id="g" x1="818.19" y1="-218.21" x2="821.19" y2="-215.51" gradientTransform="translate(-723.83 231.97) scale(0.91)" xlink:href="#b"/><linearGradient id="h" x1="576.99" y1="-253.31" x2="580.99" y2="-249.01" gradientTransform="translate(-881.84 429.06) scale(1.58)" xlink:href="#b"/></defs><title>wi_code1_night</title><path class="a" d="M35,20.63A12.5,12.5,0,1,1,22.5,8.13,12.5,12.5,0,0,1,35,20.63Z"/><path class="b" d="M16.83,9.84a.67.67,0,0,1-.27.54c-.21.28-.28.35,0,.69h.68a5.63,5.63,0,0,0,.89-.34c.23-.06.46-.13.68-.21a.74.74,0,0,1,.68.21c.14.13-.47.47-.47.47-.21,0-.48.21-.69.28a3.28,3.28,0,0,1-.82.2c-.27,0-.47.21-.68.28a6.89,6.89,0,0,0-1,.75.82.82,0,0,0-.27.82c.07.27.21.47.48.47a.67.67,0,0,0,.68-.27c.21-.27.28-.68.55-.82l.55-.54a.67.67,0,0,1,.68-.21c.2,0,.34.27.68.34s.55-.27.75-.34l.07-.07a2.73,2.73,0,0,1,.75-.07,1.22,1.22,0,0,1,.69.21,1.74,1.74,0,0,1,.75.27,4,4,0,0,1,.54.55c.07.27.21.34.34.55s.55.34.76.54a4.37,4.37,0,0,1,.27.68,1.63,1.63,0,0,1,0,.82l-.48.82c0,.28-.48.48-.68.69s-.82.27-1.09.54l-.69,1c-.34.34,0,.54.28.48a3,3,0,0,1,.95-.21h.21a6.76,6.76,0,0,0,1-.48c.48-.07,1.37.55,1.85.82s0,.55-.21.69a1.39,1.39,0,0,1-1,.2l-.68-.07a1,1,0,0,0-.68,0,.47.47,0,0,0-.15.66v0a2.33,2.33,0,0,1,.48.68c.07.34-.21.55-.34.68a3.86,3.86,0,0,1-1,0,2.24,2.24,0,0,0-.95.41,4.43,4.43,0,0,0-.28.68v.28a.91.91,0,0,0,.34.75l.35.68c.06.21.2.48.06.69a1.46,1.46,0,0,0-.2.68,2,2,0,0,0,.27.82c.07.34,0,.34-.2.68a1.79,1.79,0,0,1-.69.34,1.48,1.48,0,0,1-.88-.07.83.83,0,0,0-.69.21c-.27.2-.27.27-.54,0a2,2,0,0,1-.55-1v-.2a3.75,3.75,0,0,1,0-.82l.07-.75c0-.27-.68.27-1,.34H16.9a1,1,0,0,0-.34.89c0,.34.2.54.2.95s-.34.35-.68.35-.55-.48-.68-.69-.69-.48-.82-.75-.28-.68.2-.95c.27-.21.55-.21.75-.48s.48-.55,0-.75c-.27-.07-.48-.21-.68-.07h-.27a1.49,1.49,0,0,1-1.23-.21,4.55,4.55,0,0,1-.82-.82,2,2,0,0,1-.55-1,4,4,0,0,0-.27-1,2.82,2.82,0,0,1,0-.82l-.14-.82V17.83l.07-.82v-.07a5.16,5.16,0,0,1,.27-1l.34-.76a6.24,6.24,0,0,1,.35-.68l.54-.75,1-1.09a7.12,7.12,0,0,0,.54-.69l1-.75a2,2,0,0,0,.68-.68,3.32,3.32,0,0,1,.34-.68l.21-.07Z"/><path class="c" d="M27.08,14.62a3.78,3.78,0,0,1-1.57,0c-.35,0-.35-.21-.69.14h-.13c-.21.27-.28.34-.28.61v1.44a1.76,1.76,0,0,0,.28.75,2,2,0,0,0,.34.54,2.52,2.52,0,0,0,.95.34,2.36,2.36,0,0,0,.75,0c.28,0,.35,0,.35.35s-.55.68-.75.95-.07.55,0,.82a3.22,3.22,0,0,0,.2.69c.14.34.07.54.34.68s.68,0,.82.34a1.46,1.46,0,0,1,.07.55c0,.27.07.47.34.27s.48-.07.68-.34a2.13,2.13,0,0,0,.35-.82c.06-.27.34-.27.54-.27a3.14,3.14,0,0,0,.75,0,1.3,1.3,0,0,0,.69-.48c.41-.34.34-.55.41-1a1.24,1.24,0,0,0-.07-.54V19.4c-.07-.2-.48-.2-.68-.2a6.45,6.45,0,0,1-1.23-.28c-.21,0-.69-.68-.76-.75a.68.68,0,0,1-.27-.54l-.07-1c-.07-.27,0-.55-.27-.82a1.47,1.47,0,0,1-.34-.75,1.66,1.66,0,0,0-.48-.69C27.28,14.62,27.28,14.69,27.08,14.62Z"/><path class="d" d="M32.75,16.74c-.21,0-.35.27-.55.34s-.07.48-.07.68l.07.68a2,2,0,0,0,.34.55,1.51,1.51,0,0,0,.75.41c.34,0,.55,0,.75-.34a2.81,2.81,0,0,0,.21-.68,2.66,2.66,0,0,0-.07-.75.68.68,0,0,0-.48-.55c-.2-.07-.34-.27-.54-.48A.49.49,0,0,1,32.75,16.74Z"/><path class="e" d="M21.13,28.28c.14,0,.69-.68,1.17-1,.06,0,.2,0,.2-.21a6.43,6.43,0,0,0,1-1.3,4.77,4.77,0,0,0,.82-2.05c.21-.95.28-.27,0,.28v.27L24,25.48c-.2.55-.68,1-.68,1.5a1.59,1.59,0,0,0-.14,1c.07.27.48-.34.75-.48s.48-.2.48.21a2.38,2.38,0,0,1-.2.95c0,.48,1.23.07,1.5,0A5,5,0,0,0,28,27.39c.82-.68,1.51-1.5,2.33-2.25s.95-1,.54,0l-.07.27-.06.28a3.42,3.42,0,0,1-1.1,1.5c-.75.54-1.3,1.5-2.12,1.84a3,3,0,0,1-1,.34c-.34.21.68.28.82.35,1.84.34-1.5.54-2,.54-.68,0-1-.2-1.57.21-.21.06.82.54.95.54a8.9,8.9,0,0,0,1.3.34c.75,0-1.64.28-2.32.07a7,7,0,0,0-1.64-.34,3.75,3.75,0,0,0-.82,0v.82c0,.55-.2,1-.34.21a3,3,0,0,1-.34-1.3c0-.28-.34.48-.55.68a4,4,0,0,1-.82.82,3.91,3.91,0,0,0,.34-1c.07-.27.55-1,.21-1.09h-1a5.46,5.46,0,0,1-1.3-.41,19.3,19.3,0,0,0-2.87-1l-.2-.21a4.64,4.64,0,0,0,3.14,1.37,3.5,3.5,0,0,0,1.23-.28c.21,0,.48-.34.75-.47s-.34-.35-.54-.55a.21.21,0,0,0-.21-.21c-.68-.82-.95-1.84-1.64-2.66,0,0-2-2.25-1.09-1.5a15,15,0,0,1,2.39,2.25l1.09,1.5c.34.48.28,0,.21-.34a8.2,8.2,0,0,1,0-2.32c0-1,.41,1,.48,1.09.06.48.34,1,.75.55s.34-.55.34,0v.2a1,1,0,0,0-.27,1Z"/><path class="f" d="M31.86,20.15a1,1,0,0,1,.2.55l-.75.68a1.43,1.43,0,0,0-.27.69,2.75,2.75,0,0,0-.07.81l.27.69c0,.27.34.34.55.68a1.5,1.5,0,0,0,1,.41c.34,0-.28.48-.35.55a2.94,2.94,0,0,0-.68.54c-.2.28.21.48.34.55s.55-.27.69-.48a.83.83,0,0,0,.34-.68v-.82l.13-.75a1.68,1.68,0,0,1,.35-.69.77.77,0,0,0,0-.75l-.21-.68a.6.6,0,0,0-.55-.34c-.2-.07-.54-.48-.68-.55,0-.34,0-.54-.27-.54Z"/><path class="g" d="M20.31,10.25l.82-.28a5.13,5.13,0,0,1,1,0s.27.41.55.41h.2a1.58,1.58,0,0,1,.68.35c.21.2,0,.47,0,.54-.34.28-.54,0-.68-.07a2.94,2.94,0,0,0-.61-.34,2.66,2.66,0,0,0-.69,0,2.7,2.7,0,0,1-.88.21,4.76,4.76,0,0,1-.55-.55l.27-.34Z"/><path class="h" d="M24.75,10.86a3.85,3.85,0,0,0,1,0,3.63,3.63,0,0,1,1.23,0c.2,0,1.5.28,1,.55a4.18,4.18,0,0,1-.82.34c-.28.21.34.27.54.27s.21.48.07.69a.8.8,0,0,0,0,.82c.07.27.48.2.75.2a.84.84,0,0,1,.75.27.77.77,0,0,1,.28.69c-.07.2-.69.27-.82.27s-.75-.75-.75-.75c-.21-.21-.48,0-.69,0a1.19,1.19,0,0,1-.82-.55c-.27-.2-.34-.47-.54-.75s.07-.48-.34-.48a1.12,1.12,0,0,1-.69-.2c-.27-.21-.54-.07-.54-.55s0-.48.34-.68C24.48,11,24.69,11,24.75,10.86Z"/><path class="i" d="M16.9,9.77a.7.7,0,0,1-.27.55c-.21.27-.28.34,0,.68h.68a6,6,0,0,0,.89-.34c.23-.06.46-.13.68-.21a.75.75,0,0,1,.68.21c.14.13-.48.48-.48.48-.2,0-.47.2-.68.27a3.28,3.28,0,0,1-.82.2c-.27,0-.48.21-.68.28a7.23,7.23,0,0,0-.89.68.81.81,0,0,0-.27.89c.07.27.2.48.48.48a.68.68,0,0,0,.68-.28c.2-.27.27-.68.55-.82L18,12.3a.7.7,0,0,1,.68-.21c.21,0,.35.28.69.34s.54-.27.75-.34l.07-.07a2.69,2.69,0,0,1,.75-.06,1.11,1.11,0,0,1,.68.2,1.66,1.66,0,0,1,.75.27,4.08,4.08,0,0,1,.55.55c.07.27.2.34.34.55s.55.34.75.54a3.44,3.44,0,0,1,.28.69,1.63,1.63,0,0,1,0,.82l-.48.82c0,.27-.48.47-.69.68s-.81.27-1.09.55l-.68,1c-.34.34,0,.55.27.48a3.18,3.18,0,0,1,1-.21h.2a6.43,6.43,0,0,0,1-.48c.48-.06,1.36.55,1.84.82s0,.48-.2.69a1.33,1.33,0,0,1-1,.13H23.8a1,1,0,0,0-.69,0,.48.48,0,0,0-.15.66l0,0a2.47,2.47,0,0,1,.48.68.76.76,0,0,1-.35.68,3.78,3.78,0,0,1-.95,0,2.56,2.56,0,0,0-1,.41,4.12,4.12,0,0,0-.27.69v.27a.88.88,0,0,0,.2.75l.35.68a1,1,0,0,1,.06.76,1.46,1.46,0,0,0-.2.68,2,2,0,0,0,.27.75c.07.34,0,.34-.2.68a1.79,1.79,0,0,1-.69.34,1.47,1.47,0,0,1-.88,0,.89.89,0,0,0-.69.14c-.27.21-.27.27-.54,0a2,2,0,0,1-.55-1v-.21a3.75,3.75,0,0,1,0-.82l.07-.75c0-.27-.68.27-1,.34l-.27.07c-.34.21-.34.48-.34.82s.2.55.2,1-.34.34-.68.34-.55-.48-.68-.69-.69-.47-.82-.75-.28-.68.2-.95c.27-.21.55-.21.75-.48s.48-.55,0-.75c-.27-.07-.48-.21-.68-.07h-.27a1.49,1.49,0,0,1-1.23-.21,4.25,4.25,0,0,1-.82-.82,2,2,0,0,1-.55-1,4,4,0,0,0-.27-1,2.82,2.82,0,0,1,0-.82l-.14-.82V17.83l.07-.82v-.07a5.16,5.16,0,0,1,.27-1l.34-.76a6.24,6.24,0,0,1,.35-.68l.54-.75,1-1.09a7.91,7.91,0,0,0,.54-.75l1-.76a2,2,0,0,0,.68-.68,3.32,3.32,0,0,1,.34-.68Z"/><path class="j" d="M20.31,21.18a.68.68,0,1,1-.68-.69A.68.68,0,0,1,20.31,21.18Z"/><path class="k" d="M14.3,16.12a.34.34,0,0,1-.68,0,.34.34,0,0,1,.34-.27c.14-.07.34.14.34.34Z"/><path class="l" d="M29.4,20.43a.69.69,0,1,1-.68-.69A.69.69,0,0,1,29.4,20.43Z"/><path class="m" d="M24.69,29.85a.69.69,0,1,1-.69-.68A.68.68,0,0,1,24.69,29.85Z"/><path class="j" d="M28.58,20.63a.33.33,0,0,1-.34.27.39.39,0,0,1-.34-.27.34.34,0,0,1,.26-.4h.08a.35.35,0,0,1,.35.34S28.58,20.61,28.58,20.63Zm-7.72,9.7a.34.34,0,1,1-.34-.34A.33.33,0,0,1,20.86,30.33ZM27,26a.34.34,0,1,1-.34-.34A.34.34,0,0,1,27,26Zm4.85-10.59a.34.34,0,0,1-.34.34.41.41,0,0,1-.35-.34.35.35,0,0,1,.35-.34A.34.34,0,0,1,31.86,15.44Zm-2.8.68a.35.35,0,0,1-.69,0,.35.35,0,0,1,.35-.27c.13-.07.34.14.34.34ZM30.15,12a.34.34,0,1,1-.68,0,.34.34,0,0,1,.34-.27c.2,0,.34,0,.34.34Zm-8.26,12.3a.35.35,0,1,1-.35-.34A.32.32,0,0,1,21.89,24.32Z"/><path class="n" d="M21,28.55a10.9,10.9,0,0,0,1.09-.95l.21-.21a4.41,4.41,0,0,0,.95-1.23A3.74,3.74,0,0,0,24,24.32c.21-1,.21-.27,0,.27a.45.45,0,0,1,0,.28A3,3,0,0,1,23.66,26L23,27.32c0,.28-.21.55,0,.82s.41-.27.68-.34.48-.2.48.21a1.72,1.72,0,0,1-.21.82c0,.34,1.1.07,1.37,0a4.29,4.29,0,0,0,2.12-1.1l2.12-2c.54-.55.82-1,.47,0L30,26l-.07.27a3.32,3.32,0,0,1-1,1.37c-.75.48-1.23,1.3-2,1.77-.27.21-.68.21-.95.35s.68.27.81.27c1.78.34-1.36.54-1.77.54a2.76,2.76,0,0,0-1.5.21c-.21,0,.82.48.82.48a5.09,5.09,0,0,0,1.23.34c.75,0-1.51.2-2.05,0a6.32,6.32,0,0,0-1.64-.27,2.82,2.82,0,0,0-.82,0V32c0,.55,0,1-.34.27A6.63,6.63,0,0,1,20.31,31c0-.27-.34.34-.54.69a4,4,0,0,1-.69.68,5.26,5.26,0,0,0,.21-.75c.07-.28.48-1,.2-1l-.95-.07a10.15,10.15,0,0,1-1.23-.34,12.89,12.89,0,0,0-2.6-.82s-1.23-1.29,0-.2a4.19,4.19,0,0,0,2.8,1.23,3,3,0,0,0,1.1-.21c.2,0,.47-.27.68-.34s-.34-.27-.55-.48l-.2-.2c-.68-.75-.82-1.78-1.57-2.39,0-.07-1.78-2.05-1-1.37a23.09,23.09,0,0,1,2.26,2.05l1,1.37c.34.41.27-.07.21-.34a7.53,7.53,0,0,1,0-2.12c0-.82.41.82.41,1,.06.48.34,1,.68.55s.34-.55.34,0V28C21,28.08,21,28.28,21,28.55Z"/><g class="o"><path class="p" d="M28,16.67a1.64,1.64,0,1,1-1.63-1.57A1.56,1.56,0,0,1,28,16.6Zm1.85,3.62a1.64,1.64,0,1,1-1.64-1.64A1.64,1.64,0,0,1,29.81,20.29Z"/><path class="p" d="M31.58,20.22a1,1,0,0,1-.95,1.09,1,1,0,0,1-1.09-.95,1,1,0,0,1,.95-1.09h.07A1,1,0,0,1,31.58,20.22Zm-9.08-5A2.46,2.46,0,0,1,20,17.56H19.9a2.46,2.46,0,0,1-2.52-2.39h0a2.46,2.46,0,0,1,2.46-2.46h.06a2.46,2.46,0,0,1,2.53,2.39h0Zm-5,5.73a2.94,2.94,0,0,1-5.87-.06h0a2.94,2.94,0,0,1,5.87,0Z"/><path class="p" d="M20.79,23.43a2.32,2.32,0,1,1-2.39-2.25h.07A2.38,2.38,0,0,1,20.79,23.43Zm-1.5-6.08a2.32,2.32,0,1,1-2.46-2.18H17a2.25,2.25,0,0,1,2.32,2.18v0Z"/></g><path class="q" d="M21.82,29.65a.69.69,0,1,1-.69-.69A.69.69,0,0,1,21.82,29.65Z"/><path class="r" d="M35,20.77A12.5,12.5,0,1,1,22.5,8.26,12.49,12.49,0,0,1,35,20.77Z"/><path class="s" d="M29.33,11.34a11.61,11.61,0,1,1-16.26,2.53,11.6,11.6,0,0,1,16.26-2.53Z"/><path class="t" d="M30.1,20.7a5,5,0,0,0-4.6,3.5,4.19,4.19,0,0,0-2.2-.5,5,5,0,0,0-4.9,4.9,4.37,4.37,0,0,0,.3,1.6A4.39,4.39,0,0,0,16.4,34a4.31,4.31,0,0,0,4.3,4.3H39.2A4.31,4.31,0,0,0,43.5,34a4.59,4.59,0,0,0-2.3-3.8,7.29,7.29,0,0,0,.3-1.6,5,5,0,0,0-4.9-4.9,8,8,0,0,0-2.2.5A4.2,4.2,0,0,0,30.1,20.7Z"/><path class="u" d="M30.1,21.2c-2.2,0-3.7,1.4-4.2,3.7a6.31,6.31,0,0,0-2.3-.8A4.4,4.4,0,0,0,19,28.29v.11a9.35,9.35,0,0,0,.4,1.8,4.21,4.21,0,0,0-2.3,3.3,4,4,0,0,0,4,4h18a4,4,0,0,0,4.2-3.79V33.5A4,4,0,0,0,41,30.2a7.94,7.94,0,0,0,.4-1.8,4.39,4.39,0,0,0-4.29-4.5H36.8a4.89,4.89,0,0,0-2.3.8A4.6,4.6,0,0,0,30.1,21.2Z"/><path class="v" d="M33.5,25.6a3.4,3.4,0,1,1-3.4-3.4h0A3.4,3.4,0,0,1,33.5,25.6Z"/><path class="w" d="M33.5,25.6a3.4,3.4,0,1,1-3.4-3.4h0A3.4,3.4,0,0,1,33.5,25.6Z"/><path class="v" d="M20.9,28H40.3v8.7H20.9Z"/><path class="v" d="M23.9,33.7A3,3,0,0,1,21,36.6a2.9,2.9,0,0,1,0-5.8h0A3.1,3.1,0,0,1,23.9,33.7Zm16.4-5.3A3.4,3.4,0,1,1,36.9,25a3.4,3.4,0,0,1,3.4,3.4Z"/><path class="x" d="M40.3,28.4A3.4,3.4,0,1,1,36.9,25a3.4,3.4,0,0,1,3.4,3.4Z"/><path class="v" d="M26.7,28.4A3.4,3.4,0,1,1,23.3,25h0a3.3,3.3,0,0,1,3.4,3.2Z"/><path class="y" d="M26.7,28.4A3.4,3.4,0,1,1,23.3,25h0a3.3,3.3,0,0,1,3.4,3.2Z"/><path class="v" d="M29.2,25a6.3,6.3,0,0,0-6.3,6.3A6.5,6.5,0,0,0,26,36.6h6.3a6,6,0,0,0,3.1-5.3A6.3,6.3,0,0,0,29.2,25Z"/><path class="z" d="M29.2,25a6.3,6.3,0,0,0-6.3,6.3A6.5,6.5,0,0,0,26,36.6h6.3a6,6,0,0,0,3.1-5.3A6.3,6.3,0,0,0,29.2,25Z"/><path class="aa" d="M23.9,33.7a2.9,2.9,0,1,1-2.9-3A3.09,3.09,0,0,1,23.9,33.7Z"/><path class="ab" d="M42,28.4c0,2.6-2.9,3.7-2.9,3.7S41,30.5,41,28.6Z"/><path class="v" d="M37.4,32.8a3.9,3.9,0,1,1-3.9-3.9,3.91,3.91,0,0,1,3.9,3.9Z"/><path class="ac" d="M37.4,32.8a3.9,3.9,0,1,1-3.9-3.9,3.91,3.91,0,0,1,3.9,3.9Z"/></svg>