<svg xmlns="http://www.w3.org/2000/svg" viewBox="0 0 45 45"><path d="M19.5 3v3.3L17 4.9 15.8 7l3.7 2.1v4.8l-4.2-2.4V7.2h-2.5v2.9L9.9 8.5l-1.2 2.1 2.8 1.6L9 13.6l1.2 2.2 3.7-2.1 4.2 2.4-4.2 2.4-3.7-2.1L9 18.6l2.5 1.4-2.8 1.6 1.2 2.2 2.8-1.6V25h2.5v-4.3l4.2-2.4v4.8l-3.7 2.1 1.2 2.2 2.5-1.4v3.3H22V26l2.5 1.4 1.2-2.2-3.7-2.1v-4.8l4.2 2.4V25h2.5v-2.9l2.8 1.6 1.2-2.2-2.7-1.6 2.5-1.4-1.2-2.2-3.7 2.1-4.3-2.3 4.2-2.4 3.7 2.1 1.2-2.2-2.5-1.4 2.8-1.6-1.2-2.2-2.8 1.7V7.3h-2.5v4.3L22 14V9.1L25.8 7l-1.2-2.2L22 6.2V3Z" style="fill:#fff;stroke:#729fcf;stroke-miterlimit:10"/><path d="M33 24.5v2.2l-1.6-.9-.9 1.3 2.5 1.4v3.2l-2.8-1.6v-2.9h-1.7v1.9l-1.8-1-.9 1.5 1.9 1.1-1.7.9.8 1.4 2.5-1.4 2.8 1.6-2.8 1.6-2.5-1.4-.8 1.4 1.7 1-2 1.1.8 1.4 1.9-1.1v1.9h1.7v-2.9l2.8-1.6v3.2l-2.5 1.4.8 1.4 1.6-1v2.2h1.7v-2.2l1.6.9.8-1.4-2.5-1.4v-3.2l2.8 1.6V39h1.7v-1.9l1.9 1.1.8-1.4-1.9-1.1 1.6-.9-.6-1.4-2.5 1.4-2.8-1.6 2.8-1.6 2.5 1.4.8-1.4-1.7-1 1.9-1.1-.7-1.4-2 1.1v-1.9h-1.7v2.9l-2.8 1.6v-3.2l2.5-1.4-.8-1.4-1.6 1v-2.2H33Z" style="stroke-width:.75px;fill:#fff;stroke:#729fcf;stroke-miterlimit:10"/><path d="M8.6 26.4v1.7l-1.2-.7-.7 1 1.9 1.1V32l-2.1-1.2v-2.2H5.3v1.5l-1.4-.8-.6 1.1 1.3.7-1.2.7.6 1.1 1.9-1.1 2 1.3-2.1 1.2-1.9-1.1-.6 1.1 1.3.8-1.4.8.6 1.1 1.4-.8v1.5h1.2v-2.2l2.1-1.2v2.5l-1.8 1 .6 1.1 1.3-.8v1.7h1.2v-1.7l1.2.7.6-1.1-1.9-1.1v-2.5l2.1 1.2v2.2H13V36l1.4.8.6-1.1-1.2-.6 1.2-.7-.6-1.1-1.9 1.1-2.1-1.3 2.1-1.2 1.9 1.1.6-1.1-1.2-.8 1.4-.8-.6-1.1-1.3.8v-1.5h-1.2v2.2L10 31.9v-2.5l1.9-1.1-.6-1.1-1.4.9v-1.7Z" style="stroke-width:.5px;fill:#fff;stroke:#729fcf;stroke-miterlimit:10"/></svg>