<svg xmlns="http://www.w3.org/2000/svg" xmlns:xlink="http://www.w3.org/1999/xlink" viewBox="0 0 45 45"><defs><linearGradient id="a" x1="1016.2" x2="1030.2" y1="209.5" y2="218.5" gradientTransform="translate(-996 -200)" gradientUnits="userSpaceOnUse"><stop offset="0" stop-color="#fff"/><stop offset="1" stop-color="#fff" stop-opacity="0"/></linearGradient><linearGradient xlink:href="#a" id="b" x1="1012" x2="1014.1" y1="194.5" y2="198" gradientTransform="matrix(1.06 0 0 1.06 -1040.5 -198)"/><linearGradient xlink:href="#a" id="c" x1="1010.9" x2="1014.3" y1="193" y2="198.2" gradientTransform="matrix(1.06 0 0 1.06 -1033.5 -195)"/><linearGradient xlink:href="#a" id="d" x1="1010.8" x2="1014.3" y1="194.1" y2="197.6" gradientTransform="matrix(1.06 0 0 1.06 -1047.5 -195)"/><linearGradient xlink:href="#a" id="e" x1="1026.1" x2="1030.1" y1="211.7" y2="216.8" gradientTransform="translate(-1000 -200)"/><linearGradient xlink:href="#a" id="f" x1="1072.2" x2="1075.3" y1="241.8" y2="244.6" gradientTransform="matrix(.91 0 0 .91 -952.3 -202.5)"/><linearGradient xlink:href="#a" id="g" x1="729.9" x2="734" y1="205.9" y2="210.3" gradientTransform="matrix(1.8 0 0 1.8 -1286.3 -358.6)"/><linearGradient xlink:href="#a" id="h" x1="1061.2" x2="1075.2" y1="205.5" y2="214.5" gradientTransform="translate(-1056 -200)"/><linearGradient xlink:href="#a" id="i" x1="1057" x2="1059.1" y1="190.5" y2="194" gradientTransform="matrix(1.06 0 0 1.06 -1103 -197.8)"/><linearGradient xlink:href="#a" id="j" x1="1055.9" x2="1059.3" y1="189" y2="194.2" gradientTransform="matrix(1.06 0 0 1.06 -1096 -194.8)"/><linearGradient xlink:href="#a" id="k" x1="1055.8" x2="1059.3" y1="190.1" y2="193.6" gradientTransform="matrix(1.06 0 0 1.06 -1110 -194.8)"/><linearGradient xlink:href="#a" id="l" x1="1071.1" x2="1075.1" y1="207.7" y2="212.8" gradientTransform="translate(-1060 -200)"/><linearGradient xlink:href="#a" id="m" x1="1117.3" x2="1120.3" y1="237.8" y2="240.6" gradientTransform="matrix(.91 0 0 .91 -1008 -202.9)"/><linearGradient xlink:href="#a" id="n" x1="764.6" x2="768.7" y1="202.8" y2="207.2" gradientTransform="matrix(1.8 0 0 1.8 -1363.8 -357)"/><linearGradient xlink:href="#a" id="o" x1="3.3" x2="13.3" y1="-192.5" y2="-192.5" gradientTransform="matrix(1 0 0 -1 0 -160)"/><linearGradient xlink:href="#a" id="p" x1="10.5" x2="20.5" y1="-196.5" y2="-196.5" gradientTransform="matrix(1 0 0 -1 0 -160)"/><linearGradient xlink:href="#a" id="q" x1="25.9" x2="35.9" y1="-194.5" y2="-194.5" gradientTransform="matrix(1 0 0 -1 0 -160)"/><linearGradient xlink:href="#a" id="r" x1="33.1" x2="43.1" y1="-198.5" y2="-198.5" gradientTransform="matrix(1 0 0 -1 0 -160)"/><linearGradient xlink:href="#a" id="s" x1="7.4" x2="25.4" y1="-183.5" y2="-183.5" gradientTransform="matrix(1 0 0 -1 0 -160)"/><linearGradient xlink:href="#a" id="t" x1="19.4" x2="37.4" y1="-187.5" y2="-187.5" gradientTransform="matrix(1 0 0 -1 0 -160)"/><style>.a,.c{fill:#c4c5c2}.a{stroke:#888a85;stroke-miterlimit:2}.i{fill:#888a85;fill-rule:evenodd}</style></defs><path d="M30 4.5a5 5 0 0 0-4.7 3.6 4.4 4.4 0 0 0-2.3-.6 5 5 0 0 0-5 5 7.6 7.6 0 0 0 .3 1.6A4.4 4.4 0 0 0 16 18a4.5 4.5 0 0 0 4.5 4.5h19A4.5 4.5 0 0 0 44 18a4.6 4.6 0 0 0-2.3-3.9 4.2 4.2 0 0 0 .3-1.6 5 5 0 0 0-5-5 6 6 0 0 0-2.3.6A4.9 4.9 0 0 0 30 4.5Z" class="a"/><path d="M30 5c-2.2 0-3.7 1.3-4.4 3.8a6.2 6.2 0 0 0-2.4-.8 4.6 4.6 0 0 0-4.8 4.5 11.6 11.6 0 0 0 .4 1.8 4 4 0 0 0 1.9 7.7H39a4 4 0 0 0 4.3-4.3 4 4 0 0 0-2.4-3.4 6 6 0 0 0 .5-1.8 4.6 4.6 0 0 0-4.8-4.6 6.3 6.3 0 0 0-2.3.8A4.3 4.3 0 0 0 30 5Z" style="fill:url(#a)"/><path d="M33.5 9.5A3.5 3.5 0 1 1 30 6a3.5 3.5 0 0 1 3.5 3.5Z" class="c"/><path d="M33.5 9.5A3.5 3.5 0 1 1 30 6a3.5 3.5 0 0 1 3.5 3.5Z" style="fill:url(#b)"/><path d="M20.5 12h20v9h-20z" class="c"/><path d="M23.5 18a3 3 0 1 1-3-3 3 3 0 0 1 3 3ZM40.5 12.5A3.5 3.5 0 1 1 37 9a3.5 3.5 0 0 1 3.5 3.5Z" class="c"/><path d="M40.5 12.5A3.5 3.5 0 1 1 37 9a3.5 3.5 0 0 1 3.5 3.5Z" style="fill:url(#c)"/><path d="M26.5 12.5A3.5 3.5 0 1 1 23 9a3.5 3.5 0 0 1 3.5 3.5Z" class="c"/><path d="M26.5 12.5A3.5 3.5 0 1 1 23 9a3.5 3.5 0 0 1 3.5 3.5Z" style="fill:url(#d)"/><path d="M29 9a6.5 6.5 0 0 0-6.5 6.5 6.3 6.3 0 0 0 3.3 5.5h6.5a6.4 6.4 0 0 0 3.3-5.5A6.6 6.6 0 0 0 29 9Z" class="c"/><path d="M29 9a6.5 6.5 0 0 0-6.5 6.5 6.2 6.2 0 0 0 3.3 5.5h6.5a6.4 6.4 0 0 0 3.3-5.5A6.6 6.6 0 0 0 29 9Z" style="fill:url(#e)"/><path d="M23.5 18a3 3 0 1 1-3-3 3 3 0 0 1 3 3Z" style="fill:url(#f)"/><path d="M42.5 12.7c0 2.7-3.3 3.7-3.3 3.7s2.3-1.6 2.3-3.7Z" class="i"/><path d="M37.5 17a4 4 0 1 1-4-4 4 4 0 0 1 4 4Z" class="c"/><path d="M37.5 17a4 4 0 1 1-4-4 4 4 0 0 1 4 4Z" style="fill:url(#g)"/><path d="M15 .5a5 5 0 0 0-4.7 3.6A4.4 4.4 0 0 0 8 3.5a5 5 0 0 0-5 5 7.6 7.6 0 0 0 .3 1.6A4.4 4.4 0 0 0 1 14a4.5 4.5 0 0 0 4.5 4.5h19A4.5 4.5 0 0 0 29 14a4.6 4.6 0 0 0-2.3-3.9 4.2 4.2 0 0 0 .3-1.6 5 5 0 0 0-5-5 6 6 0 0 0-2.3.6A4.9 4.9 0 0 0 15 .5Z" class="c"/><path d="M24.5 19h-19a5 5 0 0 1-5-5 4.9 4.9 0 0 1 2.2-4.1v-.1a5 5 0 0 1-.2-1.3A5.5 5.5 0 0 1 8 3a5 5 0 0 1 2 .4 5.4 5.4 0 0 1 10 0 5.6 5.6 0 0 1 2-.4 5.5 5.5 0 0 1 5.5 5.5 4.6 4.6 0 0 1-.2 1.4 5 5 0 0 1-2.8 9.1ZM8 4a4.5 4.5 0 0 0-4.5 4.5 3.9 3.9 0 0 0 .2 1 5 5 0 0 1 0 .5l.2.4-.4.1a4 4 0 0 0-2 3.5 4 4 0 0 0 4 4h19a4 4 0 0 0 4-4 4.1 4.1 0 0 0-2-3.5l-.4-.2.1-.4a3.6 3.6 0 0 0 .3-1.4A4.5 4.5 0 0 0 22 4a5.5 5.5 0 0 0-2.1.6l-.5.2-.2-.6A4.4 4.4 0 0 0 15 1a4.4 4.4 0 0 0-4.2 3.2l-.2.7-.5-.4A3.9 3.9 0 0 0 8 4Z" style="fill:#888a85"/><path d="M15 1c-2.2 0-3.7 1.3-4.4 3.8A6.2 6.2 0 0 0 8.2 4a4.6 4.6 0 0 0-4.8 4.5 11.6 11.6 0 0 0 .4 1.8A4 4 0 0 0 5.7 18H24a4 4 0 0 0 4.3-4.3 4 4 0 0 0-2.4-3.4 6 6 0 0 0 .5-1.8 4.6 4.6 0 0 0-4.8-4.6 6.3 6.3 0 0 0-2.3.8A4.3 4.3 0 0 0 15 1Z" style="fill:url(#h)"/><path d="M18.5 5.5a3.5 3.5 0 0 1-7 0 3.5 3.5 0 0 1 7 0Z" class="c"/><path d="M18.5 5.5a3.5 3.5 0 0 1-7 0 3.5 3.5 0 0 1 7 0Z" style="fill:url(#i)"/><path d="M5.5 8h20v9h-20z" class="c"/><path d="M8.5 14a3 3 0 0 1-3 3 3 3 0 0 1 0-6 3 3 0 0 1 3 3ZM25.5 8.5a3.5 3.5 0 0 1-7 0 3.5 3.5 0 0 1 7 0Z" class="c"/><path d="M25.5 8.5a3.5 3.5 0 0 1-7 0 3.5 3.5 0 0 1 7 0Z" style="fill:url(#j)"/><path d="M11.5 8.5A3.5 3.5 0 0 1 8 12a3.5 3.5 0 0 1-3.5-3.5A3.5 3.5 0 0 1 8 5a3.5 3.5 0 0 1 3.5 3.5Z" class="c"/><path d="M11.5 8.5A3.5 3.5 0 0 1 8 12a3.5 3.5 0 0 1-3.5-3.5A3.5 3.5 0 0 1 8 5a3.5 3.5 0 0 1 3.5 3.5Z" style="fill:url(#k)"/><path d="M14 5a6.5 6.5 0 0 0-6.5 6.5 6.3 6.3 0 0 0 3.3 5.5h6.5a6.4 6.4 0 0 0 3.3-5.5A6.6 6.6 0 0 0 14 5Z" class="c"/><path d="M14 5a6.5 6.5 0 0 0-6.5 6.5 6.2 6.2 0 0 0 3.3 5.5h6.5a6.4 6.4 0 0 0 3.3-5.5A6.6 6.6 0 0 0 14 5Z" style="fill:url(#l)"/><path d="M8.5 14a3 3 0 0 1-3 3 3 3 0 0 1 0-6 3 3 0 0 1 3 3Z" style="fill:url(#m)"/><path d="M27.5 8.7c0 2.7-3.3 3.7-3.3 3.7s2.3-1.6 2.3-3.7Z" class="i"/><path d="M22.5 13a4 4 0 1 1-4-4 4 4 0 0 1 4 4Z" class="c"/><path d="M22.5 13a4 4 0 1 1-4-4 4 4 0 0 1 4 4Z" style="fill:url(#n)"/><path d="M21.5 36.5a2 2 0 0 1-2 2h-8a2 2 0 0 1-2-2 2 2 0 0 0-2-2H4.4a2 2 0 0 1-2-2 2 2 0 0 1 2-2h8a2 2 0 0 1 2 2 2 2 0 0 0 2 2h3.1a2 2 0 0 1 2 2Z" class="a"/><path d="M12.3 33.5h-8a1 1 0 0 1-1-1 1 1 0 0 1 1-1h8a1 1 0 0 1 1 1 1 1 0 0 1-1 1Z" style="fill:url(#o)"/><path d="M19.5 37.5h-8a1 1 0 0 1-1-1 1 1 0 0 1 1-1h8a1 1 0 0 1 1 1 1 1 0 0 1-1 1Z" style="fill:url(#p)"/><path d="M44 38.5a2 2 0 0 1-2 2h-8a2 2 0 0 1-2-2 2 2 0 0 0-2-2h-3.1a2 2 0 0 1-2-2 2 2 0 0 1 2-2h8a2 2 0 0 1 2 2 2 2 0 0 0 2 2H42a2 2 0 0 1 2 2Z" class="a"/><path d="M34.9 35.5h-8a1 1 0 0 1-1-1 1 1 0 0 1 1-1h8a1 1 0 0 1 1 1 1 1 0 0 1-1 1Z" style="fill:url(#q)"/><path d="M42.1 39.5h-8a1 1 0 0 1-1-1 1 1 0 0 1 1-1h8a1 1 0 0 1 1 1 1 1 0 0 1-1 1Z" style="fill:url(#r)"/><path d="M38.5 27.5a2 2 0 0 1-2 2h-16a2 2 0 0 1-2-2 2 2 0 0 0-2-2H8.4a2 2 0 0 1-2-2 2 2 0 0 1 2-2h16a2 2 0 0 1 2 2 2 2 0 0 0 2 2h8.1a2 2 0 0 1 2 2Z" class="a"/><path d="M24.4 24.5h-16a1 1 0 0 1-1-1 1 1 0 0 1 1-1h16a1 1 0 0 1 1 1 1 1 0 0 1-1 1Z" style="fill:url(#s)"/><path d="M36.4 28.5h-16a1 1 0 0 1-1-1 1 1 0 0 1 1-1h16a1 1 0 0 1 1 1 1 1 0 0 1-1 1Z" style="fill:url(#t)"/></svg>