<svg xmlns="http://www.w3.org/2000/svg" xmlns:xlink="http://www.w3.org/1999/xlink" viewBox="0 0 45 45"><defs><linearGradient id="a" x1="914.8" x2="928.8" y1="2.5" y2="11.6" gradientTransform="translate(-893.4 7)" gradientUnits="userSpaceOnUse"><stop offset="0" stop-color="#fff"/><stop offset="1" stop-color="#fff" stop-opacity="0"/></linearGradient><linearGradient xlink:href="#a" id="b" x1="910.5" x2="912.6" y1="-12.4" y2="-9" gradientTransform="matrix(1.06 0 0 1.06 -932 20.7)"/><linearGradient xlink:href="#a" id="c" x1="909.4" x2="912.8" y1="-13.9" y2="-8.8" gradientTransform="matrix(1.06 0 0 1.06 -925 23.7)"/><linearGradient xlink:href="#a" id="d" x1="909.3" x2="912.8" y1="-12.9" y2="-9.4" gradientTransform="matrix(1.06 0 0 1.06 -939 23.7)"/><linearGradient xlink:href="#a" id="e" x1="921.6" x2="925.6" y1="4.7" y2="9.9" gradientTransform="translate(-894.4 7)"/><linearGradient xlink:href="#a" id="f" x1="970.9" x2="974" y1="34.8" y2="37.5" gradientTransform="matrix(.9 0 0 .91 -859.3 -15)"/><linearGradient xlink:href="#a" id="g" x1="862.5" x2="866.6" y1="-49.5" y2="-45.1" gradientTransform="matrix(1.21 0 0 1.21 -1010.8 72.3)"/><linearGradient xlink:href="#a" id="h" x1="959.8" x2="973.8" y1="-1.6" y2="7.5" gradientTransform="translate(-953.4 7)"/><linearGradient xlink:href="#a" id="i" x1="955.5" x2="957.7" y1="-16.4" y2="-13" gradientTransform="matrix(1.06 0 0 1.06 -994.6 20.9)"/><linearGradient xlink:href="#a" id="j" x1="954.5" x2="957.8" y1="-18" y2="-12.8" gradientTransform="matrix(1.06 0 0 1.06 -987.6 23.9)"/><linearGradient xlink:href="#a" id="k" x1="954.4" x2="957.8" y1="-16.9" y2="-13.4" gradientTransform="matrix(1.06 0 0 1.06 -1001.6 23.9)"/><linearGradient xlink:href="#a" id="l" x1="966.7" x2="970.7" y1=".7" y2="5.9" gradientTransform="translate(-954.4 7)"/><linearGradient xlink:href="#a" id="m" x1="1015.9" x2="1019" y1="30.8" y2="33.5" gradientTransform="matrix(.9 0 0 .91 -915.1 -15.4)"/><linearGradient xlink:href="#a" id="n" x1="907.5" x2="911.6" y1="-53.5" y2="-49.1" gradientTransform="matrix(1.21 0 0 1.21 -1080.2 73.2)"/><linearGradient xlink:href="#a" id="o" x1="3.3" x2="13.3" y1="-192.5" y2="-192.5" gradientTransform="matrix(1 0 0 -1 0 -160)"/><linearGradient xlink:href="#a" id="p" x1="10.5" x2="20.5" y1="-196.5" y2="-196.5" gradientTransform="matrix(1 0 0 -1 0 -160)"/><linearGradient xlink:href="#a" id="q" x1="25.8" x2="35.8" y1="-194.5" y2="-194.5" gradientTransform="matrix(1 0 0 -1 0 -160)"/><linearGradient xlink:href="#a" id="r" x1="33" x2="43" y1="-198.5" y2="-198.5" gradientTransform="matrix(1 0 0 -1 0 -160)"/><linearGradient xlink:href="#a" id="s" x1="7.3" x2="25.3" y1="-183.5" y2="-183.5" gradientTransform="matrix(1 0 0 -1 0 -160)"/><linearGradient xlink:href="#a" id="t" x1="19.3" x2="37.3" y1="-187.5" y2="-187.5" gradientTransform="matrix(1 0 0 -1 0 -160)"/><style>.a,.c,.r{fill:#888a85}.a,.r{stroke:#555753}.a{stroke-miterlimit:2;stroke-width:1px}.i{fill:#555753;fill-rule:evenodd}.r{stroke-miterlimit:2}</style></defs><path d="M30 4.5a5 5 0 0 0-4.6 3.6 4.4 4.4 0 0 0-2.3-.6 5 5 0 0 0-5 5 7.6 7.6 0 0 0 .2 1.6 4.4 4.4 0 0 0-2.2 4 4.5 4.5 0 0 0 4.4 4.4h19A4.5 4.5 0 0 0 44 18a4.6 4.6 0 0 0-2.3-3.9 4.3 4.3 0 0 0 .3-1.6 5 5 0 0 0-5-5 6 6 0 0 0-2.3.6A5 5 0 0 0 30 4.5Z" class="a"/><path d="M30 5c-2.1 0-3.6 1.3-4.3 3.8a6.2 6.2 0 0 0-2.5-.8 4.6 4.6 0 0 0-4.7 4.5 11.6 11.6 0 0 0 .3 1.8 4 4 0 0 0 2 7.7H39a4 4 0 0 0 4.3-4.3 4 4 0 0 0-2.3-3.4 6 6 0 0 0 .5-1.8A4.6 4.6 0 0 0 36.7 8a6.3 6.3 0 0 0-2.3.8A4.3 4.3 0 0 0 30.1 5Z" style="fill:url(#a)"/><path d="M33.5 9.5A3.5 3.5 0 1 1 30.1 6a3.5 3.5 0 0 1 3.4 3.5Z" class="c"/><path d="M33.5 9.5A3.5 3.5 0 1 1 30.1 6a3.5 3.5 0 0 1 3.4 3.5Z" style="fill:url(#b);opacity:.48;isolation:isolate"/><path d="M20.6 12h20v9h-20z" class="c"/><path d="M23.6 18a3 3 0 1 1-3-3 3 3 0 0 1 3 3ZM40.5 12.5A3.5 3.5 0 1 1 37 9a3.5 3.5 0 0 1 3.5 3.5Z" class="c"/><path d="M40.5 12.5A3.5 3.5 0 1 1 37 9a3.5 3.5 0 0 1 3.5 3.5Z" style="fill:url(#c);opacity:.48;isolation:isolate"/><path d="M26.6 12.5A3.5 3.5 0 1 1 23 9a3.5 3.5 0 0 1 3.6 3.5Z" class="c"/><path d="M26.6 12.5A3.5 3.5 0 1 1 23 9a3.5 3.5 0 0 1 3.6 3.5Z" style="fill:url(#d);opacity:.48;isolation:isolate"/><path d="M29 9a6.5 6.5 0 0 0-6.4 6.5 6.3 6.3 0 0 0 3.2 5.5h6.6a6.4 6.4 0 0 0 3.3-5.5A6.7 6.7 0 0 0 29 9Z" class="c"/><path d="M29 9a6.5 6.5 0 0 0-6.4 6.5 6.2 6.2 0 0 0 3.2 5.5h6.6a6.4 6.4 0 0 0 3.3-5.5A6.6 6.6 0 0 0 29 9Z" style="fill:url(#e);opacity:.48;isolation:isolate"/><path d="M23.6 18a3 3 0 1 1-3-3 3 3 0 0 1 3 3Z" style="fill:url(#f);opacity:.48;isolation:isolate"/><path d="M42.5 12.7c0 2.7-3.3 3.7-3.3 3.7s2.3-1.6 2.3-3.7Z" class="i"/><path d="M37.5 17a4 4 0 1 1-4-4 4 4 0 0 1 4 4Z" class="c"/><path d="M37.5 17a4 4 0 1 1-4-4 4 4 0 0 1 4 4Z" style="fill:url(#g);opacity:.48;isolation:isolate"/><path d="M15 .5a5 5 0 0 0-4.7 3.6A4.4 4.4 0 0 0 8 3.5a5 5 0 0 0-5 5 7.6 7.6 0 0 0 .3 1.6A4.4 4.4 0 0 0 1 14a4.5 4.5 0 0 0 4.5 4.5h19A4.5 4.5 0 0 0 29 14a4.6 4.6 0 0 0-2.3-3.9 4.2 4.2 0 0 0 .3-1.6 5 5 0 0 0-5-5 6 6 0 0 0-2.3.6A5 5 0 0 0 15 .5Z" class="a"/><path d="M15 1c-2.2 0-3.7 1.3-4.4 3.8A6.2 6.2 0 0 0 8.2 4a4.6 4.6 0 0 0-4.8 4.5 11.6 11.6 0 0 0 .4 1.8 4 4 0 0 0 2 7.7H24a4 4 0 0 0 4.3-4.3 4 4 0 0 0-2.4-3.4 6 6 0 0 0 .5-1.8 4.6 4.6 0 0 0-4.8-4.6 6.3 6.3 0 0 0-2.3.8A4.3 4.3 0 0 0 15 1Z" style="fill:url(#h)"/><path d="M18.5 5.5a3.5 3.5 0 0 1-7 0 3.5 3.5 0 0 1 7 0Z" class="c"/><path d="M18.5 5.5a3.5 3.5 0 0 1-7 0 3.5 3.5 0 0 1 7 0Z" style="fill:url(#i);opacity:.48;isolation:isolate"/><path d="M5.5 8h20v9h-20z" class="c"/><path d="M8.5 14a3 3 0 0 1-3 3 3 3 0 0 1 0-6 3 3 0 0 1 3 3ZM25.5 8.5a3.5 3.5 0 0 1-7 0 3.5 3.5 0 0 1 7 0Z" class="c"/><path d="M25.5 8.5a3.5 3.5 0 0 1-7 0 3.5 3.5 0 0 1 7 0Z" style="fill:url(#j);opacity:.48;isolation:isolate"/><path d="M11.5 8.5A3.5 3.5 0 0 1 8 12a3.5 3.5 0 0 1-3.5-3.5A3.5 3.5 0 0 1 8 5a3.5 3.5 0 0 1 3.5 3.5Z" class="c"/><path d="M11.5 8.5A3.5 3.5 0 0 1 8 12a3.5 3.5 0 0 1-3.5-3.5A3.5 3.5 0 0 1 8 5a3.5 3.5 0 0 1 3.5 3.5Z" style="fill:url(#k);opacity:.48;isolation:isolate"/><path d="M14 5a6.5 6.5 0 0 0-6.5 6.5 6.3 6.3 0 0 0 3.3 5.5h6.5a6.4 6.4 0 0 0 3.3-5.5A6.7 6.7 0 0 0 14 5Z" class="c"/><path d="M14 5a6.5 6.5 0 0 0-6.5 6.5 6.2 6.2 0 0 0 3.3 5.5h6.5a6.4 6.4 0 0 0 3.3-5.5A6.6 6.6 0 0 0 14 5Z" style="fill:url(#l);opacity:.48;isolation:isolate"/><path d="M8.5 14a3 3 0 0 1-3 3 3 3 0 0 1 0-6 3 3 0 0 1 3 3Z" style="fill:url(#m);opacity:.48;isolation:isolate"/><path d="M27.5 8.7c0 2.7-3.3 3.7-3.3 3.7s2.3-1.6 2.3-3.7Z" class="i"/><path d="M22.5 13a4 4 0 1 1-4-4 4 4 0 0 1 4 4Z" class="c"/><path d="M22.5 13a4 4 0 1 1-4-4 4 4 0 0 1 4 4Z" style="fill:url(#n);opacity:.48;isolation:isolate"/><path d="M21.5 36.5a2 2 0 0 1-2 2h-8a2 2 0 0 1-2-2 2 2 0 0 0-2-2H4.3a2 2 0 0 1-2-2 2 2 0 0 1 2-2h8a2 2 0 0 1 2 2 2 2 0 0 0 2 2h3.2a2 2 0 0 1 2 2Z" class="r"/><path d="M12.3 33.5h-8a1 1 0 0 1-1-1 1 1 0 0 1 1-1h8a1 1 0 0 1 1 1 1 1 0 0 1-1 1Z" style="fill:url(#o);opacity:.48;isolation:isolate"/><path d="M19.5 37.5h-8a1 1 0 0 1-1-1 1 1 0 0 1 1-1h8a1 1 0 0 1 1 1 1 1 0 0 1-1 1Z" style="fill:url(#p);opacity:.48;isolation:isolate"/><path d="M44 38.5a2 2 0 0 1-2 2h-8a2 2 0 0 1-2-2 2 2 0 0 0-2-2h-3.1a2 2 0 0 1-2-2 2 2 0 0 1 2-2h8a2 2 0 0 1 2 2 2 2 0 0 0 2 2H42a2 2 0 0 1 2 2Z" class="r"/><path d="M34.8 35.5h-8a1 1 0 0 1-1-1 1 1 0 0 1 1-1h8a1 1 0 0 1 1 1 1 1 0 0 1-1 1Z" style="fill:url(#q);opacity:.48;isolation:isolate"/><path d="M42.1 39.5h-8a1 1 0 0 1-1-1 1 1 0 0 1 1-1h8a1 1 0 0 1 1 1 1 1 0 0 1-1 1Z" style="fill:url(#r);opacity:.48;isolation:isolate"/><path d="M38.5 27.5a2 2 0 0 1-2 2h-16a2 2 0 0 1-2-2 2 2 0 0 0-2-2H8.3a2 2 0 0 1-2-2 2 2 0 0 1 2-2h16a2 2 0 0 1 2 2 2 2 0 0 0 2 2h8.2a2 2 0 0 1 2 2Z" class="r"/><path d="M24.3 24.5h-16a1 1 0 0 1-1-1 1 1 0 0 1 1-1h16a1 1 0 0 1 1 1 1 1 0 0 1-1 1Z" style="fill:url(#s);opacity:.48;isolation:isolate"/><path d="M36.3 28.5h-16a1 1 0 0 1-1-1 1 1 0 0 1 1-1h16a1 1 0 0 1 1 1 1 1 0 0 1-1 1Z" style="fill:url(#t);opacity:.48;isolation:isolate"/></svg>