<svg xmlns="http://www.w3.org/2000/svg" xmlns:xlink="http://www.w3.org/1999/xlink" viewBox="0 0 45 45"><defs><linearGradient xlink:href="#a" id="b" x1="284.8" x2="305.4" y1="3550.5" y2="3572" gradientTransform="matrix(-.05 .1 .09 .06 -286.8 -204.8)"/><linearGradient xlink:href="#a" id="c" x1="801.2" x2="839.1" y1="234.3" y2="221.2" gradientTransform="matrix(1 0 0 -1 -791.5 240)"/><linearGradient xlink:href="#a" id="d" x1="850.2" x2="856" y1="208" y2="203.1" gradientTransform="matrix(.88 0 0 -.88 -730.4 187.8)"/><linearGradient xlink:href="#a" id="e" x1="846.5" x2="852.5" y1="213.2" y2="207.2" gradientTransform="matrix(.91 0 0 -.91 -744.5 201.3)"/><linearGradient xlink:href="#a" id="f" x1="768" x2="772.3" y1="257.5" y2="254.1" gradientTransform="matrix(1.14 0 0 -1.14 -866.4 301.7)"/><linearGradient xlink:href="#a" id="g" x1="799.3" x2="806.9" y1="236.8" y2="231" gradientTransform="matrix(1.04 0 0 -1.04 -811.8 256.2)"/><linearGradient xlink:href="#a" id="h" x1="699.5" x2="713.5" y1="282.6" y2="273.5" gradientTransform="matrix(1 0 0 -1 -678.6 300)"/><linearGradient xlink:href="#a" id="i" x1="700.7" x2="702.9" y1="292.4" y2="289" gradientTransform="matrix(1.06 0 0 -1.06 -711 324.4)"/><linearGradient xlink:href="#a" id="j" x1="699.7" x2="703" y1="293.9" y2="288.8" gradientTransform="matrix(1.06 0 0 -1.06 -704 327.4)"/><linearGradient xlink:href="#a" id="k" x1="699.5" x2="703" y1="292.9" y2="289.4" gradientTransform="matrix(1.06 0 0 -1.06 -718 327.4)"/><linearGradient xlink:href="#a" id="l" x1="706.3" x2="710.3" y1="280.4" y2="275.2" gradientTransform="matrix(1 0 0 -1 -679.6 300)"/><linearGradient xlink:href="#a" id="m" x1="744.8" x2="747.9" y1="260.2" y2="257.4" gradientTransform="matrix(.9 0 0 -.91 -655 260)"/><linearGradient xlink:href="#a" id="n" x1="664.9" x2="669" y1="318.2" y2="313.8" gradientTransform="matrix(1.21 0 0 -1.21 -772.8 404.8)"/><linearGradient xlink:href="#a" id="o" x1="729.5" x2="743.5" y1="282.6" y2="273.5" gradientTransform="matrix(1 0 0 -1 -723.6 296)"/><linearGradient xlink:href="#a" id="p" x1="730.7" x2="732.9" y1="292.4" y2="289" gradientTransform="matrix(1.06 0 0 -1.06 -757.7 320.4)"/><linearGradient xlink:href="#a" id="q" x1="729.7" x2="733.1" y1="293.9" y2="288.8" gradientTransform="matrix(1.06 0 0 -1.06 -750.7 323.4)"/><linearGradient xlink:href="#a" id="r" x1="729.6" x2="733" y1="292.9" y2="289.4" gradientTransform="matrix(1.06 0 0 -1.06 -764.7 323.4)"/><linearGradient xlink:href="#a" id="s" x1="736.3" x2="740.4" y1="280.4" y2="275.2" gradientTransform="matrix(1 0 0 -1 -724.6 296)"/><linearGradient xlink:href="#a" id="t" x1="774.8" x2="777.9" y1="260.2" y2="257.4" gradientTransform="matrix(.9 0 0 -.91 -697.3 256)"/><linearGradient xlink:href="#a" id="u" x1="694.9" x2="699" y1="318.2" y2="313.8" gradientTransform="matrix(1.21 0 0 -1.21 -824 400.7)"/><linearGradient xlink:href="#a" id="w" x1="324.9" x2="345.4" y1="3550.5" y2="3572" gradientTransform="matrix(-.05 .1 .09 .06 -304.6 -218.9)"/><linearGradient xlink:href="#a" id="y" x1="266.9" x2="287.4" y1="3550.5" y2="3572" gradientTransform="matrix(-.05 .1 .09 .06 -278.7 -206)"/><linearGradient xlink:href="#a" id="aa" x1="328.9" x2="349.4" y1="3550.5" y2="3572" gradientTransform="matrix(-.05 .1 .09 .06 -306.4 -209.3)"/><linearGradient xlink:href="#a" id="ac" x1="308.9" x2="329.4" y1="3550.5" y2="3572" gradientTransform="matrix(-.05 .1 .09 .06 -297.5 -212.3)"/><linearGradient xlink:href="#a" id="ae" x1="280.9" x2="301.4" y1="3550.5" y2="3572" gradientTransform="matrix(-.05 .1 .09 .06 -285 -214.4)"/><radialGradient id="a" cx="4373.2" cy="179.2" r="21.7" gradientTransform="matrix(.07 .04 .06 -.11 -291.8 -124)" gradientUnits="userSpaceOnUse"><stop offset="0" stop-color="#fff"/><stop offset="1" stop-color="#fff" stop-opacity="0"/></radialGradient><radialGradient xlink:href="#a" id="v" cx="4413.2" cy="179.2" r="21.7" gradientTransform="matrix(.07 .04 .06 -.11 -314.6 -135.6)"/><radialGradient xlink:href="#a" id="x" cx="4355.2" cy="179.2" r="21.7" gradientTransform="matrix(.07 .04 .06 -.11 -281.5 -126.2)"/><radialGradient xlink:href="#a" id="z" cx="4417.2" cy="179.2" r="21.7" gradientTransform="matrix(.07 .04 .06 -.11 -317 -125.7)"/><radialGradient xlink:href="#a" id="ab" cx="4397.2" cy="179.2" r="21.7" gradientTransform="matrix(.07 .04 .06 -.11 -305.5 -130)"/><radialGradient xlink:href="#a" id="ad" cx="4369.2" cy="179.2" r="21.7" gradientTransform="matrix(.07 .04 .06 -.11 -289.5 -133.7)"/><style>.a{fill:#729fcf;stroke:#204a87;stroke-miterlimit:2;stroke-width:1.07px}.r{fill:#555753}.f,.k{fill:#888a85}.k{stroke:#555753;stroke-miterlimit:2;stroke-width:1px}.r{fill-rule:evenodd}</style></defs><path d="M27.1 40.2a2.1 2.1 0 0 1-.8-2.9c1.3-2 3.1-1.5 4-3.7 1.3 1.3.8 8.2-3.2 6.6Z" class="a"/><path d="M29.9 39.1a1.7 1.7 0 0 1-2.4.7 1.9 1.9 0 0 1-.6-2.5c.5-.9 2.6-.5 3.3-2.3.8.5.2 3.2-.3 4.1Z" style="fill:url(#a);isolation:isolate;opacity:.46"/><path d="M28.6 40c-4.7-1.1.1-4.7 1-3.9-3.6 1.3-1 3.9-1 3.9Z" style="fill:url(#b)"/><path d="M23 0a7.5 7.5 0 0 0-6.3 3.8 6.5 6.5 0 0 0-3.2-.8 7 7 0 0 0 0 14 6.9 6.9 0 0 0 5.7-3.2 7.1 7.1 0 0 0 3.9 1.2 7.5 7.5 0 0 0 2.5-.5 7 7 0 0 0 2 2.2v.4a7 7 0 0 0 14 0 6.7 6.7 0 0 0-3.2-5.6l.1-.4a7 7 0 0 0-7-7 5.8 5.8 0 0 0-1.8.4A7.3 7.3 0 0 0 23.1 0Z" style="fill:#555753"/><path d="M23 1a6.7 6.7 0 0 0-6 4.2A5.8 5.8 0 0 0 13.6 4a6 6 0 1 0 5.4 8.5 6.4 6.4 0 0 0 4.1 1.5 5.7 5.7 0 0 0 2.9-.8 5.7 5.7 0 0 0 1.9 2.4 5.8 5.8 0 0 0-.4 1.8 6.5 6.5 0 1 0 9.8-5.5 3.5 3.5 0 0 0 .2-1 6 6 0 0 0-8.4-5.5 6.4 6.4 0 0 0-6-4.4Z" style="fill:url(#c)"/><path d="M40.5 17.5a6.5 6.5 0 0 1-13 0 6.5 6.5 0 0 1 13 0ZM28.6 7.5a5.5 5.5 0 0 1-11 0 5.5 5.5 0 0 1 11 0Z" class="f"/><path d="M28.6 7.5a5.5 5.5 0 0 1-11 0 5.5 5.5 0 0 1 11 0Z" style="fill:url(#d);opacity:.49;isolation:isolate"/><path d="M36.5 11.5a5.5 5.5 0 1 1-11 0 5.5 5.5 0 1 1 11 0Z" class="f"/><path d="M36.5 11.5a5.5 5.5 0 1 1-11 0 5.5 5.5 0 1 1 11 0Z" style="fill:url(#e);opacity:.49;isolation:isolate"/><path d="M18.6 10a5 5 0 1 1-5-5 5 5 0 0 1 5 5Z" class="f"/><path d="M18.6 10a5 5 0 1 1-5-5 5 5 0 0 1 5 5Z" style="fill:url(#f);opacity:.49;isolation:isolate"/><path d="M29.6 14a7 7 0 0 1-14 0 7 7 0 1 1 14 0Z" class="f"/><path d="M29.6 14a7 7 0 0 1-14 0 7 7 0 1 1 14 0Z" style="fill:url(#g);opacity:.49;isolation:isolate"/><path d="M30 12.5a5 5 0 0 0-4.6 3.6 4.4 4.4 0 0 0-2.3-.6 5 5 0 0 0-5 5 7.6 7.6 0 0 0 .2 1.6 4.4 4.4 0 0 0-2.2 3.9 4.5 4.5 0 0 0 4.4 4.5h19A4.5 4.5 0 0 0 44 26a4.6 4.6 0 0 0-2.3-3.9 4.3 4.3 0 0 0 .3-1.6 5 5 0 0 0-5-5 6 6 0 0 0-2.3.6 5 5 0 0 0-4.7-3.6Z" class="k"/><path d="M30 13c-2.1 0-3.6 1.3-4.3 3.8a6.2 6.2 0 0 0-2.5-.8 4.6 4.6 0 0 0-4.7 4.5 11.6 11.6 0 0 0 .3 1.8 4 4 0 0 0 2 7.7H39a4 4 0 0 0 4.3-4.3 4 4 0 0 0-2.3-3.4 6 6 0 0 0 .5-1.8 4.6 4.6 0 0 0-4.8-4.6 6.3 6.3 0 0 0-2.3.8c-.6-2.3-2.3-3.7-4.3-3.7Z" style="fill:url(#h)"/><path d="M33.5 17.5A3.5 3.5 0 1 1 30 14a3.5 3.5 0 0 1 3.5 3.5Z" class="f"/><path d="M33.5 17.5A3.5 3.5 0 1 1 30 14a3.5 3.5 0 0 1 3.5 3.5Z" style="fill:url(#i);opacity:.48;isolation:isolate"/><path d="M20.6 20h20v9h-20z" class="f"/><path d="M23.6 26a3 3 0 1 1-3-3 3 3 0 0 1 3 3ZM40.5 20.5A3.5 3.5 0 1 1 37 17a3.5 3.5 0 0 1 3.5 3.5Z" class="f"/><path d="M40.5 20.5A3.5 3.5 0 1 1 37 17a3.5 3.5 0 0 1 3.5 3.5Z" style="fill:url(#j);opacity:.48;isolation:isolate"/><path d="M26.6 20.5A3.5 3.5 0 1 1 23 17a3.5 3.5 0 0 1 3.6 3.5Z" class="f"/><path d="M26.6 20.5A3.5 3.5 0 1 1 23 17a3.5 3.5 0 0 1 3.6 3.5Z" style="fill:url(#k);opacity:.48;isolation:isolate"/><path d="M29 17a6.5 6.5 0 0 0-6.5 6.5 6.3 6.3 0 0 0 3.3 5.5h6.5a6.3 6.3 0 0 0 3.2-5.5A6.5 6.5 0 0 0 29 17Z" class="f"/><path d="M29 17a6.5 6.5 0 0 0-6.4 6.5 6.2 6.2 0 0 0 3.2 5.5h6.6a6.3 6.3 0 0 0 3.2-5.5A6.5 6.5 0 0 0 29 17Z" style="fill:url(#l);opacity:.48;isolation:isolate"/><path d="M23.6 26a3 3 0 1 1-3-3 3 3 0 0 1 3 3Z" style="fill:url(#m);opacity:.48;isolation:isolate"/><path d="M42.4 20.7c0 2.7-3.3 3.7-3.3 3.7s2.3-1.6 2.3-3.7Z" class="r"/><path d="M37.5 25a4 4 0 1 1-4-4 4 4 0 0 1 4 4Z" class="f"/><path d="M37.5 25a4 4 0 1 1-4-4 4 4 0 0 1 4 4Z" style="fill:url(#n);opacity:.48;isolation:isolate"/><path d="M15 8.5a5 5 0 0 0-4.7 3.6 4.4 4.4 0 0 0-2.3-.6 5 5 0 0 0-5 5 7.6 7.6 0 0 0 .3 1.6A4.4 4.4 0 0 0 1 22a4.5 4.5 0 0 0 4.5 4.5h19A4.5 4.5 0 0 0 29 22a4.6 4.6 0 0 0-2.3-3.9 4.2 4.2 0 0 0 .3-1.6 5 5 0 0 0-5-5 6 6 0 0 0-2.3.6A5 5 0 0 0 15 8.5Z" class="k"/><path d="M15 9c-2.2 0-3.7 1.3-4.4 3.8a6.2 6.2 0 0 0-2.4-.8 4.6 4.6 0 0 0-4.8 4.5 11.6 11.6 0 0 0 .4 1.8 4 4 0 0 0 2 7.7H24a4 4 0 0 0 4.3-4.3 4 4 0 0 0-2.4-3.4 6 6 0 0 0 .5-1.8 4.6 4.6 0 0 0-4.8-4.6 6.3 6.3 0 0 0-2.3.8C18.7 10.4 17.1 9 15 9Z" style="fill:url(#o)"/><path d="M18.5 13.5A3.5 3.5 0 1 1 15 10a3.5 3.5 0 0 1 3.5 3.5Z" class="f"/><path d="M18.5 13.5A3.5 3.5 0 1 1 15 10a3.5 3.5 0 0 1 3.5 3.5Z" style="fill:url(#p);opacity:.48;isolation:isolate"/><path d="M5.5 16h20v9h-20z" class="f"/><path d="M8.5 22a3 3 0 0 1-3 3 3 3 0 0 1 0-6 3 3 0 0 1 3 3ZM25.5 16.5A3.5 3.5 0 1 1 22 13a3.5 3.5 0 0 1 3.5 3.5Z" class="f"/><path d="M25.5 16.5A3.5 3.5 0 1 1 22 13a3.5 3.5 0 0 1 3.5 3.5Z" style="fill:url(#q);opacity:.48;isolation:isolate"/><path d="M11.5 16.5A3.5 3.5 0 0 1 8 20a3.5 3.5 0 1 1 0-7 3.5 3.5 0 0 1 3.5 3.5Z" class="f"/><path d="M11.5 16.5A3.5 3.5 0 0 1 8 20a3.5 3.5 0 1 1 0-7 3.5 3.5 0 0 1 3.5 3.5Z" style="fill:url(#r);opacity:.48;isolation:isolate"/><path d="M14 13a6.5 6.5 0 0 0-6.6 6.5 6.3 6.3 0 0 0 3.3 5.5h6.5a6.4 6.4 0 0 0 3.3-5.5A6.6 6.6 0 0 0 14 13Z" class="f"/><path d="M14 13a6.5 6.5 0 0 0-6.5 6.5 6.2 6.2 0 0 0 3.3 5.5h6.5a6.4 6.4 0 0 0 3.3-5.5A6.7 6.7 0 0 0 14 13Z" style="fill:url(#s);opacity:.48;isolation:isolate"/><path d="M8.5 22a3 3 0 0 1-3 3 3 3 0 0 1 0-6 3 3 0 0 1 3 3Z" style="fill:url(#t);opacity:.48;isolation:isolate"/><path d="M27.4 16.7c0 2.7-3.3 3.7-3.3 3.7s2.3-1.6 2.3-3.7Z" class="r"/><path d="M22.5 21a4 4 0 1 1-4-4 4 4 0 0 1 4 4Z" class="f"/><path d="M22.5 21a4 4 0 1 1-4-4 4 4 0 0 1 4 4Z" style="fill:url(#u);opacity:.48;isolation:isolate"/><path d="M7.2 30.2a2.1 2.1 0 0 1-.8-2.9c1.3-2 3-1.5 4-3.7 1.3 1.3.8 8.2-3.3 6.6Z" class="a"/><path d="M9.8 29.1a1.7 1.7 0 0 1-2.4.7 1.9 1.9 0 0 1-.6-2.5c.5-.9 2.6-.5 3.3-2.3.9.5.3 3.2-.3 4.1Z" style="fill:url(#v);isolation:isolate;opacity:.46"/><path d="M8.6 30c-4.6-1.1.2-4.7 1-3.9-3.6 1.3-1 3.9-1 3.9Z" style="fill:url(#w)"/><path d="M36.1 37.2a2.1 2.1 0 0 1-.8-2.9c1.3-2 3.1-1.5 4-3.7 1.3 1.3.8 8.2-3.2 6.6Z" class="a"/><path d="M38.8 36.1a1.7 1.7 0 0 1-2.4.7 1.9 1.9 0 0 1-.6-2.5c.5-.9 2.6-.5 3.3-2.3.8.5.2 3.2-.3 4.1Z" style="fill:url(#x);isolation:isolate;opacity:.46"/><path d="M37.5 37c-4.6-1.1.2-4.7 1-3.9-3.6 1.3-1 3.9-1 3.9Z" style="fill:url(#y)"/><path d="M5.2 40.2a2.1 2.1 0 0 1-.8-2.9c1.3-2 3-1.5 4-3.7 1.3 1.3.8 8.2-3.3 6.6Z" class="a"/><path d="M7.8 39.1a1.7 1.7 0 0 1-2.4.7 1.9 1.9 0 0 1-.6-2.5c.5-.9 2.6-.5 3.3-2.3.8.5.3 3.2-.3 4.1Z" style="fill:url(#z);isolation:isolate;opacity:.46"/><path d="M6.5 40c-4.6-1.1.2-4.7 1-3.9-3.6 1.3-1 3.9-1 3.9Z" style="fill:url(#aa)"/><path d="M15.1 35.2a2.1 2.1 0 0 1-.8-2.9c1.3-2 3.1-1.5 4-3.7 1.3 1.3.8 8.2-3.2 6.6Z" class="a"/><path d="M17.8 34.1a1.7 1.7 0 0 1-2.4.7 1.9 1.9 0 0 1-.6-2.5c.5-.9 2.6-.5 3.3-2.3.8.5.2 3.2-.3 4.1Z" style="fill:url(#ab);isolation:isolate;opacity:.46"/><path d="M16.5 35c-4.6-1.1.2-4.7 1-3.9-3.6 1.3-1 3.9-1 3.9Z" style="fill:url(#ac)"/><path d="M29.1 30.2a2.1 2.1 0 0 1-.8-2.9c1.3-2 3.1-1.5 4-3.7 1.3 1.3.8 8.2-3.2 6.6Z" class="a"/><path d="M31.8 29.1a1.7 1.7 0 0 1-2.4.7 1.9 1.9 0 0 1-.6-2.5c.5-.9 2.6-.5 3.3-2.3.8.5.2 3.2-.3 4.1Z" style="fill:url(#ad);isolation:isolate;opacity:.46"/><path d="M30.5 30c-4.6-1.1.2-4.7 1-3.9-3.6 1.3-1 3.9-1 3.9Z" style="fill:url(#ae)"/></svg>