<svg xmlns="http://www.w3.org/2000/svg" xml:space="preserve" style="enable-background:new 0 0 45 45" viewBox="0 0 45 45"><g style="opacity:.7"><path d="M22.5 1.5 20.2 8l2.3-.2 2.3.2-2.3-6.5zM7.7 7.6l3 6.3a13 13 0 0 1 3.3-3.3l-6.3-3zm29.7 0-6.3 3c1.3.9 2.4 2 3.3 3.3l3-6.3zM8 20.1l-6.5 2.3L8 24.8l-.2-2.3.2-2.4zm29 .1.2 2.3-.2 2.3 6.5-2.3-6.5-2.3zM10.6 31.1l-3 6.3 6.3-3c-1.2-.9-2.4-2.1-3.3-3.3zm23.8 0c-.9 1.2-2 2.4-3.3 3.3l6.3 3-3-6.3zM20.2 37l2.3 6.5 2.3-6.5-2.3.2-2.3-.2z" style="fill:#fce94f;stroke:#fcaf3e;stroke-width:.7373;stroke-linecap:square"/><radialGradient id="a" cx="21.8" cy="28.9" r="18.7" gradientTransform="matrix(1 0 0 -1 .5 51.6)" gradientUnits="userSpaceOnUse"><stop offset="0" style="stop-color:#fff;stop-opacity:0"/><stop offset=".8" style="stop-color:#fff;stop-opacity:0"/><stop offset="1" style="stop-color:#fff"/></radialGradient><path d="m22.5 4.2-1.3 3.7 1.3-.1 1.3.1-1.3-3.7zM9.6 9.6l1.7 3.5a17 17 0 0 1 1.9-1.9L9.6 9.6zm25.8 0-3.5 1.7a17 17 0 0 1 1.9 1.9l1.6-3.6zM7.9 21.2l-3.7 1.3 3.7 1.3-.1-1.3.1-1.3zm29.2 0 .1 1.3-.1 1.3 3.7-1.3-3.7-1.3zm-3.3 10.7a17 17 0 0 1-1.9 1.9l3.5 1.7-1.6-3.6zm-22.5 0-1.7 3.5 3.5-1.7a7.7 7.7 0 0 1-1.8-1.8zm9.9 5.2 1.3 3.7 1.3-3.7-1.3.1-1.3-.1z" style="fill:none;stroke:url(#a);stroke-width:.8465;stroke-linecap:square"/></g><path d="M29.7 12.6c5.4 4 6.6 11.6 2.6 17.1s-11.6 6.6-17.1 2.6-6.6-11.6-2.6-17.1 11.7-6.5 17.1-2.6z" style="fill:#ffee54;stroke:#fcaf3e;stroke-width:1;stroke-linecap:square;stroke-miterlimit:5.2638"/><radialGradient id="b" cx="-57.3" cy="199.9" r="9.3" gradientTransform="matrix(.89 1.54 1.26 -.8 -182.4 266.9)" gradientUnits="userSpaceOnUse"><stop offset="0" style="stop-color:#fff7c2;stop-opacity:.6383"/><stop offset=".6" style="stop-color:#fcaf3e;stop-opacity:.1835"/><stop offset=".8" style="stop-color:#fcaf3e;stop-opacity:.5046"/><stop offset="1" style="stop-color:#fcaf3e"/></radialGradient><path d="M34.1 20.9c1.1 6.4-3.2 12.3-9.5 13.2S12.1 30.5 11 24s3.2-12.3 9.5-13.2c6.4-.8 12.4 3.7 13.6 10.1z" style="fill:url(#b)"/><linearGradient id="c" x1="-149.3" x2="-157.3" y1="60.5" y2="45.1" gradientTransform="matrix(.72 -.98 -.98 -.72 184.1 -88.8)" gradientUnits="userSpaceOnUse"><stop offset="0" style="stop-color:#fff9c6"/><stop offset=".5" style="stop-color:#fff28c"/><stop offset="1" style="stop-color:#ffea85"/></linearGradient><path d="M29.2 13.4a11.2 11.2 0 1 1-13.3 18.1 11.2 11.2 0 1 1 13.3-18.1z" style="fill:none;stroke:url(#c);stroke-width:1;stroke-linecap:square;stroke-miterlimit:4.8425"/></svg>