<svg xmlns="http://www.w3.org/2000/svg" xmlns:xlink="http://www.w3.org/1999/xlink" viewBox="0 0 45 45"><defs><linearGradient id="a" x1="1077.2" x2="1081.8" y1="163.8" y2="163.8" gradientTransform="matrix(1.09 0 -.54 .67 -1075.3 -78)" gradientUnits="userSpaceOnUse"><stop offset="0" stop-color="#fff"/><stop offset="1" stop-color="#fff" stop-opacity="0"/></linearGradient><linearGradient xlink:href="#a" id="b" x1="1087.3" x2="1092" y1="163.8" y2="163.8"/><linearGradient xlink:href="#a" id="c" x1="1097.4" x2="1102.1" y1="163.8" y2="163.8"/><linearGradient xlink:href="#a" id="d" x1="1088.6" x2="1126.5" y1="50.8" y2="63.8" gradientTransform="translate(-1078.2 -45)"/><linearGradient xlink:href="#a" id="e" x1="1151.3" x2="1157.1" y1="90.7" y2="95.6" gradientTransform="matrix(.88 0 0 .88 -995.6 -75.8)"/><linearGradient xlink:href="#a" id="f" x1="1143.9" x2="1149.8" y1="81.8" y2="87.8" gradientTransform="matrix(.91 0 0 .91 -1015 -67.7)"/><linearGradient xlink:href="#a" id="g" x1="1042.5" x2="1046.8" y1="14.6" y2="18.1" gradientTransform="matrix(1.14 0 0 1.14 -1179.4 -9.3)"/><linearGradient xlink:href="#a" id="h" x1="1082.8" x2="1090.5" y1="44.4" y2="50.2" gradientTransform="matrix(1.04 0 0 1.04 -1105.6 -35.8)"/><linearGradient xlink:href="#a" id="i" x1="914.8" x2="928.8" y1="10.4" y2="19.5" gradientTransform="translate(-893.4 7)"/><linearGradient xlink:href="#a" id="j" x1="910.5" x2="912.6" y1="-4.9" y2="-1.4" gradientTransform="matrix(1.06 0 0 1.06 -932.1 20.7)"/><linearGradient xlink:href="#a" id="k" x1="909.5" x2="912.8" y1="-6.4" y2="-1.3" gradientTransform="matrix(1.06 0 0 1.06 -925.1 23.7)"/><linearGradient xlink:href="#a" id="l" x1="909.3" x2="912.8" y1="-5.3" y2="-1.9" gradientTransform="matrix(1.06 0 0 1.06 -939.1 23.7)"/><linearGradient xlink:href="#a" id="m" x1="921.6" x2="925.7" y1="12.7" y2="17.9" gradientTransform="translate(-894.4 7)"/><linearGradient xlink:href="#a" id="n" x1="970.9" x2="974" y1="43.6" y2="46.4" gradientTransform="matrix(.9 0 0 .91 -859.4 -15)"/><linearGradient xlink:href="#a" id="o" x1="862.5" x2="866.6" y1="-42.9" y2="-38.5" gradientTransform="matrix(1.21 0 0 1.21 -1010.8 72.3)"/><linearGradient xlink:href="#a" id="p" x1="959.8" x2="973.9" y1="6.4" y2="15.5" gradientTransform="translate(-953.4 7)"/><linearGradient xlink:href="#a" id="q" x1="955.5" x2="957.7" y1="-8.9" y2="-5.5" gradientTransform="matrix(1.06 0 0 1.06 -994.7 20.9)"/><linearGradient xlink:href="#a" id="r" x1="954.5" x2="957.9" y1="-10.4" y2="-5.3" gradientTransform="matrix(1.06 0 0 1.06 -987.7 23.9)"/><linearGradient xlink:href="#a" id="s" x1="954.4" x2="957.9" y1="-9.4" y2="-5.9" gradientTransform="matrix(1.06 0 0 1.06 -1001.7 23.9)"/><linearGradient xlink:href="#a" id="t" x1="966.7" x2="970.7" y1="8.7" y2="13.8" gradientTransform="translate(-954.4 7)"/><linearGradient xlink:href="#a" id="u" x1="1016" x2="1019.1" y1="39.6" y2="42.3" gradientTransform="matrix(.9 0 0 .91 -915.1 -15.4)"/><linearGradient xlink:href="#a" id="v" x1="907.6" x2="911.7" y1="-46.9" y2="-42.5" gradientTransform="matrix(1.21 0 0 1.21 -1080.2 73.2)"/><style>.a{fill:#729fcf;stroke:#3465a4;stroke-linejoin:round;stroke-width:1.08px}.s{fill:#555753}.g,.l{fill:#888a85}.l{stroke:#555753;stroke-miterlimit:2;stroke-width:1px}.s{fill-rule:evenodd}</style></defs><path d="M15.7 24.5H18c1.3 0 2 .5 1.4 1.2L9.1 39.3a4.5 4.5 0 0 1-3.3 1.2H3.6c-1.3 0-2-.5-1.4-1.2l10.2-13.6a4.4 4.4 0 0 1 3.3-1.2Z" class="a"/><path d="M12.6 26.3a4.4 4.4 0 0 1 3.1-1.3h2.1c1.3 0 1 .5.5 1.1L8.7 38.8a4.3 4.3 0 0 1-3 1.1h-2s-1.7.1-.6-1Z" style="fill:url(#a)"/><path d="M26.7 24.5H29c1.3 0 2 .5 1.4 1.2L20.1 39.3a4.5 4.5 0 0 1-3.3 1.2h-2.2c-1.3 0-2-.5-1.4-1.2l10.2-13.6a4.4 4.4 0 0 1 3.3-1.2Z" class="a"/><path d="M23.6 26.3a4.4 4.4 0 0 1 3.1-1.3h2.1c1.3 0 1 .5.5 1.1l-9.6 12.7a4.3 4.3 0 0 1-3 1.1h-2s-1.7.1-.6-1Z" style="fill:url(#b)"/><path d="M37.7 24.5H40c1.3 0 2 .5 1.4 1.2L31.1 39.3a4.5 4.5 0 0 1-3.3 1.2h-2.2c-1.3 0-2-.5-1.4-1.2l10.2-13.6a4.4 4.4 0 0 1 3.3-1.2Z" class="a"/><path d="M34.6 26.3a4.4 4.4 0 0 1 3.1-1.3h2.1c1.3 0 1 .5.5 1.1l-9.6 12.7a4.3 4.3 0 0 1-3 1.1h-2s-1.7.1-.6-1Z" style="fill:url(#c)"/><path d="M23 0a7.4 7.4 0 0 0-6.4 3.8 6.5 6.5 0 0 0-3-.8 7 7 0 0 0 0 14 6.9 6.9 0 0 0 5.6-3.2A7.1 7.1 0 0 0 23 15a7.5 7.5 0 0 0 2.6-.5 7 7 0 0 0 2 2.2l-.1.4a7 7 0 0 0 14 0 6.7 6.7 0 0 0-3.1-5.6l.1-.4a7 7 0 0 0-7-7 5.8 5.8 0 0 0-1.8.4A7.3 7.3 0 0 0 23 0Z" style="fill:#555753"/><path d="M23 1a6.6 6.6 0 0 0-6 4.2A5.8 5.8 0 0 0 13.6 4a6 6 0 1 0 5.3 8.5A6.4 6.4 0 0 0 23 14a5.7 5.7 0 0 0 2.9-.8 5.7 5.7 0 0 0 1.9 2.4 5.8 5.8 0 0 0-.4 1.8 6.5 6.5 0 1 0 9.8-5.5 3.5 3.5 0 0 0 .2-1A6 6 0 0 0 29 5.4 6.3 6.3 0 0 0 23 1Z" style="fill:url(#d)"/><path d="M40.5 17.5a6.5 6.5 0 0 1-13 0 6.5 6.5 0 0 1 13 0ZM28.5 7.5a5.5 5.5 0 0 1-11 0 5.5 5.5 0 0 1 11 0Z" class="g"/><path d="M28.5 7.5a5.5 5.5 0 0 1-11 0 5.5 5.5 0 0 1 11 0Z" style="fill:url(#e);isolation:isolate;opacity:.49"/><path d="M36.5 11.5a5.5 5.5 0 0 1-11 0 5.5 5.5 0 0 1 11 0Z" class="g"/><path d="M36.5 11.5a5.5 5.5 0 0 1-11 0 5.5 5.5 0 0 1 11 0Z" style="fill:url(#f);isolation:isolate;opacity:.49"/><path d="M18.5 10a5 5 0 1 1-10 0 5 5 0 1 1 10 0Z" class="g"/><path d="M18.5 10a5 5 0 1 1-10 0 5 5 0 1 1 10 0Z" style="fill:url(#g);isolation:isolate;opacity:.49"/><path d="M29.5 14a7 7 0 1 1-14 0 7 7 0 0 1 7-7 7 7 0 0 1 7 7Z" class="g"/><path d="M29.5 14a7 7 0 1 1-14 0 7 7 0 0 1 7-7 7 7 0 0 1 7 7Z" style="fill:url(#h);isolation:isolate;opacity:.49"/><path d="M30 12.5a5 5 0 0 0-4.7 3.6 4.4 4.4 0 0 0-2.3-.6 5 5 0 0 0-5 5 7.6 7.6 0 0 0 .3 1.6 4.5 4.5 0 0 0 2.2 8.4h19A4.5 4.5 0 0 0 44 26a4.6 4.6 0 0 0-2.3-3.9 4.2 4.2 0 0 0 .3-1.6 5 5 0 0 0-5-5 6 6 0 0 0-2.3.6 5 5 0 0 0-4.7-3.6Z" class="l"/><path d="M30 13c-2.2 0-3.7 1.3-4.4 3.8a6.2 6.2 0 0 0-2.4-.8 4.6 4.6 0 0 0-4.8 4.5 11.6 11.6 0 0 0 .4 1.8 4 4 0 0 0 1.9 7.7H39a4 4 0 0 0 4.3-4.3 4 4 0 0 0-2.4-3.4 6 6 0 0 0 .5-1.8 4.6 4.6 0 0 0-4.8-4.6 6.3 6.3 0 0 0-2.3.8A4.3 4.3 0 0 0 30 13Z" style="fill:url(#i)"/><path d="M33.5 17.5A3.5 3.5 0 1 1 30 14a3.5 3.5 0 0 1 3.5 3.5Z" class="g"/><path d="M33.5 17.5A3.5 3.5 0 1 1 30 14a3.5 3.5 0 0 1 3.5 3.5Z" style="fill:url(#j);opacity:.48;isolation:isolate"/><path d="M20.5 20h20v9h-20z" class="g"/><path d="M23.5 26a3 3 0 1 1-3-3 3 3 0 0 1 3 3ZM40.5 20.5A3.5 3.5 0 1 1 37 17a3.5 3.5 0 0 1 3.5 3.5Z" class="g"/><path d="M40.5 20.5A3.5 3.5 0 1 1 37 17a3.5 3.5 0 0 1 3.5 3.5Z" style="fill:url(#k);opacity:.48;isolation:isolate"/><path d="M26.5 20.5A3.5 3.5 0 1 1 23 17a3.5 3.5 0 0 1 3.5 3.5Z" class="g"/><path d="M26.5 20.5A3.5 3.5 0 1 1 23 17a3.5 3.5 0 0 1 3.5 3.5Z" style="fill:url(#l);opacity:.48;isolation:isolate"/><path d="M29 17a6.5 6.5 0 0 0-6.5 6.5 6.3 6.3 0 0 0 3.3 5.5h6.5a6.4 6.4 0 0 0 3.3-5.5A6.7 6.7 0 0 0 29 17Z" class="g"/><path d="M29 17a6.5 6.5 0 0 0-6.5 6.5 6.2 6.2 0 0 0 3.3 5.5h6.5a6.4 6.4 0 0 0 3.3-5.5A6.6 6.6 0 0 0 29 17Z" style="fill:url(#m);opacity:.48;isolation:isolate"/><path d="M23.5 26a3 3 0 1 1-3-3 3 3 0 0 1 3 3Z" style="fill:url(#n);opacity:.48;isolation:isolate"/><path d="M42.4 20.7c0 2.7-3.3 3.7-3.3 3.7s2.3-1.6 2.3-3.7Z" class="s"/><path d="M37.5 25a4 4 0 1 1-4-4 4 4 0 0 1 4 4Z" class="g"/><path d="M37.5 25a4 4 0 1 1-4-4 4 4 0 0 1 4 4Z" style="fill:url(#o);opacity:.48;isolation:isolate"/><path d="M15 8.5a5 5 0 0 0-4.7 3.6 4.4 4.4 0 0 0-2.3-.6 5 5 0 0 0-5 5 7.6 7.6 0 0 0 .3 1.6A4.4 4.4 0 0 0 1 22a4.5 4.5 0 0 0 4.5 4.5h19A4.5 4.5 0 0 0 29 22a4.6 4.6 0 0 0-2.3-3.9 4.2 4.2 0 0 0 .3-1.6 5 5 0 0 0-5-5 6 6 0 0 0-2.3.6A5 5 0 0 0 15 8.5Z" class="l"/><path d="M15 9c-2.2 0-3.7 1.3-4.4 3.8a6.2 6.2 0 0 0-2.4-.8 4.5 4.5 0 0 0-4.8 4.5 11.6 11.6 0 0 0 .4 1.8 4 4 0 0 0 2 7.7H24a4 4 0 0 0 4.3-4.3 4 4 0 0 0-2.4-3.4 6 6 0 0 0 .5-1.8 4.6 4.6 0 0 0-4.8-4.6 6.3 6.3 0 0 0-2.3.8A4.3 4.3 0 0 0 15 9Z" style="fill:url(#p)"/><path d="M18.5 13.5A3.5 3.5 0 1 1 15 10a3.5 3.5 0 0 1 3.5 3.5Z" class="g"/><path d="M18.5 13.5A3.5 3.5 0 1 1 15 10a3.5 3.5 0 0 1 3.5 3.5Z" style="fill:url(#q);opacity:.48;isolation:isolate"/><path d="M5.5 16h20v9h-20z" class="g"/><path d="M8.5 22a3 3 0 0 1-3 3 3 3 0 0 1 0-6 3 3 0 0 1 3 3ZM25.5 16.5A3.5 3.5 0 1 1 22 13a3.5 3.5 0 0 1 3.5 3.5Z" class="g"/><path d="M25.5 16.5A3.5 3.5 0 1 1 22 13a3.5 3.5 0 0 1 3.5 3.5Z" style="fill:url(#r);opacity:.48;isolation:isolate"/><path d="M11.5 16.5A3.5 3.5 0 0 1 8 20a3.5 3.5 0 1 1 0-7 3.5 3.5 0 0 1 3.5 3.5Z" class="g"/><path d="M11.5 16.5A3.5 3.5 0 0 1 8 20a3.5 3.5 0 1 1 0-7 3.5 3.5 0 0 1 3.5 3.5Z" style="fill:url(#s);opacity:.48;isolation:isolate"/><path d="M14 13a6.5 6.5 0 0 0-6.5 6.5 6.3 6.3 0 0 0 3.3 5.5h6.5a6.4 6.4 0 0 0 3.3-5.5A6.7 6.7 0 0 0 14 13Z" class="g"/><path d="M14 13a6.5 6.5 0 0 0-6.5 6.5 6.2 6.2 0 0 0 3.3 5.5h6.5a6.4 6.4 0 0 0 3.3-5.5A6.6 6.6 0 0 0 14 13Z" style="fill:url(#t);opacity:.48;isolation:isolate"/><path d="M8.5 22a3 3 0 0 1-3 3 3 3 0 0 1 0-6 3 3 0 0 1 3 3Z" style="fill:url(#u);opacity:.48;isolation:isolate"/><path d="M27.4 16.7c0 2.7-3.3 3.7-3.3 3.7s2.3-1.6 2.3-3.7Z" class="s"/><path d="M22.5 21a4 4 0 1 1-4-4 4 4 0 0 1 4 4Z" class="g"/><path d="M22.5 21a4 4 0 1 1-4-4 4 4 0 0 1 4 4Z" style="fill:url(#v);opacity:.48;isolation:isolate"/></svg>