<svg xmlns="http://www.w3.org/2000/svg" xmlns:xlink="http://www.w3.org/1999/xlink" viewBox="0 0 45 45"><defs><linearGradient xlink:href="#a" id="b" x1="651.2" x2="671.7" y1="-4617" y2="-4638.4" gradientTransform="matrix(-.05 .1 -.09 -.06 -365 -305.7)"/><linearGradient xlink:href="#a" id="c" x1="1088.5" x2="1126.4" y1="50.8" y2="63.8" gradientTransform="translate(-1078.2 -45)"/><linearGradient xlink:href="#a" id="d" x1="1151.3" x2="1157" y1="90.7" y2="95.6" gradientTransform="matrix(.88 0 0 .88 -995.5 -75.8)"/><linearGradient xlink:href="#a" id="e" x1="1143.9" x2="1149.8" y1="81.8" y2="87.8" gradientTransform="matrix(.91 0 0 .91 -1015 -67.7)"/><linearGradient xlink:href="#a" id="f" x1="1042.4" x2="1046.8" y1="14.6" y2="18.1" gradientTransform="matrix(1.14 0 0 1.14 -1179.3 -9.3)"/><linearGradient xlink:href="#a" id="g" x1="1082.8" x2="1090.4" y1="44.4" y2="50.2" gradientTransform="matrix(1.04 0 0 1.04 -1105.6 -35.8)"/><linearGradient xlink:href="#a" id="h" x1="914.8" x2="928.8" y1="10.4" y2="19.5" gradientTransform="translate(-893.4 7)"/><linearGradient xlink:href="#a" id="i" x1="910.5" x2="912.6" y1="-4.9" y2="-1.4" gradientTransform="matrix(1.06 0 0 1.06 -932 20.7)"/><linearGradient xlink:href="#a" id="j" x1="909.4" x2="912.8" y1="-6.4" y2="-1.3" gradientTransform="matrix(1.06 0 0 1.06 -925 23.7)"/><linearGradient xlink:href="#a" id="k" x1="909.3" x2="912.8" y1="-5.4" y2="-1.9" gradientTransform="matrix(1.06 0 0 1.06 -939 23.7)"/><linearGradient xlink:href="#a" id="l" x1="921.6" x2="925.6" y1="12.7" y2="17.9" gradientTransform="translate(-894.4 7)"/><linearGradient xlink:href="#a" id="m" x1="970.9" x2="974" y1="43.6" y2="46.4" gradientTransform="matrix(.9 0 0 .91 -859.3 -15)"/><linearGradient xlink:href="#a" id="n" x1="862.5" x2="866.6" y1="-42.9" y2="-38.5" gradientTransform="matrix(1.21 0 0 1.21 -1010.8 72.3)"/><linearGradient xlink:href="#a" id="o" x1="959.8" x2="973.8" y1="6.4" y2="15.5" gradientTransform="translate(-953.4 7)"/><linearGradient xlink:href="#a" id="p" x1="955.5" x2="957.7" y1="-8.9" y2="-5.5" gradientTransform="matrix(1.06 0 0 1.06 -994.6 20.9)"/><linearGradient xlink:href="#a" id="q" x1="954.5" x2="957.8" y1="-10.4" y2="-5.3" gradientTransform="matrix(1.06 0 0 1.06 -987.6 23.9)"/><linearGradient xlink:href="#a" id="r" x1="954.4" x2="957.8" y1="-9.4" y2="-5.9" gradientTransform="matrix(1.06 0 0 1.06 -1001.6 23.9)"/><linearGradient xlink:href="#a" id="s" x1="966.7" x2="970.7" y1="8.7" y2="13.8" gradientTransform="translate(-954.4 7)"/><linearGradient xlink:href="#a" id="t" x1="1015.9" x2="1019" y1="39.6" y2="42.3" gradientTransform="matrix(.9 0 0 .91 -915.1 -15.4)"/><linearGradient xlink:href="#a" id="u" x1="907.5" x2="911.6" y1="-46.9" y2="-42.5" gradientTransform="matrix(1.21 0 0 1.21 -1080.2 73.2)"/><linearGradient xlink:href="#a" id="w" x1="711.2" x2="731.7" y1="-4627" y2="-4648.4" gradientTransform="matrix(-.05 .1 -.09 -.06 -382.8 -322.5)"/><linearGradient xlink:href="#a" id="y" x1="721.8" x2="742.3" y1="-4608.9" y2="-4630.4" gradientTransform="matrix(-.05 .1 -.09 -.06 -383.6 -312.5)"/><linearGradient xlink:href="#a" id="aa" x1="679.9" x2="700.4" y1="-4617.8" y2="-4639.2" gradientTransform="matrix(-.05 .1 -.09 -.06 -375.6 -314.7)"/><linearGradient xlink:href="#a" id="ac" x1="628.5" x2="649" y1="-4638.9" y2="-4660.4" gradientTransform="matrix(-.05 .1 -.09 -.06 -364.3 -315.7)"/><radialGradient id="a" cx="6197.1" cy="316.2" r="21.7" gradientTransform="matrix(.07 .04 -.06 .11 -389 -253.8)" gradientUnits="userSpaceOnUse"><stop offset="0" stop-color="#fff"/><stop offset="1" stop-color="#fff" stop-opacity="0"/></radialGradient><radialGradient xlink:href="#a" id="v" cx="6257.1" cy="306.2" r="21.7" gradientTransform="matrix(.07 .04 -.06 .11 -413.8 -265.2)"/><radialGradient xlink:href="#a" id="x" cx="6252.5" cy="320.2" r="21.7" gradientTransform="matrix(.07 .04 -.06 .11 -415.6 -256.6)"/><radialGradient xlink:href="#a" id="z" cx="6227.1" cy="304.4" r="21.7" gradientTransform="matrix(.07 .04 -.06 .11 -403.8 -259.8)"/><radialGradient xlink:href="#a" id="ab" cx="6206.3" cy="291.3" r="21.7" gradientTransform="matrix(.07 .04 -.06 .11 -387.2 -262.5)"/><style>.a{fill:#729fcf;stroke:#204a87;stroke-miterlimit:2;stroke-width:1.07px}.r{fill:#555753}.f,.k{fill:#888a85}.k{stroke:#555753;stroke-miterlimit:2;stroke-width:1px}.r{fill-rule:evenodd}.ai{fill:#fff;stroke:#729fcf;stroke-miterlimit:10}</style></defs><path d="M28.1 40.2a2.1 2.1 0 0 1-.8-2.9c1.3-2 3.1-1.5 4-3.7 1.3 1.3.8 8.2-3.2 6.6Z" class="a"/><path d="M30.9 39.1a1.7 1.7 0 0 1-2.4.7 1.9 1.9 0 0 1-.6-2.5c.5-.9 2.6-.5 3.3-2.3.8.5.2 3.2-.3 4.1Z" style="fill:url(#a);isolation:isolate;opacity:.46"/><path d="M29.6 40c-4.7-1.1.1-4.7 1-3.9-3.6 1.3-1 3.9-1 3.9Z" style="fill:url(#b)"/><path d="M23 0a7.5 7.5 0 0 0-6.3 3.8 6.5 6.5 0 0 0-3.2-.8 7 7 0 0 0 0 14 6.9 6.9 0 0 0 5.7-3.2 7.1 7.1 0 0 0 3.9 1.2 7.5 7.5 0 0 0 2.5-.5 7 7 0 0 0 2 2.2v.4a7 7 0 0 0 14 0 6.7 6.7 0 0 0-3.2-5.6l.1-.4a7 7 0 0 0-7-7 5.8 5.8 0 0 0-1.8.4A7.3 7.3 0 0 0 23.1 0Z" style="fill:#555753"/><path d="M23 1a6.7 6.7 0 0 0-6 4.2A5.8 5.8 0 0 0 13.6 4a6 6 0 1 0 5.4 8.5 6.4 6.4 0 0 0 4.1 1.5 5.7 5.7 0 0 0 2.9-.8 5.7 5.7 0 0 0 1.9 2.4 5.8 5.8 0 0 0-.4 1.8 6.5 6.5 0 1 0 9.8-5.5 3.5 3.5 0 0 0 .2-1 6 6 0 0 0-8.4-5.5 6.3 6.3 0 0 0-6-4.4Z" style="fill:url(#c)"/><path d="M40.5 17.5a6.5 6.5 0 0 1-13 0 6.5 6.5 0 0 1 13 0ZM28.6 7.5a5.5 5.5 0 0 1-11 0 5.5 5.5 0 0 1 11 0Z" class="f"/><path d="M28.6 7.5a5.5 5.5 0 0 1-11 0 5.5 5.5 0 0 1 11 0Z" style="fill:url(#d);opacity:.49;isolation:isolate"/><path d="M36.5 11.5a5.5 5.5 0 1 1-11 0 5.5 5.5 0 1 1 11 0Z" class="f"/><path d="M36.5 11.5a5.5 5.5 0 1 1-11 0 5.5 5.5 0 1 1 11 0Z" style="fill:url(#e);opacity:.49;isolation:isolate"/><path d="M18.6 10a5 5 0 1 1-5-5 5 5 0 0 1 5 5Z" class="f"/><path d="M18.6 10a5 5 0 1 1-5-5 5 5 0 0 1 5 5Z" style="fill:url(#f);opacity:.49;isolation:isolate"/><path d="M29.6 14a7 7 0 0 1-14 0 7 7 0 1 1 14 0Z" class="f"/><path d="M29.6 14a7 7 0 0 1-14 0 7 7 0 1 1 14 0Z" style="fill:url(#g);opacity:.49;isolation:isolate"/><path d="M30 12.5a5 5 0 0 0-4.6 3.6 4.4 4.4 0 0 0-2.3-.6 5 5 0 0 0-5 5 7.6 7.6 0 0 0 .2 1.6 4.4 4.4 0 0 0-2.2 3.9 4.5 4.5 0 0 0 4.4 4.5h19A4.5 4.5 0 0 0 44 26a4.6 4.6 0 0 0-2.3-3.9 4.3 4.3 0 0 0 .3-1.6 5 5 0 0 0-5-5 6 6 0 0 0-2.3.6 5 5 0 0 0-4.7-3.6Z" class="k"/><path d="M30 13c-2.1 0-3.6 1.3-4.3 3.8a6.2 6.2 0 0 0-2.5-.8 4.6 4.6 0 0 0-4.7 4.5 11.6 11.6 0 0 0 .3 1.8 4 4 0 0 0 2 7.7H39a4 4 0 0 0 4.3-4.3 4 4 0 0 0-2.3-3.4 6 6 0 0 0 .5-1.8 4.6 4.6 0 0 0-4.8-4.6 6.3 6.3 0 0 0-2.3.8 4.3 4.3 0 0 0-4.3-3.7Z" style="fill:url(#h)"/><path d="M33.5 17.5A3.5 3.5 0 1 1 30 14a3.5 3.5 0 0 1 3.5 3.5Z" class="f"/><path d="M33.5 17.5A3.5 3.5 0 1 1 30 14a3.5 3.5 0 0 1 3.5 3.5Z" style="fill:url(#i);opacity:.48;isolation:isolate"/><path d="M20.6 20h20v9h-20z" class="f"/><path d="M23.6 26a3 3 0 1 1-3-3 3 3 0 0 1 3 3ZM40.5 20.5A3.5 3.5 0 1 1 37 17a3.5 3.5 0 0 1 3.5 3.5Z" class="f"/><path d="M40.5 20.5A3.5 3.5 0 1 1 37 17a3.5 3.5 0 0 1 3.5 3.5Z" style="fill:url(#j);opacity:.48;isolation:isolate"/><path d="M26.6 20.5A3.5 3.5 0 1 1 23 17a3.5 3.5 0 0 1 3.6 3.5Z" class="f"/><path d="M26.6 20.5A3.5 3.5 0 1 1 23 17a3.5 3.5 0 0 1 3.6 3.5Z" style="fill:url(#k);opacity:.48;isolation:isolate"/><path d="M29 17a6.5 6.5 0 0 0-6.5 6.5 6.3 6.3 0 0 0 3.3 5.5h6.5a6.4 6.4 0 0 0 3.3-5.5A6.6 6.6 0 0 0 29 17Z" class="f"/><path d="M29 17a6.5 6.5 0 0 0-6.4 6.5 6.2 6.2 0 0 0 3.2 5.5h6.6a6.4 6.4 0 0 0 3.3-5.5A6.6 6.6 0 0 0 29 17Z" style="fill:url(#l);opacity:.48;isolation:isolate"/><path d="M23.6 26a3 3 0 1 1-3-3 3 3 0 0 1 3 3Z" style="fill:url(#m);opacity:.48;isolation:isolate"/><path d="M42.4 20.7c0 2.7-3.3 3.7-3.3 3.7s2.3-1.6 2.3-3.7Z" class="r"/><path d="M37.5 25a4 4 0 1 1-4-4 4 4 0 0 1 4 4Z" class="f"/><path d="M37.5 25a4 4 0 1 1-4-4 4 4 0 0 1 4 4Z" style="fill:url(#n);opacity:.48;isolation:isolate"/><path d="M15 8.5a5 5 0 0 0-4.7 3.6 4.4 4.4 0 0 0-2.3-.6 5 5 0 0 0-5 5 7.6 7.6 0 0 0 .3 1.6A4.4 4.4 0 0 0 1 22a4.5 4.5 0 0 0 4.5 4.5h19A4.5 4.5 0 0 0 29 22a4.6 4.6 0 0 0-2.3-3.9 4.2 4.2 0 0 0 .3-1.6 5 5 0 0 0-5-5 6 6 0 0 0-2.3.6A5 5 0 0 0 15 8.5Z" class="k"/><path d="M15 9c-2.2 0-3.7 1.3-4.4 3.8a6.2 6.2 0 0 0-2.4-.8 4.6 4.6 0 0 0-4.8 4.5 11.6 11.6 0 0 0 .4 1.8 4 4 0 0 0 2 7.7H24a4 4 0 0 0 4.3-4.3 4 4 0 0 0-2.4-3.4 6 6 0 0 0 .5-1.8 4.6 4.6 0 0 0-4.8-4.6 6.3 6.3 0 0 0-2.3.8A4.3 4.3 0 0 0 15 9Z" style="fill:url(#o)"/><path d="M18.5 13.5A3.5 3.5 0 1 1 15 10a3.5 3.5 0 0 1 3.5 3.5Z" class="f"/><path d="M18.5 13.5A3.5 3.5 0 1 1 15 10a3.5 3.5 0 0 1 3.5 3.5Z" style="fill:url(#p);opacity:.48;isolation:isolate"/><path d="M5.5 16h20v9h-20z" class="f"/><path d="M8.5 22a3 3 0 0 1-3 3 3 3 0 0 1 0-6 3 3 0 0 1 3 3ZM25.5 16.5A3.5 3.5 0 1 1 22 13a3.5 3.5 0 0 1 3.5 3.5Z" class="f"/><path d="M25.5 16.5A3.5 3.5 0 1 1 22 13a3.5 3.5 0 0 1 3.5 3.5Z" style="fill:url(#q);opacity:.48;isolation:isolate"/><path d="M11.5 16.5A3.5 3.5 0 0 1 8 20a3.5 3.5 0 1 1 0-7 3.5 3.5 0 0 1 3.5 3.5Z" class="f"/><path d="M11.5 16.5A3.5 3.5 0 0 1 8 20a3.5 3.5 0 1 1 0-7 3.5 3.5 0 0 1 3.5 3.5Z" style="fill:url(#r);opacity:.48;isolation:isolate"/><path d="M14 13a6.5 6.5 0 0 0-6.6 6.5 6.3 6.3 0 0 0 3.3 5.5h6.5a6.4 6.4 0 0 0 3.3-5.5A6.6 6.6 0 0 0 14 13Z" class="f"/><path d="M14 13a6.5 6.5 0 0 0-6.5 6.5 6.2 6.2 0 0 0 3.3 5.5h6.5a6.4 6.4 0 0 0 3.3-5.5A6.6 6.6 0 0 0 14 13Z" style="fill:url(#s);opacity:.48;isolation:isolate"/><path d="M8.5 22a3 3 0 0 1-3 3 3 3 0 0 1 0-6 3 3 0 0 1 3 3Z" style="fill:url(#t);opacity:.48;isolation:isolate"/><path d="M27.4 16.7c0 2.7-3.3 3.7-3.3 3.7s2.3-1.6 2.3-3.7Z" class="r"/><path d="M22.5 21a4 4 0 1 1-4-4 4 4 0 0 1 4 4Z" class="f"/><path d="M22.5 21a4 4 0 1 1-4-4 4 4 0 0 1 4 4Z" style="fill:url(#u);opacity:.48;isolation:isolate"/><path d="M8.2 30.2a2.1 2.1 0 0 1-.8-2.9c1.3-2 3-1.5 4-3.7 1.3 1.3.8 8.2-3.3 6.6Z" class="a"/><path d="M10.8 29.1a1.7 1.7 0 0 1-2.4.7 1.9 1.9 0 0 1-.6-2.5c.5-.9 2.6-.5 3.3-2.3.9.5.3 3.2-.3 4.1Z" style="fill:url(#v);isolation:isolate;opacity:.46"/><path d="M9.6 30c-4.6-1.1.2-4.7 1-3.9-3.6 1.3-1 3.9-1 3.9Z" style="fill:url(#w)"/><path d="M5.2 40.2a2.1 2.1 0 0 1-.8-2.9c1.3-2 3-1.5 4-3.7 1.3 1.3.8 8.2-3.3 6.6Z" class="a"/><path d="M7.8 39.1a1.7 1.7 0 0 1-2.4.7 1.9 1.9 0 0 1-.6-2.5c.5-.9 2.6-.5 3.3-2.3.8.5.3 3.2-.3 4.1Z" style="fill:url(#x);isolation:isolate;opacity:.46"/><path d="M6.5 40c-4.6-1.1.2-4.7 1-3.9-3.6 1.3-1 3.9-1 3.9Z" style="fill:url(#y)"/><path d="M16.1 34.2a2.1 2.1 0 0 1-.8-2.9c1.3-2 3.1-1.5 4-3.7 1.3 1.3.8 8.2-3.2 6.6Z" class="a"/><path d="M18.8 33.1a1.7 1.7 0 0 1-2.4.7 1.9 1.9 0 0 1-.6-2.5c.5-.9 2.6-.5 3.3-2.3.8.5.2 3.2-.3 4.1Z" style="fill:url(#z);isolation:isolate;opacity:.46"/><path d="M17.5 34c-4.6-1.1.2-4.7 1-3.9-3.6 1.3-1 3.9-1 3.9Z" style="fill:url(#aa)"/><path d="M32.1 29.2a2.1 2.1 0 0 1-.8-2.9c1.3-2 3.1-1.5 4-3.7 1.3 1.3.8 8.2-3.2 6.6Z" class="a"/><path d="M34.8 28.1a1.7 1.7 0 0 1-2.4.7 1.9 1.9 0 0 1-.6-2.5c.5-.9 2.6-.5 3.3-2.3.8.5.2 3.2-.3 4.1Z" style="fill:url(#ab);isolation:isolate;opacity:.46"/><path d="M33.5 29c-4.6-1.1.2-4.7 1-3.9-3.6 1.3-1 3.9-1 3.9Z" style="fill:url(#ac)"/><path d="M4.8 32a1.5 1.5 0 0 1-1.5 1.5A1.6 1.6 0 0 1 1.7 32a1.5 1.5 0 0 1 1.5-1.5A1.6 1.6 0 0 1 4.8 32ZM23.8 38.5a2 2 0 1 1-2-2 2 2 0 0 1 2 2Z" class="ai"/><path d="M14.7 39a1.5 1.5 0 1 1-1.5-1.5 1.5 1.5 0 0 1 1.5 1.5ZM38.7 34a1.5 1.5 0 1 1-1.5-1.5 1.4 1.4 0 0 1 1.5 1.5Z" style="stroke-width:1.47px;stroke-miterlimit:1;fill:#fff;stroke:#729fcf"/><path d="M28.7 31a2.4 2.4 0 1 1-2.4-2.5 2.5 2.5 0 0 1 2.4 2.5Z" style="stroke-width:.9px;stroke-miterlimit:1;fill:#fff;stroke:#729fcf"/></svg>