<svg xmlns="http://www.w3.org/2000/svg" xmlns:xlink="http://www.w3.org/1999/xlink" viewBox="0 0 45 45"><defs><linearGradient id="a" x1="1088.5" x2="1126.4" y1="50.7" y2="63.8" gradientTransform="translate(-1078.2 -45)" gradientUnits="userSpaceOnUse"><stop offset="0" stop-color="#fff"/><stop offset="1" stop-color="#fff" stop-opacity="0"/></linearGradient><linearGradient xlink:href="#a" id="b" x1="1151.2" x2="1157" y1="90.7" y2="95.5" gradientTransform="matrix(.88 0 0 .88 -995.5 -75.8)"/><linearGradient xlink:href="#a" id="c" x1="1143.8" x2="1149.8" y1="81.8" y2="87.7" gradientTransform="matrix(.91 0 0 .91 -1015 -67.7)"/><linearGradient xlink:href="#a" id="d" x1="1042.4" x2="1046.8" y1="14.6" y2="18.1" gradientTransform="matrix(1.14 0 0 1.14 -1179.3 -9.3)"/><linearGradient xlink:href="#a" id="e" x1="1082.7" x2="1090.4" y1="44.4" y2="50.2" gradientTransform="matrix(1.04 0 0 1.04 -1105.6 -35.8)"/><linearGradient xlink:href="#a" id="f" x1="914.7" x2="928.7" y1="10.4" y2="19.5" gradientTransform="translate(-893.4 7)"/><linearGradient xlink:href="#a" id="g" x1="910.4" x2="912.6" y1="-4.9" y2="-1.5" gradientTransform="matrix(1.06 0 0 1.06 -932 20.7)"/><linearGradient xlink:href="#a" id="h" x1="909.4" x2="912.8" y1="-6.5" y2="-1.3" gradientTransform="matrix(1.06 0 0 1.06 -925 23.7)"/><linearGradient xlink:href="#a" id="i" x1="909.3" x2="912.7" y1="-5.4" y2="-1.9" gradientTransform="matrix(1.06 0 0 1.06 -939 23.7)"/><linearGradient xlink:href="#a" id="j" x1="921.6" x2="925.6" y1="12.6" y2="17.8" gradientTransform="translate(-894.4 7)"/><linearGradient xlink:href="#a" id="k" x1="970.8" x2="973.9" y1="43.5" y2="46.3" gradientTransform="matrix(.9 0 0 .91 -859.3 -15)"/><linearGradient xlink:href="#a" id="l" x1="862.5" x2="866.5" y1="-43" y2="-38.6" gradientTransform="matrix(1.21 0 0 1.21 -1010.8 72.3)"/><linearGradient xlink:href="#a" id="m" x1="959.8" x2="973.8" y1="6.4" y2="15.5" gradientTransform="translate(-953.4 7)"/><linearGradient xlink:href="#a" id="n" x1="955.5" x2="957.6" y1="-8.9" y2="-5.5" gradientTransform="matrix(1.06 0 0 1.06 -994.6 20.9)"/><linearGradient xlink:href="#a" id="o" x1="954.5" x2="957.8" y1="-10.5" y2="-5.3" gradientTransform="matrix(1.06 0 0 1.06 -987.6 23.9)"/><linearGradient xlink:href="#a" id="p" x1="954.3" x2="957.8" y1="-9.4" y2="-5.9" gradientTransform="matrix(1.06 0 0 1.06 -1001.6 23.9)"/><linearGradient xlink:href="#a" id="q" x1="966.6" x2="970.6" y1="8.6" y2="13.8" gradientTransform="translate(-954.4 7)"/><linearGradient xlink:href="#a" id="r" x1="1015.9" x2="1019" y1="39.5" y2="42.3" gradientTransform="matrix(.9 0 0 .91 -915.1 -15.4)"/><linearGradient xlink:href="#a" id="s" x1="907.5" x2="911.6" y1="-47" y2="-42.6" gradientTransform="matrix(1.21 0 0 1.21 -1080.2 73.2)"/><linearGradient xlink:href="#a" id="t" x1="731.2" x2="751.7" y1="-4433.8" y2="-4455.2" gradientTransform="matrix(-.05 .1 -.09 -.06 -366.8 -303.1)"/><linearGradient xlink:href="#a" id="u" x1="648.9" x2="669.4" y1="-4407.8" y2="-4429.3" gradientTransform="matrix(-.05 .1 -.09 -.06 -366.8 -303.1)"/><linearGradient xlink:href="#a" id="v" x1="546.3" x2="566.8" y1="-4585.6" y2="-4607.1" gradientTransform="matrix(-.05 .1 -.09 -.06 -366.8 -303.1)"/><linearGradient xlink:href="#a" id="w" x1="628.5" x2="649" y1="-4611.5" y2="-4633" gradientTransform="matrix(-.05 .1 -.09 -.06 -366.8 -303.1)"/><linearGradient xlink:href="#a" id="x" x1="648" x2="668.5" y1="-4493.5" y2="-4515" gradientTransform="matrix(-.05 .1 -.09 -.06 -366.8 -303.1)"/><linearGradient xlink:href="#a" id="y" x1="564.6" x2="585.1" y1="-4671.6" y2="-4693.1" gradientTransform="matrix(-.05 .1 -.09 -.06 -366.8 -303.1)"/><style>.o{fill:#555753}.c,.h{fill:#888a85}.h{stroke:#555753;stroke-miterlimit:2;stroke-width:1px}.o{fill-rule:evenodd}.x{fill:#c8e1ff;stroke:#729fcf;stroke-miterlimit:2;stroke-width:1.07px}</style></defs><path d="M23 0a7.5 7.5 0 0 0-6.3 3.8 6.5 6.5 0 0 0-3.2-.8 7 7 0 0 0 0 14 6.9 6.9 0 0 0 5.7-3.2 7.1 7.1 0 0 0 3.9 1.2 7.5 7.5 0 0 0 2.5-.5 7 7 0 0 0 2 2.2v.4a7 7 0 0 0 14 0 6.7 6.7 0 0 0-3.2-5.6l.1-.4a7 7 0 0 0-7-7 5.8 5.8 0 0 0-1.8.4A7.3 7.3 0 0 0 23.1 0Z" style="fill:#555753"/><path d="M23 1a6.7 6.7 0 0 0-6 4.2A5.8 5.8 0 0 0 13.6 4a6 6 0 1 0 5.4 8.5 6.4 6.4 0 0 0 4.1 1.5 5.7 5.7 0 0 0 2.9-.8 5.7 5.7 0 0 0 1.9 2.4 5.8 5.8 0 0 0-.4 1.8 6.5 6.5 0 1 0 9.8-5.5 3.5 3.5 0 0 0 .2-1 6 6 0 0 0-8.4-5.5 6.4 6.4 0 0 0-6-4.4Z" style="fill:url(#a)"/><path d="M40.5 17.5a6.5 6.5 0 0 1-13 0 6.5 6.5 0 0 1 13 0ZM28.6 7.5a5.5 5.5 0 0 1-11 0 5.5 5.5 0 0 1 11 0Z" class="c"/><path d="M28.6 7.5a5.5 5.5 0 0 1-11 0 5.5 5.5 0 0 1 11 0Z" style="fill:url(#b);isolation:isolate;opacity:.49"/><path d="M36.5 11.5a5.5 5.5 0 1 1-11 0 5.5 5.5 0 1 1 11 0Z" class="c"/><path d="M36.5 11.5a5.5 5.5 0 1 1-11 0 5.5 5.5 0 1 1 11 0Z" style="fill:url(#c);isolation:isolate;opacity:.49"/><path d="M18.6 10a5 5 0 1 1-5-5 5 5 0 0 1 5 5Z" class="c"/><path d="M18.6 10a5 5 0 1 1-5-5 5 5 0 0 1 5 5Z" style="fill:url(#d);isolation:isolate;opacity:.49"/><path d="M29.6 14a7 7 0 0 1-14 0 7 7 0 1 1 14 0Z" class="c"/><path d="M29.6 14a7 7 0 0 1-14 0 7 7 0 1 1 14 0Z" style="fill:url(#e);isolation:isolate;opacity:.49"/><path d="M30 12.5a5 5 0 0 0-4.6 3.6 4.4 4.4 0 0 0-2.3-.6 5 5 0 0 0-5 5 7.6 7.6 0 0 0 .2 1.6 4.4 4.4 0 0 0-2.2 3.9 4.5 4.5 0 0 0 4.4 4.5h19A4.5 4.5 0 0 0 44 26a4.6 4.6 0 0 0-2.3-3.9 4.3 4.3 0 0 0 .3-1.6 5 5 0 0 0-5-5 6 6 0 0 0-2.3.6 5 5 0 0 0-4.7-3.6Z" class="h"/><path d="M30 13c-2.1 0-3.6 1.3-4.3 3.8a6.2 6.2 0 0 0-2.5-.8 4.6 4.6 0 0 0-4.7 4.5 11.6 11.6 0 0 0 .3 1.8 4 4 0 0 0 2 7.7H39a4 4 0 0 0 4.3-4.3 4 4 0 0 0-2.3-3.4 6 6 0 0 0 .5-1.8 4.6 4.6 0 0 0-4.8-4.6 6.3 6.3 0 0 0-2.3.8c-.6-2.3-2.3-3.7-4.3-3.7Z" style="fill:url(#f)"/><path d="M33.5 17.5A3.5 3.5 0 1 1 30 14a3.5 3.5 0 0 1 3.5 3.5Z" class="c"/><path d="M33.5 17.5A3.5 3.5 0 1 1 30 14a3.5 3.5 0 0 1 3.5 3.5Z" style="fill:url(#g);opacity:.48;isolation:isolate"/><path d="M20.6 20h20v9h-20z" class="c"/><path d="M23.6 26a3 3 0 1 1-3-3 3 3 0 0 1 3 3ZM40.5 20.5A3.5 3.5 0 1 1 37 17a3.5 3.5 0 0 1 3.5 3.5Z" class="c"/><path d="M40.5 20.5A3.5 3.5 0 1 1 37 17a3.5 3.5 0 0 1 3.5 3.5Z" style="fill:url(#h);opacity:.48;isolation:isolate"/><path d="M26.6 20.5A3.5 3.5 0 1 1 23 17a3.5 3.5 0 0 1 3.6 3.5Z" class="c"/><path d="M26.6 20.5A3.5 3.5 0 1 1 23 17a3.5 3.5 0 0 1 3.6 3.5Z" style="fill:url(#i);opacity:.48;isolation:isolate"/><path d="M29 17a6.5 6.5 0 0 0-6.5 6.5 6.3 6.3 0 0 0 3.3 5.5h6.5a6.4 6.4 0 0 0 3.3-5.5A6.6 6.6 0 0 0 29 17Z" class="c"/><path d="M29 17a6.5 6.5 0 0 0-6.4 6.5 6.2 6.2 0 0 0 3.2 5.5h6.6a6.4 6.4 0 0 0 3.3-5.5A6.7 6.7 0 0 0 29 17Z" style="fill:url(#j);opacity:.48;isolation:isolate"/><path d="M23.6 26a3 3 0 1 1-3-3 3 3 0 0 1 3 3Z" style="fill:url(#k);opacity:.48;isolation:isolate"/><path d="M42.4 20.7c0 2.7-3.3 3.7-3.3 3.7s2.3-1.6 2.3-3.7Z" class="o"/><path d="M37.5 25a4 4 0 1 1-4-4 4 4 0 0 1 4 4Z" class="c"/><path d="M37.5 25a4 4 0 1 1-4-4 4 4 0 0 1 4 4Z" style="fill:url(#l);opacity:.48;isolation:isolate"/><path d="M15 8.5a5 5 0 0 0-4.7 3.6 4.4 4.4 0 0 0-2.3-.6 5 5 0 0 0-5 5 7.6 7.6 0 0 0 .3 1.6A4.4 4.4 0 0 0 1 22a4.5 4.5 0 0 0 4.5 4.5h19A4.5 4.5 0 0 0 29 22a4.6 4.6 0 0 0-2.3-3.9 4.2 4.2 0 0 0 .3-1.6 5 5 0 0 0-5-5 6 6 0 0 0-2.3.6A5 5 0 0 0 15 8.5Z" class="h"/><path d="M15 9c-2.2 0-3.7 1.3-4.4 3.8a6.2 6.2 0 0 0-2.4-.8 4.6 4.6 0 0 0-4.8 4.5 11.6 11.6 0 0 0 .4 1.8 4 4 0 0 0 2 7.7H24a4 4 0 0 0 4.3-4.3 4 4 0 0 0-2.4-3.4 6 6 0 0 0 .5-1.8 4.6 4.6 0 0 0-4.8-4.6 6.3 6.3 0 0 0-2.3.8C18.7 10.4 17.1 9 15 9Z" style="fill:url(#m)"/><path d="M18.5 13.5A3.5 3.5 0 1 1 15 10a3.5 3.5 0 0 1 3.5 3.5Z" class="c"/><path d="M18.5 13.5A3.5 3.5 0 1 1 15 10a3.5 3.5 0 0 1 3.5 3.5Z" style="fill:url(#n);opacity:.48;isolation:isolate"/><path d="M5.5 16h20v9h-20z" class="c"/><path d="M8.5 22a3 3 0 0 1-3 3 3 3 0 0 1 0-6 3 3 0 0 1 3 3ZM25.5 16.5A3.5 3.5 0 1 1 22 13a3.5 3.5 0 0 1 3.5 3.5Z" class="c"/><path d="M25.5 16.5A3.5 3.5 0 1 1 22 13a3.5 3.5 0 0 1 3.5 3.5Z" style="fill:url(#o);opacity:.48;isolation:isolate"/><path d="M11.5 16.5A3.5 3.5 0 0 1 8 20a3.5 3.5 0 1 1 0-7 3.5 3.5 0 0 1 3.5 3.5Z" class="c"/><path d="M11.5 16.5A3.5 3.5 0 0 1 8 20a3.5 3.5 0 1 1 0-7 3.5 3.5 0 0 1 3.5 3.5Z" style="fill:url(#p);opacity:.48;isolation:isolate"/><path d="M14 13a6.5 6.5 0 0 0-6.6 6.5 6.3 6.3 0 0 0 3.3 5.5h6.5a6.4 6.4 0 0 0 3.3-5.5A6.6 6.6 0 0 0 14 13Z" class="c"/><path d="M14 13a6.5 6.5 0 0 0-6.5 6.5 6.2 6.2 0 0 0 3.3 5.5h6.5a6.4 6.4 0 0 0 3.3-5.5A6.7 6.7 0 0 0 14 13Z" style="fill:url(#q);opacity:.48;isolation:isolate"/><path d="M8.5 22a3 3 0 0 1-3 3 3 3 0 0 1 0-6 3 3 0 0 1 3 3Z" style="fill:url(#r);opacity:.48;isolation:isolate"/><path d="M27.4 16.7c0 2.7-3.3 3.7-3.3 3.7s2.3-1.6 2.3-3.7Z" class="o"/><path d="M22.5 21a4 4 0 1 1-4-4 4 4 0 0 1 4 4Z" class="c"/><path d="M22.5 21a4 4 0 1 1-4-4 4 4 0 0 1 4 4Z" style="fill:url(#s);opacity:.48;isolation:isolate"/><path d="M5.1 40.2a2.1 2.1 0 0 1-.8-2.9c1.3-2 3.1-1.5 4-3.7 1.3 1.3.8 8.2-3.2 6.6Z" class="x"/><path d="M6.5 40c-4.6-1.1.2-4.7 1-3.9-3.6 1.4-1 3.9-1 3.9Z" style="fill:url(#t)"/><path d="M7.1 30.2a2.1 2.1 0 0 1-.8-2.9c1.3-2 3.1-1.5 4-3.7 1.3 1.3.8 8.2-3.2 6.6Z" class="x"/><path d="M8.5 30c-4.6-1.1.2-4.7 1-3.9-3.6 1.4-1 3.9-1 3.9Z" style="fill:url(#u)"/><path d="M29.1 30.2a2.1 2.1 0 0 1-.8-2.9c1.3-2 3.1-1.5 4-3.7 1.3 1.3.8 8.2-3.2 6.6Z" class="x"/><path d="M30.5 30c-4.6-1.1.2-4.7 1-3.9-3.6 1.4-1 3.9-1 3.9Z" style="fill:url(#v)"/><path d="M27.1 40.2a2.1 2.1 0 0 1-.8-2.9c1.3-2 3.1-1.5 4-3.7 1.3 1.3.8 8.2-3.2 6.6Z" class="x"/><path d="M28.5 40c-4.6-1.1.2-4.7 1-3.9-3.6 1.4-1 3.9-1 3.9Z" style="fill:url(#w)"/><path d="M15.1 35.2a2.1 2.1 0 0 1-.8-2.9c1.3-2 3.1-1.5 4-3.7 1.3 1.3.8 8.2-3.2 6.6Z" class="x"/><path d="M16.5 35c-4.6-1.1.2-4.7 1-3.9-3.6 1.4-1 3.9-1 3.9Z" style="fill:url(#x)"/><path d="M36.1 37.2a2.1 2.1 0 0 1-.8-2.9c1.3-2 3.1-1.5 4-3.7 1.3 1.3.8 8.2-3.2 6.6Z" class="x"/><path d="M37.5 37c-4.6-1.1.2-4.7 1-3.9-3.6 1.4-1 3.9-1 3.9Z" style="fill:url(#y)"/></svg>