<svg xmlns="http://www.w3.org/2000/svg" xmlns:xlink="http://www.w3.org/1999/xlink" viewBox="0 0 45 45"><defs><linearGradient id="a" x1="1247.1" x2="1297.5" y1="103.9" y2="120.8" gradientTransform="translate(-1238.2 -98)" gradientUnits="userSpaceOnUse"><stop offset="0" stop-color="#fff"/><stop offset="1" stop-color="#fff" stop-opacity="0"/></linearGradient><linearGradient xlink:href="#a" id="b" x1="943.7" x2="949.4" y1="245.8" y2="250.7" gradientTransform="matrix(.88 0 0 .88 -813.7 -212.6)"/><linearGradient xlink:href="#a" id="c" x1="936.3" x2="942.2" y1="236.9" y2="242.8" gradientTransform="matrix(.91 0 0 .91 -827.1 -209)"/><linearGradient xlink:href="#a" id="d" x1="834.9" x2="839.3" y1="169.7" y2="173.2" gradientTransform="matrix(1.14 0 0 1.14 -943.9 -186.4)"/><linearGradient xlink:href="#a" id="e" x1="875.3" x2="883" y1="199.4" y2="205.2" gradientTransform="matrix(1.04 0 0 1.04 -891.5 -196.8)"/><linearGradient xlink:href="#a" id="f" x1="-883.7" x2="-880.5" y1="104.6" y2="108.6" gradientTransform="matrix(1.33 0 0 1.33 1180.2 -127)"/><linearGradient xlink:href="#a" id="g" x1="1016.3" x2="1030.3" y1="217.5" y2="226.6" gradientTransform="translate(-996 -200)"/><linearGradient xlink:href="#a" id="h" x1="1012" x2="1014.2" y1="202.1" y2="205.6" gradientTransform="matrix(1.06 0 0 1.06 -1040.6 -198)"/><linearGradient xlink:href="#a" id="i" x1="1011" x2="1014.4" y1="200.6" y2="205.8" gradientTransform="matrix(1.06 0 0 1.06 -1033.6 -195)"/><linearGradient xlink:href="#a" id="j" x1="1010.9" x2="1014.4" y1="201.6" y2="205.1" gradientTransform="matrix(1.06 0 0 1.06 -1047.6 -195)"/><linearGradient xlink:href="#a" id="k" x1="1026.2" x2="1030.2" y1="219.7" y2="224.9" gradientTransform="translate(-1000 -200)"/><linearGradient xlink:href="#a" id="l" x1="1072.3" x2="1075.4" y1="250.6" y2="253.4" gradientTransform="matrix(.91 0 0 .91 -952.4 -202.5)"/><linearGradient xlink:href="#a" id="m" x1="730" x2="734.1" y1="210.3" y2="214.7" gradientTransform="matrix(1.8 0 0 1.8 -1286.4 -358.6)"/><linearGradient xlink:href="#a" id="n" x1="1061.3" x2="1075.3" y1="213.5" y2="222.6" gradientTransform="translate(-1056.1 -200)"/><linearGradient xlink:href="#a" id="o" x1="1057.1" x2="1059.2" y1="198.1" y2="201.6" gradientTransform="matrix(1.06 0 0 1.06 -1103.2 -197.8)"/><linearGradient xlink:href="#a" id="p" x1="1056" x2="1059.4" y1="196.6" y2="201.8" gradientTransform="matrix(1.06 0 0 1.06 -1096.2 -194.8)"/><linearGradient xlink:href="#a" id="q" x1="1055.9" x2="1059.4" y1="197.6" y2="201.1" gradientTransform="matrix(1.06 0 0 1.06 -1110.2 -194.8)"/><linearGradient xlink:href="#a" id="r" x1="1071.2" x2="1075.2" y1="215.7" y2="220.9" gradientTransform="translate(-1060.1 -200)"/><linearGradient xlink:href="#a" id="s" x1="1117.3" x2="1120.4" y1="246.6" y2="249.4" gradientTransform="matrix(.91 0 0 .91 -1008.2 -202.9)"/><linearGradient xlink:href="#a" id="t" x1="764.6" x2="768.8" y1="207.2" y2="211.6" gradientTransform="matrix(1.8 0 0 1.8 -1364 -357)"/><style>.p{fill:#888a85}.c,.i{fill:#c4c5c2}.i{stroke:#888a85;stroke-miterlimit:2}.p{fill-rule:evenodd}.y{fill:#fff;stroke:#729fcf;stroke-miterlimit:10}</style></defs><path d="M23 0a7.5 7.5 0 0 0-6.4 3.8 6.5 6.5 0 0 0-3.1-.8 7 7 0 1 0 0 14 6.9 6.9 0 0 0 5.7-3.2A7.1 7.1 0 0 0 23 15a7.5 7.5 0 0 0 2.6-.5 7 7 0 0 0 2 2.2l-.1.4a7 7 0 1 0 14 0 6.7 6.7 0 0 0-3.1-5.6l.1-.4a7 7 0 0 0-7-7 5.8 5.8 0 0 0-1.8.4A7.2 7.2 0 0 0 23 0Z" style="fill:#888a85"/><path d="M23 1a6.7 6.7 0 0 0-6.1 4.2A5.8 5.8 0 0 0 13.5 4a6 6 0 1 0 5.3 8.5A6.4 6.4 0 0 0 23 14a5.7 5.7 0 0 0 2.9-.8 5.7 5.7 0 0 0 1.9 2.4 5.8 5.8 0 0 0-.4 1.8 6.5 6.5 0 1 0 9.8-5.5 3.5 3.5 0 0 0 .2-1A6 6 0 0 0 29 5.4 6.2 6.2 0 0 0 23 1Z" style="fill:url(#a)"/><path d="M40.5 17.5a6.5 6.5 0 1 1-13 0 6.5 6.5 0 1 1 13 0ZM28.5 7.5a5.5 5.5 0 0 1-11 0 5.5 5.5 0 0 1 11 0Z" class="c"/><path d="M28.5 7.5a5.5 5.5 0 0 1-11 0 5.5 5.5 0 0 1 11 0Z" style="fill:url(#b)"/><path d="M36.5 11.5a5.5 5.5 0 1 1-11 0 5.5 5.5 0 1 1 11 0Z" class="c"/><path d="M36.5 11.5a5.5 5.5 0 1 1-11 0 5.5 5.5 0 1 1 11 0Z" style="fill:url(#c)"/><path d="M18.5 10a5 5 0 1 1-5-5 5 5 0 0 1 5 5Z" class="c"/><path d="M18.5 10a5 5 0 1 1-5-5 5 5 0 0 1 5 5Z" style="fill:url(#d)"/><path d="M29.5 14a7 7 0 0 1-14 0 7 7 0 0 1 14 0Z" class="c"/><path d="M29.5 14a7 7 0 0 1-14 0 7 7 0 0 1 14 0Z" style="fill:url(#e)"/><path d="M15 16.4a5 5 0 1 1-5-5 5 5 0 0 1 5 5Z" class="c"/><path d="M15.2 16.4a5 5 0 1 1-5.1-5 5 5 0 0 1 5 5Z" style="fill:url(#f)"/><path d="M30 12.5a5 5 0 0 0-4.7 3.6 4.4 4.4 0 0 0-2.3-.6 5 5 0 0 0-5 5 7.6 7.6 0 0 0 .3 1.6A4.4 4.4 0 0 0 16 26a4.5 4.5 0 0 0 4.5 4.5h19A4.5 4.5 0 0 0 44 26a4.6 4.6 0 0 0-2.3-3.9 4.2 4.2 0 0 0 .3-1.6 5 5 0 0 0-5-5 6 6 0 0 0-2.3.6 5 5 0 0 0-4.7-3.6Z" class="i"/><path d="M30 13c-2.2 0-3.7 1.3-4.4 3.8a6.2 6.2 0 0 0-2.4-.8 4.6 4.6 0 0 0-4.8 4.5 11.6 11.6 0 0 0 .4 1.8 4 4 0 0 0 1.9 7.7H39a4 4 0 0 0 4.3-4.3 4 4 0 0 0-2.4-3.4 6 6 0 0 0 .5-1.8 4.6 4.6 0 0 0-4.8-4.6 6.3 6.3 0 0 0-2.3.8A4.3 4.3 0 0 0 30 13Z" style="fill:url(#g)"/><path d="M33.5 17.5A3.5 3.5 0 1 1 30 14a3.5 3.5 0 0 1 3.5 3.5Z" class="c"/><path d="M33.5 17.5A3.5 3.5 0 1 1 30 14a3.5 3.5 0 0 1 3.5 3.5Z" style="fill:url(#h)"/><path d="M20.5 20h20v9h-20z" class="c"/><path d="M23.5 26a3 3 0 1 1-3-3 3 3 0 0 1 3 3ZM40.5 20.5A3.5 3.5 0 1 1 37 17a3.5 3.5 0 0 1 3.5 3.5Z" class="c"/><path d="M40.5 20.5A3.5 3.5 0 1 1 37 17a3.5 3.5 0 0 1 3.5 3.5Z" style="fill:url(#i)"/><path d="M26.5 20.5A3.5 3.5 0 1 1 23 17a3.5 3.5 0 0 1 3.5 3.5Z" class="c"/><path d="M26.5 20.5A3.5 3.5 0 1 1 23 17a3.5 3.5 0 0 1 3.5 3.5Z" style="fill:url(#j)"/><path d="M29 17a6.5 6.5 0 0 0-6.5 6.5 6.3 6.3 0 0 0 3.3 5.5h6.5a6.4 6.4 0 0 0 3.3-5.5A6.7 6.7 0 0 0 29 17Z" class="c"/><path d="M29 17a6.5 6.5 0 0 0-6.5 6.5 6.2 6.2 0 0 0 3.3 5.5h6.5a6.4 6.4 0 0 0 3.3-5.5A6.6 6.6 0 0 0 29 17Z" style="fill:url(#k)"/><path d="M23.5 26a3 3 0 1 1-3-3 3 3 0 0 1 3 3Z" style="fill:url(#l)"/><path d="M42.5 20.7c0 2.7-3.3 3.7-3.3 3.7s2.3-1.6 2.3-3.7Z" class="p"/><path d="M37.5 25a4 4 0 1 1-4-4 4 4 0 0 1 4 4Z" class="c"/><path d="M37.5 25a4 4 0 1 1-4-4 4 4 0 0 1 4 4Z" style="fill:url(#m)"/><path d="M15 8.5a5 5 0 0 0-4.7 3.6 4.4 4.4 0 0 0-2.3-.6 5 5 0 0 0-5 5 7.6 7.6 0 0 0 .3 1.6A4.4 4.4 0 0 0 1 22a4.5 4.5 0 0 0 4.5 4.5h19A4.5 4.5 0 0 0 29 22a4.6 4.6 0 0 0-2.3-3.9 4.2 4.2 0 0 0 .3-1.6 5 5 0 0 0-5-5 6 6 0 0 0-2.3.6A5 5 0 0 0 15 8.5Z" class="i"/><path d="M15 9c-2.2 0-3.7 1.3-4.4 3.8a6.2 6.2 0 0 0-2.4-.8 4.6 4.6 0 0 0-4.8 4.5 11.6 11.6 0 0 0 .4 1.8A4 4 0 0 0 5.7 26H24a4 4 0 0 0 4.3-4.3 4 4 0 0 0-2.4-3.4 6 6 0 0 0 .5-1.8 4.6 4.6 0 0 0-4.8-4.6 6.3 6.3 0 0 0-2.3.8A4.3 4.3 0 0 0 15 9Z" style="fill:url(#n)"/><path d="M18.5 13.5A3.5 3.5 0 1 1 15 10a3.5 3.5 0 0 1 3.5 3.5Z" class="c"/><path d="M18.5 13.5A3.5 3.5 0 1 1 15 10a3.5 3.5 0 0 1 3.5 3.5Z" style="fill:url(#o)"/><path d="M5.5 16h20v9h-20z" class="c"/><path d="M8.5 22a3 3 0 0 1-3 3 3 3 0 0 1 0-6 3 3 0 0 1 3 3ZM25.5 16.5A3.5 3.5 0 1 1 22 13a3.5 3.5 0 0 1 3.5 3.5Z" class="c"/><path d="M25.5 16.5A3.5 3.5 0 1 1 22 13a3.5 3.5 0 0 1 3.5 3.5Z" style="fill:url(#p)"/><path d="M11.5 16.5A3.5 3.5 0 0 1 8 20a3.5 3.5 0 0 1 0-7 3.5 3.5 0 0 1 3.5 3.5Z" class="c"/><path d="M11.5 16.5A3.5 3.5 0 0 1 8 20a3.5 3.5 0 0 1 0-7 3.5 3.5 0 0 1 3.5 3.5Z" style="fill:url(#q)"/><path d="M14 13a6.5 6.5 0 0 0-6.5 6.5 6.3 6.3 0 0 0 3.3 5.5h6.5a6.4 6.4 0 0 0 3.3-5.5A6.7 6.7 0 0 0 14 13Z" class="c"/><path d="M14 13a6.5 6.5 0 0 0-6.5 6.5 6.2 6.2 0 0 0 3.3 5.5h6.5a6.4 6.4 0 0 0 3.3-5.5A6.6 6.6 0 0 0 14 13Z" style="fill:url(#r)"/><path d="M8.5 22a3 3 0 0 1-3 3 3 3 0 0 1 0-6 3 3 0 0 1 3 3Z" style="fill:url(#s)"/><path d="M27.5 16.7c0 2.7-3.3 3.7-3.3 3.7s2.3-1.6 2.3-3.7Z" class="p"/><path d="M22.5 21a4 4 0 1 1-4-4 4 4 0 0 1 4 4Z" class="c"/><path d="M22.5 21a4 4 0 1 1-4-4 4 4 0 0 1 4 4Z" style="fill:url(#t)"/><path d="M11 28a1.5 1.5 0 1 1-1.5-1.5A1.5 1.5 0 0 1 11 28ZM23 34a1.5 1.5 0 1 1-1.5-1.5A1.5 1.5 0 0 1 23 34Z" class="y"/><path d="M32 30a1.5 1.5 0 1 1-1.5-1.5A1.5 1.5 0 0 1 32 30ZM38 35a1.5 1.5 0 1 1-1.5-1.5A1.5 1.5 0 0 1 38 35Z" style="stroke-width:1.47px;stroke-miterlimit:1;fill:#fff;stroke:#729fcf"/><path d="M14 35a1.5 1.5 0 1 1-1.5-1.5A1.5 1.5 0 0 1 14 35Z" style="stroke-width:1.46px;stroke-miterlimit:1;fill:#fff;stroke:#729fcf"/></svg>