<svg xmlns="http://www.w3.org/2000/svg" xmlns:xlink="http://www.w3.org/1999/xlink" viewBox="0 0 45 45"><defs><style>.a,.c{fill:#c4c5c2;}.a{stroke:#888a85;stroke-miterlimit:2;}.b{fill:url(#a);}.d{fill:url(#b);}.e{fill:url(#c);}.f{fill:url(#d);}.g{fill:url(#e);}.h{fill:url(#f);}.ab,.i{fill:#888a85;}.i,.l,.m,.n,.o,.p,.q,.r,.s,.x{fill-rule:evenodd;}.j{fill:url(#g);}.k{fill:#eaece8;}.l,.m,.n,.p{fill:#787974;}.l{opacity:0.11;}.l,.m,.n,.o,.p,.q,.r,.s,.t,.u,.v,.w{isolation:isolate;}.m{opacity:0.19;}.n,.s{opacity:0.18;}.o{fill:#f3f4f2;opacity:0.47;}.p{opacity:0.12;}.q,.r{fill:#938f8b;}.q{opacity:0.2;}.r{opacity:0.29;}.s{fill:url(#h);}.aa,.t,.u,.x{fill:#fff;}.t{opacity:0.62;}.u,.v{opacity:0.54;}.v,.w{fill:#c2c3be;}.w{opacity:0.57;}.y{opacity:0.32;}.z{fill:#a3a4a0;}.ac{fill:none;stroke:#fff;stroke-linecap:square;stroke-miterlimit:5.25;}.ad{fill:url(#i);}.ae{fill:url(#j);}.af{fill:url(#k);}.ag{fill:url(#l);}.ah{fill:url(#m);}.ai{fill:url(#n);}.aj{fill:url(#o);}</style><linearGradient id="a" x1="533.16" y1="39.54" x2="547.16" y2="30.44" gradientTransform="matrix(1, 0, 0, -1, -528, 56)" gradientUnits="userSpaceOnUse"><stop offset="0" stop-color="#fff"/><stop offset="1" stop-color="#fff" stop-opacity="0"/></linearGradient><linearGradient id="b" x1="534.48" y1="42.83" x2="536.68" y2="39.33" gradientTransform="matrix(1.06, 0, 0, -1.06, -552.38, 60.58)" xlink:href="#a"/><linearGradient id="c" x1="533.51" y1="44.35" x2="536.81" y2="39.15" gradientTransform="matrix(1.06, 0, 0, -1.06, -545.38, 63.58)" xlink:href="#a"/><linearGradient id="d" x1="533.73" y1="43.12" x2="537.13" y2="39.72" gradientTransform="matrix(1.06, 0, 0, -1.06, -559.38, 63.58)" xlink:href="#a"/><linearGradient id="e" x1="541.07" y1="37.38" x2="545.07" y2="32.18" gradientTransform="matrix(1, 0, 0, -1, -530, 56)" xlink:href="#a"/><linearGradient id="f" x1="573.99" y1="27.15" x2="577.09" y2="24.35" gradientTransform="matrix(0.91, 0, 0, -0.91, -517.13, 49.43)" xlink:href="#a"/><linearGradient id="g" x1="446.33" y1="-9.17" x2="450.43" y2="-13.57" gradientTransform="matrix(1.38, 0, 0, -1.38, -601.64, 6.84)" xlink:href="#a"/><radialGradient id="h" cx="12402.8" cy="-3313.63" r="358.4" gradientTransform="matrix(0.02, 0, 0, -0.03, -240.66, -72.31)" gradientUnits="userSpaceOnUse"><stop offset="0" stop-color="#787974"/><stop offset="1" stop-color="#787974" stop-opacity="0"/></radialGradient><linearGradient id="i" x1="518.16" y1="31.64" x2="532.16" y2="22.54" gradientTransform="matrix(1, 0, 0, -1, -498, 56)" xlink:href="#a"/><linearGradient id="j" x1="519.51" y1="34.95" x2="521.71" y2="31.45" gradientTransform="matrix(1.06, 0, 0, -1.06, -521.48, 60.18)" xlink:href="#a"/><linearGradient id="k" x1="518.54" y1="36.47" x2="521.84" y2="31.27" gradientTransform="matrix(1.06, 0, 0, -1.06, -514.48, 63.18)" xlink:href="#a"/><linearGradient id="l" x1="518.73" y1="35.34" x2="522.13" y2="31.84" gradientTransform="matrix(1.06, 0, 0, -1.06, -528.48, 63.18)" xlink:href="#a"/><linearGradient id="m" x1="526.07" y1="29.48" x2="530.07" y2="24.28" gradientTransform="matrix(1, 0, 0, -1, -500, 56)" xlink:href="#a"/><linearGradient id="n" x1="559.06" y1="19.32" x2="562.16" y2="16.52" gradientTransform="matrix(0.91, 0, 0, -0.91, -488.63, 50.13)" xlink:href="#a"/><linearGradient id="o" x1="433.19" y1="-16.1" x2="437.29" y2="-20.5" gradientTransform="matrix(1.38, 0, 0, -1.38, -568.54, 5.14)" xlink:href="#a"/></defs><title>wi_code2_night</title><path class="a" d="M15,11.5A5,5,0,0,0,10.3,15,4.38,4.38,0,0,0,8,14.5a5,5,0,0,0-5,5,7.29,7.29,0,0,0,.3,1.6A4.41,4.41,0,0,0,1,25a4.49,4.49,0,0,0,4.5,4.5h19A4.49,4.49,0,0,0,29,25a4.6,4.6,0,0,0-2.3-3.9,4.17,4.17,0,0,0,.3-1.6,5,5,0,0,0-5-5,5.94,5.94,0,0,0-2.3.6A5,5,0,0,0,15,11.5Z"/><path class="b" d="M15,12c-2.2,0-3.7,1.3-4.4,3.8A6.2,6.2,0,0,0,8.2,15a4.6,4.6,0,0,0-4.8,4.39v.11a12.31,12.31,0,0,0,.4,1.8A4,4,0,0,0,5.7,29H24a4,4,0,0,0,4.3-3.68,3.21,3.21,0,0,0,0-.62,4,4,0,0,0-2.4-3.4,6,6,0,0,0,.5-1.8,4.6,4.6,0,0,0-4.6-4.6h-.2a6.31,6.31,0,0,0-2.3.8A4.3,4.3,0,0,0,15,12Z"/><path class="c" d="M18.5,16.5A3.5,3.5,0,1,1,15,13,3.5,3.5,0,0,1,18.5,16.5Z"/><path class="d" d="M18.5,16.5A3.5,3.5,0,1,1,15,13,3.5,3.5,0,0,1,18.5,16.5Z"/><path class="c" d="M5.5,19h20v9H5.5Z"/><path class="c" d="M8.5,25a3,3,0,1,1-3-3A3,3,0,0,1,8.5,25Zm17-5.5A3.5,3.5,0,1,1,22,16,3.5,3.5,0,0,1,25.5,19.5Z"/><path class="e" d="M25.5,19.5A3.5,3.5,0,1,1,22,16,3.5,3.5,0,0,1,25.5,19.5Z"/><path class="c" d="M11.5,19.5A3.5,3.5,0,1,1,8,16,3.5,3.5,0,0,1,11.5,19.5Z"/><path class="f" d="M11.5,19.5A3.5,3.5,0,1,1,8,16,3.5,3.5,0,0,1,11.5,19.5Z"/><path class="c" d="M14,16a6.5,6.5,0,0,0-6.5,6.5v.1a6.29,6.29,0,0,0,3.3,5.5h6.5a6.4,6.4,0,0,0,3.3-5.5A6.59,6.59,0,0,0,14,16Z"/><path class="g" d="M14,16a6.5,6.5,0,0,0-6.5,6.5A6.2,6.2,0,0,0,10.8,28h6.5a6.4,6.4,0,0,0,3.3-5.5A6.59,6.59,0,0,0,14,16Z"/><path class="h" d="M8.5,25a3,3,0,1,1-3-3A3,3,0,0,1,8.5,25Z"/><path class="i" d="M27.5,19.7c0,2.7-3.3,3.7-3.3,3.7s2.3-1.6,2.3-3.7Z"/><path class="c" d="M22.5,24a4,4,0,1,1-4-4A4,4,0,0,1,22.5,24Z"/><path class="j" d="M22.5,24a4,4,0,1,1-4-4A4,4,0,0,1,22.5,24Z"/><path class="k" d="M36,20.9A13.5,13.5,0,1,1,22.5,7.4,13.49,13.49,0,0,1,36,20.9Z"/><path class="l" d="M16.4,9.3a.91.91,0,0,1-.3.6c-.2.3-.3.4,0,.7h.6a4,4,0,0,0,1-.4,5.6,5.6,0,0,1,.7-.2.79.79,0,0,1,.7.2l-.5.5-.7.3a3.09,3.09,0,0,1-.9.2c-.3,0-.5.2-.8.3a6.86,6.86,0,0,0-.9.8.91.91,0,0,0-.3.9c.1.3.2.5.5.5a.91.91,0,0,0,.7-.3c.2-.2.3-.7.6-1l.6-.5a.59.59,0,0,1,.7-.2,4.38,4.38,0,0,0,.7.4l.8-.4.1-.1a2.18,2.18,0,0,1,.8-.1,1.32,1.32,0,0,1,.7.2,2.86,2.86,0,0,1,.8.3,3.41,3.41,0,0,1,.6.6,1.28,1.28,0,0,0,.4.6l.8.6a4.76,4.76,0,0,1,.3.7,1.39,1.39,0,0,1,0,.9l-.5.9-.8.7a6,6,0,0,0-1.1.6,11,11,0,0,0-.8,1c-.3.5,0,.7.4.6a3.12,3.12,0,0,1,1-.2h.2l1.1-.5c.4-.1,1.5.6,2,.9s-.1.6-.2.7a1.65,1.65,0,0,1-1,.2l-.7-.1a.81.81,0,0,0-.8,0,.63.63,0,0,0-.1.8l.5.7c.1.3-.2.5-.4.7a3.35,3.35,0,0,1-1,0,1.81,1.81,0,0,0-1,.4,6,6,0,0,0-.3.8v.2a1,1,0,0,0,.2.9l.4.7a1.11,1.11,0,0,1,.1.8,2.44,2.44,0,0,0-.2.7,1.9,1.9,0,0,0,.3.8c.1.4,0,.4-.2.7a3,3,0,0,1-.8.4,1.4,1.4,0,0,1-.9-.1.62.62,0,0,0-.7.2c-.2.2-.3.3-.6,0a2.48,2.48,0,0,1-.6-1.1v-.2a2.8,2.8,0,0,1,0-1l.1-.7c0-.3-.8.3-1,.4h-.3a1,1,0,0,0-.4,1l.2,1c0,.4-.4.4-.7.4s-.6-.5-.8-.7-.7-.5-.8-.8-.3-.7.2-1c.3-.2.6-.2.8-.5s.5-.6,0-.8a1.11,1.11,0,0,0-.8-.1h-.2a1.5,1.5,0,0,1-1.3-.2c-.4-.2-.6-.6-.9-1a2.34,2.34,0,0,1-.6-1l-.3-1a2.8,2.8,0,0,1-.1-1l-.1-.8v-2l.1-1a3.5,3.5,0,0,1,.3-1l.4-.8a4.86,4.86,0,0,1,.4-.7l.6-.8a12.52,12.52,0,0,1,1.1-1.2,6.68,6.68,0,0,0,.6-.8l1-.8a2.34,2.34,0,0,0,.7-.7,2.44,2.44,0,0,1,.4-.7C16.2,9.5,16.4,9.3,16.4,9.3Z"/><path class="m" d="M27.5,14.5a4.85,4.85,0,0,1-1.7,0c-.4,0-.4-.2-.8.2h-.1a.69.69,0,0,0-.3.7v1.5a2.86,2.86,0,0,0,.3.8,2,2,0,0,0,.4.6,4,4,0,0,0,1,.4h.8c.2,0,.4,0,.4.4s-.6.7-.8,1a1,1,0,0,0,0,.9l.2.8c.1.3.1.5.4.7s.7,0,.9.3a1.24,1.24,0,0,1,.1.5c0,.4.1.6.4.4s.5-.1.7-.4a3.61,3.61,0,0,0,.4-1c.1-.2.4-.2.6-.2a2.15,2.15,0,0,0,.8,0,1.41,1.41,0,0,0,.8-.5c.4-.4.3-.6.4-1.1l-.1-.6v-.2c-.1-.2-.5-.2-.7-.2a4.91,4.91,0,0,1-1.3-.3c-.2,0-.7-.7-.8-.8a.91.91,0,0,1-.3-.6l-.1-1c-.1-.3,0-.6-.3-1a1.88,1.88,0,0,1-.4-.7,1.84,1.84,0,0,0-.5-.7.55.55,0,0,1-.4,0Z"/><path class="n" d="M33.6,16.8c-.2,0-.4.3-.6.4s-.1.5-.1.7v.8a3.19,3.19,0,0,0,.5.6,2,2,0,0,0,.8.4c.4,0,.6,0,.8-.3a2.41,2.41,0,0,0,.2-.8,2.18,2.18,0,0,0-.1-.8c-.1-.3-.2-.5-.5-.6a2.62,2.62,0,0,1-.6-.5.55.55,0,0,1-.4,0Z"/><path class="o" d="M21,29.1c.2,0,.8-.8,1.3-1l.2-.3a7.46,7.46,0,0,0,1.1-1.4,6,6,0,0,0,.9-2.1c.2-1,.3-.4,0,.2l-.1.4-.3,1.3c-.2.6-.7,1-.8,1.6a1.71,1.71,0,0,0-.1,1c.1.3.5-.4.8-.5s.5-.2.5.2a3.42,3.42,0,0,1-.2,1c-.1.5,1.3,0,1.6,0a6,6,0,0,0,2.5-1.3c.9-.7,1.6-1.6,2.5-2.4.7-.7,1-1.1.6,0l-.1.3-.1.3A3.11,3.11,0,0,1,30,28c-.8.6-1.4,1.6-2.3,2a4.83,4.83,0,0,1-1.1.4c-.4.2.7.3.9.4,2,.4-1.6.6-2.1.6-.7,0-1-.2-1.7.2-.2,0,1,.6,1,.6a6.79,6.79,0,0,0,1.4.4c.8,0-1.8.3-2.5,0a10.91,10.91,0,0,0-1.8-.3,2.72,2.72,0,0,0-.9,0v.9c0,.6-.2,1-.4.2a3.82,3.82,0,0,1-.4-1.4c0-.3-.4.5-.6.7a3.5,3.5,0,0,1-.9.9,6.14,6.14,0,0,0,.4-1c.1-.3.6-1.1.2-1.2l-1-.1a5.74,5.74,0,0,1-1.4-.4,15.77,15.77,0,0,0-3-1c-.2,0-1.6-1.5-.3-.2A5,5,0,0,0,17,31a5.18,5.18,0,0,0,1.3-.2,5.1,5.1,0,0,1,.8-.5c.3-.1-.4-.4-.6-.6l-.2-.2c-.7-.9-1-2-1.8-2.9-.1,0-2.1-2.4-1.2-1.6a19.07,19.07,0,0,1,2.6,2.4L19,29c.4.5.3,0,.2-.4a10.48,10.48,0,0,1-.1-2.5c0-1,.5,1,.6,1.2,0,.5.4,1.1.8.6s.4-.6.4,0v.2a1.56,1.56,0,0,0,0,1Z"/><path class="p" d="M32.6,20.4a1,1,0,0,1,.2.6l-.8.7-.3.8a2.08,2.08,0,0,0-.1.7l.3.9.6.6a1.74,1.74,0,0,0,1,.5c.4,0-.3.4-.4.5a2,2,0,0,0-.7.7c-.2.3.2.5.4.6s.6-.3.7-.5a1,1,0,0,0,.4-.7L34,25l.1-.8a1.21,1.21,0,0,1,.4-.7.8.8,0,0,0,.1-.8l-.3-.7a.81.81,0,0,0-.6-.4A4.44,4.44,0,0,1,33,21C33,20.6,32.9,20.4,32.6,20.4Z"/><path class="q" d="M20.2,9.7l.8-.2h1s.3.5.6.5h.2a1.37,1.37,0,0,1,.7.4c.2.2,0,.5,0,.6-.4.3-.6,0-.8-.1a1.28,1.28,0,0,0-.6-.4,2.15,2.15,0,0,0-.8,0,2.51,2.51,0,0,1-.9.2l-.6-.6Z"/><path class="r" d="M25,10.4a3.35,3.35,0,0,0,1,0,2.85,2.85,0,0,1,1.3,0c.2,0,1.6.3,1,.6l-.9.4c-.3.2.4.3.6.3.4,0,.2.5.1.7a1,1,0,0,0,0,.9c.1.3.5.2.8.2a.8.8,0,0,1,.8.3c.2.2.4.5.3.7s-.7.3-.9.3-.8-.8-.8-.8c-.2-.2-.5,0-.7,0-.4,0-.7-.4-.9-.6a2.37,2.37,0,0,1-.6-.8c-.2-.3.1-.5-.4-.5a1.32,1.32,0,0,1-.7-.2c-.3-.2-.6-.1-.6-.6s0-.5.4-.7Z"/><path class="s" d="M16.5,9.2a.91.91,0,0,1-.3.6c-.2.3-.3.4,0,.7h.6a4,4,0,0,0,1-.4,5.6,5.6,0,0,1,.7-.2.79.79,0,0,1,.7.2l-.5.5-.7.3a3.09,3.09,0,0,1-.9.2c-.3,0-.5.2-.8.3a6.86,6.86,0,0,0-.9.8.91.91,0,0,0-.3.9c.1.3.2.5.5.5a.91.91,0,0,0,.7-.3c.2-.2.3-.7.6-1l.6-.5a.59.59,0,0,1,.7-.2,4.38,4.38,0,0,0,.7.4l.8-.4.1-.1a2.18,2.18,0,0,1,.8-.1,1.32,1.32,0,0,1,.7.2,2.86,2.86,0,0,1,.8.3,3.41,3.41,0,0,1,.6.6,1.28,1.28,0,0,0,.4.6l.8.6a4.76,4.76,0,0,1,.3.7,1.39,1.39,0,0,1,0,.9l-.5.9-.8.7c-.3.2-.8.3-1,.6a10.69,10.69,0,0,0-.9,1c-.3.5,0,.7.4.6a3.12,3.12,0,0,1,1-.2h.2l1.1-.5c.4-.1,1.5.6,2,.9s0,.6-.2.7a1.65,1.65,0,0,1-1,.2l-.7-.1a.81.81,0,0,0-.8,0,.52.52,0,0,0,0,.8l.4.7c.1.3-.2.5-.4.7a3.35,3.35,0,0,1-1,0,1.78,1.78,0,0,0-1,.3,6,6,0,0,0-.3.8v.2a1,1,0,0,0,.2,1l.4.6a1.11,1.11,0,0,1,.1.8,2.44,2.44,0,0,0-.2.7,1.9,1.9,0,0,0,.3.8c.1.4,0,.4-.2.7a3,3,0,0,1-.8.4,1.39,1.39,0,0,1-.9,0c-.3-.2-.5,0-.7.1s-.3.3-.6,0a2.34,2.34,0,0,1-.6-1v-.3a2.72,2.72,0,0,1,0-.9l.1-.8c0-.3-.8.3-1,.4l-.3.1c-.4.2-.4.5-.4,1l.2,1c0,.4-.4.3-.7.3s-.6-.5-.8-.7-.7-.5-.8-.8-.3-.7.2-1c.3-.2.6-.2.8-.5s.5-.6,0-.8a1.1,1.1,0,0,0-.8,0H14a1.49,1.49,0,0,1-1.3-.3c-.4-.2-.6-.6-.9-.9a2.34,2.34,0,0,1-.6-1l-.3-1a2.8,2.8,0,0,1-.1-1l-.1-.8v-2l.1-1a3.5,3.5,0,0,1,.3-1l.4-.8a4.38,4.38,0,0,1,.4-.7l.6-.8a12.52,12.52,0,0,1,1.1-1.2,6.68,6.68,0,0,0,.6-.8l1-.8a2.34,2.34,0,0,0,.7-.7,2.44,2.44,0,0,1,.4-.7Z"/><path class="t" d="M20.2,21.5a.7.7,0,1,1-.7-.7.7.7,0,0,1,.7.7Z"/><path class="u" d="M13.7,16a.4.4,0,1,1-.4-.4.4.4,0,0,1,.4.4Z"/><path class="v" d="M30,20.7a.7.7,0,1,1-.7-.7A.7.7,0,0,1,30,20.7Z"/><path class="w" d="M24.9,30.8a.7.7,0,0,1-.7.7h0a.7.7,0,0,1-.7-.7h0a.7.7,0,0,1,.7-.7h0A.79.79,0,0,1,24.9,30.8Z"/><path class="t" d="M29.1,20.9a.4.4,0,0,1-.8,0h0a.4.4,0,0,1,.8,0ZM20.8,31.3a.4.4,0,1,1-.4-.4A.4.4,0,0,1,20.8,31.3Zm6.6-4.5a.41.41,0,1,1-.51-.49H27a.4.4,0,0,1,.4.4Zm5.2-11.4a.4.4,0,0,1-.4.4h0a.4.4,0,1,1,.4-.4Zm-3,.8a.4.4,0,0,1-.8,0h0a.4.4,0,0,1,.8,0Zm1.2-4.5a.4.4,0,1,1-.8,0h0a.4.4,0,0,1,.8,0ZM22,24.9a.45.45,0,0,1-.9,0,.4.4,0,0,1,.8,0H22Z"/><path class="x" d="M21,29.4l1.1-1,.2-.1a4.49,4.49,0,0,0,1-1.4,4.21,4.21,0,0,0,.8-2c.2-1,.2-.2,0,.4a.34.34,0,0,1,0,.2,5.3,5.3,0,0,1-.4,1.3,10.76,10.76,0,0,0-.7,1.4,1.43,1.43,0,0,0,0,1c0,.2.4-.4.7-.5s.5-.1.5.3a3.24,3.24,0,0,1-.2.8c0,.4,1.2.1,1.5,0a4.25,4.25,0,0,0,2.3-1.2l2.3-2.2c.6-.5.9-1,.5,0l-.1.4-.1.2a3.87,3.87,0,0,1-1.1,1.6c-.8.4-1.3,1.3-2.1,1.8l-1,.4c-.3.2.7.3.9.3,1.9.4-1.5.6-1.9.6a2.83,2.83,0,0,0-1.6.2c-.2.1,1,.5,1,.5a4.58,4.58,0,0,0,1.2.4,8.22,8.22,0,0,1-2.3.1l-1.7-.4a2.72,2.72,0,0,0-.9,0v.8c0,.5,0,1-.4.2a6.52,6.52,0,0,1-.4-1.3c0-.3-.4.4-.6.7a3,3,0,0,1-.8.8,6.78,6.78,0,0,0,.3-.9c.1-.3.5-1,.2-1l-1-.2a6.52,6.52,0,0,1-1.3-.4,15.23,15.23,0,0,0-2.8-.9s-1.3-1.3,0-.1a4.58,4.58,0,0,0,3,1.2,4.43,4.43,0,0,0,1.2-.2l.7-.4c.2,0-.4-.3-.6-.5l-.2-.1c-.7-.8-.9-2-1.7-2.6,0-.2-1.9-2.3-1-1.6a16.66,16.66,0,0,1,2.3,2.3c.4.3.7,1,1.1,1.4s.3,0,.2-.3a8.85,8.85,0,0,1,0-2.3c0-1,.4.8.4,1,.1.6.4,1,.7.7s.4-.6.4,0c.3.2.3.3.3.6Z"/><g class="y"><path class="z" d="M28.4,16.6a1.8,1.8,0,1,1-1.8-1.7A1.9,1.9,0,0,1,28.4,16.6Zm2,4a1.8,1.8,0,1,1-3.6,0h0a1.8,1.8,0,1,1,3.6,0Z"/><path class="z" d="M32.3,20.6a1.1,1.1,0,1,1-1.1-1.1,1.11,1.11,0,0,1,1,1ZM22.5,15a2.7,2.7,0,1,1-5.4,0,2.7,2.7,0,0,1,2.7-2.5A2.6,2.6,0,0,1,22.5,15Zm-5.3,6.2a3,3,0,0,1-3,3H14a3.1,3.1,0,0,1-3.2-3h0a3.1,3.1,0,0,1,3.2-3h0A3,3,0,0,1,17.19,21,1.48,1.48,0,0,1,17.2,21.2Z"/><path class="z" d="M20.7,24a2.5,2.5,0,1,1-2.6-2.4h.1A2.6,2.6,0,0,1,20.7,24Zm-1.6-6.6a2.5,2.5,0,1,1-2.5-2.5A2.5,2.5,0,0,1,19.1,17.4Z"/></g><path class="aa" d="M21.7,30.6a.7.7,0,1,1-.7-.7A.7.7,0,0,1,21.7,30.6Z"/><path class="ab" d="M22.5,35a14,14,0,1,1,14-14A14,14,0,0,1,22.5,35Zm0-27a13,13,0,1,0,13,13A13,13,0,0,0,22.5,8Z"/><path class="ac" d="M29.9,10.9a12.5,12.5,0,1,1-17.5,2.7A12.51,12.51,0,0,1,29.9,10.9Z"/><path class="a" d="M30,19.4A5,5,0,0,0,25.3,23a4.42,4.42,0,0,0-2.3-.6,5,5,0,0,0-5,5,7.29,7.29,0,0,0,.3,1.6A4.41,4.41,0,0,0,16,32.9a4.49,4.49,0,0,0,4.5,4.5h19A4.49,4.49,0,0,0,44,32.9,4.6,4.6,0,0,0,41.7,29a4.17,4.17,0,0,0,.3-1.6,5,5,0,0,0-5-5,5.94,5.94,0,0,0-2.3.6A5,5,0,0,0,30,19.4Z"/><path class="ad" d="M30,19.9c-2.2,0-3.7,1.3-4.4,3.8a6.2,6.2,0,0,0-2.4-.8,4.6,4.6,0,0,0-4.8,4.39v.11a12.31,12.31,0,0,0,.4,1.8,4,4,0,0,0,1.9,7.7H39a4,4,0,0,0,4.3-3.68,3.21,3.21,0,0,0,0-.62,4,4,0,0,0-2.4-3.4,6,6,0,0,0,.5-1.8,4.6,4.6,0,0,0-4.6-4.6h-.2a6.31,6.31,0,0,0-2.3.8A4.3,4.3,0,0,0,30,19.9Z"/><path class="c" d="M33.5,24.4A3.5,3.5,0,1,1,30,20.9a3.5,3.5,0,0,1,3.5,3.5Z"/><path class="ae" d="M33.5,24.4A3.5,3.5,0,1,1,30,20.9a3.5,3.5,0,0,1,3.5,3.5Z"/><path class="c" d="M20.5,26.9h20v9h-20Z"/><path class="c" d="M23.5,32.9a3,3,0,1,1-3-3A3,3,0,0,1,23.5,32.9Zm17-5.5A3.5,3.5,0,1,1,37,23.9,3.5,3.5,0,0,1,40.5,27.4Z"/><path class="af" d="M40.5,27.4A3.5,3.5,0,1,1,37,23.9,3.5,3.5,0,0,1,40.5,27.4Z"/><path class="c" d="M26.5,27.4A3.5,3.5,0,1,1,23,23.9,3.5,3.5,0,0,1,26.5,27.4Z"/><path class="ag" d="M26.5,27.4A3.5,3.5,0,1,1,23,23.9,3.5,3.5,0,0,1,26.5,27.4Z"/><path class="c" d="M29,24a6.5,6.5,0,0,0-6.5,6.5A6.29,6.29,0,0,0,25.8,36h6.5a6.4,6.4,0,0,0,3.3-5.5A6.59,6.59,0,0,0,29,24Z"/><path class="ah" d="M29,23.9a6.5,6.5,0,0,0-6.5,6.5,6.2,6.2,0,0,0,3.3,5.5h6.5a6.4,6.4,0,0,0,3.3-5.5A6.59,6.59,0,0,0,29,23.9Z"/><path class="ai" d="M23.5,32.9a3,3,0,1,1-3-3A3,3,0,0,1,23.5,32.9Z"/><path class="i" d="M42.5,27.6c0,2.7-3.3,3.7-3.3,3.7s2.3-1.6,2.3-3.7Z"/><path class="c" d="M37.5,31.9a4,4,0,1,1-4-4A4,4,0,0,1,37.5,31.9Z"/><path class="aj" d="M37.5,31.9a4,4,0,1,1-4-4A4,4,0,0,1,37.5,31.9Z"/></svg>