<svg xmlns="http://www.w3.org/2000/svg" xml:space="preserve" id="svg1306" x="0" y="0" style="enable-background:new 0 0 45 45" version="1.1" viewBox="0 0 45 45"><style>.st2,.st7{fill:#888a85}.st7{stroke:#555753;stroke-width:.9992;stroke-miterlimit:1.9981}.st14{fill-rule:evenodd;clip-rule:evenodd;fill:#555753}.st23{fill:#fff;stroke:#729fcf;stroke-miterlimit:10}</style><g id="layer1_26_"><g id="g12627_1_" transform="matrix(1 0 0 1 -286.8 245)"><g id="g12533_1_"><path id="path8887_1_" d="M310-243.3a7.4 7.4 0 0 0-6.4 3.8c-.9-.5-2-.8-3.1-.8-3.9 0-7 3.1-7 7s3.1 7 7 7c2.4 0 4.4-1.3 5.7-3.2 1.1.7 2.4 1.2 3.8 1.2.9 0 1.8-.2 2.6-.5a7 7 0 0 0 2 2.2l-.1.4c0 3.9 3.1 7 7 7s7-3.1 7-7c0-2.4-1.3-4.4-3.1-5.6l.1-.4a7 7 0 0 0-7-7c-.6 0-1.2.2-1.8.4a7.2 7.2 0 0 0-6.7-4.5z" style="fill:#555753"/><linearGradient id="path8889_2_" x1="1088.5" x2="1126.4" y1="-12.5" y2="-25.5" gradientTransform="matrix(1 0 0 -1 -791.5 -250)" gradientUnits="userSpaceOnUse"><stop offset="0" style="stop-color:#fff"/><stop offset="1" style="stop-color:#fff;stop-opacity:0"/></linearGradient><path id="path8889_1_" d="M310-242.3a6.7 6.7 0 0 0-6.1 4.2c-1-.7-2.1-1.2-3.4-1.2-3.3 0-6 2.7-6 6s2.7 6 6 6a6 6 0 0 0 5.4-3.5c1.1.9 2.5 1.5 4.1 1.5 1.1 0 2-.3 2.9-.8.4 1 1.1 1.8 1.9 2.4-.2.6-.4 1.2-.4 1.8a6.5 6.5 0 1 0 13 0c0-2.4-1.3-4.3-3.2-5.5l.2-1a6 6 0 0 0-8.4-5.5 6.2 6.2 0 0 0-6-4.4z" style="fill:url(#path8889_2_)"/><path id="path8891_1_" d="M327.5-225.8a6.5 6.5 0 1 1-13 0 6.5 6.5 0 1 1 13 0z" class="st2"/><g id="g12520_1_"><path id="path8895_1_" d="M315.5-235.8c0 3-2.5 5.5-5.5 5.5s-5.5-2.5-5.5-5.5 2.5-5.5 5.5-5.5 5.5 2.5 5.5 5.5z" class="st2"/><linearGradient id="path8897_2_" x1="1140.9" x2="1146.7" y1="-53.1" y2="-58" gradientTransform="matrix(.882 0 0 -.883 -699.8 -285.9)" gradientUnits="userSpaceOnUse"><stop offset="0" style="stop-color:#fff"/><stop offset="1" style="stop-color:#fff;stop-opacity:0"/></linearGradient><path id="path8897_1_" d="M315.5-235.8c0 3-2.5 5.5-5.5 5.5s-5.5-2.5-5.5-5.5 2.5-5.5 5.5-5.5 5.5 2.5 5.5 5.5z" style="opacity:.4944;fill:url(#path8897_2_);enable-background:new"/></g><g id="g12516_1_"><path id="path8901_1_" d="M323.5-231.8c0 3-2.5 5.5-5.5 5.5s-5.5-2.5-5.5-5.5 2.5-5.5 5.5-5.5c3.1 0 5.5 2.5 5.5 5.5z" class="st2"/><linearGradient id="path8903_2_" x1="1136.3" x2="1142.3" y1="-44" y2="-50" gradientTransform="matrix(.91 0 0 -.912 -721.5 -276.5)" gradientUnits="userSpaceOnUse"><stop offset="0" style="stop-color:#fff"/><stop offset="1" style="stop-color:#fff;stop-opacity:0"/></linearGradient><path id="path8903_1_" d="M323.5-231.8c0 3-2.5 5.5-5.5 5.5s-5.5-2.5-5.5-5.5 2.5-5.5 5.5-5.5c3.1 0 5.5 2.5 5.5 5.5z" style="opacity:.4944;fill:url(#path8903_2_);enable-background:new"/></g><g id="g12524_1_"><path id="path8907_1_" d="M305.5-233.3c0 2.8-2.2 5-5 5s-5-2.2-5-5 2.2-5 5-5 5 2.2 5 5z" class="st2"/><linearGradient id="path8909_2_" x1="1051.9" x2="1056.3" y1="24.2" y2="20.7" gradientTransform="matrix(1.142 0 0 -1.143 -903.7 -208.1)" gradientUnits="userSpaceOnUse"><stop offset="0" style="stop-color:#fff"/><stop offset="1" style="stop-color:#fff;stop-opacity:0"/></linearGradient><path id="path8909_1_" d="M305.5-233.3c0 2.8-2.2 5-5 5s-5-2.2-5-5 2.2-5 5-5 5 2.2 5 5z" style="opacity:.4944;fill:url(#path8909_2_);enable-background:new"/></g><g id="g12529_1_"><path id="path8913_1_" d="M316.5-229.3c0 3.9-3.1 7-7 7s-7-3.1-7-7 3.1-7 7-7 7 3.1 7 7z" class="st2"/><linearGradient id="path8915_2_" x1="1085.6" x2="1093.2" y1="-5.9" y2="-11.8" gradientTransform="matrix(1.038 0 0 -1.039 -821.9 -239.1)" gradientUnits="userSpaceOnUse"><stop offset="0" style="stop-color:#fff"/><stop offset="1" style="stop-color:#fff;stop-opacity:0"/></linearGradient><path id="path8915_1_" d="M316.5-229.3c0 3.9-3.1 7-7 7s-7-3.1-7-7 3.1-7 7-7 7 3.1 7 7z" style="opacity:.4944;fill:url(#path8915_2_);enable-background:new"/></g></g><g id="g12578_1_" transform="translate(72 8)"><path id="path12580_1_" d="M245-238.8a5 5 0 0 0-4.7 3.6 5 5 0 0 0-7.3 4.4c0 .6.2 1.1.3 1.6a4.5 4.5 0 0 0 2.2 8.4h19c2.5 0 4.5-2 4.5-4.5 0-1.7-1-3.1-2.3-3.9a5 5 0 0 0-4.7-6.6 6 6 0 0 0-2.3.6 5 5 0 0 0-4.7-3.6z" class="st7"/><linearGradient id="path12582_2_" x1="914.7" x2="928.7" y1="27.8" y2="18.7" gradientTransform="matrix(1 0 0 -1 -678.6 -206)" gradientUnits="userSpaceOnUse"><stop offset="0" style="stop-color:#fff"/><stop offset="1" style="stop-color:#fff;stop-opacity:0"/></linearGradient><path id="path12582_1_" d="M245-238.3c-2.2 0-3.7 1.3-4.4 3.8-.7-.3-1.5-.8-2.4-.8-2.7 0-4.8 1.9-4.8 4.5 0 .5.3 1.3.4 1.8-1.3.7-2.4 1.9-2.4 3.4 0 2.3 1.5 4.3 4.3 4.3H254c2.8 0 4.3-1.9 4.3-4.3 0-1.6-1.1-2.7-2.4-3.4a6 6 0 0 0 .5-1.8c0-2.6-2.1-4.6-4.8-4.6-.8 0-1.6.5-2.3.8-.5-2.3-2.1-3.7-4.3-3.7z" style="fill:url(#path12582_2_)"/><path id="path12584_1_" d="M248.5-233.8c0 1.9-1.6 3.5-3.5 3.5s-3.5-1.6-3.5-3.5 1.6-3.5 3.5-3.5c2 0 3.5 1.6 3.5 3.5z" class="st2"/><linearGradient id="path12586_2_" x1="914.5" x2="916.7" y1="43.4" y2="40" gradientTransform="matrix(1.056 0 0 -1.057 -721.7 -190)" gradientUnits="userSpaceOnUse"><stop offset="0" style="stop-color:#fff"/><stop offset="1" style="stop-color:#fff;stop-opacity:0"/></linearGradient><path id="path12586_1_" d="M248.5-233.8c0 1.9-1.6 3.5-3.5 3.5s-3.5-1.6-3.5-3.5 1.6-3.5 3.5-3.5c2 0 3.5 1.6 3.5 3.5z" style="opacity:.4778;fill:url(#path12586_2_);enable-background:new"/><path id="rect12588_1_" d="M235.5-231.3h20v9h-20z" class="st2"/><path id="path12591_1_" d="M238.5-225.3c0 1.7-1.3 3-3 3s-3-1.3-3-3 1.3-3 3-3 3 1.3 3 3z" class="st2"/><path id="path12593_1_" d="M255.5-230.8c0 1.9-1.6 3.5-3.5 3.5s-3.5-1.6-3.5-3.5 1.6-3.5 3.5-3.5c2 0 3.5 1.6 3.5 3.5z" class="st2"/><linearGradient id="path12595_2_" x1="913.5" x2="916.8" y1="44.9" y2="39.8" gradientTransform="matrix(1.056 0 0 -1.057 -714.7 -187)" gradientUnits="userSpaceOnUse"><stop offset="0" style="stop-color:#fff"/><stop offset="1" style="stop-color:#fff;stop-opacity:0"/></linearGradient><path id="path12595_1_" d="M255.5-230.8c0 1.9-1.6 3.5-3.5 3.5s-3.5-1.6-3.5-3.5 1.6-3.5 3.5-3.5c2 0 3.5 1.6 3.5 3.5z" style="opacity:.4778;fill:url(#path12595_2_);enable-background:new"/><path id="path12597_1_" d="M241.5-230.8c0 1.9-1.6 3.5-3.5 3.5s-3.5-1.6-3.5-3.5 1.6-3.5 3.5-3.5c2 0 3.5 1.6 3.5 3.5z" class="st2"/><linearGradient id="path12599_2_" x1="913.4" x2="916.8" y1="43.9" y2="40.4" gradientTransform="matrix(1.056 0 0 -1.057 -728.7 -187)" gradientUnits="userSpaceOnUse"><stop offset="0" style="stop-color:#fff"/><stop offset="1" style="stop-color:#fff;stop-opacity:0"/></linearGradient><path id="path12599_1_" d="M241.5-230.8c0 1.9-1.6 3.5-3.5 3.5s-3.5-1.6-3.5-3.5 1.6-3.5 3.5-3.5c2 0 3.5 1.6 3.5 3.5z" style="opacity:.4778;fill:url(#path12599_2_);enable-background:new"/><path id="path12601_1_" d="M244-234.3a6.5 6.5 0 0 0-6.5 6.5c0 2.4 1.3 4.3 3.3 5.5h6.5a6.4 6.4 0 0 0 3.3-5.5c-.1-3.6-3-6.5-6.6-6.5z" class="st2"/><linearGradient id="path12603_2_" x1="921.5" x2="925.6" y1="25.6" y2="20.4" gradientTransform="matrix(1 0 0 -1 -679.6 -206)" gradientUnits="userSpaceOnUse"><stop offset="0" style="stop-color:#fff"/><stop offset="1" style="stop-color:#fff;stop-opacity:0"/></linearGradient><path id="path12603_1_" d="M244-234.3a6.5 6.5 0 0 0-6.5 6.5c0 2.4 1.3 4.4 3.3 5.5h6.5a6.4 6.4 0 0 0 3.3-5.5c-.1-3.6-3-6.5-6.6-6.5z" style="opacity:.4778;fill:url(#path12603_2_);enable-background:new"/><linearGradient id="path12605_2_" x1="962.8" x2="965.9" y1="-5.8" y2="-8.6" gradientTransform="matrix(.905 0 0 -.906 -637.3 -232)" gradientUnits="userSpaceOnUse"><stop offset="0" style="stop-color:#fff"/><stop offset="1" style="stop-color:#fff;stop-opacity:0"/></linearGradient><path id="path12605_1_" d="M238.5-225.3c0 1.7-1.3 3-3 3s-3-1.3-3-3 1.3-3 3-3 3 1.3 3 3z" style="opacity:.4778;fill:url(#path12605_2_);enable-background:new"/><path id="path12607_1_" d="M257.5-230.6c0 2.7-3.3 3.7-3.3 3.7s2.3-1.6 2.3-3.7h1z" class="st14"/><path id="path12609_1_" d="M252.5-226.3a4 4 0 0 1-4 4c-2.2 0-4-1.8-4-4s1.8-4 4-4a4 4 0 0 1 4 4z" class="st2"/><linearGradient id="path12611_2_" x1="875.6" x2="879.7" y1="82" y2="77.6" gradientTransform="matrix(1.206 0 0 -1.208 -812 -131.8)" gradientUnits="userSpaceOnUse"><stop offset="0" style="stop-color:#fff"/><stop offset="1" style="stop-color:#fff;stop-opacity:0"/></linearGradient><path id="path12611_1_" d="M252.5-226.3a4 4 0 0 1-4 4c-2.2 0-4-1.8-4-4s1.8-4 4-4a4 4 0 0 1 4 4z" style="opacity:.4778;fill:url(#path12611_2_);enable-background:new"/></g><g id="g12393_1_" transform="translate(57 4)"><path id="path12329_1_" d="M245-238.8a5 5 0 0 0-4.7 3.6 5 5 0 0 0-7.3 4.4c0 .6.2 1.1.3 1.6a4.5 4.5 0 0 0 2.2 8.4h19c2.5 0 4.5-2 4.5-4.5 0-1.7-1-3.1-2.3-3.9a5 5 0 0 0-4.7-6.6 6 6 0 0 0-2.3.6 5 5 0 0 0-4.7-3.6z" class="st7"/><linearGradient id="path12331_2_" x1="959.7" x2="973.7" y1="31.8" y2="22.7" gradientTransform="matrix(1 0 0 -1 -723.6 -202)" gradientUnits="userSpaceOnUse"><stop offset="0" style="stop-color:#fff"/><stop offset="1" style="stop-color:#fff;stop-opacity:0"/></linearGradient><path id="path12331_1_" d="M245-238.3c-2.2 0-3.7 1.3-4.4 3.8-.7-.3-1.5-.8-2.4-.8-2.7 0-4.8 1.9-4.8 4.5 0 .5.3 1.3.4 1.8-1.3.7-2.4 1.9-2.4 3.4 0 2.3 1.5 4.3 4.3 4.3H254c2.8 0 4.3-1.9 4.3-4.3 0-1.6-1.1-2.7-2.4-3.4a6 6 0 0 0 .5-1.8c0-2.6-2.1-4.6-4.8-4.6-.8 0-1.6.5-2.3.8-.5-2.3-2.1-3.7-4.3-3.7z" style="fill:url(#path12331_2_)"/><path id="path12333_1_" d="M248.5-233.8c0 1.9-1.6 3.5-3.5 3.5s-3.5-1.6-3.5-3.5 1.6-3.5 3.5-3.5c2 0 3.5 1.6 3.5 3.5z" class="st2"/><linearGradient id="path12335_2_" x1="959.6" x2="961.7" y1="47.4" y2="44" gradientTransform="matrix(1.056 0 0 -1.057 -769.3 -185.7)" gradientUnits="userSpaceOnUse"><stop offset="0" style="stop-color:#fff"/><stop offset="1" style="stop-color:#fff;stop-opacity:0"/></linearGradient><path id="path12335_1_" d="M248.5-233.8c0 1.9-1.6 3.5-3.5 3.5s-3.5-1.6-3.5-3.5 1.6-3.5 3.5-3.5c2 0 3.5 1.6 3.5 3.5z" style="opacity:.4778;fill:url(#path12335_2_);enable-background:new"/><path id="rect12337_1_" d="M235.5-231.3h20v9h-20z" class="st2"/><path id="path12339_1_" d="M238.5-225.3c0 1.7-1.3 3-3 3s-3-1.3-3-3 1.3-3 3-3 3 1.3 3 3z" class="st2"/><path id="path12341_1_" d="M255.5-230.8c0 1.9-1.6 3.5-3.5 3.5s-3.5-1.6-3.5-3.5 1.6-3.5 3.5-3.5c2 0 3.5 1.6 3.5 3.5z" class="st2"/><linearGradient id="path12343_2_" x1="958.6" x2="961.9" y1="49" y2="43.8" gradientTransform="matrix(1.056 0 0 -1.057 -762.3 -182.7)" gradientUnits="userSpaceOnUse"><stop offset="0" style="stop-color:#fff"/><stop offset="1" style="stop-color:#fff;stop-opacity:0"/></linearGradient><path id="path12343_1_" d="M255.5-230.8c0 1.9-1.6 3.5-3.5 3.5s-3.5-1.6-3.5-3.5 1.6-3.5 3.5-3.5c2 0 3.5 1.6 3.5 3.5z" style="opacity:.4778;fill:url(#path12343_2_);enable-background:new"/><path id="path12347_1_" d="M241.5-230.8c0 1.9-1.6 3.5-3.5 3.5s-3.5-1.6-3.5-3.5 1.6-3.5 3.5-3.5c2 0 3.5 1.6 3.5 3.5z" class="st2"/><linearGradient id="path12349_2_" x1="958.4" x2="961.9" y1="47.9" y2="44.4" gradientTransform="matrix(1.056 0 0 -1.057 -776.3 -182.7)" gradientUnits="userSpaceOnUse"><stop offset="0" style="stop-color:#fff"/><stop offset="1" style="stop-color:#fff;stop-opacity:0"/></linearGradient><path id="path12349_1_" d="M241.5-230.8c0 1.9-1.6 3.5-3.5 3.5s-3.5-1.6-3.5-3.5 1.6-3.5 3.5-3.5c2 0 3.5 1.6 3.5 3.5z" style="opacity:.4778;fill:url(#path12349_2_);enable-background:new"/><path id="path12351_1_" d="M244-234.3a6.5 6.5 0 0 0-6.5 6.5c0 2.4 1.3 4.3 3.3 5.5h6.5a6.4 6.4 0 0 0 3.3-5.5c-.1-3.6-3-6.5-6.6-6.5z" class="st2"/><linearGradient id="path12353_2_" x1="966.6" x2="970.6" y1="29.6" y2="24.4" gradientTransform="matrix(1 0 0 -1 -724.6 -202)" gradientUnits="userSpaceOnUse"><stop offset="0" style="stop-color:#fff"/><stop offset="1" style="stop-color:#fff;stop-opacity:0"/></linearGradient><path id="path12353_1_" d="M244-234.3a6.5 6.5 0 0 0-6.5 6.5c0 2.4 1.3 4.4 3.3 5.5h6.5a6.4 6.4 0 0 0 3.3-5.5c-.1-3.6-3-6.5-6.6-6.5z" style="opacity:.4778;fill:url(#path12353_2_);enable-background:new"/><linearGradient id="path12355_2_" x1="1007.8" x2="1010.9" y1="-1.8" y2="-4.6" gradientTransform="matrix(.905 0 0 -.906 -678 -228.4)" gradientUnits="userSpaceOnUse"><stop offset="0" style="stop-color:#fff"/><stop offset="1" style="stop-color:#fff;stop-opacity:0"/></linearGradient><path id="path12355_1_" d="M238.5-225.3c0 1.7-1.3 3-3 3s-3-1.3-3-3 1.3-3 3-3 3 1.3 3 3z" style="opacity:.4778;fill:url(#path12355_2_);enable-background:new"/><path id="path12357_1_" d="M257.5-230.6c0 2.7-3.3 3.7-3.3 3.7s2.3-1.6 2.3-3.7h1z" class="st14"/><path id="path12359_1_" d="M252.5-226.3c0 2.2-1.8 4-4 4s-4-1.8-4-4 1.8-4 4-4 4 1.8 4 4z" class="st2"/><linearGradient id="path12361_2_" x1="920.7" x2="924.8" y1="86" y2="81.6" gradientTransform="matrix(1.206 0 0 -1.208 -866.4 -126.9)" gradientUnits="userSpaceOnUse"><stop offset="0" style="stop-color:#fff"/><stop offset="1" style="stop-color:#fff;stop-opacity:0"/></linearGradient><path id="path12361_1_" d="M252.5-226.3c0 2.2-1.8 4-4 4s-4-1.8-4-4 1.8-4 4-4 4 1.8 4 4z" style="opacity:.4778;fill:url(#path12361_2_);enable-background:new"/></g></g><g id="g12157_3_" transform="translate(-163 222)"><path id="path12159_3_" d="M172.1-190.3c0 .8-.7 1.5-1.5 1.5s-1.5-.7-1.5-1.5.7-1.5 1.5-1.5 1.5.7 1.5 1.5z" class="st23"/><path id="path12161_3_" d="M180.1-186.8c0 1.1-.9 2-2 2s-2-.9-2-2 .9-2 2-2 2 .9 2 2z" class="st23"/><path id="path12163_3_" d="M173.1-182.3c0 .8-.7 1.5-1.5 1.5s-1.5-.7-1.5-1.5.7-1.5 1.5-1.5 1.5.7 1.5 1.5z" style="fill:#fff;stroke:#729fcf;stroke-width:1.4748;stroke-miterlimit:1"/><path id="path12165_3_" d="M202.1-185.3c0 .8-.7 1.5-1.5 1.5s-1.5-.7-1.5-1.5.7-1.5 1.5-1.5 1.5.7 1.5 1.5z" style="fill:#fff;stroke:#729fcf;stroke-width:1.4678;stroke-miterlimit:1"/><path id="path12167_3_" d="M191-189.3c0 1.4-1.1 2.5-2.4 2.5-1.4 0-2.4-1.1-2.4-2.5s1.1-2.5 2.4-2.5c1.3.1 2.4 1.2 2.4 2.5z" style="fill:#fff;stroke:#729fcf;stroke-width:.8992;stroke-miterlimit:1"/><path id="path12169_3_" d="M196.1-182.1c0 1.3-1.1 2.3-2.5 2.3s-2.5-1-2.5-2.3 1.1-2.3 2.5-2.3 2.5 1 2.5 2.3z" style="fill:#fff;stroke:#729fcf;stroke-width:.9182;stroke-miterlimit:1"/><path id="path12171_3_" d="M185.1-181.3c0 .8-.7 1.5-1.5 1.5s-1.5-.7-1.5-1.5.7-1.5 1.5-1.5 1.5.7 1.5 1.5z" style="fill:#fff;stroke:#729fcf;stroke-width:1.4641;stroke-miterlimit:1"/></g></g></svg>