<svg xmlns="http://www.w3.org/2000/svg" xml:space="preserve" id="svg1306" x="0" y="0" style="enable-background:new 0 0 45 45" version="1.1" viewBox="0 0 45 45"><style>.st0{fill:#729fcf;stroke:#204a87;stroke-width:1.0746;stroke-miterlimit:2}.st10,.st5{fill:#888a85}.st10{stroke:#555753;stroke-width:.9992;stroke-miterlimit:1.9981}.st17{fill-rule:evenodd;clip-rule:evenodd;fill:#555753}.st31{fill:#fff;stroke:#729fcf;stroke-miterlimit:10}</style><g id="layer1_31_"><g id="g12227_4_" transform="translate(-203 271)"><path id="path12229_4_" d="M222.1-228.8c-1-.6-1.4-1.9-.8-2.9 1.3-2.1 3.1-1.5 4-3.7 1.3 1.3.8 8.2-3.2 6.6z" class="st0"/><radialGradient id="path12231_1_" cx="5391" cy="-653.8" r="21.7" gradientTransform="matrix(.07 .042 .062 -.11 -117.1 -526.3)" gradientUnits="userSpaceOnUse"><stop offset="0" style="stop-color:#fff"/><stop offset="1" style="stop-color:#fff;stop-opacity:0"/></radialGradient><path id="path12231_4_" d="M224.8-229.9c-.5.9-1.6 1.2-2.4.7-.8-.5-1.1-1.6-.6-2.5s2.6-.5 3.3-2.3c.8.5.2 3.2-.3 4.1z" style="opacity:.4611;fill:url(#path12231_1_);enable-background:new"/><linearGradient id="path12233_1_" x1="1165.7" x2="1186.2" y1="3985.9" y2="4007.4" gradientTransform="matrix(-.054 .103 .093 .06 -85 -590.2)" gradientUnits="userSpaceOnUse"><stop offset="0" style="stop-color:#fff"/><stop offset="1" style="stop-color:#fff;stop-opacity:0"/></linearGradient><path id="path12233_19_" d="M223.5-229c-4.6-1.1.2-4.7 1-3.9-3.6 1.3-1 3.9-1 3.9z" style="fill:url(#path12233_1_)"/></g><g id="g12627_7_" transform="matrix(1 0 0 1 -286.8 245)"><g id="g12533_7_"><path id="path8887_7_" d="M310-243a7.4 7.4 0 0 0-6.4 3.8c-.9-.5-2-.8-3.1-.8-3.9 0-7 3.1-7 7s3.1 7 7 7c2.4 0 4.4-1.3 5.7-3.2 1.1.7 2.4 1.2 3.8 1.2.9 0 1.8-.2 2.6-.5a7 7 0 0 0 2 2.2l-.1.4c0 3.9 3.1 7 7 7s7-3.1 7-7c0-2.4-1.3-4.4-3.1-5.6l.1-.4a7 7 0 0 0-7-7c-.6 0-1.2.2-1.8.4a7.3 7.3 0 0 0-6.7-4.5z" style="fill:#555753"/><linearGradient id="path8889_1_" x1="1088.4" x2="1126.3" y1="-12.7" y2="-25.8" gradientTransform="matrix(1 0 0 -1 -791.5 -250)" gradientUnits="userSpaceOnUse"><stop offset="0" style="stop-color:#fff"/><stop offset="1" style="stop-color:#fff;stop-opacity:0"/></linearGradient><path id="path8889_7_" d="M310-242a6.7 6.7 0 0 0-6.1 4.2c-1-.7-2.1-1.2-3.4-1.2-3.3 0-6 2.7-6 6s2.7 6 6 6a6 6 0 0 0 5.4-3.5c1.1.9 2.5 1.5 4.1 1.5 1.1 0 2-.3 2.9-.8.4 1 1.1 1.8 1.9 2.4-.2.6-.4 1.2-.4 1.8a6.5 6.5 0 1 0 13 0c0-2.4-1.3-4.3-3.2-5.5l.2-1a6 6 0 0 0-8.4-5.5 6.3 6.3 0 0 0-6-4.4z" style="fill:url(#path8889_1_)"/><path id="path8891_7_" d="M327.5-225.5a6.5 6.5 0 1 1-13 0 6.5 6.5 0 1 1 13 0z" class="st5"/><g id="g12520_7_"><path id="path8895_7_" d="M315.5-235.5c0 3-2.5 5.5-5.5 5.5s-5.5-2.5-5.5-5.5 2.5-5.5 5.5-5.5 5.5 2.5 5.5 5.5z" class="st5"/><linearGradient id="path8897_1_" x1="1140.9" x2="1146.7" y1="-53.4" y2="-58.2" gradientTransform="matrix(.882 0 0 -.883 -699.8 -285.9)" gradientUnits="userSpaceOnUse"><stop offset="0" style="stop-color:#fff"/><stop offset="1" style="stop-color:#fff;stop-opacity:0"/></linearGradient><path id="path8897_7_" d="M315.5-235.5c0 3-2.5 5.5-5.5 5.5s-5.5-2.5-5.5-5.5 2.5-5.5 5.5-5.5 5.5 2.5 5.5 5.5z" style="opacity:.4944;fill:url(#path8897_1_);enable-background:new"/></g><g id="g12516_7_"><path id="path8901_7_" d="M323.5-231.5c0 3-2.5 5.5-5.5 5.5s-5.5-2.5-5.5-5.5 2.5-5.5 5.5-5.5 5.5 2.5 5.5 5.5z" class="st5"/><linearGradient id="path8903_1_" x1="1136.3" x2="1142.2" y1="-44.3" y2="-50.2" gradientTransform="matrix(.91 0 0 -.912 -721.5 -276.5)" gradientUnits="userSpaceOnUse"><stop offset="0" style="stop-color:#fff"/><stop offset="1" style="stop-color:#fff;stop-opacity:0"/></linearGradient><path id="path8903_7_" d="M323.5-231.5c0 3-2.5 5.5-5.5 5.5s-5.5-2.5-5.5-5.5 2.5-5.5 5.5-5.5 5.5 2.5 5.5 5.5z" style="opacity:.4944;fill:url(#path8903_1_);enable-background:new"/></g><g id="g12524_7_"><path id="path8907_7_" d="M305.5-233c0 2.8-2.2 5-5 5s-5-2.2-5-5 2.2-5 5-5 5 2.2 5 5z" class="st5"/><linearGradient id="path8909_1_" x1="1051.9" x2="1056.3" y1="24" y2="20.5" gradientTransform="matrix(1.142 0 0 -1.143 -903.7 -208.1)" gradientUnits="userSpaceOnUse"><stop offset="0" style="stop-color:#fff"/><stop offset="1" style="stop-color:#fff;stop-opacity:0"/></linearGradient><path id="path8909_7_" d="M305.5-233c0 2.8-2.2 5-5 5s-5-2.2-5-5 2.2-5 5-5 5 2.2 5 5z" style="opacity:.4944;fill:url(#path8909_1_);enable-background:new"/></g><g id="g12529_7_"><path id="path8913_7_" d="M316.5-229c0 3.9-3.1 7-7 7s-7-3.1-7-7a7 7 0 0 1 7-7 7 7 0 0 1 7 7z" class="st5"/><linearGradient id="path8915_1_" x1="1085.5" x2="1093.2" y1="-6.2" y2="-12" gradientTransform="matrix(1.038 0 0 -1.039 -821.9 -239.1)" gradientUnits="userSpaceOnUse"><stop offset="0" style="stop-color:#fff"/><stop offset="1" style="stop-color:#fff;stop-opacity:0"/></linearGradient><path id="path8915_7_" d="M316.5-229c0 3.9-3.1 7-7 7s-7-3.1-7-7a7 7 0 0 1 7-7 7 7 0 0 1 7 7z" style="opacity:.4944;fill:url(#path8915_1_);enable-background:new"/></g></g><g id="g12578_7_" transform="translate(72 8)"><path id="path12580_7_" d="M245-238.5a5 5 0 0 0-4.7 3.6 5 5 0 0 0-7.3 4.4c0 .6.2 1.1.3 1.6a4.5 4.5 0 0 0 2.2 8.4h19c2.5 0 4.5-2 4.5-4.5 0-1.7-1-3.1-2.3-3.9a5 5 0 0 0-4.7-6.6 6 6 0 0 0-2.3.6 5 5 0 0 0-4.7-3.6z" class="st10"/><linearGradient id="path12582_1_" x1="914.6" x2="928.6" y1="27.6" y2="18.5" gradientTransform="matrix(1 0 0 -1 -678.6 -206)" gradientUnits="userSpaceOnUse"><stop offset="0" style="stop-color:#fff"/><stop offset="1" style="stop-color:#fff;stop-opacity:0"/></linearGradient><path id="path12582_7_" d="M245-238c-2.2 0-3.7 1.3-4.4 3.8-.7-.3-1.5-.8-2.4-.8-2.7 0-4.8 1.9-4.8 4.5 0 .5.3 1.3.4 1.8-1.3.7-2.4 1.9-2.4 3.4 0 2.3 1.5 4.3 4.3 4.3H254c2.8 0 4.3-1.9 4.3-4.3 0-1.6-1.1-2.7-2.4-3.4a6 6 0 0 0 .5-1.8c0-2.6-2.1-4.6-4.8-4.6-.8 0-1.6.5-2.3.8-.5-2.3-2.1-3.7-4.3-3.7z" style="fill:url(#path12582_1_)"/><path id="path12584_7_" d="M248.5-233.5c0 1.9-1.6 3.5-3.5 3.5s-3.5-1.6-3.5-3.5 1.6-3.5 3.5-3.5 3.5 1.6 3.5 3.5z" class="st5"/><linearGradient id="path12586_1_" x1="914.5" x2="916.7" y1="43.2" y2="39.8" gradientTransform="matrix(1.056 0 0 -1.057 -721.7 -190)" gradientUnits="userSpaceOnUse"><stop offset="0" style="stop-color:#fff"/><stop offset="1" style="stop-color:#fff;stop-opacity:0"/></linearGradient><path id="path12586_7_" d="M248.5-233.5c0 1.9-1.6 3.5-3.5 3.5s-3.5-1.6-3.5-3.5 1.6-3.5 3.5-3.5 3.5 1.6 3.5 3.5z" style="opacity:.4778;fill:url(#path12586_1_);enable-background:new"/><path id="rect12588_7_" d="M235.5-231h20v9h-20z" class="st5"/><path id="path12591_7_" d="M238.5-225c0 1.7-1.3 3-3 3s-3-1.3-3-3 1.3-3 3-3a3 3 0 0 1 3 3z" class="st5"/><path id="path12593_7_" d="M255.5-230.5c0 1.9-1.6 3.5-3.5 3.5s-3.5-1.6-3.5-3.5 1.6-3.5 3.5-3.5 3.5 1.6 3.5 3.5z" class="st5"/><linearGradient id="path12595_1_" x1="913.5" x2="916.8" y1="44.7" y2="39.6" gradientTransform="matrix(1.056 0 0 -1.057 -714.7 -187)" gradientUnits="userSpaceOnUse"><stop offset="0" style="stop-color:#fff"/><stop offset="1" style="stop-color:#fff;stop-opacity:0"/></linearGradient><path id="path12595_7_" d="M255.5-230.5c0 1.9-1.6 3.5-3.5 3.5s-3.5-1.6-3.5-3.5 1.6-3.5 3.5-3.5 3.5 1.6 3.5 3.5z" style="opacity:.4778;fill:url(#path12595_1_);enable-background:new"/><path id="path12597_7_" d="M241.5-230.5c0 1.9-1.6 3.5-3.5 3.5s-3.5-1.6-3.5-3.5 1.6-3.5 3.5-3.5 3.5 1.6 3.5 3.5z" class="st5"/><linearGradient id="path12599_1_" x1="913.3" x2="916.8" y1="43.7" y2="40.2" gradientTransform="matrix(1.056 0 0 -1.057 -728.7 -187)" gradientUnits="userSpaceOnUse"><stop offset="0" style="stop-color:#fff"/><stop offset="1" style="stop-color:#fff;stop-opacity:0"/></linearGradient><path id="path12599_7_" d="M241.5-230.5c0 1.9-1.6 3.5-3.5 3.5s-3.5-1.6-3.5-3.5 1.6-3.5 3.5-3.5 3.5 1.6 3.5 3.5z" style="opacity:.4778;fill:url(#path12599_1_);enable-background:new"/><path id="path12601_7_" d="M243.9-234a6.5 6.5 0 0 0-6.5 6.5c0 2.4 1.3 4.3 3.3 5.5h6.5a6.4 6.4 0 0 0 3.3-5.5c-.1-3.6-3-6.5-6.6-6.5z" class="st5"/><linearGradient id="path12603_1_" x1="921.5" x2="925.5" y1="25.4" y2="20.2" gradientTransform="matrix(1 0 0 -1 -679.6 -206)" gradientUnits="userSpaceOnUse"><stop offset="0" style="stop-color:#fff"/><stop offset="1" style="stop-color:#fff;stop-opacity:0"/></linearGradient><path id="path12603_7_" d="M244-234a6.5 6.5 0 0 0-6.5 6.5c0 2.4 1.3 4.4 3.3 5.5h6.5a6.4 6.4 0 0 0 3.3-5.5c-.1-3.6-3-6.5-6.6-6.5z" style="opacity:.4778;fill:url(#path12603_1_);enable-background:new"/><linearGradient id="path12605_1_" x1="962.7" x2="965.8" y1="-6.1" y2="-8.9" gradientTransform="matrix(.905 0 0 -.906 -637.3 -232)" gradientUnits="userSpaceOnUse"><stop offset="0" style="stop-color:#fff"/><stop offset="1" style="stop-color:#fff;stop-opacity:0"/></linearGradient><path id="path12605_7_" d="M238.5-225c0 1.7-1.3 3-3 3s-3-1.3-3-3 1.3-3 3-3 3 1.3 3 3z" style="opacity:.4778;fill:url(#path12605_1_);enable-background:new"/><path id="path12607_7_" d="M257.4-230.3c0 2.7-3.3 3.7-3.3 3.7s2.3-1.6 2.3-3.7h1z" class="st17"/><path id="path12609_7_" d="M252.5-226a4 4 0 0 1-4 4c-2.2 0-4-1.8-4-4s1.8-4 4-4a4 4 0 0 1 4 4z" class="st5"/><linearGradient id="path12611_1_" x1="875.6" x2="879.7" y1="81.8" y2="77.4" gradientTransform="matrix(1.206 0 0 -1.208 -812 -131.8)" gradientUnits="userSpaceOnUse"><stop offset="0" style="stop-color:#fff"/><stop offset="1" style="stop-color:#fff;stop-opacity:0"/></linearGradient><path id="path12611_7_" d="M252.5-226a4 4 0 0 1-4 4c-2.2 0-4-1.8-4-4s1.8-4 4-4a4 4 0 0 1 4 4z" style="opacity:.4778;fill:url(#path12611_1_);enable-background:new"/></g><g id="g12393_7_" transform="translate(57 4)"><path id="path12329_7_" d="M245-238.5a5 5 0 0 0-4.7 3.6 5 5 0 0 0-7.3 4.4c0 .6.2 1.1.3 1.6a4.5 4.5 0 0 0 2.2 8.4h19c2.5 0 4.5-2 4.5-4.5 0-1.7-1-3.1-2.3-3.9a5 5 0 0 0-4.7-6.6 6 6 0 0 0-2.3.6 5 5 0 0 0-4.7-3.6z" class="st10"/><linearGradient id="path12331_1_" x1="959.7" x2="973.7" y1="31.6" y2="22.5" gradientTransform="matrix(1 0 0 -1 -723.6 -202)" gradientUnits="userSpaceOnUse"><stop offset="0" style="stop-color:#fff"/><stop offset="1" style="stop-color:#fff;stop-opacity:0"/></linearGradient><path id="path12331_7_" d="M245-238c-2.2 0-3.7 1.3-4.4 3.8-.7-.3-1.5-.8-2.4-.8-2.7 0-4.8 1.9-4.8 4.5 0 .5.3 1.3.4 1.8-1.3.7-2.4 1.9-2.4 3.4 0 2.3 1.5 4.3 4.3 4.3H254c2.8 0 4.3-1.9 4.3-4.3 0-1.6-1.1-2.7-2.4-3.4a6 6 0 0 0 .5-1.8c0-2.6-2.1-4.6-4.8-4.6-.8 0-1.6.5-2.3.8-.5-2.3-2.1-3.7-4.3-3.7z" style="fill:url(#path12331_1_)"/><path id="path12333_7_" d="M248.5-233.5c0 1.9-1.6 3.5-3.5 3.5s-3.5-1.6-3.5-3.5 1.6-3.5 3.5-3.5 3.5 1.6 3.5 3.5z" class="st5"/><linearGradient id="path12335_1_" x1="959.6" x2="961.7" y1="47.2" y2="43.8" gradientTransform="matrix(1.056 0 0 -1.057 -769.3 -185.7)" gradientUnits="userSpaceOnUse"><stop offset="0" style="stop-color:#fff"/><stop offset="1" style="stop-color:#fff;stop-opacity:0"/></linearGradient><path id="path12335_7_" d="M248.5-233.5c0 1.9-1.6 3.5-3.5 3.5s-3.5-1.6-3.5-3.5 1.6-3.5 3.5-3.5 3.5 1.6 3.5 3.5z" style="opacity:.4778;fill:url(#path12335_1_);enable-background:new"/><path id="rect12337_7_" d="M235.5-231h20v9h-20z" class="st5"/><path id="path12339_7_" d="M238.5-225c0 1.7-1.3 3-3 3s-3-1.3-3-3 1.3-3 3-3a3 3 0 0 1 3 3z" class="st5"/><path id="path12341_7_" d="M255.5-230.5c0 1.9-1.6 3.5-3.5 3.5s-3.5-1.6-3.5-3.5 1.6-3.5 3.5-3.5 3.5 1.6 3.5 3.5z" class="st5"/><linearGradient id="path12343_1_" x1="958.5" x2="961.9" y1="48.7" y2="43.6" gradientTransform="matrix(1.056 0 0 -1.057 -762.3 -182.7)" gradientUnits="userSpaceOnUse"><stop offset="0" style="stop-color:#fff"/><stop offset="1" style="stop-color:#fff;stop-opacity:0"/></linearGradient><path id="path12343_7_" d="M255.5-230.5c0 1.9-1.6 3.5-3.5 3.5s-3.5-1.6-3.5-3.5 1.6-3.5 3.5-3.5 3.5 1.6 3.5 3.5z" style="opacity:.4778;fill:url(#path12343_1_);enable-background:new"/><path id="path12347_7_" d="M241.5-230.5c0 1.9-1.6 3.5-3.5 3.5s-3.5-1.6-3.5-3.5 1.6-3.5 3.5-3.5 3.5 1.6 3.5 3.5z" class="st5"/><linearGradient id="path12349_1_" x1="958.4" x2="961.9" y1="47.7" y2="44.2" gradientTransform="matrix(1.056 0 0 -1.057 -776.3 -182.7)" gradientUnits="userSpaceOnUse"><stop offset="0" style="stop-color:#fff"/><stop offset="1" style="stop-color:#fff;stop-opacity:0"/></linearGradient><path id="path12349_7_" d="M241.5-230.5c0 1.9-1.6 3.5-3.5 3.5s-3.5-1.6-3.5-3.5 1.6-3.5 3.5-3.5 3.5 1.6 3.5 3.5z" style="opacity:.4778;fill:url(#path12349_1_);enable-background:new"/><path id="path12351_7_" d="M243.9-234a6.5 6.5 0 0 0-6.5 6.5c0 2.4 1.3 4.3 3.3 5.5h6.5a6.4 6.4 0 0 0 3.3-5.5c-.1-3.6-3-6.5-6.6-6.5z" class="st5"/><linearGradient id="path12353_1_" x1="966.6" x2="970.6" y1="29.4" y2="24.2" gradientTransform="matrix(1 0 0 -1 -724.6 -202)" gradientUnits="userSpaceOnUse"><stop offset="0" style="stop-color:#fff"/><stop offset="1" style="stop-color:#fff;stop-opacity:0"/></linearGradient><path id="path12353_7_" d="M244-234a6.5 6.5 0 0 0-6.5 6.5c0 2.4 1.3 4.4 3.3 5.5h6.5a6.4 6.4 0 0 0 3.3-5.5c-.1-3.6-3-6.5-6.6-6.5z" style="opacity:.4778;fill:url(#path12353_1_);enable-background:new"/><linearGradient id="path12355_1_" x1="1007.8" x2="1010.9" y1="-2.1" y2="-4.8" gradientTransform="matrix(.905 0 0 -.906 -678 -228.4)" gradientUnits="userSpaceOnUse"><stop offset="0" style="stop-color:#fff"/><stop offset="1" style="stop-color:#fff;stop-opacity:0"/></linearGradient><path id="path12355_7_" d="M238.5-225c0 1.7-1.3 3-3 3s-3-1.3-3-3 1.3-3 3-3 3 1.3 3 3z" style="opacity:.4778;fill:url(#path12355_1_);enable-background:new"/><path id="path12357_7_" d="M257.4-230.3c0 2.7-3.3 3.7-3.3 3.7s2.3-1.6 2.3-3.7h1z" class="st17"/><path id="path12359_7_" d="M252.5-226c0 2.2-1.8 4-4 4s-4-1.8-4-4 1.8-4 4-4 4 1.8 4 4z" class="st5"/><linearGradient id="path12361_1_" x1="920.7" x2="924.8" y1="85.8" y2="81.4" gradientTransform="matrix(1.206 0 0 -1.208 -866.4 -126.9)" gradientUnits="userSpaceOnUse"><stop offset="0" style="stop-color:#fff"/><stop offset="1" style="stop-color:#fff;stop-opacity:0"/></linearGradient><path id="path12361_7_" d="M252.5-226c0 2.2-1.8 4-4 4s-4-1.8-4-4 1.8-4 4-4 4 1.8 4 4z" style="opacity:.4778;fill:url(#path12361_1_);enable-background:new"/></g></g><g id="g12191_4_" transform="translate(-223 261)"><path id="path12193_4_" d="M232.1-228.8c-1-.6-1.4-1.9-.8-2.9 1.3-2.1 3.1-1.5 4-3.7 1.3 1.3.8 8.2-3.2 6.6z" class="st0"/><radialGradient id="path12195_1_" cx="5557.1" cy="-603.5" r="21.7" gradientTransform="matrix(.07 .042 .062 -.11 -122 -527.7)" gradientUnits="userSpaceOnUse"><stop offset="0" style="stop-color:#fff"/><stop offset="1" style="stop-color:#fff;stop-opacity:0"/></radialGradient><path id="path12195_4_" d="M234.8-229.9c-.5.9-1.6 1.2-2.4.7-.8-.5-1.1-1.6-.6-2.5s2.6-.5 3.3-2.3c.8.5.2 3.2-.3 4.1z" style="opacity:.4611;fill:url(#path12195_1_);enable-background:new"/><linearGradient id="path12197_1_" x1="1179.1" x2="1199.6" y1="4076.7" y2="4098.2" gradientTransform="matrix(-.054 .103 .093 .06 -82.7 -597)" gradientUnits="userSpaceOnUse"><stop offset="0" style="stop-color:#fff"/><stop offset="1" style="stop-color:#fff;stop-opacity:0"/></linearGradient><path id="path12197_4_" d="M233.5-229c-4.6-1.1.2-4.7 1-3.9-3.6 1.3-1 3.9-1 3.9z" style="fill:url(#path12197_1_)"/></g><g id="g12239_20_" transform="translate(-194 268)"><path id="path12241_20_" d="M227.1-228.8c-1-.6-1.4-1.9-.8-2.9 1.3-2.1 3.1-1.5 4-3.7 1.3 1.3.8 8.2-3.2 6.6z" class="st0"/><radialGradient id="path12243_1_" cx="5417.1" cy="-630.7" r="21.7" gradientTransform="matrix(.07 .042 .062 -.11 -115.4 -524.9)" gradientUnits="userSpaceOnUse"><stop offset="0" style="stop-color:#fff"/><stop offset="1" style="stop-color:#fff;stop-opacity:0"/></radialGradient><path id="path12243_5_" d="M229.8-229.9c-.5.9-1.6 1.2-2.4.7-.8-.5-1.1-1.6-.6-2.5s2.6-.5 3.3-2.3c.8.5.2 3.2-.3 4.1z" style="opacity:.4611;fill:url(#path12243_1_);enable-background:new"/><linearGradient id="path12245_1_" x1="1115.4" x2="1135.9" y1="4029.3" y2="4050.8" gradientTransform="matrix(-.054 .103 .093 .06 -86.7 -587.6)" gradientUnits="userSpaceOnUse"><stop offset="0" style="stop-color:#fff"/><stop offset="1" style="stop-color:#fff;stop-opacity:0"/></linearGradient><path id="path12245_5_" d="M228.5-229c-4.6-1.1.2-4.7 1-3.9-3.6 1.3-1 3.9-1 3.9z" style="fill:url(#path12245_1_)"/></g><path id="path12171_6_" d="M21.7 28c0 .8-.7 1.5-1.5 1.5s-1.5-.7-1.5-1.5.7-1.5 1.5-1.5 1.5.6 1.5 1.5z" style="fill:#fff;stroke:#729fcf;stroke-width:1.4641;stroke-miterlimit:1"/><path id="path12161_5_" d="M29.8 31.5c0 1.1-.9 2-2 2s-2-.9-2-2 .9-2 2-2 2 .9 2 2z" class="st31"/><path id="path12159_7_" d="M13.8 37c0 .8-.7 1.5-1.5 1.5s-1.5-.7-1.5-1.5.7-1.5 1.5-1.5 1.5.6 1.5 1.5z" class="st31"/></g></svg>