<svg xmlns="http://www.w3.org/2000/svg" xml:space="preserve" id="svg1306" x="0" y="0" style="enable-background:new 0 0 45 45" version="1.1" viewBox="0 0 45 45"><style>.st2,.st8{fill:#c4c5c2}.st8{stroke:#888a85;stroke-miterlimit:2}.st15{fill-rule:evenodd;clip-rule:evenodd;fill:#888a85}</style><g id="layer1"><g id="g10011" transform="translate(-287 298)"><path id="path8267" d="M310-292a7.4 7.4 0 0 0-6.4 3.8c-.9-.5-2-.8-3.1-.8-3.9 0-7 3.1-7 7s3.1 7 7 7c2.4 0 4.4-1.3 5.7-3.2 1.1.7 2.4 1.2 3.8 1.2.9 0 1.8-.2 2.6-.5a7 7 0 0 0 2 2.2l-.1.4c0 3.9 3.1 7 7 7s7-3.1 7-7c0-2.4-1.3-4.4-3.1-5.6l.1-.4a7 7 0 0 0-7-7c-.6 0-1.2.2-1.8.4a7.2 7.2 0 0 0-6.7-4.5z" style="fill:#888a85"/><linearGradient id="path8291_1_" x1="800.9" x2="851.3" y1="-182.1" y2="-165.2" gradientTransform="translate(-505 -104)" gradientUnits="userSpaceOnUse"><stop offset="0" style="stop-color:#fff"/><stop offset="1" style="stop-color:#fff;stop-opacity:0"/></linearGradient><path id="path8291" d="M310-291a6.7 6.7 0 0 0-6.1 4.2c-1-.7-2.1-1.2-3.4-1.2-3.3 0-6 2.7-6 6s2.7 6 6 6a6 6 0 0 0 5.4-3.5c1.1.9 2.5 1.5 4.1 1.5 1.1 0 2-.3 2.9-.8.4 1 1.1 1.8 1.9 2.4-.2.6-.4 1.2-.4 1.8a6.5 6.5 0 1 0 13 0c0-2.4-1.3-4.3-3.2-5.5l.2-1a6 6 0 0 0-8.4-5.5 6.3 6.3 0 0 0-6-4.4z" style="fill:url(#path8291_1_)"/><path id="path8414" d="M327.5-274.5a6.5 6.5 0 1 1-13 0 6.5 6.5 0 1 1 13 0z" class="st2"/><g id="g8349" transform="translate(69 102)"><path id="path8327" d="M246.5-386.5c0 3-2.5 5.5-5.5 5.5s-5.5-2.5-5.5-5.5 2.5-5.5 5.5-5.5 5.5 2.5 5.5 5.5z" class="st2"/><linearGradient id="path8329_1_" x1="701.6" x2="707.4" y1="-154.7" y2="-149.9" gradientTransform="matrix(.883 0 0 .883 -382 -253.1)" gradientUnits="userSpaceOnUse"><stop offset="0" style="stop-color:#fff"/><stop offset="1" style="stop-color:#fff;stop-opacity:0"/></linearGradient><path id="path8329" d="M246.5-386.5c0 3-2.5 5.5-5.5 5.5s-5.5-2.5-5.5-5.5 2.5-5.5 5.5-5.5 5.5 2.5 5.5 5.5z" style="fill:url(#path8329_1_)"/></g><g id="g8389" transform="translate(69 102)"><path id="path8368" d="M254.5-382.5c0 3-2.5 5.5-5.5 5.5s-5.5-2.5-5.5-5.5 2.5-5.5 5.5-5.5 5.5 2.5 5.5 5.5z" class="st2"/><linearGradient id="path8370_1_" x1="700.7" x2="706.7" y1="-160.3" y2="-154.3" gradientTransform="matrix(.912 0 0 .912 -394.4 -241)" gradientUnits="userSpaceOnUse"><stop offset="0" style="stop-color:#fff"/><stop offset="1" style="stop-color:#fff;stop-opacity:0"/></linearGradient><path id="path8370" d="M254.5-382.5c0 3-2.5 5.5-5.5 5.5s-5.5-2.5-5.5-5.5 2.5-5.5 5.5-5.5 5.5 2.5 5.5 5.5z" style="fill:url(#path8370_1_)"/></g><g id="g8323" transform="translate(69 102)"><path id="path8311" d="M236.5-384c0 2.8-2.2 5-5 5s-5-2.2-5-5 2.2-5 5-5 5 2.2 5 5z" class="st2"/><linearGradient id="path8313_1_" x1="639.3" x2="643.7" y1="-206.6" y2="-203.1" gradientTransform="matrix(1.143 0 0 1.143 -502.3 -150.4)" gradientUnits="userSpaceOnUse"><stop offset="0" style="stop-color:#fff"/><stop offset="1" style="stop-color:#fff;stop-opacity:0"/></linearGradient><path id="path8313" d="M236.5-384c0 2.8-2.2 5-5 5s-5-2.2-5-5 2.2-5 5-5 5 2.2 5 5z" style="fill:url(#path8313_1_)"/></g><g id="g8406" transform="translate(69 102)"><path id="path8393" d="M247.5-380c0 3.9-3.1 7-7 7s-7-3.1-7-7 3.1-7 7-7 7 3.1 7 7z" class="st2"/><linearGradient id="path8395_1_" x1="663.9" x2="671.6" y1="-185.2" y2="-179.3" gradientTransform="matrix(1.039 0 0 1.039 -454 -191.4)" gradientUnits="userSpaceOnUse"><stop offset="0" style="stop-color:#fff"/><stop offset="1" style="stop-color:#fff;stop-opacity:0"/></linearGradient><path id="path8395" d="M247.5-380c0 3.9-3.1 7-7 7s-7-3.1-7-7 3.1-7 7-7 7 3.1 7 7z" style="fill:url(#path8395_1_)"/></g><g id="g4518" transform="matrix(.935 0 0 .935 446.8 -187.6)"><path id="path4520" d="M-154.8-94.1c0 3-2.4 5.4-5.4 5.4s-5.4-2.4-5.4-5.4 2.4-5.4 5.4-5.4 5.4 2.4 5.4 5.4z" class="st2"/><linearGradient id="path4522_1_" x1="-618.4" x2="-615.2" y1="29.8" y2="33.8" gradientTransform="matrix(1.52 0 0 1.52 775.5 -144.4)" gradientUnits="userSpaceOnUse"><stop offset="0" style="stop-color:#fff"/><stop offset="1" style="stop-color:#fff;stop-opacity:0"/></linearGradient><path id="path4522" d="M-154.7-94.2c0 3-2.4 5.4-5.4 5.4s-5.4-2.4-5.4-5.4 2.4-5.4 5.4-5.4c2.9 0 5.4 2.4 5.4 5.4z" style="fill:url(#path4522_1_)"/></g><g id="g7794" transform="translate(38 162)"><path id="path7796" d="M279-441.5a5 5 0 0 0-4.7 3.6 5 5 0 0 0-7.3 4.4c0 .6.2 1.1.3 1.6a4.5 4.5 0 0 0 2.2 8.4h19c2.5 0 4.5-2 4.5-4.5 0-1.7-1-3.1-2.3-3.9a5 5 0 0 0-4.7-6.6 6 6 0 0 0-2.3.6 5 5 0 0 0-4.7-3.6z" class="st8"/><linearGradient id="path7798_1_" x1="767.2" x2="781.2" y1="-230.6" y2="-221.5" gradientTransform="translate(-498 -206)" gradientUnits="userSpaceOnUse"><stop offset="0" style="stop-color:#fff"/><stop offset="1" style="stop-color:#fff;stop-opacity:0"/></linearGradient><path id="path7798" d="M279-441c-2.2 0-3.7 1.3-4.4 3.8-.7-.3-1.5-.8-2.4-.8-2.7 0-4.8 1.9-4.8 4.5 0 .5.3 1.3.4 1.8-1.3.7-2.4 1.9-2.4 3.4 0 2.3 1.5 4.3 4.3 4.3H288c2.8 0 4.3-1.9 4.3-4.3 0-1.6-1.1-2.7-2.4-3.4a6 6 0 0 0 .5-1.8c0-2.6-2.1-4.6-4.8-4.6-.8 0-1.6.5-2.3.8-.5-2.3-2.1-3.7-4.3-3.7z" style="fill:url(#path7798_1_)"/><g id="g7800"><path id="path7802" d="M282.5-436.5c0 1.9-1.6 3.5-3.5 3.5s-3.5-1.6-3.5-3.5 1.6-3.5 3.5-3.5 3.5 1.6 3.5 3.5z" class="st2"/><linearGradient id="path7804_1_" x1="772.6" x2="774.8" y1="-240.9" y2="-237.5" gradientTransform="matrix(1.057 0 0 1.057 -538.6 -184)" gradientUnits="userSpaceOnUse"><stop offset="0" style="stop-color:#fff"/><stop offset="1" style="stop-color:#fff;stop-opacity:0"/></linearGradient><path id="path7804" d="M282.5-436.5c0 1.9-1.6 3.5-3.5 3.5s-3.5-1.6-3.5-3.5 1.6-3.5 3.5-3.5 3.5 1.6 3.5 3.5z" style="fill:url(#path7804_1_)"/></g><path id="rect7806" d="M269.5-434h20v9h-20z" class="st2"/><path id="path7808" d="M272.5-428c0 1.7-1.3 3-3 3s-3-1.3-3-3 1.3-3 3-3 3 1.3 3 3z" class="st2"/><g id="g7810"><path id="path7812" d="M289.5-433.5c0 1.9-1.6 3.5-3.5 3.5s-3.5-1.6-3.5-3.5 1.6-3.5 3.5-3.5 3.5 1.6 3.5 3.5z" class="st2"/><linearGradient id="path7814_1_" x1="771.6" x2="774.9" y1="-242.4" y2="-237.3" gradientTransform="matrix(1.057 0 0 1.057 -531.6 -181)" gradientUnits="userSpaceOnUse"><stop offset="0" style="stop-color:#fff"/><stop offset="1" style="stop-color:#fff;stop-opacity:0"/></linearGradient><path id="path7814" d="M289.5-433.5c0 1.9-1.6 3.5-3.5 3.5s-3.5-1.6-3.5-3.5 1.6-3.5 3.5-3.5 3.5 1.6 3.5 3.5z" style="fill:url(#path7814_1_)"/></g><g id="g7816"><path id="path7818" d="M275.5-433.5c0 1.9-1.6 3.5-3.5 3.5s-3.5-1.6-3.5-3.5 1.6-3.5 3.5-3.5 3.5 1.6 3.5 3.5z" class="st2"/><linearGradient id="path7820_1_" x1="771.4" x2="774.9" y1="-241.4" y2="-237.9" gradientTransform="matrix(1.057 0 0 1.057 -545.6 -181)" gradientUnits="userSpaceOnUse"><stop offset="0" style="stop-color:#fff"/><stop offset="1" style="stop-color:#fff;stop-opacity:0"/></linearGradient><path id="path7820" d="M275.5-433.5c0 1.9-1.6 3.5-3.5 3.5s-3.5-1.6-3.5-3.5 1.6-3.5 3.5-3.5 3.5 1.6 3.5 3.5z" style="fill:url(#path7820_1_)"/></g><g id="g7822" transform="translate(-1)"><path id="path7824" d="M279-437a6.5 6.5 0 0 0-6.5 6.5c0 2.4 1.3 4.3 3.3 5.5h6.5a6.4 6.4 0 0 0 3.3-5.5 6.7 6.7 0 0 0-6.6-6.5z" class="st2"/><linearGradient id="path7826_1_" x1="776" x2="780.1" y1="-228.4" y2="-223.2" gradientTransform="translate(-500 -206)" gradientUnits="userSpaceOnUse"><stop offset="0" style="stop-color:#fff"/><stop offset="1" style="stop-color:#fff;stop-opacity:0"/></linearGradient><path id="path7826" d="M279-437a6.5 6.5 0 0 0-6.5 6.5c0 2.4 1.3 4.4 3.3 5.5h6.5a6.4 6.4 0 0 0 3.3-5.5c-.1-3.6-3-6.5-6.6-6.5z" style="fill:url(#path7826_1_)"/></g><linearGradient id="path7828_1_" x1="804.5" x2="807.6" y1="-207.2" y2="-204.4" gradientTransform="matrix(.906 0 0 .906 -460.8 -241.9)" gradientUnits="userSpaceOnUse"><stop offset="0" style="stop-color:#fff"/><stop offset="1" style="stop-color:#fff;stop-opacity:0"/></linearGradient><path id="path7828" d="M272.5-428c0 1.7-1.3 3-3 3s-3-1.3-3-3 1.3-3 3-3 3 1.3 3 3z" style="fill:url(#path7828_1_)"/><path id="path7830" d="M291.5-433.3c0 2.7-3.3 3.7-3.3 3.7s2.3-1.6 2.3-3.7h1z" class="st15"/><g id="g7832" transform="matrix(1.143 0 0 1.143 -28.6 67)"><path id="path7834" d="M275.7-434c0 1.9-1.6 3.5-3.5 3.5s-3.5-1.6-3.5-3.5 1.6-3.5 3.5-3.5 3.5 1.6 3.5 3.5z" class="st2"/><linearGradient id="path7836_1_" x1="633.7" x2="637.8" y1="-246.2" y2="-241.8" gradientTransform="matrix(1.38 0 0 1.38 -606 -98.3)" gradientUnits="userSpaceOnUse"><stop offset="0" style="stop-color:#fff"/><stop offset="1" style="stop-color:#fff;stop-opacity:0"/></linearGradient><path id="path7836" d="M275.7-434c0 1.9-1.6 3.5-3.5 3.5s-3.5-1.6-3.5-3.5 1.6-3.5 3.5-3.5 3.5 1.6 3.5 3.5z" style="fill:url(#path7836_1_)"/></g></g><g id="g7852" transform="translate(23 158)"><path id="path7854" d="M279-441.5a5 5 0 0 0-4.7 3.6 5 5 0 0 0-7.3 4.4c0 .6.2 1.1.3 1.6a4.5 4.5 0 0 0 2.2 8.4h19c2.5 0 4.5-2 4.5-4.5 0-1.7-1-3.1-2.3-3.9a5 5 0 0 0-4.7-6.6 6 6 0 0 0-2.3.6 5 5 0 0 0-4.7-3.6z" class="st8"/><linearGradient id="path7856_1_" x1="797.2" x2="811.2" y1="-230.6" y2="-221.5" gradientTransform="translate(-528 -206)" gradientUnits="userSpaceOnUse"><stop offset="0" style="stop-color:#fff"/><stop offset="1" style="stop-color:#fff;stop-opacity:0"/></linearGradient><path id="path7856" d="M279-441c-2.2 0-3.7 1.3-4.4 3.8-.7-.3-1.5-.8-2.4-.8-2.7 0-4.8 1.9-4.8 4.5 0 .5.3 1.3.4 1.8-1.3.7-2.4 1.9-2.4 3.4 0 2.3 1.5 4.3 4.3 4.3H288c2.8 0 4.3-1.9 4.3-4.3 0-1.6-1.1-2.7-2.4-3.4a6 6 0 0 0 .5-1.8c0-2.6-2.1-4.6-4.8-4.6-.8 0-1.6.5-2.3.8-.5-2.3-2.1-3.7-4.3-3.7z" style="fill:url(#path7856_1_)"/><g id="g7858"><path id="path7860" d="M282.5-436.5c0 1.9-1.6 3.5-3.5 3.5s-3.5-1.6-3.5-3.5 1.6-3.5 3.5-3.5 3.5 1.6 3.5 3.5z" class="st2"/><linearGradient id="path7862_1_" x1="802.6" x2="804.8" y1="-240.9" y2="-237.5" gradientTransform="matrix(1.057 0 0 1.057 -570.3 -184)" gradientUnits="userSpaceOnUse"><stop offset="0" style="stop-color:#fff"/><stop offset="1" style="stop-color:#fff;stop-opacity:0"/></linearGradient><path id="path7862" d="M282.5-436.5c0 1.9-1.6 3.5-3.5 3.5s-3.5-1.6-3.5-3.5 1.6-3.5 3.5-3.5 3.5 1.6 3.5 3.5z" style="fill:url(#path7862_1_)"/></g><path id="rect7864" d="M269.5-434h20v9h-20z" class="st2"/><path id="path7866" d="M272.5-428c0 1.7-1.3 3-3 3s-3-1.3-3-3 1.3-3 3-3 3 1.3 3 3z" class="st2"/><g id="g7868"><path id="path7870" d="M289.5-433.5c0 1.9-1.6 3.5-3.5 3.5s-3.5-1.6-3.5-3.5 1.6-3.5 3.5-3.5 3.5 1.6 3.5 3.5z" class="st2"/><linearGradient id="path7872_1_" x1="801.6" x2="804.9" y1="-242.4" y2="-237.3" gradientTransform="matrix(1.057 0 0 1.057 -563.3 -181)" gradientUnits="userSpaceOnUse"><stop offset="0" style="stop-color:#fff"/><stop offset="1" style="stop-color:#fff;stop-opacity:0"/></linearGradient><path id="path7872" d="M289.5-433.5c0 1.9-1.6 3.5-3.5 3.5s-3.5-1.6-3.5-3.5 1.6-3.5 3.5-3.5 3.5 1.6 3.5 3.5z" style="fill:url(#path7872_1_)"/></g><g id="g7874"><path id="path7876" d="M275.5-433.5c0 1.9-1.6 3.5-3.5 3.5s-3.5-1.6-3.5-3.5 1.6-3.5 3.5-3.5 3.5 1.6 3.5 3.5z" class="st2"/><linearGradient id="path7878_1_" x1="801.4" x2="804.9" y1="-241.4" y2="-237.9" gradientTransform="matrix(1.057 0 0 1.057 -577.3 -181)" gradientUnits="userSpaceOnUse"><stop offset="0" style="stop-color:#fff"/><stop offset="1" style="stop-color:#fff;stop-opacity:0"/></linearGradient><path id="path7878" d="M275.5-433.5c0 1.9-1.6 3.5-3.5 3.5s-3.5-1.6-3.5-3.5 1.6-3.5 3.5-3.5 3.5 1.6 3.5 3.5z" style="fill:url(#path7878_1_)"/></g><g id="g7880" transform="translate(-1)"><path id="path7882" d="M279-437a6.5 6.5 0 0 0-6.5 6.5c0 2.4 1.3 4.3 3.3 5.5h6.5a6.4 6.4 0 0 0 3.3-5.5 6.7 6.7 0 0 0-6.6-6.5z" class="st2"/><linearGradient id="path7884_1_" x1="806" x2="810.1" y1="-228.4" y2="-223.2" gradientTransform="translate(-530 -206)" gradientUnits="userSpaceOnUse"><stop offset="0" style="stop-color:#fff"/><stop offset="1" style="stop-color:#fff;stop-opacity:0"/></linearGradient><path id="path7884" d="M279-437a6.5 6.5 0 0 0-6.5 6.5c0 2.4 1.3 4.4 3.3 5.5h6.5a6.4 6.4 0 0 0 3.3-5.5c-.1-3.6-3-6.5-6.6-6.5z" style="fill:url(#path7884_1_)"/></g><linearGradient id="path7886_1_" x1="834.5" x2="837.6" y1="-207.2" y2="-204.4" gradientTransform="matrix(.906 0 0 .906 -488 -241.9)" gradientUnits="userSpaceOnUse"><stop offset="0" style="stop-color:#fff"/><stop offset="1" style="stop-color:#fff;stop-opacity:0"/></linearGradient><path id="path7886" d="M272.5-428c0 1.7-1.3 3-3 3s-3-1.3-3-3 1.3-3 3-3 3 1.3 3 3z" style="fill:url(#path7886_1_)"/><path id="path7888" d="M291.5-433.3c0 2.7-3.3 3.7-3.3 3.7s2.3-1.6 2.3-3.7h1z" class="st15"/><g id="g7890" transform="matrix(1.143 0 0 1.143 -28.6 67)"><path id="path7892" d="M275.7-434c0 1.9-1.6 3.5-3.5 3.5s-3.5-1.6-3.5-3.5 1.6-3.5 3.5-3.5 3.5 1.6 3.5 3.5z" class="st2"/><linearGradient id="path7896_1_" x1="658.4" x2="662.5" y1="-245.7" y2="-241.3" gradientTransform="matrix(1.38 0 0 1.38 -640 -98.9)" gradientUnits="userSpaceOnUse"><stop offset="0" style="stop-color:#fff"/><stop offset="1" style="stop-color:#fff;stop-opacity:0"/></linearGradient><path id="path7896" d="M275.7-434c0 1.9-1.6 3.5-3.5 3.5s-3.5-1.6-3.5-3.5 1.6-3.5 3.5-3.5 3.5 1.6 3.5 3.5z" style="fill:url(#path7896_1_)"/></g></g></g></g></svg>