<svg xmlns="http://www.w3.org/2000/svg" xmlns:xlink="http://www.w3.org/1999/xlink" viewBox="0 0 45 45"><defs><linearGradient id="c" x1="-308.01" x2="-316.05" y1="-218.19" y2="-233.6" gradientTransform="matrix(.72 -.98 -.98 -.72 25.55 -443.25)" gradientUnits="userSpaceOnUse"><stop offset="0" stop-color="#fff9c6"/><stop offset=".54" stop-color="#fff28c"/><stop offset="1" stop-color="#ffea85"/></linearGradient><linearGradient id="d" x1="770.03" x2="779.8" y1="280.67" y2="274.34" gradientTransform="matrix(1 0 0 -1 -746.97 307.99)" gradientUnits="userSpaceOnUse"><stop offset="0" stop-color="#fff"/><stop offset="1" stop-color="#fff" stop-opacity="0"/></linearGradient><linearGradient xlink:href="#d" id="e" x1="768.8" x2="770.31" y1="289.89" y2="287.49" gradientTransform="matrix(1.06 0 0 -1.06 -783.34 332.28)"/><linearGradient xlink:href="#d" id="f" x1="766.13" x2="768.46" y1="291.83" y2="288.24" gradientTransform="matrix(1.06 0 0 -1.06 -776.34 335.28)"/><linearGradient xlink:href="#d" id="g" x1="770.01" x2="772.42" y1="291.1" y2="288.66" gradientTransform="matrix(1.06 0 0 -1.06 -790.34 335.28)"/><linearGradient xlink:href="#d" id="h" x1="777.05" x2="779.87" y1="279.05" y2="275.43" gradientTransform="matrix(1 0 0 -1 -749.97 307.99)"/><linearGradient xlink:href="#d" id="i" x1="815.85" x2="818.01" y1="260.54" y2="258.6" gradientTransform="matrix(.91 0 0 -.91 -716.86 268.25)"/><linearGradient xlink:href="#d" id="j" x1="606.03" x2="608.89" y1="294.56" y2="291.49" gradientTransform="matrix(1.58 0 0 -1.58 -926.46 494.09)"/><radialGradient id="a" cx="20.65" cy="-180.39" r="18.7" gradientTransform="matrix(1.01 0 0 -1.01 1.74 -159.25)" gradientUnits="userSpaceOnUse"><stop offset="0" stop-color="#fff" stop-opacity="0"/><stop offset=".75" stop-color="#fff" stop-opacity="0"/><stop offset="1" stop-color="#fff"/></radialGradient><radialGradient id="b" cx="-135.1" cy="160.56" r="9.28" gradientTransform="matrix(.89 1.54 1.26 -.81 -63.71 354.54)" gradientUnits="userSpaceOnUse"><stop offset="0" stop-color="#fff7c2" stop-opacity=".64"/><stop offset=".59" stop-color="#fcaf3e" stop-opacity=".18"/><stop offset=".84" stop-color="#fcaf3e" stop-opacity=".5"/><stop offset="1" stop-color="#fcaf3e"/></radialGradient><style>.i{fill:#c4c5c2}</style></defs><g style="opacity:.7"><path d="M22.5 1.5 20.2 8a19.53 19.53 0 0 1 2.3-.2 17.85 17.85 0 0 1 2.3.2ZM7.7 7.7l2.9 6.3a17.19 17.19 0 0 1 3.3-3.3Zm29.6 0-6.3 3a17.19 17.19 0 0 1 3.3 3.3ZM8 20.2l-6.5 2.3L8 24.8a19.53 19.53 0 0 1-.2-2.3 17.85 17.85 0 0 1 .2-2.3Zm29 0a19.53 19.53 0 0 1 .2 2.3 17.85 17.85 0 0 1-.2 2.3l6.5-2.3ZM10.6 31.1l-2.9 6.3 6.3-2.9a18.24 18.24 0 0 1-3.4-3.4Zm23.8 0a16.16 16.16 0 0 1-3.2 3.2l6.3 3ZM20.2 37l2.3 6.5 2.3-6.5a19.53 19.53 0 0 1-2.3.2 17.85 17.85 0 0 1-2.3-.2Z" style="stroke-linecap:square;stroke:#fcaf3e;fill:#fce94f;stroke-width:.74px"/><path d="m22.5 4.2-1.3 3.7a5.28 5.28 0 0 1 1.3-.1 5.28 5.28 0 0 1 1.3.1ZM9.6 9.6l1.7 3.5a17 17 0 0 1 1.9-1.9Zm25.9 0L32 11.3a17 17 0 0 1 1.9 1.9ZM7.9 21.1l-3.7 1.4 3.7 1.3a5.7 5.7 0 0 1-.1-1.3 6.6 6.6 0 0 1 .1-1.4Zm29.2.1c0 .4.1.9.1 1.3a5.7 5.7 0 0 1-.1 1.3l3.7-1.3Zm-3.4 10.7a11.38 11.38 0 0 1-1.9 1.9l3.5 1.7Zm-22.4 0-1.7 3.5 3.5-1.7a15.3 15.3 0 0 1-1.8-1.8Zm9.9 5.2 1.3 3.7 1.3-3.7a5.28 5.28 0 0 1-1.3.1 5.28 5.28 0 0 1-1.3-.1Z" style="stroke-width:.85px;stroke:url(#a);fill:none;stroke-linecap:square"/></g><path d="M29.7 12.6a12.23 12.23 0 1 1-17.1 2.6 12.17 12.17 0 0 1 17.1-2.6Z" style="fill:#ffee54;stroke-miterlimit:5.26;stroke-linecap:square;stroke:#fcaf3e"/><path d="M34 20.9a11.16 11.16 0 0 1-9.5 13.2 12.12 12.12 0 0 1-13.5-10 11.22 11.22 0 0 1 9.6-13.2 11.91 11.91 0 0 1 13.4 10Z" style="fill:url(#b)"/><path d="M29.1 13.4a11.23 11.23 0 1 1-15.7 2.4 11.21 11.21 0 0 1 15.7-2.4Z" style="stroke-miterlimit:4.84;stroke:url(#c);fill:none;stroke-linecap:square"/><path d="M29.81 24a3.54 3.54 0 0 0-3.3 2.5 2.93 2.93 0 0 0-1.6-.4 3.48 3.48 0 0 0-3.5 3.5 5 5 0 0 0 .2 1.2 3.26 3.26 0 0 0-1.7 2.7 3.05 3.05 0 0 0 3.1 3.1h13.3a3.05 3.05 0 0 0 3.1-3.1 3.13 3.13 0 0 0-1.7-2.7 4.3 4.3 0 0 0 .2-1.2 3.48 3.48 0 0 0-3.5-3.5 4.19 4.19 0 0 0-1.6.4 2.8 2.8 0 0 0-3-2.5Z" style="stroke:#888a85;stroke-miterlimit:2;fill:#c4c5c2"/><path d="M29.81 24.39a3 3 0 0 0-3 2.6 4.92 4.92 0 0 0-1.7-.6 3.16 3.16 0 0 0-3.3 3.1 5 5 0 0 0 .3 1.3 3 3 0 0 0-1.7 2.3 2.76 2.76 0 0 0 3 2.9h12.8a2.81 2.81 0 0 0 3-2.9 2.61 2.61 0 0 0-1.7-2.3 5 5 0 0 0 .3-1.3 3.18 3.18 0 0 0-3.3-3.2 3.49 3.49 0 0 0-1.7.6 2.85 2.85 0 0 0-3-2.5Z" style="fill:url(#d)"/><path d="M32.31 27.49a2.37 2.37 0 0 1-2.4 2.4 2.43 2.43 0 0 1-2.4-2.4 2.4 2.4 0 0 1 4.8 0Z" class="i"/><path d="M32.31 27.49a2.37 2.37 0 0 1-2.4 2.4 2.43 2.43 0 0 1-2.4-2.4 2.4 2.4 0 0 1 4.8 0Z" style="fill:url(#e)"/><path d="M23.21 29.19h14v6.3h-14z" class="i"/><path d="M25.31 33.29a2.11 2.11 0 0 1-2.1 2.1 2.1 2.1 0 1 1 0-4.2 2.25 2.25 0 0 1 2.1 2.1ZM37.21 29.49a2.37 2.37 0 0 1-2.4 2.4 2.4 2.4 0 1 1 2.4-2.4Z" class="i"/><path d="M37.21 29.49a2.37 2.37 0 0 1-2.4 2.4 2.4 2.4 0 1 1 2.4-2.4Z" style="fill:url(#f)"/><path d="M27.41 29.49a2.37 2.37 0 0 1-2.4 2.4 2.4 2.4 0 1 1 2.4-2.4Z" class="i"/><path d="M27.41 29.49a2.37 2.37 0 0 1-2.4 2.4 2.4 2.4 0 1 1 2.4-2.4Z" style="fill:url(#g)"/><path d="M29.11 27.09a4.46 4.46 0 0 0-2.3 8.3h4.5a4.18 4.18 0 0 0 2.2-3.8 4.34 4.34 0 0 0-4.4-4.5Z" class="i"/><path d="M29.11 27.09a4.46 4.46 0 0 0-2.3 8.3h4.5a4.18 4.18 0 0 0 2.2-3.8 4.34 4.34 0 0 0-4.4-4.5Z" style="fill:url(#h)"/><path d="M25.31 33.29a2.1 2.1 0 1 1-2.1-2.1 2.25 2.25 0 0 1 2.1 2.1Z" style="fill:url(#i)"/><path d="M38.4 29.69c0 1.9-2.2 2.6-2.2 2.6s1.7-1.2 1.7-2.5Z" style="fill:#888a85;fill-rule:evenodd"/><path d="M35 32.7a2.71 2.71 0 0 1-2.74 2.74 2.78 2.78 0 0 1-2.75-2.74 2.75 2.75 0 0 1 5.49 0Z" class="i"/><path d="M35 32.7a2.71 2.71 0 0 1-2.74 2.74 2.78 2.78 0 0 1-2.75-2.74 2.75 2.75 0 0 1 5.49 0Z" style="fill:url(#j)"/></svg>