<svg xmlns="http://www.w3.org/2000/svg" xml:space="preserve" id="svg1306" x="0" y="0" style="enable-background:new 0 0 45 45" version="1.1" viewBox="0 0 45 45"><style>.st0{stroke:#888a85;stroke-miterlimit:2}.st0,.st2{fill:#c4c5c2}.st8{fill-rule:evenodd;clip-rule:evenodd;fill:#888a85}</style><g id="layer1"><g id="g6783" transform="translate(-264 460)"><path id="path6785" d="M279.2-446.8c-2.2 0-4 1.5-4.6 3.5-.7-.4-1.4-.6-2.2-.6a5 5 0 0 0-4.9 4.9c0 .6.2 1.1.3 1.6a4.5 4.5 0 0 0-2.3 3.8c0 2.4 2 4.4 4.4 4.4h18.6c2.4 0 4.4-2 4.4-4.4 0-1.6-.9-3-2.3-3.8.2-.5.3-1 .3-1.6a5 5 0 0 0-4.9-4.9c-.8 0-1.6.3-2.2.6-.6-2-2.4-3.5-4.6-3.5z" class="st0"/><linearGradient id="path6787_1_" x1="533.6" x2="547.3" y1="32" y2="23.1" gradientTransform="matrix(1 0 0 -1 -264 -410)" gradientUnits="userSpaceOnUse"><stop offset="0" style="stop-color:#fff"/><stop offset="1" style="stop-color:#fff;stop-opacity:0"/></linearGradient><path id="path6787" d="M279.2-446.3c-2.1 0-3.6 1.3-4.3 3.8-.7-.3-1.5-.8-2.3-.8-2.7 0-4.6 1.9-4.6 4.4 0 .5.3 1.3.4 1.8-1.3.7-2.4 1.8-2.4 3.3 0 2.3 1.5 4.2 4.2 4.2h17.9c2.7 0 4.2-1.9 4.2-4.2 0-1.6-1.1-2.6-2.4-3.3.2-.5.5-1.2.5-1.8 0-2.5-2.1-4.5-4.7-4.5-.8 0-1.6.5-2.3.8-.5-2.3-2.1-3.7-4.2-3.7z" style="fill:url(#path6787_1_)"/><g id="g6789"><path id="path6791" d="M282.6-441.9c0 1.9-1.5 3.4-3.4 3.4s-3.4-1.5-3.4-3.4 1.5-3.4 3.4-3.4 3.4 1.5 3.4 3.4z" class="st2"/><linearGradient id="path6793_1_" x1="544.4" x2="546.5" y1="36.3" y2="33" gradientTransform="matrix(1.057 0 0 -1.057 -297.3 -405.5)" gradientUnits="userSpaceOnUse"><stop offset="0" style="stop-color:#fff"/><stop offset="1" style="stop-color:#fff;stop-opacity:0"/></linearGradient><path id="path6793" d="M282.6-441.9c0 1.9-1.5 3.4-3.4 3.4s-3.4-1.5-3.4-3.4 1.5-3.4 3.4-3.4 3.4 1.5 3.4 3.4z" style="fill:url(#path6793_1_)"/></g><path id="rect6795" d="M269.9-439.5h19.5v8.8h-19.5z" class="st2"/><path id="path6797" d="M272.8-433.6a2.9 2.9 0 1 1-5.8 0 2.9 2.9 0 0 1 5.8 0z" class="st2"/><g id="g6799"><path id="path6801" d="M289.4-439c0 1.9-1.5 3.4-3.4 3.4s-3.4-1.5-3.4-3.4 1.5-3.4 3.4-3.4 3.4 1.5 3.4 3.4z" class="st2"/><linearGradient id="path6803_1_" x1="543.2" x2="546.5" y1="37.9" y2="32.9" gradientTransform="matrix(1.057 0 0 -1.057 -290.3 -402.5)" gradientUnits="userSpaceOnUse"><stop offset="0" style="stop-color:#fff"/><stop offset="1" style="stop-color:#fff;stop-opacity:0"/></linearGradient><path id="path6803" d="M289.4-439c0 1.9-1.5 3.4-3.4 3.4s-3.4-1.5-3.4-3.4 1.5-3.4 3.4-3.4 3.4 1.5 3.4 3.4z" style="fill:url(#path6803_1_)"/></g><g id="g6805"><path id="path6807" d="M275.8-439c0 1.9-1.5 3.4-3.4 3.4s-3.4-1.5-3.4-3.4 1.5-3.4 3.4-3.4c1.8 0 3.4 1.5 3.4 3.4z" class="st2"/><linearGradient id="path6809_1_" x1="543.4" x2="546.8" y1="36.9" y2="33.4" gradientTransform="matrix(1.057 0 0 -1.057 -304.3 -402.5)" gradientUnits="userSpaceOnUse"><stop offset="0" style="stop-color:#fff"/><stop offset="1" style="stop-color:#fff;stop-opacity:0"/></linearGradient><path id="path6809" d="M275.8-439c0 1.9-1.5 3.4-3.4 3.4s-3.4-1.5-3.4-3.4 1.5-3.4 3.4-3.4c1.8 0 3.4 1.5 3.4 3.4z" style="fill:url(#path6809_1_)"/></g><g id="g6811" transform="translate(-1)"><path id="path6813" d="M279.2-442.4a6.3 6.3 0 0 0-6.3 6.3c0 2.3 1.3 4.2 3.2 5.3h6.3a6.3 6.3 0 0 0 3.2-5.4 6.5 6.5 0 0 0-6.4-6.2z" class="st2"/><linearGradient id="path6815_1_" x1="541.3" x2="545.2" y1="29.8" y2="24.7" gradientTransform="matrix(1 0 0 -1 -265 -410)" gradientUnits="userSpaceOnUse"><stop offset="0" style="stop-color:#fff"/><stop offset="1" style="stop-color:#fff;stop-opacity:0"/></linearGradient><path id="path6815" d="M279.2-442.4a6.3 6.3 0 0 0-6.3 6.3c0 2.3 1.3 4.3 3.2 5.4h6.3a6.3 6.3 0 0 0 3.2-5.4 6.5 6.5 0 0 0-6.4-6.3z" style="fill:url(#path6815_1_)"/></g><linearGradient id="path6817_1_" x1="560" x2="563.1" y1="20.3" y2="17.6" gradientTransform="matrix(.906 0 0 -.906 -239 -416.7)" gradientUnits="userSpaceOnUse"><stop offset="0" style="stop-color:#fff"/><stop offset="1" style="stop-color:#fff;stop-opacity:0"/></linearGradient><path id="path6817" d="M272.8-433.6a2.9 2.9 0 1 1-5.8 0 2.9 2.9 0 0 1 5.8 0z" style="fill:url(#path6817_1_)"/><path id="path6819" d="M291.3-438.8c0 2.6-3.2 3.6-3.2 3.6s2.3-1.6 2.3-3.6h.9z" class="st8"/><g id="g6821" transform="matrix(1.143 0 0 1.143 -28.6 67)"><path id="path6823" d="M275.7-438.9c0 1.9-1.5 3.4-3.4 3.4a3.4 3.4 0 0 1-3.4-3.4c0-1.9 1.5-3.4 3.4-3.4s3.4 1.5 3.4 3.4z" class="st2"/><linearGradient id="path6825_1_" x1="488.8" x2="492.8" y1="-14.7" y2="-19" gradientTransform="matrix(1.208 0 0 -1.208 -321.6 -460.4)" gradientUnits="userSpaceOnUse"><stop offset="0" style="stop-color:#fff"/><stop offset="1" style="stop-color:#fff;stop-opacity:0"/></linearGradient><path id="path6825" d="M275.7-438.9c0 1.9-1.5 3.4-3.4 3.4a3.4 3.4 0 0 1-3.4-3.4c0-1.9 1.5-3.4 3.4-3.4s3.4 1.5 3.4 3.4z" style="fill:url(#path6825_1_)"/></g></g><g id="g3936"><g id="g4091" style="opacity:.7"><path id="path7492" d="M22.5 1.5 20.2 8l2.3-.2 2.3.2-2.3-6.5zM7.7 7.6l3 6.3a13 13 0 0 1 3.3-3.3l-6.3-3zm29.7 0-6.3 3c1.3.9 2.4 2 3.3 3.3l3-6.3zM8 20.1l-6.5 2.3L8 24.8l-.2-2.3.2-2.4zm29 .1.2 2.3-.2 2.3 6.5-2.3-6.5-2.3zM10.6 31.1l-3 6.3 6.3-3c-1.2-.9-2.4-2.1-3.3-3.3zm23.8 0c-.9 1.2-2 2.4-3.3 3.3l6.3 3-3-6.3zM20.2 37l2.3 6.5 2.3-6.5-2.3.2-2.3-.2z" style="fill:#fce94f;stroke:#fcaf3e;stroke-width:.7373;stroke-linecap:square"/><radialGradient id="path7494_1_" cx="21.8" cy="28.9" r="18.7" gradientTransform="matrix(1.007 0 0 -1.008 .5 51.6)" gradientUnits="userSpaceOnUse"><stop offset="0" style="stop-color:#fff;stop-opacity:0"/><stop offset=".8" style="stop-color:#fff;stop-opacity:0"/><stop offset="1" style="stop-color:#fff"/></radialGradient><path id="path7494" d="m22.5 4.2-1.3 3.7 1.3-.1 1.3.1-1.3-3.7zM9.6 9.6l1.7 3.5a17 17 0 0 1 1.9-1.9L9.6 9.6zm25.8 0-3.5 1.7a17 17 0 0 1 1.9 1.9l1.6-3.6zM7.9 21.2l-3.7 1.3 3.7 1.3-.1-1.3.1-1.3zm29.2 0 .1 1.3-.1 1.3 3.7-1.3-3.7-1.3zm-3.3 10.7a17 17 0 0 1-1.9 1.9l3.5 1.7-1.6-3.6zm-22.5 0-1.7 3.5 3.5-1.7a7.7 7.7 0 0 1-1.8-1.8zm9.9 5.2 1.3 3.7 1.3-3.7-1.3.1-1.3-.1z" style="fill:none;stroke:url(#path7494_1_);stroke-width:.8465;stroke-linecap:square"/></g><g id="g4046"><g id="g3931"><path id="path7498" d="M29.7 12.6c5.4 4 6.6 11.6 2.6 17.1s-11.6 6.6-17.1 2.6-6.6-11.6-2.6-17.1 11.7-6.5 17.1-2.6z" style="fill:#ffee54;stroke:#fcaf3e;stroke-width:1;stroke-linecap:square;stroke-miterlimit:5.2638"/><radialGradient id="path7500_1_" cx="-57.3" cy="199.9" r="9.3" gradientTransform="matrix(.887 1.536 1.264 -.807 -182.4 266.9)" gradientUnits="userSpaceOnUse"><stop offset="0" style="stop-color:#fff7c2;stop-opacity:.6383"/><stop offset=".6" style="stop-color:#fcaf3e;stop-opacity:.1835"/><stop offset=".8" style="stop-color:#fcaf3e;stop-opacity:.5046"/><stop offset="1" style="stop-color:#fcaf3e"/></radialGradient><path id="path7500" d="M34 20.9c1.1 6.4-3.2 12.3-9.5 13.2S12.1 30.5 11 24s3.2-12.3 9.5-13.2c6.4-.8 12.4 3.7 13.5 10.1z" style="fill:url(#path7500_1_)"/><linearGradient id="path7502_1_" x1="-149.3" x2="-157.3" y1="60.5" y2="45.1" gradientTransform="matrix(.716 -.976 -.976 -.716 184.1 -88.8)" gradientUnits="userSpaceOnUse"><stop offset="0" style="stop-color:#fff9c6"/><stop offset=".5" style="stop-color:#fff28c"/><stop offset="1" style="stop-color:#ffea85"/></linearGradient><path id="path7502" d="M29.1 13.4a11.2 11.2 0 1 1-13.3 18.1 11.2 11.2 0 1 1 13.3-18.1z" style="fill:none;stroke:url(#path7502_1_);stroke-width:1;stroke-linecap:square;stroke-miterlimit:4.8425"/></g></g></g><g id="g6668" transform="translate(-249 468)"><path id="path6670" d="M278.8-447c-2.2 0-4 1.5-4.6 3.5-.7-.4-1.4-.6-2.2-.6a5 5 0 0 0-4.9 4.9c0 .6.2 1.1.3 1.6a4.5 4.5 0 0 0-2.3 3.8c0 2.4 2 4.4 4.4 4.4h18.6c2.4 0 4.4-2 4.4-4.4 0-1.6-.9-3-2.3-3.8.2-.5.3-1 .3-1.6a5 5 0 0 0-4.9-4.9c-.8 0-1.6.3-2.2.6-.6-2-2.4-3.5-4.6-3.5z" class="st0"/><linearGradient id="path6672_1_" x1="518.3" x2="531.9" y1="24.2" y2="15.3" gradientTransform="matrix(1 0 0 -1 -249 -418)" gradientUnits="userSpaceOnUse"><stop offset="0" style="stop-color:#fff"/><stop offset="1" style="stop-color:#fff;stop-opacity:0"/></linearGradient><path id="path6672" d="M278.8-446.5c-2.1 0-3.6 1.3-4.3 3.8-.7-.3-1.5-.8-2.3-.8-2.7 0-4.6 1.9-4.6 4.4 0 .5.3 1.3.4 1.8-1.3.7-2.4 1.8-2.4 3.3 0 2.3 1.5 4.2 4.2 4.2h17.9c2.7 0 4.2-1.9 4.2-4.2 0-1.6-1.1-2.6-2.4-3.3.2-.5.5-1.2.5-1.8 0-2.5-2.1-4.5-4.7-4.5-.8 0-1.6.5-2.3.8-.5-2.3-2-3.7-4.2-3.7z" style="fill:url(#path6672_1_)"/><g id="g6674"><path id="path6676" d="M282.2-442.1c0 1.9-1.5 3.4-3.4 3.4a3.4 3.4 0 0 1-3.4-3.4c0-1.9 1.5-3.4 3.4-3.4s3.4 1.5 3.4 3.4z" class="st2"/><linearGradient id="path6678_1_" x1="529.1" x2="531.2" y1="28.5" y2="25.2" gradientTransform="matrix(1.057 0 0 -1.057 -281.5 -414)" gradientUnits="userSpaceOnUse"><stop offset="0" style="stop-color:#fff"/><stop offset="1" style="stop-color:#fff;stop-opacity:0"/></linearGradient><path id="path6678" d="M282.2-442.1c0 1.9-1.5 3.4-3.4 3.4a3.4 3.4 0 0 1-3.4-3.4c0-1.9 1.5-3.4 3.4-3.4s3.4 1.5 3.4 3.4z" style="fill:url(#path6678_1_)"/></g><path id="rect6680" d="M269.5-439.6H289v8.8h-19.5z" class="st2"/><path id="path6682" d="M272.5-433.8a2.9 2.9 0 1 1-5.8 0 2.9 2.9 0 0 1 5.8 0z" class="st2"/><g id="g6684"><path id="path6686" d="M289.1-439.2c0 1.9-1.5 3.4-3.4 3.4s-3.4-1.5-3.4-3.4 1.5-3.4 3.4-3.4 3.4 1.6 3.4 3.4z" class="st2"/><linearGradient id="path6688_1_" x1="527.9" x2="531.2" y1="30.1" y2="25" gradientTransform="matrix(1.057 0 0 -1.057 -274.5 -411)" gradientUnits="userSpaceOnUse"><stop offset="0" style="stop-color:#fff"/><stop offset="1" style="stop-color:#fff;stop-opacity:0"/></linearGradient><path id="path6688" d="M289.1-439.2c0 1.9-1.5 3.4-3.4 3.4s-3.4-1.5-3.4-3.4 1.5-3.4 3.4-3.4 3.4 1.6 3.4 3.4z" style="fill:url(#path6688_1_)"/></g><g id="g6690"><path id="path6692" d="M275.4-439.2c0 1.9-1.5 3.4-3.4 3.4a3.4 3.4 0 0 1-3.4-3.4c0-1.9 1.5-3.4 3.4-3.4s3.4 1.6 3.4 3.4z" class="st2"/><linearGradient id="path6694_1_" x1="528.1" x2="531.5" y1="29" y2="25.6" gradientTransform="matrix(1.057 0 0 -1.057 -288.5 -411)" gradientUnits="userSpaceOnUse"><stop offset="0" style="stop-color:#fff"/><stop offset="1" style="stop-color:#fff;stop-opacity:0"/></linearGradient><path id="path6694" d="M275.4-439.2c0 1.9-1.5 3.4-3.4 3.4a3.4 3.4 0 0 1-3.4-3.4c0-1.9 1.5-3.4 3.4-3.4s3.4 1.6 3.4 3.4z" style="fill:url(#path6694_1_)"/></g><g id="g6696" transform="translate(-1)"><path id="path6698" d="M278.8-442.5a6.3 6.3 0 0 0-6.3 6.3c0 2.3 1.3 4.2 3.2 5.3h6.3a6.3 6.3 0 0 0 3.2-5.4c0-3.4-2.9-6.2-6.4-6.2z" class="st2"/><linearGradient id="path6700_1_" x1="526" x2="529.9" y1="22" y2="16.9" gradientTransform="matrix(1 0 0 -1 -250 -418)" gradientUnits="userSpaceOnUse"><stop offset="0" style="stop-color:#fff"/><stop offset="1" style="stop-color:#fff;stop-opacity:0"/></linearGradient><path id="path6700" d="M278.8-442.6a6.3 6.3 0 0 0-6.3 6.3c0 2.3 1.3 4.3 3.2 5.4h6.3a6.3 6.3 0 0 0 3.2-5.4c0-3.4-2.9-6.3-6.4-6.3z" style="fill:url(#path6700_1_)"/></g><linearGradient id="path6702_1_" x1="544.6" x2="547.7" y1="12.5" y2="9.8" gradientTransform="matrix(.906 0 0 -.906 -225.4 -424)" gradientUnits="userSpaceOnUse"><stop offset="0" style="stop-color:#fff"/><stop offset="1" style="stop-color:#fff;stop-opacity:0"/></linearGradient><path id="path6702" d="M272.5-433.8a2.9 2.9 0 1 1-5.8 0 2.9 2.9 0 0 1 5.8 0z" style="fill:url(#path6702_1_)"/><path id="path6704" d="M291-439c0 2.6-3.2 3.6-3.2 3.6s2.3-1.6 2.3-3.6h.9z" class="st8"/><g id="g6706" transform="matrix(1.143 0 0 1.143 -28.6 67)"><path id="path6708" d="M275.4-439c0 1.9-1.5 3.4-3.4 3.4s-3.4-1.5-3.4-3.4 1.5-3.4 3.4-3.4c1.8-.1 3.4 1.5 3.4 3.4z" class="st2"/><linearGradient id="path6710_1_" x1="475.5" x2="479.5" y1="-21.5" y2="-25.8" gradientTransform="matrix(1.208 0 0 -1.208 -305.8 -468.9)" gradientUnits="userSpaceOnUse"><stop offset="0" style="stop-color:#fff"/><stop offset="1" style="stop-color:#fff;stop-opacity:0"/></linearGradient><path id="path6710" d="M275.4-439c0 1.9-1.5 3.4-3.4 3.4s-3.4-1.5-3.4-3.4 1.5-3.4 3.4-3.4c1.8-.1 3.4 1.5 3.4 3.4z" style="fill:url(#path6710_1_)"/></g></g></g></svg>