<svg xmlns="http://www.w3.org/2000/svg" xml:space="preserve" id="svg1306" x="0" y="0" style="enable-background:new 0 0 45 45" version="1.1" viewBox="0 0 45 45"><style>.st0{fill:#729fcf;stroke:#204a87;stroke-width:1.0746;stroke-miterlimit:2}.st10,.st5{fill:#888a85}.st10{stroke:#555753;stroke-width:.9995;stroke-miterlimit:1.9987}.st17{fill-rule:evenodd;clip-rule:evenodd;fill:#555753}</style><g id="layer1"><g id="g12227" transform="translate(-203 271)"><path id="path12229" d="M230.1-229c-1-.6-1.4-1.9-.8-2.9 1.3-2.1 3.1-1.5 4-3.7 1.3 1.3.8 8.2-3.2 6.6z" class="st0"/><radialGradient id="path12231_1_" cx="3661.7" cy="207.1" r="21.7" gradientTransform="matrix(.07 .042 -.062 .11 -14.6 -405.8)" gradientUnits="userSpaceOnUse"><stop offset="0" style="stop-color:#fff"/><stop offset="1" style="stop-color:#fff;stop-opacity:0"/></radialGradient><path id="path12231" d="M232.8-230.1c-.5.9-1.6 1.2-2.4.7-.8-.5-1.1-1.6-.6-2.5s2.6-.5 3.3-2.3c.8.5.2 3.2-.3 4.1z" style="opacity:.4611;fill:url(#path12231_1_);enable-background:new"/><linearGradient id="path12233_1_" x1="756.2" x2="776.7" y1="-2905.6" y2="-2927.1" gradientTransform="matrix(-.054 .103 -.093 -.06 1.3 -484.2)" gradientUnits="userSpaceOnUse"><stop offset="0" style="stop-color:#fff"/><stop offset="1" style="stop-color:#fff;stop-opacity:0"/></linearGradient><path id="path12233" d="M231.5-229.2c-4.6-1.1.2-4.7 1-3.9-3.6 1.3-1 3.9-1 3.9z" style="fill:url(#path12233_1_)"/></g><g id="g12627" transform="matrix(1 0 0 1 -286.8 245)"><g id="g12533"><path id="path8887" d="M310-243.2a7.4 7.4 0 0 0-6.4 3.8c-.9-.5-2-.8-3.1-.8-3.9 0-7 3.1-7 7s3.1 7 7 7c2.4 0 4.4-1.3 5.7-3.2 1.1.7 2.4 1.2 3.8 1.2.9 0 1.8-.2 2.6-.5a7 7 0 0 0 2 2.2l-.1.4c0 3.9 3.1 7 7 7s7-3.1 7-7c0-2.4-1.3-4.4-3.1-5.6l.1-.4a7 7 0 0 0-7-7c-.6 0-1.2.2-1.8.4a7.3 7.3 0 0 0-6.7-4.5z" style="fill:#555753"/><linearGradient id="path8889_1_" x1="801.2" x2="839" y1="-186.5" y2="-173.4" gradientTransform="matrix(1 0 0 1 -504.7 -51)" gradientUnits="userSpaceOnUse"><stop offset="0" style="stop-color:#fff"/><stop offset="1" style="stop-color:#fff;stop-opacity:0"/></linearGradient><path id="path8889" d="M310-242.2a6.7 6.7 0 0 0-6.1 4.2c-1-.7-2.1-1.2-3.4-1.2-3.3 0-6 2.7-6 6s2.7 6 6 6a6 6 0 0 0 5.4-3.5c1.1.9 2.5 1.5 4.1 1.5 1.1 0 2-.3 2.9-.8.4 1 1.1 1.8 1.9 2.4-.2.6-.4 1.2-.4 1.8a6.5 6.5 0 1 0 13 0c0-2.4-1.3-4.3-3.2-5.5l.2-1a6 6 0 0 0-8.4-5.5 6.4 6.4 0 0 0-6-4.4z" style="fill:url(#path8889_1_)"/><path id="path8891" d="M327.5-225.7a6.5 6.5 0 1 1-13 0 6.5 6.5 0 1 1 13 0z" class="st5"/><g id="g12520"><path id="path8895" d="M315.5-235.7c0 3-2.5 5.5-5.5 5.5s-5.5-2.5-5.5-5.5 2.5-5.5 5.5-5.5 5.5 2.5 5.5 5.5z" class="st5"/><linearGradient id="path8897_1_" x1="839.9" x2="845.6" y1="-159.6" y2="-154.7" gradientTransform="matrix(.882 0 0 .883 -434.6 -98.1)" gradientUnits="userSpaceOnUse"><stop offset="0" style="stop-color:#fff"/><stop offset="1" style="stop-color:#fff;stop-opacity:0"/></linearGradient><path id="path8897" d="M315.5-235.7c0 3-2.5 5.5-5.5 5.5s-5.5-2.5-5.5-5.5 2.5-5.5 5.5-5.5 5.5 2.5 5.5 5.5z" style="opacity:.4944;fill:url(#path8897_1_);enable-background:new"/></g><g id="g12516"><path id="path8901" d="M323.5-231.7c0 3-2.5 5.5-5.5 5.5s-5.5-2.5-5.5-5.5 2.5-5.5 5.5-5.5 5.5 2.5 5.5 5.5z" class="st5"/><linearGradient id="path8903_1_" x1="839" x2="844.9" y1="-164.9" y2="-159" gradientTransform="matrix(.911 0 0 .912 -451 -86)" gradientUnits="userSpaceOnUse"><stop offset="0" style="stop-color:#fff"/><stop offset="1" style="stop-color:#fff;stop-opacity:0"/></linearGradient><path id="path8903" d="M323.5-231.7c0 3-2.5 5.5-5.5 5.5s-5.5-2.5-5.5-5.5 2.5-5.5 5.5-5.5 5.5 2.5 5.5 5.5z" style="opacity:.4944;fill:url(#path8903_1_);enable-background:new"/></g><g id="g12524"><path id="path8907" d="M305.5-233.2c0 2.8-2.2 5-5 5s-5-2.2-5-5 2.2-5 5-5 5 2.2 5 5z" class="st5"/><linearGradient id="path8909_1_" x1="777.5" x2="781.9" y1="-210.3" y2="-206.9" gradientTransform="matrix(1.142 0 0 1.143 -590.7 4.6)" gradientUnits="userSpaceOnUse"><stop offset="0" style="stop-color:#fff"/><stop offset="1" style="stop-color:#fff;stop-opacity:0"/></linearGradient><path id="path8909" d="M305.5-233.2c0 2.8-2.2 5-5 5s-5-2.2-5-5 2.2-5 5-5 5 2.2 5 5z" style="opacity:.4944;fill:url(#path8909_1_);enable-background:new"/></g><g id="g12529"><path id="path8913" d="M316.5-229.2c0 3.9-3.1 7-7 7s-7-3.1-7-7a7 7 0 0 1 7-7 7 7 0 0 1 7 7z" class="st5"/><linearGradient id="path8915_1_" x1="802.1" x2="809.7" y1="-189.2" y2="-183.4" gradientTransform="matrix(1.038 0 0 1.039 -528 -36.4)" gradientUnits="userSpaceOnUse"><stop offset="0" style="stop-color:#fff"/><stop offset="1" style="stop-color:#fff;stop-opacity:0"/></linearGradient><path id="path8915" d="M316.5-229.2c0 3.9-3.1 7-7 7s-7-3.1-7-7a7 7 0 0 1 7-7 7 7 0 0 1 7 7z" style="opacity:.4944;fill:url(#path8915_1_);enable-background:new"/></g></g><g id="g12578" transform="translate(72 8)"><path id="path12580" d="M245-238.7a5 5 0 0 0-4.7 3.6 5 5 0 0 0-7.3 4.4c0 .6.2 1.1.3 1.6a4.5 4.5 0 0 0 2.2 8.4h19c2.5 0 4.5-2 4.5-4.5 0-1.7-1-3.1-2.3-3.9a5 5 0 0 0-4.7-6.6 6 6 0 0 0-2.3.6 5 5 0 0 0-4.7-3.6z" class="st10"/><linearGradient id="path12582_1_" x1="699.4" x2="713.4" y1="-234.8" y2="-225.7" gradientTransform="matrix(1 0 0 1 -463.8 1)" gradientUnits="userSpaceOnUse"><stop offset="0" style="stop-color:#fff"/><stop offset="1" style="stop-color:#fff;stop-opacity:0"/></linearGradient><path id="path12582" d="M245-238.2c-2.2 0-3.7 1.3-4.4 3.8-.7-.3-1.5-.8-2.4-.8-2.7 0-4.8 1.9-4.8 4.5 0 .5.3 1.3.4 1.8-1.3.7-2.4 1.9-2.4 3.4 0 2.3 1.5 4.3 4.3 4.3H254c2.8 0 4.3-1.9 4.3-4.3 0-1.6-1.1-2.7-2.4-3.4a6 6 0 0 0 .5-1.8c0-2.6-2.1-4.6-4.8-4.6-.8 0-1.6.5-2.3.8-.6-2.3-2.2-3.7-4.3-3.7z" style="fill:url(#path12582_1_)"/><path id="path12584" d="M248.5-233.7c0 1.9-1.6 3.5-3.5 3.5s-3.5-1.6-3.5-3.5 1.6-3.5 3.5-3.5 3.5 1.6 3.5 3.5z" class="st5"/><linearGradient id="path12586_1_" x1="704.8" x2="707" y1="-244.9" y2="-241.5" gradientTransform="matrix(1.056 0 0 1.057 -500.5 23)" gradientUnits="userSpaceOnUse"><stop offset="0" style="stop-color:#fff"/><stop offset="1" style="stop-color:#fff;stop-opacity:0"/></linearGradient><path id="path12586" d="M248.5-233.7c0 1.9-1.6 3.5-3.5 3.5s-3.5-1.6-3.5-3.5 1.6-3.5 3.5-3.5 3.5 1.6 3.5 3.5z" style="opacity:.4778;fill:url(#path12586_1_);enable-background:new"/><path id="rect12588" d="M235.5-231.2h20v9h-20z" class="st5"/><path id="path12591" d="M238.5-225.2c0 1.7-1.3 3-3 3s-3-1.3-3-3 1.3-3 3-3 3 1.3 3 3z" class="st5"/><path id="path12593" d="M255.5-230.7c0 1.9-1.6 3.5-3.5 3.5s-3.5-1.6-3.5-3.5 1.6-3.5 3.5-3.5 3.5 1.6 3.5 3.5z" class="st5"/><linearGradient id="path12595_1_" x1="703.8" x2="707.1" y1="-246.4" y2="-241.3" gradientTransform="matrix(1.056 0 0 1.057 -493.5 26)" gradientUnits="userSpaceOnUse"><stop offset="0" style="stop-color:#fff"/><stop offset="1" style="stop-color:#fff;stop-opacity:0"/></linearGradient><path id="path12595" d="M255.5-230.7c0 1.9-1.6 3.5-3.5 3.5s-3.5-1.6-3.5-3.5 1.6-3.5 3.5-3.5 3.5 1.6 3.5 3.5z" style="opacity:.4778;fill:url(#path12595_1_);enable-background:new"/><path id="path12597" d="M241.5-230.7c0 1.9-1.6 3.5-3.5 3.5s-3.5-1.6-3.5-3.5 1.6-3.5 3.5-3.5 3.5 1.6 3.5 3.5z" class="st5"/><linearGradient id="path12599_1_" x1="703.6" x2="707.1" y1="-245.4" y2="-241.9" gradientTransform="matrix(1.056 0 0 1.057 -507.5 26)" gradientUnits="userSpaceOnUse"><stop offset="0" style="stop-color:#fff"/><stop offset="1" style="stop-color:#fff;stop-opacity:0"/></linearGradient><path id="path12599" d="M241.5-230.7c0 1.9-1.6 3.5-3.5 3.5s-3.5-1.6-3.5-3.5 1.6-3.5 3.5-3.5 3.5 1.6 3.5 3.5z" style="opacity:.4778;fill:url(#path12599_1_);enable-background:new"/><path id="path12601" d="M243.9-234.2a6.5 6.5 0 0 0-6.5 6.5c0 2.4 1.3 4.3 3.3 5.5h6.5a6.3 6.3 0 0 0 3.2-5.5c0-3.6-2.9-6.5-6.5-6.5z" class="st5"/><linearGradient id="path12603_1_" x1="706.2" x2="710.3" y1="-232.6" y2="-227.4" gradientTransform="matrix(1 0 0 1 -464.8 1)" gradientUnits="userSpaceOnUse"><stop offset="0" style="stop-color:#fff"/><stop offset="1" style="stop-color:#fff;stop-opacity:0"/></linearGradient><path id="path12603" d="M244-234.2a6.5 6.5 0 0 0-6.5 6.5c0 2.4 1.3 4.4 3.3 5.5h6.5a6.3 6.3 0 0 0 3.2-5.5c0-3.6-3-6.5-6.5-6.5z" style="opacity:.4778;fill:url(#path12603_1_);enable-background:new"/><linearGradient id="path12605_1_" x1="736.7" x2="739.8" y1="-211.9" y2="-209.1" gradientTransform="matrix(.905 0 0 .906 -433 -34.9)" gradientUnits="userSpaceOnUse"><stop offset="0" style="stop-color:#fff"/><stop offset="1" style="stop-color:#fff;stop-opacity:0"/></linearGradient><path id="path12605" d="M238.5-225.2c0 1.7-1.3 3-3 3s-3-1.3-3-3 1.3-3 3-3a3 3 0 0 1 3 3z" style="opacity:.4778;fill:url(#path12605_1_);enable-background:new"/><path id="path12607" d="M257.4-230.5c0 2.7-3.3 3.7-3.3 3.7s2.3-1.6 2.3-3.7h1z" class="st17"/><path id="path12609" d="M252.5-226.2a4 4 0 0 1-4 4c-2.2 0-4-1.8-4-4s1.8-4 4-4a4 4 0 0 1 4 4z" class="st5"/><linearGradient id="path12611_1_" x1="678.1" x2="682.2" y1="-271.3" y2="-266.9" gradientTransform="matrix(1.207 0 0 1.208 -574 96.8)" gradientUnits="userSpaceOnUse"><stop offset="0" style="stop-color:#fff"/><stop offset="1" style="stop-color:#fff;stop-opacity:0"/></linearGradient><path id="path12611" d="M252.5-226.2a4 4 0 0 1-4 4c-2.2 0-4-1.8-4-4s1.8-4 4-4a4 4 0 0 1 4 4z" style="opacity:.4778;fill:url(#path12611_1_);enable-background:new"/></g><g id="g12393" transform="translate(57 4)"><path id="path12329" d="M245-238.7a5 5 0 0 0-4.7 3.6 5 5 0 0 0-7.3 4.4c0 .6.2 1.1.3 1.6a4.5 4.5 0 0 0 2.2 8.4h19c2.5 0 4.5-2 4.5-4.5 0-1.7-1-3.1-2.3-3.9a5 5 0 0 0-4.7-6.6 6 6 0 0 0-2.3.6 5 5 0 0 0-4.7-3.6z" class="st10"/><linearGradient id="path12331_1_" x1="729.4" x2="743.4" y1="-234.8" y2="-225.7" gradientTransform="matrix(1 0 0 1 -493.8 1)" gradientUnits="userSpaceOnUse"><stop offset="0" style="stop-color:#fff"/><stop offset="1" style="stop-color:#fff;stop-opacity:0"/></linearGradient><path id="path12331" d="M245-238.2c-2.2 0-3.7 1.3-4.4 3.8-.7-.3-1.5-.8-2.4-.8-2.7 0-4.8 1.9-4.8 4.5 0 .5.3 1.3.4 1.8-1.3.7-2.4 1.9-2.4 3.4 0 2.3 1.5 4.3 4.3 4.3H254c2.8 0 4.3-1.9 4.3-4.3 0-1.6-1.1-2.7-2.4-3.4a6 6 0 0 0 .5-1.8c0-2.6-2.1-4.6-4.8-4.6-.8 0-1.6.5-2.3.8-.6-2.3-2.2-3.7-4.3-3.7z" style="fill:url(#path12331_1_)"/><path id="path12333" d="M248.5-233.7c0 1.9-1.6 3.5-3.5 3.5s-3.5-1.6-3.5-3.5 1.6-3.5 3.5-3.5 3.5 1.6 3.5 3.5z" class="st5"/><linearGradient id="path12335_1_" x1="734.8" x2="737" y1="-244.9" y2="-241.5" gradientTransform="matrix(1.056 0 0 1.057 -532.2 23)" gradientUnits="userSpaceOnUse"><stop offset="0" style="stop-color:#fff"/><stop offset="1" style="stop-color:#fff;stop-opacity:0"/></linearGradient><path id="path12335" d="M248.5-233.7c0 1.9-1.6 3.5-3.5 3.5s-3.5-1.6-3.5-3.5 1.6-3.5 3.5-3.5 3.5 1.6 3.5 3.5z" style="opacity:.4778;fill:url(#path12335_1_);enable-background:new"/><path id="rect12337" d="M235.5-231.2h20v9h-20z" class="st5"/><path id="path12339" d="M238.5-225.2c0 1.7-1.3 3-3 3s-3-1.3-3-3 1.3-3 3-3 3 1.3 3 3z" class="st5"/><path id="path12341" d="M255.5-230.7c0 1.9-1.6 3.5-3.5 3.5s-3.5-1.6-3.5-3.5 1.6-3.5 3.5-3.5 3.5 1.6 3.5 3.5z" class="st5"/><linearGradient id="path12343_1_" x1="733.8" x2="737.1" y1="-246.4" y2="-241.3" gradientTransform="matrix(1.056 0 0 1.057 -525.2 26)" gradientUnits="userSpaceOnUse"><stop offset="0" style="stop-color:#fff"/><stop offset="1" style="stop-color:#fff;stop-opacity:0"/></linearGradient><path id="path12343" d="M255.5-230.7c0 1.9-1.6 3.5-3.5 3.5s-3.5-1.6-3.5-3.5 1.6-3.5 3.5-3.5 3.5 1.6 3.5 3.5z" style="opacity:.4778;fill:url(#path12343_1_);enable-background:new"/><path id="path12347" d="M241.5-230.7c0 1.9-1.6 3.5-3.5 3.5s-3.5-1.6-3.5-3.5 1.6-3.5 3.5-3.5 3.5 1.6 3.5 3.5z" class="st5"/><linearGradient id="path12349_1_" x1="733.7" x2="737.1" y1="-245.4" y2="-241.9" gradientTransform="matrix(1.056 0 0 1.057 -539.2 26)" gradientUnits="userSpaceOnUse"><stop offset="0" style="stop-color:#fff"/><stop offset="1" style="stop-color:#fff;stop-opacity:0"/></linearGradient><path id="path12349" d="M241.5-230.7c0 1.9-1.6 3.5-3.5 3.5s-3.5-1.6-3.5-3.5 1.6-3.5 3.5-3.5 3.5 1.6 3.5 3.5z" style="opacity:.4778;fill:url(#path12349_1_);enable-background:new"/><path id="path12351" d="M243.9-234.2a6.5 6.5 0 0 0-6.5 6.5c0 2.4 1.3 4.3 3.3 5.5h6.5a6.4 6.4 0 0 0 3.3-5.5c-.1-3.6-3-6.5-6.6-6.5z" class="st5"/><linearGradient id="path12353_1_" x1="736.3" x2="740.3" y1="-232.6" y2="-227.4" gradientTransform="matrix(1 0 0 1 -494.8 1)" gradientUnits="userSpaceOnUse"><stop offset="0" style="stop-color:#fff"/><stop offset="1" style="stop-color:#fff;stop-opacity:0"/></linearGradient><path id="path12353" d="M244-234.2a6.5 6.5 0 0 0-6.5 6.5c0 2.4 1.3 4.4 3.3 5.5h6.5a6.4 6.4 0 0 0 3.3-5.5 6.7 6.7 0 0 0-6.6-6.5z" style="opacity:.4778;fill:url(#path12353_1_);enable-background:new"/><linearGradient id="path12355_1_" x1="766.7" x2="769.8" y1="-211.9" y2="-209.1" gradientTransform="matrix(.905 0 0 .906 -460.2 -34.9)" gradientUnits="userSpaceOnUse"><stop offset="0" style="stop-color:#fff"/><stop offset="1" style="stop-color:#fff;stop-opacity:0"/></linearGradient><path id="path12355" d="M238.5-225.2c0 1.7-1.3 3-3 3s-3-1.3-3-3 1.3-3 3-3 3 1.3 3 3z" style="opacity:.4778;fill:url(#path12355_1_);enable-background:new"/><path id="path12357" d="M257.4-230.5c0 2.7-3.3 3.7-3.3 3.7s2.3-1.6 2.3-3.7h1z" class="st17"/><path id="path12359" d="M252.5-226.2c0 2.2-1.8 4-4 4s-4-1.8-4-4 1.8-4 4-4 4 1.8 4 4z" class="st5"/><linearGradient id="path12361_1_" x1="708.1" x2="712.2" y1="-271.3" y2="-266.9" gradientTransform="matrix(1.207 0 0 1.208 -610.3 96.8)" gradientUnits="userSpaceOnUse"><stop offset="0" style="stop-color:#fff"/><stop offset="1" style="stop-color:#fff;stop-opacity:0"/></linearGradient><path id="path12361" d="M252.5-226.2c0 2.2-1.8 4-4 4s-4-1.8-4-4 1.8-4 4-4 4 1.8 4 4z" style="opacity:.4778;fill:url(#path12361_1_);enable-background:new"/></g></g><g id="g12191" transform="translate(-223 261)"><path id="path12193" d="M230.1-229c-1-.6-1.4-1.9-.8-2.9 1.3-2.1 3.1-1.5 4-3.7 1.3 1.3.8 8.2-3.2 6.6z" class="st0"/><radialGradient id="path12195_1_" cx="3701.7" cy="207.1" r="21.7" gradientTransform="matrix(.07 .042 -.062 .11 -17.5 -407.5)" gradientUnits="userSpaceOnUse"><stop offset="0" style="stop-color:#fff"/><stop offset="1" style="stop-color:#fff;stop-opacity:0"/></radialGradient><path id="path12195" d="M232.8-230.1c-.5.9-1.6 1.2-2.4.7-.8-.5-1.1-1.6-.6-2.5s2.6-.5 3.3-2.3c.8.5.2 3.2-.3 4.1z" style="opacity:.4611;fill:url(#path12195_1_);enable-background:new"/><linearGradient id="path12197_1_" x1="796.2" x2="816.7" y1="-2905.6" y2="-2927.1" gradientTransform="matrix(-.054 .103 -.093 -.06 3.5 -488.3)" gradientUnits="userSpaceOnUse"><stop offset="0" style="stop-color:#fff"/><stop offset="1" style="stop-color:#fff;stop-opacity:0"/></linearGradient><path id="path12197" d="M231.5-229.2c-4.6-1.1.2-4.7 1-3.9-3.6 1.3-1 3.9-1 3.9z" style="fill:url(#path12197_1_)"/></g><g id="g12239" transform="translate(-194 268)"><path id="path12241" d="M230.1-229c-1-.6-1.4-1.9-.8-2.9 1.3-2.1 3.1-1.5 4-3.7 1.3 1.3.8 8.2-3.2 6.6z" class="st0"/><radialGradient id="path12243_1_" cx="3643.7" cy="207.1" r="21.7" gradientTransform="matrix(.07 .042 -.062 .11 -13.4 -405)" gradientUnits="userSpaceOnUse"><stop offset="0" style="stop-color:#fff"/><stop offset="1" style="stop-color:#fff;stop-opacity:0"/></radialGradient><path id="path12243" d="M232.8-230.1c-.5.9-1.6 1.2-2.4.7-.8-.5-1.1-1.6-.6-2.5s2.6-.5 3.3-2.3c.8.5.2 3.2-.3 4.1z" style="opacity:.4611;fill:url(#path12243_1_);enable-background:new"/><linearGradient id="path12245_1_" x1="738.2" x2="758.7" y1="-2905.6" y2="-2927.1" gradientTransform="matrix(-.054 .103 -.093 -.06 .4 -482.3)" gradientUnits="userSpaceOnUse"><stop offset="0" style="stop-color:#fff"/><stop offset="1" style="stop-color:#fff;stop-opacity:0"/></linearGradient><path id="path12245" d="M231.5-229.2c-4.6-1.1.2-4.7 1-3.9-3.6 1.3-1 3.9-1 3.9z" style="fill:url(#path12245_1_)"/></g><g id="g12186" transform="translate(-225 271)"><path id="path6059" d="M230.1-229c-1-.6-1.4-1.9-.8-2.9 1.3-2.1 3.1-1.5 4-3.7 1.3 1.3.8 8.2-3.2 6.6z" class="st0"/><radialGradient id="path6061_1_" cx="3705.7" cy="207.1" r="21.7" gradientTransform="matrix(.07 .042 -.062 .11 -17.7 -407.7)" gradientUnits="userSpaceOnUse"><stop offset="0" style="stop-color:#fff"/><stop offset="1" style="stop-color:#fff;stop-opacity:0"/></radialGradient><path id="path6061" d="M232.8-230.1c-.5.9-1.6 1.2-2.4.7-.8-.5-1.1-1.6-.6-2.5s2.6-.5 3.3-2.3c.8.5.2 3.2-.3 4.1z" style="opacity:.4611;fill:url(#path6061_1_);enable-background:new"/><linearGradient id="path6063_1_" x1="800.2" x2="820.7" y1="-2905.6" y2="-2927.1" gradientTransform="matrix(-.054 .103 -.093 -.06 3.7 -488.7)" gradientUnits="userSpaceOnUse"><stop offset="0" style="stop-color:#fff"/><stop offset="1" style="stop-color:#fff;stop-opacity:0"/></linearGradient><path id="path6063" d="M231.5-229.2c-4.6-1.1.2-4.7 1-3.9-3.6 1.3-1 3.9-1 3.9z" style="fill:url(#path6063_1_)"/></g><g id="g12203" transform="translate(-215 266)"><path id="path12205" d="M230.1-229c-1-.6-1.4-1.9-.8-2.9 1.3-2.1 3.1-1.5 4-3.7 1.3 1.3.8 8.2-3.2 6.6z" class="st0"/><radialGradient id="path12207_1_" cx="3685.7" cy="207.1" r="21.7" gradientTransform="matrix(.07 .042 -.062 .11 -16.3 -406.8)" gradientUnits="userSpaceOnUse"><stop offset="0" style="stop-color:#fff"/><stop offset="1" style="stop-color:#fff;stop-opacity:0"/></radialGradient><path id="path12207" d="M232.8-230.1c-.5.9-1.6 1.2-2.4.7-.8-.5-1.1-1.6-.6-2.5s2.6-.5 3.3-2.3c.8.5.2 3.2-.3 4.1z" style="opacity:.4611;fill:url(#path12207_1_);enable-background:new"/><linearGradient id="path12209_1_" x1="780.2" x2="800.7" y1="-2905.6" y2="-2927.1" gradientTransform="matrix(-.054 .103 -.093 -.06 2.6 -486.6)" gradientUnits="userSpaceOnUse"><stop offset="0" style="stop-color:#fff"/><stop offset="1" style="stop-color:#fff;stop-opacity:0"/></linearGradient><path id="path12209" d="M231.5-229.2c-4.6-1.1.2-4.7 1-3.9-3.6 1.3-1 3.9-1 3.9z" style="fill:url(#path12209_1_)"/></g><g id="g12215" transform="translate(-201 261)"><path id="path12217" d="M230.1-229c-1-.6-1.4-1.9-.8-2.9 1.3-2.1 3.1-1.5 4-3.7 1.3 1.3.8 8.2-3.2 6.6z" class="st0"/><radialGradient id="path12219_1_" cx="3657.7" cy="207.1" r="21.7" gradientTransform="matrix(.07 .042 -.062 .11 -14.3 -405.7)" gradientUnits="userSpaceOnUse"><stop offset="0" style="stop-color:#fff"/><stop offset="1" style="stop-color:#fff;stop-opacity:0"/></radialGradient><path id="path12219" d="M232.8-230.1c-.5.9-1.6 1.2-2.4.7-.8-.5-1.1-1.6-.6-2.5s2.6-.5 3.3-2.3c.8.5.2 3.2-.3 4.1z" style="opacity:.4611;fill:url(#path12219_1_);enable-background:new"/><linearGradient id="path12221_1_" x1="752.2" x2="772.7" y1="-2905.6" y2="-2927.1" gradientTransform="matrix(-.054 .103 -.093 -.06 1.1 -483.7)" gradientUnits="userSpaceOnUse"><stop offset="0" style="stop-color:#fff"/><stop offset="1" style="stop-color:#fff;stop-opacity:0"/></linearGradient><path id="path12221" d="M231.5-229.2c-4.6-1.1.2-4.7 1-3.9-3.6 1.3-1 3.9-1 3.9z" style="fill:url(#path12221_1_)"/></g></g></svg>