<svg xmlns="http://www.w3.org/2000/svg" xml:space="preserve" id="svg1306" x="0" y="0" style="enable-background:new 0 0 45 45" version="1.1" viewBox="0 0 45 45"><style>.st2,.st8{fill:#c4c5c2}.st8{stroke:#888a85;stroke-miterlimit:2}.st15{fill-rule:evenodd;clip-rule:evenodd;fill:#888a85}.st24{fill:#fff;stroke:#729fcf;stroke-miterlimit:10}</style><g id="layer1"><g id="g9947" transform="translate(-340 298)"><path id="path8718" d="M363-296.3a7.4 7.4 0 0 0-6.4 3.8c-.9-.5-2-.8-3.1-.8-3.9 0-7 3.1-7 7s3.1 7 7 7c2.4 0 4.4-1.3 5.7-3.2 1.1.7 2.4 1.2 3.8 1.2.9 0 1.8-.2 2.6-.5a7 7 0 0 0 2 2.2l-.1.4c0 3.9 3.1 7 7 7s7-3.1 7-7c0-2.4-1.3-4.4-3.1-5.6l.1-.4a7 7 0 0 0-7-7c-.6 0-1.2.2-1.8.4a7.1 7.1 0 0 0-6.7-4.5z" style="fill:#888a85"/><linearGradient id="path8720_1_" x1="907" x2="957.5" y1="-186.3" y2="-169.4" gradientTransform="translate(-558 -104)" gradientUnits="userSpaceOnUse"><stop offset="0" style="stop-color:#fff"/><stop offset="1" style="stop-color:#fff;stop-opacity:0"/></linearGradient><path id="path8720" d="M363-295.3a6.7 6.7 0 0 0-6.1 4.2c-1-.7-2.1-1.2-3.4-1.2-3.3 0-6 2.7-6 6s2.7 6 6 6a6 6 0 0 0 5.4-3.5c1.1.9 2.5 1.5 4.1 1.5 1.1 0 2-.3 2.9-.8.4 1 1.1 1.8 1.9 2.4-.2.6-.4 1.2-.4 1.8a6.5 6.5 0 1 0 13 0c0-2.4-1.3-4.3-3.2-5.5l.2-1a6 6 0 0 0-8.4-5.5 6.2 6.2 0 0 0-6-4.4z" style="fill:url(#path8720_1_)"/><path id="path8722" d="M380.5-278.8a6.5 6.5 0 1 1-13 0 6.5 6.5 0 1 1 13 0z" class="st2"/><g id="g8724" transform="translate(122 102)"><path id="path8726" d="M246.5-390.8c0 3-2.5 5.5-5.5 5.5s-5.5-2.5-5.5-5.5 2.5-5.5 5.5-5.5 5.5 2.5 5.5 5.5z" class="st2"/><linearGradient id="path8728_1_" x1="701.7" x2="707.4" y1="-159.5" y2="-154.7" gradientTransform="matrix(.883 0 0 .883 -382.1 -253.1)" gradientUnits="userSpaceOnUse"><stop offset="0" style="stop-color:#fff"/><stop offset="1" style="stop-color:#fff;stop-opacity:0"/></linearGradient><path id="path8728" d="M246.5-390.8c0 3-2.5 5.5-5.5 5.5s-5.5-2.5-5.5-5.5 2.5-5.5 5.5-5.5 5.5 2.5 5.5 5.5z" style="fill:url(#path8728_1_)"/></g><g id="g8730" transform="translate(122 102)"><path id="path8732" d="M254.5-386.8c0 3-2.5 5.5-5.5 5.5s-5.5-2.5-5.5-5.5 2.5-5.5 5.5-5.5 5.5 2.5 5.5 5.5z" class="st2"/><linearGradient id="path8734_1_" x1="700.8" x2="706.7" y1="-164.9" y2="-159" gradientTransform="matrix(.912 0 0 .912 -394.5 -241)" gradientUnits="userSpaceOnUse"><stop offset="0" style="stop-color:#fff"/><stop offset="1" style="stop-color:#fff;stop-opacity:0"/></linearGradient><path id="path8734" d="M254.5-386.8c0 3-2.5 5.5-5.5 5.5s-5.5-2.5-5.5-5.5 2.5-5.5 5.5-5.5 5.5 2.5 5.5 5.5z" style="fill:url(#path8734_1_)"/></g><g id="g8736" transform="translate(122 102)"><path id="path8738" d="M236.5-388.3c0 2.8-2.2 5-5 5s-5-2.2-5-5 2.2-5 5-5 5 2.2 5 5z" class="st2"/><linearGradient id="path8740_1_" x1="639.4" x2="643.8" y1="-210.3" y2="-206.8" gradientTransform="matrix(1.143 0 0 1.143 -502.4 -150.4)" gradientUnits="userSpaceOnUse"><stop offset="0" style="stop-color:#fff"/><stop offset="1" style="stop-color:#fff;stop-opacity:0"/></linearGradient><path id="path8740" d="M236.5-388.3c0 2.8-2.2 5-5 5s-5-2.2-5-5 2.2-5 5-5 5 2.2 5 5z" style="fill:url(#path8740_1_)"/></g><g id="g8742" transform="translate(122 102)"><path id="path8744" d="M247.5-384.3c0 3.9-3.1 7-7 7s-7-3.1-7-7 3.1-7 7-7 7 3.1 7 7z" class="st2"/><linearGradient id="path8746_1_" x1="664" x2="671.6" y1="-189.2" y2="-183.4" gradientTransform="matrix(1.039 0 0 1.039 -454 -191.4)" gradientUnits="userSpaceOnUse"><stop offset="0" style="stop-color:#fff"/><stop offset="1" style="stop-color:#fff;stop-opacity:0"/></linearGradient><path id="path8746" d="M247.5-384.3c0 3.9-3.1 7-7 7s-7-3.1-7-7 3.1-7 7-7 7 3.1 7 7z" style="fill:url(#path8746_1_)"/></g><g id="g8748" transform="matrix(.935 0 0 .935 499.8 -187.6)"><path id="path8750" d="M-154.8-98.6c0 3-2.4 5.4-5.4 5.4s-5.4-2.4-5.4-5.4 2.4-5.4 5.4-5.4 5.4 2.4 5.4 5.4z" class="st2"/><linearGradient id="path8752_1_" x1="-618.3" x2="-615.1" y1="26.8" y2="30.8" gradientTransform="matrix(1.52 0 0 1.52 775.4 -144.4)" gradientUnits="userSpaceOnUse"><stop offset="0" style="stop-color:#fff"/><stop offset="1" style="stop-color:#fff;stop-opacity:0"/></linearGradient><path id="path8752" d="M-154.7-98.7c0 3-2.4 5.4-5.4 5.4s-5.4-2.4-5.4-5.4 2.4-5.4 5.4-5.4c3 0 5.4 2.4 5.4 5.4z" style="fill:url(#path8752_1_)"/></g><g id="g8798" transform="translate(91 162)"><path id="path8800" d="M279-445.8a5 5 0 0 0-4.7 3.6 5 5 0 0 0-7.3 4.4c0 .6.2 1.1.3 1.6a4.5 4.5 0 0 0 2.2 8.4h19c2.5 0 4.5-2 4.5-4.5 0-1.7-1-3.1-2.3-3.9a5 5 0 0 0-4.7-6.6 6 6 0 0 0-2.3.6 5 5 0 0 0-4.7-3.6z" class="st8"/><linearGradient id="path8802_1_" x1="767.3" x2="781.3" y1="-234.8" y2="-225.7" gradientTransform="translate(-498 -206)" gradientUnits="userSpaceOnUse"><stop offset="0" style="stop-color:#fff"/><stop offset="1" style="stop-color:#fff;stop-opacity:0"/></linearGradient><path id="path8802" d="M279-445.3c-2.2 0-3.7 1.3-4.4 3.8-.7-.3-1.5-.8-2.4-.8-2.7 0-4.8 1.9-4.8 4.5 0 .5.3 1.3.4 1.8-1.3.7-2.4 1.9-2.4 3.4 0 2.3 1.5 4.3 4.3 4.3H288c2.8 0 4.3-1.9 4.3-4.3 0-1.6-1.1-2.7-2.4-3.4a6 6 0 0 0 .5-1.8c0-2.6-2.1-4.6-4.8-4.6-.8 0-1.6.5-2.3.8-.5-2.3-2.1-3.7-4.3-3.7z" style="fill:url(#path8802_1_)"/><g id="g8804"><path id="path8806" d="M282.5-440.8c0 1.9-1.6 3.5-3.5 3.5s-3.5-1.6-3.5-3.5 1.6-3.5 3.5-3.5 3.5 1.6 3.5 3.5z" class="st2"/><linearGradient id="path8808_1_" x1="772.6" x2="774.8" y1="-244.9" y2="-241.5" gradientTransform="matrix(1.057 0 0 1.057 -538.7 -184)" gradientUnits="userSpaceOnUse"><stop offset="0" style="stop-color:#fff"/><stop offset="1" style="stop-color:#fff;stop-opacity:0"/></linearGradient><path id="path8808" d="M282.5-440.8c0 1.9-1.6 3.5-3.5 3.5s-3.5-1.6-3.5-3.5 1.6-3.5 3.5-3.5 3.5 1.6 3.5 3.5z" style="fill:url(#path8808_1_)"/></g><path id="rect8810" d="M269.5-438.3h20v9h-20z" class="st2"/><path id="path8812" d="M272.5-432.3c0 1.7-1.3 3-3 3s-3-1.3-3-3 1.3-3 3-3 3 1.3 3 3z" class="st2"/><g id="g8814"><path id="path8816" d="M289.5-437.8c0 1.9-1.6 3.5-3.5 3.5s-3.5-1.6-3.5-3.5 1.6-3.5 3.5-3.5 3.5 1.6 3.5 3.5z" class="st2"/><linearGradient id="path8818_1_" x1="771.6" x2="775" y1="-246.4" y2="-241.3" gradientTransform="matrix(1.057 0 0 1.057 -531.7 -181)" gradientUnits="userSpaceOnUse"><stop offset="0" style="stop-color:#fff"/><stop offset="1" style="stop-color:#fff;stop-opacity:0"/></linearGradient><path id="path8818" d="M289.5-437.8c0 1.9-1.6 3.5-3.5 3.5s-3.5-1.6-3.5-3.5 1.6-3.5 3.5-3.5 3.5 1.6 3.5 3.5z" style="fill:url(#path8818_1_)"/></g><g id="g8820"><path id="path8822" d="M275.5-437.8c0 1.9-1.6 3.5-3.5 3.5s-3.5-1.6-3.5-3.5 1.6-3.5 3.5-3.5 3.5 1.6 3.5 3.5z" class="st2"/><linearGradient id="path8824_1_" x1="771.5" x2="774.9" y1="-245.4" y2="-241.9" gradientTransform="matrix(1.057 0 0 1.057 -545.7 -181)" gradientUnits="userSpaceOnUse"><stop offset="0" style="stop-color:#fff"/><stop offset="1" style="stop-color:#fff;stop-opacity:0"/></linearGradient><path id="path8824" d="M275.5-437.8c0 1.9-1.6 3.5-3.5 3.5s-3.5-1.6-3.5-3.5 1.6-3.5 3.5-3.5 3.5 1.6 3.5 3.5z" style="fill:url(#path8824_1_)"/></g><g id="g8826" transform="translate(-1)"><path id="path8828" d="M279-441.3a6.5 6.5 0 0 0-6.5 6.5c0 2.4 1.3 4.3 3.3 5.5h6.5a6.4 6.4 0 0 0 3.3-5.5c-.1-3.6-3-6.5-6.6-6.5z" class="st2"/><linearGradient id="path8830_1_" x1="776.1" x2="780.1" y1="-232.6" y2="-227.4" gradientTransform="translate(-500 -206)" gradientUnits="userSpaceOnUse"><stop offset="0" style="stop-color:#fff"/><stop offset="1" style="stop-color:#fff;stop-opacity:0"/></linearGradient><path id="path8830" d="M279-441.3a6.5 6.5 0 0 0-6.5 6.5c0 2.4 1.3 4.4 3.3 5.5h6.5a6.4 6.4 0 0 0 3.3-5.5c-.1-3.6-3-6.5-6.6-6.5z" style="fill:url(#path8830_1_)"/></g><linearGradient id="path8832_1_" x1="804.5" x2="807.6" y1="-211.9" y2="-209.1" gradientTransform="matrix(.906 0 0 .906 -460.9 -241.9)" gradientUnits="userSpaceOnUse"><stop offset="0" style="stop-color:#fff"/><stop offset="1" style="stop-color:#fff;stop-opacity:0"/></linearGradient><path id="path8832" d="M272.5-432.3c0 1.7-1.3 3-3 3s-3-1.3-3-3 1.3-3 3-3 3 1.3 3 3z" style="fill:url(#path8832_1_)"/><path id="path8834" d="M291.5-437.6c0 2.7-3.3 3.7-3.3 3.7s2.3-1.6 2.3-3.7h1z" class="st15"/><g id="g8836" transform="matrix(1.143 0 0 1.143 -28.6 67)"><path id="path8838" d="M275.7-437.8c0 1.9-1.6 3.5-3.5 3.5s-3.5-1.6-3.5-3.5 1.6-3.5 3.5-3.5 3.5 1.6 3.5 3.5z" class="st2"/><linearGradient id="path8840_1_" x1="633.8" x2="637.9" y1="-248.8" y2="-244.4" gradientTransform="matrix(1.38 0 0 1.38 -606 -98.3)" gradientUnits="userSpaceOnUse"><stop offset="0" style="stop-color:#fff"/><stop offset="1" style="stop-color:#fff;stop-opacity:0"/></linearGradient><path id="path8840" d="M275.7-437.8c0 1.9-1.6 3.5-3.5 3.5s-3.5-1.6-3.5-3.5 1.6-3.5 3.5-3.5 3.5 1.6 3.5 3.5z" style="fill:url(#path8840_1_)"/></g></g><g id="g8754" transform="translate(76 158)"><path id="path8756" d="M279-445.8a5 5 0 0 0-4.7 3.6 5 5 0 0 0-7.3 4.4c0 .6.2 1.1.3 1.6a4.5 4.5 0 0 0 2.2 8.4h19c2.5 0 4.5-2 4.5-4.5 0-1.7-1-3.1-2.3-3.9a5 5 0 0 0-4.7-6.6 6 6 0 0 0-2.3.6 5 5 0 0 0-4.7-3.6z" class="st8"/><linearGradient id="path8758_1_" x1="797.3" x2="811.3" y1="-234.8" y2="-225.7" gradientTransform="translate(-528 -206)" gradientUnits="userSpaceOnUse"><stop offset="0" style="stop-color:#fff"/><stop offset="1" style="stop-color:#fff;stop-opacity:0"/></linearGradient><path id="path8758" d="M279-445.3c-2.2 0-3.7 1.3-4.4 3.8-.7-.3-1.5-.8-2.4-.8-2.7 0-4.8 1.9-4.8 4.5 0 .5.3 1.3.4 1.8-1.3.7-2.4 1.9-2.4 3.4 0 2.3 1.5 4.3 4.3 4.3H288c2.8 0 4.3-1.9 4.3-4.3 0-1.6-1.1-2.7-2.4-3.4a6 6 0 0 0 .5-1.8c0-2.6-2.1-4.6-4.8-4.6-.8 0-1.6.5-2.3.8-.5-2.3-2.1-3.7-4.3-3.7z" style="fill:url(#path8758_1_)"/><g id="g8760"><path id="path8762" d="M282.5-440.8c0 1.9-1.6 3.5-3.5 3.5s-3.5-1.6-3.5-3.5 1.6-3.5 3.5-3.5 3.5 1.6 3.5 3.5z" class="st2"/><linearGradient id="path8764_1_" x1="802.7" x2="804.8" y1="-244.9" y2="-241.5" gradientTransform="matrix(1.057 0 0 1.057 -570.4 -184)" gradientUnits="userSpaceOnUse"><stop offset="0" style="stop-color:#fff"/><stop offset="1" style="stop-color:#fff;stop-opacity:0"/></linearGradient><path id="path8764" d="M282.5-440.8c0 1.9-1.6 3.5-3.5 3.5s-3.5-1.6-3.5-3.5 1.6-3.5 3.5-3.5 3.5 1.6 3.5 3.5z" style="fill:url(#path8764_1_)"/></g><path id="rect8766" d="M269.5-438.3h20v9h-20z" class="st2"/><path id="path8768" d="M272.5-432.3c0 1.7-1.3 3-3 3s-3-1.3-3-3 1.3-3 3-3 3 1.3 3 3z" class="st2"/><g id="g8770"><path id="path8772" d="M289.5-437.8c0 1.9-1.6 3.5-3.5 3.5s-3.5-1.6-3.5-3.5 1.6-3.5 3.5-3.5 3.5 1.6 3.5 3.5z" class="st2"/><linearGradient id="path8774_1_" x1="801.6" x2="805" y1="-246.4" y2="-241.3" gradientTransform="matrix(1.057 0 0 1.057 -563.4 -181)" gradientUnits="userSpaceOnUse"><stop offset="0" style="stop-color:#fff"/><stop offset="1" style="stop-color:#fff;stop-opacity:0"/></linearGradient><path id="path8774" d="M289.5-437.8c0 1.9-1.6 3.5-3.5 3.5s-3.5-1.6-3.5-3.5 1.6-3.5 3.5-3.5 3.5 1.6 3.5 3.5z" style="fill:url(#path8774_1_)"/></g><g id="g8776"><path id="path8778" d="M275.5-437.8c0 1.9-1.6 3.5-3.5 3.5s-3.5-1.6-3.5-3.5 1.6-3.5 3.5-3.5 3.5 1.6 3.5 3.5z" class="st2"/><linearGradient id="path8780_1_" x1="801.5" x2="805" y1="-245.4" y2="-241.9" gradientTransform="matrix(1.057 0 0 1.057 -577.4 -181)" gradientUnits="userSpaceOnUse"><stop offset="0" style="stop-color:#fff"/><stop offset="1" style="stop-color:#fff;stop-opacity:0"/></linearGradient><path id="path8780" d="M275.5-437.8c0 1.9-1.6 3.5-3.5 3.5s-3.5-1.6-3.5-3.5 1.6-3.5 3.5-3.5 3.5 1.6 3.5 3.5z" style="fill:url(#path8780_1_)"/></g><g id="g8782" transform="translate(-1)"><path id="path8784" d="M279-441.3a6.5 6.5 0 0 0-6.5 6.5c0 2.4 1.3 4.3 3.3 5.5h6.5a6.4 6.4 0 0 0 3.3-5.5c-.1-3.6-3-6.5-6.6-6.5z" class="st2"/><linearGradient id="path8786_1_" x1="806.1" x2="810.1" y1="-232.6" y2="-227.4" gradientTransform="translate(-530 -206)" gradientUnits="userSpaceOnUse"><stop offset="0" style="stop-color:#fff"/><stop offset="1" style="stop-color:#fff;stop-opacity:0"/></linearGradient><path id="path8786" d="M279-441.3a6.5 6.5 0 0 0-6.5 6.5c0 2.4 1.3 4.4 3.3 5.5h6.5a6.4 6.4 0 0 0 3.3-5.5c-.1-3.6-3-6.5-6.6-6.5z" style="fill:url(#path8786_1_)"/></g><linearGradient id="path8788_1_" x1="834.5" x2="837.6" y1="-211.9" y2="-209.1" gradientTransform="matrix(.906 0 0 .906 -488 -241.9)" gradientUnits="userSpaceOnUse"><stop offset="0" style="stop-color:#fff"/><stop offset="1" style="stop-color:#fff;stop-opacity:0"/></linearGradient><path id="path8788" d="M272.5-432.3c0 1.7-1.3 3-3 3s-3-1.3-3-3 1.3-3 3-3 3 1.3 3 3z" style="fill:url(#path8788_1_)"/><path id="path8790" d="M291.5-437.6c0 2.7-3.3 3.7-3.3 3.7s2.3-1.6 2.3-3.7h1z" class="st15"/><g id="g8792" transform="matrix(1.143 0 0 1.143 -28.6 67)"><path id="path8794" d="M275.7-437.8c0 1.9-1.6 3.5-3.5 3.5s-3.5-1.6-3.5-3.5 1.6-3.5 3.5-3.5 3.5 1.6 3.5 3.5z" class="st2"/><linearGradient id="path8796_1_" x1="658.4" x2="662.5" y1="-248.4" y2="-244" gradientTransform="matrix(1.38 0 0 1.38 -640 -98.9)" gradientUnits="userSpaceOnUse"><stop offset="0" style="stop-color:#fff"/><stop offset="1" style="stop-color:#fff;stop-opacity:0"/></linearGradient><path id="path8796" d="M275.7-437.8c0 1.9-1.6 3.5-3.5 3.5s-3.5-1.6-3.5-3.5 1.6-3.5 3.5-3.5 3.5 1.6 3.5 3.5z" style="fill:url(#path8796_1_)"/></g></g></g><g id="g12157" transform="translate(-163 222)"><path id="path12159" d="M172-190.3c0 .8-.7 1.5-1.5 1.5s-1.5-.7-1.5-1.5.7-1.5 1.5-1.5c.9 0 1.5.7 1.5 1.5z" class="st24"/><path id="path12161" d="M180.1-186.8c0 1.1-.9 2-2 2s-2-.9-2-2 .9-2 2-2 2 .9 2 2z" class="st24"/><path id="path12163" d="M173-182.3c0 .8-.7 1.5-1.5 1.5s-1.5-.7-1.5-1.5.7-1.5 1.5-1.5 1.5.7 1.5 1.5z" style="fill:#fff;stroke:#729fcf;stroke-width:1.4748;stroke-miterlimit:1"/><path id="path12165" d="M202-185.3c0 .8-.7 1.5-1.5 1.5s-1.5-.7-1.5-1.5.7-1.5 1.5-1.5 1.5.7 1.5 1.5z" style="fill:#fff;stroke:#729fcf;stroke-width:1.4678;stroke-miterlimit:1"/><path id="path12167" d="M191-189.3c0 1.4-1.1 2.5-2.4 2.5-1.4 0-2.4-1.1-2.4-2.5s1.1-2.5 2.4-2.5c1.3.1 2.4 1.2 2.4 2.5z" style="fill:#fff;stroke:#729fcf;stroke-width:.8992;stroke-miterlimit:1"/><path id="path12169" d="M196-182.1c0 1.3-1.1 2.3-2.5 2.3s-2.5-1-2.5-2.3 1.1-2.3 2.5-2.3 2.5 1 2.5 2.3z" style="fill:#fff;stroke:#729fcf;stroke-width:.9182;stroke-miterlimit:1"/><path id="path12171" d="M185-181.3c0 .8-.7 1.5-1.5 1.5s-1.5-.7-1.5-1.5.7-1.5 1.5-1.5 1.5.7 1.5 1.5z" style="fill:#fff;stroke:#729fcf;stroke-width:1.4641;stroke-miterlimit:1"/></g></g></svg>