<svg xmlns="http://www.w3.org/2000/svg" xml:space="preserve" id="svg1306" x="0" y="0" style="enable-background:new 0 0 45 45" version="1.1" viewBox="0 0 45 45"><style>.st2,.st9{fill:#888a85}.st9{stroke:#555753;stroke-miterlimit:2}.st16{fill-rule:evenodd;clip-rule:evenodd;fill:#555753}.st29,.st36{fill:#729fcf;stroke:#204a87;stroke-width:1.0746;stroke-miterlimit:2}.st36{fill:#c8e1ff;stroke:#729fcf}</style><g id="layer1_33_"><g id="g12825_3_" transform="translate(-287 245)"><path id="path12827_3_" d="M310-245a7.4 7.4 0 0 0-6.4 3.8c-.9-.5-2-.8-3.1-.8-3.9 0-7 3.1-7 7s3.1 7 7 7c2.4 0 4.4-1.3 5.7-3.2 1.1.7 2.4 1.2 3.8 1.2.9 0 1.8-.2 2.6-.5a7 7 0 0 0 2 2.2l-.1.4c0 3.9 3.1 7 7 7s7-3.1 7-7c0-2.4-1.3-4.4-3.1-5.6l.1-.4a7 7 0 0 0-7-7c-.6 0-1.2.2-1.8.4a7.2 7.2 0 0 0-6.7-4.5z" style="fill:#555753"/><linearGradient id="path12829_1_" x1="801.1" x2="838.9" y1="-188.2" y2="-175.2" gradientTransform="translate(-505 -51)" gradientUnits="userSpaceOnUse"><stop offset="0" style="stop-color:#fff"/><stop offset="1" style="stop-color:#fff;stop-opacity:0"/></linearGradient><path id="path12829_3_" d="M310-244a6.7 6.7 0 0 0-6.1 4.2c-1-.7-2.1-1.2-3.4-1.2-3.3 0-6 2.7-6 6s2.7 6 6 6a6 6 0 0 0 5.4-3.5c1.1.9 2.5 1.5 4.1 1.5 1.1 0 2-.3 2.9-.8.4 1 1.1 1.8 1.9 2.4-.2.6-.4 1.2-.4 1.8a6.5 6.5 0 1 0 13 0c0-2.4-1.3-4.3-3.2-5.5l.2-1a6 6 0 0 0-8.4-5.5 6.2 6.2 0 0 0-6-4.4z" style="fill:url(#path12829_1_)"/><path id="path12831_3_" d="M327.5-227.5a6.5 6.5 0 1 1-13 0 6.5 6.5 0 1 1 13 0z" class="st2"/><g id="g12833_3_"><path id="path12835_3_" d="M315.5-237.5c0 3-2.5 5.5-5.5 5.5s-5.5-2.5-5.5-5.5 2.5-5.5 5.5-5.5 5.5 2.5 5.5 5.5z" class="st2"/><linearGradient id="path12837_1_" x1="839.5" x2="845.2" y1="-161.8" y2="-156.9" gradientTransform="matrix(.883 0 0 .883 -434.7 -97.9)" gradientUnits="userSpaceOnUse"><stop offset="0" style="stop-color:#fff"/><stop offset="1" style="stop-color:#fff;stop-opacity:0"/></linearGradient><path id="path12837_3_" d="M315.5-237.5c0 3-2.5 5.5-5.5 5.5s-5.5-2.5-5.5-5.5 2.5-5.5 5.5-5.5 5.5 2.5 5.5 5.5z" style="opacity:.4944;fill:url(#path12837_1_);enable-background:new"/></g><g id="g12839_3_"><path id="path12841_3_" d="M323.5-233.5c0 3-2.5 5.5-5.5 5.5s-5.5-2.5-5.5-5.5 2.5-5.5 5.5-5.5 5.5 2.5 5.5 5.5z" class="st2"/><linearGradient id="path12843_1_" x1="838.6" x2="844.6" y1="-167" y2="-161.1" gradientTransform="matrix(.912 0 0 .912 -451 -85.8)" gradientUnits="userSpaceOnUse"><stop offset="0" style="stop-color:#fff"/><stop offset="1" style="stop-color:#fff;stop-opacity:0"/></linearGradient><path id="path12843_3_" d="M323.5-233.5c0 3-2.5 5.5-5.5 5.5s-5.5-2.5-5.5-5.5 2.5-5.5 5.5-5.5 5.5 2.5 5.5 5.5z" style="opacity:.4944;fill:url(#path12843_1_);enable-background:new"/></g><g id="g12845_3_"><path id="path12847_3_" d="M305.5-235c0 2.8-2.2 5-5 5s-5-2.2-5-5 2.2-5 5-5 5 2.2 5 5z" class="st2"/><linearGradient id="path12849_1_" x1="777.6" x2="782" y1="-211.6" y2="-208.1" gradientTransform="matrix(1.143 0 0 1.143 -591.4 4.3)" gradientUnits="userSpaceOnUse"><stop offset="0" style="stop-color:#fff"/><stop offset="1" style="stop-color:#fff;stop-opacity:0"/></linearGradient><path id="path12849_3_" d="M305.5-235c0 2.8-2.2 5-5 5s-5-2.2-5-5 2.2-5 5-5 5 2.2 5 5z" style="opacity:.4944;fill:url(#path12849_1_);enable-background:new"/></g><g id="g12851_3_"><path id="path12853_3_" d="M316.5-231c0 3.9-3.1 7-7 7s-7-3.1-7-7 3.1-7 7-7 7 3.1 7 7z" class="st2"/><linearGradient id="path12855_1_" x1="802.1" x2="809.7" y1="-190.8" y2="-185" gradientTransform="matrix(1.039 0 0 1.039 -528.4 -36.5)" gradientUnits="userSpaceOnUse"><stop offset="0" style="stop-color:#fff"/><stop offset="1" style="stop-color:#fff;stop-opacity:0"/></linearGradient><path id="path12855_3_" d="M316.5-231c0 3.9-3.1 7-7 7s-7-3.1-7-7 3.1-7 7-7 7 3.1 7 7z" style="opacity:.4944;fill:url(#path12855_1_);enable-background:new"/></g></g><g id="g11177_3_" transform="translate(208.9 357.9)"><linearGradient id="path11179_1_" x1="-609.2" x2="-610.3" y1="-124.5" y2="-111.8" gradientTransform="translate(431.5 -203.2)" gradientUnits="userSpaceOnUse"><stop offset="0" style="stop-color:#fcaf3e"/><stop offset="1" style="stop-color:#fcaf3e;stop-opacity:0"/></linearGradient><path id="path11179_3_" d="m-173.7-330.1-3.1 4.3h3.8l-7.6 12.9 3-11h-5.2l4-6.2h5.1z" style="fill-rule:evenodd;clip-rule:evenodd;fill:#edd400;stroke:url(#path11179_1_)"/><linearGradient id="path11181_1_" x1="-607" x2="-612.7" y1="-126.6" y2="-122.6" gradientTransform="translate(431.9 -199)" gradientUnits="userSpaceOnUse"><stop offset="0" style="stop-color:#fff"/><stop offset="1" style="stop-color:#fff;stop-opacity:0"/></linearGradient><path id="path11181_3_" d="m-174.2-330.3-3.7 5.2 4-.2s-.1.5-5 8.9l2.1-8-4.9.1 3.7-5.7 3.8-.3z" style="fill-rule:evenodd;clip-rule:evenodd;fill:url(#path11181_1_)"/></g><g id="g12857_6_" transform="translate(-215 253)"><path id="path12859_6_" d="M245-240.5a5 5 0 0 0-4.7 3.6 5 5 0 0 0-7.3 4.4c0 .6.2 1.1.3 1.6a4.5 4.5 0 0 0 2.2 8.4h19c2.5 0 4.5-2 4.5-4.5 0-1.7-1-3.1-2.3-3.9a5 5 0 0 0-4.7-6.6 6 6 0 0 0-2.3.6c-.5-2-2.4-3.6-4.7-3.6z" class="st9"/><linearGradient id="path12861_1_" x1="699.3" x2="713.3" y1="-236.5" y2="-227.5" gradientTransform="translate(-464 1)" gradientUnits="userSpaceOnUse"><stop offset="0" style="stop-color:#fff"/><stop offset="1" style="stop-color:#fff;stop-opacity:0"/></linearGradient><path id="path12861_6_" d="M245-240c-2.2 0-3.7 1.3-4.4 3.8-.7-.3-1.5-.8-2.4-.8-2.7 0-4.8 1.9-4.8 4.5 0 .5.3 1.3.4 1.8-1.3.7-2.4 1.9-2.4 3.4 0 2.3 1.5 4.3 4.3 4.3H254c2.8 0 4.3-1.9 4.3-4.3 0-1.6-1.1-2.7-2.4-3.4a6 6 0 0 0 .5-1.8c0-2.6-2.1-4.6-4.8-4.6-.8 0-1.6.5-2.3.8-.5-2.3-2.1-3.7-4.3-3.7z" style="fill:url(#path12861_1_)"/><path id="path12863_3_" d="M248.5-235.5c0 1.9-1.6 3.5-3.5 3.5s-3.5-1.6-3.5-3.5 1.6-3.5 3.5-3.5c2 0 3.5 1.6 3.5 3.5z" class="st2"/><linearGradient id="path12865_1_" x1="704.7" x2="706.9" y1="-246.4" y2="-243" gradientTransform="matrix(1.057 0 0 1.057 -500.9 22.9)" gradientUnits="userSpaceOnUse"><stop offset="0" style="stop-color:#fff"/><stop offset="1" style="stop-color:#fff;stop-opacity:0"/></linearGradient><path id="path12865_3_" d="M248.5-235.5c0 1.9-1.6 3.5-3.5 3.5s-3.5-1.6-3.5-3.5 1.6-3.5 3.5-3.5c2 0 3.5 1.6 3.5 3.5z" style="opacity:.4778;fill:url(#path12865_1_);enable-background:new"/><path id="rect12867_6_" d="M235.5-233h20v9h-20z" class="st2"/><path id="path12869_6_" d="M238.5-227c0 1.7-1.3 3-3 3s-3-1.3-3-3 1.3-3 3-3 3 1.3 3 3z" class="st2"/><path id="path12871_6_" d="M255.5-232.5c0 1.9-1.6 3.5-3.5 3.5s-3.5-1.6-3.5-3.5 1.6-3.5 3.5-3.5c2 0 3.5 1.6 3.5 3.5z" class="st2"/><linearGradient id="path12873_1_" x1="703.7" x2="707.1" y1="-248" y2="-242.8" gradientTransform="matrix(1.057 0 0 1.057 -493.9 25.9)" gradientUnits="userSpaceOnUse"><stop offset="0" style="stop-color:#fff"/><stop offset="1" style="stop-color:#fff;stop-opacity:0"/></linearGradient><path id="path12873_6_" d="M255.5-232.5c0 1.9-1.6 3.5-3.5 3.5s-3.5-1.6-3.5-3.5 1.6-3.5 3.5-3.5c2 0 3.5 1.6 3.5 3.5z" style="opacity:.4778;fill:url(#path12873_1_);enable-background:new"/><path id="path12875_6_" d="M241.5-232.5c0 1.9-1.6 3.5-3.5 3.5s-3.5-1.6-3.5-3.5 1.6-3.5 3.5-3.5c2 0 3.5 1.6 3.5 3.5z" class="st2"/><linearGradient id="path12877_1_" x1="703.6" x2="707.1" y1="-246.9" y2="-243.4" gradientTransform="matrix(1.057 0 0 1.057 -507.9 25.9)" gradientUnits="userSpaceOnUse"><stop offset="0" style="stop-color:#fff"/><stop offset="1" style="stop-color:#fff;stop-opacity:0"/></linearGradient><path id="path12877_6_" d="M241.5-232.5c0 1.9-1.6 3.5-3.5 3.5s-3.5-1.6-3.5-3.5 1.6-3.5 3.5-3.5c2 0 3.5 1.6 3.5 3.5z" style="opacity:.4778;fill:url(#path12877_1_);enable-background:new"/><path id="path12879_6_" d="M244-236a6.5 6.5 0 0 0-6.5 6.5c0 2.4 1.3 4.3 3.3 5.5h6.5a6.4 6.4 0 0 0 3.3-5.5c-.1-3.6-3-6.5-6.6-6.5z" class="st2"/><linearGradient id="path12881_1_" x1="706.1" x2="710.1" y1="-234.3" y2="-229.1" gradientTransform="translate(-465 1)" gradientUnits="userSpaceOnUse"><stop offset="0" style="stop-color:#fff"/><stop offset="1" style="stop-color:#fff;stop-opacity:0"/></linearGradient><path id="path12881_6_" d="M244-236a6.5 6.5 0 0 0-6.5 6.5c0 2.4 1.3 4.4 3.3 5.5h6.5a6.4 6.4 0 0 0 3.3-5.5c-.1-3.6-3-6.5-6.6-6.5z" style="opacity:.4778;fill:url(#path12881_1_);enable-background:new"/><linearGradient id="path12883_1_" x1="736.3" x2="739.4" y1="-214" y2="-211.2" gradientTransform="matrix(.906 0 0 .906 -433 -34.7)" gradientUnits="userSpaceOnUse"><stop offset="0" style="stop-color:#fff"/><stop offset="1" style="stop-color:#fff;stop-opacity:0"/></linearGradient><path id="path12883_6_" d="M238.5-227c0 1.7-1.3 3-3 3s-3-1.3-3-3 1.3-3 3-3 3 1.3 3 3z" style="opacity:.4778;fill:url(#path12883_1_);enable-background:new"/><path id="path12885_3_" d="M257.5-232.3c0 2.7-3.3 3.7-3.3 3.7s2.3-1.6 2.3-3.7h1z" class="st16"/><path id="path12887_6_" d="M252.5-228c0 2.2-1.8 4-4 4s-4-1.8-4-4 1.8-4 4-4 4 1.8 4 4z" class="st2"/><linearGradient id="path12889_1_" x1="678.3" x2="682.4" y1="-272.4" y2="-268" gradientTransform="matrix(1.208 0 0 1.208 -574.7 96.4)" gradientUnits="userSpaceOnUse"><stop offset="0" style="stop-color:#fff"/><stop offset="1" style="stop-color:#fff;stop-opacity:0"/></linearGradient><path id="path12889_6_" d="M252.5-228c0 2.2-1.8 4-4 4s-4-1.8-4-4 1.8-4 4-4 4 1.8 4 4z" style="opacity:.4778;fill:url(#path12889_1_);enable-background:new"/></g><g id="g11183_3_" transform="translate(192.9 354.9)"><linearGradient id="path11185_1_" x1="-577.2" x2="-578.3" y1="-124.1" y2="-111.3" gradientTransform="translate(399.5 -203.2)" gradientUnits="userSpaceOnUse"><stop offset="0" style="stop-color:#fcaf3e"/><stop offset="1" style="stop-color:#fcaf3e;stop-opacity:0"/></linearGradient><path id="path11185_3_" d="m-173.7-329.6-3.1 4.3h3.8l-7.6 12.9 3-11h-5.2l4-6.2h5.1z" style="fill-rule:evenodd;clip-rule:evenodd;fill:#edd400;stroke:url(#path11185_1_)"/><linearGradient id="path11187_1_" x1="-575" x2="-580.7" y1="-126.1" y2="-122.1" gradientTransform="translate(399.9 -199)" gradientUnits="userSpaceOnUse"><stop offset="0" style="stop-color:#fff"/><stop offset="1" style="stop-color:#fff;stop-opacity:0"/></linearGradient><path id="path11187_3_" d="m-174.2-329.8-3.7 5.2 4-.2s-.1.5-5 8.9l2.1-8-4.9.1 3.7-5.7 3.8-.3z" style="fill-rule:evenodd;clip-rule:evenodd;fill:url(#path11187_1_)"/></g><radialGradient id="path13209_1_" cx="-216" cy="111.2" r="14.5" gradientTransform="matrix(.93 0 0 .448 231.1 -21)" gradientUnits="userSpaceOnUse"><stop offset="0" style="stop-color:#fff"/><stop offset="1" style="stop-color:#fff;stop-opacity:0"/></radialGradient><path id="path13209_3_" d="M30.2 13a5 5 0 0 0-4.5 2.6c-.6-.2-1.2-.4-1.9-.4-2.8 0-5.1 2.1-5.1 4.7 0 .5.1.9.3 1.3-1.5.9-2.5 2.3-2.5 4 0 2.7.7 5 5.2 4.8h17.7c3.1.2 4.1-2.4 4.1-4.7 0-1.7-.8-3-2.3-3.9v-.8c0-2.6-2.3-4.7-5.1-4.7l-1.1.2a5.2 5.2 0 0 0-4.8-3.1z" style="fill:url(#path13209_1_)"/><g id="g12891_3_" transform="translate(-230 249)"><path id="path12893_3_" d="M245-240.5a5 5 0 0 0-4.7 3.6 5 5 0 0 0-7.3 4.4c0 .6.2 1.1.3 1.6a4.5 4.5 0 0 0 2.2 8.4h19c2.5 0 4.5-2 4.5-4.5 0-1.7-1-3.1-2.3-3.9a5 5 0 0 0-4.7-6.6 6 6 0 0 0-2.3.6c-.5-2-2.4-3.6-4.7-3.6z" class="st9"/><linearGradient id="path12895_1_" x1="729.3" x2="743.3" y1="-236.5" y2="-227.5" gradientTransform="translate(-494 1)" gradientUnits="userSpaceOnUse"><stop offset="0" style="stop-color:#fff"/><stop offset="1" style="stop-color:#fff;stop-opacity:0"/></linearGradient><path id="path12895_3_" d="M245-240c-2.2 0-3.7 1.3-4.4 3.8-.7-.3-1.5-.8-2.4-.8-2.7 0-4.8 1.9-4.8 4.5 0 .5.3 1.3.4 1.8-1.3.7-2.4 1.9-2.4 3.4 0 2.3 1.5 4.3 4.3 4.3H254c2.8 0 4.3-1.9 4.3-4.3 0-1.6-1.1-2.7-2.4-3.4a6 6 0 0 0 .5-1.8c0-2.6-2.1-4.6-4.8-4.6-.8 0-1.6.5-2.3.8-.5-2.3-2.1-3.7-4.3-3.7z" style="fill:url(#path12895_1_)"/><path id="path12897_3_" d="M248.5-235.5c0 1.9-1.6 3.5-3.5 3.5s-3.5-1.6-3.5-3.5 1.6-3.5 3.5-3.5c2 0 3.5 1.6 3.5 3.5z" class="st2"/><linearGradient id="path12899_1_" x1="734.8" x2="736.9" y1="-246.4" y2="-243" gradientTransform="matrix(1.057 0 0 1.057 -532.6 22.9)" gradientUnits="userSpaceOnUse"><stop offset="0" style="stop-color:#fff"/><stop offset="1" style="stop-color:#fff;stop-opacity:0"/></linearGradient><path id="path12899_3_" d="M248.5-235.5c0 1.9-1.6 3.5-3.5 3.5s-3.5-1.6-3.5-3.5 1.6-3.5 3.5-3.5c2 0 3.5 1.6 3.5 3.5z" style="opacity:.4778;fill:url(#path12899_1_);enable-background:new"/><path id="rect12901_3_" d="M235.5-233h20v9h-20z" class="st2"/><path id="path12903_3_" d="M238.5-227c0 1.7-1.3 3-3 3s-3-1.3-3-3 1.3-3 3-3 3 1.3 3 3z" class="st2"/><path id="path12905_3_" d="M255.5-232.5c0 1.9-1.6 3.5-3.5 3.5s-3.5-1.6-3.5-3.5 1.6-3.5 3.5-3.5c2 0 3.5 1.6 3.5 3.5z" class="st2"/><linearGradient id="path12907_1_" x1="733.8" x2="737.1" y1="-248" y2="-242.8" gradientTransform="matrix(1.057 0 0 1.057 -525.6 25.9)" gradientUnits="userSpaceOnUse"><stop offset="0" style="stop-color:#fff"/><stop offset="1" style="stop-color:#fff;stop-opacity:0"/></linearGradient><path id="path12907_3_" d="M255.5-232.5c0 1.9-1.6 3.5-3.5 3.5s-3.5-1.6-3.5-3.5 1.6-3.5 3.5-3.5c2 0 3.5 1.6 3.5 3.5z" style="opacity:.4778;fill:url(#path12907_1_);enable-background:new"/><path id="path12909_3_" d="M241.5-232.5c0 1.9-1.6 3.5-3.5 3.5s-3.5-1.6-3.5-3.5 1.6-3.5 3.5-3.5c2 0 3.5 1.6 3.5 3.5z" class="st2"/><linearGradient id="path12911_1_" x1="733.6" x2="737.1" y1="-246.9" y2="-243.4" gradientTransform="matrix(1.057 0 0 1.057 -539.6 25.9)" gradientUnits="userSpaceOnUse"><stop offset="0" style="stop-color:#fff"/><stop offset="1" style="stop-color:#fff;stop-opacity:0"/></linearGradient><path id="path12911_3_" d="M241.5-232.5c0 1.9-1.6 3.5-3.5 3.5s-3.5-1.6-3.5-3.5 1.6-3.5 3.5-3.5c2 0 3.5 1.6 3.5 3.5z" style="opacity:.4778;fill:url(#path12911_1_);enable-background:new"/><path id="path12913_3_" d="M244-236a6.5 6.5 0 0 0-6.5 6.5c0 2.4 1.3 4.3 3.3 5.5h6.5a6.4 6.4 0 0 0 3.3-5.5c-.1-3.6-3-6.5-6.6-6.5z" class="st2"/><linearGradient id="path12915_1_" x1="736.1" x2="740.2" y1="-234.3" y2="-229.1" gradientTransform="translate(-495 1)" gradientUnits="userSpaceOnUse"><stop offset="0" style="stop-color:#fff"/><stop offset="1" style="stop-color:#fff;stop-opacity:0"/></linearGradient><path id="path12915_3_" d="M244-236a6.5 6.5 0 0 0-6.5 6.5c0 2.4 1.3 4.4 3.3 5.5h6.5a6.4 6.4 0 0 0 3.3-5.5c-.1-3.6-3-6.5-6.6-6.5z" style="opacity:.4778;fill:url(#path12915_1_);enable-background:new"/><linearGradient id="path12917_1_" x1="766.3" x2="769.4" y1="-214" y2="-211.2" gradientTransform="matrix(.906 0 0 .906 -460.2 -34.7)" gradientUnits="userSpaceOnUse"><stop offset="0" style="stop-color:#fff"/><stop offset="1" style="stop-color:#fff;stop-opacity:0"/></linearGradient><path id="path12917_3_" d="M238.5-227c0 1.7-1.3 3-3 3s-3-1.3-3-3 1.3-3 3-3 3 1.3 3 3z" style="opacity:.4778;fill:url(#path12917_1_);enable-background:new"/><path id="path12919_3_" d="M257.5-232.3c0 2.7-3.3 3.7-3.3 3.7s2.3-1.6 2.3-3.7h1z" class="st16"/><path id="path12921_3_" d="M252.5-228c0 2.2-1.8 4-4 4s-4-1.8-4-4 1.8-4 4-4 4 1.8 4 4z" class="st2"/><linearGradient id="path12923_1_" x1="708.3" x2="712.4" y1="-272.4" y2="-268" gradientTransform="matrix(1.208 0 0 1.208 -611 96.4)" gradientUnits="userSpaceOnUse"><stop offset="0" style="stop-color:#fff"/><stop offset="1" style="stop-color:#fff;stop-opacity:0"/></linearGradient><path id="path12923_3_" d="M252.5-228c0 2.2-1.8 4-4 4s-4-1.8-4-4 1.8-4 4-4 4 1.8 4 4z" style="opacity:.4778;fill:url(#path12923_1_);enable-background:new"/></g><radialGradient id="path11418_1_" cx="-216" cy="111.2" r="14.5" gradientTransform="matrix(.93 0 0 .448 215.7 -25)" gradientUnits="userSpaceOnUse"><stop offset="0" style="stop-color:#fff"/><stop offset="1" style="stop-color:#fff;stop-opacity:0"/></radialGradient><path id="path11418_3_" d="M14.7 9a5 5 0 0 0-4.5 2.6c-.6-.2-1.2-.4-1.9-.4-2.8 0-5.1 2.1-5.1 4.7 0 .5.1.9.3 1.3a4.7 4.7 0 0 0-2.3 3.9c0 2.7.7 5 5.2 4.8h17.7c3.1.2 4.1-2.4 4.1-4.7 0-1.7-.8-3-2.3-3.9v-.8c0-2.6-2.3-4.7-5.1-4.7l-1.1.2c-.9-1.7-2.8-3-5-3z" style="fill:url(#path11418_1_)"/><g id="g12227_8_" transform="translate(-203 271)"><path id="path12229_8_" d="M222.7-227.4c-1-.6-1.4-1.9-.8-2.9 1.3-2.1 3.1-1.5 4-3.7 1.3 1.3.8 8.2-3.2 6.6z" class="st29"/><radialGradient id="path12231_1_" cx="3561.7" cy="244.4" r="21.7" gradientTransform="matrix(.07 .042 -.062 .11 -12.6 -404.1)" gradientUnits="userSpaceOnUse"><stop offset="0" style="stop-color:#fff"/><stop offset="1" style="stop-color:#fff;stop-opacity:0"/></radialGradient><path id="path12231_8_" d="M225.4-228.5c-.5.9-1.6 1.2-2.4.7-.8-.5-1.1-1.6-.6-2.5s2.6-.5 3.3-2.3c.8.5.2 3.2-.3 4.1z" style="opacity:.4611;fill:url(#path12231_1_);enable-background:new"/><linearGradient id="path12233_1_" x1="799.2" x2="819.7" y1="-2826.1" y2="-2847.6" gradientTransform="matrix(-.054 .103 -.093 -.06 3.6 -482.2)" gradientUnits="userSpaceOnUse"><stop offset="0" style="stop-color:#fff"/><stop offset="1" style="stop-color:#fff;stop-opacity:0"/></linearGradient><path id="path12233_22_" d="M224.1-227.6c-4.6-1.1.2-4.7 1-3.9-3.6 1.3-1 3.9-1 3.9z" style="fill:url(#path12233_1_)"/></g><g id="g12191_8_" transform="translate(-223 261)"><path id="path12193_8_" d="M227.7-231.4c-1-.6-1.4-1.9-.8-2.9 1.3-2.1 3.1-1.5 4-3.7 1.3 1.3.8 8.2-3.2 6.6z" class="st29"/><radialGradient id="path12195_1_" cx="3630.7" cy="196.8" r="21.7" gradientTransform="matrix(.07 .042 -.062 .11 -15.5 -405.8)" gradientUnits="userSpaceOnUse"><stop offset="0" style="stop-color:#fff"/><stop offset="1" style="stop-color:#fff;stop-opacity:0"/></radialGradient><path id="path12195_8_" d="M230.4-232.5c-.5.9-1.6 1.2-2.4.7-.8-.5-1.1-1.6-.6-2.5s2.6-.5 3.3-2.3c.8.5.2 3.2-.3 4.1z" style="opacity:.4611;fill:url(#path12195_1_);enable-background:new"/><linearGradient id="path12197_1_" x1="786.7" x2="807.2" y1="-2849.7" y2="-2871.2" gradientTransform="matrix(-.054 .103 -.093 -.06 5.8 -486.4)" gradientUnits="userSpaceOnUse"><stop offset="0" style="stop-color:#fff"/><stop offset="1" style="stop-color:#fff;stop-opacity:0"/></linearGradient><path id="path12197_8_" d="M229.1-231.6c-4.6-1.1.2-4.7 1-3.9-3.6 1.3-1 3.9-1 3.9z" style="fill:url(#path12197_1_)"/></g><g id="g12239_22_" transform="translate(-194 268)"><path id="path12241_22_" d="M226.7-239.4c-1-.6-1.4-1.9-.8-2.9 1.3-2.1 3.1-1.5 4-3.7 1.3 1.3.8 8.2-3.2 6.6z" class="st29"/><radialGradient id="path12243_1_" cx="3514" cy="146" r="21.7" gradientTransform="matrix(.07 .042 -.062 .11 -11.4 -403.4)" gradientUnits="userSpaceOnUse"><stop offset="0" style="stop-color:#fff"/><stop offset="1" style="stop-color:#fff;stop-opacity:0"/></radialGradient><path id="path12243_8_" d="M229.4-240.5c-.5.9-1.6 1.2-2.4.7-.8-.5-1.1-1.6-.6-2.5s2.6-.5 3.3-2.3c.8.5.2 3.2-.3 4.1z" style="opacity:.4611;fill:url(#path12243_1_);enable-background:new"/><linearGradient id="path12245_1_" x1="675" x2="695.5" y1="-2808" y2="-2829.4" gradientTransform="matrix(-.054 .103 -.093 -.06 2.7 -480.4)" gradientUnits="userSpaceOnUse"><stop offset="0" style="stop-color:#fff"/><stop offset="1" style="stop-color:#fff;stop-opacity:0"/></linearGradient><path id="path12245_8_" d="M228.1-239.6c-4.6-1.1.2-4.7 1-3.9-3.6 1.3-1 3.9-1 3.9z" style="fill:url(#path12245_1_)"/></g><path d="M39 36.9h-3l-1.5 2.6 1.5 2.6h3l1.5-2.6z" class="st36"/><linearGradient id="SVGID_1_" x1="37" x2="38.8" y1="12" y2="10.1" gradientTransform="matrix(1 0 0 -1 0 50)" gradientUnits="userSpaceOnUse"><stop offset="0" style="stop-color:#fff"/><stop offset="1" style="stop-color:#fff;stop-opacity:0"/></linearGradient><path d="M39.2 38.3h-1.4l-.8 1.2.8 1.3h1.4l.7-1.3z" style="fill:url(#SVGID_1_)"/><path d="M25.1 21.8h-3l-1.5 2.6 1.5 2.6h3l1.5-2.6z" class="st36"/><linearGradient id="SVGID_2_" x1="23" x2="24.8" y1="27.2" y2="25.3" gradientTransform="matrix(1 0 0 -1 0 50)" gradientUnits="userSpaceOnUse"><stop offset="0" style="stop-color:#fff"/><stop offset="1" style="stop-color:#fff;stop-opacity:0"/></linearGradient><path d="M25.2 23.2h-1.4l-.7 1.2.7 1.2h1.4l.7-1.2z" style="fill:url(#SVGID_2_)"/><path d="M8.6 35h-3l-1.5 2.6 1.5 2.6h3l1.5-2.6z" class="st36"/><linearGradient id="SVGID_3_" x1="6.6" x2="8.4" y1="14" y2="12.1" gradientTransform="matrix(1 0 0 -1 0 50)" gradientUnits="userSpaceOnUse"><stop offset="0" style="stop-color:#fff"/><stop offset="1" style="stop-color:#fff;stop-opacity:0"/></linearGradient><path d="M8.8 36.3H7.3l-.7 1.3.7 1.2h1.5l.7-1.2z" style="fill:url(#SVGID_3_)"/></g></svg>