<svg xmlns="http://www.w3.org/2000/svg" xmlns:xlink="http://www.w3.org/1999/xlink" viewBox="0 0 45 45"><defs><linearGradient id="a" x1="668.4" x2="675.3" y1="169.4" y2="169.4" gradientTransform="matrix(1.09 0 .54 -.67 -813.3 147.7)" gradientUnits="userSpaceOnUse"><stop offset="0" stop-color="#fff"/><stop offset="1" stop-color="#fff" stop-opacity="0"/></linearGradient><linearGradient xlink:href="#a" id="b" x1="672.7" x2="679.5" y1="169.4" y2="169.4" gradientTransform="matrix(1.07 0 .54 -.67 -794.5 147.7)"/><linearGradient xlink:href="#a" id="c" x1="672.7" x2="679.5" y1="169.4" y2="169.4" gradientTransform="matrix(1.07 0 .54 -.67 -784.5 147.7)"/><linearGradient xlink:href="#a" id="d" x1="801.3" x2="839.1" y1="234.2" y2="221.2" gradientTransform="matrix(1 0 0 -1 -791.5 240)"/><linearGradient xlink:href="#a" id="e" x1="850.3" x2="856" y1="207.9" y2="203.1" gradientTransform="matrix(.88 0 0 -.88 -730.4 187.8)"/><linearGradient xlink:href="#a" id="f" x1="846.5" x2="852.5" y1="213.1" y2="207.2" gradientTransform="matrix(.91 0 0 -.91 -744.6 201.3)"/><linearGradient xlink:href="#a" id="g" x1="768" x2="772.4" y1="257.5" y2="254" gradientTransform="matrix(1.14 0 0 -1.14 -866.5 301.7)"/><linearGradient xlink:href="#a" id="h" x1="799.3" x2="807" y1="236.8" y2="231" gradientTransform="matrix(1.04 0 0 -1.04 -811.8 256.2)"/><linearGradient xlink:href="#a" id="i" x1="699.5" x2="713.5" y1="282.6" y2="273.5" gradientTransform="matrix(1 0 0 -1 -678.6 300)"/><linearGradient xlink:href="#a" id="j" x1="700.8" x2="702.9" y1="292.4" y2="288.9" gradientTransform="matrix(1.06 0 0 -1.06 -711 324.4)"/><linearGradient xlink:href="#a" id="k" x1="699.7" x2="703.1" y1="293.9" y2="288.7" gradientTransform="matrix(1.06 0 0 -1.06 -704 327.4)"/><linearGradient xlink:href="#a" id="l" x1="699.6" x2="703.1" y1="292.8" y2="289.4" gradientTransform="matrix(1.06 0 0 -1.06 -718 327.4)"/><linearGradient xlink:href="#a" id="m" x1="706.4" x2="710.4" y1="280.3" y2="275.1" gradientTransform="matrix(1 0 0 -1 -679.6 300)"/><linearGradient xlink:href="#a" id="n" x1="744.9" x2="748" y1="260.1" y2="257.3" gradientTransform="matrix(.9 0 0 -.91 -655.1 260)"/><linearGradient xlink:href="#a" id="o" x1="665" x2="669.1" y1="318.2" y2="313.8" gradientTransform="matrix(1.21 0 0 -1.21 -772.8 404.8)"/><linearGradient xlink:href="#a" id="p" x1="729.5" x2="743.5" y1="282.5" y2="273.5" gradientTransform="matrix(1 0 0 -1 -723.6 296)"/><linearGradient xlink:href="#a" id="q" x1="730.8" x2="733" y1="292.4" y2="288.9" gradientTransform="matrix(1.06 0 0 -1.06 -757.7 320.4)"/><linearGradient xlink:href="#a" id="r" x1="729.8" x2="733.1" y1="293.9" y2="288.7" gradientTransform="matrix(1.06 0 0 -1.06 -750.7 323.4)"/><linearGradient xlink:href="#a" id="s" x1="729.6" x2="733.1" y1="292.8" y2="289.4" gradientTransform="matrix(1.06 0 0 -1.06 -764.7 323.4)"/><linearGradient xlink:href="#a" id="t" x1="736.4" x2="740.4" y1="280.3" y2="275.1" gradientTransform="matrix(1 0 0 -1 -724.6 296)"/><linearGradient xlink:href="#a" id="u" x1="774.9" x2="778" y1="260.1" y2="257.3" gradientTransform="matrix(.9 0 0 -.91 -697.3 256)"/><linearGradient xlink:href="#a" id="v" x1="695" x2="699.1" y1="318.2" y2="313.8" gradientTransform="matrix(1.21 0 0 -1.21 -824 400.7)"/><style>.t{fill:#555753}.h,.m{fill:#888a85}.m{stroke:#555753;stroke-miterlimit:2;stroke-width:1px}.t{fill-rule:evenodd}</style></defs><path d="M13.1 26.5h28.2c1.3 0 2 .5 1.4 1.2L34 39.3a4.5 4.5 0 0 1-3.3 1.2H2.5c-1.3 0-2-.5-1.4-1.2l8.7-11.6a4.5 4.5 0 0 1 3.3-1.2Z" style="fill:#729fcf;stroke:#3465a4;stroke-miterlimit:1;stroke-width:1.08px"/><g style="opacity:.8"><path d="M11 27h6.8c1.3 0 2 .5 1.4 1.1l-8.7 10.8A4.7 4.7 0 0 1 7.3 40h-4C2 40 .7 40 2 38.9Z" style="fill:url(#a)"/><path d="M21.2 27H28c1.3 0 2 .5 1.4 1.1l-8.5 10.8a4.7 4.7 0 0 1-3.2 1h-6Z" style="fill:url(#b)"/><path d="M31.2 27H38c1.3 0 2 .5 1.4 1.1l-8.5 10.8a4.7 4.7 0 0 1-3.2 1h-6Z" style="fill:url(#c)"/></g><path d="M23 0a7.4 7.4 0 0 0-6.4 3.8 6.5 6.5 0 0 0-3-.8 7 7 0 0 0 0 14 6.9 6.9 0 0 0 5.6-3.2A7.1 7.1 0 0 0 23 15a7.5 7.5 0 0 0 2.6-.5 7 7 0 0 0 2 2.2l-.1.4a7 7 0 0 0 14 0 6.7 6.7 0 0 0-3.1-5.6l.1-.4a7 7 0 0 0-7-7 5.8 5.8 0 0 0-1.8.4A7.3 7.3 0 0 0 23 0Z" style="fill:#555753"/><path d="M23 1a6.6 6.6 0 0 0-6 4.2A5.8 5.8 0 0 0 13.6 4a6 6 0 1 0 5.3 8.5A6.4 6.4 0 0 0 23 14a5.7 5.7 0 0 0 2.9-.8 5.7 5.7 0 0 0 1.9 2.4 5.8 5.8 0 0 0-.4 1.8 6.5 6.5 0 1 0 9.8-5.5 3.5 3.5 0 0 0 .2-1A6 6 0 0 0 29 5.4 6.4 6.4 0 0 0 23 1Z" style="fill:url(#d)"/><path d="M40.5 17.5a6.5 6.5 0 0 1-13 0 6.5 6.5 0 0 1 13 0ZM28.5 7.5a5.5 5.5 0 0 1-11 0 5.5 5.5 0 0 1 11 0Z" class="h"/><path d="M28.5 7.5a5.5 5.5 0 0 1-11 0 5.5 5.5 0 0 1 11 0Z" style="fill:url(#e);isolation:isolate;opacity:.49"/><path d="M36.5 11.5a5.5 5.5 0 0 1-11 0 5.5 5.5 0 0 1 11 0Z" class="h"/><path d="M36.5 11.5a5.5 5.5 0 0 1-11 0 5.5 5.5 0 0 1 11 0Z" style="fill:url(#f);isolation:isolate;opacity:.49"/><path d="M18.5 10a5 5 0 1 1-10 0 5 5 0 0 1 5-5 5 5 0 0 1 5 5Z" class="h"/><path d="M18.5 10a5 5 0 1 1-10 0 5 5 0 0 1 5-5 5 5 0 0 1 5 5Z" style="fill:url(#g);isolation:isolate;opacity:.49"/><path d="M29.5 14a7 7 0 1 1-14 0 7 7 0 0 1 7-7 7 7 0 0 1 7 7Z" class="h"/><path d="M29.5 14a7 7 0 1 1-14 0 7 7 0 0 1 7-7 7 7 0 0 1 7 7Z" style="fill:url(#h);isolation:isolate;opacity:.49"/><path d="M30 12.5a5 5 0 0 0-4.7 3.6 4.4 4.4 0 0 0-2.3-.6 5 5 0 0 0-5 5 7.6 7.6 0 0 0 .3 1.6 4.5 4.5 0 0 0 2.2 8.4h19A4.5 4.5 0 0 0 44 26a4.6 4.6 0 0 0-2.3-3.9 4.2 4.2 0 0 0 .3-1.6 5 5 0 0 0-5-5 6 6 0 0 0-2.3.6 5 5 0 0 0-4.7-3.6Z" class="m"/><path d="M30 13c-2.2 0-3.7 1.3-4.4 3.8a6.2 6.2 0 0 0-2.4-.8 4.6 4.6 0 0 0-4.8 4.5 11.6 11.6 0 0 0 .4 1.8 4 4 0 0 0 1.9 7.7H39a4 4 0 0 0 4.3-4.3 4 4 0 0 0-2.4-3.4 6 6 0 0 0 .5-1.8 4.6 4.6 0 0 0-4.8-4.6 6.3 6.3 0 0 0-2.3.8A4.3 4.3 0 0 0 30 13Z" style="fill:url(#i)"/><path d="M33.5 17.5A3.5 3.5 0 1 1 30 14a3.5 3.5 0 0 1 3.5 3.5Z" class="h"/><path d="M33.5 17.5A3.5 3.5 0 1 1 30 14a3.5 3.5 0 0 1 3.5 3.5Z" style="fill:url(#j);opacity:.48;isolation:isolate"/><path d="M20.5 20h20v9h-20z" class="h"/><path d="M23.5 26a3 3 0 1 1-3-3 3 3 0 0 1 3 3ZM40.5 20.5A3.5 3.5 0 1 1 37 17a3.5 3.5 0 0 1 3.5 3.5Z" class="h"/><path d="M40.5 20.5A3.5 3.5 0 1 1 37 17a3.5 3.5 0 0 1 3.5 3.5Z" style="fill:url(#k);opacity:.48;isolation:isolate"/><path d="M26.5 20.5A3.5 3.5 0 1 1 23 17a3.5 3.5 0 0 1 3.5 3.5Z" class="h"/><path d="M26.5 20.5A3.5 3.5 0 1 1 23 17a3.5 3.5 0 0 1 3.5 3.5Z" style="fill:url(#l);opacity:.48;isolation:isolate"/><path d="M29 17a6.5 6.5 0 0 0-6.6 6.5 6.3 6.3 0 0 0 3.3 5.5h6.5a6.4 6.4 0 0 0 3.3-5.5A6.6 6.6 0 0 0 29 17Z" class="h"/><path d="M29 17a6.5 6.5 0 0 0-6.5 6.5 6.2 6.2 0 0 0 3.3 5.5h6.5a6.4 6.4 0 0 0 3.3-5.5A6.6 6.6 0 0 0 29 17Z" style="fill:url(#m);opacity:.48;isolation:isolate"/><path d="M23.5 26a3 3 0 1 1-3-3 3 3 0 0 1 3 3Z" style="fill:url(#n);opacity:.48;isolation:isolate"/><path d="M42.4 20.7c0 2.7-3.3 3.7-3.3 3.7s2.3-1.6 2.3-3.7Z" class="t"/><path d="M37.5 25a4 4 0 1 1-4-4 4 4 0 0 1 4 4Z" class="h"/><path d="M37.5 25a4 4 0 1 1-4-4 4 4 0 0 1 4 4Z" style="fill:url(#o);opacity:.48;isolation:isolate"/><path d="M15 8.5a5 5 0 0 0-4.7 3.6 4.4 4.4 0 0 0-2.3-.6 5 5 0 0 0-5 5 7.6 7.6 0 0 0 .3 1.6A4.4 4.4 0 0 0 1 22a4.5 4.5 0 0 0 4.5 4.5h19A4.5 4.5 0 0 0 29 22a4.6 4.6 0 0 0-2.3-3.9 4.2 4.2 0 0 0 .3-1.6 5 5 0 0 0-5-5 6 6 0 0 0-2.3.6A5 5 0 0 0 15 8.5Z" class="m"/><path d="M15 9c-2.2 0-3.7 1.3-4.4 3.8a6.2 6.2 0 0 0-2.4-.8 4.5 4.5 0 0 0-4.8 4.5 11.6 11.6 0 0 0 .4 1.8 4 4 0 0 0 2 7.7H24a4 4 0 0 0 4.3-4.3 4 4 0 0 0-2.4-3.4 6 6 0 0 0 .5-1.8 4.6 4.6 0 0 0-4.8-4.6 6.3 6.3 0 0 0-2.3.8A4.3 4.3 0 0 0 15 9Z" style="fill:url(#p)"/><path d="M18.5 13.5A3.5 3.5 0 1 1 15 10a3.5 3.5 0 0 1 3.5 3.5Z" class="h"/><path d="M18.5 13.5A3.5 3.5 0 1 1 15 10a3.5 3.5 0 0 1 3.5 3.5Z" style="fill:url(#q);opacity:.48;isolation:isolate"/><path d="M5.5 16h20v9h-20z" class="h"/><path d="M8.5 22a3 3 0 0 1-3 3 3 3 0 0 1 0-6 3 3 0 0 1 3 3ZM25.5 16.5A3.5 3.5 0 1 1 22 13a3.5 3.5 0 0 1 3.5 3.5Z" class="h"/><path d="M25.5 16.5A3.5 3.5 0 1 1 22 13a3.5 3.5 0 0 1 3.5 3.5Z" style="fill:url(#r);opacity:.48;isolation:isolate"/><path d="M11.5 16.5A3.5 3.5 0 0 1 8 20a3.5 3.5 0 1 1 0-7 3.5 3.5 0 0 1 3.5 3.5Z" class="h"/><path d="M11.5 16.5A3.5 3.5 0 0 1 8 20a3.5 3.5 0 1 1 0-7 3.5 3.5 0 0 1 3.5 3.5Z" style="fill:url(#s);opacity:.48;isolation:isolate"/><path d="M14 13a6.5 6.5 0 0 0-6.6 6.5 6.3 6.3 0 0 0 3.3 5.5h6.5a6.4 6.4 0 0 0 3.3-5.5A6.6 6.6 0 0 0 14 13Z" class="h"/><path d="M14 13a6.5 6.5 0 0 0-6.5 6.5 6.2 6.2 0 0 0 3.3 5.5h6.5a6.4 6.4 0 0 0 3.3-5.5A6.6 6.6 0 0 0 14 13Z" style="fill:url(#t);opacity:.48;isolation:isolate"/><path d="M8.5 22a3 3 0 0 1-3 3 3 3 0 0 1 0-6 3 3 0 0 1 3 3Z" style="fill:url(#u);opacity:.48;isolation:isolate"/><path d="M27.4 16.7c0 2.7-3.3 3.7-3.3 3.7s2.3-1.6 2.3-3.7Z" class="t"/><path d="M22.5 21a4 4 0 1 1-4-4 4 4 0 0 1 4 4Z" class="h"/><path d="M22.5 21a4 4 0 1 1-4-4 4 4 0 0 1 4 4Z" style="fill:url(#v);opacity:.48;isolation:isolate"/></svg>