<svg xmlns="http://www.w3.org/2000/svg" xml:space="preserve" id="svg1306" x="0" y="0" style="enable-background:new 0 0 45 45" version="1.1" viewBox="0 0 45 45"><style>.st0{stroke:#555753;stroke-width:.9992;stroke-miterlimit:1.9981}.st0,.st2{fill:#888a85}.st8{fill-rule:evenodd;clip-rule:evenodd;fill:#555753}.st17{fill:#888a85;stroke:#555753;stroke-width:.9998;stroke-miterlimit:1.9993}</style><g id="layer1_36_"><g id="g12627_8_" transform="matrix(1 0 0 1 -286.8 245)"><g id="g12578_8_" transform="translate(72 8)"><path id="path12580_8_" d="M245-247a5 5 0 0 0-4.7 3.6 5 5 0 0 0-7.3 4.4c0 .6.2 1.1.3 1.6a4.5 4.5 0 0 0 2.2 8.4h19c2.5 0 4.5-2 4.5-4.5 0-1.7-1-3.1-2.3-3.9a5 5 0 0 0-4.7-6.6 6 6 0 0 0-2.3.6 5 5 0 0 0-4.7-3.6z" class="st0"/><linearGradient id="path12582_1_" x1="914.7" x2="928.7" y1="36.1" y2="27" gradientTransform="matrix(1 0 0 -1 -678.6 -206)" gradientUnits="userSpaceOnUse"><stop offset="0" style="stop-color:#fff"/><stop offset="1" style="stop-color:#fff;stop-opacity:0"/></linearGradient><path id="path12582_8_" d="M245-246.5c-2.2 0-3.7 1.3-4.4 3.8-.7-.3-1.5-.8-2.4-.8-2.7 0-4.8 1.9-4.8 4.5 0 .5.3 1.3.4 1.8-1.3.7-2.4 1.9-2.4 3.4 0 2.3 1.5 4.3 4.3 4.3H254c2.8 0 4.3-1.9 4.3-4.3 0-1.6-1.1-2.7-2.4-3.4a6 6 0 0 0 .5-1.8c0-2.6-2.1-4.6-4.8-4.6-.8 0-1.6.5-2.3.8-.5-2.3-2.1-3.7-4.3-3.7z" style="fill:url(#path12582_1_)"/><path id="path12584_8_" d="M248.5-242c0 1.9-1.6 3.5-3.5 3.5s-3.5-1.6-3.5-3.5 1.6-3.5 3.5-3.5 3.5 1.6 3.5 3.5z" class="st2"/><linearGradient id="path12586_1_" x1="914.5" x2="916.7" y1="51.2" y2="47.8" gradientTransform="matrix(1.056 0 0 -1.057 -721.7 -190)" gradientUnits="userSpaceOnUse"><stop offset="0" style="stop-color:#fff"/><stop offset="1" style="stop-color:#fff;stop-opacity:0"/></linearGradient><path id="path12586_8_" d="M248.5-242c0 1.9-1.6 3.5-3.5 3.5s-3.5-1.6-3.5-3.5 1.6-3.5 3.5-3.5 3.5 1.6 3.5 3.5z" style="opacity:.4778;fill:url(#path12586_1_);enable-background:new"/><path id="rect12588_8_" d="M235.5-239.5h20v9h-20z" class="st2"/><path id="path12591_8_" d="M238.5-233.5c0 1.7-1.3 3-3 3s-3-1.3-3-3 1.3-3 3-3 3 1.4 3 3z" class="st2"/><path id="path12593_8_" d="M255.5-239c0 1.9-1.6 3.5-3.5 3.5s-3.5-1.6-3.5-3.5 1.6-3.5 3.5-3.5 3.5 1.6 3.5 3.5z" class="st2"/><linearGradient id="path12595_1_" x1="913.5" x2="916.8" y1="52.7" y2="47.6" gradientTransform="matrix(1.056 0 0 -1.057 -714.7 -187)" gradientUnits="userSpaceOnUse"><stop offset="0" style="stop-color:#fff"/><stop offset="1" style="stop-color:#fff;stop-opacity:0"/></linearGradient><path id="path12595_8_" d="M255.5-239c0 1.9-1.6 3.5-3.5 3.5s-3.5-1.6-3.5-3.5 1.6-3.5 3.5-3.5 3.5 1.6 3.5 3.5z" style="opacity:.4778;fill:url(#path12595_1_);enable-background:new"/><path id="path12597_8_" d="M241.5-239c0 1.9-1.6 3.5-3.5 3.5s-3.5-1.6-3.5-3.5 1.6-3.5 3.5-3.5 3.5 1.6 3.5 3.5z" class="st2"/><linearGradient id="path12599_1_" x1="913.4" x2="916.8" y1="51.7" y2="48.2" gradientTransform="matrix(1.056 0 0 -1.057 -728.7 -187)" gradientUnits="userSpaceOnUse"><stop offset="0" style="stop-color:#fff"/><stop offset="1" style="stop-color:#fff;stop-opacity:0"/></linearGradient><path id="path12599_8_" d="M241.5-239c0 1.9-1.6 3.5-3.5 3.5s-3.5-1.6-3.5-3.5 1.6-3.5 3.5-3.5 3.5 1.6 3.5 3.5z" style="opacity:.4778;fill:url(#path12599_1_);enable-background:new"/><path id="path12601_8_" d="M244-242.5a6.5 6.5 0 0 0-6.5 6.5c0 2.4 1.3 4.3 3.3 5.5h6.5a6.4 6.4 0 0 0 3.3-5.5 6.7 6.7 0 0 0-6.6-6.5z" class="st2"/><linearGradient id="path12603_1_" x1="921.5" x2="925.6" y1="33.8" y2="28.7" gradientTransform="matrix(1 0 0 -1 -679.6 -206)" gradientUnits="userSpaceOnUse"><stop offset="0" style="stop-color:#fff"/><stop offset="1" style="stop-color:#fff;stop-opacity:0"/></linearGradient><path id="path12603_8_" d="M244-242.5a6.5 6.5 0 0 0-6.5 6.5c0 2.4 1.3 4.4 3.3 5.5h6.5a6.4 6.4 0 0 0 3.3-5.5c-.1-3.6-3-6.5-6.6-6.5z" style="opacity:.4778;fill:url(#path12603_1_);enable-background:new"/><linearGradient id="path12605_1_" x1="962.7" x2="965.8" y1="3.3" y2=".5" gradientTransform="matrix(.905 0 0 -.906 -637.3 -232)" gradientUnits="userSpaceOnUse"><stop offset="0" style="stop-color:#fff"/><stop offset="1" style="stop-color:#fff;stop-opacity:0"/></linearGradient><path id="path12605_8_" d="M238.5-233.5c0 1.7-1.3 3-3 3s-3-1.3-3-3 1.3-3 3-3 3 1.4 3 3z" style="opacity:.4778;fill:url(#path12605_1_);enable-background:new"/><path id="path12607_8_" d="M257.5-238.8c0 2.7-3.3 3.7-3.3 3.7s2.3-1.6 2.3-3.7h1z" class="st8"/><path id="path12609_8_" d="M252.5-234.5a4 4 0 0 1-4 4c-2.2 0-4-1.8-4-4s1.8-4 4-4a4 4 0 0 1 4 4z" class="st2"/><linearGradient id="path12611_1_" x1="875.6" x2="879.7" y1="88.8" y2="84.4" gradientTransform="matrix(1.206 0 0 -1.208 -812 -131.8)" gradientUnits="userSpaceOnUse"><stop offset="0" style="stop-color:#fff"/><stop offset="1" style="stop-color:#fff;stop-opacity:0"/></linearGradient><path id="path12611_8_" d="M252.5-234.5a4 4 0 0 1-4 4c-2.2 0-4-1.8-4-4s1.8-4 4-4a4 4 0 0 1 4 4z" style="opacity:.4778;fill:url(#path12611_1_);enable-background:new"/></g><g id="g12393_8_" transform="translate(57 4)"><path id="path12329_8_" d="M245-247a5 5 0 0 0-4.7 3.6 5 5 0 0 0-7.3 4.4c0 .6.2 1.1.3 1.6a4.5 4.5 0 0 0 2.2 8.4h19c2.5 0 4.5-2 4.5-4.5 0-1.7-1-3.1-2.3-3.9a5 5 0 0 0-4.7-6.6 6 6 0 0 0-2.3.6 5 5 0 0 0-4.7-3.6z" class="st0"/><linearGradient id="path12331_1_" x1="959.7" x2="973.7" y1="40.1" y2="31" gradientTransform="matrix(1 0 0 -1 -723.6 -202)" gradientUnits="userSpaceOnUse"><stop offset="0" style="stop-color:#fff"/><stop offset="1" style="stop-color:#fff;stop-opacity:0"/></linearGradient><path id="path12331_8_" d="M245-246.5c-2.2 0-3.7 1.3-4.4 3.8-.7-.3-1.5-.8-2.4-.8-2.7 0-4.8 1.9-4.8 4.5 0 .5.3 1.3.4 1.8-1.3.7-2.4 1.9-2.4 3.4 0 2.3 1.5 4.3 4.3 4.3H254c2.8 0 4.3-1.9 4.3-4.3 0-1.6-1.1-2.7-2.4-3.4a6 6 0 0 0 .5-1.8c0-2.6-2.1-4.6-4.8-4.6-.8 0-1.6.5-2.3.8-.5-2.3-2.1-3.7-4.3-3.7z" style="fill:url(#path12331_1_)"/><path id="path12333_8_" d="M248.5-242c0 1.9-1.6 3.5-3.5 3.5s-3.5-1.6-3.5-3.5 1.6-3.5 3.5-3.5 3.5 1.6 3.5 3.5z" class="st2"/><linearGradient id="path12335_1_" x1="959.6" x2="961.7" y1="55.2" y2="51.8" gradientTransform="matrix(1.056 0 0 -1.057 -769.3 -185.7)" gradientUnits="userSpaceOnUse"><stop offset="0" style="stop-color:#fff"/><stop offset="1" style="stop-color:#fff;stop-opacity:0"/></linearGradient><path id="path12335_8_" d="M248.5-242c0 1.9-1.6 3.5-3.5 3.5s-3.5-1.6-3.5-3.5 1.6-3.5 3.5-3.5 3.5 1.6 3.5 3.5z" style="opacity:.4778;fill:url(#path12335_1_);enable-background:new"/><path id="rect12337_8_" d="M235.5-239.5h20v9h-20z" class="st2"/><path id="path12339_8_" d="M238.5-233.5c0 1.7-1.3 3-3 3s-3-1.3-3-3 1.3-3 3-3 3 1.4 3 3z" class="st2"/><path id="path12341_8_" d="M255.5-239c0 1.9-1.6 3.5-3.5 3.5s-3.5-1.6-3.5-3.5 1.6-3.5 3.5-3.5 3.5 1.6 3.5 3.5z" class="st2"/><linearGradient id="path12343_1_" x1="958.6" x2="961.9" y1="56.7" y2="51.6" gradientTransform="matrix(1.056 0 0 -1.057 -762.3 -182.7)" gradientUnits="userSpaceOnUse"><stop offset="0" style="stop-color:#fff"/><stop offset="1" style="stop-color:#fff;stop-opacity:0"/></linearGradient><path id="path12343_8_" d="M255.5-239c0 1.9-1.6 3.5-3.5 3.5s-3.5-1.6-3.5-3.5 1.6-3.5 3.5-3.5 3.5 1.6 3.5 3.5z" style="opacity:.4778;fill:url(#path12343_1_);enable-background:new"/><path id="path12347_8_" d="M241.5-239c0 1.9-1.6 3.5-3.5 3.5s-3.5-1.6-3.5-3.5 1.6-3.5 3.5-3.5 3.5 1.6 3.5 3.5z" class="st2"/><linearGradient id="path12349_1_" x1="958.4" x2="961.9" y1="55.7" y2="52.2" gradientTransform="matrix(1.056 0 0 -1.057 -776.3 -182.7)" gradientUnits="userSpaceOnUse"><stop offset="0" style="stop-color:#fff"/><stop offset="1" style="stop-color:#fff;stop-opacity:0"/></linearGradient><path id="path12349_8_" d="M241.5-239c0 1.9-1.6 3.5-3.5 3.5s-3.5-1.6-3.5-3.5 1.6-3.5 3.5-3.5 3.5 1.6 3.5 3.5z" style="opacity:.4778;fill:url(#path12349_1_);enable-background:new"/><path id="path12351_8_" d="M244-242.5a6.5 6.5 0 0 0-6.5 6.5c0 2.4 1.3 4.3 3.3 5.5h6.5a6.4 6.4 0 0 0 3.3-5.5 6.7 6.7 0 0 0-6.6-6.5z" class="st2"/><linearGradient id="path12353_1_" x1="966.6" x2="970.6" y1="37.9" y2="32.7" gradientTransform="matrix(1 0 0 -1 -724.6 -202)" gradientUnits="userSpaceOnUse"><stop offset="0" style="stop-color:#fff"/><stop offset="1" style="stop-color:#fff;stop-opacity:0"/></linearGradient><path id="path12353_8_" d="M244-242.5a6.5 6.5 0 0 0-6.5 6.5c0 2.4 1.3 4.4 3.3 5.5h6.5a6.4 6.4 0 0 0 3.3-5.5c-.1-3.6-3-6.5-6.6-6.5z" style="opacity:.4778;fill:url(#path12353_1_);enable-background:new"/><linearGradient id="path12355_1_" x1="1007.8" x2="1010.9" y1="7.3" y2="4.5" gradientTransform="matrix(.905 0 0 -.906 -678 -228.4)" gradientUnits="userSpaceOnUse"><stop offset="0" style="stop-color:#fff"/><stop offset="1" style="stop-color:#fff;stop-opacity:0"/></linearGradient><path id="path12355_8_" d="M238.5-233.5c0 1.7-1.3 3-3 3s-3-1.3-3-3 1.3-3 3-3 3 1.4 3 3z" style="opacity:.4778;fill:url(#path12355_1_);enable-background:new"/><path id="path12357_8_" d="M257.5-238.8c0 2.7-3.3 3.7-3.3 3.7s2.3-1.6 2.3-3.7h1z" class="st8"/><path id="path12359_8_" d="M252.5-234.5c0 2.2-1.8 4-4 4s-4-1.8-4-4 1.8-4 4-4 4 1.8 4 4z" class="st2"/><linearGradient id="path12361_1_" x1="920.7" x2="924.8" y1="92.8" y2="88.4" gradientTransform="matrix(1.206 0 0 -1.208 -866.4 -126.9)" gradientUnits="userSpaceOnUse"><stop offset="0" style="stop-color:#fff"/><stop offset="1" style="stop-color:#fff;stop-opacity:0"/></linearGradient><path id="path12361_8_" d="M252.5-234.5c0 2.2-1.8 4-4 4s-4-1.8-4-4 1.8-4 4-4 4 1.8 4 4z" style="opacity:.4778;fill:url(#path12361_1_);enable-background:new"/></g></g><path d="M21.5 38a2 2 0 0 1-2 2h-8a2 2 0 0 1-2-2 2 2 0 0 0-2-2H4.3a2 2 0 0 1-2-2c0-1.1.9-2 2-2h8a2 2 0 0 1 2 2c0 1.1.9 2 2 2h3.2a2 2 0 0 1 2 2z" class="st17"/><linearGradient id="SVGID_1_" x1="3.3" x2="13.3" y1="240" y2="240" gradientTransform="translate(0 -206)" gradientUnits="userSpaceOnUse"><stop offset="0" style="stop-color:#fff"/><stop offset="1" style="stop-color:#fff;stop-opacity:0"/></linearGradient><path d="M12.3 35h-8c-.6 0-1-.4-1-1s.4-1 1-1h8c.6 0 1 .4 1 1 0 .5-.4 1-1 1z" style="opacity:.4778;fill:url(#SVGID_1_);enable-background:new"/><linearGradient id="SVGID_2_" x1="10.5" x2="20.5" y1="244" y2="244" gradientTransform="translate(0 -206)" gradientUnits="userSpaceOnUse"><stop offset="0" style="stop-color:#fff"/><stop offset="1" style="stop-color:#fff;stop-opacity:0"/></linearGradient><path d="M19.5 39h-8c-.6 0-1-.4-1-1s.4-1 1-1h8c.6 0 1 .4 1 1s-.4 1-1 1z" style="opacity:.4778;fill:url(#SVGID_2_);enable-background:new"/><path d="M44 40a2 2 0 0 1-2 2h-8a2 2 0 0 1-2-2 2 2 0 0 0-2-2h-3.1a2 2 0 0 1-2-2c0-1.1.9-2 2-2h8a2 2 0 0 1 2 2c0 1.1.9 2 2 2H42a2 2 0 0 1 2 2z" class="st17"/><linearGradient id="SVGID_3_" x1="25.8" x2="35.8" y1="242" y2="242" gradientTransform="translate(0 -206)" gradientUnits="userSpaceOnUse"><stop offset="0" style="stop-color:#fff"/><stop offset="1" style="stop-color:#fff;stop-opacity:0"/></linearGradient><path d="M34.8 37h-8c-.6 0-1-.4-1-1s.4-1 1-1h8c.6 0 1 .4 1 1s-.4 1-1 1z" style="opacity:.4778;fill:url(#SVGID_3_);enable-background:new"/><linearGradient id="SVGID_4_" x1="33" x2="43" y1="246" y2="246" gradientTransform="translate(0 -206)" gradientUnits="userSpaceOnUse"><stop offset="0" style="stop-color:#fff"/><stop offset="1" style="stop-color:#fff;stop-opacity:0"/></linearGradient><path d="M42.1 41h-8c-.6 0-1-.4-1-1s.4-1 1-1h8c.6 0 1 .4 1 1s-.5 1-1 1z" style="opacity:.4778;fill:url(#SVGID_4_);enable-background:new"/><path d="M38.5 29a2 2 0 0 1-2 2h-16a2 2 0 0 1-2-2 2 2 0 0 0-2-2H8.3a2 2 0 0 1-2-2c0-1.1.9-2 2-2h16a2 2 0 0 1 2 2c0 1.1.9 2 2 2h8.2a2 2 0 0 1 2 2z" class="st17"/><linearGradient id="SVGID_5_" x1="7.3" x2="25.3" y1="231" y2="231" gradientTransform="translate(0 -206)" gradientUnits="userSpaceOnUse"><stop offset="0" style="stop-color:#fff"/><stop offset="1" style="stop-color:#fff;stop-opacity:0"/></linearGradient><path d="M24.3 26h-16c-.6 0-1-.4-1-1s.4-1 1-1h16c.6 0 1 .4 1 1 0 .5-.4 1-1 1z" style="opacity:.4778;fill:url(#SVGID_5_);enable-background:new"/><linearGradient id="SVGID_6_" x1="19.3" x2="37.3" y1="235" y2="235" gradientTransform="translate(0 -206)" gradientUnits="userSpaceOnUse"><stop offset="0" style="stop-color:#fff"/><stop offset="1" style="stop-color:#fff;stop-opacity:0"/></linearGradient><path d="M36.3 30h-16c-.6 0-1-.4-1-1s.4-1 1-1h16c.6 0 1 .4 1 1 0 .5-.4 1-1 1z" style="opacity:.4778;fill:url(#SVGID_6_);enable-background:new"/></g></svg>