<svg xmlns="http://www.w3.org/2000/svg" xml:space="preserve" id="svg1306" x="0" y="0" style="enable-background:new 0 0 45 45" version="1.1" viewBox="0 0 45 45"><style>.st2,.st8{fill:#c4c5c2}.st8{stroke:#888a85;stroke-miterlimit:2}.st15{fill-rule:evenodd;clip-rule:evenodd;fill:#888a85}.st24{fill:#fff;stroke:#729fcf;stroke-miterlimit:10}</style><g id="layer1_24_"><g id="g9947_1_" transform="translate(-340 298)"><path id="path8718_1_" d="M363-294.3a7.4 7.4 0 0 0-6.4 3.8c-.9-.5-2-.8-3.1-.8-3.9 0-7 3.1-7 7s3.1 7 7 7c2.4 0 4.4-1.3 5.7-3.2 1.1.7 2.4 1.2 3.8 1.2.9 0 1.8-.2 2.6-.5a7 7 0 0 0 2 2.2l-.1.4c0 3.9 3.1 7 7 7s7-3.1 7-7c0-2.4-1.3-4.4-3.1-5.6l.1-.4a7 7 0 0 0-7-7c-.6 0-1.2.2-1.8.4a7.2 7.2 0 0 0-6.7-4.5z" style="fill:#888a85"/><linearGradient id="path8720_2_" x1="1247.1" x2="1297.5" y1="-67.7" y2="-84.6" gradientTransform="matrix(1 0 0 -1 -898.1 -356)" gradientUnits="userSpaceOnUse"><stop offset="0" style="stop-color:#fff"/><stop offset="1" style="stop-color:#fff;stop-opacity:0"/></linearGradient><path id="path8720_1_" d="M363-293.3a6.7 6.7 0 0 0-6.1 4.2c-1-.7-2.1-1.2-3.4-1.2-3.3 0-6 2.7-6 6s2.7 6 6 6a6 6 0 0 0 5.4-3.5c1.1.9 2.5 1.5 4.1 1.5 1.1 0 2-.3 2.9-.8.4 1 1.1 1.8 1.9 2.4-.2.6-.4 1.2-.4 1.8a6.5 6.5 0 1 0 13 0c0-2.4-1.3-4.3-3.2-5.5l.2-1a6 6 0 0 0-8.4-5.5 6.2 6.2 0 0 0-6-4.4z" style="fill:url(#path8720_2_)"/><path id="path8722_1_" d="M380.5-276.8a6.5 6.5 0 1 1-13 0 6.5 6.5 0 1 1 13 0z" class="st2"/><g id="g8724_1_" transform="translate(122 102)"><path id="path8726_1_" d="M246.5-388.8c0 3-2.5 5.5-5.5 5.5s-5.5-2.5-5.5-5.5 2.5-5.5 5.5-5.5 5.5 2.5 5.5 5.5z" class="st2"/><linearGradient id="path8728_2_" x1="933.4" x2="939.2" y1="-210.4" y2="-215.3" gradientTransform="matrix(.883 0 0 -.883 -586.6 -577.7)" gradientUnits="userSpaceOnUse"><stop offset="0" style="stop-color:#fff"/><stop offset="1" style="stop-color:#fff;stop-opacity:0"/></linearGradient><path id="path8728_1_" d="M246.5-388.8c0 3-2.5 5.5-5.5 5.5s-5.5-2.5-5.5-5.5 2.5-5.5 5.5-5.5 5.5 2.5 5.5 5.5z" style="fill:url(#path8728_2_)"/></g><g id="g8730_1_" transform="translate(122 102)"><path id="path8732_1_" d="M254.5-384.8c0 3-2.5 5.5-5.5 5.5s-5.5-2.5-5.5-5.5 2.5-5.5 5.5-5.5 5.5 2.5 5.5 5.5z" class="st2"/><linearGradient id="path8734_2_" x1="928.8" x2="934.7" y1="-201.2" y2="-207.2" gradientTransform="matrix(.912 0 0 -.912 -602.3 -572.8)" gradientUnits="userSpaceOnUse"><stop offset="0" style="stop-color:#fff"/><stop offset="1" style="stop-color:#fff;stop-opacity:0"/></linearGradient><path id="path8734_1_" d="M254.5-384.8c0 3-2.5 5.5-5.5 5.5s-5.5-2.5-5.5-5.5 2.5-5.5 5.5-5.5 5.5 2.5 5.5 5.5z" style="fill:url(#path8734_2_)"/></g><g id="g8736_1_" transform="translate(122 102)"><path id="path8738_1_" d="M236.5-386.3c0 2.8-2.2 5-5 5s-5-2.2-5-5 2.2-5 5-5 5 2.2 5 5z" class="st2"/><linearGradient id="path8740_2_" x1="844.5" x2="848.9" y1="-132.6" y2="-136" gradientTransform="matrix(1.143 0 0 -1.143 -736.8 -540.3)" gradientUnits="userSpaceOnUse"><stop offset="0" style="stop-color:#fff"/><stop offset="1" style="stop-color:#fff;stop-opacity:0"/></linearGradient><path id="path8740_1_" d="M236.5-386.3c0 2.8-2.2 5-5 5s-5-2.2-5-5 2.2-5 5-5 5 2.2 5 5z" style="fill:url(#path8740_2_)"/></g><g id="g8742_1_" transform="translate(122 102)"><path id="path8744_1_" d="M247.5-382.3c0 3.9-3.1 7-7 7s-7-3.1-7-7 3.1-7 7-7 7 3.1 7 7z" class="st2"/><linearGradient id="path8746_2_" x1="878.2" x2="885.8" y1="-162.9" y2="-168.7" gradientTransform="matrix(1.039 0 0 -1.039 -676.5 -555.1)" gradientUnits="userSpaceOnUse"><stop offset="0" style="stop-color:#fff"/><stop offset="1" style="stop-color:#fff;stop-opacity:0"/></linearGradient><path id="path8746_1_" d="M247.5-382.3c0 3.9-3.1 7-7 7s-7-3.1-7-7 3.1-7 7-7 7 3.1 7 7z" style="fill:url(#path8746_2_)"/></g><g id="g8748_1_" transform="matrix(.935 0 0 .935 499.8 -187.6)"><path id="path8750_1_" d="M-154.8-96.5c0 3-2.4 5.4-5.4 5.4s-5.4-2.4-5.4-5.4 2.4-5.4 5.4-5.4 5.4 2.4 5.4 5.4z" class="st2"/><linearGradient id="path8752_2_" x1="-864.7" x2="-861.5" y1="-66.7" y2="-70.6" gradientTransform="matrix(1.42 0 0 -1.42 1064.3 -196)" gradientUnits="userSpaceOnUse"><stop offset="0" style="stop-color:#fff"/><stop offset="1" style="stop-color:#fff;stop-opacity:0"/></linearGradient><path id="path8752_1_" d="M-154.7-96.5c0 3-2.4 5.4-5.4 5.4s-5.4-2.4-5.4-5.4 2.4-5.4 5.4-5.4a5.4 5.4 0 0 1 5.4 5.4z" style="fill:url(#path8752_2_)"/></g><g id="g8798_1_" transform="translate(91 162)"><path id="path8800_1_" d="M279-443.8a5 5 0 0 0-4.7 3.6 5 5 0 0 0-7.3 4.4c0 .6.2 1.1.3 1.6a4.5 4.5 0 0 0 2.2 8.4h19c2.5 0 4.5-2 4.5-4.5 0-1.7-1-3.1-2.3-3.9a5 5 0 0 0-4.7-6.6 6 6 0 0 0-2.3.6 5 5 0 0 0-4.7-3.6z" class="st8"/><linearGradient id="path8802_2_" x1="1016.3" x2="1030.3" y1="-181.2" y2="-190.3" gradientTransform="matrix(1 0 0 -1 -747 -620)" gradientUnits="userSpaceOnUse"><stop offset="0" style="stop-color:#fff"/><stop offset="1" style="stop-color:#fff;stop-opacity:0"/></linearGradient><path id="path8802_1_" d="M279-443.3c-2.2 0-3.7 1.3-4.4 3.8-.7-.3-1.5-.8-2.4-.8-2.7 0-4.8 1.9-4.8 4.5 0 .5.3 1.3.4 1.8-1.3.7-2.4 1.9-2.4 3.4 0 2.3 1.5 4.3 4.3 4.3H288c2.8 0 4.3-1.9 4.3-4.3 0-1.6-1.1-2.7-2.4-3.4a6 6 0 0 0 .5-1.8c0-2.6-2.1-4.6-4.8-4.6-.8 0-1.6.5-2.3.8-.5-2.3-2.1-3.7-4.3-3.7z" style="fill:url(#path8802_2_)"/><g id="g8804_1_"><path id="path8806_1_" d="M282.5-438.8c0 1.9-1.6 3.5-3.5 3.5s-3.5-1.6-3.5-3.5 1.6-3.5 3.5-3.5 3.5 1.6 3.5 3.5z" class="st2"/><linearGradient id="path8808_2_" x1="1016.2" x2="1018.3" y1="-165.5" y2="-168.9" gradientTransform="matrix(1.057 0 0 -1.057 -796 -615.6)" gradientUnits="userSpaceOnUse"><stop offset="0" style="stop-color:#fff"/><stop offset="1" style="stop-color:#fff;stop-opacity:0"/></linearGradient><path id="path8808_1_" d="M282.5-438.8c0 1.9-1.6 3.5-3.5 3.5s-3.5-1.6-3.5-3.5 1.6-3.5 3.5-3.5 3.5 1.6 3.5 3.5z" style="fill:url(#path8808_2_)"/></g><path id="rect8810_1_" d="M269.5-436.3h20v9h-20z" class="st2"/><path id="path8812_1_" d="M272.5-430.3c0 1.7-1.3 3-3 3s-3-1.3-3-3 1.3-3 3-3 3 1.3 3 3z" class="st2"/><g id="g8814_1_"><path id="path8816_1_" d="M289.5-435.8c0 1.9-1.6 3.5-3.5 3.5s-3.5-1.6-3.5-3.5 1.6-3.5 3.5-3.5 3.5 1.6 3.5 3.5z" class="st2"/><linearGradient id="path8818_2_" x1="1015.1" x2="1018.5" y1="-164" y2="-169.1" gradientTransform="matrix(1.057 0 0 -1.057 -789 -612.6)" gradientUnits="userSpaceOnUse"><stop offset="0" style="stop-color:#fff"/><stop offset="1" style="stop-color:#fff;stop-opacity:0"/></linearGradient><path id="path8818_1_" d="M289.5-435.8c0 1.9-1.6 3.5-3.5 3.5s-3.5-1.6-3.5-3.5 1.6-3.5 3.5-3.5 3.5 1.6 3.5 3.5z" style="fill:url(#path8818_2_)"/></g><g id="g8820_1_"><path id="path8822_1_" d="M275.5-435.8c0 1.9-1.6 3.5-3.5 3.5s-3.5-1.6-3.5-3.5 1.6-3.5 3.5-3.5 3.5 1.6 3.5 3.5z" class="st2"/><linearGradient id="path8824_2_" x1="1015" x2="1018.5" y1="-165" y2="-168.5" gradientTransform="matrix(1.057 0 0 -1.057 -803 -612.6)" gradientUnits="userSpaceOnUse"><stop offset="0" style="stop-color:#fff"/><stop offset="1" style="stop-color:#fff;stop-opacity:0"/></linearGradient><path id="path8824_1_" d="M275.5-435.8c0 1.9-1.6 3.5-3.5 3.5s-3.5-1.6-3.5-3.5 1.6-3.5 3.5-3.5 3.5 1.6 3.5 3.5z" style="fill:url(#path8824_2_)"/></g><g id="g8826_1_" transform="translate(-1)"><path id="path8828_1_" d="M279-439.3a6.5 6.5 0 0 0-6.5 6.5c0 2.4 1.3 4.3 3.3 5.5h6.5a6.4 6.4 0 0 0 3.3-5.5 6.7 6.7 0 0 0-6.6-6.5z" class="st2"/><linearGradient id="path8830_2_" x1="1026.1" x2="1030.2" y1="-183.4" y2="-188.6" gradientTransform="matrix(1 0 0 -1 -750 -620)" gradientUnits="userSpaceOnUse"><stop offset="0" style="stop-color:#fff"/><stop offset="1" style="stop-color:#fff;stop-opacity:0"/></linearGradient><path id="path8830_1_" d="M279-439.3a6.5 6.5 0 0 0-6.5 6.5c0 2.4 1.3 4.4 3.3 5.5h6.5a6.4 6.4 0 0 0 3.3-5.5c-.1-3.6-3-6.5-6.6-6.5z" style="fill:url(#path8830_2_)"/></g><linearGradient id="path8832_2_" x1="1064.3" x2="1067.4" y1="-215.1" y2="-217.8" gradientTransform="matrix(.906 0 0 -.906 -696.1 -626.5)" gradientUnits="userSpaceOnUse"><stop offset="0" style="stop-color:#fff"/><stop offset="1" style="stop-color:#fff;stop-opacity:0"/></linearGradient><path id="path8832_1_" d="M272.5-430.3c0 1.7-1.3 3-3 3s-3-1.3-3-3 1.3-3 3-3 3 1.3 3 3z" style="fill:url(#path8832_2_)"/><path id="path8834_1_" d="M291.5-435.6c0 2.7-3.3 3.7-3.3 3.7s2.3-1.6 2.3-3.7h1z" class="st15"/><g id="g8836_1_" transform="matrix(1.143 0 0 1.143 -28.6 67)"><path id="path8838_1_" d="M275.7-436c0 1.9-1.6 3.5-3.5 3.5s-3.5-1.6-3.5-3.5 1.6-3.5 3.5-3.5 3.5 1.6 3.5 3.5z" class="st2"/><linearGradient id="path8840_2_" x1="764.3" x2="768.4" y1="-171" y2="-175.4" gradientTransform="matrix(1.577 0 0 -1.577 -936.8 -709.7)" gradientUnits="userSpaceOnUse"><stop offset="0" style="stop-color:#fff"/><stop offset="1" style="stop-color:#fff;stop-opacity:0"/></linearGradient><path id="path8840_1_" d="M275.7-436c0 1.9-1.6 3.5-3.5 3.5s-3.5-1.6-3.5-3.5 1.6-3.5 3.5-3.5 3.5 1.6 3.5 3.5z" style="fill:url(#path8840_2_)"/></g></g><g id="g8754_1_" transform="translate(76 158)"><path id="path8756_1_" d="M279-443.8a5 5 0 0 0-4.7 3.6 5 5 0 0 0-7.3 4.4c0 .6.2 1.1.3 1.6a4.5 4.5 0 0 0 2.2 8.4h19c2.5 0 4.5-2 4.5-4.5 0-1.7-1-3.1-2.3-3.9a5 5 0 0 0-4.7-6.6 6 6 0 0 0-2.3.6 5 5 0 0 0-4.7-3.6z" class="st8"/><linearGradient id="path8758_2_" x1="1061.3" x2="1075.3" y1="-177.2" y2="-186.3" gradientTransform="matrix(1 0 0 -1 -792 -616)" gradientUnits="userSpaceOnUse"><stop offset="0" style="stop-color:#fff"/><stop offset="1" style="stop-color:#fff;stop-opacity:0"/></linearGradient><path id="path8758_1_" d="M279-443.3c-2.2 0-3.7 1.3-4.4 3.8-.7-.3-1.5-.8-2.4-.8-2.7 0-4.8 1.9-4.8 4.5 0 .5.3 1.3.4 1.8-1.3.7-2.4 1.9-2.4 3.4 0 2.3 1.5 4.3 4.3 4.3H288c2.8 0 4.3-1.9 4.3-4.3 0-1.6-1.1-2.7-2.4-3.4a6 6 0 0 0 .5-1.8c0-2.6-2.1-4.6-4.8-4.6-.8 0-1.6.5-2.3.8-.5-2.3-2.1-3.7-4.3-3.7z" style="fill:url(#path8758_2_)"/><g id="g8760_1_"><path id="path8762_1_" d="M282.5-438.8c0 1.9-1.6 3.5-3.5 3.5s-3.5-1.6-3.5-3.5 1.6-3.5 3.5-3.5 3.5 1.6 3.5 3.5z" class="st2"/><linearGradient id="path8764_2_" x1="1061.2" x2="1063.3" y1="-161.5" y2="-164.9" gradientTransform="matrix(1.057 0 0 -1.057 -843.5 -611.4)" gradientUnits="userSpaceOnUse"><stop offset="0" style="stop-color:#fff"/><stop offset="1" style="stop-color:#fff;stop-opacity:0"/></linearGradient><path id="path8764_1_" d="M282.5-438.8c0 1.9-1.6 3.5-3.5 3.5s-3.5-1.6-3.5-3.5 1.6-3.5 3.5-3.5 3.5 1.6 3.5 3.5z" style="fill:url(#path8764_2_)"/></g><path id="rect8766_1_" d="M269.5-436.3h20v9h-20z" class="st2"/><path id="path8768_1_" d="M272.5-430.3c0 1.7-1.3 3-3 3s-3-1.3-3-3 1.3-3 3-3 3 1.3 3 3z" class="st2"/><g id="g8770_1_"><path id="path8772_1_" d="M289.5-435.8c0 1.9-1.6 3.5-3.5 3.5s-3.5-1.6-3.5-3.5 1.6-3.5 3.5-3.5 3.5 1.6 3.5 3.5z" class="st2"/><linearGradient id="path8774_2_" x1="1060.1" x2="1063.5" y1="-160" y2="-165.1" gradientTransform="matrix(1.057 0 0 -1.057 -836.5 -608.4)" gradientUnits="userSpaceOnUse"><stop offset="0" style="stop-color:#fff"/><stop offset="1" style="stop-color:#fff;stop-opacity:0"/></linearGradient><path id="path8774_1_" d="M289.5-435.8c0 1.9-1.6 3.5-3.5 3.5s-3.5-1.6-3.5-3.5 1.6-3.5 3.5-3.5 3.5 1.6 3.5 3.5z" style="fill:url(#path8774_2_)"/></g><g id="g8776_1_"><path id="path8778_1_" d="M275.5-435.8c0 1.9-1.6 3.5-3.5 3.5s-3.5-1.6-3.5-3.5 1.6-3.5 3.5-3.5 3.5 1.6 3.5 3.5z" class="st2"/><linearGradient id="path8780_2_" x1="1060" x2="1063.5" y1="-161" y2="-164.5" gradientTransform="matrix(1.057 0 0 -1.057 -850.5 -608.4)" gradientUnits="userSpaceOnUse"><stop offset="0" style="stop-color:#fff"/><stop offset="1" style="stop-color:#fff;stop-opacity:0"/></linearGradient><path id="path8780_1_" d="M275.5-435.8c0 1.9-1.6 3.5-3.5 3.5s-3.5-1.6-3.5-3.5 1.6-3.5 3.5-3.5 3.5 1.6 3.5 3.5z" style="fill:url(#path8780_2_)"/></g><g id="g8782_1_" transform="translate(-1)"><path id="path8784_1_" d="M279-439.3a6.5 6.5 0 0 0-6.5 6.5c0 2.4 1.3 4.3 3.3 5.5h6.5a6.4 6.4 0 0 0 3.3-5.5 6.7 6.7 0 0 0-6.6-6.5z" class="st2"/><linearGradient id="path8786_2_" x1="1071.1" x2="1075.2" y1="-179.4" y2="-184.6" gradientTransform="matrix(1 0 0 -1 -795 -616)" gradientUnits="userSpaceOnUse"><stop offset="0" style="stop-color:#fff"/><stop offset="1" style="stop-color:#fff;stop-opacity:0"/></linearGradient><path id="path8786_1_" d="M279-439.3a6.5 6.5 0 0 0-6.5 6.5c0 2.4 1.3 4.4 3.3 5.5h6.5a6.4 6.4 0 0 0 3.3-5.5c-.1-3.6-3-6.5-6.6-6.5z" style="fill:url(#path8786_2_)"/></g><linearGradient id="path8788_2_" x1="1109.3" x2="1112.4" y1="-211.1" y2="-213.8" gradientTransform="matrix(.906 0 0 -.906 -736.9 -623)" gradientUnits="userSpaceOnUse"><stop offset="0" style="stop-color:#fff"/><stop offset="1" style="stop-color:#fff;stop-opacity:0"/></linearGradient><path id="path8788_1_" d="M272.5-430.3c0 1.7-1.3 3-3 3s-3-1.3-3-3 1.3-3 3-3 3 1.3 3 3z" style="fill:url(#path8788_2_)"/><path id="path8790_1_" d="M291.5-435.6c0 2.7-3.3 3.7-3.3 3.7s2.3-1.6 2.3-3.7h1z" class="st15"/><g id="g8792_1_" transform="matrix(1.143 0 0 1.143 -28.6 67)"><path id="path8794_1_" d="M275.7-436c0 1.9-1.6 3.5-3.5 3.5s-3.5-1.6-3.5-3.5 1.6-3.5 3.5-3.5 3.5 1.6 3.5 3.5z" class="st2"/><linearGradient id="path8796_2_" x1="798.9" x2="803" y1="-167.9" y2="-172.3" gradientTransform="matrix(1.577 0 0 -1.577 -991.5 -704.8)" gradientUnits="userSpaceOnUse"><stop offset="0" style="stop-color:#fff"/><stop offset="1" style="stop-color:#fff;stop-opacity:0"/></linearGradient><path id="path8796_1_" d="M275.7-436c0 1.9-1.6 3.5-3.5 3.5s-3.5-1.6-3.5-3.5 1.6-3.5 3.5-3.5 3.5 1.6 3.5 3.5z" style="fill:url(#path8796_2_)"/></g></g></g><g id="g12157_1_" transform="translate(-163 222)"><path id="path12159_1_" d="M174-190.3c0 .8-.7 1.5-1.5 1.5s-1.5-.7-1.5-1.5.7-1.5 1.5-1.5 1.5.7 1.5 1.5z" class="st24"/><path id="path12159_4_" d="M186-184.3c0 .8-.7 1.5-1.5 1.5s-1.5-.7-1.5-1.5.7-1.5 1.5-1.5 1.5.7 1.5 1.5z" class="st24"/><path id="path12163_1_" d="M195-188.3c0 .8-.7 1.5-1.5 1.5s-1.5-.7-1.5-1.5.7-1.5 1.5-1.5 1.5.7 1.5 1.5z" style="fill:#fff;stroke:#729fcf;stroke-width:1.4748;stroke-miterlimit:1"/><path id="path12165_1_" d="M201-183.3c0 .8-.7 1.5-1.5 1.5s-1.5-.7-1.5-1.5.7-1.5 1.5-1.5 1.5.7 1.5 1.5z" style="fill:#fff;stroke:#729fcf;stroke-width:1.4678;stroke-miterlimit:1"/><path id="path12171_1_" d="M177-183.3c0 .8-.7 1.5-1.5 1.5s-1.5-.7-1.5-1.5.7-1.5 1.5-1.5 1.5.7 1.5 1.5z" style="fill:#fff;stroke:#729fcf;stroke-width:1.4641;stroke-miterlimit:1"/></g></g></svg>