<svg xmlns="http://www.w3.org/2000/svg" xml:space="preserve" id="svg1306" x="0" y="0" style="enable-background:new 0 0 45 45" version="1.1" viewBox="0 0 45 45"><style>.st2,.st8{fill:#c4c5c2}.st8{stroke:#888a85;stroke-miterlimit:2}.st15{fill-rule:evenodd;clip-rule:evenodd;fill:#888a85}.st24{fill:#729fcf;stroke:#204a87;stroke-width:1.0746;stroke-miterlimit:2}</style><g id="layer1_16_"><g id="g10011_1_" transform="translate(-287 298)"><path id="path8267_1_" d="M310-294.8a7.4 7.4 0 0 0-6.4 3.8c-.9-.5-2-.8-3.1-.8-3.9 0-7 3.1-7 7s3.1 7 7 7c2.4 0 4.4-1.3 5.7-3.2 1.1.7 2.4 1.2 3.8 1.2.9 0 1.8-.2 2.6-.5a7 7 0 0 0 2 2.2l-.1.4c0 3.9 3.1 7 7 7s7-3.1 7-7c0-2.4-1.3-4.4-3.1-5.6l.1-.4a7 7 0 0 0-7-7c-.6 0-1.2.2-1.8.4a7.2 7.2 0 0 0-6.7-4.5z" style="fill:#888a85"/><linearGradient id="path8291_2_" x1="1087.9" x2="1138.3" y1="-67.1" y2="-84.1" gradientTransform="matrix(1 0 0 -1 -792 -356)" gradientUnits="userSpaceOnUse"><stop offset="0" style="stop-color:#fff"/><stop offset="1" style="stop-color:#fff;stop-opacity:0"/></linearGradient><path id="path8291_1_" d="M310-293.8a6.7 6.7 0 0 0-6.1 4.2c-1-.7-2.1-1.2-3.4-1.2-3.3 0-6 2.7-6 6s2.7 6 6 6a6 6 0 0 0 5.4-3.5c1.1.9 2.5 1.5 4.1 1.5 1.1 0 2-.3 2.9-.8.4 1 1.1 1.8 1.9 2.4-.2.6-.4 1.2-.4 1.8a6.5 6.5 0 1 0 13 0c0-2.4-1.3-4.3-3.2-5.5l.2-1a6 6 0 0 0-8.4-5.5 6.3 6.3 0 0 0-6-4.4z" style="fill:url(#path8291_2_)"/><path id="path8414_1_" d="M327.5-277.3a6.5 6.5 0 1 1-13 0 6.5 6.5 0 1 1 13 0z" class="st2"/><g id="g8349_1_" transform="translate(69 102)"><path id="path8327_1_" d="M246.5-389.3c0 3-2.5 5.5-5.5 5.5s-5.5-2.5-5.5-5.5 2.5-5.5 5.5-5.5 5.5 2.5 5.5 5.5z" class="st2"/><linearGradient id="path8329_2_" x1="933.3" x2="939.1" y1="-209.8" y2="-214.7" gradientTransform="matrix(.883 0 0 -.883 -586.5 -577.7)" gradientUnits="userSpaceOnUse"><stop offset="0" style="stop-color:#fff"/><stop offset="1" style="stop-color:#fff;stop-opacity:0"/></linearGradient><path id="path8329_1_" d="M246.5-389.3c0 3-2.5 5.5-5.5 5.5s-5.5-2.5-5.5-5.5 2.5-5.5 5.5-5.5 5.5 2.5 5.5 5.5z" style="fill:url(#path8329_2_)"/></g><g id="g8389_1_" transform="translate(69 102)"><path id="path8368_1_" d="M254.5-385.3c0 3-2.5 5.5-5.5 5.5s-5.5-2.5-5.5-5.5 2.5-5.5 5.5-5.5 5.5 2.5 5.5 5.5z" class="st2"/><linearGradient id="path8370_2_" x1="928.7" x2="934.6" y1="-200.7" y2="-206.6" gradientTransform="matrix(.912 0 0 -.912 -602.3 -572.8)" gradientUnits="userSpaceOnUse"><stop offset="0" style="stop-color:#fff"/><stop offset="1" style="stop-color:#fff;stop-opacity:0"/></linearGradient><path id="path8370_1_" d="M254.5-385.3c0 3-2.5 5.5-5.5 5.5s-5.5-2.5-5.5-5.5 2.5-5.5 5.5-5.5 5.5 2.5 5.5 5.5z" style="fill:url(#path8370_2_)"/></g><g id="g8323_1_" transform="translate(69 102)"><path id="path8311_1_" d="M236.5-386.8c0 2.8-2.2 5-5 5s-5-2.2-5-5 2.2-5 5-5 5 2.2 5 5z" class="st2"/><linearGradient id="path8313_2_" x1="844.4" x2="848.8" y1="-132.1" y2="-135.6" gradientTransform="matrix(1.143 0 0 -1.143 -736.7 -540.3)" gradientUnits="userSpaceOnUse"><stop offset="0" style="stop-color:#fff"/><stop offset="1" style="stop-color:#fff;stop-opacity:0"/></linearGradient><path id="path8313_1_" d="M236.5-386.8c0 2.8-2.2 5-5 5s-5-2.2-5-5 2.2-5 5-5 5 2.2 5 5z" style="fill:url(#path8313_2_)"/></g><g id="g8406_1_" transform="translate(69 102)"><path id="path8393_1_" d="M247.5-382.8c0 3.9-3.1 7-7 7s-7-3.1-7-7 3.1-7 7-7 7 3.1 7 7z" class="st2"/><linearGradient id="path8395_2_" x1="878.1" x2="885.7" y1="-162.4" y2="-168.2" gradientTransform="matrix(1.039 0 0 -1.039 -676.4 -555.1)" gradientUnits="userSpaceOnUse"><stop offset="0" style="stop-color:#fff"/><stop offset="1" style="stop-color:#fff;stop-opacity:0"/></linearGradient><path id="path8395_1_" d="M247.5-382.8c0 3.9-3.1 7-7 7s-7-3.1-7-7 3.1-7 7-7 7 3.1 7 7z" style="fill:url(#path8395_2_)"/></g><g id="g4518_1_" transform="matrix(.935 0 0 .935 446.8 -187.6)"><path id="path4520_1_" d="M-154.8-97c0 3-2.4 5.4-5.4 5.4s-5.4-2.4-5.4-5.4 2.4-5.4 5.4-5.4 5.4 2.4 5.4 5.4z" class="st2"/><linearGradient id="path4522_2_" x1="-864.8" x2="-861.6" y1="-66.3" y2="-70.3" gradientTransform="matrix(1.42 0 0 -1.42 1064.4 -196)" gradientUnits="userSpaceOnUse"><stop offset="0" style="stop-color:#fff"/><stop offset="1" style="stop-color:#fff;stop-opacity:0"/></linearGradient><path id="path4522_1_" d="M-154.7-97c0 3-2.4 5.4-5.4 5.4s-5.4-2.4-5.4-5.4 2.4-5.4 5.4-5.4a5.4 5.4 0 0 1 5.4 5.4z" style="fill:url(#path4522_2_)"/></g><g id="g7794_1_" transform="translate(38 162)"><path id="path7796_1_" d="M279-444.3a5 5 0 0 0-4.7 3.6 5 5 0 0 0-7.3 4.4c0 .6.2 1.1.3 1.6a4.5 4.5 0 0 0 2.2 8.4h19c2.5 0 4.5-2 4.5-4.5 0-1.7-1-3.1-2.3-3.9a5 5 0 0 0-4.7-6.6 6 6 0 0 0-2.3.6 5 5 0 0 0-4.7-3.6z" class="st8"/><linearGradient id="path7798_2_" x1="1016.2" x2="1030.2" y1="-180.7" y2="-189.8" gradientTransform="matrix(1 0 0 -1 -747 -620)" gradientUnits="userSpaceOnUse"><stop offset="0" style="stop-color:#fff"/><stop offset="1" style="stop-color:#fff;stop-opacity:0"/></linearGradient><path id="path7798_1_" d="M279-443.8c-2.2 0-3.7 1.3-4.4 3.8-.7-.3-1.5-.8-2.4-.8-2.7 0-4.8 1.9-4.8 4.5 0 .5.3 1.3.4 1.8-1.3.7-2.4 1.9-2.4 3.4 0 2.3 1.5 4.3 4.3 4.3H288c2.8 0 4.3-1.9 4.3-4.3 0-1.6-1.1-2.7-2.4-3.4a6 6 0 0 0 .5-1.8c0-2.6-2.1-4.6-4.8-4.6-.8 0-1.6.5-2.3.8-.5-2.3-2.1-3.7-4.3-3.7z" style="fill:url(#path7798_2_)"/><g id="g7800_1_"><path id="path7802_1_" d="M282.5-439.3c0 1.9-1.6 3.5-3.5 3.5s-3.5-1.6-3.5-3.5 1.6-3.5 3.5-3.5 3.5 1.6 3.5 3.5z" class="st2"/><linearGradient id="path7804_2_" x1="1016.1" x2="1018.2" y1="-165" y2="-168.4" gradientTransform="matrix(1.057 0 0 -1.057 -795.9 -615.6)" gradientUnits="userSpaceOnUse"><stop offset="0" style="stop-color:#fff"/><stop offset="1" style="stop-color:#fff;stop-opacity:0"/></linearGradient><path id="path7804_1_" d="M282.5-439.3c0 1.9-1.6 3.5-3.5 3.5s-3.5-1.6-3.5-3.5 1.6-3.5 3.5-3.5 3.5 1.6 3.5 3.5z" style="fill:url(#path7804_2_)"/></g><path id="rect7806_1_" d="M269.5-436.8h20v9h-20z" class="st2"/><path id="path7808_1_" d="M272.5-430.8c0 1.7-1.3 3-3 3s-3-1.3-3-3 1.3-3 3-3 3 1.3 3 3z" class="st2"/><g id="g7810_1_"><path id="path7812_1_" d="M289.5-436.3c0 1.9-1.6 3.5-3.5 3.5s-3.5-1.6-3.5-3.5 1.6-3.5 3.5-3.5 3.5 1.6 3.5 3.5z" class="st2"/><linearGradient id="path7814_2_" x1="1015" x2="1018.4" y1="-163.5" y2="-168.6" gradientTransform="matrix(1.057 0 0 -1.057 -788.9 -612.6)" gradientUnits="userSpaceOnUse"><stop offset="0" style="stop-color:#fff"/><stop offset="1" style="stop-color:#fff;stop-opacity:0"/></linearGradient><path id="path7814_1_" d="M289.5-436.3c0 1.9-1.6 3.5-3.5 3.5s-3.5-1.6-3.5-3.5 1.6-3.5 3.5-3.5 3.5 1.6 3.5 3.5z" style="fill:url(#path7814_2_)"/></g><g id="g7816_1_"><path id="path7818_1_" d="M275.5-436.3c0 1.9-1.6 3.5-3.5 3.5s-3.5-1.6-3.5-3.5 1.6-3.5 3.5-3.5 3.5 1.6 3.5 3.5z" class="st2"/><linearGradient id="path7820_2_" x1="1014.9" x2="1018.4" y1="-164.5" y2="-168" gradientTransform="matrix(1.057 0 0 -1.057 -802.9 -612.6)" gradientUnits="userSpaceOnUse"><stop offset="0" style="stop-color:#fff"/><stop offset="1" style="stop-color:#fff;stop-opacity:0"/></linearGradient><path id="path7820_1_" d="M275.5-436.3c0 1.9-1.6 3.5-3.5 3.5s-3.5-1.6-3.5-3.5 1.6-3.5 3.5-3.5 3.5 1.6 3.5 3.5z" style="fill:url(#path7820_2_)"/></g><g id="g7822_1_" transform="translate(-1)"><path id="path7824_1_" d="M279-439.8a6.5 6.5 0 0 0-6.5 6.5c0 2.4 1.3 4.3 3.3 5.5h6.5a6.4 6.4 0 0 0 3.3-5.5 6.7 6.7 0 0 0-6.6-6.5z" class="st2"/><linearGradient id="path7826_2_" x1="1026" x2="1030.1" y1="-182.9" y2="-188.1" gradientTransform="matrix(1 0 0 -1 -750 -620)" gradientUnits="userSpaceOnUse"><stop offset="0" style="stop-color:#fff"/><stop offset="1" style="stop-color:#fff;stop-opacity:0"/></linearGradient><path id="path7826_1_" d="M279-439.8a6.5 6.5 0 0 0-6.5 6.5c0 2.4 1.3 4.4 3.3 5.5h6.5a6.4 6.4 0 0 0 3.3-5.5c-.1-3.6-3-6.5-6.6-6.5z" style="fill:url(#path7826_2_)"/></g><linearGradient id="path7828_2_" x1="1064.2" x2="1067.3" y1="-214.5" y2="-217.3" gradientTransform="matrix(.906 0 0 -.906 -696 -626.5)" gradientUnits="userSpaceOnUse"><stop offset="0" style="stop-color:#fff"/><stop offset="1" style="stop-color:#fff;stop-opacity:0"/></linearGradient><path id="path7828_1_" d="M272.5-430.8c0 1.7-1.3 3-3 3s-3-1.3-3-3 1.3-3 3-3 3 1.3 3 3z" style="fill:url(#path7828_2_)"/><path id="path7830_1_" d="M291.5-436.1c0 2.7-3.3 3.7-3.3 3.7s2.3-1.6 2.3-3.7h1z" class="st15"/><g id="g7832_1_" transform="matrix(1.143 0 0 1.143 -28.6 67)"><path id="path7834_1_" d="M275.7-436.4c0 1.9-1.6 3.5-3.5 3.5s-3.5-1.6-3.5-3.5 1.6-3.5 3.5-3.5 3.5 1.6 3.5 3.5z" class="st2"/><linearGradient id="path7836_2_" x1="764.2" x2="768.3" y1="-170.8" y2="-175.2" gradientTransform="matrix(1.577 0 0 -1.577 -936.7 -709.7)" gradientUnits="userSpaceOnUse"><stop offset="0" style="stop-color:#fff"/><stop offset="1" style="stop-color:#fff;stop-opacity:0"/></linearGradient><path id="path7836_1_" d="M275.7-436.4c0 1.9-1.6 3.5-3.5 3.5s-3.5-1.6-3.5-3.5 1.6-3.5 3.5-3.5 3.5 1.6 3.5 3.5z" style="fill:url(#path7836_2_)"/></g></g><g id="g7852_1_" transform="translate(23 158)"><path id="path7854_1_" d="M279-444.3a5 5 0 0 0-4.7 3.6 5 5 0 0 0-7.3 4.4c0 .6.2 1.1.3 1.6a4.5 4.5 0 0 0 2.2 8.4h19c2.5 0 4.5-2 4.5-4.5 0-1.7-1-3.1-2.3-3.9a5 5 0 0 0-4.7-6.6 6 6 0 0 0-2.3.6 5 5 0 0 0-4.7-3.6z" class="st8"/><linearGradient id="path7856_2_" x1="1061.2" x2="1075.2" y1="-176.7" y2="-185.8" gradientTransform="matrix(1 0 0 -1 -792 -616)" gradientUnits="userSpaceOnUse"><stop offset="0" style="stop-color:#fff"/><stop offset="1" style="stop-color:#fff;stop-opacity:0"/></linearGradient><path id="path7856_1_" d="M279-443.8c-2.2 0-3.7 1.3-4.4 3.8-.7-.3-1.5-.8-2.4-.8-2.7 0-4.8 1.9-4.8 4.5 0 .5.3 1.3.4 1.8-1.3.7-2.4 1.9-2.4 3.4 0 2.3 1.5 4.3 4.3 4.3H288c2.8 0 4.3-1.9 4.3-4.3 0-1.6-1.1-2.7-2.4-3.4a6 6 0 0 0 .5-1.8c0-2.6-2.1-4.6-4.8-4.6-.8 0-1.6.5-2.3.8-.5-2.3-2.1-3.7-4.3-3.7z" style="fill:url(#path7856_2_)"/><g id="g7858_1_"><path id="path7860_1_" d="M282.5-439.3c0 1.9-1.6 3.5-3.5 3.5s-3.5-1.6-3.5-3.5 1.6-3.5 3.5-3.5 3.5 1.6 3.5 3.5z" class="st2"/><linearGradient id="path7862_2_" x1="1061.1" x2="1063.2" y1="-161" y2="-164.4" gradientTransform="matrix(1.057 0 0 -1.057 -843.4 -611.4)" gradientUnits="userSpaceOnUse"><stop offset="0" style="stop-color:#fff"/><stop offset="1" style="stop-color:#fff;stop-opacity:0"/></linearGradient><path id="path7862_1_" d="M282.5-439.3c0 1.9-1.6 3.5-3.5 3.5s-3.5-1.6-3.5-3.5 1.6-3.5 3.5-3.5 3.5 1.6 3.5 3.5z" style="fill:url(#path7862_2_)"/></g><path id="rect7864_1_" d="M269.5-436.8h20v9h-20z" class="st2"/><path id="path7866_1_" d="M272.5-430.8c0 1.7-1.3 3-3 3s-3-1.3-3-3 1.3-3 3-3 3 1.3 3 3z" class="st2"/><g id="g7868_1_"><path id="path7870_1_" d="M289.5-436.3c0 1.9-1.6 3.5-3.5 3.5s-3.5-1.6-3.5-3.5 1.6-3.5 3.5-3.5 3.5 1.6 3.5 3.5z" class="st2"/><linearGradient id="path7872_2_" x1="1060.1" x2="1063.4" y1="-159.5" y2="-164.6" gradientTransform="matrix(1.057 0 0 -1.057 -836.4 -608.4)" gradientUnits="userSpaceOnUse"><stop offset="0" style="stop-color:#fff"/><stop offset="1" style="stop-color:#fff;stop-opacity:0"/></linearGradient><path id="path7872_1_" d="M289.5-436.3c0 1.9-1.6 3.5-3.5 3.5s-3.5-1.6-3.5-3.5 1.6-3.5 3.5-3.5 3.5 1.6 3.5 3.5z" style="fill:url(#path7872_2_)"/></g><g id="g7874_1_"><path id="path7876_1_" d="M275.5-436.3c0 1.9-1.6 3.5-3.5 3.5s-3.5-1.6-3.5-3.5 1.6-3.5 3.5-3.5 3.5 1.6 3.5 3.5z" class="st2"/><linearGradient id="path7878_2_" x1="1059.9" x2="1063.4" y1="-160.5" y2="-164" gradientTransform="matrix(1.057 0 0 -1.057 -850.4 -608.4)" gradientUnits="userSpaceOnUse"><stop offset="0" style="stop-color:#fff"/><stop offset="1" style="stop-color:#fff;stop-opacity:0"/></linearGradient><path id="path7878_1_" d="M275.5-436.3c0 1.9-1.6 3.5-3.5 3.5s-3.5-1.6-3.5-3.5 1.6-3.5 3.5-3.5 3.5 1.6 3.5 3.5z" style="fill:url(#path7878_2_)"/></g><g id="g7880_1_" transform="translate(-1)"><path id="path7882_1_" d="M279-439.8a6.5 6.5 0 0 0-6.5 6.5c0 2.4 1.3 4.3 3.3 5.5h6.5a6.4 6.4 0 0 0 3.3-5.5 6.7 6.7 0 0 0-6.6-6.5z" class="st2"/><linearGradient id="path7884_2_" x1="1071" x2="1075.1" y1="-178.9" y2="-184.1" gradientTransform="matrix(1 0 0 -1 -795 -616)" gradientUnits="userSpaceOnUse"><stop offset="0" style="stop-color:#fff"/><stop offset="1" style="stop-color:#fff;stop-opacity:0"/></linearGradient><path id="path7884_1_" d="M279-439.8a6.5 6.5 0 0 0-6.5 6.5c0 2.4 1.3 4.4 3.3 5.5h6.5a6.4 6.4 0 0 0 3.3-5.5c-.1-3.6-3-6.5-6.6-6.5z" style="fill:url(#path7884_2_)"/></g><linearGradient id="path7886_2_" x1="1109.2" x2="1112.3" y1="-210.5" y2="-213.3" gradientTransform="matrix(.906 0 0 -.906 -736.8 -623)" gradientUnits="userSpaceOnUse"><stop offset="0" style="stop-color:#fff"/><stop offset="1" style="stop-color:#fff;stop-opacity:0"/></linearGradient><path id="path7886_1_" d="M272.5-430.8c0 1.7-1.3 3-3 3s-3-1.3-3-3 1.3-3 3-3 3 1.3 3 3z" style="fill:url(#path7886_2_)"/><path id="path7888_1_" d="M291.5-436.1c0 2.7-3.3 3.7-3.3 3.7s2.3-1.6 2.3-3.7h1z" class="st15"/><g id="g7890_1_" transform="matrix(1.143 0 0 1.143 -28.6 67)"><path id="path7892_1_" d="M275.7-436.4c0 1.9-1.6 3.5-3.5 3.5s-3.5-1.6-3.5-3.5 1.6-3.5 3.5-3.5 3.5 1.6 3.5 3.5z" class="st2"/><linearGradient id="path7896_2_" x1="798.8" x2="802.9" y1="-167.7" y2="-172.1" gradientTransform="matrix(1.577 0 0 -1.577 -991.4 -704.8)" gradientUnits="userSpaceOnUse"><stop offset="0" style="stop-color:#fff"/><stop offset="1" style="stop-color:#fff;stop-opacity:0"/></linearGradient><path id="path7896_1_" d="M275.7-436.4c0 1.9-1.6 3.5-3.5 3.5s-3.5-1.6-3.5-3.5 1.6-3.5 3.5-3.5 3.5 1.6 3.5 3.5z" style="fill:url(#path7896_2_)"/></g></g></g><g id="g12239_1_" transform="translate(-194 268)"><path id="path12241_1_" d="M221.8-227.3c-1.2 0-2.1-1-2.1-2.2.2-2.5 2-2.8 1.8-5.2 1.7.6 4.5 6.9.3 7.4z" class="st24"/><radialGradient id="path12243_2_" cx="3205.7" cy="-2875.6" r="21.7" gradientTransform="matrix(.082 .004 .003 -.126 -31 -602.4)" gradientUnits="userSpaceOnUse"><stop offset="0" style="stop-color:#fff"/><stop offset="1" style="stop-color:#fff;stop-opacity:0"/></radialGradient><path id="path12243_1_" d="M223.6-229.6c0 1-.8 1.8-1.8 1.7-1 0-1.8-.9-1.7-1.9s2.1-1.6 1.9-3.6c.9.1 1.6 2.8 1.6 3.8z" style="opacity:.4611;fill:url(#path12243_2_);enable-background:new"/><linearGradient id="path12245_2_" x1="3613.8" x2="3634.3" y1="2289.6" y2="2311.1" gradientTransform="matrix(.001 .116 .11 .009 -35 -671.2)" gradientUnits="userSpaceOnUse"><stop offset="0" style="stop-color:#fff"/><stop offset="1" style="stop-color:#fff;stop-opacity:0"/></linearGradient><path id="path12245_1_" d="M222.9-228.2c-4.6 1.2-2-4.3-1-3.9-2.5 2.9 1 3.9 1 3.9z" style="fill:url(#path12245_2_)"/></g><g id="g12203_1_" transform="translate(-215 266)"><path id="path12205_1_" d="M230.8-227.3c-1.2 0-2.1-1-2.1-2.2.2-2.5 2-2.8 1.8-5.2 1.7.6 4.5 6.9.3 7.4z" class="st24"/><radialGradient id="path12207_2_" cx="3378.5" cy="-2870.6" r="21.7" gradientTransform="matrix(.082 .004 .003 -.126 -36.1 -602.3)" gradientUnits="userSpaceOnUse"><stop offset="0" style="stop-color:#fff"/><stop offset="1" style="stop-color:#fff;stop-opacity:0"/></radialGradient><path id="path12207_1_" d="M232.6-229.6c0 1-.8 1.8-1.8 1.7-1 0-1.8-.9-1.7-1.9s2.1-1.6 1.9-3.6c.9.1 1.6 2.8 1.6 3.8z" style="opacity:.4611;fill:url(#path12207_2_);enable-background:new"/><linearGradient id="path12209_2_" x1="3670.6" x2="3691.1" y1="2373.6" y2="2395.1" gradientTransform="matrix(.001 .116 .11 .009 -35.3 -678.5)" gradientUnits="userSpaceOnUse"><stop offset="0" style="stop-color:#fff"/><stop offset="1" style="stop-color:#fff;stop-opacity:0"/></linearGradient><path id="path12209_1_" d="M231.9-228.2c-4.6 1.2-2-4.3-1-3.9-2.5 2.9 1 3.9 1 3.9z" style="fill:url(#path12209_2_)"/></g></g></svg>