<svg xmlns="http://www.w3.org/2000/svg" xml:space="preserve" id="svg1306" x="0" y="0" style="enable-background:new 0 0 45 45" version="1.1" viewBox="0 0 45 45"><style>.st10{opacity:.6167;fill:#fff;enable-background:new}.st16{fill:#a3a4a0}.st22{fill:#c4c5c2}</style><g id="layer1_12_"><g id="g5441_1_" transform="matrix(.999 0 0 .999 -342.5 469.4)"><path id="path5439_1_" d="M381.3-448.2a18.3 18.3 0 0 1-36.6 0 18.3 18.3 0 0 1 36.6 0z" style="fill:#eaece8"/><g id="g5405_1_" transform="translate(37.1 -1.6)"><path id="path5342_1_" d="M317.6-462.4c0 .3-.1.5-.4.8-.3.4-.4.5-.1 1h1l1.4-.5 1-.3c.4-.1.8.1 1 .3s-.7.7-.7.7l-1 .4-1.2.3-1.1.4-1.2 1.1c-.4.4-.5.8-.4 1.2.1.4.3.7.7.7.4.1.7-.1 1-.4.3-.4.4-1 .8-1.2l.8-.8c.3-.3.5-.4 1-.3.3.1.5.4 1 .5.3 0 .8-.4 1.1-.5l.1-.1 1.1-.1c.4 0 .7.1 1 .3.4.1.7.1 1.1.4l.8.8c.1.4.3.5.5.8l1.1.8.4 1v1.2l-.7 1.2c-.1.4-.7.7-1.1 1-.4.4-1.1.4-1.5.8-.5.5-.5.8-1.1 1.5-.4.5 0 .8.5.7.4-.1.8-.3 1.4-.3h.3c.5-.1 1-.5 1.5-.7.7-.1 2 .8 2.7 1.2.5.3-.1.8-.3 1-.4.3-.8.3-1.4.3l-1-.1c-.4-.1-.7-.1-1.1.1-.4.3-.3.7-.1 1 .3.4.5.5.7 1 .1.4-.3.7-.5 1h-1.4c-.5 0-1 .3-1.4.5l-.4 1.1v.3c-.1.5 0 .8.3 1.2l.5 1c.1.4.3.7.1 1.1l-.3 1c0 .3.3 1 .4 1.1.1.5 0 .5-.3 1-.3.3-.8.4-1.1.5-.3.1-1 0-1.2-.1-.4-.1-.7.1-1 .3-.4.3-.4.4-.8 0s-.7-1-.8-1.5v-1.5l.1-1.1c0-.4-1.1.4-1.4.5l-.4.1c-.5.3-.5.7-.5 1.2 0 .4.3.8.3 1.4 0 .4-.5.5-1 .5s-.8-.7-1.1-1c-.4-.4-1-.7-1.1-1.1-.3-.5-.4-1 .3-1.4.4-.3.8-.3 1.1-.7.3-.4.7-.8 0-1.1-.4-.1-.7-.3-1.1-.1h-.3c-1 .1-1 .1-1.8-.3-.5-.3-.8-.8-1.2-1.2s-.7-1-.8-1.5l-.4-1.4-.1-1.2-.1-1.2v-2.8l.1-1.2v-.1c0-.4.3-1 .4-1.4l.5-1.1.5-1 .8-1.1 1.5-1.6.8-1.1 1.4-1.1c.4-.3.7-.5 1-1l.5-1 .3-.1z" style="opacity:.1056;fill-rule:evenodd;clip-rule:evenodd;fill:#787974;enable-background:new"/><path id="path5345_1_" d="M332.6-455.4c-.5.1-1.6.3-2.3.1-.5-.1-.5-.4-1.1.1l-.1.1c-.3.3-.4.4-.4.8v2.1c.1.4.1.7.4 1.1l.5.8c.4.3 1 .4 1.4.5h1.1c.4 0 .5 0 .5.5 0 .4-.8 1-1.1 1.4-.3.4-.1.8 0 1.2l.3 1.1c.2.4.1.7.5 1 .3.3 1 0 1.2.4l.1.8c0 .4.1.7.5.4.4-.1.7-.1 1-.5.3-.4.4-.8.5-1.2.1-.4.5-.4.8-.4h1.1c.5-.1.7-.3 1.1-.7.5-.5.4-.8.5-1.5l-.1-.8v-.3c-.1-.3-.7-.3-1-.3-.5 0-1.4-.3-1.8-.4-.3 0-1-1-1.1-1.1-.3-.3-.4-.5-.4-.8l-.1-1.4c-.1-.5 0-.8-.4-1.2-.3-.3-.4-.7-.5-1.1-.1-.4-.4-.7-.7-1-.1.3-.1.4-.4.3z" style="opacity:.1889;fill-rule:evenodd;clip-rule:evenodd;fill:#787974;enable-background:new"/><path id="path5347_1_" d="M340.9-452.3c-.3 0-.5.4-.8.5-.3.3-.1.7-.1 1l.1 1.1.5.8c.3.3.7.4 1.1.5.5.1.8.1 1.1-.4.1-.4.3-.7.3-1.1l-.1-1.1c-.1-.4-.3-.7-.7-.8-.3-.1-.5-.4-.8-.7-.2.2-.4.2-.6.2z" style="opacity:.1833;fill-rule:evenodd;clip-rule:evenodd;fill:#787974;enable-background:new"/><path id="path5349_1_" d="M323.8-435.3c.3-.1 1.1-1.1 1.8-1.5.1-.1.3-.1.3-.3.5-.5 1.1-1.2 1.5-1.9a7 7 0 0 0 1.2-3c.3-1.4.4-.4 0 .4l-.1.4-.4 1.8c-.3.8-1 1.4-1.1 2.2-.1.4-.3 1-.1 1.4.1.4.7-.5 1.1-.7.5-.1.7-.3.7.3 0 .4-.1 1-.3 1.4-.1.7 1.8.1 2.2 0 1.4-.4 2.3-.8 3.4-1.8 1.2-1 2.2-2.2 3.4-3.3 1-1 1.4-1.5.8 0l-.1.4-.1.4c-.3.8-.8 1.6-1.6 2.2-1.1.8-1.9 2.2-3.1 2.7-.5.3-1 .4-1.5.5-.5.3 1 .4 1.2.5 2.7.5-2.2.8-2.9.8-1 0-1.5-.3-2.3.3-.3.1 1.2.8 1.4.8.7.1 1.2.5 1.9.5 1.1 0-2.4.4-3.4.1-.8-.3-1.6-.4-2.4-.5h-1.2v1.2c0 .8-.3 1.5-.5.3-.3-.7-.5-1.2-.5-1.9 0-.4-.5.7-.8 1l-1.2 1.2s.4-.8.5-1.4c.1-.4.8-1.5.3-1.6l-1.4-.1-1.9-.5c-1.1-.5-3-1.1-4.2-1.4l-.3-.3c1.2 1.2 3 1.9 4.6 1.9.5 0 1.4-.1 1.8-.3l1.1-.7c.4-.1-.5-.5-.8-.8-.1-.1-.1-.3-.3-.3-1-1.2-1.4-2.7-2.4-3.9-.1-.1-2.9-3.3-1.6-2.2a22 22 0 0 1 3.5 3.3l1.6 2.2c.5.7.4-.1.3-.5-.3-1-.1-2.3-.1-3.4 0-1.4.7 1.4.8 1.6.1.7.5 1.5 1.1.8.5-.7.5-.8.5 0v.3c-.5.6-.5 1-.4 1.4z" style="opacity:.4722;fill-rule:evenodd;clip-rule:evenodd;fill:#f3f4f2;enable-background:new"/><path id="path5351_1_" d="M339.6-447.3c.1.1.3.5.3.8l-1.1 1c-.3.3-.3.7-.4 1.1l-.1 1.1.4 1.1c.1.4.5.5.8 1 .4.4.8.4 1.4.5.5.1-.4.7-.5.8-.4.3-.7.4-1 .8-.3.4.3.7.5.8.3.1.8-.4 1-.7.3-.3.5-.5.5-1l.1-1.1.1-1.1c.1-.5.3-.7.5-1s.3-.8.1-1.1l-.4-1c-.1-.3-.5-.5-.8-.5-.3-.1-.8-.7-1-.8.1-.4 0-.7-.4-.7z" style="opacity:.1167;fill-rule:evenodd;clip-rule:evenodd;fill:#787974;enable-background:new"/><path id="path5353_1_" d="M316.1-448.6z" style="fill:none;stroke:#000;stroke-width:.9987;stroke-miterlimit:3.9896"/><path id="path5355_1_" d="m322.7-461.8 1.1-.3c.4-.1 1 .1 1.4.1 0 0 .4.5.8.5h.3c.3 0 .7.3 1 .5.3.3 0 .7-.1.8-.4.4-.7.1-1-.1s-.4-.4-.8-.5h-1.1c-.4.1-.7.3-1.2.3l-.8-.8c-.1-.1.3-.5.4-.5z" style="opacity:.2;fill-rule:evenodd;clip-rule:evenodd;fill:#938f8b;enable-background:new"/><path id="path5357_1_" d="M329.2-460.9h3.2c.3.1 2.2.4 1.4.8-.4.3-.8.3-1.2.5-.4.3.5.4.8.4.5 0 .3.7.1 1-.3.4-.1 1 0 1.2.1.4.7.3 1.1.3.4 0 .8 0 1.1.4.3.3.5.7.4 1s-1 .4-1.2.4c-.3 0-1.1-1.1-1.1-1.1-.3-.3-.7 0-1 0-.5.1-1-.5-1.2-.8-.4-.3-.5-.7-.8-1.1-.3-.4.1-.7-.5-.7-.4 0-.7-.1-1-.3-.4-.3-.8-.1-.8-.8 0-.5 0-.7.5-1-.2 0 .1 0 .2-.2z" style="opacity:.2889;fill-rule:evenodd;clip-rule:evenodd;fill:#938f8b;enable-background:new"/><radialGradient id="path5359_2_" cx="9910.6" cy="6978" r="533.7" gradientTransform="matrix(.02 0 0 .025 127.6 -624.3)" gradientUnits="userSpaceOnUse"><stop offset="0" style="stop-color:#787974"/><stop offset="1" style="stop-color:#787974;stop-opacity:0"/></radialGradient><path id="path5359_1_" d="M317.7-462.5c0 .3-.1.5-.4.8-.3.4-.4.5-.1 1h1l1.4-.5 1-.3c.4-.1.8.1 1 .3s-.7.7-.7.7l-1 .4-1.2.3-1.1.4-1.2 1.1c-.4.4-.5.8-.4 1.2.1.4.3.7.7.7.4.1.7-.1 1-.4.3-.4.4-1 .8-1.2l.8-.8c.3-.3.5-.4 1-.3.3.1.5.4 1 .5.3 0 .8-.4 1.1-.5l.1-.1 1.1-.1c.4 0 .7.1 1 .3.4.1.7.1 1.1.4l.8.8c.1.4.3.5.5.8l1.1.8.4 1v1.2l-.7 1.2c-.1.4-.7.7-1.1 1-.4.4-1.1.4-1.5.8-.5.5-.5.8-1.1 1.5-.4.5 0 .8.5.7.4-.1.8-.3 1.4-.3h.3c.5-.1 1-.5 1.5-.7.7-.1 2 .8 2.7 1.2.5.3-.1.8-.3 1-.4.3-.8.3-1.4.3l-1-.1c-.4-.1-.7-.1-1.1.1-.4.3-.3.7-.1 1 .3.4.5.5.7 1 .1.4-.3.7-.5 1h-1.4c-.5 0-1 .3-1.4.5l-.4 1.1v.3c-.1.5 0 .8.3 1.2l.5 1c.1.4.3.7.1 1.1l-.3 1c0 .3.3 1 .4 1.1.1.5 0 .5-.3 1-.3.3-.8.4-1.1.5-.3.1-1 0-1.2-.1-.4-.1-.7.1-1 .3-.4.3-.4.4-.8 0s-.7-1-.8-1.5v-1.5l.1-1.1c0-.4-1.1.4-1.4.5l-.4.1c-.5.3-.5.7-.5 1.2 0 .4.3.8.3 1.4 0 .4-.5.5-1 .5s-.8-.7-1.1-1c-.4-.4-1-.7-1.1-1.1-.3-.5-.4-1 .3-1.4.4-.3.8-.3 1.1-.7.3-.4.7-.8 0-1.1-.4-.1-.7-.3-1.1-.1h-.3c-1 .1-1 .1-1.8-.3-.5-.3-.8-.8-1.2-1.2s-.7-1-.8-1.5l-.4-1.4-.1-1.2-.1-1.2v-2.8l.1-1.2v-.1c0-.4.3-1 .4-1.4l.5-1.1.5-1 .8-1.1 1.5-1.6.8-1.1 1.4-1.1c.4-.3.7-.5 1-1l.5-1 .3-.1z" style="opacity:.1778;fill-rule:evenodd;clip-rule:evenodd;fill:url(#path5359_2_);enable-background:new"/><path id="path5361_1_" d="M322.7-445.8c0 .5-.4 1-1 1s-1-.4-1-1c0-.5.4-1 1-1s1 .5 1 1z" class="st10"/><path id="path5363_1_" d="M313.9-453.1c0 .3-.3.5-.5.5-.3 0-.5-.3-.5-.5 0-.3.3-.5.5-.5.2-.1.5.2.5.5z" style="opacity:.5444;fill:#fff;enable-background:new"/><path id="path5365_1_" d="M336-446.9c0 .5-.4 1-1 1s-1-.4-1-1c0-.5.4-1 1-1s1 .5 1 1z" style="opacity:.5444;fill:#c2c3be;enable-background:new"/><path id="path5367_1_" d="M329.1-433c0 .5-.4 1-1 1s-1-.4-1-1c0-.5.4-1 1-1s1 .5 1 1z" style="opacity:.5667;fill:#c2c3be;enable-background:new"/><path id="path5369_1_" d="M334.8-446.6c0 .3-.3.5-.5.5s-.5-.3-.5-.5c0-.3.3-.5.5-.5s.5.1.5.5z" class="st10"/><path id="path5371_1_" d="M323.5-432.3c0 .3-.3.5-.5.5-.3 0-.5-.3-.5-.5 0-.3.3-.5.5-.5.3-.1.5.2.5.5z" class="st10"/><path id="path5373_1_" d="M332.5-438.6c0 .3-.3.5-.5.5-.3 0-.5-.3-.5-.5 0-.3.3-.5.5-.5s.5.1.5.5z" class="st10"/><path id="path5375_1_" d="M339.6-454.2c0 .3-.3.5-.5.5s-.5-.3-.5-.5c0-.3.3-.5.5-.5s.5.2.5.5z" class="st10"/><path id="path5377_1_" d="M335.5-453.1c0 .3-.3.5-.5.5-.3 0-.5-.3-.5-.5 0-.3.3-.5.5-.5.2-.1.5.2.5.5z" class="st10"/><path id="path5379_1_" d="M337.1-459.1c0 .3-.3.5-.5.5-.3 0-.5-.3-.5-.5 0-.3.3-.5.5-.5.3 0 .5.1.5.5z" class="st10"/><path id="path5381_1_" d="M325-441.1c0 .3-.3.5-.5.5-.3 0-.5-.3-.5-.5 0-.3.3-.5.5-.5.3-.1.5.2.5.5z" class="st10"/><path id="path5383_1_" d="M323.7-434.9c.3-.1 1.1-1 1.6-1.4l.3-.3c.5-.4 1-1.1 1.4-1.8.7-1 1-1.8 1.1-2.7.3-1.4.3-.4 0 .4l-.1.4c-.1.5-.1 1.1-.4 1.6l-1 2c-.1.4-.3.8-.1 1.2s.7-.4 1.1-.5c.5-.1.7-.3.7.3l-.3 1.2c-.1.5 1.6.1 2 0 1.2-.3 2.2-.7 3.1-1.6l3.1-3c.8-.8 1.2-1.4.7 0l-.1.4-.1.4c-.3.7-.8 1.5-1.5 2-1.1.7-1.8 1.9-2.9 2.6-.4.3-1 .3-1.4.5-.4.3 1 .4 1.2.4 2.6.5-2 .8-2.6.8-1 0-1.4-.1-2.2.3-.3.1 1.2.7 1.2.7.5.1 1.1.5 1.8.5 1.1 0-2.2.3-3.1.1l-2.3-.5h-1.2v1.1c0 .7-.1 1.4-.5.3-.1-.5-.5-1.2-.5-1.8 0-.4-.5.5-.8 1l-1.1 1.1.4-1.2c.1-.4.7-1.4.3-1.5l-1.4-.1-1.8-.5c-1.1-.5-2.7-1-3.8-1.2-.1 0-1.8-1.9-.1-.3a6.2 6.2 0 0 0 4.2 1.8c.5 0 1.2-.1 1.6-.3.3 0 .7-.4 1-.5s-.5-.4-.8-.7l-.3-.3c-1-1.1-1.2-2.6-2.3-3.5-.1-.1-2.6-3-1.5-2 1.2 1 2.3 1.9 3.3 3l1.5 2c.5.7.4-.1.3-.5-.3-1-.1-2.2-.1-3.1 0-1.2.7 1.2.7 1.5.1.7.5 1.4 1 .8.5-.7.5-.8.5 0v.1c.2.1.2.4.2.8z" style="fill-rule:evenodd;clip-rule:evenodd;fill:#fff"/><g id="g5385_1_" style="opacity:.3167" transform="translate(461.7 -517.2)"><path id="path5387_1_" d="M-127.8 64.8c0 1.2-1.1 2.3-2.4 2.3s-2.4-1.1-2.4-2.3 1.1-2.3 2.4-2.3c1.3 0 2.4 1 2.4 2.3z" class="st16"/><path id="path5389_1_" d="M-125.1 70.2c0 1.2-1.1 2.3-2.4 2.3a2.3 2.3 0 0 1-2.4-2.3c0-1.2 1.1-2.3 2.4-2.3 1.3 0 2.4 1.1 2.4 2.3z" class="st16"/><path id="path5391_1_" d="M-122.5 70.1c0 .8-.7 1.5-1.5 1.5s-1.5-.7-1.5-1.5.7-1.5 1.5-1.5 1.5.7 1.5 1.5z" class="st16"/><path id="path5393_1_" d="M-135.9 62.6c0 1.9-1.6 3.5-3.7 3.5s-3.7-1.6-3.7-3.5 1.6-3.5 3.7-3.5 3.7 1.6 3.7 3.5z" class="st16"/><path id="path5395_1_" d="M-143.1 71c0 2.3-1.9 4.1-4.3 4.1s-4.3-1.9-4.3-4.1 1.9-4.1 4.3-4.1 4.3 1.8 4.3 4.1z" class="st16"/><path id="path5397_1_" d="M-138.3 74.8c0 1.8-1.5 3.3-3.4 3.3s-3.4-1.5-3.4-3.3 1.5-3.3 3.4-3.3c1.9.1 3.4 1.6 3.4 3.3z" class="st16"/><path id="path5399_1_" d="M-140.5 65.9c0 1.8-1.5 3.3-3.4 3.3s-3.4-1.5-3.4-3.3 1.5-3.3 3.4-3.3 3.4 1.5 3.4 3.3z" class="st16"/></g><path id="path5401_1_" d="M324.8-433.3c0 .5-.4 1-1 1s-1-.4-1-1 .4-1 1-1 1 .5 1 1z" style="fill:#fff"/></g><path id="path9201_1_" d="M381.3-448a18.3 18.3 0 0 1-36.6 0 18.3 18.3 0 0 1 36.6 0z" style="fill:none;stroke:#888a85;stroke-width:.9987;stroke-miterlimit:5.5315"/><path id="path9203_1_" d="M373-461.8a17 17 0 0 1 3.7 23.8 17 17 0 0 1-23.8 3.7 17 17 0 0 1-3.7-23.8 17 17 0 0 1 23.8-3.7z" style="fill:none;stroke:#fff;stroke-width:.9987;stroke-linecap:square;stroke-miterlimit:5.2502"/></g><g id="g6956_1_" transform="translate(-249 467.9)"><path id="path6958_1_" d="M279.1-444c-2.2 0-3.9 1.5-4.6 3.5-.7-.4-1.4-.5-2.2-.5a5 5 0 0 0-4.9 4.9c0 .5.1 1.1.3 1.6a4.4 4.4 0 0 0-2.3 3.8c0 2.4 1.9 4.3 4.3 4.3h18.5c2.4 0 4.3-1.9 4.3-4.3 0-1.6-1-3-2.3-3.8.1-.5.3-1 .3-1.6a5 5 0 0 0-4.9-4.9c-.8 0-1.5.3-2.2.5-.3-2-2.1-3.5-4.3-3.5z" style="fill:#c4c5c2;stroke:#888a85;stroke-miterlimit:2"/><linearGradient id="path6960_2_" x1="767.7" x2="781.3" y1="-233.4" y2="-224.6" gradientTransform="translate(-498 -206)" gradientUnits="userSpaceOnUse"><stop offset="0" style="stop-color:#fff"/><stop offset="1" style="stop-color:#fff;stop-opacity:0"/></linearGradient><path id="path6960_1_" d="M279.1-443.5c-2.2 0-3.7 1.4-4.2 3.7-.7-.3-1.5-.8-2.3-.8-2.6 0-4.6 1.9-4.6 4.3 0 .5.3 1.4.4 1.8-1.2.7-2.3 1.9-2.3 3.3 0 2.3 1.5 4.1 4.2 4.1h17.8a4 4 0 0 0 4.2-4.1c0-1.5-1.1-2.6-2.3-3.3.1-.4.4-1.2.4-1.8 0-2.6-2-4.5-4.6-4.5-.8 0-1.6.4-2.3.8-.7-2.1-2.2-3.5-4.4-3.5z" style="fill:url(#path6960_2_)"/><g id="g6962_1_"><path id="path6964_1_" d="M282.5-439.1c0 1.9-1.5 3.4-3.4 3.4s-3.4-1.5-3.4-3.4 1.5-3.4 3.4-3.4 3.4 1.5 3.4 3.4z" class="st22"/><linearGradient id="path6966_2_" x1="772.9" x2="775" y1="-243.3" y2="-239.9" gradientTransform="matrix(1.057 0 0 1.057 -538.7 -184.1)" gradientUnits="userSpaceOnUse"><stop offset="0" style="stop-color:#fff"/><stop offset="1" style="stop-color:#fff;stop-opacity:0"/></linearGradient><path id="path6966_1_" d="M282.5-439.1c0 1.9-1.5 3.4-3.4 3.4s-3.4-1.5-3.4-3.4 1.5-3.4 3.4-3.4 3.4 1.5 3.4 3.4z" style="fill:url(#path6966_2_)"/></g><path id="rect6968_1_" d="M269.9-436.7h19.4v8.7h-19.4z" class="st22"/><path id="path6970_1_" d="M272.9-431a3 3 0 0 1-2.9 2.9c-1.5 0-2.9-1.4-2.9-2.9s1.4-2.9 2.9-2.9c1.5.1 2.9 1.4 2.9 2.9z" class="st22"/><g id="g6972_1_"><path id="path6974_1_" d="M289.3-436.3c0 1.9-1.5 3.4-3.4 3.4s-3.4-1.5-3.4-3.4 1.5-3.4 3.4-3.4 3.4 1.5 3.4 3.4z" class="st22"/><linearGradient id="path6976_2_" x1="771.7" x2="774.9" y1="-244.8" y2="-239.8" gradientTransform="matrix(1.057 0 0 1.057 -531.7 -181.1)" gradientUnits="userSpaceOnUse"><stop offset="0" style="stop-color:#fff"/><stop offset="1" style="stop-color:#fff;stop-opacity:0"/></linearGradient><path id="path6976_1_" d="M289.3-436.3c0 1.9-1.5 3.4-3.4 3.4s-3.4-1.5-3.4-3.4 1.5-3.4 3.4-3.4 3.4 1.5 3.4 3.4z" style="fill:url(#path6976_2_)"/></g><g id="g6978_1_"><path id="path6980_1_" d="M275.7-436.3c0 1.9-1.5 3.4-3.4 3.4s-3.4-1.5-3.4-3.4 1.5-3.4 3.4-3.4c2 0 3.4 1.5 3.4 3.4z" class="st22"/><linearGradient id="path6982_2_" x1="772" x2="775.3" y1="-243.8" y2="-240.4" gradientTransform="matrix(1.057 0 0 1.057 -545.7 -181.1)" gradientUnits="userSpaceOnUse"><stop offset="0" style="stop-color:#fff"/><stop offset="1" style="stop-color:#fff;stop-opacity:0"/></linearGradient><path id="path6982_1_" d="M275.7-436.3c0 1.9-1.5 3.4-3.4 3.4s-3.4-1.5-3.4-3.4 1.5-3.4 3.4-3.4c2 0 3.4 1.5 3.4 3.4z" style="fill:url(#path6982_2_)"/></g><g id="g6984_1_" transform="translate(-1)"><path id="path6986_1_" d="M279.2-439.7a6.3 6.3 0 0 0-6.3 6.3c0 2.3 1.4 4.2 3.1 5.3h6.3a6 6 0 0 0 3.1-5.3c0-3.4-2.8-6.3-6.2-6.3z" class="st22"/><linearGradient id="path6988_2_" x1="776.4" x2="780.3" y1="-231.1" y2="-226.1" gradientTransform="translate(-500 -206)" gradientUnits="userSpaceOnUse"><stop offset="0" style="stop-color:#fff"/><stop offset="1" style="stop-color:#fff;stop-opacity:0"/></linearGradient><path id="path6988_1_" d="M279.2-439.7a6.3 6.3 0 0 0-6.3 6.3c0 2.3 1.4 4.2 3.1 5.3h6.3a6 6 0 0 0 3.1-5.3c0-3.4-2.8-6.3-6.2-6.3z" style="fill:url(#path6988_2_)"/></g><linearGradient id="path6990_2_" x1="804.9" x2="807.9" y1="-210.7" y2="-208" gradientTransform="matrix(.906 0 0 .906 -460.6 -241.7)" gradientUnits="userSpaceOnUse"><stop offset="0" style="stop-color:#fff"/><stop offset="1" style="stop-color:#fff;stop-opacity:0"/></linearGradient><path id="path6990_1_" d="M272.9-431a3 3 0 0 1-2.9 2.9 3 3 0 0 1-2.9-2.9 3 3 0 0 1 2.9-2.9c1.5.1 2.9 1.4 2.9 2.9z" style="fill:url(#path6990_2_)"/><path id="path6992_1_" d="M291.1-436.2c0 2.6-2.9 3.7-2.9 3.7s1.9-1.6 1.9-3.5l1-.2z" style="fill-rule:evenodd;clip-rule:evenodd;fill:#888a85"/><g id="g6994_1_" transform="matrix(1.143 0 0 1.143 -28.6 67)"><path id="path6996_1_" d="M275.6-436.5c0 1.9-1.5 3.4-3.4 3.4s-3.4-1.5-3.4-3.4 1.5-3.4 3.4-3.4 3.4 1.5 3.4 3.4z" class="st22"/><linearGradient id="path6998_2_" x1="634.3" x2="638.3" y1="-248.3" y2="-244" gradientTransform="matrix(1.38 0 0 1.38 -606.7 -97.8)" gradientUnits="userSpaceOnUse"><stop offset="0" style="stop-color:#fff"/><stop offset="1" style="stop-color:#fff;stop-opacity:0"/></linearGradient><path id="path6998_1_" d="M275.6-436.5c0 1.9-1.5 3.4-3.4 3.4s-3.4-1.5-3.4-3.4 1.5-3.4 3.4-3.4 3.4 1.5 3.4 3.4z" style="fill:url(#path6998_2_)"/></g></g></g></svg>