<svg xmlns="http://www.w3.org/2000/svg" xmlns:xlink="http://www.w3.org/1999/xlink" viewBox="0 0 45 45"><defs><style>.a{fill:#eaece8;}.b,.c,.d,.f{fill:#787974;}.b,.c,.d,.e,.f,.g,.h,.i,.n{fill-rule:evenodd;}.b{opacity:0.11;}.b,.c,.d,.e,.f,.g,.h,.i,.j,.k,.l,.m{isolation:isolate;}.c{opacity:0.19;}.d,.i{opacity:0.18;}.e{fill:#f3f4f2;opacity:0.47;}.f{opacity:0.12;}.g,.h{fill:#938f8b;}.g{opacity:0.2;}.h{opacity:0.29;}.i{fill:url(#a);}.j,.k,.n,.q{fill:#fff;}.j{opacity:0.62;}.k,.l{opacity:0.54;}.l,.m{fill:#c2c3be;}.m{opacity:0.57;}.o{opacity:0.32;}.p{fill:#a3a4a0;}.r,.s{fill:none;}.r{stroke:#888a85;stroke-miterlimit:5.53;}.s{stroke:#fff;stroke-linecap:square;stroke-miterlimit:5.25;}.t{fill:#3c3c3c;}</style><radialGradient id="a" cx="12655.45" cy="-3326.84" r="320.06" gradientTransform="matrix(0.02, 0, 0, -0.03, -244.76, -75.24)" gradientUnits="userSpaceOnUse"><stop offset="0" stop-color="#787974"/><stop offset="1" stop-color="#787974" stop-opacity="0"/></radialGradient></defs><title>wi_code0_night</title><path class="a" d="M35,22.44A12.5,12.5,0,1,1,22.5,10,12.47,12.47,0,0,1,35,22.44Z"/><path class="b" d="M16.9,11.84c.06.17-.11.35-.23.53s-.3.41,0,.59c.06.18.47,0,.59,0l.95-.35a2.48,2.48,0,0,1,.66-.18.74.74,0,0,1,.65.18l-.47.47a3.13,3.13,0,0,1-.6.24,4.63,4.63,0,0,0-.89.23,1.5,1.5,0,0,0-.71.3,4.94,4.94,0,0,0-.84.65.79.79,0,0,0-.24.83.55.55,0,0,0,.48.48.6.6,0,0,0,.65-.3,4.23,4.23,0,0,1,.54-.83,4.29,4.29,0,0,1,.54-.59.69.69,0,0,1,.65-.12c.24,0,.42.3.66.35s.53-.23.71-.35l.12-.06c.18-.12.53-.06.71-.06a1.31,1.31,0,0,1,.6.24,3.94,3.94,0,0,1,.77.29,1.72,1.72,0,0,1,.54.6,1.91,1.91,0,0,0,.36.59l.71.53a1.32,1.32,0,0,1,.24.59,1.36,1.36,0,0,1,0,.89l-.42.83c-.12.3-.59.48-.71.59-.3.3-.72.3-1,.6a7.85,7.85,0,0,0-.71,1c-.24.36,0,.54.36.42a4.69,4.69,0,0,0,.89-.24l.12-.06c.36-.12.59-.35,1-.47s1.43.59,1.79.83,0,.59-.18.59a2.61,2.61,0,0,1-.95.24,2.41,2.41,0,0,1-.66-.12.76.76,0,0,0-.71.12.41.41,0,0,0-.07.58h0c.12.3.35.47.41.71s-.17.47-.41.59-.6,0-.9,0a1.85,1.85,0,0,0-.95.36,1.76,1.76,0,0,0-.24.71l-.06.12a1.05,1.05,0,0,0,.12.83c0,.23.3.41.42.59a.61.61,0,0,1,0,.77,3.09,3.09,0,0,0-.18.59c-.06.24.18.59.24.83s0,.42-.24.59l-.71.42a1.35,1.35,0,0,1-.84-.06,1.22,1.22,0,0,0-.65.12c-.3.12-.3.29-.54,0a3.36,3.36,0,0,1-.53-1l-.06-.12a3.82,3.82,0,0,1-.06-.83l.06-.77c0-.29-.72.24-.89.36a.24.24,0,0,0-.24.12c-.36.17-.36.47-.36.83s.18.53.18.89-.36.41-.66.41-.53-.41-.77-.65a5.1,5.1,0,0,1-.77-.77c-.18-.42-.24-.59.12-.89s.53-.24.71-.42.42-.59,0-.71a1.56,1.56,0,0,0-.77-.11.19.19,0,0,0-.18,0c-.6.17-.6.11-1.19-.18-.42-.18-.54-.59-.84-.83a2.4,2.4,0,0,1-.53-1L11.25,23a3.82,3.82,0,0,1-.06-.83l-.06-.83v-.88l.06-.89a3.87,3.87,0,0,1,.12-.83v-.06a2.29,2.29,0,0,1,.3-.89,6.67,6.67,0,0,1,.35-.71,4,4,0,0,1,.42-.65l.54-.71,1-1.07a6.17,6.17,0,0,0,.59-.71l1-.65a3.65,3.65,0,0,0,.59-.65,2.07,2.07,0,0,1,.48-.66Z"/><path class="c" d="M27.08,16.52a6.67,6.67,0,0,1-1.54.12c-.36-.06-.36-.3-.72,0l-.06.11c-.24.24-.24.24-.24.6a2,2,0,0,1-.06.59,1.44,1.44,0,0,0,.06.77,5.28,5.28,0,0,0,.24.77,1.18,1.18,0,0,0,.36.53,4.54,4.54,0,0,0,.95.36,3.39,3.39,0,0,0,.78,0c.29,0,.35.12.35.41s-.53.71-.71.95a.82.82,0,0,0,0,.83l.18.71a1,1,0,0,0,.35.59c.24.3.66,0,.84.3a.83.83,0,0,1,.12.53c0,.3.12.42.35.3a1.75,1.75,0,0,0,.6-.36,3,3,0,0,0,.47-.83c.12-.23.3-.23.6-.23a2.81,2.81,0,0,0,.71,0,2,2,0,0,0,.72-.48c.36-.35.3-.59.36-1l-.06-.6-.06-.12c-.06-.17-.48-.23-.66-.23a8.09,8.09,0,0,1-1.19-.24,4.3,4.3,0,0,1-.77-.71,1.11,1.11,0,0,1-.3-.59l-.12-.89c-.06-.3,0-.59-.24-.83a1.58,1.58,0,0,1-.35-.71,1.66,1.66,0,0,0-.42-.65Z"/><path class="d" d="M32.8,18.65c-.18,0-.42.24-.6.41s-.06.42-.06.66a2.85,2.85,0,0,0,.12.71,2.13,2.13,0,0,0,.36.59,1.49,1.49,0,0,0,.71.35c.36,0,.54.12.72-.23a1.44,1.44,0,0,0,.06-.71,2.8,2.8,0,0,0-.06-.71.78.78,0,0,0-.42-.6,4.13,4.13,0,0,1-.59-.41.8.8,0,0,0-.3-.06Z"/><path class="e" d="M21.07,30.08l1.19-1a.69.69,0,0,1,.24-.18,4.3,4.3,0,0,0,1-1.31,5.76,5.76,0,0,0,.84-2.07c.17-.95.23-.29,0,.3a.58.58,0,0,0,0,.29,8,8,0,0,1-.3,1.19,9.19,9.19,0,0,0-.72,1.48,2.7,2.7,0,0,0-.12.89c.06.29.48-.36.78-.42s.47-.23.47.24a5.38,5.38,0,0,1-.17.89c-.12.47,1.19,0,1.48,0a5.14,5.14,0,0,0,2.33-1.19A25.92,25.92,0,0,0,30.36,27c.59-.59.89-1,.53,0l-.12.36-.12.29a3.25,3.25,0,0,1-1.07,1.49c-.77.47-1.25,1.42-2.08,1.83-.36.24-.71.3-1,.48s.65.29.83.35c1.79.42-1.49.59-1.9.59a2.85,2.85,0,0,0-1.61.18c-.18.12.89.53,1,.53a7.73,7.73,0,0,0,1.31.36,7.89,7.89,0,0,1-2.32,0L22,33.1a1.94,1.94,0,0,0-.83,0,3.82,3.82,0,0,0,.06.83c0,.6-.12,1-.42.18a6,6,0,0,1-.41-1.24c0-.3-.36.41-.54.65a6.51,6.51,0,0,1-.83.83l.35-.89c.12-.3.54-1,.24-1.13s-.59,0-.95-.06a5.4,5.4,0,0,1-1.31-.35,12.48,12.48,0,0,0-2.86-1s-1.37-1.36-.12-.18a4.74,4.74,0,0,0,3.16,1.31,4,4,0,0,0,1.19-.24c.18-.06.48-.36.71-.41s-.35-.36-.53-.54a1,1,0,0,1-.18-.23c-.6-.77-.89-1.9-1.67-2.67-.12-.12-1.9-2.19-1.07-1.48a16.78,16.78,0,0,1,2.44,2.25l1.07,1.48c.36.47.3-.12.18-.41a7.14,7.14,0,0,1-.12-2.26c0-.88.48.95.54,1.19.12.41.36,1,.71.59s.42-.59.42,0v.12C21.07,29.49,21,29.85,21.07,30.08Z"/><path class="f" d="M31.9,22a1.18,1.18,0,0,1,.12.59c0,.12-.59.59-.71.59a1.08,1.08,0,0,0-.24.77,1.67,1.67,0,0,0-.06.77,3,3,0,0,0,.24.71,2.35,2.35,0,0,0,.54.59c.23.3.59.3.89.42s-.24.47-.36.53-.47.24-.65.54.18.41.35.53.54-.3.6-.42S33,27.24,33,27l.11-.71a2.85,2.85,0,0,1,.12-.71.84.84,0,0,1,.42-.65.88.88,0,0,0,.12-.77l-.24-.65c-.06-.24-.36-.36-.59-.42s-.48-.47-.6-.59C32.26,22.14,32.2,22,31.9,22Z"/><path class="g" d="M20.42,12.13l.71-.17a5.66,5.66,0,0,1,.95.11c.06,0,.24.42.6.42h.12a1,1,0,0,1,.65.35c.18.12,0,.48-.06.6-.24.23-.41,0-.65-.12A1.76,1.76,0,0,0,22.2,13a1.67,1.67,0,0,0-.77,0,4,4,0,0,1-.83.18c-.12,0-.48-.47-.54-.59s.24-.3.3-.36Z"/><path class="h" d="M24.82,12.84a1.5,1.5,0,0,0,.89-.06,3.68,3.68,0,0,1,1.19,0c.18,0,1.49.29.9.59a3.83,3.83,0,0,0-.84.35c-.29.18.36.24.54.24.42,0,.18.47.06.59a1.24,1.24,0,0,0,0,.89c.06.24.54.24.71.24a.92.92,0,0,1,.78.29c.18.24.41.48.3.6a2,2,0,0,1-.84.29c-.18,0-.71-.71-.77-.77-.24-.18-.48,0-.66,0-.35.18-.65-.29-.83-.47a2.1,2.1,0,0,1-.54-.71c-.17-.3.12-.42-.35-.42a.84.84,0,0,1-.66-.23c-.3-.24-.53-.12-.53-.6s0-.41.35-.59C24.58,12.9,24.7,12.9,24.82,12.84Z"/><path class="i" d="M17,11.72c.06.18-.11.35-.23.53s-.3.42,0,.59c.06.18.47,0,.59,0l.95-.35a2.48,2.48,0,0,1,.66-.18.77.77,0,0,1,.65.18l-.47.47a3.13,3.13,0,0,1-.6.24,3.86,3.86,0,0,0-.89.24,1.47,1.47,0,0,0-.72.29,5.65,5.65,0,0,0-.83.71.79.79,0,0,0-.24.83.55.55,0,0,0,.48.48.6.6,0,0,0,.65-.3,4.5,4.5,0,0,1,.6-.83A3.87,3.87,0,0,1,18,14a.69.69,0,0,1,.65-.12c.24,0,.42.3.66.36s.59-.24.71-.36l.12-.06a1.49,1.49,0,0,1,.71-.06,1.29,1.29,0,0,1,.66.24,3.41,3.41,0,0,1,.71.29,1.72,1.72,0,0,1,.6.6,1.91,1.91,0,0,0,.29.59c.18.18.6.35.72.53a1.31,1.31,0,0,1,.24.6,1.33,1.33,0,0,1,0,.88l-.42.83c-.12.3-.54.48-.71.6-.3.29-.72.29-1,.59a7.31,7.31,0,0,0-.71,1c-.24.35.06.53.36.41a4.69,4.69,0,0,0,.89-.24l.12-.06,1-.47c.48-.12,1.43.59,1.85.83s-.06.59-.24.59a2.61,2.61,0,0,1-.95.24,2,2,0,0,1-.6-.12.77.77,0,0,0-.77.12.4.4,0,0,0,0,.58h0c.06.3.29.47.35.71s-.17.48-.41.59-.6,0-.9,0a1.85,1.85,0,0,0-.95.36,1.81,1.81,0,0,0-.24.71v.12a1,1,0,0,0,.06.83c.06.24.3.41.42.59a.7.7,0,0,1,.06.77,3.32,3.32,0,0,0-.24.59,4.13,4.13,0,0,0,.24.83c.12.36,0,.42-.24.6l-.71.41a1.35,1.35,0,0,1-.84-.06,1.2,1.2,0,0,0-.59.12c-.36.12-.36.3-.6,0a3.36,3.36,0,0,1-.53-1v-.12a3.87,3.87,0,0,1-.12-.83l.06-.77c0-.29-.72.24-.89.36,0,0-.18,0-.24.12-.36.18-.36.47-.36.83s.18.53.18.89-.36.41-.6.41-.59-.41-.83-.65a4.67,4.67,0,0,1-.77-.77c-.18-.42-.24-.59.12-.89s.59-.24.71-.41.42-.6,0-.72a1.56,1.56,0,0,0-.77-.11.19.19,0,0,0-.18,0c-.6.17-.6.11-1.19-.18-.42-.18-.54-.59-.84-.83a2.4,2.4,0,0,1-.53-1,5.75,5.75,0,0,0-.24-1,3.84,3.84,0,0,1,0-.83l-.12-.82v-.89l.06-.89a3.87,3.87,0,0,1,.12-.83v-.06a2.19,2.19,0,0,1,.3-.89,6.67,6.67,0,0,1,.35-.71,4,4,0,0,1,.42-.65l.6-.71,1-1.07a6.17,6.17,0,0,0,.59-.71l1-.71a3.65,3.65,0,0,0,.65-.59,1.89,1.89,0,0,1,.42-.71A2.31,2.31,0,0,0,17,11.72Z"/><path class="j" d="M20.42,23a.69.69,0,0,1-.69.69.68.68,0,0,1-.68-.69h0a.65.65,0,0,1,.65-.65.66.66,0,0,1,.66.65Z"/><path class="k" d="M14.35,18.06a.36.36,0,0,1-.72,0h0a.36.36,0,0,1,.72,0Z"/><path class="l" d="M29.35,22.2a.66.66,0,0,1-.43.82.76.76,0,1,1,.48-.82h0Z"/><path class="m" d="M24.7,31.68a.65.65,0,0,1-.65.65.65.65,0,1,1,0-1.3A.65.65,0,0,1,24.7,31.68Z"/><path class="j" d="M28.63,22.44a.42.42,0,0,1-.42.42.41.41,0,0,1-.41-.42h0a.41.41,0,0,1,.41-.41.41.41,0,0,1,.42.41ZM21,32a.39.39,0,0,1-.77,0,.36.36,0,0,1,.36-.36A.41.41,0,0,1,21,32Zm6.07-4.21a.41.41,0,0,1-.41.42.42.42,0,0,1-.42-.42.41.41,0,0,1,.42-.41h0A.45.45,0,0,1,27.08,27.83Zm4.77-10.48a.42.42,0,0,1-.84,0h0a.42.42,0,0,1,.42-.42h0A.49.49,0,0,1,31.85,17.35Zm-2.8.71a.42.42,0,0,1-.84,0h0a.42.42,0,0,1,.84,0Zm1.13-4a.41.41,0,0,1-.42.41.41.41,0,0,1-.41-.41.41.41,0,0,1,.41-.42A.42.42,0,0,1,30.18,14ZM22,26.17a.41.41,0,0,1-.41.42.42.42,0,0,1-.42-.42.41.41,0,0,1,.42-.41A.41.41,0,0,1,22,26.17Z"/><path class="n" d="M21.07,30.26l1.13-1,.18-.17A4.37,4.37,0,0,0,23.33,28a5.56,5.56,0,0,0,.78-1.84c.18-.94.24-.35.06.24a2.25,2.25,0,0,0-.06.36,9.82,9.82,0,0,1-.3,1.06c-.22.45-.42.9-.6,1.37A2.11,2.11,0,0,0,23,30c.06.24.47-.29.71-.41s.42-.18.42.18a4,4,0,0,1-.18.83c-.06.41,1.13.06,1.37,0a4.92,4.92,0,0,0,2.14-1.07,22.37,22.37,0,0,0,2.14-2c.6-.54.84-.89.48.06l-.12.29-.12.3a2.84,2.84,0,0,1-1,1.36c-.72.47-1.19,1.3-2,1.78a5.82,5.82,0,0,1-.95.29c-.3.18.6.24.78.3,1.72.36-1.37.59-1.79.59-.65,0-1-.18-1.49.12-.18.12.84.47.84.47.41.06.77.36,1.19.36.71,0-1.55.24-2.15.06l-1.54-.36a1.72,1.72,0,0,0-.78.06,3.29,3.29,0,0,0,.06.77c0,.48-.12.89-.36.18a4.45,4.45,0,0,1-.35-1.18c0-.24-.36.41-.54.59s-.59.71-.77.71a3.42,3.42,0,0,0,.3-.77c0-.24.47-1,.17-1l-.89-.06A3.88,3.88,0,0,1,17.44,32a18.8,18.8,0,0,0-2.62-.89s-1.19-1.24-.12-.18a4.45,4.45,0,0,0,3,1.19A6.46,6.46,0,0,0,18.75,32l.65-.42c.24-.11-.35-.29-.53-.47l-.18-.18c-.59-.71-.83-1.72-1.55-2.37-.12-.18-1.78-2.07-1-1.42a15.3,15.3,0,0,1,2.26,2.07l1,1.37c.36.41.24-.06.18-.36a8,8,0,0,1-.12-2.07c0-.83.42.89.48,1,.12.41.3.94.66.53s.35-.53.35.06v.12c.12,0,.12.23.18.47Z"/><g class="o"><path class="p" d="M28,18.53A1.61,1.61,0,1,1,26.31,17h.06A1.62,1.62,0,0,1,28,18.53Zm1.84,3.67a1.61,1.61,0,1,1-1.66-1.54h.05a1.54,1.54,0,0,1,1.61,1.48Z"/><path class="p" d="M31.61,22.14a1.07,1.07,0,1,1-1.13-1h.06a1,1,0,0,1,1.07.94Zm-9.11-5a2.5,2.5,0,0,1-2.56,2.37,2.44,2.44,0,0,1-2.56-2.31v-.06a2.44,2.44,0,0,1,2.5-2.37h.06a2.37,2.37,0,0,1,2.55,2.18A1.28,1.28,0,0,1,22.5,17.11Zm-4.88,5.63a2.85,2.85,0,0,1-2.92,2.78h0a2.79,2.79,0,1,1,0-5.57h0a2.87,2.87,0,0,1,3,2.72v.07Z"/><path class="p" d="M20.77,25.28a2.2,2.2,0,0,1-2.26,2.14h0a2.14,2.14,0,1,1,0-4.27h0a2.19,2.19,0,0,1,2.26,2.13Zm-1.42-6a2.2,2.2,0,0,1-2.26,2.13h0a2.19,2.19,0,0,1-2.26-2.13h0a2.2,2.2,0,0,1,2.26-2.13h0a2.21,2.21,0,0,1,2.27,2.13Z"/></g><path class="q" d="M21.73,31.39a.6.6,0,0,1-.6.59.6.6,0,0,1,0-1.19A.6.6,0,0,1,21.73,31.39Z"/><path class="r" d="M35,22.56A12.5,12.5,0,1,1,22.44,10.18h.06A12.35,12.35,0,0,1,35,22.38Z"/><path class="s" d="M29.35,13.32a11.46,11.46,0,0,1,2.44,16.07,11.59,11.59,0,0,1-16.15,2.43A11.51,11.51,0,0,1,29.19,13.2Z"/><circle class="t" cx="15.83" cy="21.08" r="0.3"/></svg>