<svg xmlns="http://www.w3.org/2000/svg" xmlns:xlink="http://www.w3.org/1999/xlink" viewBox="0 0 45 45"><defs><linearGradient id="a" x1="533.58" x2="547.26" y1="8.05" y2="16.92" gradientTransform="translate(-527.98 10)" gradientUnits="userSpaceOnUse"><stop offset="0" stop-color="#fff"/><stop offset="1" stop-color="#fff" stop-opacity="0"/></linearGradient><linearGradient xlink:href="#a" id="b" x1="540.3" x2="542.41" y1="3.81" y2="7.16" gradientTransform="matrix(1.06 0 0 1.06 -556.93 12.05)"/><linearGradient xlink:href="#a" id="c" x1="539.13" x2="542.4" y1="2.27" y2="7.3" gradientTransform="matrix(1.06 0 0 1.06 -549.93 15.05)"/><linearGradient xlink:href="#a" id="d" x1="539.34" x2="542.71" y1="3.26" y2="6.67" gradientTransform="matrix(1.06 0 0 1.06 -563.93 15.05)"/><linearGradient xlink:href="#a" id="e" x1="541.33" x2="545.27" y1="10.16" y2="15.23" gradientTransform="translate(-529.98 10)"/><linearGradient xlink:href="#a" id="f" x1="568.04" x2="571.07" y1="19.4" y2="22.11" gradientTransform="matrix(.91 0 0 .91 -510.22 7.33)"/><linearGradient xlink:href="#a" id="g" x1="467.67" x2="471.67" y1="55.44" y2="59.74" gradientTransform="matrix(1.38 0 0 1.38 -630.86 -55.54)"/><linearGradient id="j" x1="-186.69" x2="-194.74" y1="32.27" y2="47.69" gradientTransform="matrix(.72 -.98 .98 .72 120.24 -191.73)" gradientUnits="userSpaceOnUse"><stop offset="0" stop-color="#fff9c6"/><stop offset=".54" stop-color="#fff28c"/><stop offset="1" stop-color="#ffea85"/></linearGradient><linearGradient xlink:href="#a" id="k" x1="518.22" x2="531.9" y1="15.88" y2="24.75" gradientTransform="translate(-497.98 10)"/><linearGradient xlink:href="#a" id="l" x1="524.94" x2="527.05" y1="11.65" y2="15" gradientTransform="matrix(1.06 0 0 1.06 -526.08 11.6)"/><linearGradient xlink:href="#a" id="m" x1="523.83" x2="527.1" y1="10.07" y2="15.1" gradientTransform="matrix(1.06 0 0 1.06 -519.08 14.6)"/><linearGradient xlink:href="#a" id="n" x1="523.99" x2="527.36" y1="11.1" y2="14.51" gradientTransform="matrix(1.06 0 0 1.06 -533.08 14.6)"/><linearGradient xlink:href="#a" id="o" x1="525.97" x2="529.91" y1="17.99" y2="23.05" gradientTransform="translate(-499.98 10)"/><linearGradient xlink:href="#a" id="p" x1="552.69" x2="555.71" y1="27.16" y2="29.87" gradientTransform="matrix(.91 0 0 .91 -481.64 8.08)"/><linearGradient xlink:href="#a" id="q" x1="454.27" x2="458.27" y1="62.33" y2="66.63" gradientTransform="matrix(1.38 0 0 1.38 -597.75 -57.2)"/><radialGradient id="h" cx="21.31" cy="11.16" r="18.71" gradientTransform="matrix(1.01 0 0 1.01 1.05 11.26)" gradientUnits="userSpaceOnUse"><stop offset="0" stop-color="#fff" stop-opacity="0"/><stop offset=".75" stop-color="#fff" stop-opacity="0"/><stop offset="1" stop-color="#fff"/></radialGradient><radialGradient id="i" cx="-112.37" cy="-202.4" r="9.28" gradientTransform="matrix(.89 1.54 -1.26 .81 -136.77 353.42)" gradientUnits="userSpaceOnUse"><stop offset="0" stop-color="#fff7c2" stop-opacity=".64"/><stop offset=".59" stop-color="#fcaf3e" stop-opacity=".18"/><stop offset=".84" stop-color="#fcaf3e" stop-opacity=".5"/><stop offset="1" stop-color="#fcaf3e"/></radialGradient><style>.a,.c{fill:#c4c5c2}.a{stroke:#888a85;stroke-miterlimit:2}.i{fill:#888a85;fill-rule:evenodd}</style></defs><path d="M15.21 13.19a4.83 4.83 0 0 0-4.6 3.5 4.28 4.28 0 0 0-2.2-.6A4.91 4.91 0 0 0 3.51 21a7.58 7.58 0 0 0 .3 1.6 4.36 4.36 0 0 0 2.1 8.2h18.6a4.44 4.44 0 0 0 4.4-4.4 4.38 4.38 0 0 0-2.3-3.8 4.15 4.15 0 0 0 .3-1.6 4.91 4.91 0 0 0-4.9-4.9 5.12 5.12 0 0 0-2.2.6 4.83 4.83 0 0 0-4.6-3.51Z" class="a"/><path d="M15.21 13.69c-2.1 0-3.6 1.3-4.3 3.8a6.31 6.31 0 0 0-2.3-.8A4.36 4.36 0 0 0 4 21.09a11.63 11.63 0 0 0 .4 1.8 3.93 3.93 0 0 0-2.4 3.3 4 4 0 0 0 4.2 4.2h17.9a4 4 0 0 0 4.2-4.2c0-1.6-1.1-2.6-2.4-3.3a5.34 5.34 0 0 0 .5-1.8 4.59 4.59 0 0 0-4.7-4.5 6.31 6.31 0 0 0-2.3.8 4.27 4.27 0 0 0-4.19-3.7Z" style="fill:url(#a)"/><path d="M18.61 18.09a3.4 3.4 0 1 1-3.4-3.4 3.37 3.37 0 0 1 3.4 3.4Z" class="c"/><path d="M18.61 18.09a3.4 3.4 0 1 1-3.4-3.4 3.37 3.37 0 0 1 3.4 3.4Z" style="fill:url(#b)"/><path d="M5.91 20.49h19.5v8.8H5.91z" class="c"/><path d="M8.81 26.39a2.9 2.9 0 1 1-2.9-2.9 2.9 2.9 0 0 1 2.9 2.9ZM25.41 21a3.4 3.4 0 1 1-3.4-3.4 3.37 3.37 0 0 1 3.4 3.4Z" class="c"/><path d="M25.41 21a3.4 3.4 0 1 1-3.4-3.4 3.37 3.37 0 0 1 3.4 3.4Z" style="fill:url(#c)"/><path d="M11.81 21a3.4 3.4 0 1 1-3.4-3.4 3.44 3.44 0 0 1 3.4 3.4Z" class="c"/><path d="M11.81 21a3.4 3.4 0 1 1-3.4-3.4 3.44 3.44 0 0 1 3.4 3.4Z" style="fill:url(#d)"/><path d="M14.21 17.59a6.34 6.34 0 0 0-6.3 6.3 6.11 6.11 0 0 0 3.2 5.3h6.3a6.27 6.27 0 0 0 3.2-5.4 6.48 6.48 0 0 0-6.4-6.2Z" class="c"/><path d="M14.21 17.59a6.25 6.25 0 0 0-3.1 11.7h6.3a6.27 6.27 0 0 0 3.2-5.4 6.49 6.49 0 0 0-6.4-6.3Z" style="fill:url(#e)"/><path d="M8.81 26.39a2.9 2.9 0 1 1-2.9-2.9 2.9 2.9 0 0 1 2.9 2.9Z" style="fill:url(#f)"/><path d="M27.31 21.19c0 2.6-3.2 3.6-3.2 3.6s2.3-1.6 2.3-3.6Z" class="i"/><path d="M22.52 25.39a3.89 3.89 0 1 1-3.88-3.89 3.85 3.85 0 0 1 3.88 3.89Z" class="c"/><path d="M22.52 25.39a3.89 3.89 0 1 1-3.88-3.89 3.85 3.85 0 0 1 3.88 3.89Z" style="fill:url(#g)"/><g style="opacity:.7"><path d="M22.5 1.5 20.2 8a17.85 17.85 0 0 1 2.3-.2 16.41 16.41 0 0 1 2.3.2ZM7.7 7.6l3 6.3a12.94 12.94 0 0 1 3.3-3.3Zm29.7 0-6.3 3a12.94 12.94 0 0 1 3.3 3.3ZM8 20.1l-6.5 2.3L8 24.8a16.41 16.41 0 0 1-.2-2.3 19.42 19.42 0 0 1 .2-2.4Zm29 .1a17.85 17.85 0 0 1 .2 2.3 16.41 16.41 0 0 1-.2 2.3l6.5-2.3ZM10.6 31.1l-3 6.3 6.3-3a17.19 17.19 0 0 1-3.3-3.3Zm23.8 0a14.76 14.76 0 0 1-3.3 3.3l6.3 3ZM20.2 37l2.3 6.5 2.3-6.5a17.85 17.85 0 0 1-2.3.2 16.41 16.41 0 0 1-2.3-.2Z" style="stroke-linecap:square;stroke:#fcaf3e;fill:#fce94f;stroke-width:.74px"/><path d="m22.5 4.2-1.3 3.7c.4 0 .9-.1 1.3-.1a5.7 5.7 0 0 1 1.3.1ZM9.6 9.6l1.7 3.5a17 17 0 0 1 1.9-1.9Zm25.8 0-3.5 1.7a17 17 0 0 1 1.9 1.9ZM7.9 21.2l-3.7 1.3 3.7 1.3c0-.4-.1-.9-.1-1.3s.1-.9.1-1.3Zm29.2 0c0 .4.1.9.1 1.3a5.7 5.7 0 0 1-.1 1.3l3.7-1.3Zm-3.3 10.7a17 17 0 0 1-1.9 1.9l3.5 1.7Zm-22.5 0-1.7 3.5 3.5-1.7a7.69 7.69 0 0 1-1.8-1.8Zm9.9 5.2 1.3 3.7 1.3-3.7c-.4 0-.9.1-1.3.1s-.9-.1-1.3-.1Z" style="stroke-width:.85px;stroke:url(#h);fill:none;stroke-linecap:square"/></g><path d="M29.7 12.6a12.23 12.23 0 1 1-17.1 2.6 12.26 12.26 0 0 1 17.1-2.6Z" style="fill:#ffee54;stroke-miterlimit:5.26;stroke-linecap:square;stroke:#fcaf3e"/><path d="M34 20.9a11.29 11.29 0 0 1-9.5 13.2A12.18 12.18 0 0 1 11 24a11.24 11.24 0 0 1 9.5-13.2A12.27 12.27 0 0 1 34 20.9Z" style="fill:url(#i)"/><path d="M29.1 13.4a11.23 11.23 0 1 1-15.7 2.4 11.21 11.21 0 0 1 15.7-2.4Z" style="stroke-miterlimit:4.84;stroke:url(#j);fill:none;stroke-linecap:square"/><path d="M29.81 21a4.83 4.83 0 0 0-4.6 3.5 4.28 4.28 0 0 0-2.2-.6 4.91 4.91 0 0 0-4.9 4.9 7.58 7.58 0 0 0 .3 1.6 4.36 4.36 0 0 0 2.1 8.2h18.6a4.44 4.44 0 0 0 4.4-4.4 4.38 4.38 0 0 0-2.3-3.8 4.15 4.15 0 0 0 .3-1.6 4.91 4.91 0 0 0-4.9-4.9 5.12 5.12 0 0 0-2.2.6 4.83 4.83 0 0 0-4.6-3.5Z" class="a"/><path d="M29.81 21.49c-2.1 0-3.6 1.3-4.3 3.8a6.31 6.31 0 0 0-2.3-.8 4.36 4.36 0 0 0-4.6 4.4 11.63 11.63 0 0 0 .4 1.8 3.93 3.93 0 0 0-2.4 3.3 4 4 0 0 0 4.2 4.2h17.9a4 4 0 0 0 4.2-4.2c0-1.6-1.1-2.6-2.4-3.3a5.34 5.34 0 0 0 .5-1.8 4.59 4.59 0 0 0-4.7-4.5 6.31 6.31 0 0 0-2.3.8c-.5-2.3-2.01-3.7-4.2-3.7Z" style="fill:url(#k)"/><path d="M33.21 25.89a3.4 3.4 0 1 1-3.4-3.4 3.37 3.37 0 0 1 3.4 3.4Z" class="c"/><path d="M33.21 25.89a3.4 3.4 0 1 1-3.4-3.4 3.37 3.37 0 0 1 3.4 3.4Z" style="fill:url(#l)"/><path d="M20.51 28.39h19.5v8.8h-19.5z" class="c"/><path d="M23.51 34.19a2.9 2.9 0 1 1-2.9-2.9 2.9 2.9 0 0 1 2.9 2.9ZM40.11 28.79a3.4 3.4 0 1 1-3.4-3.4 3.44 3.44 0 0 1 3.4 3.4Z" class="c"/><path d="M40.11 28.79a3.4 3.4 0 1 1-3.4-3.4 3.44 3.44 0 0 1 3.4 3.4Z" style="fill:url(#m)"/><path d="M26.41 28.79a3.4 3.4 0 1 1-3.4-3.4 3.44 3.44 0 0 1 3.4 3.4Z" class="c"/><path d="M26.41 28.79a3.4 3.4 0 1 1-3.4-3.4 3.44 3.44 0 0 1 3.4 3.4Z" style="fill:url(#n)"/><path d="M28.81 25.49a6.34 6.34 0 0 0-6.3 6.3 6.11 6.11 0 0 0 3.2 5.3H32a6.27 6.27 0 0 0 3.2-5.4 6.34 6.34 0 0 0-6.39-6.2Z" class="c"/><path d="M28.81 25.39a6.25 6.25 0 0 0-3.1 11.7H32a6.27 6.27 0 0 0 3.2-5.4 6.43 6.43 0 0 0-6.39-6.3Z" style="fill:url(#o)"/><path d="M23.51 34.19a2.9 2.9 0 1 1-2.9-2.9 2.9 2.9 0 0 1 2.9 2.9Z" style="fill:url(#p)"/><path d="M42 29c0 2.6-3.2 3.6-3.2 3.6s2.3-1.6 2.3-3.6Z" class="i"/><path d="M37.18 33.27a3.89 3.89 0 1 1-3.88-3.88 3.85 3.85 0 0 1 3.88 3.88Z" class="c"/><path d="M37.18 33.27a3.89 3.89 0 1 1-3.88-3.88 3.85 3.85 0 0 1 3.88 3.88Z" style="fill:url(#q)"/></svg>