<svg xmlns="http://www.w3.org/2000/svg" xmlns:xlink="http://www.w3.org/1999/xlink" viewBox="0 0 45 45"><defs><linearGradient id="a" x1="801.1" x2="838.9" y1="234.2" y2="221.2" gradientTransform="matrix(1 0 0 -1 -792 240)" gradientUnits="userSpaceOnUse"><stop offset="0" stop-color="#fff"/><stop offset="1" stop-color="#fff" stop-opacity="0"/></linearGradient><linearGradient xlink:href="#a" id="b" x1="849.7" x2="855.4" y1="208.2" y2="203.3" gradientTransform="matrix(.88 0 0 -.88 -730.7 188)"/><linearGradient xlink:href="#a" id="c" x1="846.1" x2="852" y1="213.3" y2="207.3" gradientTransform="matrix(.91 0 0 -.91 -745 201.4)"/><linearGradient xlink:href="#a" id="d" x1="768" x2="772.4" y1="257.2" y2="253.7" gradientTransform="matrix(1.14 0 0 -1.14 -867.4 301.4)"/><linearGradient xlink:href="#a" id="e" x1="799.2" x2="806.9" y1="236.7" y2="230.9" gradientTransform="matrix(1.04 0 0 -1.04 -812.5 256.1)"/><linearGradient id="f" x1="-609.2" x2="-610.3" y1="170.5" y2="157.8" gradientTransform="matrix(1 0 0 -1 640.4 200.7)" gradientUnits="userSpaceOnUse"><stop offset="0" stop-color="#fcaf3e"/><stop offset="1" stop-color="#fcaf3e" stop-opacity="0"/></linearGradient><linearGradient xlink:href="#a" id="g" x1="-607" x2="-612.7" y1="172.6" y2="168.6" gradientTransform="matrix(1 0 0 -1 640.7 205)"/><linearGradient xlink:href="#a" id="h" x1="699.3" x2="713.3" y1="282.5" y2="273.4" gradientTransform="matrix(1 0 0 -1 -679 300)"/><linearGradient xlink:href="#a" id="i" x1="700.6" x2="702.8" y1="292.3" y2="288.9" gradientTransform="matrix(1.06 0 0 -1.06 -711.5 324.3)"/><linearGradient xlink:href="#a" id="j" x1="699.6" x2="702.9" y1="293.8" y2="288.6" gradientTransform="matrix(1.06 0 0 -1.06 -704.5 327.3)"/><linearGradient xlink:href="#a" id="k" x1="699.5" x2="702.9" y1="292.8" y2="289.3" gradientTransform="matrix(1.06 0 0 -1.06 -718.5 327.3)"/><linearGradient xlink:href="#a" id="l" x1="706.1" x2="710.1" y1="280.3" y2="275.1" gradientTransform="matrix(1 0 0 -1 -680 300)"/><linearGradient xlink:href="#a" id="m" x1="744.3" x2="747.4" y1="260.3" y2="257.5" gradientTransform="matrix(.91 0 0 -.91 -655.3 260.3)"/><linearGradient xlink:href="#a" id="n" x1="665.1" x2="669.2" y1="317.9" y2="313.5" gradientTransform="matrix(1.21 0 0 -1.21 -773.8 404.3)"/><linearGradient xlink:href="#f" id="o" x1="-577.2" x2="-578.3" y1="170.1" y2="157.3" gradientTransform="matrix(1 0 0 -1 592.4 197.7)"/><linearGradient xlink:href="#a" id="p" x1="-575" x2="-580.7" y1="172.1" y2="168.1" gradientTransform="matrix(1 0 0 -1 592.7 202)"/><linearGradient xlink:href="#a" id="r" x1="729.3" x2="743.3" y1="282.5" y2="273.4" gradientTransform="matrix(1 0 0 -1 -724 296)"/><linearGradient xlink:href="#a" id="s" x1="730.6" x2="732.8" y1="292.3" y2="288.9" gradientTransform="matrix(1.06 0 0 -1.06 -758.3 320.3)"/><linearGradient xlink:href="#a" id="t" x1="729.6" x2="733" y1="293.8" y2="288.6" gradientTransform="matrix(1.06 0 0 -1.06 -751.3 323.3)"/><linearGradient xlink:href="#a" id="u" x1="729.5" x2="733" y1="292.8" y2="289.3" gradientTransform="matrix(1.06 0 0 -1.06 -765.3 323.3)"/><linearGradient xlink:href="#a" id="v" x1="736.1" x2="740.1" y1="280.3" y2="275.1" gradientTransform="matrix(1 0 0 -1 -725 296)"/><linearGradient xlink:href="#a" id="w" x1="774.4" x2="777.5" y1="260.3" y2="257.5" gradientTransform="matrix(.91 0 0 -.91 -697.5 256.2)"/><linearGradient xlink:href="#a" id="x" x1="695.1" x2="699.2" y1="317.9" y2="313.5" gradientTransform="matrix(1.21 0 0 -1.21 -825 400.3)"/><linearGradient xlink:href="#a" id="aa" x1="328.5" x2="349.1" y1="3502.1" y2="3523.6" gradientTransform="matrix(-.05 .1 .09 .06 -302.3 -217)"/><linearGradient xlink:href="#a" id="ac" x1="216.9" x2="237.4" y1="3460.4" y2="3481.9" gradientTransform="matrix(-.05 .1 .09 .06 -276.4 -204)"/><linearGradient xlink:href="#a" id="ad" x1="21" x2="22.8" y1="29.8" y2="31.7" gradientTransform="translate(0 10)"/><radialGradient xlink:href="#a" id="q" cx="-210.3" cy="-61.5" r="14.5" gradientTransform="matrix(.93 0 0 -.45 225.8 1.2)"/><radialGradient xlink:href="#a" id="y" cx="-210.3" cy="-61.5" r="14.5" gradientTransform="matrix(.93 0 0 -.45 210.4 -2.8)"/><radialGradient xlink:href="#a" id="z" cx="4353" cy="177.2" r="21.7" gradientTransform="matrix(.07 .04 .06 -.11 -312.7 -133.9)"/><radialGradient xlink:href="#a" id="ab" cx="4236.3" cy="228" r="21.7" gradientTransform="matrix(.07 .04 .06 -.11 -279.6 -124.5)"/><style>.q{fill:#555753}.c,.j{fill:#888a85}.q{fill-rule:evenodd}.j{stroke:#555753}.ad,.j{stroke-miterlimit:2}.ad{fill:#729fcf;stroke:#204a87;stroke-width:1.07px}</style></defs><path d="M23 0a7.5 7.5 0 0 0-6.4 3.8 6.5 6.5 0 0 0-3.1-.8 7 7 0 0 0 0 14 6.9 6.9 0 0 0 5.7-3.2A7.1 7.1 0 0 0 23 15a7.5 7.5 0 0 0 2.6-.5 7 7 0 0 0 2 2.2l-.1.4a7 7 0 0 0 14 0 6.7 6.7 0 0 0-3.1-5.6l.1-.4a7 7 0 0 0-7-7 5.8 5.8 0 0 0-1.8.4A7.2 7.2 0 0 0 23 0Z" style="fill:#555753"/><path d="M23 1a6.7 6.7 0 0 0-6.1 4.2A5.8 5.8 0 0 0 13.5 4a6 6 0 1 0 5.4 8.5A6.4 6.4 0 0 0 23 14a5.7 5.7 0 0 0 2.9-.8 5.7 5.7 0 0 0 1.9 2.4 5.8 5.8 0 0 0-.4 1.8 6.5 6.5 0 1 0 9.8-5.5 3.5 3.5 0 0 0 .2-1A6 6 0 0 0 29 5.4 6.2 6.2 0 0 0 23 1Z" style="fill:url(#a)"/><path d="M40.5 17.5a6.5 6.5 0 0 1-13 0 6.5 6.5 0 0 1 13 0ZM28.5 7.5a5.5 5.5 0 0 1-11 0 5.5 5.5 0 0 1 11 0Z" class="c"/><path d="M28.5 7.5a5.5 5.5 0 0 1-11 0 5.5 5.5 0 0 1 11 0Z" style="fill:url(#b);isolation:isolate;opacity:.49"/><path d="M36.5 11.5a5.5 5.5 0 1 1-11 0 5.5 5.5 0 1 1 11 0Z" class="c"/><path d="M36.5 11.5a5.5 5.5 0 1 1-11 0 5.5 5.5 0 1 1 11 0Z" style="fill:url(#c);isolation:isolate;opacity:.49"/><path d="M18.5 10a5 5 0 1 1-5-5 5 5 0 0 1 5 5Z" class="c"/><path d="M18.5 10a5 5 0 1 1-5-5 5 5 0 0 1 5 5Z" style="fill:url(#d);isolation:isolate;opacity:.49"/><path d="M29.5 14a7 7 0 0 1-14 0 7 7 0 0 1 14 0Z" class="c"/><path d="M29.5 14a7 7 0 0 1-14 0 7 7 0 0 1 14 0Z" style="fill:url(#e);isolation:isolate;opacity:.49"/><path d="M35.2 27.8 32 32h3.8L28.3 45c2-8 3-11 3-11H26l4-6.2Z" style="stroke:url(#f);fill-rule:evenodd;fill:#edd400"/><path d="M34.7 27.6 31 32.8l4-.2s-.1.5-5 8.9l2.1-8h-4.9l3.7-5.6Z" style="fill:url(#g);fill-rule:evenodd"/><path d="M30 12.5a5 5 0 0 0-4.7 3.6 4.4 4.4 0 0 0-2.3-.6 5 5 0 0 0-5 5 7.6 7.6 0 0 0 .3 1.6A4.4 4.4 0 0 0 16 26a4.5 4.5 0 0 0 4.5 4.5h19A4.5 4.5 0 0 0 44 26a4.6 4.6 0 0 0-2.3-3.9 4.2 4.2 0 0 0 .3-1.6 5 5 0 0 0-5-5 6 6 0 0 0-2.3.6 4.9 4.9 0 0 0-4.7-3.6Z" class="j"/><path d="M30 13c-2.2 0-3.7 1.3-4.4 3.8a6.2 6.2 0 0 0-2.4-.8 4.6 4.6 0 0 0-4.8 4.5 11.6 11.6 0 0 0 .4 1.8 4 4 0 0 0 1.9 7.7H39a4 4 0 0 0 4.3-4.3 4 4 0 0 0-2.4-3.4 6 6 0 0 0 .5-1.8 4.6 4.6 0 0 0-4.8-4.6 6.3 6.3 0 0 0-2.3.8A4.3 4.3 0 0 0 30 13Z" style="fill:url(#h)"/><path d="M33.5 17.5A3.5 3.5 0 1 1 30 14a3.5 3.5 0 0 1 3.5 3.5Z" class="c"/><path d="M33.5 17.5A3.5 3.5 0 1 1 30 14a3.5 3.5 0 0 1 3.5 3.5Z" style="fill:url(#i);opacity:.48;isolation:isolate"/><path d="M20.5 20h20v9h-20z" class="c"/><path d="M23.5 26a3 3 0 1 1-3-3 3 3 0 0 1 3 3ZM40.5 20.5A3.5 3.5 0 1 1 37 17a3.5 3.5 0 0 1 3.5 3.5Z" class="c"/><path d="M40.5 20.5A3.5 3.5 0 1 1 37 17a3.5 3.5 0 0 1 3.5 3.5Z" style="fill:url(#j);opacity:.48;isolation:isolate"/><path d="M26.5 20.5A3.5 3.5 0 1 1 23 17a3.5 3.5 0 0 1 3.5 3.5Z" class="c"/><path d="M26.5 20.5A3.5 3.5 0 1 1 23 17a3.5 3.5 0 0 1 3.5 3.5Z" style="fill:url(#k);opacity:.48;isolation:isolate"/><path d="M29 17a6.5 6.5 0 0 0-6.5 6.5 6.3 6.3 0 0 0 3.3 5.5h6.5a6.4 6.4 0 0 0 3.3-5.5A6.6 6.6 0 0 0 29 17Z" class="c"/><path d="M29 17a6.5 6.5 0 0 0-6.5 6.5 6.2 6.2 0 0 0 3.3 5.5h6.5a6.4 6.4 0 0 0 3.3-5.5A6.6 6.6 0 0 0 29 17Z" style="fill:url(#l);opacity:.48;isolation:isolate"/><path d="M23.5 26a3 3 0 1 1-3-3 3 3 0 0 1 3 3Z" style="fill:url(#m);opacity:.48;isolation:isolate"/><path d="M42.5 20.7c0 2.7-3.3 3.7-3.3 3.7s2.3-1.6 2.3-3.7Z" class="q"/><path d="M37.5 25a4 4 0 1 1-4-4 4 4 0 0 1 4 4Z" class="c"/><path d="M37.5 25a4 4 0 1 1-4-4 4 4 0 0 1 4 4Z" style="fill:url(#n);opacity:.48;isolation:isolate"/><path d="M19.2 25.3 16 29.6h3.8l-7.6 12.9c2-8 3-11 3-11H10l4-6.2Z" style="stroke:url(#o);fill-rule:evenodd;fill:#edd400"/><path d="M18.7 25 15 30.4l4-.2s-.1.5-5 8.9l2.1-8h-4.9l3.7-5.6Z" style="fill:url(#p);fill-rule:evenodd"/><path d="M30.2 13a5 5 0 0 0-4.5 2.6 5.8 5.8 0 0 0-1.9-.4 5 5 0 0 0-5.1 4.7 2.8 2.8 0 0 0 .3 1.3 4.7 4.7 0 0 0-2.5 4c0 2.7.7 5 5.2 4.8h17.7c3.1.2 4.1-2.4 4.1-4.7a4.3 4.3 0 0 0-2.3-3.9v-.8a5 5 0 0 0-5.1-4.7 4.3 4.3 0 0 0-1.1.2 5.2 5.2 0 0 0-4.8-3.1Z" style="fill:url(#q)"/><path d="M15 8.5a5 5 0 0 0-4.7 3.6 4.4 4.4 0 0 0-2.3-.6 5 5 0 0 0-5 5 7.6 7.6 0 0 0 .3 1.6A4.4 4.4 0 0 0 1 22a4.5 4.5 0 0 0 4.5 4.5h19A4.5 4.5 0 0 0 29 22a4.6 4.6 0 0 0-2.3-3.9 4.2 4.2 0 0 0 .3-1.6 5 5 0 0 0-5-5 6 6 0 0 0-2.3.6A4.9 4.9 0 0 0 15 8.5Z" class="j"/><path d="M15 9c-2.2 0-3.7 1.3-4.4 3.8a6.2 6.2 0 0 0-2.4-.8 4.6 4.6 0 0 0-4.8 4.5 11.6 11.6 0 0 0 .4 1.8A4 4 0 0 0 5.7 26H24a4 4 0 0 0 4.3-4.3 4 4 0 0 0-2.4-3.4 6 6 0 0 0 .5-1.8 4.6 4.6 0 0 0-4.8-4.6 6.3 6.3 0 0 0-2.3.8A4.3 4.3 0 0 0 15 9Z" style="fill:url(#r)"/><path d="M18.5 13.5A3.5 3.5 0 1 1 15 10a3.5 3.5 0 0 1 3.5 3.5Z" class="c"/><path d="M18.5 13.5A3.5 3.5 0 1 1 15 10a3.5 3.5 0 0 1 3.5 3.5Z" style="fill:url(#s);opacity:.48;isolation:isolate"/><path d="M5.5 16h20v9h-20z" class="c"/><path d="M8.5 22a3 3 0 0 1-3 3 3 3 0 0 1 0-6 3 3 0 0 1 3 3ZM25.5 16.5A3.5 3.5 0 1 1 22 13a3.5 3.5 0 0 1 3.5 3.5Z" class="c"/><path d="M25.5 16.5A3.5 3.5 0 1 1 22 13a3.5 3.5 0 0 1 3.5 3.5Z" style="fill:url(#t);opacity:.48;isolation:isolate"/><path d="M11.5 16.5A3.5 3.5 0 0 1 8 20a3.5 3.5 0 0 1 0-7 3.5 3.5 0 0 1 3.5 3.5Z" class="c"/><path d="M11.5 16.5A3.5 3.5 0 0 1 8 20a3.5 3.5 0 0 1 0-7 3.5 3.5 0 0 1 3.5 3.5Z" style="fill:url(#u);opacity:.48;isolation:isolate"/><path d="M14 13a6.5 6.5 0 0 0-6.5 6.5 6.3 6.3 0 0 0 3.3 5.5h6.5a6.4 6.4 0 0 0 3.3-5.5A6.6 6.6 0 0 0 14 13Z" class="c"/><path d="M14 13a6.5 6.5 0 0 0-6.5 6.5 6.2 6.2 0 0 0 3.3 5.5h6.5a6.4 6.4 0 0 0 3.3-5.5A6.6 6.6 0 0 0 14 13Z" style="fill:url(#v);opacity:.48;isolation:isolate"/><path d="M8.5 22a3 3 0 0 1-3 3 3 3 0 0 1 0-6 3 3 0 0 1 3 3Z" style="fill:url(#w);opacity:.48;isolation:isolate"/><path d="M27.5 16.7c0 2.7-3.3 3.7-3.3 3.7s2.3-1.6 2.3-3.7Z" class="q"/><path d="M22.5 21a4 4 0 1 1-4-4 4 4 0 0 1 4 4Z" class="c"/><path d="M22.5 21a4 4 0 1 1-4-4 4 4 0 0 1 4 4Z" style="fill:url(#x);opacity:.48;isolation:isolate"/><path d="M14.7 9a5 5 0 0 0-4.5 2.6 5.8 5.8 0 0 0-1.9-.4 5 5 0 0 0-5.1 4.7 2.8 2.8 0 0 0 .3 1.3 4.7 4.7 0 0 0-2.3 3.9c0 2.7.7 5 5.2 4.8h17.7c3.1.2 4.1-2.4 4.1-4.7a4.3 4.3 0 0 0-2.3-3.9v-.8a5 5 0 0 0-5.1-4.7 4.3 4.3 0 0 0-1.1.2 5.7 5.7 0 0 0-5-3Z" style="fill:url(#y)"/><path d="M4.8 29.6a2.1 2.1 0 0 1-.8-2.9c1.3-2 3-1.5 4-3.7 1.3 1.3.8 8.2-3.3 6.6Z" class="ad"/><path d="M7.5 28.5a1.7 1.7 0 0 1-2.4.7 1.9 1.9 0 0 1-.6-2.5c.5-.9 2.6-.5 3.3-2.3.8.5.2 3.2-.3 4.1Z" style="fill:url(#z);opacity:.46;isolation:isolate"/><path d="M6.2 29.4c-4.6-1 .2-4.7 1-3.9-3.7 1.3-1 4-1 4Z" style="fill:url(#aa)"/><path d="M32.7 28.6a2.1 2.1 0 0 1-.8-2.9c1.3-2 3.1-1.5 4-3.7 1.3 1.3.8 8.2-3.2 6.6Z" class="ad"/><path d="M35.4 27.5a1.7 1.7 0 0 1-2.4.7 1.9 1.9 0 0 1-.6-2.5c.5-.9 2.6-.5 3.3-2.3.8.5.2 3.2-.3 4.1Z" style="fill:url(#ab);opacity:.46;isolation:isolate"/><path d="M34.1 28.4c-4.6-1 .2-4.7 1-3.9-3.6 1.3-1 4-1 4Z" style="fill:url(#ac)"/><path d="M23.1 38.8h-3l-1.5 2.6 1.5 2.6h3l1.5-2.6-1.5-2.6z" style="fill:#c8e1ff;stroke:#729fcf;stroke-width:1.07px;stroke-miterlimit:2"/><path d="M23.2 40.2h-1.4l-.7 1.2.7 1.2h1.4l.7-1.2-.7-1.2z" style="fill:url(#ad)"/></svg>