<svg xmlns="http://www.w3.org/2000/svg" xml:space="preserve" id="svg1306" x="0" y="0" style="enable-background:new 0 0 45 45" version="1.1" viewBox="0 0 45 45"><style>.st0{fill:#729fcf;stroke:#3465a4;stroke-width:1.082;stroke-linejoin:round;stroke-miterlimit:1}.st11,.st6{fill:#888a85}.st11{stroke:#555753;stroke-width:.9992;stroke-miterlimit:1.9981}.st18{fill-rule:evenodd;clip-rule:evenodd;fill:#555753}</style><g id="layer1_28_"><g id="g11337_6_" transform="translate(-340 245)"><path id="rect6086_6_" d="M355.7-218.8h2.2c1.3 0 2 .5 1.4 1.2L349.1-204c-.5.7-2 1.2-3.3 1.2h-2.2c-1.3 0-2-.5-1.4-1.2l10.2-13.6c.5-.7 1.9-1.2 3.3-1.2z" class="st0"/><linearGradient id="rect6088_1_" x1="1086.9" x2="1091.6" y1="-127.8" y2="-127.8" gradientTransform="matrix(1.088 0 .544 -.675 -765.5 -297)" gradientUnits="userSpaceOnUse"><stop offset="0" style="stop-color:#fff"/><stop offset="1" style="stop-color:#fff;stop-opacity:0"/></linearGradient><path id="rect6088_6_" d="M352.6-217c.6-.8 2.1-1.3 3.1-1.3h2.1c1.3 0 1 .5.5 1.1l-9.6 12.7c-.3.4-1.5 1.1-3 1.1h-2s-1.7.1-.6-1.1l9.5-12.5z" style="fill:url(#rect6088_1_)"/></g><g id="g11337_7_" transform="translate(-340 245)"><path id="rect6086_7_" d="M366.7-218.8h2.2c1.3 0 2 .5 1.4 1.2L360.1-204c-.5.7-2 1.2-3.3 1.2h-2.2c-1.3 0-2-.5-1.4-1.2l10.2-13.6c.5-.7 1.9-1.2 3.3-1.2z" class="st0"/><linearGradient id="rect6088_2_" x1="1097" x2="1101.7" y1="-127.8" y2="-127.8" gradientTransform="matrix(1.088 0 .544 -.675 -765.5 -297)" gradientUnits="userSpaceOnUse"><stop offset="0" style="stop-color:#fff"/><stop offset="1" style="stop-color:#fff;stop-opacity:0"/></linearGradient><path id="rect6088_7_" d="M363.6-217c.6-.8 2.1-1.3 3.1-1.3h2.1c1.3 0 1 .5.5 1.1l-9.6 12.7c-.3.4-1.5 1.1-3 1.1h-2s-1.7.1-.6-1.1l9.5-12.5z" style="fill:url(#rect6088_2_)"/></g><g id="g11337_8_" transform="translate(-340 245)"><path id="rect6086_8_" d="M377.7-218.8h2.2c1.3 0 2 .5 1.4 1.2L371.1-204c-.5.7-2 1.2-3.3 1.2h-2.2c-1.3 0-2-.5-1.4-1.2l10.2-13.6c.5-.7 1.9-1.2 3.3-1.2z" class="st0"/><linearGradient id="rect6088_3_" x1="1107.1" x2="1111.8" y1="-127.8" y2="-127.8" gradientTransform="matrix(1.088 0 .544 -.675 -765.5 -297)" gradientUnits="userSpaceOnUse"><stop offset="0" style="stop-color:#fff"/><stop offset="1" style="stop-color:#fff;stop-opacity:0"/></linearGradient><path id="rect6088_8_" d="M374.6-217c.6-.8 2.1-1.3 3.1-1.3h2.1c1.3 0 1 .5.5 1.1l-9.6 12.7c-.3.4-1.5 1.1-3 1.1h-2s-1.7.1-.6-1.1l9.5-12.5z" style="fill:url(#rect6088_3_)"/></g><g id="g13213_2_" transform="matrix(1 0 0 1 -286.9 245)"><g id="g13215_2_"><path id="path13217_2_" d="M310-243.3a7.4 7.4 0 0 0-6.4 3.8c-.9-.5-2-.8-3.1-.8-3.9 0-7 3.1-7 7s3.1 7 7 7c2.4 0 4.4-1.3 5.7-3.2 1.1.7 2.4 1.2 3.8 1.2.9 0 1.8-.2 2.6-.5a7 7 0 0 0 2 2.2l-.1.4c0 3.9 3.1 7 7 7s7-3.1 7-7c0-2.4-1.3-4.4-3.1-5.6l.1-.4a7 7 0 0 0-7-7c-.6 0-1.2.2-1.8.4a7.3 7.3 0 0 0-6.7-4.5z" style="fill:#555753"/><linearGradient id="path13219_1_" x1="1088.5" x2="1126.3" y1="-12.5" y2="-25.5" gradientTransform="matrix(1 0 0 -1 -791.5 -250)" gradientUnits="userSpaceOnUse"><stop offset="0" style="stop-color:#fff"/><stop offset="1" style="stop-color:#fff;stop-opacity:0"/></linearGradient><path id="path13219_2_" d="M310-242.3a6.7 6.7 0 0 0-6.1 4.2c-1-.7-2.1-1.2-3.4-1.2a6 6 0 0 0-6 6 6 6 0 0 0 6 6 6 6 0 0 0 5.4-3.5c1.1.9 2.5 1.5 4.1 1.5 1.1 0 2-.3 2.9-.8.4 1 1.1 1.8 1.9 2.4-.2.6-.4 1.2-.4 1.8a6.5 6.5 0 1 0 13 0c0-2.4-1.3-4.3-3.2-5.5l.2-1a6 6 0 0 0-8.4-5.5 6.3 6.3 0 0 0-6-4.4z" style="fill:url(#path13219_1_)"/><path id="path13221_2_" d="M327.5-225.8a6.5 6.5 0 1 1-13 0 6.5 6.5 0 1 1 13 0z" class="st6"/><g id="g13223_2_"><path id="path13225_2_" d="M315.5-235.8c0 3-2.5 5.5-5.5 5.5s-5.5-2.5-5.5-5.5 2.5-5.5 5.5-5.5 5.5 2.5 5.5 5.5z" class="st6"/><linearGradient id="path13227_1_" x1="1140.9" x2="1146.7" y1="-53.1" y2="-58" gradientTransform="matrix(.882 0 0 -.883 -699.8 -285.9)" gradientUnits="userSpaceOnUse"><stop offset="0" style="stop-color:#fff"/><stop offset="1" style="stop-color:#fff;stop-opacity:0"/></linearGradient><path id="path13227_2_" d="M315.5-235.8c0 3-2.5 5.5-5.5 5.5s-5.5-2.5-5.5-5.5 2.5-5.5 5.5-5.5 5.5 2.5 5.5 5.5z" style="opacity:.4944;fill:url(#path13227_1_);enable-background:new"/></g><g id="g13229_2_"><path id="path13231_2_" d="M323.5-231.8c0 3-2.5 5.5-5.5 5.5s-5.5-2.5-5.5-5.5 2.5-5.5 5.5-5.5 5.5 2.5 5.5 5.5z" class="st6"/><linearGradient id="path13233_1_" x1="1136.3" x2="1142.2" y1="-44" y2="-50" gradientTransform="matrix(.91 0 0 -.912 -721.5 -276.5)" gradientUnits="userSpaceOnUse"><stop offset="0" style="stop-color:#fff"/><stop offset="1" style="stop-color:#fff;stop-opacity:0"/></linearGradient><path id="path13233_2_" d="M323.5-231.8c0 3-2.5 5.5-5.5 5.5s-5.5-2.5-5.5-5.5 2.5-5.5 5.5-5.5 5.5 2.5 5.5 5.5z" style="opacity:.4944;fill:url(#path13233_1_);enable-background:new"/></g><g id="g13235_2_"><path id="path13237_2_" d="M305.5-233.3c0 2.8-2.2 5-5 5s-5-2.2-5-5 2.2-5 5-5 5 2.2 5 5z" class="st6"/><linearGradient id="path13239_1_" x1="1051.9" x2="1056.3" y1="24.2" y2="20.8" gradientTransform="matrix(1.142 0 0 -1.143 -903.7 -208.1)" gradientUnits="userSpaceOnUse"><stop offset="0" style="stop-color:#fff"/><stop offset="1" style="stop-color:#fff;stop-opacity:0"/></linearGradient><path id="path13239_2_" d="M305.5-233.3c0 2.8-2.2 5-5 5s-5-2.2-5-5 2.2-5 5-5 5 2.2 5 5z" style="opacity:.4944;fill:url(#path13239_1_);enable-background:new"/></g><g id="g13241_2_"><path id="path13243_2_" d="M316.5-229.3c0 3.9-3.1 7-7 7s-7-3.1-7-7a7 7 0 0 1 7-7 7 7 0 0 1 7 7z" class="st6"/><linearGradient id="path13245_1_" x1="1085.6" x2="1093.2" y1="-5.9" y2="-11.7" gradientTransform="matrix(1.038 0 0 -1.039 -821.9 -239.1)" gradientUnits="userSpaceOnUse"><stop offset="0" style="stop-color:#fff"/><stop offset="1" style="stop-color:#fff;stop-opacity:0"/></linearGradient><path id="path13245_2_" d="M316.5-229.3c0 3.9-3.1 7-7 7s-7-3.1-7-7a7 7 0 0 1 7-7 7 7 0 0 1 7 7z" style="opacity:.4944;fill:url(#path13245_1_);enable-background:new"/></g></g><g id="g13247_2_" transform="translate(72 8)"><path id="path13249_2_" d="M245-238.8a5 5 0 0 0-4.7 3.6 5 5 0 0 0-7.3 4.4c0 .6.2 1.1.3 1.6a4.5 4.5 0 0 0 2.2 8.4h19c2.5 0 4.5-2 4.5-4.5 0-1.7-1-3.1-2.3-3.9a5 5 0 0 0-4.7-6.6 6 6 0 0 0-2.3.6 5 5 0 0 0-4.7-3.6z" class="st11"/><linearGradient id="path13251_1_" x1="914.7" x2="928.7" y1="27.8" y2="18.7" gradientTransform="matrix(1 0 0 -1 -678.6 -206)" gradientUnits="userSpaceOnUse"><stop offset="0" style="stop-color:#fff"/><stop offset="1" style="stop-color:#fff;stop-opacity:0"/></linearGradient><path id="path13251_2_" d="M245-238.3c-2.2 0-3.7 1.3-4.4 3.8-.7-.3-1.5-.8-2.4-.8-2.7 0-4.8 1.9-4.8 4.5 0 .5.3 1.3.4 1.8-1.3.7-2.4 1.9-2.4 3.4 0 2.3 1.5 4.3 4.3 4.3H254c2.8 0 4.3-1.9 4.3-4.3 0-1.6-1.1-2.7-2.4-3.4a6 6 0 0 0 .5-1.8c0-2.6-2.1-4.6-4.8-4.6-.8 0-1.6.5-2.3.8-.5-2.3-2.1-3.7-4.3-3.7z" style="fill:url(#path13251_1_)"/><path id="path13253_2_" d="M248.5-233.8c0 1.9-1.6 3.5-3.5 3.5s-3.5-1.6-3.5-3.5 1.6-3.5 3.5-3.5 3.5 1.6 3.5 3.5z" class="st6"/><linearGradient id="path13255_1_" x1="914.5" x2="916.7" y1="43.4" y2="40" gradientTransform="matrix(1.056 0 0 -1.057 -721.7 -190)" gradientUnits="userSpaceOnUse"><stop offset="0" style="stop-color:#fff"/><stop offset="1" style="stop-color:#fff;stop-opacity:0"/></linearGradient><path id="path13255_2_" d="M248.5-233.8c0 1.9-1.6 3.5-3.5 3.5s-3.5-1.6-3.5-3.5 1.6-3.5 3.5-3.5 3.5 1.6 3.5 3.5z" style="opacity:.4778;fill:url(#path13255_1_);enable-background:new"/><path id="rect13257_2_" d="M235.5-231.3h20v9h-20z" class="st6"/><path id="path13259_2_" d="M238.5-225.3c0 1.7-1.3 3-3 3s-3-1.3-3-3 1.3-3 3-3a3 3 0 0 1 3 3z" class="st6"/><path id="path13261_2_" d="M255.5-230.8c0 1.9-1.6 3.5-3.5 3.5s-3.5-1.6-3.5-3.5 1.6-3.5 3.5-3.5 3.5 1.6 3.5 3.5z" class="st6"/><linearGradient id="path13263_1_" x1="913.5" x2="916.9" y1="44.9" y2="39.8" gradientTransform="matrix(1.056 0 0 -1.057 -714.7 -187)" gradientUnits="userSpaceOnUse"><stop offset="0" style="stop-color:#fff"/><stop offset="1" style="stop-color:#fff;stop-opacity:0"/></linearGradient><path id="path13263_2_" d="M255.5-230.8c0 1.9-1.6 3.5-3.5 3.5s-3.5-1.6-3.5-3.5 1.6-3.5 3.5-3.5 3.5 1.6 3.5 3.5z" style="opacity:.4778;fill:url(#path13263_1_);enable-background:new"/><path id="path13265_2_" d="M241.5-230.8c0 1.9-1.6 3.5-3.5 3.5s-3.5-1.6-3.5-3.5 1.6-3.5 3.5-3.5 3.5 1.6 3.5 3.5z" class="st6"/><linearGradient id="path13267_1_" x1="913.4" x2="916.8" y1="43.9" y2="40.4" gradientTransform="matrix(1.056 0 0 -1.057 -728.7 -187)" gradientUnits="userSpaceOnUse"><stop offset="0" style="stop-color:#fff"/><stop offset="1" style="stop-color:#fff;stop-opacity:0"/></linearGradient><path id="path13267_2_" d="M241.5-230.8c0 1.9-1.6 3.5-3.5 3.5s-3.5-1.6-3.5-3.5 1.6-3.5 3.5-3.5 3.5 1.6 3.5 3.5z" style="opacity:.4778;fill:url(#path13267_1_);enable-background:new"/><path id="path13269_2_" d="M244-234.3a6.5 6.5 0 0 0-6.5 6.5c0 2.4 1.3 4.3 3.3 5.5h6.5a6.4 6.4 0 0 0 3.3-5.5 6.7 6.7 0 0 0-6.6-6.5z" class="st6"/><linearGradient id="path13271_1_" x1="921.5" x2="925.6" y1="25.6" y2="20.4" gradientTransform="matrix(1 0 0 -1 -679.6 -206)" gradientUnits="userSpaceOnUse"><stop offset="0" style="stop-color:#fff"/><stop offset="1" style="stop-color:#fff;stop-opacity:0"/></linearGradient><path id="path13271_2_" d="M244-234.3a6.5 6.5 0 0 0-6.5 6.5c0 2.4 1.3 4.4 3.3 5.5h6.5a6.4 6.4 0 0 0 3.3-5.5c-.1-3.6-3-6.5-6.6-6.5z" style="opacity:.4778;fill:url(#path13271_1_);enable-background:new"/><linearGradient id="path13273_1_" x1="962.8" x2="965.9" y1="-5.8" y2="-8.6" gradientTransform="matrix(.905 0 0 -.906 -637.3 -232)" gradientUnits="userSpaceOnUse"><stop offset="0" style="stop-color:#fff"/><stop offset="1" style="stop-color:#fff;stop-opacity:0"/></linearGradient><path id="path13273_2_" d="M238.5-225.3c0 1.7-1.3 3-3 3s-3-1.3-3-3 1.3-3 3-3 3 1.3 3 3z" style="opacity:.4778;fill:url(#path13273_1_);enable-background:new"/><path id="path13275_2_" d="M257.4-230.6c0 2.7-3.3 3.7-3.3 3.7s2.3-1.6 2.3-3.7h1z" class="st18"/><path id="path13277_2_" d="M252.5-226.3c0 2.2-1.8 4-4 4s-4-1.8-4-4 1.8-4 4-4 4 1.8 4 4z" class="st6"/><linearGradient id="path13279_1_" x1="875.6" x2="879.7" y1="82" y2="77.6" gradientTransform="matrix(1.206 0 0 -1.208 -812 -131.8)" gradientUnits="userSpaceOnUse"><stop offset="0" style="stop-color:#fff"/><stop offset="1" style="stop-color:#fff;stop-opacity:0"/></linearGradient><path id="path13279_2_" d="M252.5-226.3c0 2.2-1.8 4-4 4s-4-1.8-4-4 1.8-4 4-4 4 1.8 4 4z" style="opacity:.4778;fill:url(#path13279_1_);enable-background:new"/></g><g id="g13281_2_" transform="translate(57 4)"><path id="path13283_2_" d="M245-238.8a5 5 0 0 0-4.7 3.6 5 5 0 0 0-7.3 4.4c0 .6.2 1.1.3 1.6a4.5 4.5 0 0 0 2.2 8.4h19c2.5 0 4.5-2 4.5-4.5 0-1.7-1-3.1-2.3-3.9a5 5 0 0 0-4.7-6.6 6 6 0 0 0-2.3.6 5 5 0 0 0-4.7-3.6z" class="st11"/><linearGradient id="path13285_1_" x1="959.7" x2="973.7" y1="31.8" y2="22.8" gradientTransform="matrix(1 0 0 -1 -723.7 -202)" gradientUnits="userSpaceOnUse"><stop offset="0" style="stop-color:#fff"/><stop offset="1" style="stop-color:#fff;stop-opacity:0"/></linearGradient><path id="path13285_2_" d="M245-238.3c-2.2 0-3.7 1.3-4.4 3.8-.7-.3-1.5-.8-2.4-.8-2.7 0-4.8 1.9-4.8 4.5 0 .5.3 1.3.4 1.8-1.3.7-2.4 1.9-2.4 3.4 0 2.3 1.5 4.3 4.3 4.3H254c2.8 0 4.3-1.9 4.3-4.3 0-1.6-1.1-2.7-2.4-3.4a6 6 0 0 0 .5-1.8c0-2.6-2.1-4.6-4.8-4.6-.8 0-1.6.5-2.3.8-.5-2.3-2.1-3.7-4.3-3.7z" style="fill:url(#path13285_1_)"/><path id="path13287_2_" d="M248.5-233.8c0 1.9-1.6 3.5-3.5 3.5s-3.5-1.6-3.5-3.5 1.6-3.5 3.5-3.5 3.5 1.6 3.5 3.5z" class="st6"/><linearGradient id="path13289_1_" x1="959.6" x2="961.8" y1="47.4" y2="44" gradientTransform="matrix(1.056 0 0 -1.057 -769.3 -185.7)" gradientUnits="userSpaceOnUse"><stop offset="0" style="stop-color:#fff"/><stop offset="1" style="stop-color:#fff;stop-opacity:0"/></linearGradient><path id="path13289_2_" d="M248.5-233.8c0 1.9-1.6 3.5-3.5 3.5s-3.5-1.6-3.5-3.5 1.6-3.5 3.5-3.5 3.5 1.6 3.5 3.5z" style="opacity:.4778;fill:url(#path13289_1_);enable-background:new"/><path id="rect13291_2_" d="M235.5-231.3h20v9h-20z" class="st6"/><path id="path13293_2_" d="M238.5-225.3c0 1.7-1.3 3-3 3s-3-1.3-3-3 1.3-3 3-3a3 3 0 0 1 3 3z" class="st6"/><path id="path13295_2_" d="M255.5-230.8c0 1.9-1.6 3.5-3.5 3.5s-3.5-1.6-3.5-3.5 1.6-3.5 3.5-3.5 3.5 1.6 3.5 3.5z" class="st6"/><linearGradient id="path13297_1_" x1="958.6" x2="961.9" y1="49" y2="43.8" gradientTransform="matrix(1.056 0 0 -1.057 -762.3 -182.7)" gradientUnits="userSpaceOnUse"><stop offset="0" style="stop-color:#fff"/><stop offset="1" style="stop-color:#fff;stop-opacity:0"/></linearGradient><path id="path13297_2_" d="M255.5-230.8c0 1.9-1.6 3.5-3.5 3.5s-3.5-1.6-3.5-3.5 1.6-3.5 3.5-3.5 3.5 1.6 3.5 3.5z" style="opacity:.4778;fill:url(#path13297_1_);enable-background:new"/><path id="path13299_2_" d="M241.5-230.8c0 1.9-1.6 3.5-3.5 3.5s-3.5-1.6-3.5-3.5 1.6-3.5 3.5-3.5 3.5 1.6 3.5 3.5z" class="st6"/><linearGradient id="path13301_1_" x1="958.4" x2="961.9" y1="47.9" y2="44.4" gradientTransform="matrix(1.056 0 0 -1.057 -776.3 -182.7)" gradientUnits="userSpaceOnUse"><stop offset="0" style="stop-color:#fff"/><stop offset="1" style="stop-color:#fff;stop-opacity:0"/></linearGradient><path id="path13301_2_" d="M241.5-230.8c0 1.9-1.6 3.5-3.5 3.5s-3.5-1.6-3.5-3.5 1.6-3.5 3.5-3.5 3.5 1.6 3.5 3.5z" style="opacity:.4778;fill:url(#path13301_1_);enable-background:new"/><path id="path13303_2_" d="M244-234.3a6.5 6.5 0 0 0-6.5 6.5c0 2.4 1.3 4.3 3.3 5.5h6.5a6.4 6.4 0 0 0 3.3-5.5 6.7 6.7 0 0 0-6.6-6.5z" class="st6"/><linearGradient id="path13305_1_" x1="966.6" x2="970.6" y1="29.6" y2="24.5" gradientTransform="matrix(1 0 0 -1 -724.7 -202)" gradientUnits="userSpaceOnUse"><stop offset="0" style="stop-color:#fff"/><stop offset="1" style="stop-color:#fff;stop-opacity:0"/></linearGradient><path id="path13305_2_" d="M244-234.3a6.5 6.5 0 0 0-6.5 6.5c0 2.4 1.3 4.4 3.3 5.5h6.5a6.4 6.4 0 0 0 3.3-5.5c-.1-3.6-3-6.5-6.6-6.5z" style="opacity:.4778;fill:url(#path13305_1_);enable-background:new"/><linearGradient id="path13307_1_" x1="1007.8" x2="1010.9" y1="-1.8" y2="-4.6" gradientTransform="matrix(.905 0 0 -.906 -678.1 -228.4)" gradientUnits="userSpaceOnUse"><stop offset="0" style="stop-color:#fff"/><stop offset="1" style="stop-color:#fff;stop-opacity:0"/></linearGradient><path id="path13307_2_" d="M238.5-225.3c0 1.7-1.3 3-3 3s-3-1.3-3-3 1.3-3 3-3 3 1.3 3 3z" style="opacity:.4778;fill:url(#path13307_1_);enable-background:new"/><path id="path13309_2_" d="M257.4-230.6c0 2.7-3.3 3.7-3.3 3.7s2.3-1.6 2.3-3.7h1z" class="st18"/><path id="path13311_2_" d="M252.5-226.3c0 2.2-1.8 4-4 4s-4-1.8-4-4 1.8-4 4-4 4 1.8 4 4z" class="st6"/><linearGradient id="path13313_1_" x1="920.7" x2="924.8" y1="86" y2="81.6" gradientTransform="matrix(1.206 0 0 -1.208 -866.4 -126.9)" gradientUnits="userSpaceOnUse"><stop offset="0" style="stop-color:#fff"/><stop offset="1" style="stop-color:#fff;stop-opacity:0"/></linearGradient><path id="path13313_2_" d="M252.5-226.3c0 2.2-1.8 4-4 4s-4-1.8-4-4 1.8-4 4-4 4 1.8 4 4z" style="opacity:.4778;fill:url(#path13313_1_);enable-background:new"/></g></g></g></svg>