<svg xmlns="http://www.w3.org/2000/svg" xml:space="preserve" id="svg1306" x="0" y="0" style="enable-background:new 0 0 45 45" version="1.1" viewBox="0 0 45 45"><style>.st0{stroke:#888a85;stroke-miterlimit:2}.st0,.st2{fill:#c4c5c2}.st8{fill-rule:evenodd;clip-rule:evenodd;fill:#888a85}.st20{opacity:.6167;fill:#fff;enable-background:new}.st26{fill:#a3a4a0}</style><g id="layer1"><g id="g6896" transform="translate(-264 460)"><path id="path6898" d="M279-448.4a5 5 0 0 0-4.7 3.6 5 5 0 0 0-7.3 4.4c0 .6.2 1.1.3 1.6a4.5 4.5 0 0 0 2.2 8.4h19c2.5 0 4.5-2 4.5-4.5 0-1.7-1-3.1-2.3-3.9a5 5 0 0 0-4.7-6.6 6 6 0 0 0-2.3.6 5 5 0 0 0-4.7-3.6z" class="st0"/><linearGradient id="path6900_1_" x1="533.2" x2="547.2" y1="33.5" y2="24.4" gradientTransform="matrix(1 0 0 -1 -264 -410)" gradientUnits="userSpaceOnUse"><stop offset="0" style="stop-color:#fff"/><stop offset="1" style="stop-color:#fff;stop-opacity:0"/></linearGradient><path id="path6900" d="M279-447.9c-2.2 0-3.7 1.3-4.4 3.8-.7-.3-1.5-.8-2.4-.8-2.7 0-4.8 1.9-4.8 4.5 0 .5.3 1.3.4 1.8-1.3.7-2.4 1.9-2.4 3.4 0 2.3 1.5 4.3 4.3 4.3H288c2.8 0 4.3-1.9 4.3-4.3 0-1.6-1.1-2.7-2.4-3.4a6 6 0 0 0 .5-1.8c0-2.6-2.1-4.6-4.8-4.6-.8 0-1.6.5-2.3.8-.5-2.3-2.1-3.7-4.3-3.7z" style="fill:url(#path6900_1_)"/><g id="g6902"><path id="path6904" d="M282.5-443.4c0 1.9-1.6 3.5-3.5 3.5s-3.5-1.6-3.5-3.5 1.6-3.5 3.5-3.5 3.5 1.6 3.5 3.5z" class="st2"/><linearGradient id="path6906_1_" x1="544.2" x2="546.4" y1="37.8" y2="34.4" gradientTransform="matrix(1.057 0 0 -1.057 -297.3 -405.5)" gradientUnits="userSpaceOnUse"><stop offset="0" style="stop-color:#fff"/><stop offset="1" style="stop-color:#fff;stop-opacity:0"/></linearGradient><path id="path6906" d="M282.5-443.4c0 1.9-1.6 3.5-3.5 3.5s-3.5-1.6-3.5-3.5 1.6-3.5 3.5-3.5 3.5 1.6 3.5 3.5z" style="fill:url(#path6906_1_)"/></g><path id="rect6908" d="M269.5-440.9h20v9h-20z" class="st2"/><path id="path6910" d="M272.5-434.9a3 3 0 0 1-3 3 3 3 0 0 1-3-3 3 3 0 0 1 3-3 3 3 0 0 1 3 3z" class="st2"/><g id="g6912"><path id="path6914" d="M289.5-440.4c0 1.9-1.6 3.5-3.5 3.5a3.5 3.5 0 0 1-3.5-3.5c0-1.9 1.6-3.5 3.5-3.5s3.5 1.6 3.5 3.5z" class="st2"/><linearGradient id="path6916_1_" x1="543.2" x2="546.5" y1="39.3" y2="34.2" gradientTransform="matrix(1.057 0 0 -1.057 -290.3 -402.5)" gradientUnits="userSpaceOnUse"><stop offset="0" style="stop-color:#fff"/><stop offset="1" style="stop-color:#fff;stop-opacity:0"/></linearGradient><path id="path6916" d="M289.5-440.4c0 1.9-1.6 3.5-3.5 3.5s-3.5-1.6-3.5-3.5 1.6-3.5 3.5-3.5 3.5 1.6 3.5 3.5z" style="fill:url(#path6916_1_)"/></g><g id="g6918"><path id="path6920" d="M275.5-440.4c0 1.9-1.6 3.5-3.5 3.5s-3.5-1.6-3.5-3.5 1.6-3.5 3.5-3.5 3.5 1.6 3.5 3.5z" class="st2"/><linearGradient id="path6922_1_" x1="543.1" x2="546.5" y1="38.3" y2="34.8" gradientTransform="matrix(1.057 0 0 -1.057 -304.3 -402.5)" gradientUnits="userSpaceOnUse"><stop offset="0" style="stop-color:#fff"/><stop offset="1" style="stop-color:#fff;stop-opacity:0"/></linearGradient><path id="path6922" d="M275.5-440.4c0 1.9-1.6 3.5-3.5 3.5s-3.5-1.6-3.5-3.5 1.6-3.5 3.5-3.5 3.5 1.6 3.5 3.5z" style="fill:url(#path6922_1_)"/></g><g id="g6924" transform="translate(-1)"><path id="path6926" d="M279-443.8a6.5 6.5 0 0 0-6.5 6.5c0 2.4 1.3 4.3 3.3 5.5h6.5a6.4 6.4 0 0 0 3.3-5.5 6.6 6.6 0 0 0-6.6-6.5z" class="st2"/><linearGradient id="path6928_1_" x1="541" x2="545.1" y1="31.3" y2="26.1" gradientTransform="matrix(1 0 0 -1 -265 -410)" gradientUnits="userSpaceOnUse"><stop offset="0" style="stop-color:#fff"/><stop offset="1" style="stop-color:#fff;stop-opacity:0"/></linearGradient><path id="path6928" d="M279-443.9a6.5 6.5 0 0 0-6.5 6.5c0 2.4 1.3 4.4 3.3 5.5h6.5a6.4 6.4 0 0 0 3.3-5.5c-.1-3.6-3-6.5-6.6-6.5z" style="fill:url(#path6928_1_)"/></g><linearGradient id="path6930_1_" x1="559.6" x2="562.7" y1="21.8" y2="19" gradientTransform="matrix(.906 0 0 -.906 -239 -416.7)" gradientUnits="userSpaceOnUse"><stop offset="0" style="stop-color:#fff"/><stop offset="1" style="stop-color:#fff;stop-opacity:0"/></linearGradient><path id="path6930" d="M272.5-434.9a3 3 0 0 1-3 3 3 3 0 0 1-3-3 3 3 0 0 1 3-3 3 3 0 0 1 3 3z" style="fill:url(#path6930_1_)"/><path id="path6932" d="M291.5-440.2c0 2.7-3.3 3.7-3.3 3.7s2.3-1.6 2.3-3.7h1z" class="st8"/><g id="g6934" transform="matrix(1.143 0 0 1.143 -28.6 67)"><path id="path6936" d="M275.7-440c0 1.9-1.6 3.5-3.5 3.5s-3.5-1.6-3.5-3.5 1.6-3.5 3.5-3.5 3.5 1.6 3.5 3.5z" class="st2"/><linearGradient id="path6938_1_" x1="488.7" x2="492.8" y1="-13.6" y2="-18" gradientTransform="matrix(1.208 0 0 -1.208 -321.6 -460.4)" gradientUnits="userSpaceOnUse"><stop offset="0" style="stop-color:#fff"/><stop offset="1" style="stop-color:#fff;stop-opacity:0"/></linearGradient><path id="path6938" d="M275.7-440c0 1.9-1.6 3.5-3.5 3.5s-3.5-1.6-3.5-3.5 1.6-3.5 3.5-3.5 3.5 1.6 3.5 3.5z" style="fill:url(#path6938_1_)"/></g></g><g id="g5441" transform="matrix(.999 0 0 .999 -342.5 469.4)"><path id="path5439" d="M379-449a13.5 13.5 0 0 1-27 0 13.5 13.5 0 0 1 27 0z" style="fill:#eaece8"/><g id="g5405" transform="translate(37.1 -1.6)"><path id="path5342" d="m322.3-459-.3.6c-.2.3-.3.4-.1.7h.7l1-.4.7-.2c.3-.1.6.1.7.2.1.1-.5.5-.5.5l-.7.3-.9.2-.8.3-.9.8c-.3.3-.4.6-.3.9.1.3.2.5.5.5.3.1.5-.1.7-.3.2-.3.3-.7.6-.9l.6-.6c.2-.2.4-.3.7-.2l.7.4.8-.4.1-.1.8-.1.7.2.8.3.6.6.4.6.8.6.3.7v.9l-.5.9c-.1.3-.5.5-.8.7-.3.3-.8.3-1.1.6l-.8 1.1c-.3.4 0 .6.4.5a3 3 0 0 1 1-.2h.2l1.1-.5c.5-.1 1.5.6 2 .9.4.2-.1.6-.2.7-.3.2-.6.2-1 .2l-.7-.1c-.3-.1-.5-.1-.8.1-.3.2-.2.5-.1.7l.5.7c.1.3-.2.5-.4.7h-1c-.4 0-.7.2-1 .4l-.3.8v.2c-.1.4 0 .6.2.9l.4.7c.1.3.2.5.1.8l-.2.7.3.8c.1.4 0 .4-.2.7l-.8.4c-.2.1-.7 0-.9-.1-.3-.1-.5.1-.7.2-.3.2-.3.3-.6 0s-.5-.7-.6-1.1v-1.1l.1-.8c0-.3-.8.3-1 .4l-.3.1c-.4.2-.4.5-.4.9l.2 1c0 .3-.4.4-.7.4-.4 0-.6-.5-.8-.7-.3-.3-.7-.5-.8-.8-.2-.4-.3-.7.2-1 .3-.2.6-.2.8-.5.2-.3.5-.6 0-.8-.3-.1-.5-.2-.8-.1h-.2c-.7.1-.7.1-1.3-.2-.4-.2-.6-.6-.9-.9-.3-.3-.5-.7-.6-1.1l-.3-1-.1-.9-.1-.9v-2l.1-.9v-.1l.3-1 .4-.8.4-.7.6-.8 1.1-1.2.6-.8 1-.8.7-.7.4-.7c0 .2.2.1.2 0z" style="opacity:.1056;fill-rule:evenodd;clip-rule:evenodd;fill:#787974;enable-background:new"/><path id="path5345" d="M333.4-453.8c-.4.1-1.2.2-1.7.1-.4-.1-.4-.3-.8.1l-.1.1c-.2.2-.3.3-.3.6v1.5l.3.8.4.6 1 .4c.2.1.6 0 .8 0 .3 0 .4 0 .4.4 0 .3-.6.7-.8 1-.2.3-.1.6 0 .9l.2.8c.1.3.1.5.4.7.2.2.7 0 .9.3l.1.6c0 .3.1.5.4.3.3-.1.5-.1.7-.4l.4-.9c.1-.3.4-.3.6-.3.3 0 .5.1.8 0 .4-.1.5-.2.8-.5.4-.4.3-.6.4-1.1l-.1-.6v-.2c-.1-.2-.5-.2-.7-.2l-1.3-.3c-.2 0-.7-.7-.8-.8l-.3-.6-.1-1c-.1-.4 0-.6-.3-.9l-.4-.8-.5-.7-.4.1z" style="opacity:.1889;fill-rule:evenodd;clip-rule:evenodd;fill:#787974;enable-background:new"/><path id="path5347" d="M339.5-451.5c-.2 0-.4.3-.6.4-.2.2-.1.5-.1.7l.1.8.4.6.8.4c.4.1.6.1.8-.3l.2-.8-.1-.8c-.1-.3-.2-.5-.5-.6l-.6-.5-.4.1z" style="opacity:.1833;fill-rule:evenodd;clip-rule:evenodd;fill:#787974;enable-background:new"/><path id="path5349" d="m326.9-439.1 1.3-1.1.2-.2a7.6 7.6 0 0 0 2-3.6c.2-1 .3-.3 0 .3l-.1.3-.3 1.3c-.2.6-.7 1-.8 1.6-.1.3-.2.7-.1 1 .1.3.5-.4.8-.5.4-.1.5-.2.5.2l-.2 1c-.1.5 1.3.1 1.6 0a6 6 0 0 0 2.5-1.3c.9-.7 1.6-1.6 2.5-2.4.7-.7 1-1.1.6 0l-.1.3-.1.3c-.2.6-.6 1.2-1.2 1.6-.8.6-1.4 1.6-2.3 2l-1.1.4c-.4.2.7.3.9.4 2 .4-1.6.6-2.1.6-.7 0-1.1-.2-1.7.2-.2.1.9.6 1 .6.5.1.9.4 1.4.4.8 0-1.8.3-2.5.1l-1.8-.4h-.9v.9c0 .6-.2 1.1-.4.2-.2-.5-.4-.9-.4-1.4 0-.3-.4.5-.6.7l-.9.9.4-1c.1-.3.6-1.1.2-1.2l-1-.1-1.4-.4a16 16 0 0 0-3.1-1l-.2-.2a5 5 0 0 0 3.4 1.4l1.3-.2.8-.5c.3-.1-.4-.4-.6-.6l-.2-.2c-.7-.9-1-2-1.8-2.9-.1-.1-2.1-2.4-1.2-1.6a20 20 0 0 1 2.6 2.4l1.2 1.6c.4.5.3-.1.2-.4-.2-.7-.1-1.7-.1-2.5 0-1 .5 1 .6 1.2.1.5.4 1.1.8.6.4-.5.4-.6.4 0v1.2z" style="opacity:.4722;fill-rule:evenodd;clip-rule:evenodd;fill:#f3f4f2;enable-background:new"/><path id="path5351" d="m338.5-447.9.2.6-.8.7c-.2.2-.2.5-.3.8l-.1.8.3.8c.1.3.4.4.6.7.3.3.6.3 1 .4.4.1-.3.5-.4.6l-.7.6c-.2.3.2.5.4.6.2.1.6-.3.7-.5.2-.2.4-.4.4-.7l.1-.8.1-.8c.1-.4.2-.5.4-.7.2-.2.2-.6.1-.8l-.3-.7c-.1-.2-.4-.4-.6-.4l-.7-.6c0-.4-.1-.6-.4-.6z" style="opacity:.1167;fill-rule:evenodd;clip-rule:evenodd;fill:#787974;enable-background:new"/><path id="path5353" d="M321.2-448.9z" style="fill:none;stroke:#000;stroke-width:1;stroke-miterlimit:3.9948"/><path id="path5355" d="m326.1-458.6.8-.2c.3-.1.7.1 1 .1 0 0 .3.4.6.4h.2l.7.4c.2.2 0 .5-.1.6-.3.3-.5.1-.7-.1l-.6-.4c-.3-.1-.6 0-.8 0l-.9.2-.6-.6.4-.4z" style="opacity:.2;fill-rule:evenodd;clip-rule:evenodd;fill:#938f8b;enable-background:new"/><path id="path5357" d="M330.9-457.9h2.3c.2.1 1.6.3 1 .6l-.9.4c-.3.2.4.3.6.3.4 0 .2.5.1.7-.2.3-.1.7 0 .9.1.3.5.2.8.2.3 0 .6 0 .8.3.2.2.4.5.3.7-.1.2-.7.3-.9.3-.2 0-.8-.8-.8-.8-.2-.2-.5 0-.7 0-.4.1-.7-.4-.9-.6-.3-.2-.4-.5-.6-.8-.2-.3.1-.5-.4-.5l-.7-.2c-.3-.2-.6-.1-.6-.6 0-.4 0-.5.4-.7-.1-.1.1-.1.2-.2z" style="opacity:.2889;fill-rule:evenodd;clip-rule:evenodd;fill:#938f8b;enable-background:new"/><radialGradient id="path5359_1_" cx="5080.5" cy="-3547.9" r="358.4" gradientTransform="matrix(.021 0 0 -.028 216 -547)" gradientUnits="userSpaceOnUse"><stop offset="0" style="stop-color:#787974"/><stop offset="1" style="stop-color:#787974;stop-opacity:0"/></radialGradient><path id="path5359" d="m322.4-459.1-.3.6c-.2.3-.3.4-.1.7h.7l1-.4.7-.2c.3-.1.6.1.7.2.1.1-.5.5-.5.5l-.7.3-.9.2-.8.3-.9.8c-.3.3-.4.6-.3.9.1.3.2.5.5.5.3.1.5-.1.7-.3.2-.3.3-.7.6-.9l.6-.6c.2-.2.4-.3.7-.2l.7.4.8-.4.1-.1.8-.1.7.2.8.3.6.6.4.6.8.6.3.7v.9l-.5.9c-.1.3-.5.5-.8.7-.3.3-.8.3-1.1.6l-.8 1.1c-.3.4 0 .6.4.5a3 3 0 0 1 1-.2h.2l1.1-.5c.5-.1 1.5.6 2 .9.4.2-.1.6-.2.7-.3.2-.6.2-1 .2l-.7-.1c-.3-.1-.5-.1-.8.1-.3.2-.2.5-.1.7l.5.7c.1.3-.2.5-.4.7h-1c-.4 0-.7.2-1 .4l-.3.8v.2c-.1.4 0 .6.2.9l.4.7c.1.3.2.5.1.8l-.2.7.3.8c.1.4 0 .4-.2.7l-.8.4c-.2.1-.7 0-.9-.1-.3-.1-.5.1-.7.2-.3.2-.3.3-.6 0s-.5-.7-.6-1.1v-1.1l.1-.8c0-.3-.8.3-1 .4l-.3.1c-.4.2-.4.5-.4.9l.2 1c0 .3-.4.4-.7.4-.4 0-.6-.5-.8-.7-.3-.3-.7-.5-.8-.8-.2-.4-.3-.7.2-1 .3-.2.6-.2.8-.5.2-.3.5-.6 0-.8-.3-.1-.5-.2-.8-.1h-.2c-.7.1-.7.1-1.3-.2-.4-.2-.6-.6-.9-.9-.3-.3-.5-.7-.6-1.1l-.3-1-.1-.9-.1-.9v-2l.1-.9v-.1l.3-1 .4-.8.4-.7.6-.8 1.1-1.2.6-.8 1-.8.7-.7.4-.7c-.1.1.1.1.2 0z" style="opacity:.1778;fill-rule:evenodd;clip-rule:evenodd;fill:url(#path5359_1_);enable-background:new"/><path id="path5361" d="M326.1-446.8c0 .4-.3.7-.7.7a.7.7 0 0 1-.7-.7c0-.4.3-.7.7-.7.4 0 .7.3.7.7z" class="st20"/><path id="path5363" d="M319.6-452.2c0 .2-.2.4-.4.4s-.4-.2-.4-.4.2-.4.4-.4.4.2.4.4z" style="opacity:.5444;fill:#fff;enable-background:new"/><path id="path5365" d="M335.9-447.6c0 .4-.3.7-.7.7a.7.7 0 0 1-.7-.7c0-.4.3-.7.7-.7.4 0 .7.3.7.7z" style="opacity:.5444;fill:#c2c3be;enable-background:new"/><path id="path5367" d="M330.8-437.4c0 .4-.3.7-.7.7a.7.7 0 0 1-.7-.7c0-.4.3-.7.7-.7.4.1.7.4.7.7z" style="opacity:.5667;fill:#c2c3be;enable-background:new"/><path id="path5369" d="M335-447.4c0 .2-.2.4-.4.4s-.4-.2-.4-.4.2-.4.4-.4.4.1.4.4z" class="st20"/><path id="path5371" d="M326.7-436.9c0 .2-.2.4-.4.4s-.4-.2-.4-.4.2-.4.4-.4.4.2.4.4z" class="st20"/><path id="path5373" d="M333.3-441.5c0 .2-.2.4-.4.4s-.4-.2-.4-.4.2-.4.4-.4.4.1.4.4z" class="st20"/><path id="path5375" d="M338.5-452.9c0 .2-.2.4-.4.4s-.4-.2-.4-.4.2-.4.4-.4.4.1.4.4z" class="st20"/><path id="path5377" d="M335.5-452.1c0 .2-.2.4-.4.4s-.4-.2-.4-.4.2-.4.4-.4.4.1.4.4z" class="st20"/><path id="path5379" d="M336.7-456.6c0 .2-.2.4-.4.4s-.4-.2-.4-.4.2-.4.4-.4.4.2.4.4z" class="st20"/><path id="path5381" d="M327.8-443.4c0 .2-.2.4-.4.4s-.4-.2-.4-.4.2-.4.4-.4.4.2.4.4z" class="st20"/><path id="path5383" d="m326.8-438.8 1.2-1 .2-.2c.4-.3.7-.8 1-1.3.5-.7.7-1.3.8-2 .2-1 .2-.3 0 .3l-.1.3-.3 1.2c-.2.5-.6 1-.7 1.5-.1.3-.2.6-.1.9.1.3.5-.3.8-.4.4-.1.5-.2.5.2l-.2.9c-.1.4 1.2.1 1.5 0 .9-.2 1.6-.5 2.3-1.2l2.3-2.2c.6-.6.9-1 .5 0l-.1.3-.1.3c-.2.5-.6 1.1-1.1 1.5-.8.5-1.3 1.4-2.1 1.9l-1 .4c-.3.2.7.3.9.3 1.9.4-1.5.6-1.9.6-.7 0-1-.1-1.6.2-.2.1.9.5.9.5.4.1.8.4 1.3.4.8 0-1.6.2-2.3.1l-1.7-.4h-.9c-.1 0 0 .8 0 .8 0 .5-.1 1-.4.2-.1-.4-.4-.9-.4-1.3 0-.3-.4.4-.6.7a3 3 0 0 1-.8.8l.3-.9c.1-.3.5-1 .2-1.1l-1-.1-1.3-.4c-.8-.4-2-.7-2.8-.9-.1 0-1.3-1.4-.1-.2.8.8 2 1.3 3.1 1.3l1.2-.2.7-.4c.2-.1-.4-.3-.6-.5l-.2-.2c-.7-.8-.9-1.9-1.7-2.6-.1-.1-1.9-2.2-1.1-1.5a17 17 0 0 1 2.4 2.2l1.1 1.5c.4.5.3-.1.2-.4-.2-.7-.1-1.6-.1-2.3 0-.9.5.9.5 1.1.1.5.4 1 .7.6.4-.5.4-.6.4 0v.1c.3.1.3.3.3.6z" style="fill-rule:evenodd;clip-rule:evenodd;fill:#fff"/><g id="g5385" style="opacity:.3167" transform="translate(461.7 -517.2)"><path id="path5387" d="M-127.4 65.5c0 .9-.8 1.7-1.8 1.7s-1.8-.8-1.8-1.7c0-.9.8-1.7 1.8-1.7 1 .1 1.8.8 1.8 1.7z" class="st26"/><path id="path5389" d="M-125.4 69.5c0 .9-.8 1.7-1.8 1.7s-1.8-.8-1.8-1.7c0-.9.8-1.7 1.8-1.7s1.8.8 1.8 1.7z" class="st26"/><path id="path5391" d="M-123.5 69.5c0 .6-.5 1.1-1.1 1.1-.6 0-1.1-.5-1.1-1.1 0-.6.5-1.1 1.1-1.1.6 0 1.1.5 1.1 1.1z" class="st26"/><path id="path5393" d="M-133.3 64c0 1.4-1.2 2.6-2.7 2.6s-2.7-1.2-2.7-2.6 1.2-2.6 2.7-2.6 2.7 1.1 2.7 2.6z" class="st26"/><path id="path5395" d="M-138.6 70.1c0 1.7-1.4 3-3.2 3s-3.2-1.4-3.2-3 1.4-3 3.2-3 3.2 1.3 3.2 3z" class="st26"/><path id="path5397" d="M-135.1 72.9c0 1.3-1.1 2.4-2.5 2.4s-2.5-1.1-2.5-2.4 1.1-2.4 2.5-2.4c1.3.1 2.5 1.1 2.5 2.4z" class="st26"/><path id="path5399" d="M-136.7 66.3c0 1.3-1.1 2.4-2.5 2.4s-2.5-1.1-2.5-2.4c0-1.3 1.1-2.4 2.5-2.4s2.5 1.1 2.5 2.4z" class="st26"/></g><path id="path5401" d="M327.6-437.6c0 .4-.3.7-.7.7s-.7-.3-.7-.7.3-.7.7-.7.7.3.7.7z" style="fill:#fff"/></g><path id="path9201" d="M379-448.9a13.5 13.5 0 0 1-27 0 13.5 13.5 0 0 1 27 0z" style="fill:none;stroke:#888a85;stroke-width:1;stroke-miterlimit:5.5387"/><path id="path9203" d="M372.9-459a12.5 12.5 0 0 1 2.7 17.5 12.5 12.5 0 0 1-17.5 2.7 12.5 12.5 0 0 1-2.7-17.5 12.7 12.7 0 0 1 17.5-2.7z" style="fill:none;stroke:#fff;stroke-width:1;stroke-linecap:square;stroke-miterlimit:5.257"/></g><g id="g6956" transform="translate(-249 467.9)"><path id="path6958" d="M279-448.4a5 5 0 0 0-4.7 3.6 5 5 0 0 0-7.3 4.4c0 .6.2 1.1.3 1.6a4.5 4.5 0 0 0 2.2 8.4h19c2.5 0 4.5-2 4.5-4.5 0-1.7-1-3.1-2.3-3.9a5 5 0 0 0-4.7-6.6 6 6 0 0 0-2.3.6 5 5 0 0 0-4.7-3.6z" class="st0"/><linearGradient id="path6960_1_" x1="518.2" x2="532.2" y1="25.6" y2="16.5" gradientTransform="matrix(1 0 0 -1 -249 -417.9)" gradientUnits="userSpaceOnUse"><stop offset="0" style="stop-color:#fff"/><stop offset="1" style="stop-color:#fff;stop-opacity:0"/></linearGradient><path id="path6960" d="M279-447.9c-2.2 0-3.7 1.3-4.4 3.8-.7-.3-1.5-.8-2.4-.8-2.7 0-4.8 1.9-4.8 4.5 0 .5.3 1.3.4 1.8-1.3.7-2.4 1.9-2.4 3.4 0 2.3 1.5 4.3 4.3 4.3H288c2.8 0 4.3-1.9 4.3-4.3 0-1.6-1.1-2.7-2.4-3.4a6 6 0 0 0 .5-1.8c0-2.6-2.1-4.6-4.8-4.6-.8 0-1.6.5-2.3.8-.5-2.3-2.1-3.7-4.3-3.7z" style="fill:url(#path6960_1_)"/><g id="g6962"><path id="path6964" d="M282.5-443.4c0 1.9-1.6 3.5-3.5 3.5s-3.5-1.6-3.5-3.5 1.6-3.5 3.5-3.5 3.5 1.6 3.5 3.5z" class="st2"/><linearGradient id="path6966_1_" x1="529.2" x2="531.4" y1="29.9" y2="26.5" gradientTransform="matrix(1.057 0 0 -1.057 -281.5 -413.8)" gradientUnits="userSpaceOnUse"><stop offset="0" style="stop-color:#fff"/><stop offset="1" style="stop-color:#fff;stop-opacity:0"/></linearGradient><path id="path6966" d="M282.5-443.4c0 1.9-1.6 3.5-3.5 3.5s-3.5-1.6-3.5-3.5 1.6-3.5 3.5-3.5 3.5 1.6 3.5 3.5z" style="fill:url(#path6966_1_)"/></g><path id="rect6968" d="M269.5-440.9h20v9h-20z" class="st2"/><path id="path6970" d="M272.5-434.9a3 3 0 0 1-3 3 3 3 0 0 1-3-3 3 3 0 0 1 3-3 3 3 0 0 1 3 3z" class="st2"/><g id="g6972"><path id="path6974" d="M289.5-440.4c0 1.9-1.6 3.5-3.5 3.5a3.5 3.5 0 0 1-3.5-3.5c0-1.9 1.6-3.5 3.5-3.5s3.5 1.6 3.5 3.5z" class="st2"/><linearGradient id="path6976_1_" x1="528.2" x2="531.5" y1="31.4" y2="26.3" gradientTransform="matrix(1.057 0 0 -1.057 -274.5 -410.8)" gradientUnits="userSpaceOnUse"><stop offset="0" style="stop-color:#fff"/><stop offset="1" style="stop-color:#fff;stop-opacity:0"/></linearGradient><path id="path6976" d="M289.5-440.4c0 1.9-1.6 3.5-3.5 3.5s-3.5-1.6-3.5-3.5 1.6-3.5 3.5-3.5 3.5 1.6 3.5 3.5z" style="fill:url(#path6976_1_)"/></g><g id="g6978"><path id="path6980" d="M275.5-440.4c0 1.9-1.6 3.5-3.5 3.5s-3.5-1.6-3.5-3.5 1.6-3.5 3.5-3.5 3.5 1.6 3.5 3.5z" class="st2"/><linearGradient id="path6982_1_" x1="528.1" x2="531.5" y1="30.4" y2="26.9" gradientTransform="matrix(1.057 0 0 -1.057 -288.5 -410.8)" gradientUnits="userSpaceOnUse"><stop offset="0" style="stop-color:#fff"/><stop offset="1" style="stop-color:#fff;stop-opacity:0"/></linearGradient><path id="path6982" d="M275.5-440.4c0 1.9-1.6 3.5-3.5 3.5s-3.5-1.6-3.5-3.5 1.6-3.5 3.5-3.5 3.5 1.6 3.5 3.5z" style="fill:url(#path6982_1_)"/></g><g id="g6984" transform="translate(-1)"><path id="path6986" d="M279-443.8a6.5 6.5 0 0 0-6.5 6.5c0 2.4 1.3 4.3 3.3 5.5h6.5a6.4 6.4 0 0 0 3.3-5.5 6.6 6.6 0 0 0-6.6-6.5z" class="st2"/><linearGradient id="path6988_1_" x1="526" x2="530.1" y1="23.4" y2="18.2" gradientTransform="matrix(1 0 0 -1 -250 -417.9)" gradientUnits="userSpaceOnUse"><stop offset="0" style="stop-color:#fff"/><stop offset="1" style="stop-color:#fff;stop-opacity:0"/></linearGradient><path id="path6988" d="M279-443.9a6.5 6.5 0 0 0-6.5 6.5c0 2.4 1.3 4.4 3.3 5.5h6.5a6.4 6.4 0 0 0 3.3-5.5c-.1-3.6-3-6.5-6.6-6.5z" style="fill:url(#path6988_1_)"/></g><linearGradient id="path6990_1_" x1="544.6" x2="547.7" y1="13.9" y2="11.1" gradientTransform="matrix(.906 0 0 -.906 -225.4 -423.9)" gradientUnits="userSpaceOnUse"><stop offset="0" style="stop-color:#fff"/><stop offset="1" style="stop-color:#fff;stop-opacity:0"/></linearGradient><path id="path6990" d="M272.5-434.9a3 3 0 0 1-3 3 3 3 0 0 1-3-3 3 3 0 0 1 3-3 3 3 0 0 1 3 3z" style="fill:url(#path6990_1_)"/><path id="path6992" d="M291.5-440.2c0 2.7-3.3 3.7-3.3 3.7s2.3-1.6 2.3-3.7h1z" class="st8"/><g id="g6994" transform="matrix(1.143 0 0 1.143 -28.6 67)"><path id="path6996" d="M275.7-440c0 1.9-1.6 3.5-3.5 3.5s-3.5-1.6-3.5-3.5 1.6-3.5 3.5-3.5 3.5 1.6 3.5 3.5z" class="st2"/><linearGradient id="path6998_1_" x1="475.6" x2="479.7" y1="-20.5" y2="-24.9" gradientTransform="matrix(1.208 0 0 -1.208 -305.8 -468.8)" gradientUnits="userSpaceOnUse"><stop offset="0" style="stop-color:#fff"/><stop offset="1" style="stop-color:#fff;stop-opacity:0"/></linearGradient><path id="path6998" d="M275.7-440c0 1.9-1.6 3.5-3.5 3.5s-3.5-1.6-3.5-3.5 1.6-3.5 3.5-3.5 3.5 1.6 3.5 3.5z" style="fill:url(#path6998_1_)"/></g></g></g></svg>