<svg xmlns="http://www.w3.org/2000/svg" xmlns:xlink="http://www.w3.org/1999/xlink" viewBox="0 0 45 45"><defs><linearGradient xlink:href="#a" id="b" x1="3449.6" x2="3470.1" y1="-3037.2" y2="-3058.6" gradientTransform="matrix(0 .12 -.11 -.01 -310 -391)"/><linearGradient xlink:href="#a" id="c" x1="1088" x2="1138.4" y1="103.9" y2="120.8" gradientTransform="translate(-1079 -98)"/><linearGradient xlink:href="#a" id="d" x1="943.6" x2="949.4" y1="245.8" y2="250.7" gradientTransform="matrix(.88 0 0 .88 -813.6 -212.6)"/><linearGradient xlink:href="#a" id="e" x1="936.2" x2="942.1" y1="236.9" y2="242.8" gradientTransform="matrix(.91 0 0 .91 -827 -209)"/><linearGradient xlink:href="#a" id="f" x1="834.8" x2="839.2" y1="169.7" y2="173.1" gradientTransform="matrix(1.14 0 0 1.14 -943.7 -186.4)"/><linearGradient xlink:href="#a" id="g" x1="875.2" x2="882.9" y1="199.4" y2="205.2" gradientTransform="matrix(1.04 0 0 1.04 -891.4 -196.8)"/><linearGradient xlink:href="#a" id="h" x1="-883.8" x2="-880.6" y1="104.6" y2="108.6" gradientTransform="matrix(1.33 0 0 1.33 1180.3 -127)"/><linearGradient xlink:href="#a" id="i" x1="1016.2" x2="1030.2" y1="217.5" y2="226.5" gradientTransform="translate(-996 -200)"/><linearGradient xlink:href="#a" id="j" x1="1012" x2="1014.1" y1="202.1" y2="205.5" gradientTransform="matrix(1.06 0 0 1.06 -1040.5 -198)"/><linearGradient xlink:href="#a" id="k" x1="1010.9" x2="1014.3" y1="200.6" y2="205.7" gradientTransform="matrix(1.06 0 0 1.06 -1033.5 -195)"/><linearGradient xlink:href="#a" id="l" x1="1010.8" x2="1014.3" y1="201.6" y2="205.1" gradientTransform="matrix(1.06 0 0 1.06 -1047.5 -195)"/><linearGradient xlink:href="#a" id="m" x1="1026.1" x2="1030.1" y1="219.7" y2="224.9" gradientTransform="translate(-1000 -200)"/><linearGradient xlink:href="#a" id="n" x1="1072.2" x2="1075.3" y1="250.6" y2="253.4" gradientTransform="matrix(.91 0 0 .91 -952.3 -202.5)"/><linearGradient xlink:href="#a" id="o" x1="729.9" x2="734" y1="210.3" y2="214.7" gradientTransform="matrix(1.8 0 0 1.8 -1286.3 -358.6)"/><linearGradient xlink:href="#a" id="p" x1="1061.2" x2="1075.2" y1="213.5" y2="222.5" gradientTransform="translate(-1056 -200)"/><linearGradient xlink:href="#a" id="q" x1="1057" x2="1059.1" y1="198.1" y2="201.5" gradientTransform="matrix(1.06 0 0 1.06 -1103 -197.8)"/><linearGradient xlink:href="#a" id="r" x1="1056" x2="1059.3" y1="196.6" y2="201.7" gradientTransform="matrix(1.06 0 0 1.06 -1096 -194.8)"/><linearGradient xlink:href="#a" id="s" x1="1055.8" x2="1059.3" y1="197.6" y2="201.1" gradientTransform="matrix(1.06 0 0 1.06 -1110 -194.8)"/><linearGradient xlink:href="#a" id="t" x1="1071.1" x2="1075.1" y1="215.7" y2="220.9" gradientTransform="translate(-1060 -200)"/><linearGradient xlink:href="#a" id="u" x1="1117.3" x2="1120.3" y1="246.6" y2="249.4" gradientTransform="matrix(.91 0 0 .91 -1008 -202.9)"/><linearGradient xlink:href="#a" id="v" x1="764.6" x2="768.7" y1="207.2" y2="211.6" gradientTransform="matrix(1.8 0 0 1.8 -1363.8 -357)"/><linearGradient xlink:href="#a" id="x" x1="3509.6" x2="3530.1" y1="-3047.1" y2="-3068.6" gradientTransform="matrix(0 .12 -.11 -.01 -331 -408)"/><linearGradient xlink:href="#a" id="z" x1="3422.6" x2="3443.1" y1="-3040.1" y2="-3061.6" gradientTransform="matrix(0 .12 -.11 -.01 -301.2 -390.9)"/><linearGradient xlink:href="#a" id="ab" x1="3515.6" x2="3536.1" y1="-3037.2" y2="-3058.6" gradientTransform="matrix(0 .12 -.11 -.01 -332 -398.6)"/><linearGradient xlink:href="#a" id="ad" x1="3485.6" x2="3506.1" y1="-3042.2" y2="-3063.6" gradientTransform="matrix(0 .12 -.11 -.01 -322.5 -400.2)"/><linearGradient xlink:href="#a" id="af" x1="3443.6" x2="3464.1" y1="-3047.1" y2="-3068.6" gradientTransform="matrix(0 .12 -.11 -.01 -309 -400.4)"/><radialGradient id="a" cx="4214.9" cy="2842.7" r="21.7" gradientTransform="matrix(.08 0 0 .13 -306.6 -334)" gradientUnits="userSpaceOnUse"><stop offset="0" stop-color="#fff"/><stop offset="1" stop-color="#fff" stop-opacity="0"/></radialGradient><radialGradient xlink:href="#a" id="w" cx="4274.9" cy="2832.7" r="21.7" gradientTransform="matrix(.08 0 0 .13 -331.6 -342.9)"/><radialGradient xlink:href="#a" id="y" cx="4187.9" cy="2839.7" r="21.7" gradientTransform="matrix(.08 0 0 .13 -295.4 -336.5)"/><radialGradient xlink:href="#a" id="aa" cx="4280.9" cy="2842.7" r="21.7" gradientTransform="matrix(.08 0 0 .13 -334 -334.2)"/><radialGradient xlink:href="#a" id="ac" cx="4250.9" cy="2837.7" r="21.7" gradientTransform="matrix(.08 0 0 .13 -321.6 -338.4)"/><radialGradient xlink:href="#a" id="ae" cx="4208.9" cy="2832.7" r="21.7" gradientTransform="matrix(.08 0 0 .13 -304.2 -342.7)"/><style>.a{fill:#729fcf;stroke:#204a87;stroke-width:1.07px}.a,.l{stroke-miterlimit:2}.s{fill:#888a85}.f,.l{fill:#c4c5c2}.l{stroke:#888a85}.s{fill-rule:evenodd}</style></defs><path d="M28.9 40.5a2.1 2.1 0 0 1-2.1-2.2c.1-2.5 2-2.8 1.7-5.2 1.8.6 4.5 6.9.4 7.4Z" class="a"/><path d="M30.6 38.2a1.6 1.6 0 0 1-1.8 1.7 1.7 1.7 0 0 1-1.7-1.9c.1-1 2.1-1.6 2-3.6.9.1 1.5 2.8 1.5 3.8Z" style="fill:url(#a);opacity:.46;isolation:isolate"/><path d="M30 39.6c-4.6 1.2-2-4.3-1-3.9-2.6 3 1 4 1 4Z" style="fill:url(#b)"/><path d="M23 0a7.5 7.5 0 0 0-6.4 3.8 6.5 6.5 0 0 0-3.1-.8 7 7 0 0 0 0 14 6.9 6.9 0 0 0 5.7-3.2A7.1 7.1 0 0 0 23 15a7.5 7.5 0 0 0 2.6-.5 7 7 0 0 0 2 2.2l-.1.4a7 7 0 0 0 14 0 6.7 6.7 0 0 0-3.1-5.6l.1-.4a7 7 0 0 0-7-7 5.8 5.8 0 0 0-1.8.4A7.2 7.2 0 0 0 23 0Z" style="fill:#888a85"/><path d="M23 1a6.7 6.7 0 0 0-6.1 4.2A5.8 5.8 0 0 0 13.5 4a6 6 0 1 0 5.4 8.5A6.4 6.4 0 0 0 23 14a5.7 5.7 0 0 0 2.9-.8 5.7 5.7 0 0 0 1.9 2.4 5.8 5.8 0 0 0-.4 1.8 6.5 6.5 0 1 0 9.8-5.5 3.5 3.5 0 0 0 .2-1A6 6 0 0 0 29 5.4 6.3 6.3 0 0 0 23 1Z" style="fill:url(#c)"/><path d="M40.5 17.5a6.5 6.5 0 0 1-13 0 6.5 6.5 0 0 1 13 0ZM28.5 7.5a5.5 5.5 0 0 1-11 0 5.5 5.5 0 0 1 11 0Z" class="f"/><path d="M28.5 7.5a5.5 5.5 0 0 1-11 0 5.5 5.5 0 0 1 11 0Z" style="fill:url(#d)"/><path d="M36.5 11.5a5.5 5.5 0 0 1-11 0 5.5 5.5 0 0 1 11 0Z" class="f"/><path d="M36.5 11.5a5.5 5.5 0 0 1-11 0 5.5 5.5 0 0 1 11 0Z" style="fill:url(#e)"/><path d="M18.5 10a5 5 0 1 1-5-5 5 5 0 0 1 5 5Z" class="f"/><path d="M18.5 10a5 5 0 1 1-5-5 5 5 0 0 1 5 5Z" style="fill:url(#f)"/><path d="M29.5 14a7 7 0 0 1-14 0 7 7 0 0 1 14 0Z" class="f"/><path d="M29.5 14a7 7 0 0 1-14 0 7 7 0 0 1 14 0Z" style="fill:url(#g)"/><path d="M15 16.5a5 5 0 1 1-5-5 5 5 0 0 1 5 5Z" class="f"/><path d="M15.2 16.5a5 5 0 1 1-5-5 5 5 0 0 1 5 5Z" style="fill:url(#h)"/><path d="M30 12.5a5 5 0 0 0-4.7 3.6 4.4 4.4 0 0 0-2.3-.6 5 5 0 0 0-5 5 7.6 7.6 0 0 0 .3 1.6A4.4 4.4 0 0 0 16 26a4.5 4.5 0 0 0 4.5 4.5h19A4.5 4.5 0 0 0 44 26a4.6 4.6 0 0 0-2.3-3.9 4.2 4.2 0 0 0 .3-1.6 5 5 0 0 0-5-5 6 6 0 0 0-2.3.6 5 5 0 0 0-4.7-3.6Z" class="l"/><path d="M30 13c-2.2 0-3.7 1.3-4.4 3.8a6.2 6.2 0 0 0-2.4-.8 4.6 4.6 0 0 0-4.8 4.5 11.6 11.6 0 0 0 .4 1.8 4 4 0 0 0 1.9 7.7H39a4 4 0 0 0 4.3-4.3 4 4 0 0 0-2.4-3.4 6 6 0 0 0 .5-1.8 4.6 4.6 0 0 0-4.8-4.6 6.3 6.3 0 0 0-2.3.8A4.3 4.3 0 0 0 30 13Z" style="fill:url(#i)"/><path d="M33.5 17.5A3.5 3.5 0 1 1 30 14a3.5 3.5 0 0 1 3.5 3.5Z" class="f"/><path d="M33.5 17.5A3.5 3.5 0 1 1 30 14a3.5 3.5 0 0 1 3.5 3.5Z" style="fill:url(#j)"/><path d="M20.5 20h20v9h-20z" class="f"/><path d="M23.5 26a3 3 0 1 1-3-3 3 3 0 0 1 3 3ZM40.5 20.5A3.5 3.5 0 1 1 37 17a3.5 3.5 0 0 1 3.5 3.5Z" class="f"/><path d="M40.5 20.5A3.5 3.5 0 1 1 37 17a3.5 3.5 0 0 1 3.5 3.5Z" style="fill:url(#k)"/><path d="M26.5 20.5A3.5 3.5 0 1 1 23 17a3.5 3.5 0 0 1 3.5 3.5Z" class="f"/><path d="M26.5 20.5A3.5 3.5 0 1 1 23 17a3.5 3.5 0 0 1 3.5 3.5Z" style="fill:url(#l)"/><path d="M29 17a6.5 6.5 0 0 0-6.5 6.5 6.3 6.3 0 0 0 3.3 5.5h6.5a6.4 6.4 0 0 0 3.3-5.5A6.7 6.7 0 0 0 29 17Z" class="f"/><path d="M29 17a6.5 6.5 0 0 0-6.5 6.5 6.2 6.2 0 0 0 3.3 5.5h6.5a6.4 6.4 0 0 0 3.3-5.5A6.6 6.6 0 0 0 29 17Z" style="fill:url(#m)"/><path d="M23.5 26a3 3 0 1 1-3-3 3 3 0 0 1 3 3Z" style="fill:url(#n)"/><path d="M42.5 20.7c0 2.7-3.3 3.7-3.3 3.7s2.3-1.6 2.3-3.7Z" class="s"/><path d="M37.5 25a4 4 0 1 1-4-4 4 4 0 0 1 4 4Z" class="f"/><path d="M37.5 25a4 4 0 1 1-4-4 4 4 0 0 1 4 4Z" style="fill:url(#o)"/><path d="M15 8.5a5 5 0 0 0-4.7 3.6 4.4 4.4 0 0 0-2.3-.6 5 5 0 0 0-5 5 7.6 7.6 0 0 0 .3 1.6A4.4 4.4 0 0 0 1 22a4.5 4.5 0 0 0 4.5 4.5h19A4.5 4.5 0 0 0 29 22a4.6 4.6 0 0 0-2.3-3.9 4.2 4.2 0 0 0 .3-1.6 5 5 0 0 0-5-5 6 6 0 0 0-2.3.6A5 5 0 0 0 15 8.5Z" class="l"/><path d="M15 9c-2.2 0-3.7 1.3-4.4 3.8a6.2 6.2 0 0 0-2.4-.8 4.6 4.6 0 0 0-4.8 4.5 11.6 11.6 0 0 0 .4 1.8A4 4 0 0 0 5.7 26H24a4 4 0 0 0 4.3-4.3 4 4 0 0 0-2.4-3.4 6 6 0 0 0 .5-1.8 4.6 4.6 0 0 0-4.8-4.6 6.3 6.3 0 0 0-2.3.8A4.3 4.3 0 0 0 15 9Z" style="fill:url(#p)"/><path d="M18.5 13.5A3.5 3.5 0 1 1 15 10a3.5 3.5 0 0 1 3.5 3.5Z" class="f"/><path d="M18.5 13.5A3.5 3.5 0 1 1 15 10a3.5 3.5 0 0 1 3.5 3.5Z" style="fill:url(#q)"/><path d="M5.5 16h20v9h-20z" class="f"/><path d="M8.5 22a3 3 0 0 1-3 3 3 3 0 0 1 0-6 3 3 0 0 1 3 3ZM25.5 16.5A3.5 3.5 0 1 1 22 13a3.5 3.5 0 0 1 3.5 3.5Z" class="f"/><path d="M25.5 16.5A3.5 3.5 0 1 1 22 13a3.5 3.5 0 0 1 3.5 3.5Z" style="fill:url(#r)"/><path d="M11.5 16.5A3.5 3.5 0 0 1 8 20a3.5 3.5 0 0 1 0-7 3.5 3.5 0 0 1 3.5 3.5Z" class="f"/><path d="M11.5 16.5A3.5 3.5 0 0 1 8 20a3.5 3.5 0 0 1 0-7 3.5 3.5 0 0 1 3.5 3.5Z" style="fill:url(#s)"/><path d="M14 13a6.5 6.5 0 0 0-6.5 6.5 6.3 6.3 0 0 0 3.3 5.5h6.5a6.4 6.4 0 0 0 3.3-5.5A6.7 6.7 0 0 0 14 13Z" class="f"/><path d="M14 13a6.5 6.5 0 0 0-6.5 6.5 6.2 6.2 0 0 0 3.3 5.5h6.5a6.4 6.4 0 0 0 3.3-5.5A6.6 6.6 0 0 0 14 13Z" style="fill:url(#t)"/><path d="M8.5 22a3 3 0 0 1-3 3 3 3 0 0 1 0-6 3 3 0 0 1 3 3Z" style="fill:url(#u)"/><path d="M27.5 16.7c0 2.7-3.3 3.7-3.3 3.7s2.3-1.6 2.3-3.7Z" class="s"/><path d="M22.5 21a4 4 0 1 1-4-4 4 4 0 0 1 4 4Z" class="f"/><path d="M22.5 21a4 4 0 1 1-4-4 4 4 0 0 1 4 4Z" style="fill:url(#v)"/><path d="M8.8 30.5a2.1 2.1 0 0 1-2-2.2c.2-2.5 2-2.8 1.8-5.2 1.7.6 4.5 6.9.3 7.4Z" class="a"/><path d="M10.7 28.2A1.6 1.6 0 0 1 8.8 30 1.7 1.7 0 0 1 7 28c.2-1 2.2-1.6 2-3.6.9.1 1.6 2.8 1.6 3.8Z" style="fill:url(#w);opacity:.46;isolation:isolate"/><path d="M10 29.6c-4.6 1.2-2-4.3-1-3.9-2.5 3 1 4 1 4Z" style="fill:url(#x)"/><path d="M37.8 37.5a2.1 2.1 0 0 1-2-2.2c.1-2.5 2-2.8 1.7-5.2 1.7.6 4.5 6.9.3 7.4Z" class="a"/><path d="M39.6 35.2a1.6 1.6 0 0 1-1.8 1.7 1.7 1.7 0 0 1-1.7-1.9c.1-1 2.1-1.6 2-3.6.8.1 1.5 2.8 1.5 3.8Z" style="fill:url(#y);opacity:.46;isolation:isolate"/><path d="M39 36.6c-4.7 1.2-2-4.3-1-3.9-2.6 3 1 4 1 4Z" style="fill:url(#z)"/><path d="M6.8 40.5a2.1 2.1 0 0 1-2-2.2c.1-2.5 2-2.8 1.7-5.2 1.7.6 4.5 6.9.3 7.4Z" class="a"/><path d="M8.7 38.2A1.6 1.6 0 0 1 6.9 40 1.7 1.7 0 0 1 5 38c.2-1 2.2-1.6 2-3.6.8.1 1.6 2.8 1.6 3.8Z" style="fill:url(#aa);opacity:.46;isolation:isolate"/><path d="M8 39.6c-4.7 1.2-2-4.3-1-3.9-2.6 3 1 4 1 4Z" style="fill:url(#ab)"/><path d="M16.8 35.5a2.1 2.1 0 0 1-2-2.2c.1-2.5 2-2.8 1.7-5.2 1.7.6 4.5 6.9.3 7.4Z" class="a"/><path d="M18.6 33.2a1.6 1.6 0 0 1-1.8 1.7 1.7 1.7 0 0 1-1.7-1.9c.1-1 2.1-1.6 2-3.6.8.1 1.5 2.8 1.5 3.8Z" style="fill:url(#ac);opacity:.46;isolation:isolate"/><path d="M18 34.6c-4.7 1.2-2-4.3-1-3.9-2.6 3 1 4 1 4Z" style="fill:url(#ad)"/><path d="M30.8 30.5a2.1 2.1 0 0 1-2-2.2c.1-2.5 2-2.8 1.7-5.2 1.7.6 4.5 6.9.3 7.4Z" class="a"/><path d="M32.6 28.2a1.6 1.6 0 0 1-1.8 1.7 1.7 1.7 0 0 1-1.7-1.9c.1-1 2.1-1.6 2-3.6.8.1 1.5 2.8 1.5 3.8Z" style="fill:url(#ae);opacity:.46;isolation:isolate"/><path d="M32 29.6c-4.7 1.2-2-4.3-1-3.9-2.6 3 1 4 1 4Z" style="fill:url(#af)"/></svg>