<svg xmlns="http://www.w3.org/2000/svg" xml:space="preserve" id="svg1306" x="0" y="0" style="enable-background:new 0 0 45 45" version="1.1" viewBox="0 0 45 45"><style>.st12,.st7{fill:#888a85}.st12{stroke:#555753;stroke-width:.9995;stroke-miterlimit:1.9987}.st19{fill-rule:evenodd;clip-rule:evenodd;fill:#555753}</style><g id="layer1"><g id="g11337" transform="translate(-340 245)"><path id="rect6086" d="M353.1-216.8h28.2c1.3 0 2 .5 1.4 1.2L374-204c-.5.7-2 1.2-3.3 1.2h-28.2c-1.3 0-2-.5-1.4-1.2l8.7-11.6c.5-.7 2-1.2 3.3-1.2z" style="fill:#729fcf;stroke:#3465a4;stroke-width:1.0818;stroke-miterlimit:1"/><g id="g10414" style="opacity:.8"><linearGradient id="rect6088_1_" x1="678.1" x2="685" y1="-119.4" y2="-119.4" gradientTransform="matrix(1.088 0 -.544 .674 -456.8 -129.3)" gradientUnits="userSpaceOnUse"><stop offset="0" style="stop-color:#fff"/><stop offset="1" style="stop-color:#fff;stop-opacity:0"/></linearGradient><path id="rect6088" d="M350.9-216.3h6.9c1.3 0 1.9.5 1.4 1.1l-8.7 10.8c-.5.6-1.9 1.1-3.2 1.1h-4c-1.3 0-2.6 0-1.4-1.1l9-11.9z" style="fill:url(#rect6088_1_)"/><linearGradient id="path6115_1_" x1="681.2" x2="688.1" y1="-119.4" y2="-119.4" gradientTransform="matrix(1.07 0 -.535 .674 -437 -129.2)" gradientUnits="userSpaceOnUse"><stop offset="0" style="stop-color:#fff"/><stop offset="1" style="stop-color:#fff;stop-opacity:0"/></linearGradient><path id="path6115" d="M361.2-216.3h6.7c1.3 0 1.9.5 1.4 1.1l-8.5 10.8c-.5.6-1.9 1.1-3.2 1.1h-6.1l9.7-13z" style="fill:url(#path6115_1_)"/><linearGradient id="path6125_1_" x1="681.2" x2="688.1" y1="-119.4" y2="-119.4" gradientTransform="matrix(1.07 0 -.535 .674 -427 -129.2)" gradientUnits="userSpaceOnUse"><stop offset="0" style="stop-color:#fff"/><stop offset="1" style="stop-color:#fff;stop-opacity:0"/></linearGradient><path id="path6125" d="M371.2-216.3h6.7c1.3 0 1.9.5 1.4 1.1l-8.5 10.8c-.5.6-1.9 1.1-3.2 1.1h-6.1l9.7-13z" style="fill:url(#path6125_1_)"/></g></g><g id="g13213" transform="matrix(1 0 0 1 -286.9 245)"><g id="g13215"><path id="path13217" d="M310-243.3a7.4 7.4 0 0 0-6.4 3.8c-.9-.5-2-.8-3.1-.8-3.9 0-7 3.1-7 7s3.1 7 7 7c2.4 0 4.4-1.3 5.7-3.2 1.1.7 2.4 1.2 3.8 1.2.9 0 1.8-.2 2.6-.5a7 7 0 0 0 2 2.2l-.1.4c0 3.9 3.1 7 7 7s7-3.1 7-7c0-2.4-1.3-4.4-3.1-5.6l.1-.4a7 7 0 0 0-7-7c-.6 0-1.2.2-1.8.4a7.3 7.3 0 0 0-6.7-4.5z" style="fill:#555753"/><linearGradient id="path13219_1_" x1="801.2" x2="839.1" y1="-186.5" y2="-173.5" gradientTransform="matrix(1 0 0 1 -504.7 -51)" gradientUnits="userSpaceOnUse"><stop offset="0" style="stop-color:#fff"/><stop offset="1" style="stop-color:#fff;stop-opacity:0"/></linearGradient><path id="path13219" d="M310-242.3a6.7 6.7 0 0 0-6.1 4.2c-1-.7-2.1-1.2-3.4-1.2-3.3 0-6 2.7-6 6s2.7 6 6 6a6 6 0 0 0 5.4-3.5c1.1.9 2.5 1.5 4.1 1.5 1.1 0 2-.3 2.9-.8.4 1 1.1 1.8 1.9 2.4-.2.6-.4 1.2-.4 1.8a6.5 6.5 0 1 0 13 0c0-2.4-1.3-4.3-3.2-5.5l.2-1a6 6 0 0 0-8.4-5.5 6.4 6.4 0 0 0-6-4.4z" style="fill:url(#path13219_1_)"/><path id="path13221" d="M327.5-225.8a6.5 6.5 0 1 1-13 0 6.5 6.5 0 1 1 13 0z" class="st7"/><g id="g13223"><path id="path13225" d="M315.5-235.8c0 3-2.5 5.5-5.5 5.5s-5.5-2.5-5.5-5.5 2.5-5.5 5.5-5.5 5.5 2.5 5.5 5.5z" class="st7"/><linearGradient id="path13227_1_" x1="839.9" x2="845.7" y1="-159.6" y2="-154.7" gradientTransform="matrix(.882 0 0 .883 -434.6 -98.1)" gradientUnits="userSpaceOnUse"><stop offset="0" style="stop-color:#fff"/><stop offset="1" style="stop-color:#fff;stop-opacity:0"/></linearGradient><path id="path13227" d="M315.5-235.8c0 3-2.5 5.5-5.5 5.5s-5.5-2.5-5.5-5.5 2.5-5.5 5.5-5.5 5.5 2.5 5.5 5.5z" style="opacity:.4944;fill:url(#path13227_1_);enable-background:new"/></g><g id="g13229"><path id="path13231" d="M323.5-231.8c0 3-2.5 5.5-5.5 5.5s-5.5-2.5-5.5-5.5 2.5-5.5 5.5-5.5 5.5 2.5 5.5 5.5z" class="st7"/><linearGradient id="path13233_1_" x1="839" x2="844.9" y1="-165" y2="-159" gradientTransform="matrix(.911 0 0 .912 -451 -86)" gradientUnits="userSpaceOnUse"><stop offset="0" style="stop-color:#fff"/><stop offset="1" style="stop-color:#fff;stop-opacity:0"/></linearGradient><path id="path13233" d="M323.5-231.8c0 3-2.5 5.5-5.5 5.5s-5.5-2.5-5.5-5.5 2.5-5.5 5.5-5.5 5.5 2.5 5.5 5.5z" style="opacity:.4944;fill:url(#path13233_1_);enable-background:new"/></g><g id="g13235"><path id="path13237" d="M305.5-233.3c0 2.8-2.2 5-5 5s-5-2.2-5-5 2.2-5 5-5a5 5 0 0 1 5 5z" class="st7"/><linearGradient id="path13239_1_" x1="777.5" x2="781.9" y1="-210.3" y2="-206.9" gradientTransform="matrix(1.142 0 0 1.143 -590.7 4.6)" gradientUnits="userSpaceOnUse"><stop offset="0" style="stop-color:#fff"/><stop offset="1" style="stop-color:#fff;stop-opacity:0"/></linearGradient><path id="path13239" d="M305.5-233.3c0 2.8-2.2 5-5 5s-5-2.2-5-5 2.2-5 5-5a5 5 0 0 1 5 5z" style="opacity:.4944;fill:url(#path13239_1_);enable-background:new"/></g><g id="g13241"><path id="path13243" d="M316.5-229.3c0 3.9-3.1 7-7 7s-7-3.1-7-7a7 7 0 0 1 7-7 7 7 0 0 1 7 7z" class="st7"/><linearGradient id="path13245_1_" x1="802.1" x2="809.8" y1="-189.3" y2="-183.4" gradientTransform="matrix(1.038 0 0 1.039 -528 -36.4)" gradientUnits="userSpaceOnUse"><stop offset="0" style="stop-color:#fff"/><stop offset="1" style="stop-color:#fff;stop-opacity:0"/></linearGradient><path id="path13245" d="M316.5-229.3c0 3.9-3.1 7-7 7s-7-3.1-7-7a7 7 0 0 1 7-7 7 7 0 0 1 7 7z" style="opacity:.4944;fill:url(#path13245_1_);enable-background:new"/></g></g><g id="g13247" transform="translate(72 8)"><path id="path13249" d="M245-238.8a5 5 0 0 0-4.7 3.6 5 5 0 0 0-7.3 4.4c0 .6.2 1.1.3 1.6a4.5 4.5 0 0 0 2.2 8.4h19c2.5 0 4.5-2 4.5-4.5 0-1.7-1-3.1-2.3-3.9a5 5 0 0 0-4.7-6.6 6 6 0 0 0-2.3.6 5 5 0 0 0-4.7-3.6z" class="st12"/><linearGradient id="path13251_1_" x1="699.4" x2="713.4" y1="-234.8" y2="-225.7" gradientTransform="matrix(1 0 0 1 -463.8 1)" gradientUnits="userSpaceOnUse"><stop offset="0" style="stop-color:#fff"/><stop offset="1" style="stop-color:#fff;stop-opacity:0"/></linearGradient><path id="path13251" d="M245-238.3c-2.2 0-3.7 1.3-4.4 3.8-.7-.3-1.5-.8-2.4-.8-2.7 0-4.8 1.9-4.8 4.5 0 .5.3 1.3.4 1.8-1.3.7-2.4 1.9-2.4 3.4 0 2.3 1.5 4.3 4.3 4.3H254c2.8 0 4.3-1.9 4.3-4.3 0-1.6-1.1-2.7-2.4-3.4a6 6 0 0 0 .5-1.8c0-2.6-2.1-4.6-4.8-4.6-.8 0-1.6.5-2.3.8-.5-2.3-2.1-3.7-4.3-3.7z" style="fill:url(#path13251_1_)"/><path id="path13253" d="M248.5-233.8c0 1.9-1.6 3.5-3.5 3.5s-3.5-1.6-3.5-3.5 1.6-3.5 3.5-3.5 3.5 1.6 3.5 3.5z" class="st7"/><linearGradient id="path13255_1_" x1="704.8" x2="707" y1="-244.9" y2="-241.5" gradientTransform="matrix(1.056 0 0 1.057 -500.5 23)" gradientUnits="userSpaceOnUse"><stop offset="0" style="stop-color:#fff"/><stop offset="1" style="stop-color:#fff;stop-opacity:0"/></linearGradient><path id="path13255" d="M248.5-233.8c0 1.9-1.6 3.5-3.5 3.5s-3.5-1.6-3.5-3.5 1.6-3.5 3.5-3.5 3.5 1.6 3.5 3.5z" style="opacity:.4778;fill:url(#path13255_1_);enable-background:new"/><path id="rect13257" d="M235.5-231.3h20v9h-20z" class="st7"/><path id="path13259" d="M238.5-225.3c0 1.7-1.3 3-3 3s-3-1.3-3-3 1.3-3 3-3 3 1.3 3 3z" class="st7"/><path id="path13261" d="M255.5-230.8c0 1.9-1.6 3.5-3.5 3.5s-3.5-1.6-3.5-3.5 1.6-3.5 3.5-3.5 3.5 1.6 3.5 3.5z" class="st7"/><linearGradient id="path13263_1_" x1="703.8" x2="707.1" y1="-246.4" y2="-241.3" gradientTransform="matrix(1.056 0 0 1.057 -493.5 26)" gradientUnits="userSpaceOnUse"><stop offset="0" style="stop-color:#fff"/><stop offset="1" style="stop-color:#fff;stop-opacity:0"/></linearGradient><path id="path13263" d="M255.5-230.8c0 1.9-1.6 3.5-3.5 3.5s-3.5-1.6-3.5-3.5 1.6-3.5 3.5-3.5 3.5 1.6 3.5 3.5z" style="opacity:.4778;fill:url(#path13263_1_);enable-background:new"/><path id="path13265" d="M241.5-230.8c0 1.9-1.6 3.5-3.5 3.5s-3.5-1.6-3.5-3.5 1.6-3.5 3.5-3.5 3.5 1.6 3.5 3.5z" class="st7"/><linearGradient id="path13267_1_" x1="703.7" x2="707.1" y1="-245.4" y2="-241.9" gradientTransform="matrix(1.056 0 0 1.057 -507.5 26)" gradientUnits="userSpaceOnUse"><stop offset="0" style="stop-color:#fff"/><stop offset="1" style="stop-color:#fff;stop-opacity:0"/></linearGradient><path id="path13267" d="M241.5-230.8c0 1.9-1.6 3.5-3.5 3.5s-3.5-1.6-3.5-3.5 1.6-3.5 3.5-3.5 3.5 1.6 3.5 3.5z" style="opacity:.4778;fill:url(#path13267_1_);enable-background:new"/><path id="path13269" d="M243.9-234.3a6.5 6.5 0 0 0-6.5 6.5c0 2.4 1.3 4.3 3.3 5.5h6.5a6.4 6.4 0 0 0 3.3-5.5c-.1-3.6-3-6.5-6.6-6.5z" class="st7"/><linearGradient id="path13271_1_" x1="706.3" x2="710.3" y1="-232.6" y2="-227.4" gradientTransform="matrix(1 0 0 1 -464.8 1)" gradientUnits="userSpaceOnUse"><stop offset="0" style="stop-color:#fff"/><stop offset="1" style="stop-color:#fff;stop-opacity:0"/></linearGradient><path id="path13271" d="M244-234.3a6.5 6.5 0 0 0-6.5 6.5c0 2.4 1.3 4.4 3.3 5.5h6.5a6.4 6.4 0 0 0 3.3-5.5c-.1-3.6-3-6.5-6.6-6.5z" style="opacity:.4778;fill:url(#path13271_1_);enable-background:new"/><linearGradient id="path13273_1_" x1="736.7" x2="739.8" y1="-211.9" y2="-209.1" gradientTransform="matrix(.905 0 0 .906 -433 -34.9)" gradientUnits="userSpaceOnUse"><stop offset="0" style="stop-color:#fff"/><stop offset="1" style="stop-color:#fff;stop-opacity:0"/></linearGradient><path id="path13273" d="M238.5-225.3c0 1.7-1.3 3-3 3s-3-1.3-3-3 1.3-3 3-3a3 3 0 0 1 3 3z" style="opacity:.4778;fill:url(#path13273_1_);enable-background:new"/><path id="path13275" d="M257.4-230.6c0 2.7-3.3 3.7-3.3 3.7s2.3-1.6 2.3-3.7h1z" class="st19"/><path id="path13277" d="M252.5-226.3c0 2.2-1.8 4-4 4s-4-1.8-4-4 1.8-4 4-4 4 1.8 4 4z" class="st7"/><linearGradient id="path13279_1_" x1="678.1" x2="682.2" y1="-271.3" y2="-266.9" gradientTransform="matrix(1.207 0 0 1.208 -574 96.8)" gradientUnits="userSpaceOnUse"><stop offset="0" style="stop-color:#fff"/><stop offset="1" style="stop-color:#fff;stop-opacity:0"/></linearGradient><path id="path13279" d="M252.5-226.3c0 2.2-1.8 4-4 4s-4-1.8-4-4 1.8-4 4-4 4 1.8 4 4z" style="opacity:.4778;fill:url(#path13279_1_);enable-background:new"/></g><g id="g13281" transform="translate(57 4)"><path id="path13283" d="M245-238.8a5 5 0 0 0-4.7 3.6 5 5 0 0 0-7.3 4.4c0 .6.2 1.1.3 1.6a4.5 4.5 0 0 0 2.2 8.4h19c2.5 0 4.5-2 4.5-4.5 0-1.7-1-3.1-2.3-3.9a5 5 0 0 0-4.7-6.6 6 6 0 0 0-2.3.6 5 5 0 0 0-4.7-3.6z" class="st12"/><linearGradient id="path13285_1_" x1="729.5" x2="743.5" y1="-234.8" y2="-225.7" gradientTransform="matrix(1 0 0 1 -493.8 1)" gradientUnits="userSpaceOnUse"><stop offset="0" style="stop-color:#fff"/><stop offset="1" style="stop-color:#fff;stop-opacity:0"/></linearGradient><path id="path13285" d="M245-238.3c-2.2 0-3.7 1.3-4.4 3.8-.7-.3-1.5-.8-2.4-.8-2.7 0-4.8 1.9-4.8 4.5 0 .5.3 1.3.4 1.8-1.3.7-2.4 1.9-2.4 3.4 0 2.3 1.5 4.3 4.3 4.3H254c2.8 0 4.3-1.9 4.3-4.3 0-1.6-1.1-2.7-2.4-3.4a6 6 0 0 0 .5-1.8c0-2.6-2.1-4.6-4.8-4.6-.8 0-1.6.5-2.3.8-.5-2.3-2.1-3.7-4.3-3.7z" style="fill:url(#path13285_1_)"/><path id="path13287" d="M248.5-233.8c0 1.9-1.6 3.5-3.5 3.5s-3.5-1.6-3.5-3.5 1.6-3.5 3.5-3.5 3.5 1.6 3.5 3.5z" class="st7"/><linearGradient id="path13289_1_" x1="734.9" x2="737" y1="-244.9" y2="-241.5" gradientTransform="matrix(1.056 0 0 1.057 -532.3 23)" gradientUnits="userSpaceOnUse"><stop offset="0" style="stop-color:#fff"/><stop offset="1" style="stop-color:#fff;stop-opacity:0"/></linearGradient><path id="path13289" d="M248.5-233.8c0 1.9-1.6 3.5-3.5 3.5s-3.5-1.6-3.5-3.5 1.6-3.5 3.5-3.5 3.5 1.6 3.5 3.5z" style="opacity:.4778;fill:url(#path13289_1_);enable-background:new"/><path id="rect13291" d="M235.5-231.3h20v9h-20z" class="st7"/><path id="path13293" d="M238.5-225.3c0 1.7-1.3 3-3 3s-3-1.3-3-3 1.3-3 3-3 3 1.3 3 3z" class="st7"/><path id="path13295" d="M255.5-230.8c0 1.9-1.6 3.5-3.5 3.5s-3.5-1.6-3.5-3.5 1.6-3.5 3.5-3.5 3.5 1.6 3.5 3.5z" class="st7"/><linearGradient id="path13297_1_" x1="733.8" x2="737.2" y1="-246.4" y2="-241.3" gradientTransform="matrix(1.056 0 0 1.057 -525.3 26)" gradientUnits="userSpaceOnUse"><stop offset="0" style="stop-color:#fff"/><stop offset="1" style="stop-color:#fff;stop-opacity:0"/></linearGradient><path id="path13297" d="M255.5-230.8c0 1.9-1.6 3.5-3.5 3.5s-3.5-1.6-3.5-3.5 1.6-3.5 3.5-3.5 3.5 1.6 3.5 3.5z" style="opacity:.4778;fill:url(#path13297_1_);enable-background:new"/><path id="path13299" d="M241.5-230.8c0 1.9-1.6 3.5-3.5 3.5s-3.5-1.6-3.5-3.5 1.6-3.5 3.5-3.5 3.5 1.6 3.5 3.5z" class="st7"/><linearGradient id="path13301_1_" x1="733.7" x2="737.1" y1="-245.4" y2="-241.9" gradientTransform="matrix(1.056 0 0 1.057 -539.3 26)" gradientUnits="userSpaceOnUse"><stop offset="0" style="stop-color:#fff"/><stop offset="1" style="stop-color:#fff;stop-opacity:0"/></linearGradient><path id="path13301" d="M241.5-230.8c0 1.9-1.6 3.5-3.5 3.5s-3.5-1.6-3.5-3.5 1.6-3.5 3.5-3.5 3.5 1.6 3.5 3.5z" style="opacity:.4778;fill:url(#path13301_1_);enable-background:new"/><path id="path13303" d="M243.9-234.3a6.5 6.5 0 0 0-6.5 6.5c0 2.4 1.3 4.3 3.3 5.5h6.5a6.4 6.4 0 0 0 3.3-5.5c-.1-3.6-3-6.5-6.6-6.5z" class="st7"/><linearGradient id="path13305_1_" x1="736.3" x2="740.3" y1="-232.6" y2="-227.4" gradientTransform="matrix(1 0 0 1 -494.8 1)" gradientUnits="userSpaceOnUse"><stop offset="0" style="stop-color:#fff"/><stop offset="1" style="stop-color:#fff;stop-opacity:0"/></linearGradient><path id="path13305" d="M244-234.3a6.5 6.5 0 0 0-6.5 6.5c0 2.4 1.3 4.4 3.3 5.5h6.5a6.4 6.4 0 0 0 3.3-5.5c-.1-3.6-3-6.5-6.6-6.5z" style="opacity:.4778;fill:url(#path13305_1_);enable-background:new"/><linearGradient id="path13307_1_" x1="766.8" x2="769.9" y1="-211.9" y2="-209.1" gradientTransform="matrix(.905 0 0 .906 -460.2 -34.9)" gradientUnits="userSpaceOnUse"><stop offset="0" style="stop-color:#fff"/><stop offset="1" style="stop-color:#fff;stop-opacity:0"/></linearGradient><path id="path13307" d="M238.5-225.3c0 1.7-1.3 3-3 3s-3-1.3-3-3 1.3-3 3-3a3 3 0 0 1 3 3z" style="opacity:.4778;fill:url(#path13307_1_);enable-background:new"/><path id="path13309" d="M257.4-230.6c0 2.7-3.3 3.7-3.3 3.7s2.3-1.6 2.3-3.7h1z" class="st19"/><path id="path13311" d="M252.5-226.3c0 2.2-1.8 4-4 4s-4-1.8-4-4 1.8-4 4-4 4 1.8 4 4z" class="st7"/><linearGradient id="path13313_1_" x1="708.1" x2="712.2" y1="-271.3" y2="-266.9" gradientTransform="matrix(1.207 0 0 1.208 -610.3 96.8)" gradientUnits="userSpaceOnUse"><stop offset="0" style="stop-color:#fff"/><stop offset="1" style="stop-color:#fff;stop-opacity:0"/></linearGradient><path id="path13313" d="M252.5-226.3c0 2.2-1.8 4-4 4s-4-1.8-4-4 1.8-4 4-4 4 1.8 4 4z" style="opacity:.4778;fill:url(#path13313_1_);enable-background:new"/></g></g></g></svg>