<svg xmlns="http://www.w3.org/2000/svg" xml:space="preserve" id="svg1306" x="0" y="0" style="enable-background:new 0 0 45 45" version="1.1" viewBox="0 0 45 45"><style>.st9{opacity:.6167;fill:#fff;enable-background:new}.st15{fill:#a3a4a0}</style><g id="g7594" transform="matrix(.999 0 0 .999 -342.5 469.4)"><path id="path7596" d="M386.5-447.6a21 21 0 0 1-42 0 21 21 0 0 1 42 0z" style="fill:#eaece8"/><g id="g7598" transform="translate(37.1 -1.6)"><path id="path7600" d="M319-463.9c.1.3-.2.6-.4.9-.3.4-.5.7-.1 1.1.2.2.9 0 1.1-.1l1.6-.6 1.1-.3c.4-.1.9.1 1.1.3.1.1-.7.8-.8.8l-1.1.4-1.4.4c-.5.1-.8.2-1.2.5l-1.4 1.2c-.4.4-.6.9-.4 1.4.1.5.3.7.8.8.5.1.8-.1 1.1-.5.3-.5.5-1 .9-1.4l.9-.9c.4-.3.7-.4 1.1-.3.4.1.7.5 1.1.6.4.1.9-.4 1.2-.6l.2-.1c.3-.2.9-.1 1.2-.1.4 0 .8.2 1.1.4.4.2.8.2 1.2.5.4.3.7.6.9 1 .2.4.3.7.6 1l1.2.9c.2.2.4.8.4 1.1.1.5.2.9 0 1.4l-.7 1.4c-.2.4-.9.8-1.2 1.1-.5.4-1.2.4-1.7.9-.6.6-.6.9-1.2 1.7-.4.6.1.9.6.7l1.5-.4.2-.1 1.7-.8c.8-.2 2.4 1 3.1 1.4.6.3-.1 1-.4 1.1-.5.2-1 .3-1.6.3l-1.1-.2c-.5-.1-.8-.1-1.2.2-.4.3-.4.7-.1 1.1.2.4.6.7.7 1.1.1.5-.3.8-.7 1.1-.4.2-1-.1-1.5-.1-.6 0-1.1.3-1.6.6-.2.2-.4 1-.4 1.2l-.1.2c-.2.6 0 .9.2 1.4.1.4.5.7.7 1.1.2.4.4.7.1 1.2l-.4 1.1c-.1.3.3 1 .4 1.3.2.6 0 .7-.4 1.1-.3.3-.9.4-1.2.6-.4.2-1.1 0-1.4-.1-.4-.1-.8.1-1.1.2-.5.2-.5.5-.9 0s-.7-1.1-.9-1.7l-.1-.2-.1-1.4.1-1.3c0-.5-1.2.4-1.5.6l-.4.2c-.6.3-.6.8-.6 1.4 0 .5.3.9.3 1.5 0 .5-.6.7-1.1.7-.6 0-.9-.7-1.3-1.1-.4-.4-1.1-.8-1.3-1.3-.3-.7-.4-1 .2-1.5.4-.3.9-.4 1.2-.7.3-.4.7-1 0-1.2-.5-.1-.7-.3-1.3-.2l-.3.1c-1 .2-1 .1-2-.4-.7-.3-.9-.9-1.4-1.4-.5-.5-.7-1.1-.9-1.7l-.4-1.6-.1-1.4-.1-1.4v-1.5l.1-1.5.2-1.4v-.1c0-.5.3-1.1.5-1.5l.6-1.2.7-1.1.9-1.2 1.7-1.8c.4-.3.6-.8 1-1.2l1.6-1.2 1.1-1.1c.2-.4.3-.7.7-1.1l.6-.3z" style="opacity:.1056;fill-rule:evenodd;clip-rule:evenodd;fill:#787974;enable-background:new"/><path id="path7602" d="M336.1-456c-.6.1-1.8.3-2.6.2-.6-.1-.6-.5-1.2.1l-.1.1c-.4.4-.4.4-.4 1l-.1 1.1c-.1.4 0 .9.1 1.2l.4 1.3c.2.4.3.7.6.9.4.3 1.1.4 1.6.6l1.3.1c.5 0 .6.1.6.6s-.9 1.2-1.2 1.6c-.3.5-.2.9 0 1.4l.3 1.2c.1.4.2.8.6 1.1.4.4 1.1 0 1.4.4.2.2.2.6.2.9 0 .5.2.7.6.5.4-.2.7-.2 1.1-.6l.7-1.4c.2-.4.5-.4 1-.4h1.2c.6-.2.7-.4 1.2-.8.6-.6.5-1 .6-1.7.1-.3-.1-.7-.1-1l-.1-.2c-.1-.3-.8-.4-1.1-.4-.6 0-1.5-.3-2-.4-.3-.1-1.1-1-1.3-1.2a2 2 0 0 1-.5-1l-.2-1.5c-.1-.6 0-.9-.4-1.4-.3-.3-.5-.8-.6-1.2-.1-.4-.4-.8-.7-1.1h-.9z" style="opacity:.1889;fill-rule:evenodd;clip-rule:evenodd;fill:#787974;enable-background:new"/><path id="path7604" d="M345.7-452.4c-.3 0-.7.4-.9.7-.3.3-.2.7-.2 1.1l.2 1.2.6 1c.3.3.8.5 1.2.6.6.1.9.2 1.2-.4.2-.4.2-.7.2-1.2l-.1-1.2c-.1-.5-.3-.8-.7-1a7 7 0 0 1-.9-.7l-.6-.1z" style="opacity:.1833;fill-rule:evenodd;clip-rule:evenodd;fill:#787974;enable-background:new"/><path id="path7606" d="m326-433.1 2-1.7.4-.3c.7-.6 1.3-1.4 1.7-2.2a9.5 9.5 0 0 0 1.4-3.5c.3-1.6.4-.5.1.5l-.1.5c-.2.7-.2 1.4-.5 2-.4.9-1 1.6-1.2 2.5-.1.5-.3 1.1-.2 1.5.1.5.8-.6 1.3-.7.6-.2.8-.4.8.4l-.3 1.5c-.2.8 2 .1 2.5 0 1.6-.4 2.6-.9 3.9-2 1.4-1.2 2.6-2.4 3.8-3.7 1-1 1.5-1.7.9.1l-.2.5-.2.5c-.3.9-1 1.9-1.8 2.5-1.3.9-2.1 2.5-3.5 3.2l-1.7.7c-.6.3 1.1.5 1.4.6 3.1.7-2.5 1-3.2 1-1.2 0-1.7-.2-2.7.3-.3.2 1.5.9 1.6.9.7.1 1.4.6 2.2.6 1.3 0-2.8.4-3.9.1l-2.9-.7c-.5-.1-1 0-1.4.1l.1 1.4c0 .9-.2 1.6-.7.3-.2-.7-.7-1.5-.7-2.2 0-.5-.6.7-.9 1.1a9 9 0 0 1-1.4 1.4l.6-1.5c.1-.5.9-1.7.4-1.9l-1.6-.1a9 9 0 0 1-2.2-.6c-1.3-.7-3.4-1.3-4.8-1.6-.1 0-2.3-2.3-.2-.3a8 8 0 0 0 5.3 2.2c.6 0 1.5-.2 2-.4.3-.1.8-.6 1.2-.7.4-.2-.6-.6-.9-.9l-.3-.4c-1.1-1.3-1.5-3.2-2.8-4.5-.2-.2-3.2-3.7-1.8-2.5 1.5 1.2 2.8 2.3 4.1 3.8l1.8 2.5c.6.8.5-.2.3-.7-.4-1.1-.2-2.7-.2-3.8 0-1.5.8 1.6.9 1.9.2.8.6 1.8 1.2 1s.7-1 .7.1v.2c-.3.1-.4.6-.3 1z" style="opacity:.4722;fill-rule:evenodd;clip-rule:evenodd;fill:#f3f4f2;enable-background:new"/><path id="path7608" d="m344.2-446.7.2 1c0 .2-1 1-1.2 1.1-.3.3-.4.8-.4 1.2-.1.5-.2.8-.1 1.3l.4 1.2.9 1.1c.4.4 1 .4 1.5.6.7.2-.4.8-.6.9-.4.3-.8.4-1.1.9-.3.5.3.7.6.9.4.1.9-.5 1.1-.7.2-.3.6-.7.6-1.1l.2-1.2.2-1.2c.1-.6.3-.8.7-1.1.3-.3.3-1 .2-1.3l-.4-1.1c-.1-.4-.6-.6-.9-.7-.4-.1-.9-.8-1.1-1-.2-.6-.3-.8-.8-.8z" style="opacity:.1167;fill-rule:evenodd;clip-rule:evenodd;fill:#787974;enable-background:new"/><path id="path7612" d="m324.8-463.3 1.3-.4c.5-.1 1.1.2 1.6.2.1 0 .4.7 1 .7h.2c.4 0 .8.3 1.1.6.3.2 0 .8-.1 1-.4.4-.7.1-1.1-.2l-.9-.6c-.4-.1-.9 0-1.3.1l-1.4.2c-.2 0-.8-.8-.9-1-.1-.2.4-.5.5-.6z" style="opacity:.2;fill-rule:evenodd;clip-rule:evenodd;fill:#938f8b;enable-background:new"/><path id="path7614" d="M332.3-462.2c.3.1 1 .1 1.5-.1.5-.1 1.4-.2 2-.1.3.1 2.5.5 1.5 1-.5.2-1 .3-1.4.6-.5.3.6.4.9.4.7 0 .3.8.1 1.1-.2.4-.1 1 0 1.4.1.4.9.4 1.2.4.5 0 1 .1 1.3.5.3.4.7.8.5 1.1-.2.4-1.1.4-1.4.4-.2 0-1.2-1.2-1.3-1.3-.4-.3-.8 0-1.1.1-.6.2-1.1-.6-1.4-.9-.4-.3-.7-.8-.9-1.2-.3-.5.2-.7-.6-.7-.5 0-.8-.1-1.1-.4-.5-.4-.9-.2-.9-.9 0-.6 0-.8.6-1.1.1-.2.3-.2.5-.3z" style="opacity:.2889;fill-rule:evenodd;clip-rule:evenodd;fill:#938f8b;enable-background:new"/><radialGradient id="path7616_1_" cx="4979" cy="-3568.6" r="537.7" gradientTransform="matrix(.022 0 0 -.028 211.8 -550.3)" gradientUnits="userSpaceOnUse"><stop offset="0" style="stop-color:#787974"/><stop offset="1" style="stop-color:#787974;stop-opacity:0"/></radialGradient><path id="path7616" d="M319.1-464.1c.1.3-.2.6-.4.9-.3.4-.5.7-.1 1.1.2.2.9 0 1.1-.1l1.6-.6 1.1-.3c.4-.1.9.1 1.1.3.1.1-.7.8-.8.8l-1.1.4-1.4.4c-.5.1-.8.2-1.2.5l-1.4 1.2c-.4.4-.6.9-.4 1.4.1.5.3.7.8.8.5.1.8-.1 1.1-.5.3-.5.5-1 .9-1.4l.9-.9c.4-.3.7-.4 1.1-.3.4.1.7.5 1.1.6.4.1.9-.4 1.2-.6l.2-.1c.3-.2.9-.1 1.2-.1.4 0 .8.2 1.1.4.4.2.8.2 1.2.5.4.3.7.6.9 1 .2.4.3.7.6 1l1.2.9c.2.2.4.8.4 1.1.1.5.2.9 0 1.4l-.7 1.4c-.2.4-.9.8-1.2 1.1-.5.4-1.2.4-1.7.9-.6.6-.6.9-1.2 1.7-.4.6.1.9.6.7l1.5-.4.2-.1 1.7-.8c.8-.2 2.4 1 3.1 1.4.6.3-.1 1-.4 1.1-.5.2-1 .3-1.6.3l-1.1-.2c-.5-.1-.8-.1-1.2.2-.4.3-.4.7-.1 1.1.2.4.6.7.7 1.1.1.5-.3.8-.7 1.1-.4.2-1-.1-1.5-.1-.6 0-1.1.3-1.6.6-.2.2-.4 1-.4 1.2l-.1.2c-.2.6 0 .9.2 1.4.1.4.5.7.7 1.1.2.4.4.7.1 1.2l-.4 1.1c-.1.3.3 1 .4 1.3.2.6 0 .7-.4 1.1-.3.3-.9.4-1.2.6-.4.2-1.1 0-1.4-.1-.4-.1-.8.1-1.1.2-.5.2-.5.5-.9 0s-.7-1.1-.9-1.7l-.1-.2-.1-1.4.1-1.3c0-.5-1.2.4-1.5.6l-.4.2c-.6.3-.6.8-.6 1.4 0 .5.3.9.3 1.5 0 .5-.6.7-1.1.7-.6 0-.9-.7-1.3-1.1-.4-.4-1.1-.8-1.3-1.3-.3-.7-.4-1 .2-1.5.4-.3.9-.4 1.2-.7.3-.4.7-1 0-1.2-.5-.1-.7-.3-1.3-.2l-.3.1c-1 .2-1 .1-2-.4-.7-.3-.9-.9-1.4-1.4-.5-.5-.7-1.1-.9-1.7l-.4-1.6-.1-1.4-.1-1.4v-1.5l.1-1.5.2-1.4v-.1c0-.5.3-1.1.5-1.5l.6-1.2.7-1.1.9-1.2 1.7-1.8c.4-.3.6-.8 1-1.2l1.6-1.2 1.1-1.1c.2-.4.3-.7.7-1.1l.6-.3z" style="opacity:.1778;fill-rule:evenodd;clip-rule:evenodd;fill:url(#path7616_1_);enable-background:new"/><path id="path7618" d="M324.8-445.1c0 .6-.5 1.1-1.1 1.1s-1.1-.5-1.1-1.1c0-.6.5-1.1 1.1-1.1s1.1.5 1.1 1.1z" class="st9"/><path id="path7620" d="M314.7-453.4c0 .3-.2.6-.6.6-.3 0-.6-.2-.6-.6 0-.3.2-.6.6-.6.4 0 .6.3.6.6z" style="opacity:.5444;fill:#fff;enable-background:new"/><path id="path7622" d="M340-446.3c0 .6-.5 1.1-1.1 1.1s-1.1-.5-1.1-1.1c0-.6.5-1.1 1.1-1.1s1.1.5 1.1 1.1z" style="opacity:.5444;fill:#c2c3be;enable-background:new"/><path id="path7624" d="M332.1-430.4c0 .6-.5 1.1-1.1 1.1s-1.1-.5-1.1-1.1c0-.6.5-1.1 1.1-1.1s1.1.5 1.1 1.1z" style="opacity:.5667;fill:#c2c3be;enable-background:new"/><path id="path7626" d="M338.7-446c0 .4-.3.7-.7.7s-.7-.3-.7-.7c0-.4.3-.7.7-.7s.7.3.7.7z" class="st9"/><path id="path7628" d="M325.8-429.7c0 .3-.2.6-.6.6-.3 0-.6-.2-.6-.6 0-.3.2-.6.6-.6.3 0 .6.3.6.6z" class="st9"/><path id="path7630" d="M336.1-436.9c0 .4-.3.7-.7.7s-.7-.3-.7-.7c0-.4.3-.7.7-.7s.7.4.7.7z" class="st9"/><path id="path7632" d="M344.1-454.6c0 .4-.3.7-.7.7s-.7-.3-.7-.7c0-.4.3-.7.7-.7s.7.4.7.7z" class="st9"/><path id="path7634" d="M339.4-453.3c0 .4-.3.7-.7.7a.7.7 0 0 1-.7-.7c0-.4.3-.7.7-.7.4 0 .7.3.7.7z" class="st9"/><path id="path7636" d="M341.3-460.2c0 .4-.3.7-.7.7s-.7-.3-.7-.7c0-.4.3-.7.7-.7s.7.3.7.7z" class="st9"/><path id="path7638" d="M327.5-439.7c0 .4-.3.7-.7.7s-.7-.3-.7-.7c0-.4.3-.7.7-.7s.7.3.7.7z" class="st9"/><path id="path7640" d="m326-432.7 1.8-1.6.3-.3c.6-.5 1.2-1.3 1.6-2 .7-1.1 1-2 1.3-3.2.3-1.5.4-.5.1.5l-.1.5c-.2.6-.2 1.3-.5 1.9-.3.8-.9 1.5-1.1 2.3-.1.4-.3 1-.2 1.4.1.4.8-.5 1.2-.7.6-.2.7-.3.7.3l-.3 1.4c-.1.7 1.9.1 2.3 0 1.5-.4 2.4-.8 3.6-1.8l3.6-3.4c1-.9 1.4-1.5.8.1l-.2.5-.2.5c-.3.8-.9 1.8-1.7 2.3-1.2.8-2 2.2-3.3 2.9-.5.3-1.1.4-1.6.6-.5.3 1 .4 1.3.5 2.9.6-2.3.9-3 .9-1.1 0-1.6-.2-2.5.3-.3.2 1.4.8 1.4.8.7.1 1.3.6 2 .6 1.2 0-2.6.4-3.6.1l-2.6-.6c-.5-.1-.9 0-1.3.1l.1 1.3c0 .8-.2 1.5-.6.3-.2-.7-.6-1.3-.6-2 0-.4-.6.7-.9 1-.4.5-1.1 1.2-1.3 1.2 0 0 .4-.8.5-1.4.1-.4.8-1.6.3-1.7l-1.5-.1c-.7-.1-1.4-.3-2-.6-1.2-.6-3.1-1.1-4.4-1.5-.1 0-2.1-2.1-.2-.3 1.2 1.2 3.2 2 4.9 2l1.9-.3 1.1-.7c.4-.1-.6-.5-.9-.8l-.3-.3c-1-1.2-1.4-2.9-2.6-4.1-.2-.2-3-3.4-1.7-2.3a25 25 0 0 1 3.8 3.5l1.7 2.3c.6.7.4-.1.3-.6-.3-1-.2-2.4-.2-3.5 0-1.4.7 1.5.8 1.7.2.7.5 1.6 1.1.9.6-.7.6-.9.6.1v.2c.2 0 .2.4.3.8z" style="fill-rule:evenodd;clip-rule:evenodd;fill:#fff"/><g id="g7642" style="opacity:.3167" transform="translate(461.7 -517.2)"><path id="path7644" d="M-124.1 64.6c0 1.4-1.2 2.6-2.7 2.6-1.5 0-2.7-1.2-2.7-2.6s1.2-2.6 2.7-2.6c1.5 0 2.7 1.2 2.7 2.6z" class="st15"/><path id="path7646" d="M-121 70.8c0 1.4-1.2 2.6-2.7 2.6s-2.7-1.2-2.7-2.6c0-1.4 1.2-2.6 2.7-2.6s2.7 1.1 2.7 2.6z" class="st15"/><path id="path7648" d="M-118 70.7c0 .9-.8 1.7-1.8 1.7s-1.8-.8-1.8-1.7.8-1.7 1.8-1.7 1.8.7 1.8 1.7z" class="st15"/><path id="path7651" d="M-133.3 62.2c0 2.2-1.9 4-4.3 4s-4.3-1.8-4.3-4 1.9-4 4.3-4 4.3 1.7 4.3 4z" class="st15"/><path id="path7653" d="M-141.5 71.7c0 2.6-2.2 4.7-4.9 4.7a4.8 4.8 0 0 1-4.9-4.7c0-2.6 2.2-4.7 4.9-4.7s4.9 2.1 4.9 4.7z" class="st15"/><path id="path7655" d="M-136.2 76c0 2-1.7 3.6-3.8 3.6s-3.8-1.6-3.8-3.6 1.7-3.6 3.8-3.6 3.8 1.6 3.8 3.6z" class="st15"/><path id="path7657" d="M-138.6 65.8c0 2-1.7 3.6-3.8 3.6a3.7 3.7 0 0 1-3.8-3.6c0-2 1.7-3.6 3.8-3.6 2.1 0 3.8 1.6 3.8 3.6z" class="st15"/></g><path id="path7659" d="M327.1-430.8a1 1 0 0 1-2 0c0-.5.5-1 1-1 .6 0 1 .4 1 1z" style="fill:#fff"/></g><path id="path7661" d="M386.5-447.4a21 21 0 0 1-42 0 21 21 0 0 1 21-20.9c11.6-.1 21 9.3 21 20.9z" style="fill:none;stroke:#888a85;stroke-width:1;stroke-miterlimit:5.5387"/><path id="path7663" d="M377-463a19.4 19.4 0 0 1 4.2 27.1c-6.3 8.6-18.5 10.5-27.2 4.2s-10.5-18.4-4.2-27.1A19.5 19.5 0 0 1 377-463z" style="fill:none;stroke:#fff;stroke-width:1;stroke-linecap:square;stroke-miterlimit:5.257"/><circle cx="354.3" cy="-449.9" r=".5" style="fill:#3c3c3c"/></g></svg>