<svg xmlns="http://www.w3.org/2000/svg" xml:space="preserve" id="svg1306" x="0" y="0" style="enable-background:new 0 0 45 45" version="1.1" viewBox="0 0 45 45"><style>.st8{fill:#c4c5c2}</style><g id="layer1_10_"><g id="g3936_2_"><g id="g4091_2_" style="opacity:.7"><path id="path7492_2_" d="M22.5 1.5 20.2 8l2.3-.2 2.3.2-2.3-6.5zM7.7 7.7l2.9 6.3c.9-1.3 2.1-2.3 3.3-3.3l-6.2-3zm29.6 0-6.3 3c1.3.9 2.3 2.1 3.3 3.3l3-6.3zM8 20.2l-6.5 2.3L8 24.8l-.2-2.3.2-2.3zm29 0 .2 2.3-.2 2.3 6.5-2.3-6.5-2.3zM10.6 31.1l-2.9 6.3 6.3-2.9a18.2 18.2 0 0 1-3.4-3.4zm23.8 0c-.9 1.3-2.1 2.3-3.2 3.2l6.3 3-3.1-6.2zM20.2 37l2.3 6.5 2.3-6.5-2.3.2-2.3-.2z" style="fill:#fce94f;stroke:#fcaf3e;stroke-width:.7373;stroke-linecap:square"/><radialGradient id="path7494_1_" cx="21.2" cy="226.4" r="18.7" gradientTransform="matrix(1.007 0 0 1.008 1.2 -205.6)" gradientUnits="userSpaceOnUse"><stop offset="0" style="stop-color:#fff;stop-opacity:0"/><stop offset=".8" style="stop-color:#fff;stop-opacity:0"/><stop offset="1" style="stop-color:#fff"/></radialGradient><path id="path7494_2_" d="m22.5 4.2-1.3 3.7 1.3-.1 1.3.1-1.3-3.7zM9.6 9.6l1.7 3.5a17 17 0 0 1 1.9-1.9L9.6 9.6zm25.9 0L32 11.3a17 17 0 0 1 1.9 1.9l1.6-3.6zM7.9 21.1l-3.7 1.4 3.7 1.3-.1-1.3.1-1.4zm29.2.1.1 1.3-.1 1.3 3.7-1.3-3.7-1.3zm-3.4 10.7c-.6.7-1.2 1.4-1.9 1.9l3.5 1.7-1.6-3.6zm-22.4 0-1.7 3.5 3.5-1.7-1.8-1.8zm9.9 5.2 1.3 3.7 1.3-3.7-1.3.1-1.3-.1z" style="fill:none;stroke:url(#path7494_1_);stroke-width:.8465;stroke-linecap:square"/></g><g id="g4046_2_"><g id="g3931_2_"><path id="path7498_2_" d="M29.7 12.6c5.5 4 6.6 11.6 2.6 17.1s-11.6 6.6-17.1 2.6-6.6-11.6-2.6-17.1 11.7-6.6 17.1-2.6z" style="fill:#ffee54;stroke:#fcaf3e;stroke-linecap:square;stroke-miterlimit:5.2638"/><radialGradient id="path7500_1_" cx="-80.1" cy="-72.1" r="9.3" gradientTransform="matrix(.887 1.536 -1.264 .807 -.6 198.5)" gradientUnits="userSpaceOnUse"><stop offset="0" style="stop-color:#fff7c2;stop-opacity:.6383"/><stop offset=".6" style="stop-color:#fcaf3e;stop-opacity:.1835"/><stop offset=".8" style="stop-color:#fcaf3e;stop-opacity:.5046"/><stop offset="1" style="stop-color:#fcaf3e"/></radialGradient><path id="path7500_2_" d="M34 20.9c1.2 6.4-3.1 12.3-9.5 13.2s-12.4-3.6-13.5-10 3.1-12.3 9.6-13.2S33 14.5 34 20.9z" style="fill:url(#path7500_1_)"/><linearGradient id="path7502_1_" x1="-270.6" x2="-278.6" y1="211.4" y2="226.8" gradientTransform="matrix(.716 -.976 .976 .716 5.4 -401.9)" gradientUnits="userSpaceOnUse"><stop offset="0" style="stop-color:#fff9c6"/><stop offset=".5" style="stop-color:#fff28c"/><stop offset="1" style="stop-color:#ffea85"/></linearGradient><path id="path7502_2_" d="M29.1 13.4a11.2 11.2 0 1 1-13.3 18.1 11.2 11.2 0 1 1 13.3-18.1z" style="fill:none;stroke:url(#path7502_1_);stroke-linecap:square;stroke-miterlimit:4.8425"/></g></g></g><g id="g6668_1_" transform="translate(-249 468)"><path id="path6670_1_" d="M278.8-444c-1.6 0-2.8 1.1-3.3 2.5a3 3 0 0 0-1.6-.4c-2 0-3.5 1.6-3.5 3.5l.2 1.2c-1 .6-1.7 1.6-1.7 2.7a3 3 0 0 0 3.1 3.1h13.3a3 3 0 0 0 3.1-3.1c0-1.2-.7-2.1-1.7-2.7l.2-1.2c0-2-1.6-3.5-3.5-3.5-.6 0-1.1.2-1.6.4-.1-1.5-1.4-2.5-3-2.5z" style="fill:#c4c5c2;stroke:#888a85;stroke-miterlimit:2"/><linearGradient id="path6672_2_" x1="770" x2="779.8" y1="-234.7" y2="-228.3" gradientTransform="translate(-498 -206)" gradientUnits="userSpaceOnUse"><stop offset="0" style="stop-color:#fff"/><stop offset="1" style="stop-color:#fff;stop-opacity:0"/></linearGradient><path id="path6672_1_" d="M278.8-443.6c-1.6 0-2.6 1-3 2.6-.5-.2-1.1-.6-1.7-.6-1.9 0-3.3 1.4-3.3 3.1l.3 1.3c-.9.5-1.7 1.4-1.7 2.3 0 1.7 1.1 2.9 3 2.9h12.8c2 0 3-1.4 3-2.9 0-1.1-.8-1.9-1.7-2.3l.3-1.3c0-1.9-1.5-3.2-3.3-3.2-.6 0-1.2.3-1.7.6-.3-1.6-1.4-2.5-3-2.5z" style="fill:url(#path6672_2_)"/><g id="g6674_1_"><path id="path6676_1_" d="M281.3-440.5c0 1.4-1.1 2.4-2.4 2.4s-2.4-1.1-2.4-2.4c0-1.4 1.1-2.4 2.4-2.4s2.4 1 2.4 2.4z" class="st8"/><linearGradient id="path6678_2_" x1="772.9" x2="774.4" y1="-244" y2="-241.6" gradientTransform="matrix(1.057 0 0 1.057 -538.7 -184.1)" gradientUnits="userSpaceOnUse"><stop offset="0" style="stop-color:#fff"/><stop offset="1" style="stop-color:#fff;stop-opacity:0"/></linearGradient><path id="path6678_1_" d="M281.3-440.5c0 1.4-1.1 2.4-2.4 2.4s-2.4-1.1-2.4-2.4c0-1.4 1.1-2.4 2.4-2.4s2.4 1 2.4 2.4z" style="fill:url(#path6678_2_)"/></g><path id="rect6680_1_" d="M272.2-438.8h14v6.3h-14z" class="st8"/><path id="path6682_1_" d="M274.3-434.7c0 1.2-1 2.1-2.1 2.1s-2.1-1-2.1-2.1 1-2.1 2.1-2.1c1.2.1 2.1 1.1 2.1 2.1z" class="st8"/><g id="g6684_1_"><path id="path6686_1_" d="M286.2-438.5c0 1.4-1.1 2.4-2.4 2.4s-2.4-1.1-2.4-2.4 1.1-2.4 2.4-2.4 2.4 1.1 2.4 2.4z" class="st8"/><linearGradient id="path6688_2_" x1="770.2" x2="772.5" y1="-245.9" y2="-242.4" gradientTransform="matrix(1.057 0 0 1.057 -531.7 -181.1)" gradientUnits="userSpaceOnUse"><stop offset="0" style="stop-color:#fff"/><stop offset="1" style="stop-color:#fff;stop-opacity:0"/></linearGradient><path id="path6688_1_" d="M286.2-438.5c0 1.4-1.1 2.4-2.4 2.4s-2.4-1.1-2.4-2.4 1.1-2.4 2.4-2.4 2.4 1.1 2.4 2.4z" style="fill:url(#path6688_2_)"/></g><g id="g6690_1_"><path id="path6692_1_" d="M276.4-438.5c0 1.4-1.1 2.4-2.4 2.4s-2.4-1.1-2.4-2.4 1.1-2.4 2.4-2.4 2.4 1.1 2.4 2.4z" class="st8"/><linearGradient id="path6694_2_" x1="774.1" x2="776.5" y1="-245.2" y2="-242.8" gradientTransform="matrix(1.057 0 0 1.057 -545.7 -181.1)" gradientUnits="userSpaceOnUse"><stop offset="0" style="stop-color:#fff"/><stop offset="1" style="stop-color:#fff;stop-opacity:0"/></linearGradient><path id="path6694_1_" d="M276.4-438.5c0 1.4-1.1 2.4-2.4 2.4s-2.4-1.1-2.4-2.4 1.1-2.4 2.4-2.4 2.4 1.1 2.4 2.4z" style="fill:url(#path6694_2_)"/></g><g id="g6696_1_" transform="translate(-1)"><path id="path6698_1_" d="M279.1-440.9a4.5 4.5 0 0 0-4.5 4.5c0 1.7 1 3 2.2 3.8h4.5a4.2 4.2 0 0 0 2.2-3.8 4.3 4.3 0 0 0-4.4-4.5z" class="st8"/><linearGradient id="path6700_2_" x1="777.1" x2="779.9" y1="-233.1" y2="-229.5" gradientTransform="translate(-500 -206)" gradientUnits="userSpaceOnUse"><stop offset="0" style="stop-color:#fff"/><stop offset="1" style="stop-color:#fff;stop-opacity:0"/></linearGradient><path id="path6700_1_" d="M279.1-440.9a4.5 4.5 0 0 0-4.5 4.5c0 1.7 1 3 2.2 3.8h4.5a4.2 4.2 0 0 0 2.2-3.8 4.3 4.3 0 0 0-4.4-4.5z" style="fill:url(#path6700_2_)"/></g><linearGradient id="path6702_2_" x1="807.9" x2="810" y1="-214.3" y2="-212.3" gradientTransform="matrix(.906 0 0 .906 -460.6 -241.7)" gradientUnits="userSpaceOnUse"><stop offset="0" style="stop-color:#fff"/><stop offset="1" style="stop-color:#fff;stop-opacity:0"/></linearGradient><path id="path6702_1_" d="M274.3-434.7c0 1.2-1 2.1-2.1 2.1-1.2 0-2.1-1-2.1-2.1 0-1.2 1-2.1 2.1-2.1 1.2.1 2.1 1.1 2.1 2.1z" style="fill:url(#path6702_2_)"/><path id="path6704_1_" d="M287.5-438.4c0 1.9-2.2 2.6-2.2 2.6s1.7-1.2 1.7-2.5l.5-.1z" style="fill-rule:evenodd;clip-rule:evenodd;fill:#888a85"/><g id="g6706_1_" transform="matrix(1.143 0 0 1.143 -28.6 67)"><path id="path6708_1_" d="M273.5-439.5c0 1.4-1.1 2.4-2.4 2.4s-2.4-1.1-2.4-2.4c0-1.4 1.1-2.4 2.4-2.4s2.4 1 2.4 2.4z" class="st8"/><linearGradient id="path6710_2_" x1="634.2" x2="637.1" y1="-249.7" y2="-246.6" gradientTransform="matrix(1.38 0 0 1.38 -606.7 -97.7)" gradientUnits="userSpaceOnUse"><stop offset="0" style="stop-color:#fff"/><stop offset="1" style="stop-color:#fff;stop-opacity:0"/></linearGradient><path id="path6710_1_" d="M273.5-439.5c0 1.4-1.1 2.4-2.4 2.4s-2.4-1.1-2.4-2.4c0-1.4 1.1-2.4 2.4-2.4s2.4 1 2.4 2.4z" style="fill:url(#path6710_2_)"/></g></g></g></svg>