<svg xmlns="http://www.w3.org/2000/svg" xml:space="preserve" id="svg1306" x="0" y="0" style="enable-background:new 0 0 45 45" version="1.1" viewBox="0 0 45 45"><style>.st0{fill:#729fcf;stroke:#204a87;stroke-width:1.0746;stroke-miterlimit:2}.st11,.st5{fill:#c4c5c2}.st11{stroke:#888a85;stroke-miterlimit:2}.st18{fill-rule:evenodd;clip-rule:evenodd;fill:#888a85}</style><g id="layer1_18_"><g id="g12227_3_" transform="translate(-203 271)"><path id="path12229_3_" d="M231.8-228.8c-1.2 0-2.1-1-2.1-2.2.2-2.5 2-2.8 1.8-5.2 1.7.6 4.5 6.9.3 7.4z" class="st0"/><radialGradient id="path12231_1_" cx="3354.2" cy="-2863.3" r="21.7" gradientTransform="matrix(.082 .004 .003 -.126 -33.1 -602.8)" gradientUnits="userSpaceOnUse"><stop offset="0" style="stop-color:#fff"/><stop offset="1" style="stop-color:#fff;stop-opacity:0"/></radialGradient><path id="path12231_3_" d="M233.6-231.1c0 1-.8 1.8-1.8 1.7-1 0-1.8-.9-1.7-1.9s2.1-1.6 1.9-3.6c.9.1 1.6 2.8 1.6 3.8z" style="opacity:.4611;fill:url(#path12231_1_);enable-background:new"/><linearGradient id="path12233_1_" x1="3620.9" x2="3641.4" y1="2377.8" y2="2399.3" gradientTransform="matrix(.001 .116 .11 .009 -34.8 -674.3)" gradientUnits="userSpaceOnUse"><stop offset="0" style="stop-color:#fff"/><stop offset="1" style="stop-color:#fff;stop-opacity:0"/></linearGradient><path id="path12233_3_" d="M232.9-229.7c-4.6 1.2-2-4.3-1-3.9-2.5 2.9 1 3.9 1 3.9z" style="fill:url(#path12233_1_)"/></g><g id="g10011_3_" transform="translate(-287 298)"><path id="path8267_3_" d="M310-296.3a7.4 7.4 0 0 0-6.4 3.8c-.9-.5-2-.8-3.1-.8a7 7 0 0 0-7 7 7 7 0 0 0 7 7c2.4 0 4.4-1.3 5.7-3.2 1.1.7 2.4 1.2 3.8 1.2.9 0 1.8-.2 2.6-.5a7 7 0 0 0 2 2.2l-.1.4c0 3.9 3.1 7 7 7s7-3.1 7-7c0-2.4-1.3-4.4-3.1-5.6l.1-.4a7 7 0 0 0-7-7c-.6 0-1.2.2-1.8.4a7.2 7.2 0 0 0-6.7-4.5z" style="fill:#888a85"/><linearGradient id="path8291_1_" x1="1087.9" x2="1138.3" y1="-65.6" y2="-82.6" gradientTransform="matrix(1 0 0 -1 -792 -356)" gradientUnits="userSpaceOnUse"><stop offset="0" style="stop-color:#fff"/><stop offset="1" style="stop-color:#fff;stop-opacity:0"/></linearGradient><path id="path8291_3_" d="M310-295.3a6.7 6.7 0 0 0-6.1 4.2c-1-.7-2.1-1.2-3.4-1.2-3.3 0-6 2.7-6 6s2.7 6 6 6a6 6 0 0 0 5.4-3.5c1.1.9 2.5 1.5 4.1 1.5 1.1 0 2-.3 2.9-.8.4 1 1.1 1.8 1.9 2.4-.2.6-.4 1.2-.4 1.8a6.5 6.5 0 1 0 13 0c0-2.4-1.3-4.3-3.2-5.5l.2-1a6 6 0 0 0-8.4-5.5 6.3 6.3 0 0 0-6-4.4z" style="fill:url(#path8291_1_)"/><path id="path8414_3_" d="M327.5-278.8a6.5 6.5 0 1 1-13 0 6.5 6.5 0 1 1 13 0z" class="st5"/><g id="g8349_3_" transform="translate(69 102)"><path id="path8327_3_" d="M246.5-390.8c0 3-2.5 5.5-5.5 5.5s-5.5-2.5-5.5-5.5 2.5-5.5 5.5-5.5 5.5 2.5 5.5 5.5z" class="st5"/><linearGradient id="path8329_1_" x1="933.3" x2="939.1" y1="-208.1" y2="-213" gradientTransform="matrix(.883 0 0 -.883 -586.5 -577.7)" gradientUnits="userSpaceOnUse"><stop offset="0" style="stop-color:#fff"/><stop offset="1" style="stop-color:#fff;stop-opacity:0"/></linearGradient><path id="path8329_3_" d="M246.5-390.8c0 3-2.5 5.5-5.5 5.5s-5.5-2.5-5.5-5.5 2.5-5.5 5.5-5.5 5.5 2.5 5.5 5.5z" style="fill:url(#path8329_1_)"/></g><g id="g8389_3_" transform="translate(69 102)"><path id="path8368_3_" d="M254.5-386.8c0 3-2.5 5.5-5.5 5.5s-5.5-2.5-5.5-5.5 2.5-5.5 5.5-5.5 5.5 2.5 5.5 5.5z" class="st5"/><linearGradient id="path8370_1_" x1="928.7" x2="934.6" y1="-199" y2="-205" gradientTransform="matrix(.912 0 0 -.912 -602.3 -572.8)" gradientUnits="userSpaceOnUse"><stop offset="0" style="stop-color:#fff"/><stop offset="1" style="stop-color:#fff;stop-opacity:0"/></linearGradient><path id="path8370_3_" d="M254.5-386.8c0 3-2.5 5.5-5.5 5.5s-5.5-2.5-5.5-5.5 2.5-5.5 5.5-5.5 5.5 2.5 5.5 5.5z" style="fill:url(#path8370_1_)"/></g><g id="g8323_3_" transform="translate(69 102)"><path id="path8311_3_" d="M236.5-388.3c0 2.8-2.2 5-5 5s-5-2.2-5-5 2.2-5 5-5 5 2.2 5 5z" class="st5"/><linearGradient id="path8313_1_" x1="844.4" x2="848.8" y1="-130.8" y2="-134.3" gradientTransform="matrix(1.143 0 0 -1.143 -736.7 -540.3)" gradientUnits="userSpaceOnUse"><stop offset="0" style="stop-color:#fff"/><stop offset="1" style="stop-color:#fff;stop-opacity:0"/></linearGradient><path id="path8313_3_" d="M236.5-388.3c0 2.8-2.2 5-5 5s-5-2.2-5-5 2.2-5 5-5 5 2.2 5 5z" style="fill:url(#path8313_1_)"/></g><g id="g8406_3_" transform="translate(69 102)"><path id="path8393_3_" d="M247.5-384.3c0 3.9-3.1 7-7 7s-7-3.1-7-7 3.1-7 7-7 7 3.1 7 7z" class="st5"/><linearGradient id="path8395_1_" x1="878.1" x2="885.7" y1="-160.9" y2="-166.7" gradientTransform="matrix(1.039 0 0 -1.039 -676.4 -555.1)" gradientUnits="userSpaceOnUse"><stop offset="0" style="stop-color:#fff"/><stop offset="1" style="stop-color:#fff;stop-opacity:0"/></linearGradient><path id="path8395_3_" d="M247.5-384.3c0 3.9-3.1 7-7 7s-7-3.1-7-7 3.1-7 7-7 7 3.1 7 7z" style="fill:url(#path8395_1_)"/></g><g id="g4518_3_" transform="matrix(.935 0 0 .935 446.8 -187.6)"><path id="path4520_3_" d="M-154.8-98.6c0 3-2.4 5.4-5.4 5.4s-5.4-2.4-5.4-5.4 2.4-5.4 5.4-5.4 5.4 2.4 5.4 5.4z" class="st5"/><linearGradient id="path4522_1_" x1="-864.8" x2="-861.6" y1="-65.1" y2="-69.1" gradientTransform="matrix(1.42 0 0 -1.42 1064.4 -196)" gradientUnits="userSpaceOnUse"><stop offset="0" style="stop-color:#fff"/><stop offset="1" style="stop-color:#fff;stop-opacity:0"/></linearGradient><path id="path4522_3_" d="M-154.7-98.6c0 3-2.4 5.4-5.4 5.4s-5.4-2.4-5.4-5.4 2.4-5.4 5.4-5.4a5.4 5.4 0 0 1 5.4 5.4z" style="fill:url(#path4522_1_)"/></g><g id="g7794_3_" transform="translate(38 162)"><path id="path7796_3_" d="M279-445.8a5 5 0 0 0-4.7 3.6 5 5 0 0 0-7.3 4.4c0 .6.2 1.1.3 1.6a4.5 4.5 0 0 0 2.2 8.4h19c2.5 0 4.5-2 4.5-4.5 0-1.7-1-3.1-2.3-3.9a5 5 0 0 0-4.7-6.6 6 6 0 0 0-2.3.6 5 5 0 0 0-4.7-3.6z" class="st11"/><linearGradient id="path7798_1_" x1="1016.2" x2="1030.2" y1="-179.2" y2="-188.3" gradientTransform="matrix(1 0 0 -1 -747 -620)" gradientUnits="userSpaceOnUse"><stop offset="0" style="stop-color:#fff"/><stop offset="1" style="stop-color:#fff;stop-opacity:0"/></linearGradient><path id="path7798_3_" d="M279-445.3c-2.2 0-3.7 1.3-4.4 3.8-.7-.3-1.5-.8-2.4-.8-2.7 0-4.8 1.9-4.8 4.5 0 .5.3 1.3.4 1.8-1.3.7-2.4 1.9-2.4 3.4 0 2.3 1.5 4.3 4.3 4.3H288c2.8 0 4.3-1.9 4.3-4.3 0-1.6-1.1-2.7-2.4-3.4a6 6 0 0 0 .5-1.8c0-2.6-2.1-4.6-4.8-4.6-.8 0-1.6.5-2.3.8-.5-2.3-2.1-3.7-4.3-3.7z" style="fill:url(#path7798_1_)"/><g id="g7800_3_"><path id="path7802_3_" d="M282.5-440.8c0 1.9-1.6 3.5-3.5 3.5s-3.5-1.6-3.5-3.5 1.6-3.5 3.5-3.5 3.5 1.6 3.5 3.5z" class="st5"/><linearGradient id="path7804_1_" x1="1016.1" x2="1018.2" y1="-163.6" y2="-167" gradientTransform="matrix(1.057 0 0 -1.057 -795.9 -615.6)" gradientUnits="userSpaceOnUse"><stop offset="0" style="stop-color:#fff"/><stop offset="1" style="stop-color:#fff;stop-opacity:0"/></linearGradient><path id="path7804_3_" d="M282.5-440.8c0 1.9-1.6 3.5-3.5 3.5s-3.5-1.6-3.5-3.5 1.6-3.5 3.5-3.5 3.5 1.6 3.5 3.5z" style="fill:url(#path7804_1_)"/></g><path id="rect7806_3_" d="M269.5-438.3h20v9h-20z" class="st5"/><path id="path7808_3_" d="M272.5-432.3c0 1.7-1.3 3-3 3s-3-1.3-3-3 1.3-3 3-3 3 1.3 3 3z" class="st5"/><g id="g7810_3_"><path id="path7812_3_" d="M289.5-437.8c0 1.9-1.6 3.5-3.5 3.5s-3.5-1.6-3.5-3.5 1.6-3.5 3.5-3.5 3.5 1.6 3.5 3.5z" class="st5"/><linearGradient id="path7814_1_" x1="1015" x2="1018.4" y1="-162.1" y2="-167.2" gradientTransform="matrix(1.057 0 0 -1.057 -788.9 -612.6)" gradientUnits="userSpaceOnUse"><stop offset="0" style="stop-color:#fff"/><stop offset="1" style="stop-color:#fff;stop-opacity:0"/></linearGradient><path id="path7814_3_" d="M289.5-437.8c0 1.9-1.6 3.5-3.5 3.5s-3.5-1.6-3.5-3.5 1.6-3.5 3.5-3.5 3.5 1.6 3.5 3.5z" style="fill:url(#path7814_1_)"/></g><g id="g7816_3_"><path id="path7818_3_" d="M275.5-437.8c0 1.9-1.6 3.5-3.5 3.5s-3.5-1.6-3.5-3.5 1.6-3.5 3.5-3.5 3.5 1.6 3.5 3.5z" class="st5"/><linearGradient id="path7820_1_" x1="1014.9" x2="1018.4" y1="-163.1" y2="-166.6" gradientTransform="matrix(1.057 0 0 -1.057 -802.9 -612.6)" gradientUnits="userSpaceOnUse"><stop offset="0" style="stop-color:#fff"/><stop offset="1" style="stop-color:#fff;stop-opacity:0"/></linearGradient><path id="path7820_3_" d="M275.5-437.8c0 1.9-1.6 3.5-3.5 3.5s-3.5-1.6-3.5-3.5 1.6-3.5 3.5-3.5 3.5 1.6 3.5 3.5z" style="fill:url(#path7820_1_)"/></g><g id="g7822_3_" transform="translate(-1)"><path id="path7824_3_" d="M279-441.3a6.5 6.5 0 0 0-6.5 6.5c0 2.4 1.3 4.3 3.3 5.5h6.5a6.4 6.4 0 0 0 3.3-5.5 6.7 6.7 0 0 0-6.6-6.5z" class="st5"/><linearGradient id="path7826_1_" x1="1026" x2="1030.1" y1="-181.4" y2="-186.6" gradientTransform="matrix(1 0 0 -1 -750 -620)" gradientUnits="userSpaceOnUse"><stop offset="0" style="stop-color:#fff"/><stop offset="1" style="stop-color:#fff;stop-opacity:0"/></linearGradient><path id="path7826_3_" d="M279-441.3a6.5 6.5 0 0 0-6.5 6.5c0 2.4 1.3 4.4 3.3 5.5h6.5a6.4 6.4 0 0 0 3.3-5.5c-.1-3.6-3-6.5-6.6-6.5z" style="fill:url(#path7826_1_)"/></g><linearGradient id="path7828_1_" x1="1064.2" x2="1067.3" y1="-212.8" y2="-215.6" gradientTransform="matrix(.906 0 0 -.906 -696 -626.5)" gradientUnits="userSpaceOnUse"><stop offset="0" style="stop-color:#fff"/><stop offset="1" style="stop-color:#fff;stop-opacity:0"/></linearGradient><path id="path7828_3_" d="M272.5-432.3c0 1.7-1.3 3-3 3s-3-1.3-3-3 1.3-3 3-3 3 1.3 3 3z" style="fill:url(#path7828_1_)"/><path id="path7830_3_" d="M291.5-437.6c0 2.7-3.3 3.7-3.3 3.7s2.3-1.6 2.3-3.7h1z" class="st18"/><g id="g7832_3_" transform="matrix(1.143 0 0 1.143 -28.6 67)"><path id="path7834_3_" d="M275.7-437.7c0 1.9-1.6 3.5-3.5 3.5s-3.5-1.6-3.5-3.5 1.6-3.5 3.5-3.5 3.5 1.6 3.5 3.5z" class="st5"/><linearGradient id="path7836_1_" x1="764.2" x2="768.3" y1="-170" y2="-174.4" gradientTransform="matrix(1.577 0 0 -1.577 -936.7 -709.7)" gradientUnits="userSpaceOnUse"><stop offset="0" style="stop-color:#fff"/><stop offset="1" style="stop-color:#fff;stop-opacity:0"/></linearGradient><path id="path7836_3_" d="M275.7-437.7c0 1.9-1.6 3.5-3.5 3.5s-3.5-1.6-3.5-3.5 1.6-3.5 3.5-3.5 3.5 1.6 3.5 3.5z" style="fill:url(#path7836_1_)"/></g></g><g id="g7852_3_" transform="translate(23 158)"><path id="path7854_3_" d="M279-445.8a5 5 0 0 0-4.7 3.6 5 5 0 0 0-7.3 4.4c0 .6.2 1.1.3 1.6a4.5 4.5 0 0 0 2.2 8.4h19c2.5 0 4.5-2 4.5-4.5 0-1.7-1-3.1-2.3-3.9a5 5 0 0 0-4.7-6.6 6 6 0 0 0-2.3.6 5 5 0 0 0-4.7-3.6z" class="st11"/><linearGradient id="path7856_1_" x1="1061.2" x2="1075.2" y1="-175.2" y2="-184.3" gradientTransform="matrix(1 0 0 -1 -792 -616)" gradientUnits="userSpaceOnUse"><stop offset="0" style="stop-color:#fff"/><stop offset="1" style="stop-color:#fff;stop-opacity:0"/></linearGradient><path id="path7856_3_" d="M279-445.3c-2.2 0-3.7 1.3-4.4 3.8-.7-.3-1.5-.8-2.4-.8-2.7 0-4.8 1.9-4.8 4.5 0 .5.3 1.3.4 1.8-1.3.7-2.4 1.9-2.4 3.4 0 2.3 1.5 4.3 4.3 4.3H288c2.8 0 4.3-1.9 4.3-4.3 0-1.6-1.1-2.7-2.4-3.4a6 6 0 0 0 .5-1.8c0-2.6-2.1-4.6-4.8-4.6-.8 0-1.6.5-2.3.8-.5-2.3-2.1-3.7-4.3-3.7z" style="fill:url(#path7856_1_)"/><g id="g7858_3_"><path id="path7860_3_" d="M282.5-440.8c0 1.9-1.6 3.5-3.5 3.5s-3.5-1.6-3.5-3.5 1.6-3.5 3.5-3.5 3.5 1.6 3.5 3.5z" class="st5"/><linearGradient id="path7862_1_" x1="1061.1" x2="1063.2" y1="-159.6" y2="-163" gradientTransform="matrix(1.057 0 0 -1.057 -843.4 -611.4)" gradientUnits="userSpaceOnUse"><stop offset="0" style="stop-color:#fff"/><stop offset="1" style="stop-color:#fff;stop-opacity:0"/></linearGradient><path id="path7862_3_" d="M282.5-440.8c0 1.9-1.6 3.5-3.5 3.5s-3.5-1.6-3.5-3.5 1.6-3.5 3.5-3.5 3.5 1.6 3.5 3.5z" style="fill:url(#path7862_1_)"/></g><path id="rect7864_3_" d="M269.5-438.3h20v9h-20z" class="st5"/><path id="path7866_3_" d="M272.5-432.3c0 1.7-1.3 3-3 3s-3-1.3-3-3 1.3-3 3-3 3 1.3 3 3z" class="st5"/><g id="g7868_3_"><path id="path7870_3_" d="M289.5-437.8c0 1.9-1.6 3.5-3.5 3.5s-3.5-1.6-3.5-3.5 1.6-3.5 3.5-3.5 3.5 1.6 3.5 3.5z" class="st5"/><linearGradient id="path7872_1_" x1="1060.1" x2="1063.4" y1="-158.1" y2="-163.2" gradientTransform="matrix(1.057 0 0 -1.057 -836.4 -608.4)" gradientUnits="userSpaceOnUse"><stop offset="0" style="stop-color:#fff"/><stop offset="1" style="stop-color:#fff;stop-opacity:0"/></linearGradient><path id="path7872_3_" d="M289.5-437.8c0 1.9-1.6 3.5-3.5 3.5s-3.5-1.6-3.5-3.5 1.6-3.5 3.5-3.5 3.5 1.6 3.5 3.5z" style="fill:url(#path7872_1_)"/></g><g id="g7874_3_"><path id="path7876_3_" d="M275.5-437.8c0 1.9-1.6 3.5-3.5 3.5s-3.5-1.6-3.5-3.5 1.6-3.5 3.5-3.5 3.5 1.6 3.5 3.5z" class="st5"/><linearGradient id="path7878_1_" x1="1059.9" x2="1063.4" y1="-159.1" y2="-162.6" gradientTransform="matrix(1.057 0 0 -1.057 -850.4 -608.4)" gradientUnits="userSpaceOnUse"><stop offset="0" style="stop-color:#fff"/><stop offset="1" style="stop-color:#fff;stop-opacity:0"/></linearGradient><path id="path7878_3_" d="M275.5-437.8c0 1.9-1.6 3.5-3.5 3.5s-3.5-1.6-3.5-3.5 1.6-3.5 3.5-3.5 3.5 1.6 3.5 3.5z" style="fill:url(#path7878_1_)"/></g><g id="g7880_3_" transform="translate(-1)"><path id="path7882_3_" d="M279-441.3a6.5 6.5 0 0 0-6.5 6.5c0 2.4 1.3 4.3 3.3 5.5h6.5a6.4 6.4 0 0 0 3.3-5.5 6.7 6.7 0 0 0-6.6-6.5z" class="st5"/><linearGradient id="path7884_1_" x1="1071" x2="1075.1" y1="-177.4" y2="-182.6" gradientTransform="matrix(1 0 0 -1 -795 -616)" gradientUnits="userSpaceOnUse"><stop offset="0" style="stop-color:#fff"/><stop offset="1" style="stop-color:#fff;stop-opacity:0"/></linearGradient><path id="path7884_3_" d="M279-441.3a6.5 6.5 0 0 0-6.5 6.5c0 2.4 1.3 4.4 3.3 5.5h6.5a6.4 6.4 0 0 0 3.3-5.5c-.1-3.6-3-6.5-6.6-6.5z" style="fill:url(#path7884_1_)"/></g><linearGradient id="path7886_1_" x1="1109.2" x2="1112.3" y1="-208.8" y2="-211.6" gradientTransform="matrix(.906 0 0 -.906 -736.8 -623)" gradientUnits="userSpaceOnUse"><stop offset="0" style="stop-color:#fff"/><stop offset="1" style="stop-color:#fff;stop-opacity:0"/></linearGradient><path id="path7886_3_" d="M272.5-432.3c0 1.7-1.3 3-3 3s-3-1.3-3-3 1.3-3 3-3 3 1.3 3 3z" style="fill:url(#path7886_1_)"/><path id="path7888_3_" d="M291.5-437.6c0 2.7-3.3 3.7-3.3 3.7s2.3-1.6 2.3-3.7h1z" class="st18"/><g id="g7890_3_" transform="matrix(1.143 0 0 1.143 -28.6 67)"><path id="path7892_3_" d="M275.7-437.7c0 1.9-1.6 3.5-3.5 3.5s-3.5-1.6-3.5-3.5 1.6-3.5 3.5-3.5 3.5 1.6 3.5 3.5z" class="st5"/><linearGradient id="path7896_1_" x1="798.8" x2="802.9" y1="-166.8" y2="-171.2" gradientTransform="matrix(1.577 0 0 -1.577 -991.4 -704.8)" gradientUnits="userSpaceOnUse"><stop offset="0" style="stop-color:#fff"/><stop offset="1" style="stop-color:#fff;stop-opacity:0"/></linearGradient><path id="path7896_3_" d="M275.7-437.7c0 1.9-1.6 3.5-3.5 3.5s-3.5-1.6-3.5-3.5 1.6-3.5 3.5-3.5 3.5 1.6 3.5 3.5z" style="fill:url(#path7896_1_)"/></g></g></g><g id="g12191_3_" transform="translate(-223 261)"><path id="path12193_3_" d="M231.8-228.8c-1.2 0-2.1-1-2.1-2.2.2-2.5 2-2.8 1.8-5.2 1.7.6 4.5 6.9.3 7.4z" class="st0"/><radialGradient id="path12195_1_" cx="3414.2" cy="-2853.3" r="21.7" gradientTransform="matrix(.082 .004 .003 -.126 -38 -601.8)" gradientUnits="userSpaceOnUse"><stop offset="0" style="stop-color:#fff"/><stop offset="1" style="stop-color:#fff;stop-opacity:0"/></radialGradient><path id="path12195_3_" d="M233.6-231.1c0 1-.8 1.8-1.8 1.7-1 0-1.8-.9-1.7-1.9s2.1-1.6 1.9-3.6c.9.1 1.6 2.8 1.6 3.8z" style="opacity:.4611;fill:url(#path12195_1_);enable-background:new"/><linearGradient id="path12197_1_" x1="3680.9" x2="3701.4" y1="2387.8" y2="2409.3" gradientTransform="matrix(.001 .116 .11 .009 -36 -681.4)" gradientUnits="userSpaceOnUse"><stop offset="0" style="stop-color:#fff"/><stop offset="1" style="stop-color:#fff;stop-opacity:0"/></linearGradient><path id="path12197_3_" d="M232.9-229.7c-4.6 1.2-2-4.3-1-3.9-2.5 2.9 1 3.9 1 3.9z" style="fill:url(#path12197_1_)"/></g><g id="g12239_3_" transform="translate(-194 268)"><path id="path12241_3_" d="M231.8-228.8c-1.2 0-2.1-1-2.1-2.2.2-2.5 2-2.8 1.8-5.2 1.7.6 4.5 6.9.3 7.4z" class="st0"/><radialGradient id="path12243_1_" cx="3327.2" cy="-2860.3" r="21.7" gradientTransform="matrix(.082 .004 .003 -.126 -31 -602.4)" gradientUnits="userSpaceOnUse"><stop offset="0" style="stop-color:#fff"/><stop offset="1" style="stop-color:#fff;stop-opacity:0"/></radialGradient><path id="path12243_3_" d="M233.6-231.1c0 1-.8 1.8-1.8 1.7-1 0-1.8-.9-1.7-1.9s2.1-1.6 1.9-3.6c.9.1 1.6 2.8 1.6 3.8z" style="opacity:.4611;fill:url(#path12243_1_);enable-background:new"/><linearGradient id="path12245_1_" x1="3593.9" x2="3614.4" y1="2380.8" y2="2402.3" gradientTransform="matrix(.001 .116 .11 .009 -35 -671.2)" gradientUnits="userSpaceOnUse"><stop offset="0" style="stop-color:#fff"/><stop offset="1" style="stop-color:#fff;stop-opacity:0"/></linearGradient><path id="path12245_3_" d="M232.9-229.7c-4.6 1.2-2-4.3-1-3.9-2.5 2.9 1 3.9 1 3.9z" style="fill:url(#path12245_1_)"/></g><g id="g12186_3_" transform="translate(-225 271)"><path id="path6059_3_" d="M231.8-228.8c-1.2 0-2.1-1-2.1-2.2.2-2.5 2-2.8 1.8-5.2 1.7.6 4.5 6.9.3 7.4z" class="st0"/><radialGradient id="path6061_1_" cx="3420.2" cy="-2863.3" r="21.7" gradientTransform="matrix(.082 .004 .003 -.126 -38.5 -603)" gradientUnits="userSpaceOnUse"><stop offset="0" style="stop-color:#fff"/><stop offset="1" style="stop-color:#fff;stop-opacity:0"/></radialGradient><path id="path6061_3_" d="M233.6-231.1c0 1-.8 1.8-1.8 1.7-1 0-1.8-.9-1.7-1.9s2.1-1.6 1.9-3.6c.9.1 1.6 2.8 1.6 3.8z" style="opacity:.4611;fill:url(#path6061_1_);enable-background:new"/><linearGradient id="path6063_1_" x1="3686.9" x2="3707.4" y1="2377.8" y2="2399.3" gradientTransform="matrix(.001 .116 .11 .009 -34.8 -682)" gradientUnits="userSpaceOnUse"><stop offset="0" style="stop-color:#fff"/><stop offset="1" style="stop-color:#fff;stop-opacity:0"/></linearGradient><path id="path6063_3_" d="M232.9-229.7c-4.6 1.2-2-4.3-1-3.9-2.5 2.9 1 3.9 1 3.9z" style="fill:url(#path6063_1_)"/></g><g id="g12203_3_" transform="translate(-215 266)"><path id="path12205_3_" d="M231.8-228.8c-1.2 0-2.1-1-2.1-2.2.2-2.5 2-2.8 1.8-5.2 1.7.6 4.5 6.9.3 7.4z" class="st0"/><radialGradient id="path12207_1_" cx="3390.2" cy="-2858.3" r="21.7" gradientTransform="matrix(.082 .004 .003 -.126 -36.1 -602.3)" gradientUnits="userSpaceOnUse"><stop offset="0" style="stop-color:#fff"/><stop offset="1" style="stop-color:#fff;stop-opacity:0"/></radialGradient><path id="path12207_3_" d="M233.6-231.1c0 1-.8 1.8-1.8 1.7-1 0-1.8-.9-1.7-1.9s2.1-1.6 1.9-3.6c.9.1 1.6 2.8 1.6 3.8z" style="opacity:.4611;fill:url(#path12207_1_);enable-background:new"/><linearGradient id="path12209_1_" x1="3656.9" x2="3677.4" y1="2382.8" y2="2404.3" gradientTransform="matrix(.001 .116 .11 .009 -35.3 -678.5)" gradientUnits="userSpaceOnUse"><stop offset="0" style="stop-color:#fff"/><stop offset="1" style="stop-color:#fff;stop-opacity:0"/></linearGradient><path id="path12209_3_" d="M232.9-229.7c-4.6 1.2-2-4.3-1-3.9-2.5 2.9 1 3.9 1 3.9z" style="fill:url(#path12209_1_)"/></g><g id="g12215_3_" transform="translate(-201 261)"><path id="path12217_3_" d="M231.8-228.8c-1.2 0-2.1-1-2.1-2.2.2-2.5 2-2.8 1.8-5.2 1.7.6 4.5 6.9.3 7.4z" class="st0"/><radialGradient id="path12219_1_" cx="3348.2" cy="-2853.3" r="21.7" gradientTransform="matrix(.082 .004 .003 -.126 -32.7 -601.5)" gradientUnits="userSpaceOnUse"><stop offset="0" style="stop-color:#fff"/><stop offset="1" style="stop-color:#fff;stop-opacity:0"/></radialGradient><path id="path12219_3_" d="M233.6-231.1c0 1-.8 1.8-1.8 1.7-1 0-1.8-.9-1.7-1.9s2.1-1.6 1.9-3.6c.9.1 1.6 2.8 1.6 3.8z" style="opacity:.4611;fill:url(#path12219_1_);enable-background:new"/><linearGradient id="path12221_1_" x1="3614.9" x2="3635.4" y1="2387.8" y2="2409.3" gradientTransform="matrix(.001 .116 .11 .009 -35.8 -673.7)" gradientUnits="userSpaceOnUse"><stop offset="0" style="stop-color:#fff"/><stop offset="1" style="stop-color:#fff;stop-opacity:0"/></linearGradient><path id="path12221_3_" d="M232.9-229.7c-4.6 1.2-2-4.3-1-3.9-2.5 2.9 1 3.9 1 3.9z" style="fill:url(#path12221_1_)"/></g></g></svg>