<svg xmlns="http://www.w3.org/2000/svg" viewBox="0 0 48 48"><defs><style>.c{fill-rule:evenodd;fill:#ffcb00}</style></defs><path d="M24 0a24 24 0 1 0 24 24A24 24 0 0 0 24 0Z" style="fill-rule:evenodd;fill:#cc092f"/><path d="M48 24H0a24 24 0 0 0 48 0Z" style="fill-rule:evenodd"/><path d="M19.3 16.5h2.9l.9-2.8.9 2.8h3l-2.4 1.7.9 2.8-2.4-1.7-2.4 1.7 1-2.8Z" class="c"/><path d="m30 31.6-2.3-1.8a10.3 10.3 0 0 0-4.4-18.2l.4-1.6a20 20 0 0 1 2 .6l.6-1a19 19 0 0 1 2 1l-.5 1a8.9 8.9 0 0 1 1.8 1.5l.9-.7a18.9 18.9 0 0 1 1.4 1.7l-.8.8a10 10 0 0 1 1.1 2l1.2-.2a17.7 17.7 0 0 1 .7 2.2l-1.1.4a10.3 10.3 0 0 1 .3 2.3v.1l1 .2a16.8 16.8 0 0 1-.1 2.2H33a17.7 17.7 0 0 1-.7 2.2l1 .6a17.1 17.1 0 0 1-1 2l-1-.5a13.4 13.4 0 0 1-1.5 1.7l.7 1-.5.5m-5-.2 1.7 1a4 4 0 0 1-.8.5l.3 1a18.5 18.5 0 0 1-2.2.7l-.4-1a10.4 10.4 0 0 1-2.1.2l-.2 1.1a14.6 14.6 0 0 1-2.2-.2v-1a12.8 12.8 0 0 1-2-.6l-.5 1a14.3 14.3 0 0 1-2-1l.4-1a9.4 9.4 0 0 1-1.4-1l1.1-1.3a10.3 10.3 0 0 0 6.5 2.3 9.7 9.7 0 0 0 3.7-.7M32.2 34.1l-11.5-8.7-.1.1L32 34.3l-.6.9L20.2 28c-3-2-3-3.4-2.3-5l.5-1.3c.3 1.7 2 3 3.8 4.4l10.2 7.8Zm2.9 2.7a.2.2 0 0 1-.2-.2.2.2 0 0 1 .2-.2.2.2 0 1 1 0 .4m-.7-.6a.2.2 0 1 1 .2-.1.2.2 0 0 1-.2.1m-.7-.5a.2.2 0 1 1 .2-.2.2.2 0 0 1-.2.2m2.3 1L32.6 34l-1 1.3 3 2.1c.2.2.2 1 1.1 1a.7.7 0 0 0 .6-.2 1 1 0 0 0-.3-1.5" class="c"/></svg>