<svg xmlns="http://www.w3.org/2000/svg" xml:space="preserve" style="enable-background:new 0 0 48 48" viewBox="0 0 48 48"><circle cx="24" cy="24" r="24" style="fill-rule:evenodd;clip-rule:evenodd;fill:#fff"/><path d="M.6 29.2h46.9a22.4 22.4 0 0 0 0-10.4H.6a22.4 22.4 0 0 0 0 10.4z" style="fill-rule:evenodd;clip-rule:evenodd;fill:#0072c6"/><path d="M.6 18.8h46.9C45 8 35.5 0 24 0S3 8 .6 18.8z" style="fill-rule:evenodd;clip-rule:evenodd"/><path d="M47.7 20.3 24 48a24 24 0 0 0 23.7-27.7zM24 48A24 24 0 0 1 .3 20.3L24 48z" style="fill-rule:evenodd;clip-rule:evenodd;fill:#ce1126"/><path d="m31.8 17.2 6.7-4.4-7.9 1.5 4.5-6.6-6.7 4.4L30 4.3 25.6 11 24 3.1 22.4 11 18 4.3l1.6 7.8-6.7-4.4 4.5 6.6-7.9-1.5 6.7 4.4-7.9 1.6h31.3z" style="fill-rule:evenodd;clip-rule:evenodd;fill:#fcd116"/></svg>