<svg xmlns="http://www.w3.org/2000/svg" xml:space="preserve" id="svg1306" x="0" y="0" style="enable-background:new 0 0 48 48" version="1.1" viewBox="0 0 48 48"><style>.st3{fill-rule:evenodd;clip-rule:evenodd;fill:#fefefe}</style><circle cx="24" cy="24" r="24" style="fill-rule:evenodd;clip-rule:evenodd;fill:#00b5e2"/><path d="M1.4 32h45.3a23.6 23.6 0 0 0 0-16H1.4a23.6 23.6 0 0 0 0 16z" style="fill-rule:evenodd;clip-rule:evenodd;fill:#ef3340"/><path d="M46.6 32H1.4a24 24 0 0 0 45.2 0z" style="fill-rule:evenodd;clip-rule:evenodd;fill:#509e2f"/><path d="M25.6 29.6a5.6 5.6 0 1 1 0-11.2 5 5 0 0 1 3 .9 6.7 6.7 0 1 0 0 9.4 5 5 0 0 1-3 .9z" class="st3"/><path d="m33.2 26.5-1.8-.8-.7 1.9-.7-1.9-1.9.8.8-1.8-1.8-.7 1.8-.7-.8-1.8 1.9.8.7-1.9.7 1.9 1.8-.8-.8 1.8 1.9.7-1.9.7z" class="st3"/></svg>