<svg xmlns="http://www.w3.org/2000/svg" viewBox="0 0 48 48"><path d="M24 0a24 24 0 1 0 24 24A24 24 0 0 0 24 0Z" style="fill:red;fill-rule:evenodd"/><path d="M37 29.2c-.4-.5-.9-.5-1.4.1h-1.7l.8-.7c.5.2 1 0 1.3-.5a1 1 0 0 1 .7-.3.8.8 0 0 0-1 0c-.8-.4-.9 0-1 .4l-1.5 1-3-.8.7-.7c0-.2 0-.3-.2-.4a3.8 3.8 0 0 1-3.4-2.7c-.2-.8.3-1 .5-.6a3.6 3.6 0 0 0 1.3 1.9c.3.2 1.1 0 .6-.4a2.2 2.2 0 0 1-1-1.6c0-.4.6-.7.9-.2a4.5 4.5 0 0 0 .9 2 2.2 2.2 0 0 0 1.2.8c.5 0 1-.6.3-1a2 2 0 0 1-1.4-1.3c-.2-.8 0-1.2.5-.8l2.9 3a2 2 0 0 0 2.5 0c.5-.4.3-1-.4-.8-1.5 0-2.7-.7-4-2.7-.2-.4-.2-1 .3-.6a5.6 5.6 0 0 0 2.4 1.9c.9.3 1.7.2 1.9-.2.3-.5.2-1.1-.4-1a2.8 2.8 0 0 1-1.8 0 5.5 5.5 0 0 1-2.2-1.8c-.2-.5-.2-1 .4-.7 1.2 1 2.9 1.9 3.7 1.4.6-.4.6-1.3-.2-1.3-1.5.2-2.1-.1-3.6-1.4-.4-.3-.3-.9.2-.5 1.3.8 3 1.1 3.7.7.6-.4.5-1.5-.5-1.1-.9.5-1.8.5-3.6-.8-.4-.4 0-.8.3-.6 1.4.8 3.6 1.1 4.1-.5.2-.7-.2-1-.7-.6a2.6 2.6 0 0 1-3.5 0c-.2 0-.6-.8 0-.7 2 .5 3.9.1 4.2-1.2.2-.4-.2-1.2-.9-.6a3.9 3.9 0 0 1-3 1c-.7-.2-.7-.8-.2-1a5.5 5.5 0 0 0 2.7-.7 3 3 0 0 0 1.5-1.8c.1-.8-.6-1.5-1-.8a5 5 0 0 1-3.6 2.4c0-.1-.3-.5-.5-.4a26.9 26.9 0 0 0-3.2 1.5c-.3.1 0 .8 0 1a1.6 1.6 0 0 1-.3 1.2 1.2 1.2 0 0 1-1 .3c-.5-.2-.8-.7-.7-1.6a2.1 2.1 0 0 1 .5-1 3.7 3.7 0 0 1 1-1 9 9 0 0 1 2.3-.6c.6-.1 1-.4 1-.6-.3 0-.8.3-1 .2a1.4 1.4 0 0 1-.7-.2 6.5 6.5 0 0 1 1 0 5.5 5.5 0 0 0 1-.1 1.3 1.3 0 0 0 1-.7c0-.4-.3-.5-.6-.2a3.6 3.6 0 0 1-.4.4 1.6 1.6 0 0 1-.6.2 2.7 2.7 0 0 1-1.1 0 2.3 2.3 0 0 1 .4-.3.8.8 0 0 1 .6-.2.6.6 0 0 1 .4.3c0-.5 0-1-1.4-.8 0-.3-.7-.5-1.2-.5a4 4 0 0 0-1.2.4 8.3 8.3 0 0 1-2 .3 8.8 8.8 0 0 0 1 .7 3 3 0 0 0-1.4 1 3.6 3.6 0 0 1 1 0 3 3 0 0 0-1.6.9 3.2 3.2 0 0 1 .5 0v.2L24 14l-1-1c-.1-.2-.2-.2 0-.3a3.2 3.2 0 0 1 .4 0 3 3 0 0 0-1.5-.8 3.6 3.6 0 0 1 .9 0 3 3 0 0 0-1.4-1 8.8 8.8 0 0 0 1-.8 8.3 8.3 0 0 1-2-.3 4 4 0 0 0-1.2-.4c-.5 0-1.2.2-1.2.5-1.3-.2-1.4.3-1.4.8a.6.6 0 0 1 .4-.3.8.8 0 0 1 .6.2 2.3 2.3 0 0 1 .4.4 2.7 2.7 0 0 1-1.1 0 1.6 1.6 0 0 1-.6-.3 3.6 3.6 0 0 1-.4-.4c-.3-.3-.6-.2-.5.2a1.3 1.3 0 0 0 1 .7 5.5 5.5 0 0 0 .9 0 6.5 6.5 0 0 1 1 0 1.4 1.4 0 0 1-.6.3c-.3.1-.8-.1-1-.2 0 .2.3.5.9.6a9 9 0 0 1 2.2.6 3.7 3.7 0 0 1 1.1 1 2.1 2.1 0 0 1 .6 1c0 1-.3 1.4-.8 1.6a1.2 1.2 0 0 1-1-.3 1.6 1.6 0 0 1-.3-1.2c0-.2.3-.9 0-1a26.9 26.9 0 0 0-3.2-1.5c-.2 0-.4.3-.5.4A5 5 0 0 1 12 10c-.4-.7-1.1 0-1 .8a3 3 0 0 0 1.5 1.8 5.5 5.5 0 0 0 2.7.8c.5 0 .5.7-.1.8a3.9 3.9 0 0 1-3.1-.9c-.7-.6-1 .2-.9.6.3 1.3 2.2 1.7 4.1 1.2.7 0 .3.7 0 .7a2.6 2.6 0 0 1-3.4 0c-.5-.4-1 0-.7.6.6 1.6 2.7 1.3 4.1.5.4-.2.7.2.3.6-1.8 1.3-2.7 1.3-3.5.8-1-.4-1.2.7-.5 1.1.6.4 2.3.1 3.6-.7.5-.4.6.2.2.5-1.5 1.3-2 1.6-3.6 1.4-.8 0-.8.9-.2 1.3.9.5 2.5-.4 3.7-1.4.6-.3.6.2.4.7a5.5 5.5 0 0 1-2.2 1.8 2.8 2.8 0 0 1-1.8 0c-.6-.1-.7.5-.4 1 .2.4 1 .5 1.9.2a5.6 5.6 0 0 0 2.4-1.9c.5-.5.5.2.2.6-1.2 2-2.4 2.8-4 2.6-.6 0-.8.5-.3 1a2 2 0 0 0 2.5 0l2.9-3.1c.5-.4.7 0 .5.8a2 2 0 0 1-1.4 1.4c-.7.3-.2.8.3.9a2.2 2.2 0 0 0 1.2-.8 4.5 4.5 0 0 0 1-2c.2-.5.7-.2.7.2a2.2 2.2 0 0 1-1 1.6c-.4.4.4.5.7.4a3.6 3.6 0 0 0 1.3-1.9c.2-.4.7-.2.5.5a3.8 3.8 0 0 1-3.4 2.8l-.2.4.7.7c-1 .3-2 .4-3 .8l-1.5-1c-.1-.3-.2-.8-1-.5a.8.8 0 0 0-1 .1 1 1 0 0 1 .7.3c.3.6.8.6 1.3.5l.8.8h-1.7c-.5-.7-1-.7-1.4-.2a.7.7 0 0 0-.7.4h.7c.6.4 1 .3 1.3 0l1.8.1-.8.5c-.9-.3-1.3.1-1.5.8a1.7 1.7 0 0 0-.1 1 1.1 1.1 0 0 1 .5-.7c.8.2 1-.2 1.1-.6.4-.4 1-.4 1.4-.8l1.1.4a.8.8 0 0 0 1.2.6c.7 0 .5.3.6.5a.6.6 0 0 0-.2-1 .6.6 0 0 0-1-.3l-1-.4c1-.4 1.9-.5 3-.8l.7.7h.4a21.1 21.1 0 0 1 1.6-2.6 2.3 2.3 0 0 1 1-.7.5.5 0 0 1 .5.1 1 1 0 0 1 .2.9 2.7 2.7 0 0 1-.4 1 4.3 4.3 0 0 1-.6.9 4.7 4.7 0 0 1-1.2 1c-.7.4-1 .3-1.4.2-.7.1-.8.4-.3.8a1.9 1.9 0 0 0 1.3.3c.3 0 .6-.5.9-.7.3-.3.7 0 .4.5a2.5 2.5 0 0 1-1.9 1.1c-.8.1-.6.5-.1.7a2 2 0 0 0 2.2-.7c.3-.4.5-.4.4.1-.3 1-.7 1.4-1.4 1.5-.6-.1-.6.3-.2.6 1 .7 1.7-.4 2-1.1.2-.6.6-.3.6.2a2.5 2.5 0 0 1-1.1 2l2 3 2-3a2.5 2.5 0 0 1-1.1-2c0-.5.4-.8.6-.2.3.7 1 1.8 2 1.1.4-.3.4-.7-.2-.6-.7 0-1.1-.5-1.4-1.5-.1-.5.1-.5.5-.1a2 2 0 0 0 2.1.8c.5-.3.7-.7-.1-.8a2.5 2.5 0 0 1-2-1.1c-.2-.4.2-.8.5-.5.3.2.6.6 1 .7a1.9 1.9 0 0 0 1.2-.3c.5-.4.4-.7-.3-.8-.5 0-.7.3-1.4-.2a4.7 4.7 0 0 1-1.2-1 4.3 4.3 0 0 1-.6-.8 2.7 2.7 0 0 1-.4-1.1 1 1 0 0 1 .2-.9.5.5 0 0 1 .6 0 2.3 2.3 0 0 1 .9.6 21.1 21.1 0 0 1 1.6 2.6h.4l.7-.7c1.1.3 2 .4 3 .8l-1 .4a.6.6 0 0 0-1 .4.6.6 0 0 0-.2 1c0-.3 0-.6.6-.6a.8.8 0 0 0 1.2-.6l1.1-.3c.4.3 1 .3 1.4.7 0 .4.3.8 1.1.6a1.1 1.1 0 0 1 .5.7 1.7 1.7 0 0 0-.1-1c-.2-.7-.6-1-1.5-.8l-.8-.5h1.8c.3.2.7.3 1.3 0 .2-.2.4-.2.7 0a.7.7 0 0 0-.7-.5Zm-8.3-19c.4 0 .6 0 .6.2s-.2.4-.6.4-.6-.2-.6-.3.2-.3.6-.3Zm-9.4.6c-.4 0-.6-.2-.6-.4 0-.1.2-.2.6-.2s.6.1.6.3-.2.3-.6.3Z"/></svg>