<svg xmlns="http://www.w3.org/2000/svg" xml:space="preserve" id="svg1306" x="0" y="0" style="enable-background:new 0 0 48 48" version="1.1" viewBox="0 0 48 48"><style>.st1{fill:#f0f0f0}.st2{fill:#e4002b}</style><path d="M48 24a24 24 0 1 1-48 0L24 0a24 24 0 0 1 24 24z" style="fill:#012169"/><path d="M24 0zM23.9 24c.1 0 .1 0 0 0 .1 0 .1 0 0 0zM24 12.5V0A24 24 0 0 0 0 24h12.5v-7.1l7.1 7.1H24l.1-.1v-4.4L17 12.4l7 .1z" class="st1"/><path d="M12.1 3.1a23.6 23.6 0 0 0-9 9V24h6.3V9.4H24V3.1H12.1z" class="st2"/><path d="m24 21-8.5-8.5h-3L24 24v-3z" class="st2"/><path d="m14.5 28.2 1.3 2.7 3-.7-1.4 2.8 2.4 1.9-3 .7.1 3-2.4-1.9-2.4 1.9v-3l-3-.7 2.4-1.9-1.3-2.8 3 .7zM35.9 33.4l.7 1.4 1.5-.4-.7 1.4 1.2.9-1.5.4v1.5l-1.2-.9-1.2.9v-1.5l-1.4-.4 1.2-.9-.7-1.4 1.5.4zM29.8 18.8l.7 1.4 1.5-.4-.7 1.4 1.2.9-1.5.4V24l-1.2-1-1.2 1v-1.5l-1.5-.4 1.2-.9-.6-1.4 1.4.4zM35.9 10.4l.7 1.4 1.5-.3-.7 1.3 1.2 1-1.5.3v1.6l-1.2-1-1.2 1v-1.6l-1.4-.3 1.2-1-.7-1.3 1.5.3zM41.3 16.7l.6 1.4 1.5-.4-.6 1.4 1.2 1-1.5.3v1.5l-1.2-.9-1.2.9v-1.5l-1.5-.3 1.2-1-.7-1.4 1.5.4zM37.5 24l.5 1.6h1.7l-1.4 1 .5 1.6-1.3-1-1.4 1 .5-1.6-1.3-1h1.6z" class="st1"/></svg>