<svg xmlns="http://www.w3.org/2000/svg" viewBox="0 0 48 48"><defs><style>.c,.d,.e,.f{fill:#f6b40e;stroke:#85340a;stroke-width:.15px}.g{fill:#85340a}.i{fill:#843511}</style></defs><circle cx="24" cy="24" r="24" style="fill:#74acdf"/><path d="M48 24a23.6 23.6 0 0 1-1.4 8H1.4a23.9 23.9 0 0 1 0-16h45.2a23.6 23.6 0 0 1 1.4 8Z" style="fill:#fff"/><path d="m23.7 24.1 2.7 6h.2c.2 0 0 0 0 0l-2.3-6.2m0 2.3c-.1.9.5 1.4.4 2.2a2.9 2.9 0 0 0 .5 1.6v.5s.2-.2.2-.6-.4-.6-.4-1.6-.4-1.2-.2-2.1" class="c"/><path d="m23.7 24 .2 6.5.1.2c.1 0 0-.2 0-.2l.3-6.5m-1 2.1c-.3.8 0 1.5-.3 2.2a2.9 2.9 0 0 0-.2 1.7c0 .3-.3.4-.2.5s.3-.1.4-.5-.1-.7.3-1.6.1-1.3.6-2" class="d"/><path d="M23.7 23.9 21.4 30v.2l.2-.1 2.7-6m-1.7 1.6c-.6.6-.6 1.4-1.2 1.9a2.9 2.9 0 0 0-.8 1.5l-.4.3c0 .1.3 0 .6-.3s.1-.7.9-1.3.6-1.2 1.3-1.7" class="e"/><path d="m23.8 23.8-4.5 4.8v.1c0 .1.1 0 .1 0l4.8-4.5m-2.1.9c-.9.3-1.1 1-1.9 1.2a2.9 2.9 0 0 0-1.3 1c-.2.3-.5.2-.5.3s.3.1.7 0 .4-.7 1.3-1 1-.8 1.9-1" class="f"/><path d="M24.4 26.3c0 1 .6 1.3.5 2 .2-.5-.3-1-.3-2m-.8-2.2 2 4-1.6-4.2" class="g"/><path d="M23.5 26.3c-.3.8 0 1.4-.4 2 .4-.4.2-1 .5-1.9m.2-2.4.2 4.5.2-4.5" class="g"/><path d="M22.6 26c-.5.6-.5 1.2-1.1 1.7.6-.3.6-1 1.2-1.6m1.1-2.2-1.5 4.3L24 24" class="g"/><path d="M22 25.3c-.8.4-1 1-1.7 1.2.6 0 .9-.7 1.7-1m1.9-1.6-3 3.3 3.2-3" class="g"/><path d="m23.9 23.7-6 2.7v.2c0 .2 0 0 0 0l6.2-2.3m-2.3 0c-.9-.1-1.4.5-2.2.4a2.9 2.9 0 0 0-1.6.5h-.5s.2.2.6.2.6-.4 1.6-.4 1.2-.4 2.1-.2" class="c"/><path d="m24 23.7-6.5.2-.2.1c0 .1.2 0 .2 0l6.5.3m-2.1-1c-.8-.3-1.5 0-2.2-.3a2.9 2.9 0 0 0-1.7-.2c-.3 0-.4-.3-.5-.2s.1.3.5.4.7-.1 1.6.3 1.3.1 2 .6" class="f"/><path d="M24.1 23.7 18 21.4h-.2l.1.2 6 2.7m-1.6-1.7c-.6-.6-1.4-.6-1.9-1.2a2.9 2.9 0 0 0-1.5-.8l-.3-.4c-.1 0 0 .3.3.6s.7.1 1.3.9 1.2.6 1.7 1.3" class="e"/><path d="m24.2 23.8-4.8-4.5h-.1c-.1 0 0 .1 0 .1l4.5 4.8m-.9-2.1c-.3-.9-1-1.1-1.2-1.9a2.9 2.9 0 0 0-1-1.3c-.3-.2-.2-.5-.3-.5s-.1.3 0 .7.7.4 1 1.3.8 1 1 1.9" class="d"/><path d="M21.7 24.4c-1 0-1.3.6-2 .5.5.2 1-.3 2-.3m2.2-.8-4 2 4.2-1.6" class="g"/><path d="M21.7 23.5c-.8-.3-1.4 0-2-.4.4.4 1 .2 1.9.5m2.4.2-4.5.2 4.5.2" class="g"/><path d="M22 22.6c-.6-.5-1.2-.5-1.7-1.1.3.6 1 .6 1.6 1.2m2.2 1.1-4.3-1.5L24 24" class="g"/><path d="M22.7 22c-.4-.8-1-1-1.2-1.7 0 .6.7.9 1 1.7m1.6 1.9-3.3-3 3 3.2" class="g"/><path d="m24.3 23.9-2.7-6h-.2c-.2 0 0 0 0 0l2.3 6.2m0-2.3c.1-.9-.5-1.4-.4-2.2a2.9 2.9 0 0 0-.5-1.6v-.5s-.2.2-.2.6.4.6.4 1.6.4 1.2.2 2.1" class="c"/><path d="m24.3 24-.2-6.5-.1-.2c-.1 0 0 .2 0 .2l-.3 6.5m1-2.1c.3-.8 0-1.5.3-2.2a2.9 2.9 0 0 0 .2-1.7c0-.3.3-.4.2-.5s-.3.1-.4.5.1.7-.3 1.6-.1 1.3-.6 2" class="d"/><path d="m24.3 24.1 2.3-6.1v-.2l-.2.1-2.7 6m1.7-1.6c.6-.6.6-1.4 1.2-1.9a2.9 2.9 0 0 0 .8-1.5l.4-.3c0-.1-.3 0-.6.3s-.1.7-.9 1.3-.6 1.2-1.3 1.7" class="e"/><path d="m24.2 24.2 4.5-4.8v-.1c0-.1-.1 0-.1 0l-4.8 4.5m2.1-.9c.9-.3 1.1-1 1.9-1.2a2.9 2.9 0 0 0 1.3-1c.2-.3.5-.2.5-.3s-.3-.1-.7 0-.4.7-1.3 1-1 .8-1.9 1" class="f"/><path d="M23.6 21.7c0-1-.6-1.3-.5-2-.2.5.3 1 .3 2m.8 2.2-2-4 1.6 4.2" class="g"/><path d="M24.5 21.7c.3-.8 0-1.4.4-2-.4.4-.2 1-.5 1.9m-.2 2.4-.2-4.5-.2 4.5" class="g"/><path d="M25.4 22c.5-.6.5-1.2 1.1-1.7-.6.3-.6 1-1.2 1.6m-1.1 2.2 1.5-4.3L24 24" class="g"/><path d="M26 22.7c.8-.4 1-1 1.7-1.2-.6 0-.9.7-1.7 1M24 24.2l3-3.3-3.2 3" class="g"/><path d="m24.1 24.3 6-2.7v-.2c0-.2 0 0 0 0l-6.2 2.3m2.3 0c.9.1 1.4-.5 2.2-.4a2.9 2.9 0 0 0 1.6-.5h.5s-.2-.2-.6-.2-.6.4-1.6.4-1.2.4-2.1.2" class="c"/><path d="m24 24.3 6.5-.2.2-.1c0-.1-.2 0-.2 0l-6.5-.3m2.1 1c.8.3 1.5 0 2.2.3a2.9 2.9 0 0 0 1.7.2c.3 0 .4.3.5.2s-.1-.3-.5-.4-.7.1-1.6-.3-1.3-.1-2-.6" style="fill:#f6b40e;stroke:#85340a;stroke-width:.15px"/><path d="m23.9 24.3 6.1 2.3h.2l-.1-.2-6-2.7m1.6 1.7c.6.6 1.4.6 1.9 1.2a2.9 2.9 0 0 0 1.5.8l.3.4c.1 0 0-.3-.3-.6s-.7-.1-1.3-.9-1.2-.6-1.7-1.3" class="e"/><path d="m23.8 24.2 4.8 4.5h.1c.1 0 0-.1 0-.1l-4.5-4.8m.9 2.1c.3.9 1 1.1 1.2 1.9a2.9 2.9 0 0 0 1 1.3c.3.2.2.5.3.5s.1-.3 0-.7-.7-.4-1-1.3-.8-1-1-1.9" class="d"/><path d="M26.3 23.6c1 0 1.3-.6 2-.5-.5-.2-1 .3-2 .3m-2.2.8 4-2-4.2 1.6" class="g"/><path d="M26.3 24.5c.8.3 1.4 0 2 .4-.4-.4-1-.2-1.9-.5m-2.4-.2 4.5-.2-4.5-.2" class="g"/><path d="M26 25.4c.6.5 1.2.5 1.7 1.1-.3-.6-1-.6-1.6-1.2m-2.2-1.1 4.3 1.5L24 24" class="g"/><path d="M25.3 26c.4.8 1 1 1.2 1.7 0-.6-.7-.9-1-1.7M23.8 24l3.3 3-3-3.2" class="g"/><circle cx="24" cy="24" r="2.7" class="c"/><path d="M23.6 24.4a.2.2 0 0 0 0 .3.2.2 0 0 0 .2 0 .4.4 0 0 0 .2 0 .4.4 0 0 0 .2 0 .2.2 0 0 0 .2 0 .2.2 0 0 0 0-.3.1.1 0 1 1-.1 0 .3.3 0 0 1-.5 0 .1.1 0 1 1-.2 0ZM23.8 25l-.5.2a3.7 3.7 0 0 0 .3-.2h.7a3.7 3.7 0 0 0 .4.2c-.2-.1-.3-.3-.5-.3a.6.6 0 0 0-.2 0 .5.5 0 0 0-.2 0Z" class="g"/><path d="M23.7 25.2a1.4 1.4 0 0 0-.3 0h1.2a1 1 0 0 0-.6 0 2.2 2.2 0 0 0-.3 0ZM23.4 25.2c.4 0 .1.3.6.3s.2-.2.7-.3c-.5 0-.3.2-.7.2-.3 0-.2-.2-.6-.2Z" class="g"/><path d="M24.4 25.9a.4.4 0 1 0-.8 0 .4.4 0 0 1 .8 0ZM22.3 23.4a1 1 0 0 1 1.4-.1.8.8 0 0 1 .2.3 1 1 0 0 1-.2.7 1.5 1.5 0 0 0 .2-.8 1.3 1.3 0 0 0 0-.3 1 1 0 0 0-1.6.2ZM25.7 23.4a1 1 0 0 0-1.4-.1.8.8 0 0 0-.2.3 1 1 0 0 0 .2.7 1.5 1.5 0 0 1-.2-.8 1.3 1.3 0 0 1 0-.3 1 1 0 0 1 1.6.2Z" class="g"/><path d="M25.4 23.8a.8.8 0 0 1-.9 0h-.1.2a1 1 0 0 0 .8 0ZM22.6 23.8a.8.8 0 0 0 .9 0h.2-.3a1 1 0 0 1-.8 0ZM23 23.3a.5.5 0 0 1 .5.2.5.5 0 0 0 .2 0v.1a1.2 1.2 0 0 1-.3-.1.5.5 0 0 0-.3-.1c-.4 0-.6.3-.6.3s.2-.4.6-.4ZM25 23.3a.5.5 0 0 0-.5.2.5.5 0 0 1-.2 0v.1a1.2 1.2 0 0 0 .3-.1.5.5 0 0 1 .3-.1c.4 0 .6.3.7.3s-.2-.4-.7-.4Z" class="g"/><path d="M25 23.4a.5.5 0 0 0-.5.3.8.8 0 0 0 1 0 .7.7 0 0 0-.6-.3Zm0 0 .3.2a.5.5 0 0 1-.8 0 .4.4 0 0 1 .4-.1ZM23 23.4a.5.5 0 0 0-.4.3.8.8 0 0 0 1 0 .7.7 0 0 0-.5-.3Zm0 0 .4.2a.5.5 0 0 1-.7 0 .4.4 0 0 1 .4-.1Z" class="i"/><circle cx="24.9" cy="23.6" r=".2" class="g"/><circle cx="23.1" cy="23.6" r=".2" class="g"/></svg>