<svg xmlns="http://www.w3.org/2000/svg" viewBox="0 0 48 48"><defs><style>.a,.e{fill:#009440}.d{fill:#fff}.e{fill-rule:evenodd}</style></defs><circle cx="24" cy="24" r="24" class="a"/><path fill="#ffcb00" d="M2.42 24 24 37.78 45.58 24 24 10.22Z"/><circle cx="24" cy="24" r="9.1" fill="#302681"/><path d="M33.01 25.27a9 9 0 0 1-.32 1.45 20.84 20.84 0 0 0-17.5-5 8.92 8.92 0 0 1 .49-1.4 22.28 22.28 0 0 1 3.12-.22 22.01 22.01 0 0 1 14.21 5.17Z" class="d"/><path d="M16.24 21.34a.44.44 0 1 0-.44-.38.41.41 0 0 0 .44.38m-.02-.16a.28.28 0 1 0-.26-.24.25.25 0 0 0 .26.24M17.68 20.61a.27.27 0 0 0-.29-.25l-.5.04.05.86h.17l-.03-.33.35-.02a.48.48 0 0 1 .1.31h.15c0-.1-.02-.3-.11-.36a.27.27 0 0 0 .11-.25Zm-.6.16-.02-.22.33-.03a.11.11 0 1 1 .02.23ZM18.04 21.2l.41-.01a.37.37 0 0 0 .37-.38v-.13a.37.37 0 0 0-.38-.36h-.41Zm.16-.17h.24a.24.24 0 0 0 .23-.24v-.08a.24.24 0 0 0-.24-.23h-.24Z" class="e"/><path d="m19.14 21.18.78.03v-.16l-.62-.02v-.23l.5.02v-.15l-.49-.01v-.18l.6.02v-.16l-.74-.02ZM20.24 21.23l.15.01.05-.59.12.6.14.02.22-.58-.05.6h.15l.08-.86-.22-.02-.22.58-.13-.6-.21-.02ZM22.04 21.43l.64.11.02-.14-.49-.09.03-.2.4.07.03-.14-.4-.07.02-.14.48.09.03-.15-.63-.1Z" class="a"/><path d="m23.68 21.76.16.04.08-.32.34.09a.27.27 0 0 0 .13-.53l-.48-.12Zm.28-.43.32.08a.11.11 0 1 0 .06-.21l-.32-.09ZM25.5 21.36l-.48-.14-.27.82.15.05.1-.31.33.1a.49.49 0 0 1-.02.34l.14.04c.03-.1.09-.27.02-.37a.27.27 0 0 0 .02-.53Zm0 .3a.11.11 0 0 1-.13.07l-.32-.1.06-.22.32.1a.11.11 0 0 1 .08.14ZM26.16 22.51a.44.44 0 1 0-.21-.54.41.41 0 0 0 .21.54m.06-.15a.28.28 0 1 0-.12-.33.25.25 0 0 0 .12.33M27.14 22.44a.25.25 0 0 0 .1.34.23.23 0 0 0 .25-.06l-.13-.05.05-.12.15.07.15.06-.05.12-.12.28-.12-.05.05-.1a.37.37 0 0 1-.29 0 .44.44 0 0 1 .35-.8.4.4 0 0 1 .22.4l-.16-.06a.22.22 0 0 0-.13-.2.25.25 0 0 0-.32.17ZM28.67 22.67l-.44-.22-.4.77.14.07.15-.29.3.16a.49.49 0 0 1-.07.32l.14.07c.04-.09.12-.26.08-.37a.27.27 0 0 0 .1-.51Zm-.03.29a.11.11 0 0 1-.15.05l-.3-.15.1-.2.3.15a.11.11 0 0 1 .05.15Z" class="e"/><path d="m28.81 23.72.68.38.08-.14-.55-.31.1-.2.44.25.07-.13-.43-.24.09-.15.51.29.08-.14-.64-.37ZM30.07 24.14c-.04.07 0 .15.1.22s.18.07.21.02c.1-.15-.45-.37-.28-.63.15-.22.4-.05.49.01a.28.28 0 0 1 .13.4l-.16-.1c.05-.08 0-.16-.1-.21-.07-.05-.14-.08-.19 0-.08.12.46.35.3.6-.13.2-.34.11-.48.02-.12-.07-.3-.25-.18-.44ZM31 24.75c-.05.08 0 .16.1.23s.17.07.2.03c.1-.14-.43-.39-.25-.64.16-.21.4-.03.49.04a.28.28 0 0 1 .1.4l-.15-.11c.05-.08 0-.16-.08-.22-.07-.05-.14-.08-.2 0-.08.11.45.37.27.62-.13.18-.34.09-.48-.01-.11-.08-.28-.27-.15-.45Z" class="a"/><path d="M31.88 25.75a.44.44 0 1 0-.03-.58.41.41 0 0 0 .03.58m.1-.12a.28.28 0 1 0 0-.36.25.25 0 0 0 0 .36" class="e"/><path d="m16.71 22.41.09.27-.23-.16-.23.16.09-.27-.23-.16h.28l.09-.27.09.27h.28l-.23.16zM17.52 26.24l.09.27-.23-.17-.23.17.09-.27-.23-.17h.28l.09-.27.08.27h.29l-.23.17zM16.38 27.05l.07.22-.19-.14-.19.14.07-.22-.19-.14h.24l.07-.23.08.23h.23l-.19.14zM18.34 25.66l.04.13-.11-.08-.11.08.04-.13-.11-.08h.14l.04-.13.04.13h.13l-.1.08zM19.39 27.13l.07.23-.19-.14-.19.14.07-.23-.19-.13h.24l.07-.23.07.23h.24l-.19.13zM19.09 28.03l.06.18-.15-.11-.15.11.05-.18-.15-.11h.19l.06-.18.06.18h.19l-.16.11zM26.97 21.22l.08.27-.23-.16-.23.16.09-.27-.23-.16h.29l.08-.27.09.27h.28l-.22.16zM30.52 27.24l.09.27-.23-.17-.23.17.09-.27-.23-.17h.28l.09-.27.08.27h.29l-.23.17zM31.73 27.31l.06.18-.15-.11-.15.11.06-.18-.16-.11h.19l.06-.18.06.18h.19l-.16.11zM30.87 28.04l.07.22-.19-.14-.19.14.07-.22-.19-.14h.24l.07-.23.07.23h.24l-.19.14zM28.68 29.94l.07.23-.19-.14-.19.14.07-.23-.19-.13h.23l.08-.23.07.23h.24l-.19.13zM28.64 30.85l.06.18-.16-.11-.15.11.06-.18-.15-.11h.19l.05-.18.06.18h.19l-.15.11zM29.55 29.22l.06.18-.15-.11-.15.11.06-.18-.16-.11h.19l.06-.18.06.18h.19l-.16.11zM30.31 28.77l.07.22-.19-.14-.19.14.07-.22-.19-.14h.24l.07-.23.07.23h.24l-.19.14zM28.61 29.05l.06.17-.15-.11-.15.11.06-.17-.16-.12h.19l.06-.18.06.18h.19l-.16.12zM26.57 23.57l.06.18-.15-.11-.16.11.06-.18-.15-.11h.19l.06-.18.06.18h.18l-.15.11zM20.65 24.41l.07.22-.19-.13-.19.13.08-.22-.2-.14h.24l.07-.22.08.22h.23l-.19.14zM24.14 28.13l.09.27-.23-.17-.23.17.09-.27-.23-.16h.28l.09-.27.09.27h.28l-.23.16zM25.17 26.32l.07.22-.19-.14-.19.14.07-.22-.19-.14h.24l.07-.23.08.23h.23l-.19.14zM23.18 26.31l.06.18-.16-.11-.15.11.06-.18-.15-.11h.19l.05-.18.06.18h.19l-.15.11zM24.12 25.5l.07.22-.19-.13-.19.13.07-.22-.19-.14h.24l.07-.22.07.22h.24l-.19.14zM23.61 26.93l.04.13-.11-.08-.11.08.05-.13-.11-.08h.13l.04-.13.04.13h.14l-.11.08zM26.84 30.17l.08.22-.2-.14-.19.14.08-.22-.19-.14h.23l.07-.23.08.23h.23l-.19.14zM27.6 29.35l.06.18-.16-.11-.15.11.06-.18-.15-.11h.19l.05-.18.06.18h.19l-.15.11zM26.1 29.13l.06.18-.15-.11-.16.11.06-.18-.15-.11h.19l.06-.18.05.18h.19l-.15.11zM20.49 28.87l.09.27-.23-.16-.23.16.09-.26-.23-.17h.28l.09-.27.08.27h.29l-.23.16zM24.05 31.13l.03.09-.08-.05-.08.05.03-.09-.07-.05h.09l.03-.09.03.09h.09l-.07.05z" class="d"/></svg>