<svg xmlns="http://www.w3.org/2000/svg" viewBox="0 0 48 48"><defs><style>.c,.g{fill:#fff}.c,.d,.e,.f,.g{stroke:#000;stroke-width:.1px}.d,.e,.f{fill:none}.e,.f,.g{stroke-linecap:round}.f{stroke-linejoin:round}</style></defs><circle cx="24" cy="24" r="24" fill="#ffcd00"/><path fill="#ff671f" d="M48 24A24 24 0 0 1 4 37.3l40-26.6A23.9 23.9 0 0 1 48 24Z"/><path d="M25.7 18c-.3 0-.4 0-.4.4s.2.5.4.4V18Z" class="c"/><path d="M26 17.4c-.3-.2-.5-.1-.6.2s0 .6.3.5l.2-.7Z" class="c"/><path d="M26.3 16.7c-.2-.2-.4-.1-.6.2s0 .5.2.6Zm-.2 3a.5.5 0 0 0-.2 1 .5.5 0 0 0 .8 0l-.6-1Z" class="c"/><path d="M25.7 18.8c-.3 0-.6.3-.7.7 0 .5-.7.6-.3 1.3a.8.8 0 0 1 .6-.7.9.9 0 0 0 .8-.3Zm1 1.9c-.4 0-.5.5-.2.9.2.3 1 .2.9-.1Zm1 2.9c0-.4-.5-.5-.7-.4s-.7 0-.9-.3c0 .2 0 .4.4.6.3 0 .3.2.2.3.2 0 .8 0 1-.2Z" class="c"/><path d="M27.4 21.6c-.4-.2-.6 0-.7.3-.2.3-.8-.1-1 .3.3 0 .5.2.7.3.4.2 1 .1 1.2-.5Z" class="c"/><path d="M27.6 22a1 1 0 0 0-.5.8c0 .2.3.7.7.7.1-.4.2-1.2-.2-1.5Zm-1.5 1.6s.2-.1.4 0 .3 0 .2.2Zm-1.9-.7c0-.1.2-.4.5-.2s.4.4.3.5l-.8-.3Z" class="c"/><path d="M25 23.2s.2-.2.6-.1.6.3.5.5l-1-.4Zm-.8-.3a.3.3 0 0 0-.1-.5c-.4-.2-.2-.6-.5-.7s-.4-.3-.4-.4a.4.4 0 0 0 .1.5c.2.2-.1.7 0 .9Zm-4.6 0a.5.5 0 0 0-.8-.1.4.4 0 0 0 0 .6Zm1-.5c0-.4-.5-.4-.8-.3a.5.5 0 0 0-.2.7l1-.4Z" class="c"/><path d="M21.3 22.3c.1-.3-.2-.7-.5-.8-.3 0-.7 0-.8-.4 0 .3.1.5.3.6s0 .5.3.7h.7Z" class="c"/><path d="M21.2 22.4a.4.4 0 0 1 .4-.5c.3 0 .5.2.4.5h-.8Z" class="c"/><path d="M22 22.4a.4.4 0 0 1 .4-.5c.3 0 .4.3.2.6Z" class="c"/><path d="M22.6 22.5a.4.4 0 0 1 .5-.4c.3 0 .4.3.2.5Zm-5.2 4c-.6 0-.7 0-.8.6 0 .8 1 .9.8-.7Z" class="c"/><path d="M17.7 25.6c-.9-.3-1.4 1.1-2.3.9.4.5 1.1 0 1.4 0 .5.1 1.5 0 .9-.9Zm-.6 2c-.4-.2-.9.4-.8.7 0 .4 1 0 .8-.7Zm-2 2.8a.6.6 0 0 1 .4.7 2.3 2.3 0 0 1-1.7 1.5c-.8 0-1 1-1.7.7.6-.1.6-.8 1.1-1-.4-.2-.5.6-1 .6s-.7.8-1.3.7-.6 1-1.7 1c-.9 0-2 1-2.3.5a2.7 2.7 0 0 0 1.6-1c.8-1 1.8-.5 2-1.3a2.1 2.1 0 0 1-1.2.4c-.5 0-1 .8-1.7.5a1.5 1.5 0 0 0 1-.6c.3-.4.9-.1 1.3-.5.7-.7 1.3-.1 1.9-1a1.2 1.2 0 0 0-1 .2c-.3.2-.8 0-1.2.1 0-.5 1-.2 1.7-.5A2.6 2.6 0 0 1 13 31c-.7 0-1-.7-2-.5-.5.1-.8-.6-1.3-.2 0-.3.5-.5 1-.2s.6-.3 1.6.3c.4.3 1-.1 1.5.1l-.6-.2c.2-.4 1.4-.3 1.9 0Z" class="c"/><path d="M15.8 29.9c-.3-.3-.9 0-1.2 0a.8.8 0 0 0 .5.6 9.3 9.3 0 0 0 .7-.6Z" class="c"/><path d="M16.4 29c-.6-.2-.7.5-1.1.3a.6.6 0 0 0 .5.6l.6-.8Z" class="c"/><path d="M16.8 28.4c-.9-.4-1 .5-1.5.3 0 .3.8.5 1.2.4Zm1.2-3.7c-.3-.3-.7 0-.8.3s0 1 .4.8l.4-1.1Z" class="c"/><path d="M18.6 23.7c-.4-.1-.9 0-.8.3-.2 0-.2.6.2.7l.6-1Z" class="c"/><path d="M18.8 23.4c-.4-.5-.8-.5-1-.3-.5.4-1 .2-1 .6.3-.3.6 0 .8 0s.4.3 1 0Zm-1 7a.5.5 0 0 0 .7-.1c.2-.3 0-1-.4-1s-.4.8-.2 1Z" class="c"/><path d="M17.5 30.3c.5.2.7-.2.4-.5a5.4 5.4 0 0 1-.4.5Z" class="c"/><path d="M15.4 31c0 .4-.6.4-1.2 1.4s-1.2.6-1.3 1.2c.7-.6 1.3-.2 1.7-.8.6-.8 1.2-.7 1.4-1.3.4-.8 2-.8 2-2.1-.5-.1-2.2 1.3-2.6 1.7ZM29 18.2c.7.2.7 1.1 1.5 1.4s.8 1 1.5.8c-.6-.1-.6-.8-1.2-1-.7-.2-1-1.3-1.6-1.5m3 5a.6.6 0 0 1-.4.9.6.6 0 0 0 .8-.4c-.3.7-.1 1.2.3 1.4-.2-.5.3-.7.1-1a1 1 0 0 1 .5.8c.4-.4-.2-1-.1-1.4l-1.3-.3Zm-4.5 4.4c-.4-.4-.6 0-.8 0-.2-.2-.5-.3-.6-.1.4 0 .2.3.9.3-.7.1-.6.9-1 .8.5.5.7-.4 1.1-.2-.1 0 .2.3 0 .7.3 0 .5-.5.5-.8Zm-9.3 4a1 1 0 0 0-.8-.1c-.1.1 0 .1.1.1s.5.4 0 .4c-.1 0 0 .5-.5.6.2.2.7 0 .9-.2 0 .2.2.4 0 .6.4 0 .2-.7.7-.6-.2 0-.1.5.2.4-.2 0 0 .3.2.2-.2 0-.2.3 0 .4.2-.3 0-1.3-.8-1.8Zm18.7-9.5a1.2 1.2 0 1 0-1.2-1.2 1.2 1.2 0 0 0 1.2 1.2Z" class="c"/><path d="M30.9 23.1a1 1 0 0 1 1.3-.2 2.5 2.5 0 0 0 2.2.1l1.2-.6a1 1 0 0 0 .8.5 1 1 0 0 0 .6.2.9.9 0 0 0 .9-.3 1 1 0 0 0 1-.8c.4 0 .4-.5.1-.8-.2 0 0-1-1-.8.4.3.1.8.4 1a.5.5 0 0 0-.5.4.4.4 0 0 0-.1-.4c0-.2-.4-.7-.9-.5.3 0 .2.5.4.7a.5.5 0 0 0-.4.2 1.2 1.2 0 0 0-.8-.4.9.9 0 0 0 0-.3 1.2 1.2 0 0 1-.2-.8 3 3 0 0 0-.5.8c-.3-.2-1 .1-1.5.2a3.3 3.3 0 0 1-1.9-.4 3.3 3.3 0 0 0-1.4-.7c-.7-.2-.7-1-1.5-1.6a13.6 13.6 0 0 0 1.8 4.5Zm-8.4 7.6a1.1 1.1 0 1 0-1.2-1.1 1.2 1.2 0 0 0 1.2 1.1Z" class="c"/><path d="M19.7 29.9a.8.8 0 0 0 .8.2c.2.4.6.4.8.6a1.2 1.2 0 0 0 1 0 1.2 1.2 0 0 1-.6-.3c-.3-.2-.1-.6-.3-.8a.7.7 0 0 0 .1-.5.7.7 0 0 0 .3-.4 1 1 0 0 0 .6-.2l.8.1a.6.6 0 0 0-1-.6.7.7 0 0 0-.5 0l-.6.3a.4.4 0 0 0 .1-.5.6.6 0 0 0 .3-.4h.7a1 1 0 0 0-1-.4.6.6 0 0 0-.6.5.7.7 0 0 0-.2.8.4.4 0 0 0-.3.2 1.8 1.8 0 0 0-.6-.1m0-.5a1 1 0 0 1 .1-.6c.1-.4 0-.6-.3-.5a3.1 3.1 0 0 0 .2 1.1Z" class="c"/><path d="M19.2 26.8c.1.1.5.2.5-.2 0-.3 0-.5-.4-.3v.5Z" class="c"/><path d="M19.3 26.3a.4.4 0 0 0 .6-.2c.2-.3 0-.5-.3-.4a1.9 1.9 0 0 0-.3.6Z" class="c"/><path d="M19.6 25.6c0 .1.4.5.6.2a.4.4 0 0 0-.1-.7 1.7 1.7 0 0 0-.5.5Z" class="c"/><path d="M20 25a.6.6 0 0 0 .9.5c.4-.2.2-.7 0-.9a2.2 2.2 0 0 0-.8.5Z" class="c"/><path d="M20.9 24.6a.6.6 0 0 0 .6.7c.6 0 .5-.7.3-.8a2.2 2.2 0 0 0-.9.1Z" class="c"/><path d="M21.8 24.5c0 .2-.2 1.1 1 .9.1 0 .5-1-1-.9Z" class="c"/><path d="M22.5 24.6c-.1.1.2 1.1 1 1s.1-1.1-1-1Z" class="c"/><path d="M23.2 24.8c-.2.2 0 1 1 1s0-1-1-1Z" class="c"/><path d="M24 25c-.1.1-.2 1 1 1 .8.1.6-1-1-1Z" class="c"/><path d="M25.2 25.4c-.1.2-.3.9 1 1 .8 0 .3-1-1-1Z" class="c"/><path d="M26.3 25.6a.6.6 0 0 0 .4.8c.6.1.7-.4.3-.7a.7.7 0 0 0-.7-.1Z" class="c"/><path d="M26.9 25.7c-.2.2 0 .8.8.8.2 0 1-.7-.8-.8Zm-7 11.2a1.3 1.3 0 1 0-1.4-1.4 1.3 1.3 0 0 0 1.3 1.4Z" class="c"/><path d="M29.6 17.4a2.3 2.3 0 0 0-.4.6c-.4 1.3.8 2.3 1.5 3.8a4.2 4.2 0 0 1-.4 4c-.3.4-.2.5-.6.9a1 1 0 0 0-.2.9.6.6 0 0 1 .6.3.5.5 0 0 1 .5 0 .6.6 0 0 1 .8.3.7.7 0 0 1 .7.2.5.5 0 0 1 .5-.3.4.4 0 0 1 .6-.4.5.5 0 0 1 .6-.6 1 1 0 0 1 1.3.1c-.6-.1-.5.5-1 .4.1.4-.2.6-.5.7.2-.1.4-.2.5-.1a.6.6 0 0 1 .6 0 .4.4 0 0 1 .5.2.8.8 0 0 1 .3 1c0-.3-.3-.3-.4-.5h-.6a.7.7 0 0 1-.8 0 .7.7 0 0 1-.6.6l-.4.8c.3.2.2.5.2.7.4.1 0 .5.8.8-.4 0-1.1 0-1.2-.5a.7.7 0 0 1-.6-.8.6.6 0 0 1 0-1c-.3.2-.5-.4-1-.2-.2.2-.9 0-.9-.3 0 .2-.7.1-.8-.2-.2.2-.7 0-.7-.3a.4.4 0 0 1-.6-.4c-.2 0-.3-.2-.2-.4-.3-.1-.2-.3-.1-.6-.2-.2-.1-.4 0-.6-.2-.2-.1-.4 0-.7a20 20 0 0 1-4.3-1c-3.6-1-4.5 1.5-3.7 3.1.9 1.9-.1 2.3.2 3.7a.6.6 0 0 1 .4.6c.2 0 .4.2.3.6a.6.6 0 0 1 .5.1.4.4 0 0 1 .7 0c.5 0 .7.3.7.8a1.2 1.2 0 0 1-.1 1.3 3.4 3.4 0 0 0 0-.6c0-.3-.4-.4-.4-.6a.5.5 0 0 1-.5-.3.5.5 0 0 1-.4.1.8.8 0 0 1 .3.8.7.7 0 0 1 0 .8c0 .3-.3.4-.7.3a.6.6 0 0 0 .3-.5.7.7 0 0 1-.2-.5 1.3 1.3 0 0 1-.9-.3 1.3 1.3 0 0 0-1.3 1.3l-.4-.7a1 1 0 0 1 1-1.4c-.1-.2.2-.5 0-.8a6.5 6.5 0 0 0-.9-1.3 1.9 1.9 0 0 0 0-1.6c-.2-.6-.4-.4-1.3.5-1.4 1.6-3.3 1.2-5 2.2-.5.3-1 .4-.4-.1a12.8 12.8 0 0 1 2.5-1.4 6 6 0 0 0 3.4-4.5c1.2-6 5.7-4 8.5-2.9 2.6 1 2.1-1.3.8-2.7-1.6-1.7-1.3-3-.5-4 1.3-.3 4 .2 3.4.6Z" class="c"/><path d="M34.4 32a1.5 1.5 0 1 0-1.5-1.6 1.5 1.5 0 0 0 1.5 1.5Z" class="c"/><path d="M28.8 17.5a2.9 2.9 0 0 0 .4 2.7c1 1.4 1.8 4.4.7 6.3" class="d"/><path d="M30.5 24.8a.7.7 0 0 0 .5-.5m-.4-.1c0-.3.4-.4.4-.6m-.4-.4c0-.2.4-.5.3-.7m-.5-.2c0-.1.3-.4.2-.7m-.5-.2c0-.2.2-.4 0-.5m-.4-.2v-.5m-.4-.4s.2-.1.1-.2m-.4-.4s.2 0 .2-.2" class="e"/><path d="M20.4 35.4a.7.7 0 0 0-.9.3m.3.3c0-.3.5-.4.6-.3-.3-.1-.4.4-.1.4m2.3-6.9a.5.5 0 0 0 0 .8m.3-.7a.4.4 0 0 0 0 .6c-.1-.2 0-.4.2-.4s.2.1 0 .3m11.8.3c-.4 0-.8.5-.4 1a.6.6 0 0 1 .8-.7m-.2.3a.2.2 0 0 0-.2.2.2.2 0 0 0 .2.2.2.2 0 0 0 .2-.2m1.5-10.7c0 .2.4.4.8.3m0-.2a.4.4 0 0 1-.5-.4c0 .1.4.2.5.1" class="f"/><path d="m20.5 30.1.2-.5c0-.2.3-.3.7 0m-.2-1.8H21m.8 1a.6.6 0 0 1-.3-.1m0 .4a1.5 1.5 0 0 1-.3 0m-2.6 5.1a.7.7 0 0 0 .2.5m.4-.8a.7.7 0 0 0 0 .5m1.3 0v-.6c0-.2.1-.4.5-.2m-2-.2a.8.8 0 0 1 .5 0M21 33a.6.6 0 0 0 0 .3m.7-.3a.3.3 0 0 0-.2.2M20 28.5c.1 0 .5.3.5.5m1-1.6c-.5 0-.6-.4-.3-.4m1 1c-.2 0 0 .3.1.5m-1.1 2.2a.2.2 0 0 1 .3-.4m.3 3.5c0-.3.4-.4.5-.1m-1.7.8.2-.4a.4.4 0 0 1 .4.3m-3.2.4c0-.2.2-.4.4-.4m15.3-7.3c0 .1-.1.5.3.5m-.9.1v.2m2 .5s-.4.3-.1.5m-2.6 2.4c0-.2.2-.3.4-.3m-1-1.4a1.4 1.4 0 0 1 .5-.3m-.5 1.2a.5.5 0 0 1 .2-.4m.5-2a1.1 1.1 0 0 0 .2.7m1.9-.6a.4.4 0 0 0-.3.2m.1.5a1 1 0 0 0 .2-.2m3-7.3a.3.3 0 0 1-.4.2m1.1-.2c.2 0 .6 0 .5-.3m-1 1.7a.7.7 0 0 1-.4-.2m1.3-.6a.5.5 0 0 1-.3 0m-2.1 1a1.2 1.2 0 0 0 .4-.2m-.7-1.4a.4.4 0 0 0-.2 0m2 .4a.8.8 0 0 1-.2.4" class="e"/><path d="M35.8 22.2c.2-.1.5.6 1 .4m0-.8a.8.8 0 0 0 0 .4" class="f"/><path d="m26.6 20.7.2-.1m-9 8a.6.6 0 0 1 .3.8M29.6 20a.9.9 0 0 0 .5 0m.2.2s0 .5-.2.6m0 0a.6.6 0 0 0 .9-.4m-.3.4a.5.5 0 0 1-.2.7m.3-.4c.2 0 .8 0 .7-.4m-.2.4c.2.2 1 .5.8 0m-1.5.6a.5.5 0 0 0 .6-.6m.8.3c0 .2 1 .4.9 0m-.2.2c.2.4 1.1.4.8-.2m-.1.4c.1.3 1 .1.7-.4m0 .4c.5.4 1-.1.4-.6m.3.5c.5.4 1-.3.6-.5m-4.2.3a.4.4 0 0 0 .5-.2m-.1.2c0 .4.6.5.8 0m-.3.3c.2.3.7.4.8 0m0 .2c0 .2.5.2.7 0m-.2.1a.5.5 0 0 0 1-.1m-.2.2c.3.1.8 0 .8-.4m-.1.3c.3.3.8 0 .6-.5m0 1c.2-.1.3-.5 0-.6m-4.6.6a.6.6 0 0 0 .2-1m.1.6a.6.6 0 0 0 .9-.4m-.5.5a.5.5 0 0 1 0 .6m.1-.4c.5-.3 1 .2.6.6m0-.6a.5.5 0 0 0 .2-.5m0 .7c.1-.2 1.4.2.6.6m0-1.2c.2.1.3.5 0 .6m.3.3c.2-.3 1.1-.1.8.2m-.2-.3c.1-.5 1-.2.8 0m-1-.5a.5.5 0 0 1-.1.5m.9-.6a.4.4 0 0 1 0 .3m.6-.3a.3.3 0 0 1-.1.4m-7.3-4.4c0 .5.2.8.8.5m-.6 0c-.3.5 0 1 .7.5M27 19c.5.5 1.3.1.7-.6m.6 1c-.1.5.3.6.6.4m-2.3-.7a.7.7 0 0 0 1 .5m-.4.1c0 .7 1 .8 1.1 0m-.3.5a.6.6 0 0 0 1.2 0m-1.8-1a.6.6 0 0 0 .9.4m-2.7-.5a.7.7 0 0 0 1 .2m-.6.1c-.3.4.2.8.9.2m-.6.3c0 .6.3 1 1.1.3m-.4.3c.3.3.8.6 1.2 0" class="d"/><path d="M28.5 20.6c0 .4 0 .6.4.6a1 1 0 0 0 .6-.4m-.7.4c0 .5.4.9 1.1.4m-.8.2c-.1.4.3 1 1.1.7m-2.8-1.7c0 .5.4.8 1.1.2m-.7.3c0 .4.4.9 1 .2m-.7.3c0 .7.5.9 1 .4m-2-.9a.4.4 0 0 0 .4-.2m0 .7a.4.4 0 0 0 .3-.2m0 1a.5.5 0 0 0 .6-.2m-.1.2c.2.6.9.6 1.2-.1m-.1.2a.8.8 0 0 0 1 .5m-.8-.1c-.3.5.1 1 .8.5m-.6.2a.7.7 0 0 0 .6.7M28.5 23c-.1.7.4 1 1 .7m-1.7-.3a.8.8 0 0 0 .7 0m.3.4c-.1.6.5 1 1 .3m-1.8-.7a.6.6 0 0 0 .8.6m1.4.6a.5.5 0 0 0 0 .9m-.8-1a.5.5 0 0 0 .6.5m-1.1-.7c-.5.5 0 1 .6.5m-.3.2c-.1.5.5.8.9.3m-2-1.5c-.1.6.1 1 .6.9m-1.2-1c0 .3.3.5.6.4m-.4 0c-.2.4.1.7.6.5m1.4 1c0 .3 0 .5.4.6m-.4-.2a.6.6 0 0 0-.1 1m-.3-1.6a.5.5 0 0 0 0 .9M27 23.8c-.2.3 0 1 .7.6m1 .4c-.4.3-.2.9.5.7m-1.1-1c-.2.6 0 .8.4.8m-1.9-1.6a.5.5 0 0 0 0 .9.3.3 0 0 0 .5-.2m-1.2-.9c-.4.5 0 1.1.5 1m1.6.5c-.4.2-.7.5-.5.8.2.2.8.3 1-.5m-1.2-.8a.5.5 0 0 0 .2.9m-.3-.2c-.2.1-.4.3-.3.6m-.2-1.2c-.1.4 0 .7.2.8m-.2-.3c-.4 0-.6.2-.5.5m0-.4a.5.5 0 0 1-.2-.8m0 .5c-.5 0-.7.2-.7.5m0-2a.6.6 0 0 0-.2.7.5.5 0 0 0 .7 0M24.5 23a.5.5 0 0 0 .6.8m-1.3-1c-.2.3 0 1 .7.7m0 1.7c0-.4.4-.7 1-.1m-.3-.9a.7.7 0 0 0-.2.6M23 22.5c-.3.5 0 1 .7.8m1 .4a.6.6 0 0 0 0 1m-.4-.5c-.6 0-.6.7-.1 1m-.3-1.7a.5.5 0 0 0 0 .8m0 .3a.4.4 0 0 0-.6.3m.2-.3c-.3-.6-1-.5-.9 0m1-.7a.8.8 0 0 0-.5.3m0-1a.5.5 0 0 0 .2.8m-1-1.6c0 .4.1.6.6.5m-.4 0c-.2.4 0 .6.5.6m-.4 0a.5.5 0 0 0 .2.8m-.3-.5c-.5 0-.6.6-.4.8" class="d"/><path d="M22.2 22.4a.5.5 0 0 0-.3.7c.1.2.5.2.7 0m-.6.1a.5.5 0 0 0 .2.8" class="d"/><path d="M21 22.3c-.2.2 0 .6.4.7a.5.5 0 0 0 .5-.7m-.5.7c-.2.3-.1.7.5.6m.2.6c-.3-.2-.8 0-.6.4m0-1a.6.6 0 0 0 0 .6m0-.1c-.3 0-.6.2-.4.5m0-.3c-.4 0-.7.2-.5.5m0-.3c-.3 0-.6.2-.4.5m0-.2c-.3 0-.6.3-.4.5m1.5-1.9a.6.6 0 0 0-.2.8m-.1-1.5a.6.6 0 0 0 0 1.1m-.2-.1a.5.5 0 0 0-.2.7m-.4-2c-.2.1-.1.8.4.7m-1-.4c-.3.2.2 1 .8.4m-.3.2a.5.5 0 0 0 .4.6m-.4-.2a.4.4 0 0 0 .2.8M19 23.1c-.4.4.4.7.7.1m-1.2.5c-.2.3.5 1 .8-.2m0 0c0 .3.2.4.6.4m0 .3c-.6 0-.7.7-.1.8m-.9-.9a.4.4 0 0 0 .5.4m.3.5c-.5.1-.5.7-.1.7m-.2.6a.4.4 0 0 1 0-.8" class="d"/><path d="M19 25.9a.5.5 0 0 0 0 .7.2.2 0 0 0 .3-.2m0 .7c0 .2-.8.1-.3-.6m0 .6c-.3.5.1.8.4.4m-.4.2a.3.3 0 0 0 .6.3M18 24.4c-.2.3.6.4.6-.3m-.9.7c-.1.6 1 .5.8-.3m0 .4a.6.6 0 0 0 .8-.4m-.4.5a.7.7 0 0 0 .3.4m-.9-.3a.6.6 0 0 0 .7.6m-.6-.3c-.2.3-.2.8.4.8m-1.3-.7c0 .3.5.6.8.1m-1 .6c0 .2.5.5.8-.4m-.3.5a.4.4 0 0 0 .8 0m-.4.2a.4.4 0 0 0 .5.5m-1.1-.6a.5.5 0 0 0 .7.5m-1-.3a.5.5 0 0 0 .8.3m-.2.2a.6.6 0 0 0 .9.3m-1.8 0c0 .1.6.2.7-.2m-.3.3a.5.5 0 0 0 .8 0m-.1.2a.5.5 0 0 0 .8.2m.2.2c-.1.4.3.8.6.5m-1.3-.6a.5.5 0 0 0 .8.5m-1.6-.7a.5.5 0 0 0 .8.5m-1.5-.5c-.2.3.5.5.8.3m-1.2.5c.1.2.7 0 .8-.4m-.2.3a.5.5 0 0 0 .9-.2m-.2.3c0 .4.7.6.9 0m.8.1a.4.4 0 0 0 .3.5m-.9-.6c0 .2.3.5.6.4m0 0c0 .3 0 .6.3.6m-.2-.1a.3.3 0 0 0 .2.5m-.3-.2a.4.4 0 0 0 .2.6M18.6 29a.3.3 0 0 0 .7 0m-.2.4c-.1.2.1.5.5.4m-.5 2.9c.1 0 .4-.1.4-.3s-.5 0-.4.1m.3-.2a.3.3 0 1 0-.5 0m.1-.3c.1-.2-.2-.4-.4-.1m.1-.2c.1-.2-.3-.4-.3-.1m-.1-.4c0-.1.5 0 .3.3m.4.3c.2-.2-.1-.5-.3-.4m1.5 1c-.1 0-.3 0-.1.4 0 .2.4.2.4 0" class="d"/><path d="M20 32.4a.3.3 0 0 0-.3.4.2.2 0 0 0 .4 0m-.9 0c0 .2.4.1.5 0m-.2-.4a.2.2 0 0 1 .2 0m-.3-2.1a.3.3 0 0 0 .3.5m-.3-.1a.3.3 0 0 0 .3.4m-.3 0c-.1.2 0 .6.4.5m-.4-.3a.3.3 0 0 0-.4.2m.1-1.9a.3.3 0 0 0 .3.6m-.3-.2c-.3.1-.3.6.2.7m-.2-.1a.3.3 0 0 0 .3.5m-.2 0a.2.2 0 0 0 0 .2M19 31a.4.4 0 0 0-.4.3m-.2-.5c0-.2.5-.2.5.2m0-.4a.3.3 0 0 0-.2.1m0-1.4a.5.5 0 0 0 .3.8m-.6.3c0-.2.4-.3.5 0m-.8-.8a.4.4 0 0 0 .5.2m-1.8-1a.4.4 0 0 0 .4.4.3.3 0 0 0 .3-.4m-.2.4c-.2.3 0 .6.2.5m0-.6h.6m-1.8 0c0 .2.4.3.6 0m-.2.2c0 .1.1.4.6.3" class="d"/><path d="M17.3 29.8c0-.2-.2-.4-.5-.1s0 .5.2.4m-.8-.9c-.1.2.3.6.6.3m-1 0a.3.3 0 0 0 .4.5.3.3 0 0 0 .1-.5" class="d"/><path d="M15.5 30c-.1 0 0 .4.2.4a.3.3 0 0 0 .3-.4m.3-.1c0 .2.3.3.5.2m0-.4a.1.1 0 0 0 0-.2m-1.6.7c-.2.1.2.5.4.2m.9-.3c-.1.1 0 .4.2.3m-.8 0c0 .1.4.2.6 0m-.4.1c0 .1 0 .3.2.3m3.2.8c-.1.2.3.5.6.2m-.3.1a.4.4 0 0 0 .1.5m-.5-.2a.3.3 0 0 1 .4-.1m-.6-.2a.3.3 0 0 1 .3-.2m9.8-5.2c-.6 0-.4 1 .2.8m-.4 0a.3.3 0 0 0 .4.3m-.1 0c-.2.3.5.8.7.3m-.2.2c0 .3.8.5.7-.1m0 .3c.1.3.9.4.8-.1m-.2.3c.2.2 1 .4.9 0m-3.8-2.8c.1.3.5.4.9.2m-1.1 0c.2.1-.1.8-.5.6m.5-.2a.5.5 0 0 0 .7-.3m-.2.3c0 .2.3.3.7.2m-1.3 0c.3.3-.2.9-.4.6m.5-.4a.4.4 0 0 0 .6-.3m-.2.3c0 .2.2.3.5.3m-1 0a.5.5 0 0 0 .8 0m-.2.2a.4.4 0 0 0 .5.3m-1.4.2c.2 0 .4-.3.2-.6m0 1c.3 0 .3-.4 0-.6m.6 1c.2 0 .2-.6-.4-.6m1.1 1c.2-.1 0-.7-.5-.6m1.3.7c.2-.2-.3-.6-.7-.4m1.1.7c.3.1.5-.6-.4-.5m1 .5c.1 0 .3-.4-.4-.3m.8.4c.2 0 .3-.5-.3-.4M28 27.5a.4.4 0 0 0 .6-.3m-.1.2a.4.4 0 0 1-.1.6m.1-.2a.4.4 0 0 0 .6-.3m-.3.3a.5.5 0 0 1 0 .5m0-.3a.4.4 0 0 0 .6-.2m-.2.1c.2.1.3.5 0 .7m.2-.2a.6.6 0 0 0 .6-.2m-.2.1a.4.4 0 0 1 .3.5m0 0a.7.7 0 0 0 .5-.4m0 .1a.4.4 0 0 1 .2.5m0-.2a.4.4 0 0 0 .3-.2m0 0a.4.4 0 0 1 .3.4m0 0a.4.4 0 0 0 .2-.3m.4 0c.1.1-.1.7-.4.6m-3-11c-.3.2-1.2.1-.7-.6m.8 0c-.6.3-1.4-.2-.6-.7M28 17a.6.6 0 0 0-.1 1m-1.9-.7c-.1.3.4.6.7.3a.9.9 0 0 0 0-1m-1 1.3c-.1.6 1.1.6 1-.3m-1 1.2c0 .4 1.2.3.8-.6m.1-.2a.9.9 0 0 0 .8.3m-.6-1c0 .2.3.3.7.2M15 30.4c-.3.1.2.5.4.1m-.6 0c-.3.2.2.5.3.2m-.6 0c-.2.2.2.5.4.1m-.6 0c-.3.1 0 .5.3.2m-.6 0c-.3 0 0 .5.3.1m1.2-.6c0 .2.4.3.5 0m-.3.2c-.1.2.1.4.2.3m-.7-.3c0 .1.3.3.5 0m-.3.2c-.2.1 0 .3.2.2m-.7-.3a.3.3 0 0 0 .5.2m-.3 0a.2.2 0 0 0 0 .3m-.5-.3a.3.3 0 0 0 .4.2m-.3 0c-.2 0-.2.2 0 .3m-.4-.4a.2.2 0 0 0 .3.3m-1-.3c-.1.1.2.5.4.1m-.8 0c-.1.2.3.6.5.2m.7-.1c-.2 0-.3.2-.1.3m-.4-.3c0 .1.2.3.3.2m-.4-.1.1.3m-.5-.2c-.2.1 0 .3 0 .3m.2-.3a.2.2 0 0 0 .2.1m-.9-.2c-.1.1-.1.5.4.3m-.7-.1c-.2 0-.1.4.3.1m0 0s0 .3.2.2m-.5 0c-.1 0 0 .2.1 0m-.6 0c-.1 0 .2.2.4 0m-.3 0 .1.3m-.5-.2c-.1.1 0 .2.4 0m-.3.1c-.1.1 0 .3 0 .2m-.3 0h.3m-.3 0c-.3.1-.2.3 0 .3m7.6.4c0 .1 0 .2.3.2.1 0 .3-.2.1-.4m0 .3a.3.3 0 0 0 .5-.2" class="d"/><path d="M29.1 14.9c-.7-.4-2-1-2.5-.5a2.7 2.7 0 0 1 2.3.8l.2-.3Z" class="c"/><path d="M29.5 14.8c-.8-.9-1.2-.7-1.8-1-.5-.3-1.4-.4-1.6.1.8-.4 1.5.2 2 .3a1.9 1.9 0 0 1 1.1.8l.3-.2Zm3 0c-.4-1-1.3-.8-1.7-1.2-.5-.6-2-1.1-2.5-.7 1.3 0 1.8.9 2.5 1.2.5.3 1 .8 1.7.6Zm-1.5-.2c-.7-.9-1.8-1.6-2.3-1.3.7 0 .9.4 1.3.7s.3.8 1 .6Zm-3.4 1.6c-.7-.3-2.1-.5-2.8.4 1.1.2 2.8 0 2.8-.4Z" class="c"/><path d="M27.5 16.5c-.7-.4-1.3.1-2 0-1.3 0-2.3 0-2.4.6.8-.6 2 0 2.5-.2a8 8 0 0 1 3 .2 2.6 2.6 0 0 0-1.1-.6Zm2.3-2c-.2-.5-.1-1.1.7-1.1-.2-.3-1-.4-1.1.6-1-.7-2-.8-2.2-.2.5-.4 1.2-.1 2.1.9a1.6 1.6 0 0 1 .5-.2Zm-1.3.8c-.5-.3-1.2-.9 0-1.1-.5-.3-1.3-.2-1.2.8-1.5-.6-2.5-.4-2.7.2-.2.6.6 1 .8.6-.2 0-.7-.1-.4-.5s1.8 0 3.2.7c.4.2 1.7.1.3-.7Zm-.4 1c-.4-.9-1.7-.1-2-1-.3 1.2 2 .6 2 1Zm8.5.9c.3 0 .5-.1.1-.3.3.1.5 0 .1-.2.3.1.5-.1.1-.3a1.6 1.6 0 0 0-.3.8Zm.2-1.7c.6-.6 0-.8.7-1.5.6-.6 0-1 .7-1.3.2-.2.6-.5.6-.7.3.6-.8.7-.7 1.7 0 .6-.4.5-.5 1.6 0 .2-.2.7-.8.2Z" class="c"/><path d="M37 15.8c.4-.7.8-.7 1-1 .3-.5 1.1.1 1.7-.4 0 .7-1 .5-1.3 1a1.2 1.2 0 0 1-1.4.4Z" class="c"/><path d="M37.1 16c.6-.4 1 0 1.5-.3 1-.7 1.5 0 2.4-.2-.3.6-1.6 0-2.2.5S36 17 37 16Zm-1.7 3.5a.8.8 0 0 0-.6-.7c-.4 0-.6-.4-.8-.4s-.5-.6-.9-.6-.5.5.4 1 1.8 1 1.9.7Zm-1.1.2c-.4 0-.5.6-.8.6.5.3.8-.1 1-.4Z" class="c"/><path d="M34.6 19.8c-.4.3-.4.8 0 1-.3-.4.5-.6.3-1h-.3Z" class="c"/><path d="M34.9 19.8c-.3.5.4.6.2 1 .4-.1.5-.8.1-1Z" class="c"/><path d="M32.4 18.8a1.8 1.8 0 0 1 1.5.8 1 1 0 0 0 1.4.2c.2-.3 0-.9-.6-.7-.2-.3-.7-.2-1-.4s-1-1-1.3 0Z" class="c"/><path d="M34.7 19.1c-.2 0-.2.3-.1.5m.4-.3a.3.3 0 0 1 0 .3m-1.6-.8c.3 0 .3.2.7.3" class="g"/><path d="M33.1 18a11 11 0 0 1 2.5.8 3 3 0 0 0 2.2.2c.7-.2 2.1-.4 2 .5.4-.4 0-1-1-1 0-.5-.5-.9-.9-.6.4 0 .6.6 0 .8a.6.6 0 0 0-.8-.7c.3.1.6.6 0 .8a2 2 0 0 1-1.5-.3c-.5-.3-3-1.3-2.5-.5Z" class="c"/><path d="M36 17.6c-.4.1-.2.5-.7.7s-1 .6-.8 1c.3-.7 1-.7 1.2-1s.5-.8.2-.7Z" class="c"/><path d="M36 17.6c0 .6-.5.4-.3 1.3a1.9 1.9 0 0 1 0 1.1c.5-.4.2-1.2.4-1.5a2 2 0 0 0 .4-.6c-.2.3-.2 1 .2 1.2-.3-.7.7-1.2 0-2a1 1 0 0 1-.7.5Zm-1.7-.6a.8.8 0 0 1 0 .6 1.5 1.5 0 0 0 .5-.5.4.4 0 0 1 .2.6 1 1 0 0 0 .8-.2 1.8 1.8 0 0 0-1.5-.5Z" class="c"/><path d="M29 15.7a.7.7 0 0 0-.4 0c-.5-.2-.3-.7.2-.7 1-1 1.5-.2 2.6-.5a1.3 1.3 0 0 1 1 0 1.2 1.2 0 0 1 1.5.1.4.4 0 0 1 .2-.1c.4-.1.7.2.8.7a1.1 1.1 0 0 1 1 .3c.3-.2.5-.2.6 0 .3-.2.6-.3.8.2s-.4.3-.5 1.3a.8.8 0 0 1-1.3.5c-.9-.6-1.7-.7-2.1.2s-.7 1.4-1.7 1.1a1 1 0 0 0-1.1.4c-.3.4-.8 0-1.3.1.7-.1.4-.3 1-.3.5 0 .4-.5.7-.6-1.3.3-1.3-.2-2.4.2.5-.6 1.3-.3 1.6-.7-1 0-1.4-.6-1.8-.4-.7.5-.4 1.7-2.3 1.6a2.3 2.3 0 0 0-2 .6c1-2 2.2-.9 2.8-1.5a4.5 4.5 0 0 0 .9-1 .4.4 0 0 1 .2-.2c-1.5-.5-.6-1.2 1-1.3Z" class="c"/><path d="M36.5 15.5a.4.4 0 0 1 0 .2c0 .3-.6.4-.6 1 0 .2 0 .4-.3.3s-.3-.3-.1-.7" class="g"/><path d="M29.2 15.2a.7.7 0 0 0-.4-.2m3.5-.5c.5.2.7.7 1.3.7.7 0 1 1 2.1.3h.1m-2-.9a.8.8 0 0 0 0 .6m-2 1.4c-.8 0-1 .4-1 .8a1 1 0 0 0 1 1 1 1 0 0 0 1-1 1 1 0 0 0-1-.8Z" class="c"/><path d="M32 18.3c0-.2-.5-.2-.5-.4s.3-.2.3-.5.3-.2.4 0 .5.5.6.3m-.6-.3a.7.7 0 0 0 0 .9m.3-.6a.5.5 0 0 0 0 .4" class="c"/><path d="M35.7 17c.6 0 .7-.6.3-.6m-1-1.2c-.3-.3-.8-.4-.8.2" class="d"/><path d="M34.1 16a.7.7 0 0 0-1-.3.5.5 0 0 0 .3 1 2.1 2.1 0 0 1 .7-.6Zm-.2-.3c-.3-.3-.8.3-.4.7M28 17a1.7 1.7 0 0 1 1 .3 2.3 2.3 0 0 0 1.7.1c-.6.2-1-.6-1.4-.5s-1.2.2-1.6 0c.8 0 1.3-.7 2.2-.1a1.6 1.6 0 0 0 .9.2c-.8-.9-1.8-.3-1.9-1 .5.5 1.6-.1 2.2.8m-2-.7c-.1-.1 0-.3-.2-.4" class="c"/><path d="M35 15.2c-.3-.2-.7 0-.6.3a.6.6 0 0 1 .5-.3Zm-1.2 1a1.4 1.4 0 0 1 .3-.1.8.8 0 0 0-.2-.4c-.1 0-.4.3-.1.6Z"/><path d="M33.2 15.6c-.3-.2-.5-.2-.6 0-.3 0-.4.1-.5.4m.5.2c-.3-.3-.9-.2-.8.4m-.2.3c.1-.1.4-.3.6 0m2.1-.6a.4.4 0 0 0 0 .5c-.1-.2-.5-.2-.8.3m1.6-.8c-.4 0-.4.4 0 .5M32 15.2c-.4 0-.7.2-.2.4m.9-.6c-.6-.2-.8 0-.5 0m-1 2.1c0 .2 0 .4.3.2m-.3.4a.2.2 0 0 1 0 .1M30 15.2c-.3-.1-.4-.4 0-.4m-.1 1c-.4 0-.4-.4 0-.4m.7.3c-.5-.1-.5-.4-.2-.4m.2-.5c-.2 0-.6.2 0 .4m.6 0c-.5 0-.5.2-.2.3m.6-.7c-.4-.1-.5.1-.2.2m-1 1.3c-.1-.1-.2-.5.3-.4m.6.2c-.3 0-.6.3-.3.4m.8-.7c-.4 0-.7 0-.5.1" class="e"/><path d="M34.9 15.2a.6.6 0 0 0-.5.3" class="c"/></svg>