<svg xmlns="http://www.w3.org/2000/svg" viewBox="0 0 48 48"><defs><style>.c{fill:#fff}</style></defs><circle cx="24" cy="24" r="24" fill="#002395"/><path fill="#fecb00" d="M45.5 13.3v21.4a23.5 23.5 0 0 1-4 5.6L7.7 6.4a22.7 22.7 0 0 1 3.5-2.7 24 24 0 0 1 34.4 9.6Z"/><path d="m7.8 9.6.9 2.6h2.8l-2.3 1.7.9 2.6-2.3-1.6-2.3 1.6.9-2.6-2.3-1.7h2.8l.9-2.6zM12.9 14.6l.8 2.7h2.8l-2.2 1.6.8 2.7-2.2-1.6-2.3 1.6.9-2.7-2.3-1.6H12l.9-2.7zM17.9 19.7l.9 2.7h2.8L19.3 24l.9 2.7-2.3-1.7-2.2 1.7.8-2.7-2.2-1.6h2.8l.8-2.7zM23 24.8l.9 2.6h2.7l-2.2 1.7.8 2.6-2.2-1.6-2.3 1.6.9-2.6-2.3-1.7h2.8l.9-2.6zM28.1 29.8l.8 2.7h2.8l-2.3 1.6.9 2.7-2.2-1.7-2.3 1.7.9-2.7-2.3-1.6h2.8l.9-2.7zM33.1 34.9l.9 2.6h2.8l-2.3 1.7.9 2.6-2.3-1.6-2.2 1.6.8-2.6-2.2-1.7h2.7l.9-2.6zM5 11.5l-1-.7.5-.8ZM39.1 42.6a21.7 21.7 0 0 1-2.2 1.6h-.1l-2.3-1.6h2.8l.9-2.7.8 2.7Z" class="c"/></svg>