<svg xmlns="http://www.w3.org/2000/svg" viewBox="0 0 48 48"><defs><style>.a,.e{fill:#009440;}.b{fill:#ffcb00;}.c{fill:#302681;}.d{fill:#fff;}.e{fill-rule:evenodd;}</style></defs><title>fi_BR</title><circle class="a" cx="24" cy="24" r="24"/><path class="b" d="M2.42,24,24,37.78,45.58,24,24,10.22Z"/><circle class="c" cx="24" cy="24" r="9.1"/><path class="d" d="M33.0108,25.2745a8.9948,8.9948,0,0,1-.3234,1.4415A20.8365,20.8365,0,0,0,15.19,21.7125a8.923,8.923,0,0,1,.4857-1.3931A22.2819,22.2819,0,0,1,18.8,20.1,22.0108,22.0108,0,0,1,33.0108,25.2745Z"/><path class="e" d="M16.2387,21.34a.4357.4357,0,1,0-.44-.3826.4134.4134,0,0,0,.44.3826m-.02-.16a.2765.2765,0,1,0-.2605-.2424.2534.2534,0,0,0,.2605.2424"/><path class="e" d="M17.6818,20.6143a.2731.2731,0,0,0-.2907-.2527l-.4945.0348.0483.8653.1607-.0109-.0224-.3214.3443-.0244a.4835.4835,0,0,1,.104.3156l.1482-.01c-.0068-.0962-.02-.2829-.1134-.3541A.2721.2721,0,0,0,17.6818,20.6143Zm-.61.1544-.0156-.222.3333-.0234a.1113.1113,0,1,1,.0156.222Z"/><path class="e" d="M18.0433,21.1933l.4085-.0071a.3715.3715,0,0,0,.3649-.3778l-.0022-.1238a.3714.3714,0,0,0-.3778-.3649l-.4086.0071Zm.1581-.1637.2352-.0041a.2352.2352,0,0,0,.2311-.2393l-.0013-.0743a.2353.2353,0,0,0-.2393-.2311l-.2352.0041Z"/><path class="a" d="M19.1437,21.1825l.78.0272.0057-.1608-.6311-.022.0078-.2228.4949.0173.0052-.1485-.4949-.0172.006-.1733.5939.0208.0057-.1609-.7424-.0259Z"/><path class="a" d="M20.2432,21.2293l.148.013.0518-.5921.1209.6072.1357.0118.2244-.5769-.0518.592.148.013.0756-.8634L20.88,20.415l-.2244.577-.1209-.6072-.2159-.0189Z"/><path class="a" d="M22.0389,21.4319l.6406.11.0251-.1464-.4942-.0849.0336-.1952.4027.0692.0251-.1465-.4026-.0692.023-.1342.4789.0823.0252-.1464-.6254-.1075Z"/><path class="e" d="M23.6846,21.7551l.1558.04.0806-.3116.3356.0868a.2724.2724,0,0,0,.1364-.5274l-.4794-.124Zm.2767-.4272.3236.0837a.1114.1114,0,1,0,.0558-.2157l-.3236-.0837Z"/><path class="e" d="M25.4927,21.3646l-.4722-.1487-.2725.8227.1534.0483.0968-.3068.3291.104a.4857.4857,0,0,1-.0187.3313l.142.0447c.0286-.0921.0852-.27.0239-.3708a.2724.2724,0,0,0,.0182-.5247Zm.0125.29a.1115.1115,0,0,1-.14.0728l-.3188-.1.0671-.2127.3188.1A.1115.1115,0,0,1,25.5052,21.6543Z"/><path class="e" d="M26.16,22.5143a.4357.4357,0,1,0-.2136-.5425.4136.4136,0,0,0,.2136.5425m.0564-.1508a.2765.2765,0,1,0-.1192-.3353.2536.2536,0,0,0,.1192.3353"/><path class="e" d="M27.1432,22.4379a.2537.2537,0,0,0,.1014.3411.2271.2271,0,0,0,.2459-.0551l-.13-.0567.0494-.1133.1534.0665.1477.064-.0494.1139-.1238.2839-.1133-.0494.0468-.1076a.3667.3667,0,0,1-.2907.001.4356.4356,0,0,1,.3453-.7946.3946.3946,0,0,1,.2225.4072l-.16-.07a.2241.2241,0,0,0-.1269-.19A.2534.2534,0,0,0,27.1432,22.4379Z"/><path class="e" d="M28.6694,22.6683l-.4431-.221-.3978.77.1441.0718.1435-.2881.3094.1544a.4905.4905,0,0,1-.0707.3245l.1331.066c.0431-.0863.1263-.2537.0816-.3624a.2724.2724,0,0,0,.1-.5153Zm-.0328.2881a.1111.1111,0,0,1-.1492.05l-.3-.1493.1-.1991.299.1487A.1117.1117,0,0,1,28.6366,22.9564Z"/><path class="a" d="M28.81,23.716l.6788.3841.0793-.14-.55-.3109.11-.194.431.2439.0732-.1294-.4311-.2438.0854-.1509.5172.2927.0793-.14-.6466-.3658Z"/><path class="a" d="M30.0741,24.14c-.0465.0731.0007.1546.1051.2211s.1755.0641.2056.0172c.0948-.1488-.4533-.3658-.2844-.6252.1457-.2229.3949-.0494.4888.01a.2831.2831,0,0,1,.1276.3932l-.1593-.1014c.05-.0783-.0049-.1536-.0884-.2068-.081-.0516-.1467-.0751-.1949.0006-.0808.121.4563.3494.2917.6079-.1214.1905-.3327.1073-.4737.0175-.12-.0765-.2995-.2568-.1825-.4392Z"/><path class="a" d="M31.0039,24.755c-.05.0706-.0075.1544.0933.2263s.1719.0732.2044.0279c.1024-.1436-.4335-.389-.2512-.6392.1571-.2149.3968-.0287.4876.036a.283.283,0,0,1,.1067.3993l-.1537-.11c.0539-.0756.0031-.1537-.0775-.2112-.0781-.0557-.1425-.0826-.1947-.01-.087.1167.4375.3729.2595.6223-.1312.184-.3378.09-.4739-.0072-.1159-.0827-.2856-.2722-.1593-.4482Z"/><path class="e" d="M31.8832,25.7522a.4358.4358,0,1,0-.0355-.5819.4134.4134,0,0,0,.0355.5819m.1-.126a.2765.2765,0,1,0-.01-.3557.2534.2534,0,0,0,.01.3557"/><polygon class="d" points="16.713 22.411 16.801 22.681 16.572 22.515 16.342 22.681 16.43 22.412 16.2 22.245 16.484 22.245 16.572 21.976 16.659 22.245 16.942 22.245 16.713 22.411"/><polygon class="d" points="17.517 26.238 17.605 26.507 17.376 26.341 17.147 26.507 17.235 26.238 17.005 26.071 17.289 26.071 17.376 25.801 17.464 26.071 17.747 26.071 17.517 26.238"/><polygon class="d" points="16.38 27.047 16.453 27.271 16.262 27.132 16.071 27.271 16.144 27.047 15.953 26.908 16.189 26.908 16.262 26.684 16.335 26.908 16.571 26.908 16.38 27.047"/><polygon class="d" points="18.335 25.656 18.377 25.785 18.268 25.705 18.159 25.785 18.2 25.656 18.091 25.577 18.226 25.577 18.268 25.449 18.309 25.577 18.444 25.577 18.335 25.656"/><polygon class="d" points="19.388 27.134 19.462 27.358 19.27 27.219 19.08 27.358 19.152 27.134 18.961 26.995 19.198 26.995 19.27 26.77 19.343 26.995 19.58 26.995 19.388 27.134"/><polygon class="d" points="19.093 28.029 19.151 28.209 18.998 28.098 18.846 28.209 18.904 28.03 18.751 27.919 18.94 27.919 18.998 27.739 19.057 27.919 19.245 27.919 19.093 28.029"/><polygon class="d" points="26.965 21.223 27.052 21.493 26.823 21.326 26.594 21.493 26.681 21.223 26.452 21.057 26.735 21.057 26.823 20.787 26.911 21.057 27.194 21.057 26.965 21.223"/><polygon class="d" points="30.518 27.241 30.605 27.51 30.376 27.344 30.147 27.51 30.235 27.24 30.005 27.074 30.289 27.074 30.376 26.804 30.464 27.074 30.747 27.074 30.518 27.241"/><polygon class="d" points="31.733 27.312 31.792 27.491 31.639 27.381 31.486 27.491 31.545 27.312 31.392 27.201 31.58 27.201 31.639 27.021 31.697 27.201 31.886 27.201 31.733 27.312"/><polygon class="d" points="30.866 28.037 30.939 28.262 30.748 28.123 30.556 28.262 30.629 28.037 30.438 27.898 30.675 27.898 30.748 27.674 30.821 27.898 31.057 27.898 30.866 28.037"/><polygon class="d" points="28.675 29.944 28.747 30.169 28.557 30.03 28.365 30.169 28.438 29.944 28.247 29.805 28.483 29.805 28.556 29.581 28.629 29.805 28.865 29.805 28.675 29.944"/><polygon class="d" points="28.638 30.853 28.696 31.032 28.544 30.921 28.391 31.032 28.449 30.853 28.297 30.742 28.485 30.742 28.544 30.562 28.602 30.742 28.791 30.742 28.638 30.853"/><polygon class="d" points="29.554 29.218 29.613 29.398 29.46 29.287 29.307 29.398 29.366 29.219 29.213 29.107 29.402 29.107 29.46 28.928 29.519 29.107 29.707 29.107 29.554 29.218"/><polygon class="d" points="30.308 28.768 30.382 28.993 30.19 28.854 30 28.993 30.072 28.768 29.881 28.629 30.118 28.629 30.19 28.404 30.263 28.629 30.5 28.629 30.308 28.768"/><polygon class="d" points="28.613 29.045 28.672 29.224 28.519 29.114 28.366 29.224 28.425 29.045 28.272 28.934 28.46 28.934 28.519 28.754 28.577 28.934 28.766 28.934 28.613 29.045"/><polygon class="d" points="26.571 23.573 26.629 23.752 26.476 23.641 26.323 23.752 26.382 23.573 26.229 23.462 26.418 23.462 26.476 23.282 26.535 23.462 26.724 23.462 26.571 23.573"/><polygon class="d" points="20.651 24.41 20.724 24.634 20.533 24.496 20.342 24.634 20.415 24.41 20.224 24.271 20.461 24.271 20.533 24.046 20.606 24.271 20.842 24.271 20.651 24.41"/><polygon class="d" points="24.142 28.131 24.229 28.401 24 28.234 23.771 28.401 23.858 28.131 23.629 27.965 23.912 27.965 24 27.696 24.088 27.965 24.371 27.965 24.142 28.131"/><polygon class="d" points="25.17 26.317 25.244 26.541 25.053 26.402 24.861 26.541 24.934 26.317 24.743 26.178 24.979 26.178 25.052 25.953 25.125 26.178 25.362 26.178 25.17 26.317"/><polygon class="d" points="23.178 26.309 23.236 26.488 23.084 26.377 22.931 26.488 22.989 26.308 22.837 26.198 23.025 26.198 23.084 26.018 23.142 26.198 23.331 26.198 23.178 26.309"/><polygon class="d" points="24.118 25.499 24.191 25.724 24 25.585 23.809 25.724 23.882 25.499 23.691 25.36 23.927 25.36 24 25.136 24.073 25.36 24.309 25.36 24.118 25.499"/><polygon class="d" points="23.609 26.932 23.651 27.06 23.542 26.981 23.433 27.06 23.475 26.932 23.365 26.852 23.5 26.852 23.542 26.724 23.584 26.852 23.718 26.852 23.609 26.932"/><polygon class="d" points="26.842 30.167 26.915 30.391 26.724 30.252 26.533 30.391 26.605 30.167 26.415 30.028 26.651 30.028 26.724 29.804 26.797 30.028 27.033 30.028 26.842 30.167"/><polygon class="d" points="27.598 29.354 27.656 29.534 27.504 29.423 27.351 29.534 27.409 29.354 27.257 29.244 27.445 29.244 27.504 29.064 27.562 29.244 27.751 29.244 27.598 29.354"/><polygon class="d" points="26.1 29.132 26.158 29.311 26.006 29.2 25.853 29.311 25.911 29.131 25.758 29.021 25.947 29.021 26.006 28.841 26.064 29.021 26.253 29.021 26.1 29.132"/><polygon class="d" points="20.489 28.874 20.577 29.144 20.348 28.977 20.118 29.144 20.206 28.875 19.977 28.708 20.26 28.708 20.348 28.439 20.435 28.708 20.719 28.708 20.489 28.874"/><polygon class="d" points="24.047 31.134 24.076 31.224 24 31.169 23.923 31.224 23.953 31.134 23.877 31.079 23.971 31.079 24 30.989 24.029 31.079 24.124 31.079 24.047 31.134"/></svg>