<svg xmlns="http://www.w3.org/2000/svg" xml:space="preserve" id="svg1306" x="0" y="0" style="enable-background:new 0 0 48 48" version="1.1" viewBox="0 0 48 48"><style>.st0{fill-rule:evenodd;clip-rule:evenodd;fill:#fff}</style><path d="M24 48a24 24 0 1 0 0-48 24 24 0 0 0 0 48z" class="st0"/><path d="M24 48V0a24 24 0 1 0 0 48z" style="fill-rule:evenodd;clip-rule:evenodd;fill:#0033a0"/><path d="M24 48a24 24 0 0 0 24-24H0a24 24 0 0 0 24 24z" style="fill-rule:evenodd;clip-rule:evenodd;fill:#da281b"/><path d="m14.2 12.7 1.3 4.1-3.5-2.5-3.5 2.5 1.3-4.1-3.5-2.6h4.4L12 6l1.3 4.1h4.4z" class="st0"/></svg>