<svg xmlns="http://www.w3.org/2000/svg" viewBox="0 0 48 48"><defs><style>.b{fill:#fcdd09}.d{fill:#7d4b23}</style></defs><circle cx="24" cy="24" r="24" fill="#6abd51"/><circle cx="24" cy="24" r="12.5" class="b"/><path fill="#da121a" d="M17.4 22.2c-.4 0-.6-.7-.5-1.3 0 0 .3-.8.3-.1l.2.4c.2.5.5.7.3.2 0-.4-.8-1.8 1.3-3a9 9 0 0 0 2.6-1.7c.1 0 .4-.4.4 0l-.2.5c-.2.1-.3.4.1.2a2.5 2.5 0 0 0 1-.8 11.6 11.6 0 0 1 2-1.3c.2-.2.7-.2.2.2-.2.1-.2.5-.3.8-.2.1-.7.5 0 .3a4 4 0 0 0 2.1-1.3c.3-.2.4-.6 1.4-.5a2 2 0 0 0 1.6-.2c.1-.1.5-.4.1.2-.8 1.3-2 .7-2.7 1.5-.4.4-.1.3.2 0a1 1 0 0 1 1.1-.2.6.6 0 0 0 .6 0c.3-.4.2-.1.1.1-.1.3-.4.4-.8.5-.2.1-.1.2.1.2a5.3 5.3 0 0 0 1.6.1c.2 0 .3 0 0 .2-.3.5-.9.5-1.5.5a2.7 2.7 0 0 0-1.4.8c-.4.3-.3.2 0 .2 0 0 .4 0 0 .2 0 .2-.4.6-.6.8a1.6 1.6 0 0 1-.6.3c-.2 0-.6 0 0 .2a3 3 0 0 0 1.6 0 2 2 0 0 1 1.7.4 1.4 1.4 0 0 0 1.2.3c.3-.1.6-.1.2.2a2.3 2.3 0 0 1-2 .4c-.4 0-.7 0-1.1-.2-.3 0-.7 0 0 .2.8.1 1.3.7 2.2 1a.8.8 0 0 0 .3 0c.2 0 .6 0 .1.2a1.8 1.8 0 0 1-1.3.1h-.6c-.2-.1-.4-.1 0 0 .5.3.7.6 1.5.7.4 0 .4.1.1.3a2.6 2.6 0 0 1-1.4 0 2.4 2.4 0 0 0-1 0 1.4 1.4 0 0 1-1.3-.1l-.8-.5c-.2 0-.4-.2-.2.2a2.2 2.2 0 0 0 1.2 1.1c.4.2.4.2 0 .3a2 2 0 0 1-1.6-.4 1.5 1.5 0 0 0-1-.2 4 4 0 0 0-1.5.6c-.4.3-1.5 0-1.5 0 .8-1.6-2.2-2.6-3.5-2.6Z"/><path d="M19 28.3a5.2 5.2 0 0 1 .4-1.4l1.6-2.2c.2-.3.5-.3.9-.4.6-.1 0-.2 0-.2l-.6-.2c-.4-.1 0 0 .1 0l.6-.2c1-.2 0-.2-.8-.5a10 10 0 0 0-3.6-1.2c-.3 0-.3.3-.1.5a.8.8 0 0 1 .2.6l.1 3-.6 1.9Z" class="d"/><path d="m19 28.3-1.8-.3a12.5 12.5 0 0 1 .4-1.3l.2-.7v-1.2l-.2-1.7a.7.7 0 0 0-.1-.6.4.4 0 0 1-.1-.4.3.3 0 0 1 .2-.1 6.7 6.7 0 0 1 2.7.8l1 .4a5.7 5.7 0 0 0 .8.2l.4.2-.5.1-.6.1a.8.8 0 0 0-.2 0 .6.6 0 0 0 .1.1 2.4 2.4 0 0 1 .3.1 1.3 1.3 0 0 0 .3.1l.3.1-.3.1h-.2a.8.8 0 0 0-.7.5l-1.4 1.9-.2.2-.2.5a2.5 2.5 0 0 0-.2.9Zm-1.8-.3 1.7.3a2.5 2.5 0 0 1 .3-.9l.2-.5.2-.2 1.4-2a.8.8 0 0 1 .7-.3h.2l.3-.2h-.3a1.3 1.3 0 0 1-.3-.2 2.4 2.4 0 0 0-.3 0l-.1-.2h.1a.8.8 0 0 0 .1 0h.6l.4-.2-.3-.1a5.8 5.8 0 0 1-.9-.3l-1-.4a6.6 6.6 0 0 0-2.6-.8l-.2.1a.4.4 0 0 0 0 .4.7.7 0 0 1 .3.5v1.8l.1 1.2-.2.7a12.7 12.7 0 0 0-.4 1.3Z" class="b"/><path d="M17.4 22.2v.2l.2.3a.3.3 0 0 1 .2.1v.9a.6.6 0 0 0-.1-.1.2.2 0 0 1 0 .2c-.1 0 0 0 0 0l.1.2v.8h-.1a5.6 5.6 0 0 0 0 1.4l.1-.1.1.2a7.6 7.6 0 0 1-.4 1.3c0 .2-.1.2-.3.2l.5-1.6-.5 1.6v.1h.3l.5-.1-.1-.3a5.6 5.6 0 0 1 .2-1c0-.2 0-.3.3-.3a3.7 3.7 0 0 1 .7.2.8.8 0 0 1 .4.4l.2-.3a6 6 0 0 0-1.2-.5v-.6h.3a2 2 0 0 1 1.2.6l.3-.3a8.6 8.6 0 0 0-1.4-.6c-.2 0-.2-.2-.2-.3v-.5l.2-.2a4.3 4.3 0 0 1 1.9 1c0-.2 0-.3.3-.3v-.2l-.8-.2a7.2 7.2 0 0 0-1.2-.5c-.2 0-.2-.1-.2-.2v-.5c.1-.2.2-.3.2 0 0 .8 0 .6.2 0 0-.1.2-.1.2 0 0 .2-.1.4 0 .1h.3a4 4 0 0 1 .8.3c.2 0 .5 0 .1-.2a16.6 16.6 0 0 0-2.5-1c-.2 0-.4.2-.6-.1a.3.3 0 0 0-.2-.1Zm1 .6v.7c0 .3-.2.2-.2 0V23l.1-.2Zm.4 0v.8c0 .2-.3.2-.2 0V23l.2-.1Zm-.6 1.2.1.2v.4c0 .3-.2.3-.2 0v-.4l.1-.2Zm.4.2v.5c0 .2-.2.2-.1 0v-.5Zm-.5 1v.6H18v-.6Zm.2 0 .1.1v.3c0 .1-.2.2-.2 0v-.3h.1Z" class="b"/><path d="M16 30.7a3.2 3.2 0 0 1 .2 1l-.5 1.6a10 10 0 0 0 1 .8l.6-1.4c0-.2.1 0 .3 0 .2.2.2.3.6.3a.6.6 0 0 1 .6.2l4.2 3.2a11.8 11.8 0 0 0 5.5-.8c-2.1-2-4.2-2.1-5.4-2.8-1-.6-2-1-2.6-1.8-.2-.4 0-.7-.3-1a4.5 4.5 0 0 1-.4-1.2 1.6 1.6 0 0 0-.6-.6 1.9 1.9 0 0 0-1.2-.4h-.5l-.6.2-.1.4-.3.1-.4.8Z" class="d"/><path d="M24.1 36.5H23L21.2 35l-2.4-1.8-.6-.2a.6.6 0 0 1-.6-.2l-.2-.2-.1.1-.6 1.4a10 10 0 0 1-1-.8l.5-1.7a3.2 3.2 0 0 0-.2-1v-1.3l.5-.8.3-.1V28h.1l.6-.1.5-.2a1.9 1.9 0 0 1 1.2.4 1.6 1.6 0 0 1 .6.7 2.2 2.2 0 0 1 .1.4 2 2 0 0 0 .3.8.8.8 0 0 1 .2.5 1 1 0 0 0 .1.5 4.5 4.5 0 0 0 2 1.4l.6.4a7.7 7.7 0 0 0 1.4.5 9.6 9.6 0 0 1 4 2.3 11.6 11.6 0 0 1-4.4.9Zm-1.1-.1a11.7 11.7 0 0 0 5.5-.8 9.6 9.6 0 0 0-4-2.2 7.8 7.8 0 0 1-1.4-.6l-.7-.3a4.6 4.6 0 0 1-2-1.5 1 1 0 0 1 0-.5.8.8 0 0 0-.2-.5 2 2 0 0 1-.3-.8 2.1 2.1 0 0 0-.2-.4 1.6 1.6 0 0 0-.5-.6 1.8 1.8 0 0 0-1.2-.4l-.5.1h-.6l-.1.5-.3.2-.4.7v1.4a3.2 3.2 0 0 1 .1 1l-.5 1.6a10 10 0 0 0 1 .8l.6-1.4a.1.1 0 0 1 0-.1l.3.1a.6.6 0 0 0 .6.3l.6.1 2.4 1.9 1.8 1.4Z" class="b"/><path d="m15.9 33.5.5-1.9c.1-.4.4-.3.3.1l-.6 2ZM17 31.8c.2-.5.4-.4.2 0l-.7 2.2-.2-.2ZM25.2 36.4a15.7 15.7 0 0 1-2.4-1.9c-2-1.8-.3-.4.6.3a20.2 20.2 0 0 0 2.3 1.5Z" class="b"/><path d="M17 27.9a.3.3 0 0 0-.2.4.2.2 0 0 1-.1.1l-.4.2-.1.2a.6.6 0 0 1-.1.4.3.3 0 0 0-.1.2 1.8 1.8 0 0 0 0 .2 1 1 0 0 1 0 .3.8.8 0 0 0 0 .2.7.7 0 0 1 0 .3.7.7 0 0 0 0 .5.4.4 0 0 1 0 .2 1.4 1.4 0 0 0 0 .3.5.5 0 0 1 .1.3c.2-.4.5-.8 1-.5.3 0 .4-.3.6-.1.2 0 .5-.2.5 0 0 .3 0 .6.5.7.2.1.6 0 .5.4 0 .2-.3.4 0 .7.3.2 1 .2.5 0l-.3-.4c-.1-.2 0-.4.1-.3l.9.8c.6.8 1.4 1.5 2.1 2.2l.5.5a5 5 0 0 1 .6.8h.2a9.8 9.8 0 0 0-.8-.8l-2.7-3-.1-.1a3.2 3.2 0 0 0-.3-1l.2-.8c0-.4-.2-.3-.2 0l-.2.6a.5.5 0 0 0 0 .4 2 2 0 0 1 .3.5c0 .2 0 .1 0 0a3.4 3.4 0 0 1-.6-.6c-.2-.2-.3 0-.5 0-.2-.1-.3-.2-.4-.5a5.5 5.5 0 0 1 .1-2c0-.2.6-.3.2-.3-.4 0-.4 0-.5-.2a.3.3 0 0 1 0-.2H18a1 1 0 0 1-1 0c.3 0 .3-.1.3-.2a.3.3 0 0 0 0-.3.5.5 0 0 0-.3 0v-.1Zm0 .1h.2v.3a1.9 1.9 0 0 1-.3 0 .4.4 0 0 1 0-.3Zm-.3.6a.3.3 0 0 1 .1 0l.4.2a1 1 0 0 0 .6 0 .4.4 0 0 1 .3 0l.2.2c0 .2-.2.4-.4.2l-.3-.1a2 2 0 0 1-.5 0 1.3 1.3 0 0 1-.5-.1c-.3-.2-.1-.4 0-.4Zm.4.6a.8.8 0 0 1 .6.2c.2.1.5.1.5.3 0 .2-.2.5-.4.3a.8.8 0 0 0-.5-.3h-.8c-.2 0-.5-.4 0-.5a5.7 5.7 0 0 1 .6 0Zm-.3.6h.4a1.2 1.2 0 0 1 .5.3l.2.2c0 .1-.1.4-.3.3a2 2 0 0 0-.4-.2 3.5 3.5 0 0 0-.8 0c-.3 0-.3-.4 0-.5a2.2 2.2 0 0 1 .4 0Zm1.5.2c.1 0 0 .3-.1.2a.5.5 0 0 1 0-.2h.1Zm-1.3.5c.2 0 .3.4 0 .4h-.5l-.2.1c-.2 0-.3-.2 0-.4l.7-.1Zm1 .1c.1 0 .1 0 0 .2H18l.1-.2Z" class="b"/><path d="M17.3 32.3a3.5 3.5 0 0 1 .4-1 .5.5 0 0 0 0-.3h.5-.1a6 6 0 0 0-.6 1.3.6.6 0 0 1 0 .4c-.2-.1-.2 0-.3.2a1.9 1.9 0 0 0 0-.2v-.3l.1-.1ZM18.6 33a.6.6 0 0 1 .2.2.4.4 0 0 1 0-.2c.1 0 0-.1 0-.1a.5.5 0 0 1-.2.1ZM25.2 34.7c.4.5.5.4.3.1-1-1.4-1.6-1.4-1.2-1a8.5 8.5 0 0 1 .9.9ZM28.5 35.6a9.4 9.4 0 0 0-4-2.2 7.7 7.7 0 0 1-1.4-.6c-.3 0-.5-.2-.7-.3a4.4 4.4 0 0 1-2-1.5 1 1 0 0 1 0-.5.8.8 0 0 0-.2-.5 2 2 0 0 1-.3-.8 2.1 2.1 0 0 0-.2-.4 1.6 1.6 0 0 0-.5-.6 1.8 1.8 0 0 0-1.2-.4l-.5.1.5-.2a1.9 1.9 0 0 1 1.2.4 1.7 1.7 0 0 1 .6.7 2.2 2.2 0 0 1 .1.4 2 2 0 0 0 .4.8.9.9 0 0 1 .1.5 1 1 0 0 0 .2.5 4.4 4.4 0 0 0 1.8 1.4l.7.4a7.7 7.7 0 0 0 1.4.5 9.5 9.5 0 0 1 4 2.2v.1Z" class="b"/></svg>