<svg xmlns="http://www.w3.org/2000/svg" viewBox="0 0 48 48"><defs><style>.c,.h{fill:#ad1519}.c,.d,.f,.g,.h,.i,.j,.k,.l,.m,.r,.t{stroke:#000}.c,.g{stroke-linejoin:round}.c,.d,.f,.g,.h,.i,.j,.k,.l,.m,.o,.r,.t{stroke-width:.06px}.d,.e,.g,.o{fill:#c8b100}.f,.m{fill:none}.i{fill:#058e6e}.j{fill:#fff}.k{fill:#005bbf}.l{fill:#ccc}.m{stroke-linecap:round}.o{stroke:#c8b100}.q{fill:#0039f0}.r{fill:#db4446}</style></defs><circle cx="24" cy="24" r="24" style="fill:#c60b1e"/><path d="M48 24a23.7 23.7 0 0 1-3.2 12H3.2a24 24 0 0 1 0-24h41.6A23.7 23.7 0 0 1 48 24Z" style="fill:#ffc400;fill-rule:evenodd"/><path d="M7.1 21.3a1.2 1.2 0 0 1-.2 0V21a.3.3 0 0 1-.1-.2.3.3 0 0 1 .1-.1 1.3 1.3 0 0 1 .2-.1h.2a.5.5 0 0 1 0-.1.6.6 0 0 1 .1 0 .6.6 0 0 1 .1 0H8.2a.7.7 0 0 1 .2 0h.2a2 2 0 0 1 .2.1.3.3 0 0 1 .2.1.4.4 0 0 1 0 .1.2.2 0 0 1 0 .2l-.1.1-.2.1a6.4 6.4 0 0 0-.7 0 5.3 5.3 0 0 0-.8 0Z" class="c"/><ellipse cx="7.9" cy="20.7" class="d" rx=".1" ry=".2"/><ellipse cx="7.9" cy="20.7" class="d" rx=".1" ry=".2"/><circle cx="7.9" cy="20.5" r=".1" class="e"/><path d="M8 20.4h-.3.1v-.2H8v.1h-.1v.1" class="d"/><path d="M7.9 20.4v.1h-.1v-.1" class="f"/><path d="M7.9 21.3h-.5v-.4l-.3-.2c.1-.1.4 0 .5.3h.5c.2-.3.4-.4.5-.4 0 0 0 .2-.2.3v.4Z" class="d"/><path d="M7 20.7c.2 0 .4 0 .5.3m1.1-.3s-.2 0-.4.3" class="f"/><path d="M7.2 21.5a3 3 0 0 1 1.4 0 2.3 2.3 0 0 0-.7 0 2.3 2.3 0 0 0-.7 0M7.9 21.8a3 3 0 0 0 .5 0c.1-.1.2-.1.1-.2a2.4 2.4 0 0 0-.6 0 2.4 2.4 0 0 0-.7 0v.1a3 3 0 0 0 .7 0ZM8.6 21.3a.2.2 0 0 1-.2 0v-.1a.2.2 0 0 1-.2 0 .2.2 0 0 1-.1 0 .2.2 0 0 1-.1 0 .2.2 0 0 1-.1 0s-.1 0-.2 0a.1.1 0 0 1-.2 0 .2.2 0 0 1-.1 0 .2.2 0 0 1-.1 0 .2.2 0 0 1-.1 0s0 0 0 .1a2.7 2.7 0 0 1 .7 0 2.7 2.7 0 0 1 .7 0Z" class="d"/><path d="M7.9 21v.1a.1.1 0 0 0 0 .1.1.1 0 0 0 .2 0 .1.1 0 0 0 .2 0V21a.1.1 0 0 0 .2.2v-.1l.1.1a.1.1 0 0 0 .1 0 .5.5 0 0 0 0-.1.4.4 0 0 1 0 .1h-.2a.2.2 0 0 1-.2 0 .2.2 0 0 1-.2 0 .2.2 0 0 1-.1 0 .2.2 0 0 1-.1 0 .2.2 0 0 1-.2 0 .2.2 0 0 1-.2 0 .1.1 0 0 1-.1 0 .1.1 0 0 1-.1 0 .1.1 0 0 1-.1 0 .1.1 0 0 1-.2 0v-.1a.1.1 0 0 0 .1.1v-.1a.1.1 0 0 0 .2 0V21h.1a.1.1 0 0 0 .2 0 .1.1 0 0 0 .1.1.1.1 0 0 0 .1 0V21Z" class="d"/><path d="M7.9 21.3a2.8 2.8 0 0 0-.8.1 2.7 2.7 0 0 1 .8-.1 2.7 2.7 0 0 1 .7 0v.1a2.8 2.8 0 0 0-.7 0Z" class="g"/><path d="M6.9 21.2a.2.2 0 0 0-.1 0V21v.1ZM7 21.1v.1h-.1L7 21M6.9 21.2ZM7.1 21.2ZM7.2 21.1h.2-.2M7.3 21h.1M7.5 21v.1h-.1l.1-.1M7.6 21.1ZM7.7 21v.1h.1V21h-.1M7.9 20.8l-.1.1v.1L8 21M8 21v.1H8L8 21M8.1 21.1ZM8.2 21v.1h.1V21h-.1M8.5 21.1h-.1.1M8.6 21.2ZM8.8 21.2a.2.2 0 0 1 .2 0l-.1-.1v.1ZM8.6 21.1v.1h.2V21h-.2M8.8 21.2Z" class="d"/><path d="M7.1 21.5h.1" class="h"/><path d="M7.4 21.5h-.1.2-.1" class="i"/><path d="M7.9 21.5h-.1v-.1H8h-.1" class="h"/><path d="M8.3 21.5h.1-.1" class="i"/><path d="M8.6 21.5h-.1" class="h"/><path d="M7.9 21.7a2.5 2.5 0 0 1-.6 0 2.8 2.8 0 0 1 1.2 0 2.6 2.6 0 0 1-.6 0Z" class="c"/><path d="M8 21.7v-.1m0 .1v-.1m-.1.1v-.1M7.8 21.7v-.1M7.8 21.7v-.1M7.8 21.7v-.1M7.7 21.7v-.1M7.7 21.7v-.1M7.7 21.7v-.1m0 .1v-.1M7.6 21.7v-.1m0 .1v-.1M7.6 21.7v-.1m0 .1v-.1M7.3 21.7" class="f"/><path d="M9.4 31.7a.8.8 0 0 1-.4 0 .8.8 0 0 0-.4-.1.9.9 0 0 0-.4 0 .8.8 0 0 1-.3.1.8.8 0 0 1-.4 0 .8.8 0 0 0-.4-.1.8.8 0 0 0-.3 0 .8.8 0 0 1-.4.1v.3a.8.8 0 0 0 .4-.1.8.8 0 0 1 .3 0 .8.8 0 0 1 .4 0 .9.9 0 0 0 .7 0 1 1 0 0 1 .8 0 .8.8 0 0 0 .4 0v-.2Z" class="k"/><path d="M9.4 32a.8.8 0 0 1-.4-.1 1 1 0 0 0-.8 0 .9.9 0 0 1-.7 0 .8.8 0 0 0-.4 0 .8.8 0 0 0-.3 0 .8.8 0 0 1-.4 0v.3a.8.8 0 0 0 .4 0A.8.8 0 0 1 7 32a.8.8 0 0 1 .4.1.8.8 0 0 0 .4.1.8.8 0 0 0 .3 0 .8.8 0 0 1 .4-.2.8.8 0 0 1 .4.1.8.8 0 0 0 .4.1V32" class="l"/><path d="M9.4 32.2a.8.8 0 0 1-.4 0 .8.8 0 0 0-.4-.2.8.8 0 0 0-.4.1.8.8 0 0 1-.3.1.8.8 0 0 1-.4 0A.8.8 0 0 0 7 32a.8.8 0 0 0-.3.1.8.8 0 0 1-.4.1v.2a.8.8 0 0 0 .4 0 .8.8 0 0 1 .3-.1.8.8 0 0 1 .4 0 .8.8 0 0 0 .4.1.8.8 0 0 0 .3 0 1 1 0 0 1 .8 0 .8.8 0 0 0 .4 0v-.2" class="k"/><path d="M9.4 32.7a.8.8 0 0 1-.4-.1 1 1 0 0 0-.8 0 .8.8 0 0 1-.3 0 .8.8 0 0 1-.4 0 .8.8 0 0 0-.4 0 .8.8 0 0 0-.3 0 .8.8 0 0 1-.4 0v-.2a.8.8 0 0 0 .4 0 .8.8 0 0 1 .3-.1.8.8 0 0 1 .4 0 .8.8 0 0 0 .4.1.8.8 0 0 0 .3 0 1 1 0 0 1 .8 0 .8.8 0 0 0 .4 0v.3" class="l"/><path d="M9.4 32.9a.8.8 0 0 1-.4 0 .8.8 0 0 0-.4-.2.8.8 0 0 0-.4.1.8.8 0 0 1-.3.1.8.8 0 0 1-.4 0 .8.8 0 0 0-.4-.2.8.8 0 0 0-.3.1.8.8 0 0 1-.4.1v-.2a.8.8 0 0 0 .4-.1.8.8 0 0 1 .3 0 .8.8 0 0 1 .4 0 .8.8 0 0 0 .4 0 .8.8 0 0 0 .3 0 1 1 0 0 1 .8 0 .8.8 0 0 0 .4 0v.3Z" class="k"/><path d="M7 30.8a.3.3 0 0 1-.2.3H9a.3.3 0 0 1-.3-.2.3.3 0 0 1 0-.1H7Z" class="g"/><path d="M7 30.6h1.7v.2H7v-.2ZM6.8 31.7H9V31H6.8Z" class="d"/><path d="M7 30.6h1.6v-7.7H7.1Z" class="l"/><path d="M8.2 23v7.6m.2-7.7v7.7" class="f"/><path d="M6.8 22.3h2.1v-.6H6.8v.6Z" class="d"/><path d="M7 22.7h1.7a.1.1 0 0 1 0-.1.1.1 0 0 1 0-.2H7a.1.1 0 0 1 0 .2Z" class="g"/><path d="M7 22.7h1.7v.1H7v-.1ZM7 22.3h1.7v.1H7Z" class="d"/><path d="M6.6 28.7c-.2 0-.4.2-.3.3l.1.2c.2 0 .3.3.2.3a.6.6 0 0 0 0-.8Z" class="h"/><path d="M10.2 25.8a5 5 0 0 0-1.5-.3 5 5 0 0 0-.8 0c-1 .2-1.6.6-1.6 1s-.3-.9-.3-.9c0-.3.7-.7 1.7-1a5.3 5.3 0 0 1 1 0 5 5 0 0 1 1.5.2v1" class="c"/><path d="M7 26.7c-.4 0-.6-.1-.7-.3 0-.1.1-.3.4-.4a3.3 3.3 0 0 0 .4 0v.7M8.6 26.1a1.3 1.3 0 0 1 .6.2c0 .2-.2.4-.6.6v-.8" class="h"/><path d="M6.1 28.2c0-.1.4-.4 1-.6.3 0 .5-.2.8-.3.8-.4 1.4-.8 1.3-1a5.5 5.5 0 0 1 .1.8c.1.2-.4.6-1.2 1l-1 .3c-.5.2-.9.5-.8.6l-.2-.8Z" class="c"/><path d="M22.2 21.2a.3.3 0 0 1-.1 0h-.4a.3.3 0 0 1-.1 0 .1.1 0 0 1-.1 0 .2.2 0 0 1 0 .1h-.2l-.1-.1V21c0-.1 0-.2.2-.2a.4.4 0 0 1 .2 0 .5.5 0 0 1 .3-.1.5.5 0 0 1 .3 0 .5.5 0 0 1 .3 0 .5.5 0 0 1 .3 0 .4.4 0 0 1 .2 0l.2.2v.2H23l-.1.1a.2.2 0 0 1-.1 0 .1.1 0 0 1-.1 0 .3.3 0 0 1-.1-.1s-.1 0-.2 0h-.2a.3.3 0 0 1-.1 0Z" class="h"/><ellipse cx="22.2" cy="20.8" class="d" rx=".1" ry=".2"/><ellipse cx="22.2" cy="20.8" class="d" rx=".1" ry=".2"/><circle cx="22.2" cy="20.5" r=".1" class="e"/><path d="M22.3 20.5h-.2v-.2h.1v.2h.1" class="d"/><path d="M22.2 20.5v.1H22v-.1" class="f"/><path d="M21.2 21.1a.3.3 0 0 1 0 0 .3.3 0 0 1 .2-.4.3.3 0 0 1 .2 0" class="m"/><path d="M21.7 21a.2.2 0 0 1 0-.2.2.2 0 0 1 .2-.2.3.3 0 0 1 .2 0M22.7 21a.2.2 0 0 0 0-.2.2.2 0 0 0-.2-.2.3.3 0 0 0-.2 0" class="f"/><path d="M23.2 21.1a.3.3 0 0 0 0 0 .3.3 0 0 0-.3-.4.3.3 0 0 0-.1 0" class="m"/><path d="M21.5 21.5a3 3 0 0 1 1.4 0 2.3 2.3 0 0 0-.7 0 2.3 2.3 0 0 0-.7 0" class="d"/><path d="M22.2 21.8a3 3 0 0 0 .6 0v-.2a2.7 2.7 0 0 0-1.3 0l.1.1a3 3 0 0 0 .6 0ZM23 21.3h-.1a.2.2 0 0 1-.1 0l-.1-.1a.2.2 0 0 1-.2 0 .2.2 0 0 1-.2 0 .2.2 0 0 1-.1 0s0 0-.1 0a.2.2 0 0 1-.1 0 .1.1 0 0 1-.2 0 .2.2 0 0 1-.2 0 .2.2 0 0 1-.1 0s0 0 0 .1a3 3 0 0 1 1.4 0Z" class="d"/><path d="M22.2 21v.1a.1.1 0 0 0 .1.1.1.1 0 0 0 .1 0 .1.1 0 0 0 .2 0V21h.1a.1.1 0 0 0 0 .2.1.1 0 0 0 .2 0v-.1.1a.1.1 0 0 0 .1 0 .5.5 0 0 0 .1-.1.4.4 0 0 1 0 .1.1.1 0 0 1-.2 0 .2.2 0 0 1-.3 0 .2.2 0 0 1-.2 0 .2.2 0 0 1-.2 0 .2.2 0 0 1-.1 0 .2.2 0 0 1-.1 0 .2.2 0 0 1-.2 0 .1.1 0 0 1-.2 0h-.2a.4.4 0 0 1-.1 0v-.1a.1.1 0 0 0 .1.1v-.1a.1.1 0 0 0 .2 0V21h.1a.1.1 0 0 0 .2 0 .1.1 0 0 0 .2.1V21Z" class="d"/><path d="M22.2 21.3a2.8 2.8 0 0 0-.8.1 3 3 0 0 1 1.5 0 2.8 2.8 0 0 0-.7 0Z" class="g"/><path d="M21.2 21.2a.2.2 0 0 0-.1 0V21h.1v.1ZM21.4 21.1v.1h-.2l.1-.1M21.2 21.2ZM21.4 21.2h.1ZM21.5 21.1h.2-.2M21.6 21h.1M21.9 21v.1h-.2l.1-.1M22 21.1ZM22 21v.1h.2L22 21M22.2 20.8l-.1.1v.1h.1V21M22.4 21v.1h-.2l.1-.1M22.5 21.1ZM22.5 21v.1h.2l-.1-.1h-.1M22.9 21.1h-.2.1M23 21.2h-.1ZM23.1 21.2h.1V21v.1ZM23 21.1v.1h.1V21H23M23.2 21.2H23c-.1 0 0 0 0 0Z" class="d"/><path d="M21.5 21.5" class="h"/><path d="M21.7 21.5h.1" class="i"/><path d="M22.2 21.5H22v-.1h.2-.1" class="h"/><path d="M22.6 21.5h.1-.1" class="i"/><path d="M23 21.5h-.1" class="h"/><path d="M22.2 21.7a2.5 2.5 0 0 1-.6 0 2.8 2.8 0 0 1 1.2 0 2.6 2.6 0 0 1-.6 0Z" class="c"/><path d="M22.3 21.7v-.1m0 .1v-.1m-.1.1v-.1M22.2 21.7v-.1M22.1 21.7v-.1M22.1 21.7v-.1M22 21.7v-.1M22 21.7v-.1M22 21.7v-.1m0 .1v-.1M22 21.7v-.1m0 .1v-.1M21.9 21.7v-.1m0 .1v-.1M21.6 21.7" class="f"/><path d="M23.7 31.7a.8.8 0 0 1-.4 0 .8.8 0 0 0-.4-.1.9.9 0 0 0-.3 0 .8.8 0 0 1-.4.1.8.8 0 0 1-.4 0 .8.8 0 0 0-.4-.1.8.8 0 0 0-.3 0 .8.8 0 0 1-.4.1v.3a.8.8 0 0 0 .4-.1.8.8 0 0 1 .3 0 .8.8 0 0 1 .4 0 .9.9 0 0 0 .8 0 1 1 0 0 1 .7 0 .8.8 0 0 0 .4 0v-.2Z" class="k"/><path d="M23.7 32a.8.8 0 0 1-.4-.1 1 1 0 0 0-.7 0 .9.9 0 0 1-.8 0 .8.8 0 0 0-.4 0 .8.8 0 0 0-.3 0 .8.8 0 0 1-.4 0v.3a.8.8 0 0 0 .4 0 .8.8 0 0 1 .3-.2.8.8 0 0 1 .4.1.8.8 0 0 0 .4.1.8.8 0 0 0 .4 0 .8.8 0 0 1 .3-.2.8.8 0 0 1 .4.1.8.8 0 0 0 .4.1V32" class="l"/><path d="M23.7 32.2a.8.8 0 0 1-.4 0 .8.8 0 0 0-.4-.2.8.8 0 0 0-.3.1.8.8 0 0 1-.4.1.8.8 0 0 1-.4 0 .8.8 0 0 0-.4-.2.8.8 0 0 0-.3.1.8.8 0 0 1-.4.1v.2a.8.8 0 0 0 .4 0 .8.8 0 0 1 .3-.1.8.8 0 0 1 .4 0 .8.8 0 0 0 .4.1.8.8 0 0 0 .4 0 1 1 0 0 1 .7 0 .8.8 0 0 0 .4 0v-.2" class="k"/><path d="M23.7 32.7a.8.8 0 0 1-.4-.1 1 1 0 0 0-.7 0 .8.8 0 0 1-.4 0 .8.8 0 0 1-.4 0 .8.8 0 0 0-.4 0 .8.8 0 0 0-.3 0 .8.8 0 0 1-.4 0v-.2a.8.8 0 0 0 .4 0 .8.8 0 0 1 .3-.1.8.8 0 0 1 .4 0 .8.8 0 0 0 .4.1.8.8 0 0 0 .4 0 1 1 0 0 1 .7 0 .8.8 0 0 0 .4 0v.3" class="l"/><path d="M23.7 32.9a.8.8 0 0 1-.4 0 .8.8 0 0 0-.4-.2.8.8 0 0 0-.3.1.8.8 0 0 1-.4.1.8.8 0 0 1-.4 0 .8.8 0 0 0-.4-.2.8.8 0 0 0-.3.1.8.8 0 0 1-.4.1v-.2a.8.8 0 0 0 .4-.1.8.8 0 0 1 .3 0 .8.8 0 0 1 .4 0 .8.8 0 0 0 .4 0 .8.8 0 0 0 .4 0 1 1 0 0 1 .7 0 .8.8 0 0 0 .4 0v.3Z" class="k"/><path d="M21.3 30.8a.3.3 0 0 1-.2.3h2.2a.3.3 0 0 1-.3-.2.3.3 0 0 1 0-.1h-1.6Z" class="g"/><path d="M21.4 30.6H23v.2h-1.6v-.2ZM21 31.7h2.3V31H21Z" class="d"/><path d="M21.4 30.6H23v-7.7h-1.6Z" class="l"/><path d="M22.5 23v7.6m.2-7.7v7.7" class="f"/><path d="M21.1 22.3h2.2v-.6H21v.6Z" class="d"/><path d="M21.3 22.7H23a.1.1 0 0 1 0-.1.1.1 0 0 1 0-.2h-1.6a.1.1 0 0 1 0 .2Z" class="g"/><path d="M21.4 22.7H23v.1h-1.6v-.1ZM21.4 22.3H23v.1H21.3Z" class="d"/><path d="M23.5 28.7c.2 0 .3.2.3.3l-.2.2-.2.3a.6.6 0 0 1 0-.8Z" class="h"/><path d="M19.8 25.8a4.6 4.6 0 0 1 2.3-.2c1 .1 1.7.5 1.6.8l.4-.8c0-.3-.7-.7-1.8-1a5.3 5.3 0 0 0-.9 0 5 5 0 0 0-1.6.2v1" class="c"/><path d="M23 26.7c.4 0 .7-.1.7-.3 0-.1 0-.3-.3-.4a3.3 3.3 0 0 1-.4 0v.7M21.4 26.1a1.3 1.3 0 0 0-.6.2c0 .2.2.4.6.6v-.8" class="h"/><path d="M24 28.2c0-.1-.4-.4-1-.6-.3 0-.5-.2-.8-.3-.8-.4-1.5-.8-1.4-1a5.5 5.5 0 0 0 0 .8c-.2.2.4.6 1.2 1l1 .3.8.6.1-.8Z" class="c"/><path d="M7 25.4c.2 0 .3-.1.2-.3h-.5l.2.6H7c.1 0 0 0 0 0v-.3Zm-.1-.3a.1.1 0 0 1 .2 0 .1.1 0 0 1 0 .2.5.5 0 0 1-.1 0l-.1-.2M7.6 24.9h-.1c-.1 0 0 0 0 0v.6H8a.2.2 0 0 1 0-.1h-.3l-.1-.5M8.4 25.4l.3-.6a.5.5 0 0 1-.1 0l-.2.4-.2-.4H8l.3.6a.4.4 0 0 1 .1 0M9.3 25v-.1a.3.3 0 0 0-.1-.1c-.2 0-.3 0-.3.2s.3.2.3.3h-.1a.1.1 0 0 1-.2 0 .4.4 0 0 0 .1.1l.3-.1c0-.2-.3-.3-.3-.4H9.3M20.8 25.4l.2-.6a.4.4 0 0 1-.1 0l-.1.5-.3-.4h-.2l.4.6M21.4 24.8h-.1c-.1 0 0 0 0 0l-.1.6h.4-.2v-.6M22 24.9h.3l-.6-.1a1.8 1.8 0 0 1 .2 0v.6h.1V25M22.3 25.5h.2v-.3.2l.2.2h.2l-.2-.3c.1 0 .2 0 .2-.2a.1.1 0 0 0 0-.1.6.6 0 0 0-.2 0l-.3-.1-.1.6m.3-.5h.2a.2.2 0 0 1 0 .1l-.3.1.1-.2M23.4 25.7a2 2 0 0 1 0 .2s.1 0 .1 0l.1-.6-.7.3h.5Zm-.2-.2.2-.1v.2h-.2" class="e"/><path d="M15 17.5a4.6 4.6 0 0 1 1.5.3 3 3 0 0 0 .8.2 3.2 3.2 0 0 0 .7 0 2.6 2.6 0 0 1 1 .3 2.8 2.8 0 0 1 .8.4l-.2.2v.3l-.4.5-.2.2-.5.4h-.3v.2l-3.2-.4-3.2.4v-.2h-.3l-.5-.4-.2-.2-.4-.5V19l-.2-.2a2.8 2.8 0 0 1 .7-.4 2.6 2.6 0 0 1 1-.3 3.2 3.2 0 0 0 .7 0 3 3 0 0 0 .8-.2 4.4 4.4 0 0 1 1.6-.3Z" class="h"/><path d="M12.6 18.4h.2l.2-.2a.7.7 0 0 1-.4-.7c0-.5.5-.8 1.2-.8a1.5 1.5 0 0 1 .8.2v-.2a1.7 1.7 0 0 0-.8-.2c-.8 0-1.3.4-1.4 1a.9.9 0 0 0 .3.7v.2" class="d"/><path d="M12.6 18.4a1 1 0 0 1-.4-.7 1 1 0 0 1 .6-.9.9.9 0 0 0-.4.6v.1a.9.9 0 0 0 .3.7v.2" class="d"/><path d="M10.4 18.7a.9.9 0 0 1-.1-1 1.8 1.8 0 0 1 1.6-.7 2.6 2.6 0 0 1 .6 0 1 1 0 0 0-.1.2 2.5 2.5 0 0 0-.5 0 1.6 1.6 0 0 0-1.5.6.7.7 0 0 0 0 .3.7.7 0 0 0 .2.6l-.2.4-.2-.1.2-.3Z" class="d"/><path d="M10.7 17.3a1 1 0 0 0-.4.4.9.9 0 0 0 .1 1l-.1.3a1 1 0 0 1-.3-.7 1.2 1.2 0 0 1 .7-1ZM15 16.4a.4.4 0 0 1 .4.3 3 3 0 0 1 0 .4v.1a2.7 2.7 0 0 0 .1.9l-.5.5-.5-.5a2.7 2.7 0 0 0 .1-.8v-.1a3 3 0 0 1 0-.5.4.4 0 0 1 .4-.3Z" class="d"/><path d="M15 16.6a.2.2 0 0 1 .2.1 2.8 2.8 0 0 1 0 .5 2.5 2.5 0 0 0 .1.8l-.3.4-.3-.4a2.5 2.5 0 0 0 0-.7v-.1a2.8 2.8 0 0 1 .1-.5.2.2 0 0 1 .2-.1ZM17.4 18.4h-.2l-.2-.2a.7.7 0 0 0 .4-.7c0-.5-.5-.8-1.2-.8a1.5 1.5 0 0 0-.8.2v-.2a1.7 1.7 0 0 1 .8-.2c.8 0 1.3.4 1.4 1a.9.9 0 0 1-.3.7v.2" class="d"/><path d="M17.4 18.4a1 1 0 0 0 .4-.7 1 1 0 0 0-.6-.9.9.9 0 0 1 .4.6v.1a.9.9 0 0 1-.3.7v.2" class="d"/><path d="M19.6 18.7a.9.9 0 0 0 .2-.6.9.9 0 0 0 0-.4A1.8 1.8 0 0 0 18 17a2.7 2.7 0 0 0-.6 0 1 1 0 0 1 .1.2 2.5 2.5 0 0 1 .5 0 1.6 1.6 0 0 1 1.5.6.7.7 0 0 1 0 .3.7.7 0 0 1-.2.6l.2.4.2-.1Z" class="d"/><path d="M19.3 17.3a1 1 0 0 1 .4.4.9.9 0 0 1 .1.4.9.9 0 0 1-.2.6l.1.3a1 1 0 0 0 .3-.7 1.2 1.2 0 0 0-.7-1Z" class="d"/><circle cx="15" cy="16.1" r=".4" class="k"/><path d="M14.9 15v.1h-.2v.3h.2v.6h-.3a.4.4 0 0 0 0 .2h.8a.4.4 0 0 0 0-.1V16h-.3v-.6h.3V15H15V15Z" class="d"/><circle cx="15" cy="18.1" r=".2" class="j"/><circle cx="15" cy="17.8" r=".2" class="j"/><circle cx="15" cy="17.4" r=".1" class="j"/><circle cx="15" cy="17.1" r=".1" class="j"/><circle cx="15" cy="16.8" r=".1" class="j"/><circle cx="10.1" cy="19.1" r=".1" class="j"/><circle cx="10" cy="18.8" r=".1" class="j"/><circle cx="9.9" cy="18.5" r=".1" class="j"/><circle cx="9.8" cy="18.2" r=".1" class="j"/><circle cx="9.9" cy="17.9" r=".1" class="j"/><circle cx="10.1" cy="17.6" r=".1" class="j"/><circle cx="10.3" cy="17.4" r=".1" class="j"/><circle cx="10.6" cy="17.2" r=".1" class="j"/><circle cx="10.9" cy="17" r=".1" class="j"/><circle cx="11.2" cy="16.9" r=".1" class="j"/><circle cx="11.5" cy="16.9" r=".1" class="j"/><circle cx="11.8" cy="16.8" r=".1" class="j"/><circle cx="12.2" cy="16.8" r=".1" class="j"/><circle cx="12.5" cy="18.3" r=".1" class="j"/><circle cx="12.3" cy="18" r=".1" class="j"/><circle cx="12.2" cy="17.7" r=".1" class="j"/><circle cx="12.3" cy="17.4" r=".1" class="j"/><circle cx="12.3" cy="17.1" r=".1" class="j"/><circle cx="12.5" cy="16.8" r=".1" class="j"/><circle cx="12.7" cy="16.7" r=".1" class="j"/><circle cx="13" cy="16.5" r=".1" class="j"/><circle cx="13.3" cy="16.4" r=".1" class="j"/><circle cx="13.7" cy="16.3" r=".1" class="j"/><circle cx="14" cy="16.3" r=".1" class="j"/><circle cx="14.3" cy="16.4" r=".1" class="j"/><circle cx="14.6" cy="16.5" r=".1" class="j"/><circle cx="15.4" cy="16.5" r=".1" class="j"/><circle cx="15.7" cy="16.4" r=".1" class="j"/><circle cx="16" cy="16.3" r=".1" class="j"/><circle cx="16.3" cy="16.3" r=".1" class="j"/><circle cx="16.7" cy="16.4" r=".1" class="j"/><circle cx="17" cy="16.5" r=".1" class="j"/><circle cx="17.3" cy="16.7" r=".1" class="j"/><circle cx="17.5" cy="16.8" r=".1" class="j"/><circle cx="17.7" cy="17.1" r=".1" class="j"/><circle cx="17.7" cy="17.4" r=".1" class="j"/><circle cx="17.8" cy="17.7" r=".1" class="j"/><circle cx="17.7" cy="18" r=".1" class="j"/><circle cx="17.5" cy="18.3" r=".1" class="j"/><circle cx="17.8" cy="16.8" r=".1" class="j"/><circle cx="18.2" cy="16.8" r=".1" class="j"/><circle cx="18.5" cy="16.9" r=".1" class="j"/><circle cx="18.8" cy="16.9" r=".1" class="j"/><circle cx="19.2" cy="17" r=".1" class="j"/><circle cx="19.5" cy="17.2" r=".1" class="j"/><circle cx="19.7" cy="17.4" r=".1" class="j"/><circle cx="19.9" cy="17.6" r=".1" class="j"/><circle cx="20.1" cy="17.9" r=".1" class="j"/><circle cx="20.2" cy="18.2" r=".1" class="j"/><circle cx="20.1" cy="18.5" r=".1" class="j"/><circle cx="20" cy="18.8" r=".1" class="j"/><circle cx="19.9" cy="19.1" r=".1" class="j"/><path d="M15 21.7a11 11 0 0 1-3-.4.1.1 0 0 1 0-.2 11 11 0 0 1 3-.4 11 11 0 0 1 3 .4.1.1 0 0 1 0 .1.1.1 0 0 1 0 .1 11 11 0 0 1-3 .4" class="d"/><path d="M15 20.7a10.8 10.8 0 0 0-3 .4v-.3c-.1-.2-.3-.2-.3-.2a12.2 12.2 0 0 1 3.3-.4 12.3 12.3 0 0 1 3.3.4s-.1 0-.2.2v.3a11 11 0 0 0-3-.4" class="d"/><path d="M15 20.2a12.2 12.2 0 0 0-3.3.4.1.1 0 0 1-.1 0 .1.1 0 0 1 0-.2A12 12 0 0 1 15 20a12.1 12.1 0 0 1 3.4.4.1.1 0 0 1 0 .1.1.1 0 0 1-.1 0 12.2 12.2 0 0 0-3.3-.3" class="d"/><path d="M15 19.2h.1a.4.4 0 0 0 0 .2.5.5 0 0 0 .5.4.5.5 0 0 0 .4-.3l.1-.2v.2a.5.5 0 0 0 1 0 .3.3 0 0 0 0-.1l.1-.2v.2a.4.4 0 0 0 0 .2.4.4 0 0 0 .5.4.5.5 0 0 0 .4-.1v-.2.2a.3.3 0 0 0 .3.3.6.6 0 0 0 .4-.2 2.5 2.5 0 0 0 .3-.3v.2a1.5 1.5 0 0 1-.4.4.7.7 0 0 1-.4 0 .4.4 0 0 1-.3-.2.7.7 0 0 1-.3.1.7.7 0 0 1-.6-.4.7.7 0 0 1-.5.3.7.7 0 0 1-.5-.3.7.7 0 0 1-1-.1.7.7 0 0 1-1.1.1.7.7 0 0 1-.6.3.7.7 0 0 1-.5-.3.7.7 0 0 1-.6.4.7.7 0 0 1-.3 0 .4.4 0 0 1-.3.2.7.7 0 0 1-.4-.1 1.4 1.4 0 0 1-.4-.4v-.2a2.6 2.6 0 0 0 .4.3.6.6 0 0 0 .4.2.3.3 0 0 0 .2-.3v-.2.2a.5.5 0 0 0 .4.1.4.4 0 0 0 .5-.4.4.4 0 0 0 0-.2v-.2l.2.2a.5.5 0 0 0 1 .1v-.2.2a.5.5 0 0 0 .4.3.5.5 0 0 0 .5-.4.4.4 0 0 0 0-.2h.1" class="d"/><path d="M11 19.8a.2.2 0 0 0 0-.1.2.2 0 0 0-.3 0 .8.8 0 0 0-.2-.3.7.7 0 0 0-.4 0 .3.3 0 0 1 .3-.3.3.3 0 0 1 .3.1.3.3 0 0 1 .2 0 .7.7 0 0 1 0 .5.6.6 0 0 1 0-.2.8.8 0 0 1 .3-.2 1 1 0 0 0 .1 0 .5.5 0 0 1 0 .1.8.8 0 0 1 .4 0 .5.5 0 0 1-.3.3s0 0 .1 0v.1a1.6 1.6 0 0 1-.3 0 1.5 1.5 0 0 1-.2 0" class="d"/><path d="M10.7 19.7a.2.2 0 0 1 .2 0c.1 0 .1.2 0 .2a.2.2 0 0 1-.1 0c-.1 0-.1-.2 0-.2" class="h"/><path d="M11.8 19.8v-.2l.2.1v.2l-.2-.1" class="j"/><path d="M12.7 19.4a.2.2 0 0 1 0-.1.2.2 0 0 1 0-.1 1 1 0 0 0-.2-.1 1.1 1.1 0 0 0-.2 0h-.1a.5.5 0 0 0-.3.3.5.5 0 0 0 .4 0 .5.5 0 0 0 0 .2 1.2 1.2 0 0 0 .3-.1 1 1 0 0 0 .1-.1" class="d"/><path d="M12.7 18.4a.5.5 0 0 1 .2.3.2.2 0 0 1 .2-.1v.1l-.1.3a.8.8 0 0 1 0 .1.2.2 0 0 0-.2 0 .2.2 0 0 0-.1 0 .8.8 0 0 1-.2 0v-.3h-.1a.2.2 0 0 1 .2 0 .5.5 0 0 1 0-.4" class="d"/><path d="M13 19.3a.2.2 0 0 0 0-.2 1 1 0 0 1 0-.1 1.1 1.1 0 0 1 .3-.1.5.5 0 0 1 0 .1.5.5 0 0 1 .4.1.5.5 0 0 1-.3.2l.1.1h-.1a1.1 1.1 0 0 1-.2 0 1 1 0 0 1-.2 0" class="d"/><circle cx="12.8" cy="19.2" r=".2" class="h"/><path d="m13.8 19.4.1-.2.1.1v.2l-.2-.1" class="j"/><path d="M14.9 19.2a.2.2 0 0 1 0-.1.2.2 0 0 1 0-.2 1 1 0 0 0-.2 0 1.3 1.3 0 0 0-.3-.1h-.1a.6.6 0 0 0-.3.3.6.6 0 0 0 .4.1.6.6 0 0 0 0 .1.5.5 0 0 0-.1 0h.1a1.3 1.3 0 0 0 .3 0 1.3 1.3 0 0 0 .2-.1" class="d"/><path d="M15 18a.6.6 0 0 1 .2.4.3.3 0 0 1 .2 0s0 0 0 .1l-.1.3a.8.8 0 0 1-.1.1.2.2 0 0 0-.3 0 .8.8 0 0 1-.1-.1l-.1-.3v-.1a.2.2 0 0 1 .1 0 .6.6 0 0 1 .2-.3" class="d"/><path d="M15.2 19.2a.2.2 0 0 0 0-.3 1 1 0 0 1 .2 0 1.3 1.3 0 0 1 .2-.1h.1a.6.6 0 0 1 .3.3.6.6 0 0 1-.3.1.6.6 0 0 1 0 .1h-.1a.9.9 0 0 1-.4-.1" class="d"/><circle cx="15" cy="19.1" r=".2" class="h"/><path d="M16.2 19.4v-.2l-.2.1v.2l.2-.1" class="j"/><path d="M17 19.3a.2.2 0 0 1 0-.2 1 1 0 0 0 0-.1 1.1 1.1 0 0 0-.3-.1.6.6 0 0 0 0 .1.5.5 0 0 0-.4.1.5.5 0 0 0 .3.2.4.4 0 0 0 0 .1 1.1 1.1 0 0 0 .3 0 1 1 0 0 0 .2 0" class="d"/><path d="M17.4 18.4a.5.5 0 0 0-.3.3.2.2 0 0 0-.1-.1v.4a.8.8 0 0 0 0 .1.2.2 0 0 1 .2 0 .2.2 0 0 1 .2 0l.2-.3a.2.2 0 0 0-.1 0 .5.5 0 0 0-.1-.4M17.3 19.4a.2.2 0 0 0 0-.1.2.2 0 0 0 0-.1 1 1 0 0 1 .2-.1 1.1 1.1 0 0 1 .3 0 .5.5 0 0 1 .3.3.5.5 0 0 1-.3 0 .6.6 0 0 1 0 .2h-.1a1.2 1.2 0 0 1-.2-.1 1 1 0 0 1-.2-.1" class="d"/><circle cx="17.2" cy="19.2" r=".2" class="h"/><path d="M18.3 19.8v-.2l-.2.1v.2l.2-.1" class="j"/><path d="M19 19.8a.2.2 0 0 1 .1-.1.2.2 0 0 1 .2 0 .8.8 0 0 1 .3-.3.7.7 0 0 1 .3 0 .3.3 0 0 0-.3-.3.3.3 0 0 0-.2.1.3.3 0 0 0-.2 0 .7.7 0 0 0 0 .5.6.6 0 0 0-.1-.2.8.8 0 0 0-.2-.2 1 1 0 0 1-.2 0 .5.5 0 0 0 0 .1.8.8 0 0 0-.3 0 .5.5 0 0 0 .2.3.4.4 0 0 0-.1 0l.1.1a1.6 1.6 0 0 0 .3 0 1.5 1.5 0 0 0 .1 0" class="d"/><path d="M19.3 19.7a.2.2 0 0 0-.2 0s-.1.2 0 .2a.2.2 0 0 0 .2 0v-.2" class="h"/><path d="M15 21.6a11.4 11.4 0 0 1-2.7-.4A11.4 11.4 0 0 1 15 21a11.5 11.5 0 0 1 2.8.3 11.4 11.4 0 0 1-2.8.4Z" class="c"/><path d="M15.8 21.5V21m-.3.6v-.7m-.2.7v-.7M15 21.6v-.7M15 21.6v-.7M14.8 21.6v-.7M14.6 21.6v-.7M14.5 21.6v-.7M14.2 21.5V21m.1.5V21M14 21.5V21m0 .5V21M13.6 21.5V21m.1.5V21m.1.5V21M13.5 21.5V21M13.4 21.4V21M13.2 21.4V21M13 21.4v-.3m.1.3v-.3M12.9 21.4V21M12.8 21.4V21M12.6 21.3v-.2M12.5 21.3v-.1M12.1 21.3a11.1 11.1 0 0 1 3-.4 11.2 11.2 0 0 1 2.8.4" class="f"/><path d="m11.8 20.8.1-.1h.3l-.2.2h-.2" class="h"/><path d="M12.5 20.7a.1.1 0 1 1 .1 0" class="j"/><path d="M13.4 20.6h-.2a.1.1 0 0 1-.1 0 .1.1 0 0 1 0-.1h.5a.1.1 0 0 1 .2 0 .1.1 0 0 1-.1.1h-.3" class="i"/><path d="M14 20.5a.1.1 0 0 1 .3 0 .1.1 0 0 1-.2 0" class="j"/><path d="M15 20.6h-.3a.1.1 0 0 1-.1-.1.1.1 0 0 1 .1-.1h.6a.1.1 0 0 1 .1 0 .1.1 0 0 1 0 .2H15" class="h"/><path d="M15.7 20.5a.1.1 0 1 1 .1 0" class="j"/><path d="M16.6 20.6h.2a.1.1 0 0 0 .1 0 .1.1 0 0 0 0-.1h-.5a.1.1 0 0 0-.1 0 .1.1 0 0 0 0 .1h.3" class="i"/><path d="M17.3 20.7a.1.1 0 1 1 .1 0" class="j"/><path d="M18.2 20.8v-.1h-.4l.2.2h.2" class="h"/><path d="M15 33a8.2 8.2 0 0 1-3.5-.8 2.3 2.3 0 0 1-1.3-2V27H20v3.2a2.3 2.3 0 0 1-1.3 2 8 8 0 0 1-3.6.9Z" class="l"/><path d="M15.3 31.6a.4.4 0 0 1 .3.4.5.5 0 0 1-.5.4c-.3 0-.5-.1-.5-.4a.3.3 0 0 1 .2-.4.3.3 0 0 1 .2 0 .3.3 0 0 1 0-.1.3.3 0 0 1 .1 0 .3.3 0 0 1 .1 0 .7.7 0 0 1 .1 0 .4.4 0 0 0 0 .1" style="fill:#ffd691;stroke-width:.06px;stroke:#000"/><path d="M15 32.7a2.6 2.6 0 0 0-.5-.3 2.7 2.7 0 0 0-.6 0 2.2 2.2 0 0 1 .2.1 1 1 0 0 0 .3.2 1.2 1.2 0 0 0 .6 0M15.1 32.7a1 1 0 0 1 .5-.3 1.4 1.4 0 0 1 .7 0l-.2.1a.7.7 0 0 1-.4.2h-.5" class="i"/><path d="M15 32.4a.5.5 0 0 1 0-.7.5.5 0 0 1 0 .7" class="h"/><path d="M15 32.9a1 1 0 0 0 0-.3 1 1 0 0 0 0-.2h.1a.8.8 0 0 1 0 .2 2.1 2.1 0 0 1 0 .3H15" class="i"/><path d="M15 30.2a2.4 2.4 0 0 1-4.8 0V27H15v3.2" class="h"/><path d="M10.2 30.2a2.4 2.4 0 0 0 .6 1.5v-4.8h-.6v3.3ZM11.3 32a2.5 2.5 0 0 0 .5.4v-5.5h-.5ZM12.3 32.5a2.6 2.6 0 0 0 .6 0v-5.6h-.6ZM13.4 32.4a1.9 1.9 0 0 0 .6-.3v-5.2h-.6v5.5ZM14.5 31.6a2.2 2.2 0 0 0 .5-1.2v-3.5h-.5Z" class="d"/><path d="M19.9 27v3.2a2.4 2.4 0 0 1-4.9 0V27H20" class="h"/><path d="m17.2 29.4-.4-.5h-.2l-.3-.3.1-.1-.5-.6v.4h.2v.5h-.2v.4a.3.3 0 0 1 .2.2h.3v-.2h.5v.2Zm-.7-1.8v.2h.3v-.2Zm-.7 2a.1.1 0 1 0-.1-.1.1.1 0 0 0 .1 0Zm1.5-1h-.1v-.4h.1v-.3a.3.3 0 0 1-.1-.1h-.3v.1h-.5v-.1H16l.5.6h.1l.3.3v.1l.3.4Zm-.7-.1V28.8l.2-.1Zm.8 3.5a.3.3 0 0 1-.2-.2 1.7 1.7 0 0 1-.5-.1l.1-.2a1.5 1.5 0 0 0 .4.1.3.3 0 0 1 .1-.1V31l-.1-.1v-.4h.1v-.8l-.4.4.1.2-.3.3h-.1l-.3.3a.2.2 0 0 1 0 .2 1.5 1.5 0 0 0 .3.3l-.1.1a1.7 1.7 0 0 1-.4-.3.3.3 0 0 1-.2 0 .2.2 0 0 1 0-.4 1.5 1.5 0 0 1-.2-.5h.2a1.3 1.3 0 0 0 .1.4.3.3 0 0 1 .1 0l.4-.3-.1-.1.3-.4.1.1.4-.4h-.3v.1h-.5v-.2H16a.3.3 0 0 1-.2.2v.4h-.2v-.4a.3.3 0 0 1-.2-.2.3.3 0 0 1 .2-.3v-.4h-.1v-.4h.1v-.5a.2.2 0 0 1-.1-.2.3.3 0 0 1 .2-.3.3.3 0 0 1 .3.2h.3v-.1h.5v.1h.3a.3.3 0 0 1 .2-.2v3.4Zm-.6-1.8-.2.1v.1Zm-1-1.8v.3Zm1 1.1v-.1h-.3v.1Zm-1 1h-.2V30h.1v.2a1.5 1.5 0 0 0 0 .3Zm0-.6h.3v.5h-.2a1.4 1.4 0 0 1 0-.2Zm1.1 1.7v-.2a1.4 1.4 0 0 1-.3-.2l-.2.1a1.6 1.6 0 0 0 .5.3Zm0 .1-.2.1a1.9 1.9 0 0 1-.4-.2v-.1a1.8 1.8 0 0 0 .6.2Z" class="o"/><path d="m17.7 29.4.4-.5h.1l.3-.3v-.1l.4-.6v.4h-.1v.5h.1v.4a.3.3 0 0 0-.1.2h-.3v-.2H18v.2Zm.6-1.8v.2h-.2v-.2Zm.7 2a.1.1 0 1 1 .1-.1Zm-1.5-1h.2v-.4h-.2v-.3a.3.3 0 0 0 .2-.1h.2v.1h.5v-.1h.4l-.5.6H18l-.3.3.1.1-.4.4Zm.7-.1.1.1-.2.2v-.1Zm-.8 3.5a.3.3 0 0 0 .3-.2 1.7 1.7 0 0 0 .4-.1v-.2a1.5 1.5 0 0 1-.5.1.3.3 0 0 0-.1-.1V31l.2-.1v-.4h-.2v-.8l.4.4-.1.2.3.3h.2l.3.3a.2.2 0 0 0 0 .2 1.5 1.5 0 0 1-.3.3v.1a1.7 1.7 0 0 0 .4-.3.3.3 0 0 0 .3 0 .2.2 0 0 0 0-.4 1.5 1.5 0 0 0 .1-.5H19a1.3 1.3 0 0 1 0 .4.3.3 0 0 0-.2 0l-.3-.3v-.1l-.2-.4-.2.1-.4-.4h.3v.1h.5v-.2h.4a.3.3 0 0 0 .1.2v.4h.2v-.4a.3.3 0 0 0 .2-.2.3.3 0 0 0-.2-.3v-.4h.2v-.4H19v-.5a.3.3 0 0 0 .2-.2.3.3 0 0 0-.3-.3.3.3 0 0 0-.2.2h-.3v-.1H18v.1h-.3a.3.3 0 0 0-.3-.2v.8h.1V30.8Zm.6-1.8h.1l.2.1-.1.1Zm1-1.8h.1v.3H19Zm-1 1.1v-.1h.3v.1Zm1 1h.3V30H19v.2a1.5 1.5 0 0 1 0 .3Zm0-.6h-.2v.5h.1a1.4 1.4 0 0 0 0-.2Zm-1 1.7-.1-.2a1.4 1.4 0 0 0 .4-.2v.1a1.6 1.6 0 0 1-.4.3Zm0 .1.1.1a1.9 1.9 0 0 0 .4-.2v-.1a1.8 1.8 0 0 1-.5.2Z" class="o"/><path d="M17.2 29.5a.3.3 0 1 1 .2.2.3.3 0 0 1-.2-.2" style="fill:#058e6e"/><path d="M10.2 27H15v-5.3h-4.8Z" class="h"/><path d="M11.9 22.9h-.1v-.1h-.2v.4h.2v.2h-.4v.7h.2v1.4h-.3v.8H14v-.8h-.4v-1.4h.2v-.7h-.3v-.2h.1v-.4H13v.4h.1v.2h-.3v-.8h.2v-.3h-.7v.3h.2v.8H12v-.2h.2v-.4h-.4Zm-.6 3.4H14m-2.7-.2H14m-2.7-.2H14m-2.7-.2H14m-2.7-.2H14m-2.4-.1h2m-2-.2h2m-2-.2h2m-2-.2h2m-2-.2h2m-2-.1h2m-2-.2h2m-2.2-.2h2.4m-2.4-.2h2.4m-2.4-.1h2.4m-2.4-.2h2.4m-2-.2h1.7m-1-.2h.3m-.3-.2h.3m-.3-.1h.3m-.3-.2h.3m-.5-.2h.7m-1.2.7h.3m-.5-.2h.7m-.7 3.3V26m0-.2v-.2m-.2.2v.2m.4 0v-.2m.2.4V26m0-.2v-.2m0-.2v-.1m0-.2V25m-.2.7v-.2m-.4.2v-.2m.7 0v.2m.2-.2v-.1m-.5-.2v.2m.3-.2v.2m.4-.2v.2m-.2-.2V25m.2-.2v.2m0-.5v.1m-.2-.3v.2m.2-.4v.2M12 24v.2m-.3-.2v.2m-.2-.4v.2m.4-.2v.2m.3-.2v.2m.2-.3v.1m-.4-.1v.1m-.3-.1v.1m-.2-.3v.2m.7-.2v.2m-.3-.6v.2m1.5-.2H13m.5-.2H13m.6 3.3V26m0-.2v-.2m.2.2v.2m-.3 0v-.2m-.2.4V26m0-.2v-.2m0-.2v-.1m0-.2V25m.2.7v-.2m.3.2v-.2m-.7 0v.2m-.1-.2v-.1m.5-.2v.2m-.4-.2v.2m-.3-.2v.2m.2-.2V25m-.2-.2v.2m0-.5v.1m.2-.3v.2m-.2-.4v.2m.3-.2v.2m.4-.2v.2m.1-.4v.2m-.3-.2v.2M13 24v.2m-.2-.3v.1m.3-.1v.1m.4-.1v.1m.1-.3v.2m-.6-.2v.2m.3-.6v.2m-.7 1.8V25m0-.5v-.2m0 .5v-.2m0-.5V24m0-.1v-.2m0-.4V23m0-.1v-.2m-.8.5h.3m.4-.6h.3m.3.6h.4" class="d"/><path d="M13 26.3v-.5s0-.4-.4-.4-.4.3-.4.4v.5Z" class="d"/><path d="M12.3 25.8h-.2l.1-.3.2.2a.3.3 0 0 0 0 .1ZM12.7 25.6l.1-.2a.5.5 0 0 0-.2 0 .5.5 0 0 0-.2 0l.2.2ZM13 25.8h.2l-.1-.3-.2.2a.3.3 0 0 1 0 .1ZM12.3 25v-.4a.2.2 0 0 0-.5 0v.4ZM13 25v-.4a.2.2 0 0 1 .5 0v.4ZM12.1 23.8v-.4h-.4v.4ZM12.8 23.8v-.4h-.4v.4ZM13.1 23.8v-.4h.4v.4Z" class="d"/><path d="M13 26.3v-.4a.3.3 0 0 0-.4-.3.3.3 0 0 0-.3.3v.4ZM12.2 25v-.4a.2.2 0 1 0-.4 0v.4ZM13 25v-.4a.2.2 0 1 1 .4 0v.4Z" class="q"/><path d="M15 27H20v-5.3H15Z" class="l"/><path d="M17.5 23v-.1a.9.9 0 0 1-.2 0 .6.6 0 0 1-.3-.2H17a.4.4 0 0 0-.3 0 .4.4 0 0 1 .2.1.5.5 0 0 0 .2.1 2 2 0 0 0 .3 0h.2Z" class="r"/><path d="M18.2 22.8v.2a.5.5 0 0 0 0 .1.4.4 0 0 1 0 .1.3.3 0 0 0 0 .1.6.6 0 0 1 0 .2.5.5 0 0 1 .1.1 1.3 1.3 0 0 1-.2-.1.3.3 0 0 1 0 .1.5.5 0 0 1 0 .2.5.5 0 0 0 0-.1 1 1 0 0 0-.1-.1.6.6 0 0 1 0 .2v.2a.8.8 0 0 1-.2-.2.3.3 0 0 1 0 .1 1 1 0 0 0 .3.5c0 .1.2.4.5.3s.2-.5.1-.7a1.7 1.7 0 0 1 0-.5v-.3a.8.8 0 0 1 0-.3 1.7 1.7 0 0 1 0-.2.6.6 0 0 0 .1-.2.7.7 0 0 1 .1.2.2.2 0 0 1 .1-.2 1.4 1.4 0 0 0 .2-.1.6.6 0 0 1 0 .2l-.2.2a.5.5 0 0 1 .1 0 .5.5 0 0 1 .1 0 .7.7 0 0 0-.1.1l-.1.2-.2.2v.5a4.3 4.3 0 0 1 .2.5.5.5 0 0 1-.2.5l-.3.1a.3.3 0 0 0-.2.3.2.2 0 0 0 .2.2.2.2 0 0 0 .1.1V25.8a1.4 1.4 0 0 0-.1.2.3.3 0 0 0 0 .2c0 .1 0 0 0 0l-.2.1v-.1l-.1.1c-.1 0 0 0 0 0H18a.1.1 0 0 1 .1-.2s-.1 0 0 0a.3.3 0 0 0 0-.1s-.1 0 0-.1a.1.1 0 0 0 .2 0 .1.1 0 0 0 0-.2h-.1a1 1 0 0 1 0-.2.8.8 0 0 1 0 .2s-.1 0-.2 0a.5.5 0 0 1 0-.2v.2a.4.4 0 0 1-.2-.1.8.8 0 0 1 0-.2.4.4 0 0 1 0-.1v-.1H17.5a.4.4 0 0 0 0 .3.6.6 0 0 1 0 .2.3.3 0 0 0-.2 0 .8.8 0 0 1-.1 0H17v.1a.7.7 0 0 1-.1 0h-.1v-.1h-.1c-.1 0 0 0 0-.1v-.2a.8.8 0 0 0 .1-.1h.1a.2.2 0 0 0 .2.2l.2-.1a1 1 0 0 0 0-.1.2.2 0 0 0-.1 0V25a.5.5 0 0 0-.1.2.2.2 0 0 1 0-.2v-.2s0-.2.2-.2h.4l-.3-.2a1 1 0 0 1-.2-.2.8.8 0 0 1 0-.1.2.2 0 0 0-.2 0 .5.5 0 0 0-.1 0 1 1 0 0 0 0 .2v-.2a.4.4 0 0 1-.2.2h-.1v-.1a.2.2 0 0 1-.1 0l-.2.1v.2a.2.2 0 0 0-.1 0H16v-.2H16v-.1h.1L16 24s0-.1.1 0h.1a.4.4 0 0 0 .2 0l.2-.1.1-.1a.9.9 0 0 0-.2-.2.9.9 0 0 0-.2 0 1 1 0 0 1-.1 0 .4.4 0 0 0 0-.1h.1a.7.7 0 0 0-.2-.1.6.6 0 0 1 .2 0 .3.3 0 0 1-.2-.1v-.2h-.2c0-.1-.1-.2 0-.2V22.6l.2.2v-.2h.2a.2.2 0 0 1 0 .1.2.2 0 0 0 0 .2.4.4 0 0 0 0 .1l.2.1a1.6 1.6 0 0 0 .2.1.5.5 0 0 1 .1 0 .3.3 0 0 1 .1 0 1 1 0 0 0 .3 0h.1l-.1-.2.3-.1v-.2l-.3-.1v-.1a.2.2 0 0 1 .1 0 .6.6 0 0 0 .2-.1.6.6 0 0 1 .2-.1 1.9 1.9 0 0 1 .3.1 1.5 1.5 0 0 1 .2.3" style="fill:#ed72aa;stroke-width:.06px;stroke:#000"/><path d="M16.8 23.4a.2.2 0 0 0-.1.1.2.2 0 0 1 .1 0h.2v.1a.7.7 0 0 1 0 .1.4.4 0 0 1 0 .2.4.4 0 0 0 .3-.1.5.5 0 0 0 0-.1.4.4 0 0 0 0 .1.8.8 0 0 1 0 .2.5.5 0 0 1 .1 0 .3.3 0 0 0 .1-.1.5.5 0 0 0 0-.1.4.4 0 0 0 .1 0 1 1 0 0 1 0 .3.4.4 0 0 1 .1-.2.4.4 0 0 0 0-.1h.1m-1 0h.1l.1-.1m.1.5.1-.1a.4.4 0 0 0 .2-.1M17.7 24.7l.2.2a.6.6 0 0 1-.1.3" class="f"/><path d="M17.2 22.7a.1.1 0 0 0 0-.1ZM17.6 22.5a.2.2 0 0 1 .1 0 .3.3 0 0 1 0 .1ZM17.3 22.7v.1M17.4 22.8" class="t"/><path d="M16.1 22.7a.3.3 0 0 0 .1 0 .6.6 0 0 0 .1 0 .2.2 0 0 0-.1-.2.3.3 0 0 1 0 .2ZM16 22.8a.1.1 0 0 0-.2-.1.3.3 0 0 0-.2 0 .4.4 0 0 1 .2 0 .1.1 0 0 1 0 .2l.1-.1ZM15.8 23a.2.2 0 0 0-.1.3.2.2 0 0 1 0-.1.6.6 0 0 1 .2 0 .3.3 0 0 0 0-.1ZM16 24a.2.2 0 0 0-.2.1.3.3 0 0 1 .1 0 .3.3 0 0 0 .1 0ZM16 24.3a.2.2 0 0 0-.1 0 .2.2 0 0 0 0 .2l.1-.1ZM16.1 24.6a.2.2 0 0 0 0 .1.2.2 0 0 0 .2 0 .1.1 0 0 0-.1-.1ZM16.8 25.3a.2.2 0 0 0 0-.1.3.3 0 0 0-.2 0 .8.8 0 0 1 .1.2.5.5 0 0 0 .1-.1ZM16.6 25.5a.2.2 0 0 0-.1 0 .2.2 0 0 0 0 .2.4.4 0 0 1 .1 0s0 0 0-.1ZM16.8 25.8v.1a.2.2 0 0 0 .1.1v-.2ZM18 26a.2.2 0 0 0-.1 0h-.1.1a.3.3 0 0 1 .1 0ZM18 26.2v.1a.7.7 0 0 0 0 .1.2.2 0 0 1 .2-.1H18ZM18.3 26.3a.1.1 0 0 0 0 .1.2.2 0 0 0 .2 0 .2.2 0 0 1 0-.1h-.2Z" class="r"/><path d="M18.2 22.3a.1.1 0 0 1-.1 0H17.7V22a.4.4 0 0 1 0 .2.7.7 0 0 1-.1 0 1.1 1.1 0 0 1 .5.5.7.7 0 0 1 .1 0 .5.5 0 0 1 .2-.1h-.2v-.2h-.1v-.1Z" class="d"/><path d="M18 22.4ZM17.8 22.3ZM18.1 22.6ZM18.3 22.7Z" class="t"/><path d="M18 22.1v.1M18 22.1v.1M18 22.3v-.1M18 22.2ZM17.7 22.1a.1.1 0 0 0 0-.1v.1ZM17.7 22.1ZM18 22.3h.1M18.1 22.3ZM18.4 22.4v.1M18.4 22.6v-.1M18.3 22.4v.1M18.4 22.5ZM18.5 22.7a.2.2 0 0 1 .1 0h-.1ZM18.4 22.6v.1h.1M18.5 22.7Z" class="d"/><ellipse cx="15" cy="27" class="h" rx="1.6" ry="1.8"/><ellipse cx="15" cy="27" class="k" rx="1.1" ry="1.3"/><path d="M14.5 26a.5.5 0 0 0-.1.4.6.6 0 0 0 0 .2.1.1 0 0 0-.2 0 .2.2 0 0 0 0 .1v.1a.1.1 0 0 1 .1 0 .1.1 0 0 1 .1 0V27.2H14.7V27a.1.1 0 0 1 .1 0v-.2a.1.1 0 0 0 0-.2.1.1 0 0 0-.2.1.6.6 0 0 0 0-.2.5.5 0 0 0 0-.3Z" class="g"/><path d="M14.3 27h.4v-.1h-.4Z" class="d"/><path d="M15.5 26a.5.5 0 0 0 0 .4.6.6 0 0 0 0 .2.1.1 0 0 0-.2 0 .1.1 0 0 0-.1 0 .2.2 0 0 0 0 .1v.1a.1.1 0 0 1 .2 0V27.2H15.8V27a.1.1 0 0 1 .1 0v-.2a.2.2 0 0 0 .1 0 .1.1 0 0 0-.1-.2.1.1 0 0 0-.2.1.6.6 0 0 0 0-.2.5.5 0 0 0 0-.3Z" class="g"/><path d="M15.3 27h.5v-.1h-.5Z" class="d"/><path d="M15 27a.5.5 0 0 0-.1.2.6.6 0 0 0 0 .3.1.1 0 0 0 0-.1.1.1 0 0 0-.2.1.2.2 0 0 0 0 .1v.1a.1.1 0 0 1 .1 0 .1.1 0 0 1 .1 0V28H15.3v-.2a.1.1 0 0 1 0-.2.1.1 0 0 1 .1.1v-.1a.1.1 0 0 0 0-.2.1.1 0 0 0-.2 0 .6.6 0 0 0 0-.2.5.5 0 0 0 0-.2Z" class="g"/><path d="M14.8 27.9h.4v-.1h-.4Z" class="d"/></svg>