<svg xmlns="http://www.w3.org/2000/svg" viewBox="0 0 48 48"><defs><style>.a{fill:#02529c;}.b{fill:#fff;}.c{fill:#dc1e35;}</style></defs><title>fi_IS</title><circle class="a" cx="24" cy="24" r="24"/><path class="b" d="M48,24a23.414,23.414,0,0,1-.61,5.33H23.33V47.98a23.6893,23.6893,0,0,1-10.66-2.83V29.33H.61a23.591,23.591,0,0,1,0-10.66H12.67V2.85A23.6893,23.6893,0,0,1,23.33.02V18.67H47.39A23.414,23.414,0,0,1,48,24Z"/><path class="c" d="M48,24a23.4978,23.4978,0,0,1-.15,2.67H20.67V47.76a22.8,22.8,0,0,1-5.34-1.39V26.67H.15a23.838,23.838,0,0,1,0-5.34H15.33V1.63A22.8,22.8,0,0,1,20.67.24V21.33H47.85A23.4978,23.4978,0,0,1,48,24Z"/></svg>