<svg xmlns="http://www.w3.org/2000/svg" viewBox="0 0 48 48"><path d="M1.4 16h45.2a24 24 0 0 0-45.2 0Z" style="fill-rule:evenodd;fill:#cd1125"/><path d="M1.4 32h45.2a23.6 23.6 0 0 0 0-16H1.4a23.6 23.6 0 0 0 0 16Z" style="fill:#fff;fill-rule:evenodd"/><path d="M46.5 32H1.4a23.9 23.9 0 0 0 45.1 0Z" style="fill-rule:evenodd"/><path d="M23.5 27.4H11.8a1.7 1.7 0 0 1-1.9 1.3 2 2 0 0 1-.3 0c1.6-.8 1.5-1.7.5-3.5a4 4 0 0 0 1.3-.6c-.5 1.2 1 1 2.1 1 0-.4 0-.9-.3-1 .4 0 .5-.1 1.2-.7v1.7h8v-1.2a.2.2 0 0 0-.4 0v.7a.2.2 0 0 1-.2.2h-6.2v-1.1l4.6-4.5c0 .2.5.8.7 1h-.4l-3.8 3.7h4.2c0-1 .9-1 1.3-1.3.4.3 1.3.3 1.3 1.3Zm1 0v-7.7a5 5 0 0 0 1.2.6c0 .3-.3.4-.3.7v4.7c.6.1.7-.2 1-.4.1.7.6 1.5.6 2Zm8-5.2.9-.7v4h.6V21a3.9 3.9 0 0 0 1-1v7.5h-6c0-1.6 0-3.1 1.8-2.8V24c0-.2-.3 0-.3-.2l1.3-1v2.8h.6Zm-.4-2s-.3-.7-.2-.8a.2.2 0 0 1 .2 0v.7Zm-1 .8c-.4-.2-.4-.3 0-.2a1 1 0 0 0 1-.3h.3c.4.3.6.2.7-.2 0-.2.2-.1.2 0 .1.6-.3.8-.8.6h-.4a1 1 0 0 1-1 0Zm4.8 6.4v-7.7a5 5 0 0 0 1.3.6c0 .3-.3.4-.3.7v4.7c.5.1.7-.2 1-.4 0 .7.5 1.5.5 2Zm-23 .8a.4.4 0 1 1 .3.4.4.4 0 0 1-.3-.4Zm17.3-2.8a.3.3 0 1 0 .3-.2.2.2 0 0 0-.3.2Z" style="fill:#017b3d"/></svg>