<svg xmlns="http://www.w3.org/2000/svg" xml:space="preserve" style="enable-background:new 0 0 48 48" viewBox="0 0 48 48"><circle cx="24" cy="24" r="24" style="fill:#02529c"/><path d="M48 24c0 1.8-.2 3.6-.6 5.3H20v18.3A24 24 0 0 1 9.3 43V29.3H.6a23.3 23.3 0 0 1 0-10.6h8.7V5C12.4 2.7 16 1 20 .3v18.3h27.4c.4 1.8.6 3.6.6 5.4z" style="fill:#fff"/><path d="M48 24c0 .9 0 1.8-.2 2.7H17.3V47c-1.9-.5-3.7-1.3-5.3-2.3v-18H.2C0 25.8 0 24.9 0 24s0-1.8.2-2.7H12V3.2c1.7-1 3.5-1.7 5.3-2.3v20.4h30.5c.2.9.2 1.8.2 2.7z" style="fill:#dc1e35"/></svg>