<svg xmlns="http://www.w3.org/2000/svg" viewBox="0 0 48 48"><path d="M24 0a24 24 0 1 0 24 24A24 24 0 0 0 24 0Z" style="fill-rule:evenodd;fill:#fefefe"/><path d="m5.3 17 5-7.6 1.2.9-5 7.5Zm1.9 1.2 5-7.5 1.2.8-5 7.5ZM9 19.4l5-7.5 1.3.9-5 7.5ZM36.5 37.7l2.3-3.4 1.2.8-2.2 3.5zM39.2 33.7l2.2-3.5 1.3.9-2.3 3.4zM34.6 36.5l2.2-3.4 1.3.8-2.3 3.4zM37.3 32.5l2.3-3.5 1.2.9-2.2 3.4zM32.7 35.3l2.3-3.4 1.3.8-2.3 3.4zM35.4 31.2l2.3-3.4 1.2.8-2.3 3.4zM6.5 30.2l-1.2.9 5 7.5 1.2-.9Zm3.8-2.5-1.3.9 5 7.5 1.3-.9ZM9.9 33.9 11 33l2.3 3.4-1.3.9zM7.2 29.8l1.2-.8 2.3 3.4-1.2.9zM35.9 10.7l-1.3.8 5 7.5 1.2-.8ZM35.5 16.8l1.2-.8 2.3 3.4-1.2.8zM32.8 12.7 34 12l2.3 3.4-1.3.8zM39.2 14.4l1.2-.9 2.3 3.4-1.2.9zM36.5 10.3l1.2-.9 2.3 3.4-1.2.9z"/><path d="M18.8 31.4a9 9 0 0 0 12.6-2.2A4.5 4.5 0 1 0 24 24a4.5 4.5 0 0 1-7.4-5.2 9 9 0 0 0 2.2 12.6Z" style="fill:#cd2e3a;fill-rule:evenodd"/><path d="M17.7 25.1A4.5 4.5 0 0 0 24 24a4.5 4.5 0 1 1 7.4 5.2 9 9 0 0 0-14.8-10.4 4.5 4.5 0 0 0 1.1 6.3Z" style="fill:#0047a0;fill-rule:evenodd"/></svg>