<svg xmlns="http://www.w3.org/2000/svg" xml:space="preserve" id="svg1306" x="0" y="0" style="enable-background:new 0 0 48 48" version="1.1" viewBox="0 0 48 48"><style>.st0,.st1,.st2{fill-rule:evenodd;clip-rule:evenodd;fill:#024fa2}.st1,.st2{fill:#ed1c27}.st2{fill:#fefefe}</style><path d="M6.1 8h35.8A24 24 0 0 0 6.1 8zM41.9 40H6.1a24 24 0 0 0 35.8 0z" class="st0"/><path d="M5 38.7h38a24.1 24.1 0 0 0 0-29.4H5a24.4 24.4 0 0 0 0 29.4z" class="st1"/><path d="M5 9.3h38L41.9 8H6.1L5 9.3zM6.1 40h35.8l1.1-1.3H5L6.1 40zM14.9 13.3a10.7 10.7 0 1 1 0 21.4 10.7 10.7 0 0 1 0-21.4z" class="st2"/><path d="m14.9 13.7 2.3 7.1h7.5l-6.1 4.4 2.3 7.2-6-4.5-6.1 4.5 2.3-7.2L5 20.8h7.5z" class="st1"/></svg>