<svg xmlns="http://www.w3.org/2000/svg" viewBox="0 0 48 48"><defs><style>.a{fill:#bf0a30;}.b{fill:#fff;}.c{fill:#002868;}</style></defs><title>fi_LR</title><circle class="a" cx="24" cy="24" r="24"/><path class="b" d="M42.51,39.27a23.9447,23.9447,0,0,1-4.73,4.37H10.22a23.9447,23.9447,0,0,1-4.73-4.37Z"/><path class="b" d="M47.08,30.55a22.83,22.83,0,0,1-1.71,4.36H2.63A22.83,22.83,0,0,1,.92,30.55Z"/><path class="b" d="M48,24c0,.74-.03,1.46-.1,2.18H.1C.03,25.46,0,24.74,0,24s.03-1.46.1-2.18H47.9C47.97,22.54,48,23.26,48,24Z"/><path class="b" d="M47.08,17.45H.92a22.83,22.83,0,0,1,1.71-4.36H45.37A22.83,22.83,0,0,1,47.08,17.45Z"/><path class="b" d="M42.51,8.73H5.49a23.9447,23.9447,0,0,1,4.73-4.37H37.78A23.9447,23.9447,0,0,1,42.51,8.73Z"/><path class="c" d="M24,0V24H0A24.0062,24.0062,0,0,1,24,0Z"/><polygon class="b" points="15.469 11.682 16.938 16.205 13.091 13.409 9.244 16.205 10.713 11.682 6.865 8.886 11.621 8.886 13.091 4.364 14.561 8.886 19.316 8.886 15.469 11.682"/></svg>