<svg xmlns="http://www.w3.org/2000/svg" viewBox="0 0 48 48"><circle cx="24" cy="24" r="24" fill="#d31624"/><path fill="#fefefe" d="M48 24a23.7 23.7 0 0 1-3.2 12H3.2a24 24 0 0 1 0-24h41.6A23.7 23.7 0 0 1 48 24Z"/><path fill="#008c3e" d="M35.4 30.5a10.8 10.8 0 0 0-1.7-1.1l-.5-.3-.4-.2a3 3 0 0 1-1.3-1 .5.5 0 0 1 0-.2 1 1 0 0 1 .3-.3 2.4 2.4 0 0 1 .4-.2 1.2 1.2 0 0 1 1 .3 2.7 2.7 0 0 0 1 .4 2.1 2.1 0 0 0 1-.1l-.1-.1a5.6 5.6 0 0 1-.4-.3 13.6 13.6 0 0 0-.8-.7 6.5 6.5 0 0 1-.6-.5 4.3 4.3 0 0 1-.4-.3 6.3 6.3 0 0 1-.4-.5 2.2 2.2 0 0 0-1.5-.6 1 1 0 0 1-.6-.1.3.3 0 0 1 0-.2 1 1 0 0 1 .5-.2h.1a9.7 9.7 0 0 1 1.1-.1h.2a3.6 3.6 0 0 0 .4 0h.2a2.5 2.5 0 0 0 .5-.1H33.7a1.7 1.7 0 0 0 .2-.1.2.2 0 0 0 .1-.1.1.1 0 0 0 0-.1l-1-.4H33l-.4-.2h-.1l-.8-.2h-.1l-.4-.2H31a1 1 0 0 1-.7-.3.3.3 0 0 1 0-.2.3.3 0 0 1 .3-.1 5.2 5.2 0 0 1 .9 0l.8.2a3 3 0 0 0 .7 0 .2.2 0 0 0 .2 0v-.2H33a2 2 0 0 0-.6-.5 17 17 0 0 1-.7-.4 10.7 10.7 0 0 1-1.8-1.3 10.6 10.6 0 0 0-1-.9h-.1a3.9 3.9 0 0 0-.7-.4l-.3-.2s-.2-.1-.2-.3a.3.3 0 0 1 0-.2.6.6 0 0 1 .4-.1 1.6 1.6 0 0 1 .9.2 2 2 0 0 0 .3.1h.1a2.5 2.5 0 0 0 .7.1h.9-.2a7.1 7.1 0 0 1-1.6-1c-.3-.2-.7-.4-.8-.8h1.5l-.1-.1-.3-.2-.1-.1-.3-.2-.8-.6a4.6 4.6 0 0 0-.9-.5 3.4 3.4 0 0 0-.5-.2l-.5-.1H26a2 2 0 0 1-.7-.3 3 3 0 0 1-.8-.8 4.5 4.5 0 0 1-.7-1.2c0-.1 0-.2-.2-.2a4.7 4.7 0 0 1-1.2 1.7c-.1 0-.2 0-.3.2l-.2.1h-.1a5.5 5.5 0 0 0-.5.5l-.1.1a2.4 2.4 0 0 0-.6.7.6.6 0 0 0 .2 0h.1l.5-.2a1 1 0 0 1 .5-.1v.1a3.1 3.1 0 0 1-1.4 1 2.7 2.7 0 0 0-.4.2 2.8 2.8 0 0 0-.9.8h.2a1 1 0 0 0 .3 0 .3.3 0 0 1 .1 0 .8.8 0 0 1 .2 0 .2.2 0 0 1 .2.2.6.6 0 0 1 0 .4.6.6 0 0 1-.4.2 1 1 0 0 0-.4 0 1.4 1.4 0 0 0-.7.8 2.1 2.1 0 0 1-1.2.9l-.6.3-.1.1a6 6 0 0 0-1 .7.3.3 0 0 0-.1.3.5.5 0 0 0 .3.2H16.4a3.6 3.6 0 0 0 1.2-.3.4.4 0 0 1 .3 0 .6.6 0 0 1 .2.3 2 2 0 0 1 .2.3.8.8 0 0 1-.1.6 8.8 8.8 0 0 0-.4.5 2.9 2.9 0 0 1-.4.4 1.6 1.6 0 0 1-.8.4 2.2 2.2 0 0 0-.4 0v.1a3 3 0 0 0-1 .7l-.1.2-.3.3h-.1a4.4 4.4 0 0 1-.5.5 1 1 0 0 1-.3.1.4.4 0 0 0 0 .2 1.2 1.2 0 0 0 .6.3 1.7 1.7 0 0 0 1.2-.4l.3-.2h.1a.7.7 0 0 1 .4-.3.5.5 0 0 1 .3.3 1 1 0 0 1 .3.7 1 1 0 0 1-.5.5l-.6.3a8.2 8.2 0 0 0-1.5 1l-.1.1a6.4 6.4 0 0 0-.6.6 1.9 1.9 0 0 1-1.3.8H12l.2.2a1 1 0 0 0 .6.3l1-.2h.1a8.6 8.6 0 0 0 2.2-1 4.7 4.7 0 0 1 .4-.2 1.4 1.4 0 0 1 1.1 0 .5.5 0 0 1 .3.2.4.4 0 0 1 0 .2 6.1 6.1 0 0 1-3.1 1.6 8.4 8.4 0 0 0-1.4.5.4.4 0 0 0 0 .3 1.4 1.4 0 0 0 .9.3 5.1 5.1 0 0 0 .9 0v-.1a4.5 4.5 0 0 0 1-.3h.3l1.9-.9.4-.1a2.2 2.2 0 0 1 .8-.3 1.7 1.7 0 0 1 1 .4 1.2 1.2 0 0 1 .4 1 4.5 4.5 0 0 1-1.5 2.7 3 3 0 0 1-.8.6h-.1a3.7 3.7 0 0 1-.6.3 4.4 4.4 0 0 0-.7.2 2.2 2.2 0 0 0-1 1.1h.5a.5.5 0 0 1 0-.2 2 2 0 0 1 1.5-.7 3.8 3.8 0 0 0 2.4-1 2.8 2.8 0 0 1 .9-.5 1.2 1.2 0 0 1 .7 0 1 1 0 0 0 .9 0 .8.8 0 0 1 .6 0 .4.4 0 0 1 .1.3v.1a.9.9 0 0 0 .4.5 8.5 8.5 0 0 1 1 .8l.2.2a.4.4 0 0 0 .3 0l-.2-.5a.6.6 0 0 1 0-.4 2.2 2.2 0 0 1 1 0h.2a1.6 1.6 0 0 1 1 .4l.2.2.2.2.3.3a1.5 1.5 0 0 0 .2.2l.9.1a4 4 0 0 0-.8-.9l-.2-.1-.3-.3-.4-.4-.3-.2a3.3 3.3 0 0 1-1-1.3 2 2 0 0 1-.1-.7v-1.6a2 2 0 0 1 0-.6 1 1 0 0 1 .6-.6 1.1 1.1 0 0 1 .6.1l.5.2.2.1a2.6 2.6 0 0 0 1.3.3h2a3.1 3.1 0 0 1 .9.1 5.5 5.5 0 0 1 1.3.7h.2l.5.4a2.6 2.6 0 0 0 .7.4.8.8 0 0 0 .6 0 .4.4 0 0 0 .1-.3 1.5 1.5 0 0 0-.6-.8Zm-15.7-6c0 .3-.2.4-.4.5a3.5 3.5 0 0 1-1.4.4h-.3a.7.7 0 0 1-.2-.3c-.3-.5-.3-.5-.2-.6v-.1h.2a3.2 3.2 0 0 1 2.3 0v.2Zm-.3-3.1a.7.7 0 0 1-.5 0 1.7 1.7 0 0 1-.5-.6.5.5 0 0 1-.1-.4.7.7 0 0 1 .9 0 1.5 1.5 0 0 1 .4.5l.2.3a.8.8 0 0 1-.4.2Zm9 .4a.7.7 0 0 1 .5 0 .6.6 0 0 1 .3.3.7.7 0 0 1 0 .4.5.5 0 0 1-.4.2.7.7 0 0 1-.5-.2l-.2-.2a.8.8 0 0 1 .4-.5Zm-3.8-4.7a.5.5 0 0 1 .6-.1.6.6 0 0 1 .2.2.6.6 0 0 1 0 .1v.2a.7.7 0 0 1-.4 0 .4.4 0 0 1-.4 0 .7.7 0 0 1 0-.4Zm-.3 2.6c0 .2-.2.2-.3.3a.6.6 0 0 1-.5 0 4.6 4.6 0 0 1-.5-.1c1-.5 1-.5 1.3-.4a.2.2 0 0 1 0 .2ZM22.1 18a.8.8 0 0 1 0 .6 1.8 1.8 0 0 1-1 .7h-.2a.1.1 0 0 1-.2-.1.4.4 0 0 1 .1-.3v-.1c.3-.4.8-.9 1.3-.8Zm-1.3-1.3a.5.5 0 0 1 .3 0 .5.5 0 0 1 .3 0c0 .3-.2.4-.4.6l-.3.1V17a.4.4 0 0 1 0-.4ZM21 28a.6.6 0 0 1-.2.3.3.3 0 0 1-.2 0 2 2 0 0 1-.5-1.3 1.6 1.6 0 0 1 0-.2h.2a.7.7 0 0 1 .5.2 1.3 1.3 0 0 1 .2 1Zm0-7.7c-.4.7-.4.7-.7.7a.2.2 0 0 1-.1 0 1.1 1.1 0 0 1-.2-.8.5.5 0 0 1 .4-.2h.4a.4.4 0 0 1 .3 0 .3.3 0 0 1 0 .3Zm.7 3.3a1.2 1.2 0 0 1-.6-.4.4.4 0 0 1 0-.3h.1a1 1 0 0 1 .7.3.4.4 0 0 1 0 .3.3.3 0 0 1-.2.1Zm.7 4.5a.3.3 0 0 1-.2 0 1.6 1.6 0 0 1-.4-.7.6.6 0 0 1 0-.1.6.6 0 0 1 .5.1.5.5 0 0 1 .2.4v.1a.3.3 0 0 1-.1.3Zm.4-10h-.1a.3.3 0 0 1-.1-.3.8.8 0 0 1 .4-.4 3.8 3.8 0 0 1 .3-.2h.1a.7.7 0 0 1 .5-.2.4.4 0 0 1 .2.2.7.7 0 0 1-.1.5 1.4 1.4 0 0 1-.6.3 1.9 1.9 0 0 1-.5 0Zm.3 5.2a.2.2 0 0 1-.1 0 .6.6 0 0 1-.2-.4.4.4 0 0 1 .1-.3.3.3 0 0 1 .2 0 .2.2 0 0 1 .2 0 .6.6 0 0 1 0 .5.4.4 0 0 1-.2.3Zm1 4.3c-.2.1-.2.3-.3.4a1.8 1.8 0 0 1-.3.3 3.3 3.3 0 0 1-.3-1.3h.1a1.7 1.7 0 0 1 1 .2 1.6 1.6 0 0 1-.2.4Zm.7-3.5a.3.3 0 0 1-.2.1.7.7 0 0 1-.5-.2.6.6 0 0 1-.3-.3.9.9 0 0 1 .3-.7.5.5 0 0 1 .4.2l.1.3a.8.8 0 0 1 .2.6Zm.7.1a1 1 0 0 1 0 .2.3.3 0 0 1-.3-.1.5.5 0 0 1-.1-.4.4.4 0 0 1 .1-.3.2.2 0 0 1 .2 0 .7.7 0 0 1 .1.6Zm0-4.1a.8.8 0 0 1-.6.2.4.4 0 0 1-.2 0 .2.2 0 0 1 0-.2c0-.3.4-.7.7-.7a.4.4 0 0 1 .2.2.7.7 0 0 1-.2.5Zm.4-2.3a.4.4 0 0 1 0-.2v-.1a.5.5 0 0 1 .1-.3.6.6 0 0 1 .4-.2h.1a.3.3 0 0 1 .2.1.7.7 0 0 1 0 .5.6.6 0 0 1-.4.2h-.4Zm1 3.1a3.7 3.7 0 0 1-.4-.1l-.4-.2a.4.4 0 0 1 0-.3 1 1 0 0 1 1.5-.3.3.3 0 0 1 0 .3.9.9 0 0 1 0 .5.8.8 0 0 1-.6.1Zm2.5 5.2a.5.5 0 0 1-.1.3 1 1 0 0 1-.8.4h-.2a1 1 0 0 1-.7-.3.2.2 0 0 1 0-.2 1.5 1.5 0 0 1 1.7-.5.4.4 0 0 1 .1.3Zm2 .8-.5.5a1.6 1.6 0 0 1-1-.3 2 2 0 0 1 .9-1 .3.3 0 0 1 .3 0 1 1 0 0 1 .5.4.4.4 0 0 1-.1.4Z"/></svg>