<svg xmlns="http://www.w3.org/2000/svg" viewBox="0 0 48 48"><defs><style>.a{fill:#da2031;}.b{fill:#ffd300;}.c{fill:#0066b2;}</style></defs><title>fi_MN</title><circle class="a" cx="24" cy="24" r="24"/><path class="b" d="M11.05,18.8833a2.3834,2.3834,0,1,1-4.7667,0l0-.042a2.6008,2.6008,0,0,0,4.7658,0Z"/><circle class="b" cx="8.6667" cy="18.2333" r="1.7333"/><path class="b" d="M8.8488,12.6a.52.52,0,0,0-.3132.4494,4.0622,4.0622,0,0,0,.0609.4587c0,.2487-.2573.3306-.2573.6856a2.8528,2.8528,0,0,1,.1127.573.2133.2133,0,1,1-.3512-.1708c.0494-.05.1172-.0691.1168-.2006a.9938.9938,0,0,0-.0856-.2488.5.5,0,0,1,.083-.4249.5475.5475,0,0,0-.2929.3343c-.05.16-.0065.2527-.0754.3859a1.4866,1.4866,0,0,1-.1395.194.8271.8271,0,0,0-.122.347,1.0834,1.0834,0,0,0,2.1667,0,.8254.8254,0,0,0-.1211-.347,1.49,1.49,0,0,1-.14-.194c-.0681-.1332-.0243-.2256-.0746-.3859a.5474.5474,0,0,0-.2928-.3343.5006.5006,0,0,1,.083.4249.9915.9915,0,0,0-.0863.2488c0,.1315.0674.1508.1168.2006a.217.217,0,1,1-.3512.1708c0-.4172.1785-.4438.1785-.7524,0-.4408-.3952-.6494-.3952-.9716a.605.605,0,0,1,.18-.4432Z"/><rect class="b" x="3.9" y="21.7" width="2.1667" height="10.4"/><rect class="b" x="11.2667" y="21.7" width="2.1667" height="10.4"/><polygon class="b" points="6.5 21.7 10.833 21.7 8.667 23 6.5 21.7"/><rect class="b" x="6.5" y="23.4333" width="4.3333" height="0.8667"/><rect class="b" x="6.5" y="29.5" width="4.3333" height="0.8667"/><polygon class="b" points="6.5 30.8 10.833 30.8 8.667 32.1 6.5 30.8"/><path class="b" d="M8.6668,24.7333a2.1669,2.1669,0,0,0-1.0283,4.0742A1.2781,1.2781,0,0,1,8.6668,26.77a1.0184,1.0184,0,0,0,0-2.0367Zm0,1.4517A.4334.4334,0,1,1,9.1,25.7517.4332.4332,0,0,1,8.6668,26.185Z"/><path class="b" d="M9.6955,24.9929A1.2783,1.2783,0,0,1,8.6668,27.03a1.0183,1.0183,0,0,0-.06,2.0349c.02,0,.04.0018.06.0018a2.1668,2.1668,0,0,0,1.0287-4.0738ZM8.6668,28.4817A.4334.4334,0,1,1,9.1,28.0483.4333.4333,0,0,1,8.6668,28.4817Z"/><path class="c" d="M34.67,2.51V45.49a23.9175,23.9175,0,0,1-17.34,1.56V.95A23.9175,23.9175,0,0,1,34.67,2.51Z"/></svg>