<svg xmlns="http://www.w3.org/2000/svg" viewBox="0 0 48 48"><defs><style>.a,.b{fill:#c00;fill-rule:evenodd}.b{fill:#fff}</style></defs><path d="M11.6 3.4h24.7A24.1 24.1 0 0 0 24 0a24.8 24.8 0 0 0-12.4 3.4Z" class="a"/><path d="M7.2 6.9h33.6a20.7 20.7 0 0 0-4.4-3.4H11.6a20.7 20.7 0 0 0-4.4 3.4Z" class="b"/><path d="M4.3 10.3h39.4a23.7 23.7 0 0 0-2.9-3.4H7.2a23.7 23.7 0 0 0-2.9 3.4Z" class="a"/><path d="M2.3 13.7h43.4a23.3 23.3 0 0 0-2-3.4H4.3a38 38 0 0 0-2 3.4Z" class="b"/><path d="M1 17.1h46a34.2 34.2 0 0 0-1.3-3.4H2.3A23.7 23.7 0 0 0 1 17.1Z" class="a"/><path d="M.2 20.6h47.5a18.7 18.7 0 0 0-.8-3.4H1a33.8 33.8 0 0 0-.8 3.4Z" class="b"/><path d="M0 24h48l-.2-3.4H.2L0 24Z" class="a"/><path d="M.2 27.4h47.5a19.4 19.4 0 0 0 .2-3.4H0l.2 3.4Z" class="b"/><path d="M1 30.9h46l.8-3.4H.2l.8 3.4Z" class="a"/><path d="M2.3 34.3h43.4a19.9 19.9 0 0 0 1.3-3.4H1a23.7 23.7 0 0 0 1.3 3.4Z" class="b"/><path d="M4.3 37.7h39.4a23.3 23.3 0 0 0 2-3.4H2.3a23.3 23.3 0 0 0 2 3.4Z" class="a"/><path d="M7.2 41.1h33.6a23.7 23.7 0 0 0 2.9-3.4H4.3a23.7 23.7 0 0 0 2.9 3.4Z" class="b"/><path d="M11.6 44.6h24.7a24.6 24.6 0 0 0 4.4-3.4H7.2a30.2 30.2 0 0 0 4.4 3.4Z" class="a"/><path d="M36.4 44.6H11.6A24.8 24.8 0 0 0 24 48a24.8 24.8 0 0 0 12.4-3.4Z" class="b"/><path d="M.2 27.4h30.6V1a26.1 26.1 0 0 0-6.9-1A24 24 0 0 0 0 24l.2 3.4Z" style="fill:#006;fill-rule:evenodd"/><path d="m22.7 8.3.6 4.1L25.6 9l-1.2 4 3.6-2.2-2.9 3 4.1-.3-3.8 1.5 3.8 1.5-4-.3 2.8 3-3.6-2.1 1.2 3.9-2.3-3.4-.6 4-.5-4-2.3 3.4 1.2-4-3.6 2.2 2.8-3-4 .3L20 15l-3.9-1.5 4.1.3-2.8-3 3.6 2.1-1.2-4 2.3 3.5Zm-3.3.2a7.1 7.1 0 1 0 0 13 8 8 0 1 1 0-13Z" style="fill:#fc0"/></svg>