<svg xmlns="http://www.w3.org/2000/svg" viewBox="0 0 48 48"><defs><style>.b{fill:#ffd300}</style></defs><circle cx="24" cy="24" r="24" fill="#da2031"/><path d="M11 18.9a2.4 2.4 0 1 1-4.7 0 2.6 2.6 0 0 0 4.7 0Z" class="b"/><circle cx="8.7" cy="18.2" r="1.7" class="b"/><path d="M8.8 12.6a.5.5 0 0 0-.3.4 4 4 0 0 0 .1.5c0 .3-.3.3-.3.7a2.9 2.9 0 0 1 .2.6.2.2 0 1 1-.4-.2l.1-.2a1 1 0 0 0 0-.3.5.5 0 0 1 0-.4.5.5 0 0 0-.3.4v.3a1.5 1.5 0 0 1-.2.2.8.8 0 0 0-.1.4 1 1 0 0 0 2.2 0 .8.8 0 0 0-.2-.4 1.5 1.5 0 0 1-.1-.2v-.3a.5.5 0 0 0-.4-.4.5.5 0 0 1 .1.4 1 1 0 0 0 0 .3v.2a.2.2 0 1 1-.3.2c0-.5.2-.5.2-.8 0-.4-.4-.6-.4-1a.6.6 0 0 1 .1-.4ZM3.9 21.7h2.2v10.4H3.9zM11.3 21.7h2.2v10.4h-2.2zM6.5 21.7h4.3L8.7 23l-2.2-1.3zM6.5 23.4h4.3v.9H6.5zM6.5 29.5h4.3v.9H6.5zM6.5 30.8h4.3l-2.1 1.3-2.2-1.3zM8.7 24.7a2.2 2.2 0 0 0-1 4.1 1.3 1.3 0 0 1 1-2 1 1 0 0 0 0-2Zm0 1.5a.4.4 0 1 1 .4-.4.4.4 0 0 1-.4.4Z" class="b"/><path d="M9.7 25a1.3 1.3 0 0 1-1 2 1 1 0 0 0 0 2 2.2 2.2 0 0 0 1-4Zm-1 3.5A.4.4 0 1 1 9 28a.4.4 0 0 1-.4.5Z" class="b"/><path fill="#0066b2" d="M34.7 2.5v43A24 24 0 0 1 17.3 47V1a24 24 0 0 1 17.4 1.5Z"/></svg>