<svg xmlns="http://www.w3.org/2000/svg" viewBox="0 0 48 48"><defs><style>.a{fill:#fff}.b{fill:#cf142b}</style></defs><circle cx="24" cy="24" r="24" class="a"/><path d="M48 24a24 24 0 0 1-24 24V0a24 24 0 0 1 24 24ZM15 19.4h-4v-3.3a1.3 1.3 0 0 1-1-1V15H6.5v-4h3.3a1.3 1.3 0 0 1 1-1h.1V6.5h4v3.3a1.3 1.3 0 0 1 1 1v.1h3.4v4h-3.3a1.3 1.3 0 0 1-1 1H15Zm-3.6-.4h3.2v-3.4h.2a.7.7 0 0 0 .2 0 .8.8 0 0 0 .6-.8v-.2H19v-3.2h-3.4v-.2a.7.7 0 0 0 0-.2.8.8 0 0 0-.8-.6h-.2V7h-3.2v3.4h-.2a.7.7 0 0 0-.2 0 .8.8 0 0 0-.6.8v.2H7v3.2h3.4v.2a.7.7 0 0 0 0 .2.8.8 0 0 0 .8.6h.2Z" class="b"/><path d="M14.8 10.2a1 1 0 0 1 1 .8.9.9 0 0 1 0 .2v3.6a1 1 0 0 1-.8 1 .9.9 0 0 1-.2 0h-3.6a1 1 0 0 1-1-.8.9.9 0 0 1 0-.2v-3.6a1 1 0 0 1 .8-1 .9.9 0 0 1 .2 0Z" class="a"/><path d="M11.2 6.8h3.6v12.4h-3.6Zm-4.4 4.4h12.4v3.6H6.8Z" class="a"/><path d="M14.8 19.2h-3.6v-4.4H6.8v-3.6h4.4V6.8h3.6v4.4h4.4v3.6h-4.4Zm-3.5 0h3.4v-4.4h-3.4Zm3.5-4.5h4.4v-3.4h-4.4Zm-3.5 0h3.4v-3.4h-3.4Zm-4.5 0h4.4v-3.4H6.8Zm4.5-3.5h3.4V6.8h-3.4Z"/><path d="M11.4 7h3.2v12h-3.2ZM7 11.4h12v3.2H7Z" class="a"/><path d="M14.6 19h-3.2v-4.4H7v-3.2h4.4V7h3.2v4.4H19v3.2h-4.4Zm-3.1 0h3v-4.4h-3Zm3.1-4.5H19v-3h-4.4Zm-3.1 0h3v-3h-3Zm-4.5 0h4.4v-3H7Zm4.5-3.1h3V7h-3Z"/><circle cx="13" cy="13" r="2.8" class="a"/><path d="M13 15.8a2.8 2.8 0 1 1 2.8-2.8 2.8 2.8 0 0 1-2.8 2.8Zm0-5.5a2.7 2.7 0 1 0 2.7 2.7 2.7 2.7 0 0 0-2.7-2.7Z"/><circle cx="13" cy="13" r="2.1" class="a"/><path d="M13 15.1a2.1 2.1 0 1 1 2.1-2.1 2.1 2.1 0 0 1-2.1 2.1Zm0-4.1a2 2 0 1 0 2 2 2 2 0 0 0-2-2Z"/><path d="M15.7 10.8a3 3 0 0 0-.4.4h-.1a4.6 4.6 0 0 0 .4-.5Zm-.1-.2a3.4 3.4 0 0 0-.7.3 1.6 1.6 0 0 0 .1-.6h.1a1.7 1.7 0 0 0 0 .4 1.7 1.7 0 0 0 .4-.2Z" class="a"/><path d="M15.3 11.2h-.1V11a4.6 4.6 0 0 0 .4-.4h.1a3 3 0 0 0-.4.5Zm0 0a3.2 3.2 0 0 1 .4-.4 4.9 4.9 0 0 1-.5.3Zm-.4-.3v-.1a1.6 1.6 0 0 0 .1-.5h.1a1.6 1.6 0 0 0 0 .4 1.7 1.7 0 0 0 .4-.2l.1.1a3.4 3.4 0 0 0-.6.3Zm0 0a3.4 3.4 0 0 1 .7-.3 1.9 1.9 0 0 1-.5.1 1.8 1.8 0 0 1 0-.4 1.7 1.7 0 0 1-.2.5Z"/><path d="M15.8 11h-.1a.7.7 0 0 0-.4-.6h-.5a.7.7 0 0 0 .4.7.6.6 0 0 0 .3 0h.2l-.2.2a1 1 0 0 1-.8-1 .8.8 0 0 1 0-.1 1 1 0 0 1 1 .7 1 1 0 0 1 .1.1Z" class="a"/><path d="M15.5 11.3a1 1 0 0 1-.8-1 .9.9 0 0 1 0-.1 1 1 0 0 1 1.1.7 1 1 0 0 1 0 .1h-.1a.7.7 0 0 0-.4-.6.4.4 0 0 0-.4 0 .7.7 0 0 0 .3.6.6.6 0 0 0 .3.1h.2l-.1.2Zm-.8-1.1a.8.8 0 0 0 0 .1 1 1 0 0 0 .8 1l.2-.1-.1-.1h-.1a.6.6 0 0 1-.3 0 .7.7 0 0 1-.4-.6.2.2 0 0 1 .1-.2.4.4 0 0 1 .4.1.8.8 0 0 1 .4.6 1 1 0 0 0-1-.8Z"/><path d="M15.2 15.7a3 3 0 0 0-.4-.4v-.1a4.6 4.6 0 0 0 .5.4Zm.2-.1a3.4 3.4 0 0 0-.3-.7 1.6 1.6 0 0 0 .6.1v.1a1.7 1.7 0 0 0-.4 0 1.7 1.7 0 0 0 .2.4Z" class="a"/><path d="M15.2 15.7a3 3 0 0 0-.4-.4v-.1h.1a4.6 4.6 0 0 0 .4.4v.1Zm-.3-.4a3.2 3.2 0 0 1 .3.4 4.8 4.8 0 0 1-.3-.5Zm.5.3a3.4 3.4 0 0 0-.3-.7h.1a1.5 1.5 0 0 0 .5.1v.1a1.6 1.6 0 0 0-.4 0 1.7 1.7 0 0 0 .2.4l-.1.1Zm-.2-.7a3.4 3.4 0 0 1 .2.7 1.9 1.9 0 0 1-.1-.5 1.8 1.8 0 0 1 .4 0 1.7 1.7 0 0 1-.5-.2Z"/><path d="M15 15.8v-.1a.7.7 0 0 0 .6-.4v-.5a.7.7 0 0 0-.7.4.6.6 0 0 0 0 .3v.2l-.2-.2a1 1 0 0 1 1-.8.8.8 0 0 1 .1 0 1 1 0 0 1-.7 1 1 1 0 0 1-.1.1Z" class="a"/><path d="M15 15.8v-.1a.7.7 0 0 0 .6-.4.4.4 0 0 0 0-.4.7.7 0 0 0-.6.3.6.6 0 0 0-.1.3v.2l-.2-.1a1 1 0 0 1 1-1 .9.9 0 0 1 .1 0v.1a1 1 0 0 1-.7 1.1 1 1 0 0 1-.1 0Zm0-.1a1 1 0 0 0 .8-1 .8.8 0 0 0-.1 0 1 1 0 0 0-1 .8l.1.2.1-.1v-.1a.6.6 0 0 1 0-.3.7.7 0 0 1 .6-.4.2.2 0 0 1 .2.1.4.4 0 0 1-.1.4.8.8 0 0 1-.6.4Z"/><path d="M10.3 15.2a3 3 0 0 0 .4-.4h.1a4.6 4.6 0 0 0-.4.5Zm.1.2a3.4 3.4 0 0 0 .7-.3 1.6 1.6 0 0 0-.1.6h-.1a1.7 1.7 0 0 0 0-.4 1.7 1.7 0 0 0-.4.2Z" class="a"/><path d="M11 15.8h-.1v-.1a1.6 1.6 0 0 0 0-.4 1.7 1.7 0 0 0-.4.2l-.1-.1a3.4 3.4 0 0 0 .7-.3v.1a1.6 1.6 0 0 0-.1.5Zm-.1-.1a1.7 1.7 0 0 1 .2-.5 3.4 3.4 0 0 1-.7.2 1.9 1.9 0 0 1 .5-.1 1.8 1.8 0 0 1 0 .4Zm-.5-.4h-.1a3 3 0 0 0 .4-.5h.1v.1a4.6 4.6 0 0 0-.4.4Zm0 0a4.8 4.8 0 0 1 .4-.4 3.2 3.2 0 0 1-.5.3Z"/><path d="M10.2 15h.1a.7.7 0 0 0 .4.6h.5a.7.7 0 0 0-.4-.7.6.6 0 0 0-.3 0h-.2l.2-.2a1 1 0 0 1 .8 1 .8.8 0 0 1 0 .1 1 1 0 0 1-1-.7 1 1 0 0 1-.1-.1Z" class="a"/><path d="M11.2 15.8a1 1 0 0 1-1-.7 1 1 0 0 1 0-.1h.1a.7.7 0 0 0 .4.6.4.4 0 0 0 .4 0 .7.7 0 0 0-.3-.6.6.6 0 0 0-.3-.1h-.2l.1-.2a1 1 0 0 1 1 1 .9.9 0 0 1 0 .1h-.1a.9.9 0 0 1-.1 0Zm-1-.8a1 1 0 0 0 1 .8.8.8 0 0 0 0-.1 1 1 0 0 0-.7-1l-.2.1.1.1h.1a.6.6 0 0 1 .3 0 .7.7 0 0 1 .4.6.2.2 0 0 1-.1.2.4.4 0 0 1-.4-.1.8.8 0 0 1-.4-.6Z"/><path d="M10.8 10.3a3 3 0 0 0 .4.4v.1a4.6 4.6 0 0 0-.5-.4Zm-.2.1a3.4 3.4 0 0 0 .3.7 1.6 1.6 0 0 0-.6-.1v-.1a1.7 1.7 0 0 0 .4 0 1.7 1.7 0 0 0-.2-.4Z" class="a"/><path d="M10.8 11.1a1.5 1.5 0 0 0-.5-.1v-.1a1.6 1.6 0 0 0 .4 0 1.7 1.7 0 0 0-.2-.4l.1-.1a3.4 3.4 0 0 0 .3.6v.1Zm-.5-.2a1.7 1.7 0 0 1 .5.2 3.5 3.5 0 0 1-.2-.7 1.9 1.9 0 0 1 .1.5 1.8 1.8 0 0 1-.4 0Zm.8 0a4.6 4.6 0 0 0-.4-.5v-.1a3 3 0 0 0 .5.4v.1Zm-.4-.5a4.8 4.8 0 0 1 .4.4 3.2 3.2 0 0 1-.3-.5Z"/><path d="M11 10.2v.1a.7.7 0 0 0-.6.4v.5a.7.7 0 0 0 .7-.4.6.6 0 0 0 0-.3v-.2l.2.2a1 1 0 0 1-1 .8.8.8 0 0 1-.1 0 1 1 0 0 1 .7-1 1 1 0 0 1 .1-.1Z" class="a"/><path d="M10.3 11.3a.9.9 0 0 1-.1 0 1 1 0 0 1 .7-1.1 1 1 0 0 1 .1 0v.1a.7.7 0 0 0-.6.4.4.4 0 0 0 0 .4.7.7 0 0 0 .6-.3.6.6 0 0 0 .1-.3v-.2l.2.1a1 1 0 0 1-1 1Zm-.1 0a.8.8 0 0 0 .1 0 1 1 0 0 0 1-.8l-.1-.2-.1.1v.1a.6.6 0 0 1 0 .3.7.7 0 0 1-.6.4.2.2 0 0 1-.2-.1.4.4 0 0 1 .1-.4.8.8 0 0 1 .6-.4 1 1 0 0 0-.8 1Z"/><path d="M10.8 14.6a1.5 1.5 0 0 0-.2-.3.6.6 0 0 0 .2.1h.1a.5.5 0 0 0 0-.2.3.3 0 0 0 .1.1.8.8 0 0 0 .2-.1 1.8 1.8 0 0 0-.4.4Zm-.2-1.4a.3.3 0 0 0-.2.4.3.3 0 0 0 .3.2.3.3 0 0 0 .2-.3.3.3 0 0 0-.3-.3Zm0 .1a.2.2 0 1 1 0 .4.2.2 0 1 1 0-.4Zm.3-1a1 1 0 0 1-.3.3.1.1 0 0 0 0-.1.2.2 0 0 0-.2 0 2.4 2.4 0 0 0 0 .3 1.9 1.9 0 0 1 .5 0 .7.7 0 0 1-.3 0l.2-.2.1-.2Zm-.3.5a.9.9 0 0 1-.2 0l.1-.2.1.2Zm.6-1.6-.3.2a.2.2 0 0 0 .1.2.2.2 0 0 0 .2 0h.2l-.2-.2.1-.1a.4.4 0 0 0 .2.1.4.4 0 0 1-.2.3.3.3 0 0 1-.4-.4l.2-.2Zm.6-.6v.4a.7.7 0 0 1 0 .3V11h.5a1.2 1.2 0 0 1-.2-.1Zm0 .2h.2l-.2.2Zm.9-.5a1.3 1.3 0 0 0 0 .5h.3a2.5 2.5 0 0 0-.4 0 1.4 1.4 0 0 0 0-.4Zm1 .1a1.2 1.2 0 0 0-.2.4h.3v.2a2.6 2.6 0 0 0-.4-.1 1.5 1.5 0 0 0 0-.5Zm.9.4-.4.2a.7.7 0 0 1-.2.1h.2l.2.1V11.5a1.3 1.3 0 0 1 .1-.3Zm-.1.1v.3l-.2-.2Zm.2.8a2 2 0 0 0 .5-.3l-.1.6a1.2 1.2 0 0 0 .3-.2v.1a1 1 0 0 0-.5.2l.1-.5-.3.1Zm.8.8v-.1a1.8 1.8 0 0 1 .2.4h-.1v-.2a1 1 0 0 0-.5 0 1.3 1.3 0 0 0 .4-.1Zm-.4 1.2a1 1 0 0 1 .3-.3.1.1 0 0 0 0 .1.2.2 0 0 0 .2 0 2.3 2.3 0 0 0 0-.3 2 2 0 0 1-.5 0 .7.7 0 0 1 .3 0v.1l-.2.1-.2.2Zm.3-.4a.9.9 0 0 1 .2 0l-.1.2-.1-.2Zm-.5.7v.1a.4.4 0 0 1 .1.1 1 1 0 0 1 .1.4l.2-.2-.2-.2a.4.4 0 0 1 .3 0V14a1 1 0 0 1-.3.1l-.2-.1Z"/><circle cx="14.3" cy="15" r=".1"/><circle cx="11.7" cy="15" r=".1"/><path d="M13.2 15.6H13c0 .1 0 0-.1 0h-.2v-.4c0-.1 0 0 .1 0h.1c.1 0 0 0 0 0h.2v.4Zm-.3 0h.1c.1 0 0 0 0 0 .1 0 0 0 0 0h.2v-.4H12.8s-.1 0 0 .1 0 0-.1 0v.2h.1Z"/><path d="m13 15.6-.1-.1v-.2h.1c.1 0 0 0 0 0h.1v.2H13Zm0-.1h.1v-.1l-.1-.1c-.1 0 0 0 0 0h-.1v.2h.1ZM14.4 14.5h-2.8 2.8ZM13.1 13.4a.6.6 0 0 1 0-.2.6.6 0 0 0 0 .2Zm-.1 0a.3.3 0 0 0-.1-.2.3.3 0 0 1 0 .2Zm0-1.3a.5.5 0 0 0-.1-.1Z"/><path d="M13.5 14.5h-.1a.3.3 0 0 1-.1.1 2 2 0 0 1-.4 0v-.1l.1-.2a.4.4 0 0 1-.3-.1h-.2l-.1.3a.1.1 0 0 0-.1 0h.2v.3H12.2l.2-.1c0-.1-.1 0-.2 0 0-.1-.1-.1 0-.2l.1-.2a.2.2 0 0 1 .1-.2h.4a.8.8 0 0 1 .3-.1 5.6 5.6 0 0 1 .8-.1.3.3 0 0 1 .1-.3h.3l-.1-.1a.1.1 0 0 1 0-.2l.1.1v-.1a.4.4 0 0 1 .1-.1l.2.2a.6.6 0 0 0 .2.3h-.2l-.2.2c-.2 0-.2-.2-.3-.2l.1.3a.4.4 0 0 0 .3 0 .4.4 0 0 1 .1-.2h.1v.1a.8.8 0 0 0-.1.1l-.1.1v.1l-.1.2-.2-.1c-.1 0-.1.1-.1 0l-.1.1a1.4 1.4 0 0 1-.3 0h-.2Z" class="a"/><path d="M12.2 14.9v-.2h.1a.6.6 0 0 1-.1 0l-.1-.2c0-.1 0-.2.2-.2a.2.2 0 0 1 0-.2.4.4 0 0 1 .4 0 .8.8 0 0 1 .4-.1 2.2 2.2 0 0 0 .2 0 3 3 0 0 1 .6-.2.3.3 0 0 1 0-.1.2.2 0 0 1 0-.2h.3a.2.2 0 0 0 0 .1V13.2l.1.1a.1.1 0 0 1 0-.1.4.4 0 0 1 .1-.1.1.1 0 0 0 .1.1.1.1 0 0 1 .1 0 .2.2 0 0 0 0 .1.6.6 0 0 0 .2.3c0 .1 0 .1 0 0h-.1a.2.2 0 0 0-.2.1.2.2 0 0 1-.1 0 .3.3 0 0 1-.2 0v.2a.3.3 0 0 0 .3 0 .4.4 0 0 1 .1-.2h.2v.1h-.1a.4.4 0 0 1 0 .1h-.1l-.1.1a.2.2 0 0 1 0 .1l-.1.2a.1.1 0 0 1-.1 0 .5.5 0 0 1-.2 0 .3.3 0 0 1-.1 0h-.1a.7.7 0 0 1-.2 0h-.2v.2a.4.4 0 0 1-.2 0 .9.9 0 0 1-.3 0 .1.1 0 0 1-.2 0 .1.1 0 0 1 0-.1v-.1l.2-.1a.4.4 0 0 1-.3-.1h-.2a.2.2 0 0 1 0 .2.2.2 0 0 1-.1 0h-.1l.2.1a.2.2 0 0 1 0 .2.1.1 0 0 1 0 .1.2.2 0 0 1-.1 0h-.1Zm0 0 .1-.1a.2.2 0 0 0 .2 0 .1.1 0 0 0 0-.1.2.2 0 0 0 0-.1h-.2v-.1a.1.1 0 0 0 .2 0 .2.2 0 0 0 0-.2c0-.1.1-.2.2-.1a.4.4 0 0 0 .3 0l-.1.2v.1h.1a1 1 0 0 0 .3 0 .3.3 0 0 0 .1.1v-.1h.3a.7.7 0 0 0 .2 0v-.1h.2a.4.4 0 0 0 .1-.1h.1v.1a.5.5 0 0 0 .2-.1.2.2 0 0 1 0-.1V14a.3.3 0 0 0 .1 0 .2.2 0 0 1 0-.1h.1v-.1a.4.4 0 0 0-.2.1.4.4 0 0 1-.2.2.1.1 0 0 0 0-.1l-.1-.1-.1-.1c0-.1 0 0 .1 0a.3.3 0 0 0 .2 0 .2.2 0 0 0 .1 0 .2.2 0 0 1 .1 0 .2.2 0 0 1 .1 0h.1v-.1a.6.6 0 0 1-.2-.2.3.3 0 0 1 0-.1.2.2 0 0 1-.1-.1.4.4 0 0 0-.2 0v.1a.2.2 0 0 0-.1 0v.1s.1.1 0 .1H14a.3.3 0 0 0 0 .3 2.7 2.7 0 0 0-.7 0 2.2 2.2 0 0 1-.2 0 .8.8 0 0 0-.3.2h-.1a.4.4 0 0 0-.3 0 .2.2 0 0 0 0 .2c-.1 0-.3 0-.3.2v.1a.6.6 0 0 0 .2 0v.2Z"/><path d="M13.8 13.6v.2l.2.1v.1l-.2.2-.1-.1-.2-.1v-.1c0-.1-.1 0-.1 0v-.1c0-.1-.1 0-.2 0a.1.1 0 0 0 0-.2H13a.1.1 0 0 0 0-.1v-.1h.1a2.6 2.6 0 0 1 .4 0l.3.2Z" class="a"/><path d="M13.8 14.2c0-.1 0-.1-.1 0V14a.2.2 0 0 0-.2-.1v-.1h-.1v-.1h-.1a.1.1 0 0 0 0-.2H13v-.1H13v-.1h.1a2.5 2.5 0 0 1 .4 0l.3.2a.1.1 0 0 0 0 .2.3.3 0 0 1 .2.1v.1l-.2.2Zm0-.1s.1-.1.2 0V14a.3.3 0 0 0-.1-.1.1.1 0 0 1-.1-.2l-.2-.2a2.9 2.9 0 0 0-.5-.1.5.5 0 0 0-.2 0h.1a.1.1 0 0 1 0 .2h.2a.1.1 0 0 1 0 .1h.2v.1l.1.1a.2.2 0 0 1 .2.1Zm.2 0ZM13.5 14.5h-.1v-.1a1 1 0 0 0-.1 0 .7.7 0 0 0-.2 0H13c.2 0 .2-.1.3-.2a.4.4 0 0 0-.3-.1.5.5 0 0 1 .3 0 .1.1 0 0 1 0 .2H13a.7.7 0 0 1 .2 0 .3.3 0 0 1 .2 0v.1Zm.6-.1-.2-.1a.7.7 0 0 1-.1 0h.3Zm.1 0v-.1a1 1 0 0 0 .3-.2 1.1 1.1 0 0 1-.3.2ZM14.3 13.5a1.7 1.7 0 0 1-.2-.1 1.7 1.7 0 0 0 .2 0s0 .1 0 0v.1Z"/><path d="M13.7 14.1a1 1 0 0 1 0-.1h.1a1 1 0 0 0-.1.1Zm-.2-.1a1.3 1.3 0 0 1 .3-.1 1.3 1.3 0 0 0-.3 0Zm-.1-.1a1.7 1.7 0 0 1 .3 0 1.8 1.8 0 0 0-.3 0Zm-.2-.1a1.4 1.4 0 0 1 .4 0h.1a1.3 1.3 0 0 0-.5 0Zm.5-.2a1.6 1.6 0 0 0-.7 0 1.6 1.6 0 0 1 .6 0h.1Zm.3 0v-.1a.5.5 0 0 1 0-.2v-.1a.1.1 0 0 1 .1 0 .2.2 0 0 0 0-.1.1.1 0 0 0-.1 0 .4.4 0 0 1-.2.2.6.6 0 0 1-.1 0 .4.4 0 0 0-.2.1.4.4 0 0 1 .2 0 .6.6 0 0 0 .1-.1.4.4 0 0 0 .1-.1V13a.1.1 0 0 1 .2 0v.1a.2.2 0 0 0 0 .1.5.5 0 0 0-.1.2ZM14.3 14.4a.4.4 0 0 0 .1-.1h.1a.5.5 0 0 1-.2 0Zm.2-.4a.2.2 0 0 0 0-.1.2.2 0 0 1 .2 0 .2.2 0 0 0-.1 0Zm0-.3h-.1v-.1a.1.1 0 0 1 .1 0h-.1a.2.2 0 0 1 .2 0 .2.2 0 0 0-.1 0Zm0-.3Zm0 0Zm0 0Zm-.1-.2Z"/><path d="M13 12.4v-.2c0-.1 0 0 0 0v-.4c0-.1 0 0 0 0v-.1c0-.1 0 0 0 0v-.2h.1v-.1" class="a"/><path d="M13 12.4V11.4h.1v-.1.2H13V12.5Z"/><path d="M13 12.4h.1Zm0 0h.1Zm0 0Zm0-.1Zm0 0Zm0 0v-.1Zm0-.1Zm0 0Zm0-.1Zm0 0Zm0-.1Zm0 0Zm0 0v-.1Zm0-.1Zm0 0Zm0-.1Zm.1 0H13h.1Zm0 0-.1-.1h.1Zm0-.1Zm0 0v-.1Zm0 0v-.1Zm0-.1Zm.1 0v-.1Zm0 0v-.2.1Zm0 0v-.2.1Z"/><path d="M13.7 11.8a.7.7 0 0 1-.2 0 .5.5 0 0 0 0 .2.8.8 0 0 1 .3.5 2 2 0 0 1 .4 0 .3.3 0 0 1 .2 0l.3.1a.5.5 0 0 1 .1.2.2.2 0 0 1 0 .2l-.1-.1a.1.1 0 0 1 0-.1l-.2-.1a1 1 0 0 0-.2-.1.2.2 0 0 0-.2 0 1 1 0 0 1-.1.2 1.6 1.6 0 0 1 .2 0 .5.5 0 0 1 .2.2l.4.4h-.2a.5.5 0 0 0 0-.1h-.1a.6.6 0 0 0-.2-.2h-.1a.3.3 0 0 0-.2 0 1.5 1.5 0 0 1-.3 0 3.1 3.1 0 0 1-.4.1H13a.7.7 0 0 1-.2.4v.1a1 1 0 0 0 .3 0h.1a.6.6 0 0 1 .2.1v.1h-.2a.1.1 0 0 1-.1 0h-.5a.1.1 0 0 1 0-.1.3.3 0 0 0 0-.2l-.2.1a.1.1 0 0 0 0 .2 1.9 1.9 0 0 1 .2.3 1.4 1.4 0 0 0 .2.1.4.4 0 0 0 .1.2h-.3a.2.2 0 0 0 0-.1l-.1-.1a1.4 1.4 0 0 0-.2-.3 2.3 2.3 0 0 0-.2-.2.8.8 0 0 0 .2-.3 1.2 1.2 0 0 1-.4-.4.4.4 0 0 1-.2 0 .1.1 0 0 0-.2 0 .1.1 0 0 0 0 .2 1.2 1.2 0 0 1 .2.2c.1 0 0 0 0 .2v.2a.5.5 0 0 0-.2 0c0 .1 0 .1 0 0v-.1a.2.2 0 0 1 0-.2.1.1 0 0 0 0-.2.4.4 0 0 1-.2-.3.2.2 0 0 1 .3-.2.5.5 0 0 0 .3 0 .6.6 0 0 1 .3-.1 1.6 1.6 0 0 1 .4-.2l.5-.2a.8.8 0 0 1 .3-1 1.5 1.5 0 0 1 .1 0 4.1 4.1 0 0 1 .4.2.8.8 0 0 0 .1 0 .1.1 0 0 1 .1.1h-.2l.1.1v.1h-.2Z" class="a"/><path d="M12.5 14.5a.2.2 0 0 0 0-.1l-.1-.1a1.5 1.5 0 0 0-.2-.3 1.5 1.5 0 0 0-.2-.1v-.1a.8.8 0 0 0 .1-.3 1.2 1.2 0 0 1-.3-.4.5.5 0 0 1-.2 0h-.2a.1.1 0 0 0 0 .1 1.2 1.2 0 0 1 .2.2v.3a.2.2 0 0 1 0 .2.4.4 0 0 0-.1.1h-.1v-.2a.2.2 0 0 1 0-.2.1.1 0 0 0 0-.2.4.4 0 0 1-.2-.3.2.2 0 0 1 .1-.2.2.2 0 0 1 .2 0 .5.5 0 0 0 .3 0 .6.6 0 0 1 .2-.1 1.6 1.6 0 0 1 .5-.2l.5-.2c0-.5 0-.8.3-1a.3.3 0 0 0 .1 0 4 4 0 0 1 .4.2.3.3 0 0 0 .1 0 .1.1 0 0 1 .1 0v.2a.3.3 0 0 0-.1 0v.1h-.2a.6.6 0 0 1-.2 0 .8.8 0 0 1 .3.5.3.3 0 0 1 0 .2l.2-.1a.7.7 0 0 1 .2 0 .3.3 0 0 1 .2 0l.3.1a.5.5 0 0 1 .2.2.2.2 0 0 1 0 .2h-.2v-.1a.1.1 0 0 1 0-.1h-.2a1 1 0 0 0-.2-.2.1.1 0 0 0-.1 0 1 1 0 0 1-.2.2 1.5 1.5 0 0 1 .2 0 .5.5 0 0 1 .2.2l.3.3a.1.1 0 0 1 .1.2h-.2a.4.4 0 0 0 0-.2h-.1a.6.6 0 0 0-.2-.2.3.3 0 0 1-.1 0 .2.2 0 0 0-.2 0 1.6 1.6 0 0 1-.3 0 2 2 0 0 1-.3 0v.1a5 5 0 0 1-.5 0 .7.7 0 0 1-.2.4v.1a.8.8 0 0 0 .2 0h.2a.2.2 0 0 1 .1 0 .6.6 0 0 0 0 .1.2.2 0 0 1 .1 0v.1a.2.2 0 0 1 .1 0H13a.1.1 0 0 1-.1 0h-.5a.1.1 0 0 1-.1-.2.1.1 0 0 0-.1.2 1.9 1.9 0 0 1 .3.3 1 1 0 0 0 .1 0v.1a.3.3 0 0 0 .1.1h-.3Zm0-.2a.3.3 0 0 1 0 .1h.3-.1a1 1 0 0 1-.2-.2 1.9 1.9 0 0 0-.2-.3.2.2 0 0 1 0-.2l.1-.1a.3.3 0 0 1 0 .2h.6c0 .1 0 0 0 0h.1a.1.1 0 0 1 0 .2h.3v-.1a.1.1 0 0 0-.1 0 .6.6 0 0 1 0-.1.2.2 0 0 0-.2 0H13a.7.7 0 0 1-.3 0v-.2a.7.7 0 0 0 .2-.3 4.4 4.4 0 0 0 .4-.1h.1a1.9 1.9 0 0 0 .3-.1 1.5 1.5 0 0 0 .3 0 .3.3 0 0 1 .2 0 .1.1 0 0 1 .1 0 .6.6 0 0 1 .2.1h.1a.5.5 0 0 1 0 .2h.2l-.1-.1-.3-.3a.5.5 0 0 0-.2-.1 1.5 1.5 0 0 0-.2 0v-.1a1 1 0 0 0 .1-.2.2.2 0 0 1 .2 0 1 1 0 0 1 .3 0v.1l.1.1.2.1a.2.2 0 0 0 0-.1.5.5 0 0 0-.2-.1l-.3-.2a.3.3 0 0 0-.2 0 .6.6 0 0 0-.2 0 1.3 1.3 0 0 1-.1.1.3.3 0 0 0-.1-.1.8.8 0 0 0-.3-.5.5.5 0 0 1 0-.2.7.7 0 0 0 .1 0H14v-.1a4 4 0 0 0-.5-.2.4.4 0 0 0 0-.1.8.8 0 0 0-.3 1l-.5.2a1.6 1.6 0 0 0-.5.2.6.6 0 0 0-.3.2.5.5 0 0 1-.3 0 .2.2 0 0 0-.2 0 .2.2 0 0 0 0 .1.4.4 0 0 0 0 .3.1.1 0 0 1 0 .2.2.2 0 0 0 0 .2l.1.1v.1a.4.4 0 0 1 .1-.1.2.2 0 0 0 0-.2l.1-.2a1.2 1.2 0 0 0-.2-.2.1.1 0 0 1 0-.2.1.1 0 0 1 .2 0 .4.4 0 0 0 .2 0 1.1 1.1 0 0 0 .4.4.8.8 0 0 1-.2.3.9.9 0 0 1 .2.2 1.4 1.4 0 0 1 .2.3Z"/><path d="M12.4 13.6a.5.5 0 0 0 .3-.3.2.2 0 0 0-.2-.2.2.2 0 0 1 .2.1.5.5 0 0 0 .1 0 .8.8 0 0 1 .1 0 .8.8 0 0 0-.1 0 .5.5 0 0 1-.4.4Zm1.4-.5a.4.4 0 0 1-.1 0 .3.3 0 0 0-.1 0V13a.4.4 0 0 0 .3 0Zm.2-.2a.7.7 0 0 1-.2 0 1 1 0 0 0-.2-.1 1 1 0 0 1 .2 0 .5.5 0 0 0 0-.2.6.6 0 0 1 0 .2.4.4 0 0 0 .2 0Zm-.2-.4a.4.4 0 0 0-.3-.1.4.4 0 0 1 .3 0Zm-.3-.5a.4.4 0 0 1-.2-.4.4.4 0 0 0 .2.4Z"/><path d="m12.7 13.4.1-.1h-.1Zm.8-1.5c-.1 0-.2-.1-.2-.3 0 .2 0 .2.2.2ZM12.5 13.1l-.1-.5.1.5Zm1.4-1.3-.1-.1c-.1 0-.2 0-.2-.2l.2.2Zm.1 0v-.2.1c0 .1 0 0 0 0Z"/><path d="M13.8 11.8a.9.9 0 0 1-.2.2 1.3 1.3 0 0 1-.5.3.1.1 0 0 1-.2-.1V12a.4.4 0 0 1 .2 0H13v.2a.2.2 0 0 0 .1 0 1.3 1.3 0 0 0 .5-.2.9.9 0 0 0 .2-.3Zm-.7.2H13a.2.2 0 0 1 .1 0Zm.4-.4v-.1.1" class="a"/><path d="M13 12.3a.1.1 0 0 1 0-.1.2.2 0 0 1 0-.2.4.4 0 0 1 .1 0H13v.2a.2.2 0 0 0 .1 0 1.3 1.3 0 0 0 .5-.2.9.9 0 0 0 .2-.3.9.9 0 0 1-.2.3 1.3 1.3 0 0 1-.5.3Zm0-.3a.2.2 0 0 0 0 .2.2.2 0 0 0 .1 0 1.3 1.3 0 0 0 .5-.2.9.9 0 0 0 .2-.2.9.9 0 0 1-.2.2 1.3 1.3 0 0 1-.5.2.1.1 0 0 1-.2 0 .1.1 0 0 1 0-.1h.2V12Zm.1 0a.2.2 0 0 0-.1 0h.1Zm0 0Zm.5-.4v-.1c0-.1 0 0-.1 0h.1v.1Z"/><path d="m13.8 11.8-.5-.3.6.3Z"/><path d="M12.6 11.5a1.8 1.8 0 0 1-.4 0l-.3.2s0-.2-.2-.1v.2h-.2v.3s-.1-.1-.2 0 0 .3 0 .4h-.2l.3.1a2.1 2.1 0 0 0 .4 0v-.1c.3-.3.5-.5.8-.5Z" class="a"/><path d="M11.8 12.6a2.3 2.3 0 0 1-.3 0 .7.7 0 0 1-.4-.2h.2a.7.7 0 0 0 0-.2V12h.1l.1.1a.3.3 0 0 0 0-.1v-.2h.1l.1-.2h.2a.4.4 0 0 0 .2 0l.1-.1a1.8 1.8 0 0 0 .4 0v.5c-.3 0-.5.2-.7.5l-.1.1Zm-.3 0a2 2 0 0 0 .3 0v-.1c.3-.3.5-.5.8-.5v-.5a1.9 1.9 0 0 1-.4 0h-.1a.4.4 0 0 1-.2.2l-.2-.1v.2h-.2c-.1 0 0 .1 0 .2v.1h-.2a.7.7 0 0 0 0 .1v.3c-.1 0-.2-.1-.2 0a.7.7 0 0 0 .3 0Z"/><path d="M11.5 12.6a1.5 1.5 0 0 1 .5-.5 1.5 1.5 0 0 0-.5.5Zm-.2-.1a1.9 1.9 0 0 1 .7-.5 1.9 1.9 0 0 0-.7.5Zm-.2 0v-.1l.2-.2-.2.2Zm.4-.4a3.2 3.2 0 0 1 .7-.3 3.2 3.2 0 0 0-.7.3Zm-.2 0 .2-.2-.2.1Zm.4-.3a1.6 1.6 0 0 1 .5 0 1.6 1.6 0 0 0-.5 0Zm-.2 0h.2-.2Zm.4-.1a2.8 2.8 0 0 1 .5 0 2.9 2.9 0 0 0-.4 0Zm-.2-.1h.4-.4Z"/><path d="m13.4 14.8-1.8-.5Zm-1.7-2.4h-.1Zm.2 0-.2.2.2-.1Zm0 .2.4.5V13l-.4-.5Z" class="a"/><path d="m13.4 14.9-1.8-.5v-.1l1.8.5Zm-1.8-.6 1.8.6-1.8-.6Zm.8-1.2h-.1l-.5-.5v-.2h.1v.1l.5.5Zm-.1 0V13l-.4-.5Zm-.4-.6-.2.1h.1l.1-.1Zm-.2 0-.1-.1v-.1a.1.1 0 0 1 .1 0v.1Zm0-.2v.1ZM12.3 13l-.5-.4.5.4z"/><path d="M12.9 11.7a.3.3 0 0 1 .1 0v-.1h.1v-.1l.1-.1h.1v-.2a.3.3 0 0 0-.3 0 .4.4 0 0 0-.2 0 .2.2 0 0 1-.2.1h-.2a.7.7 0 0 0-.2 0v.1a.4.4 0 0 1 .2 0 .3.3 0 0 0 .1 0h.3v.2h-.1a.1.1 0 0 0-.2 0 2.3 2.3 0 0 0-.5.3l-.1.2a1.4 1.4 0 0 0-.1.3.5.5 0 0 0-.2 0v.1H12a.4.4 0 0 1 0-.2l.3-.3.2-.1a.9.9 0 0 0 0 .2v.3a.7.7 0 0 1 0 .2h.1l.2.1a1 1 0 0 0 .2 0 .3.3 0 0 1 .2 0 1 1 0 0 1 .2.3l.1.2a.3.3 0 0 1 0 .1h.1a.6.6 0 0 1 .2.1 1 1 0 0 0 .2 0 .5.5 0 0 1-.2-.2.8.8 0 0 1-.1-.1l-.2-.3-.1-.2c-.1 0 0 0 0 0a2.3 2.3 0 0 0-.3-.1h-.1a.5.5 0 0 1 0-.3s0-.2 0-.2v-.2a1 1 0 0 0 0-.1Zm0 .5V12Z" class="a"/><path d="M13.9 13.5h-.1a.4.4 0 0 0-.1 0 .6.6 0 0 0-.2-.1.3.3 0 0 0 0-.2.4.4 0 0 0-.1 0 .4.4 0 0 1-.2-.2 1 1 0 0 0 0-.2.3.3 0 0 0-.3 0 .8.8 0 0 1-.2 0 .3.3 0 0 1-.2-.1.3.3 0 0 1 0-.1.4.4 0 0 0 0-.2 1.3 1.3 0 0 0 0-.1 1.3 1.3 0 0 1-.1-.2.8.8 0 0 1 0-.2 1.2 1.2 0 0 1-.1 0 .5.5 0 0 0-.1.1l-.2.3a.4.4 0 0 0-.1.1l-.1.2h-.1v-.1a.5.5 0 0 1 0-.2.8.8 0 0 1 .1-.1.8.8 0 0 1 .2-.2 2.2 2.2 0 0 1 .5-.5.1.1 0 0 1 .1 0h.2a.5.5 0 0 1-.1 0 .2.2 0 0 0-.1 0 .3.3 0 0 1-.2 0 .3.3 0 0 0-.1 0v-.1l.1-.1h.2a.2.2 0 0 0 .2 0 .4.4 0 0 1 .2-.2.3.3 0 0 1 .2.1l.1.1v.1h-.1v.1H13v.2H13a.8.8 0 0 1 0 .1v.2a.4.4 0 0 1-.1 0 .2.2 0 0 1 0 .2.3.3 0 0 0 0 .2 2 2 0 0 1 .3.1.1.1 0 0 1 .1.1l.1.2.2.3a.4.4 0 0 0 0 .1.5.5 0 0 0 .2.2h.1Zm-.4-.1a.6.6 0 0 1 .2 0 1 1 0 0 0 .2 0 .5.5 0 0 1-.3-.1.4.4 0 0 1 0-.1l-.2-.3-.1-.3h-.1a1.9 1.9 0 0 0-.2 0l-.2-.2a.3.3 0 0 1 0-.2v-.5h.1a.3.3 0 0 1 .1 0v-.1h.1v-.2l.2-.1a.3.3 0 0 0-.3-.1.3.3 0 0 0-.2 0 .2.2 0 0 1-.2.1h-.1a.1.1 0 0 1-.1 0 .7.7 0 0 0-.2 0v.1a.3.3 0 0 1 .2 0 .3.3 0 0 0 .1 0 .2.2 0 0 1 .2 0v.1h-.2a2.3 2.3 0 0 0-.4.4.6.6 0 0 1-.1.1.7.7 0 0 0 0 .1l-.1.1a.8.8 0 0 0-.1.2.4.4 0 0 0-.2 0v.1H12a.4.4 0 0 1 0-.2l.2-.3h.1a.7.7 0 0 0 .2-.2.9.9 0 0 0 0 .3 1.3 1.3 0 0 0 0 .2v.1a.4.4 0 0 1 .1.2.3.3 0 0 0 .1 0 .4.4 0 0 1 .1 0 .7.7 0 0 0 .2.1.3.3 0 0 1 .2 0 .9.9 0 0 1 .2.3.4.4 0 0 0 0 .1.5.5 0 0 1 .1 0 .3.3 0 0 1 .1.2Zm-.5-1.2Zm-.1 0a.2.2 0 0 0 0-.1Zm.2-.6Z"/><path d="M12.4 11.9v-.1h.1-.1Zm.5-.3v-.1h-.1.1v.1h.1l.1-.1-.2.1Zm-.2-.1.1-.2h.2a.1.1 0 0 1 .1 0h.1a.1.1 0 0 1-.1 0h-.3v.2ZM13.2 12.8a.7.7 0 0 0-.3 0 .8.8 0 0 1-.1-.1.7.7 0 0 1-.1 0 .4.4 0 0 0-.2-.1.4.4 0 0 1 .2 0 .7.7 0 0 0 .2 0 .7.7 0 0 1 .3.1Zm-.3-.3a.5.5 0 0 1-.3-.1.4.4 0 0 0 .3 0Zm-.1-.2h-.2.2Zm-.2 0a.2.2 0 0 1-.1-.1Zm.1-.3a.2.2 0 0 0 .1 0Zm-.1 0a.3.3 0 0 1 0-.1h-.1v-.1a.3.3 0 0 0 .1.2ZM12.9 11.8c-.1 0-.2 0-.3-.3a.5.5 0 0 0 .2.3.5.5 0 0 1-.1-.3.6.6 0 0 0 0 .3.6.6 0 0 1 0-.2c0 .2 0 .2.2.2ZM13.6 13.3l-.1-.2v.1a.2.2 0 0 1 0 .1Zm-.1-.2v.1-.1Z"/><path d="m13.4 13.2.2-.1h-.2Zm0-.1.1-.1h-.2Zm-.1 0 .2-.2-.2.1ZM11.7 12.6v-.1Zm0 0v-.1Zm0-.1Zm1.2-.3Zm0 0Zm0 0Zm.2-.6Z"/></svg>