<svg xmlns="http://www.w3.org/2000/svg" viewBox="0 0 48 48"><defs><style>.a{fill:#cc092f}.d{fill:#ffd200}.e{fill:#b07e5b}</style></defs><circle cx="24" cy="24" r="24" class="a"/><path d="M38 4.5v39A24 24 0 1 1 24 0a23.8 23.8 0 0 1 14 4.5Z" style="fill-rule:evenodd;fill:#ffd200"/><path d="M10 4.5v39a24 24 0 0 1 0-39Z" style="fill:#0046ae;fill-rule:evenodd"/><path d="M21.7 11.6a.6.6 0 0 0-.3 0 .3.3 0 0 1 .2.3v.4h-.4a.3.3 0 0 1-.2-.2.7.7 0 0 0 0 .7.3.3 0 0 1 .2-.2h.4v1.6a.3.3 0 0 1-.2.3c.2 0 .3.3.3.4 0-.1.2-.4.4-.4a.3.3 0 0 1-.2-.3v-1.6h.3a.3.3 0 0 1 .3.2.7.7 0 0 0 0-.7.3.3 0 0 1-.3.2H22v-.4a.3.3 0 0 1 .2-.3.6.6 0 0 0-.4 0Z"/><path d="M21.7 11.6a.7.7 0 0 0-.2 0 .4.4 0 0 1 .2.3v.4h-.5a.4.4 0 0 1-.2 0 .6.6 0 0 0 0 .1.7.7 0 0 0 0 .2.4.4 0 0 1 .2 0h.5v1.6a.4.4 0 0 1-.2.3.6.6 0 0 1 .2.1.7.7 0 0 1 0 .1.7.7 0 0 1 .1 0 .6.6 0 0 1 .1-.2.4.4 0 0 1 0-.3v-1.7h.3a.4.4 0 0 1 .3.1.6.6 0 0 0 0-.2.7.7 0 0 0 0-.2.4.4 0 0 1-.3.2H22v-.5a.4.4 0 0 1 0-.2.6.6 0 0 0-.2 0" class="d"/><path d="M26 17.7a1.8 1.8 0 0 1-.4-.6 3.1 3.1 0 0 1-.5-1.6c0-.3.3-.6.3-.8a3.5 3.5 0 0 0 0-.5l.3.2s0-.5-.2-.6h.3c0-.2-.4-.4-.4-.4a1 1 0 0 1 .4-.2 3 3 0 0 1-.3 0 7.6 7.6 0 0 1-1-.4 2.6 2.6 0 0 0-1.1-.3 1.1 1.1 0 0 0-.6 0l-.2.3a.6.6 0 0 1-.3.1c-.6 0-.6.6-.6.6a.5.5 0 0 1 .4-.2c.4 0 .7.3.7.3h-1a1.4 1.4 0 0 1 1 1.6 3.7 3.7 0 0 1-.4 2 1.9 1.9 0 0 1-.5.5l2.1.3 2-.3Z"/><path d="m24 17.2-2 .5a5 5 0 0 1-1-.4 3 3 0 0 0-1.4-.6v-.5l.1-.8c-.3 0-1-1-1.7-1.4a4 4 0 0 0-1.9 2.3v14.6a1.7 1.7 0 0 1-.1.5 4 4 0 0 0 1.2-1.4v.1a3 3 0 0 0 1.2-1.3v.2c.5-.4 1.2-3 1.2-3l1 1a6.3 6.3 0 0 1-.5 1 1.8 1.8 0 0 0 .2 0l-.8 1.1c-.1.3-.3.2-.5.2a1.4 1.4 0 0 0-.7.4 1 1 0 0 0-.2.5.8.8 0 0 0 .2.3l.5.5a.3.3 0 0 0 .4 0 2.9 2.9 0 0 0 .5-.5c0-.1 0-.3.2-.4l1.1-1.5v.1a5.4 5.4 0 0 1 1-1l1 .4s-1.7 3.7-3.1 4.3l1.4.7.3.1.3-.3 1-1.4a3.8 3.8 0 0 1-.7 1.5l-.2.4.3.2a5 5 0 0 1 1.7 1.5l.2-.5-.2-.5V17.6Z"/><path d="M24 34.1a6 6 0 0 0-1.5-1 7.8 7.8 0 0 0 1-3.9 9 9 0 0 1-.7 1.8 13.6 13.6 0 0 1-1.2 1.7 9.6 9.6 0 0 0-1-.3c1.3-1 2.6-4.2 2.6-4.2l-1.4-.7a7 7 0 0 1-.6.7s0-.3-.1-.4a.8.8 0 0 1-.3.2v-.3a.7.7 0 0 1-.4 0c.2 0 .4-.6.4-.6l-1.3-1.7a7.7 7.7 0 0 1-1 2.6v-9.3l.5.4.6-.6v-.4l-.6.5v-1.3l.2-.3a3.9 3.9 0 0 0 .7 1c0-.3.4-.5.4-.5s.2.3.4.4a2.5 2.5 0 0 1 .4-.4 1.2 1.2 0 0 0-.5.2l-.1-.5s-.5.2-.6.4l-.3-.6a3.5 3.5 0 0 1 .3 0 1.4 1.4 0 0 1 .6.2l.6.3a2.4 2.4 0 0 0 .8.2 3.4 3.4 0 0 1-.4.2 2.9 2.9 0 0 0 1-.2 4.2 4.2 0 0 0 .5-.3 1.7 1.7 0 0 1-.3.5 1.4 1.4 0 0 0 1-.5 1.8 1.8 0 0 0 .3.4h.2v15.9l-.2.4Zm-4.8-18.6v1.1a2 2 0 0 1-.6-.6v-.1a.3.3 0 0 1 .1-.3h-.1a.4.4 0 0 0-.2.2v.1l-.4.5-.4-.7v-.1a.5.5 0 0 1 .2-.3h-.2a.6.6 0 0 0-.1.3l-.5.6-.2-.5a5.8 5.8 0 0 1 1.2-1.2 7.9 7.9 0 0 0 1.2 1Zm-2.4.8v.7l-.3.3v-1a.8.8 0 0 1 0-.4l.3.4Zm1 .3v.4l-.3.4V16l.4.6Zm-.5.8L17 17v-.5l.4-.4Zm1.8-.5a2 2 0 0 1-.6.5v-1.2a2 2 0 0 0 .6.7Zm-.7-.6v1.1L18 17v-.4Zm-1.6 1.2v1.1l-.3-.3v-.5Zm.5.3v.4l-.4.4v-1.1Zm.6-.3v1.1l-.4-.4v-.4Zm.5.3v.4l-.4.4v-1.1l.4.3Zm.5.8-.4-.4V18a1.6 1.6 0 0 0 .4-.4v1.1Zm-1 .5.4-.4v10l-.8 1v-11l.4.4Zm-.6 10.2a2.3 2.3 0 0 1-.8 1.1V18.7l.4.4.4-.4Z" class="e"/><path d="m20.7 28.3.3-.2v.2l-1.2 1.6a1.7 1.7 0 0 0-.2.5s-.1 0-.1-.2V30a.4.4 0 0 1-.3 0s.3-.2.3-.4l-.6.1-.4.2v-.1a1 1 0 0 1 .5-.4h.5l1-1.5a.7.7 0 0 0 .2.4Zm-2 1.6v.2h-.1v-.2h.1Zm.3.1a.1.1 0 0 1 0 .2l-.4.3a.1.1 0 0 1-.1-.2l.3-.3a.1.1 0 0 1 .2 0Zm.1.3a.1.1 0 0 1 0 .1l-.3.3a.1.1 0 0 1-.1 0 .1.1 0 0 1 0-.2l.3-.3a.1.1 0 0 1 .1 0Zm.2.1a.1.1 0 0 1 0 .2l-.3.3a.1.1 0 0 1-.1-.2l.3-.2Z" class="a"/><path d="m24 17.2 2 .5a5 5 0 0 0 1-.4 3 3 0 0 1 1.4-.6v-.5l-.1-.8c.3 0 1-1 1.7-1.4a4 4 0 0 1 1.9 2.3v14.6a1.7 1.7 0 0 0 .1.5 4 4 0 0 1-1.2-1.4v.1a3 3 0 0 1-1.2-1.3v.2c-.5-.4-1.1-3-1.1-3l-1.1 1a6.3 6.3 0 0 0 .5 1 1.8 1.8 0 0 1-.2 0l.8 1.1c.1.3.3.2.5.2a1.4 1.4 0 0 1 .7.4 1 1 0 0 1 .2.5.8.8 0 0 1-.2.3l-.5.5a.3.3 0 0 1-.4 0 2.9 2.9 0 0 1-.5-.5c0-.1 0-.3-.2-.4L27 28.6v.1a5.4 5.4 0 0 0-1-1l-1 .4s1.7 3.7 3.1 4.3l-1.4.7-.3.1-.3-.3-1-1.4a3.8 3.8 0 0 0 .7 1.5l.2.4-.3.2a5 5 0 0 0-1.7 1.5l-.2-.5.2-.5V17.2Z"/><path d="M24 34.1a6 6 0 0 1 1.5-1 7.8 7.8 0 0 1-1-3.9 9 9 0 0 0 .7 1.8 13.6 13.6 0 0 0 1.2 1.7 9.6 9.6 0 0 1 1-.3c-1.3-1-2.6-4.2-2.6-4.2l1.4-.7a7 7 0 0 0 .6.7s0-.3.1-.4a.8.8 0 0 0 .3.2v-.3a.7.7 0 0 0 .4 0c-.2 0-.4-.6-.4-.6l1.3-1.7a7.7 7.7 0 0 0 1 2.6v-9.3l-.5.4-.6-.6v-.4l.6.5v-1.3l-.2-.3a3.9 3.9 0 0 1-.7 1c0-.3-.4-.5-.4-.5s-.2.3-.4.4a2.5 2.5 0 0 0-.4-.4 1.2 1.2 0 0 1 .5.2l.1-.5s.5.2.6.4l.3-.6a3.5 3.5 0 0 0-.3 0 1.4 1.4 0 0 0-.6.2l-.6.3a2.4 2.4 0 0 1-.8.2 3.4 3.4 0 0 0 .4.2 2.9 2.9 0 0 1-1-.2 4.2 4.2 0 0 1-.5-.3 1.7 1.7 0 0 0 .3.5 1.4 1.4 0 0 1-1-.5 1.8 1.8 0 0 1-.3.4h-.2v15.9l.2.4Zm4.8-18.6v1.1a2 2 0 0 0 .6-.6v-.1a.3.3 0 0 0-.1-.3h.1a.4.4 0 0 1 .2.2v.1l.4.5.4-.7v-.1a.5.5 0 0 0-.2-.3h.2a.6.6 0 0 1 .1.3l.5.6.2-.5a5.8 5.8 0 0 0-1.2-1.2 7.9 7.9 0 0 1-1.2 1Zm2.4.8v.7l.3.3v-1a.8.8 0 0 0 0-.4l-.3.4Zm-1 .3v.4l.3.4V16l-.4.6Zm.5.8.4-.4v-.5l-.4-.4Zm-1.8-.5a2 2 0 0 0 .6.5v-1.2a2 2 0 0 1-.6.7Zm.7-.6v1.1l.4-.4v-.4l-.4-.3Zm1.6 1.2v1.1l.3-.3v-.5Zm-.5.3v.4l.4.4v-1.1Zm-.6-.3v1.1l.4-.4v-.4Zm-.5.3v.4l.4.4v-1.1l-.4.3Zm-.5.8.4-.4V18a1.6 1.6 0 0 1-.4-.4v1.1Zm1 .5-.4-.4v10l.8 1v-11l-.4.4Zm.6 10.2a2.3 2.3 0 0 0 .8 1.1V18.7l-.4.4-.4-.4v10.6Z" class="e"/><path d="M27.3 28.3 27 28v.2l1.2 1.6a1.7 1.7 0 0 1 .2.5s.1 0 .1-.2V30a.4.4 0 0 0 .3 0s-.3-.2-.3-.4l.6.1.4.2v-.1a1 1 0 0 0-.5-.4h-.5l-1-1.5a.7.7 0 0 1-.2.4Zm2 1.6v.2h.1v-.2h-.1Zm-.3.1a.1.1 0 0 0 0 .2l.4.3a.1.1 0 0 0 .1-.2l-.3-.3a.1.1 0 0 0-.2 0Zm-.1.3a.1.1 0 0 0 0 .1l.3.3a.1.1 0 0 0 .1 0 .1.1 0 0 0 0-.2l-.3-.3a.1.1 0 0 0-.1 0Zm-.2.1a.1.1 0 0 0 0 .2l.3.3a.1.1 0 0 0 .1-.2l-.3-.2Z" class="a"/><path d="M23.5 12.6a3.4 3.4 0 0 1 1.4.5l.4.2a.4.4 0 0 0-.1.1.5.5 0 0 1 .3.3s-.2 0-.3.1a.3.3 0 0 1 .3.3h-.3a3.8 3.8 0 0 1 0 .6l-.2.8a2.9 2.9 0 0 0 .4 1.7 1.4 1.4 0 0 0 .3.4c-.6-.3-1-.7-1-1v-1.2 1.2a.8.8 0 0 0 0 .4 4.6 4.6 0 0 0 .3.8c-.5-.3-.7-.6-.7-.7v-1.7h-.1v1.8a1 1 0 0 1-.2.2 1 1 0 0 1-.2-.2v-1.8V17s-.3.4-.8.7a4.6 4.6 0 0 0 .3-.8.8.8 0 0 0 0-.4v-1.2 1.2c0 .3-.4.7-1 1a1.4 1.4 0 0 0 .3-.4 3.4 3.4 0 0 0 .4-2 2.1 2.1 0 0 0-.2-1c0-.1 0-.3.2-.3s.5.3.5.3a.5.5 0 0 0-.2-.4.2.2 0 0 1 0-.1.3.3 0 0 1 0-.2c.1 0-.5 0-.5-.4h.2l.7.1h.4l.8.4c-.2-.1-.4-.5-.9-.5h-.4l-.5-.2h-.3v-.1l.4-.2H23.5Z" class="e"/><path d="M21.8 13.3a.5.5 0 0 1 .4-.2h.5c0 .1.3.3.3.6a1 1 0 0 0-1-.5.7.7 0 0 0-.2.1Zm1 .5a1.1 1.1 0 0 0 0 .2 1.7 1.7 0 0 1-.5-.3 1 1 0 0 0 .6 0Z" class="a"/><path d="m22.7 13.4-.2-.2h.1a.3.3 0 0 1 0 .2Z"/><circle cx="23.4" cy="13.4" r=".3"/><circle cx="23.4" cy="13.4" r=".2" class="d"/><circle cx="23.4" cy="13.4" r=".1"/><path d="m19.6 30.6.7.4-.2.9-.7-.4Z"/><path d="m16 22.5-.2.2 3 6.7h.4Zm3.7 8-.2.2.1.3.3-.1Z"/><path d="M17 27.9s.3.5.5.6a1.3 1.3 0 0 0-.5 0 2.3 2.3 0 0 0 1.1.6.8.8 0 0 0 .6-.2v-.4a1.7 1.7 0 0 0-.7-.5 4.4 4.4 0 0 0-1-.1Zm2-1a1.6 1.6 0 0 0-.5.7 1.4 1.4 0 0 0 0 .7l.4.6a1.6 1.6 0 0 0 .6-.6 1.5 1.5 0 0 0 0-.8 1.8 1.8 0 0 0-.3.2 1.4 1.4 0 0 0-.2-.8Zm-1.2-.1a2.4 2.4 0 0 1-.8 0 1.2 1.2 0 0 1-.7-.3s.3-.2.5-.2c-.2 0-.4-.4-.4-.4a1.2 1.2 0 0 1 .6 0 1.7 1.7 0 0 1 .6.4l.2.5Zm.2-2 .1.5a1.4 1.4 0 0 1 .3-.2 2.7 2.7 0 0 1 0 1 1 1 0 0 1-.5.7l-.5-1a1 1 0 0 1 0-.5 1.9 1.9 0 0 1 .6-.5Zm-2.7-1.2a2 2 0 0 1 .8.2.8.8 0 0 1 .5.4l.2.4a1.4 1.4 0 0 1-1 0 1.6 1.6 0 0 1-.6-.5.8.8 0 0 1 .4-.1l-.3-.4Zm1.4-.8a1 1 0 0 1 .2.6 1 1 0 0 1 .3-.4 2.5 2.5 0 0 1 .2 1 1 1 0 0 1-.4.7l-.5-.8a1.4 1.4 0 0 1 0-.6.9.9 0 0 1 .2-.5Zm-1.5-1.6a1.4 1.4 0 0 0 0 .7.8.8 0 0 0 .2.3 1.3 1.3 0 0 0-.6-.1 1.5 1.5 0 0 0 .5.7 1.2 1.2 0 0 0 .7.2 1.5 1.5 0 0 0 .3-.9 2 2 0 0 0-.4-.9 1.6 1.6 0 0 0-.1.5l-.6-.5Zm3.6 7.7v.2h.4a.2.2 0 0 0 .2.1.2.2 0 0 0 .1-.3.2.2 0 0 0-.2-.1H19a1.1 1.1 0 0 1-.3.1Z"/><path d="M18.7 28.8h.2l-.2.4a.2.2 0 0 1 0 .3.2.2 0 0 1-.4 0 .2.2 0 0 1 0-.3l.2-.1a1.1 1.1 0 0 0 .2-.3Zm-.9-2v.2h.4a.2.2 0 0 0 .3.1.2.2 0 0 0 0-.3.2.2 0 0 0-.2-.1h-.1a1.1 1.1 0 0 1-.4.1Z"/><path d="M17.9 26.9v.1l-.1.3a.2.2 0 0 1-.2.3.2.2 0 0 1-.3-.1.2.2 0 0 1 .1-.3.6.6 0 0 1 .2 0 1.1 1.1 0 0 0 .3-.3Zm-1-2v.1l.4.1a.2.2 0 0 0 .2 0 .2.2 0 0 0 .2-.2.2.2 0 0 0-.3-.2l-.1.1a1.1 1.1 0 0 1-.4 0Z"/><path d="M17 24.8v.2c-.1.2-.2.2-.1.3a.2.2 0 0 1-.2.2.2.2 0 0 1-.3 0 .2.2 0 0 1 .1-.4.6.6 0 0 1 .2 0 1.1 1.1 0 0 0 .3-.3Zm-1.1-2v.2h.4a.2.2 0 0 0 .3.1.2.2 0 0 0 0-.3.2.2 0 0 0-.2-.1h-.1a1.1 1.1 0 0 1-.4.1Z"/><path d="m16 22.8-.1.4a.2.2 0 0 1-.1.3.2.2 0 0 1-.3-.1.2.2 0 0 1 0-.3.6.6 0 0 1 .2 0 1.1 1.1 0 0 0 .3-.3Z"/><path d="m19.7 30.9.5.2-.2.5-.4-.2Zm-2-4.6c-.2 0-.3-.3-.4-.6l-.3-.6s.2.1.3.4l.3.8Zm-1-2.2c-.2 0-.3-.3-.4-.5l-.1-.4.2.3c.1.2.3.5.2.6Zm2.3 5a5.3 5.3 0 0 1-.7-1.2 3.3 3.3 0 0 1-.4-1 4.6 4.6 0 0 1 .5 1 7 7 0 0 1 .6 1.3Z" class="d"/><circle cx="19.3" cy="29" r=".1" class="d"/><circle cx="18.5" cy="29.3" r=".1" class="d"/><circle cx="18.4" cy="26.9" r=".1" class="d"/><circle cx="17.5" cy="27.4" r=".1" class="d"/><circle cx="17.5" cy="25" r=".1" class="d"/><circle cx="16.6" cy="25.3" r=".1" class="d"/><circle cx="16.5" cy="22.9" r=".1" class="d"/><circle cx="15.7" cy="23.3" r=".1" class="d"/><path d="M15.3 21.5a1.2 1.2 0 0 0 .1.5.7.7 0 0 0 .4.3 1.2 1.2 0 0 0-.1-.5.7.7 0 0 0-.4-.3Zm-.2.7a1 1 0 0 1 .4.2.8.8 0 0 1 .3.4.6.6 0 0 1-.4-.1 1.7 1.7 0 0 1-.3-.5Zm.9-.6a1.2 1.2 0 0 0-.1.4 1.5 1.5 0 0 0 .1.5 1.4 1.4 0 0 0 .2-.5.9.9 0 0 0-.2-.4Zm-.5 2.1a1.1 1.1 0 0 0 .4.3 1.5 1.5 0 0 0 .5.2 1.3 1.3 0 0 0-.4-.4 1.3 1.3 0 0 0-.5 0Zm0 .5a.7.7 0 0 0 .4.3 1.8 1.8 0 0 0 .5 0 1.1 1.1 0 0 0-.3-.2 1.7 1.7 0 0 0-.5-.1Zm1.2-1.1a.8.8 0 0 0-.1.4 1.2 1.2 0 0 0 .1.4 1.4 1.4 0 0 0 .1-.4.7.7 0 0 0-.1-.4Zm.4.3a1.3 1.3 0 0 0-.2.5 1.2 1.2 0 0 0 0 .6 1 1 0 0 0 .4-.5 1.1 1.1 0 0 0-.2-.6Zm-.5 2.5a.6.6 0 0 0 0 .2 1.6 1.6 0 0 0 .3.2.7.7 0 0 1 .3 0 1.5 1.5 0 0 1 .4.2 2 2 0 0 0-.5-.5 1 1 0 0 0-.5 0Zm0 .6a1.3 1.3 0 0 1 .5 0 1.1 1.1 0 0 1 .5.2 1.6 1.6 0 0 1-.6 0 1 1 0 0 1-.5-.2Zm1.3-1.4a1.2 1.2 0 0 0-.3.5.7.7 0 0 0 .2.5.8.8 0 0 1 0-.3 1 1 0 0 1 .2-.2.7.7 0 0 0 0-.2 1.1 1.1 0 0 0-.1-.3Zm.4.3a1.4 1.4 0 0 0-.4.6 1.1 1.1 0 0 0 0 .6 1 1 0 0 0 .4-.5 1.6 1.6 0 0 0 0-.7Zm.6 1.7a2 2 0 0 1 .2.5.6.6 0 0 1 0 .3s-.1.1-.2.2a.6.6 0 0 0 0 .2 1.2 1.2 0 0 1-.3-.6 1.2 1.2 0 0 1 .3-.6Zm.6.6a1.7 1.7 0 0 0-.5.4.6.6 0 0 0 0 .5.5.5 0 0 0 .3-.3 1.8 1.8 0 0 0 .2-.6Zm-2.1.9a3.6 3.6 0 0 1 .7 0 .7.7 0 0 1 .4.3 1 1 0 0 1-.6 0 1.2 1.2 0 0 1-.5-.3Zm-.1-.5a1.3 1.3 0 0 0 .5.4 1.6 1.6 0 0 0 .8 0 1.5 1.5 0 0 0-.6-.3 2 2 0 0 0-.7-.1Z" style="fill:#007a50"/><path d="M33 21.8a.3.3 0 0 0-.1.2.3.3 0 0 0 0 .2 2.2 2.2 0 0 0-.6 0v.7c0 .4-.2.4-.2.5a.5.5 0 0 0 0 .2v.3l-.8 1.5-.2.1a.3.3 0 0 0 0 .2.2.2 0 0 0-.2.1.4.4 0 0 0 0 .3.2.2 0 0 0-.1 0v.2l-.9 1.7-.5.5a.4.4 0 0 0 .1.5s-.2 0-.3.1a.3.3 0 0 0 .6.3V29a.5.5 0 0 0 .4-.3v-.7l.9-1.6h.2a.2.2 0 0 0 0-.3.4.4 0 0 0 .1-.1.3.3 0 0 0 0-.2.3.3 0 0 0 .2-.1v-.3l.8-1.4.1-.2v-.1a.5.5 0 0 0 .2-.1c.1 0 0-.2.3-.5l.5-.4a2.2 2.2 0 0 0-.3-.5s.1 0 .2 0a.3.3 0 0 0 0-.2h.1v-.7l-.5.4Zm-4.6 9.1a.2.2 0 0 0 0 .2s-.2-.1-.2 0a4.1 4.1 0 0 0 0 .7 4.1 4.1 0 0 0 .6-.4l-.1-.2a.2.2 0 0 0 .1 0l-.1-.3a.3.3 0 0 0-.2 0 .2.2 0 0 0-.1 0Z"/><path d="m33.1 21.8.3.1v-.3Zm-.1.2a.2.2 0 1 0 .2 0 .2.2 0 0 0-.2 0Zm-.6.3a4 4 0 0 0 0 .5.6.6 0 0 1 0 .4.6.6 0 0 1-.2.2s.1 0 .2-.2a4.7 4.7 0 0 0 .2-.8 3 3 0 0 1 .3 0s-.2-.1-.4-.1Zm0 1.3a3.6 3.6 0 0 1 .2-.3l.5-.6a1.5 1.5 0 0 0 0-.3 1.5 1.5 0 0 0-.4 0 3.5 3.5 0 0 1-.2.8 3.6 3.6 0 0 1-.2.3l.2.1Zm.8-.9s-.4.3-.5.6l-.2.3h.2a.6.6 0 0 1 0-.2.6.6 0 0 1 .2-.3l.5-.3a3.9 3.9 0 0 0-.3-.4 3 3 0 0 1 .1.3Zm-1.1 1.7a2.8 2.8 0 0 1 .3-.5.1.1 0 0 0 0-.2.2.2 0 0 0-.2 0 2.9 2.9 0 0 1-.3.6l-.5 1a.1.1 0 0 0 0 .2.1.1 0 0 0 .2 0l.5-1Zm-1 1.2.2.2h.2l-.1-.2a.2.2 0 0 0-.2 0Zm-.1.3.1.2h.3s0-.2-.2-.3a.1.1 0 0 0-.2 0Zm-.1.3v.2h.3l-.1-.2a.3.3 0 0 0-.2 0Zm-.1.3-.8 1.6-.5.4a.3.3 0 1 0 .6.3v-.6l.9-1.6a.1.1 0 0 0 0-.1.1.1 0 0 0-.1 0 .1.1 0 0 0-.1 0Zm-1.5 2.7a.2.2 0 1 0 .3 0 .2.2 0 0 0-.1-.1.2.2 0 0 0-.2 0Zm-.8 1.7v.2h.2v-.2a.2.2 0 0 0-.2 0Zm-.2.2v.6l.4-.3a.5.5 0 0 0-.4-.3Zm.2-12.5c0-.3.5-.6.5-.6H19s.5.3.5.6v7.3a.7.7 0 0 0 .1.5 2 2 0 0 0 .5.4 22.8 22.8 0 0 0 2.6 1.3 3 3 0 0 1 1.3.9 3 3 0 0 1 1.3-1 22.8 22.8 0 0 0 2.6-1.2 2 2 0 0 0 .5-.4.7.7 0 0 0 .1-.5v-7.3Z" class="d"/><path d="M19.7 22.7v-4.1a.6.6 0 0 0-.1-.4h8.8a.6.6 0 0 0 0 .4v4.1L24 24l-4.3-1.3Z" class="a"/><path d="M28.3 22.7H19.7V26c0 .2.2.6 1.1 1 1.6.9 2.8 1.2 3.2 1.7.4-.5 1.6-.8 3.2-1.6 1-.5 1.1-.9 1.1-1v-3.3Z" style="fill:#0046ae"/><path d="M25.6 22.6a2.1 2.1 0 0 0 1.5-2c0-1.3-1.5-2-1.6-2.3-.1.5.5 1.3.5 2.1 0 1.2-.8 1.2-.8 1.2-.2 0-.3.2-.3.2-.2 0-.3-.3-.4-.3-.2 0-.3.3-.5.3l-.5-.3-.4.3s-.1-.2-.3-.2c0 0-.8 0-.8-1.2 0-.8.6-1.6.5-2 0 .2-1.6.9-1.6 2.1a2.1 2.1 0 0 0 1.5 2l-.4.9a2 2 0 0 1 1 .3c.4.3.3 1 .3 1.6a1.5 1.5 0 0 1-.2 1c-.3.3-.5.3-.5.6s.2.3.5.5.3.4.9.4.6-.2 1-.4c.2-.2.4-.2.4-.5s-.2-.3-.5-.5a1.5 1.5 0 0 1-.2-1c0-.6 0-1.4.3-1.7a2 2 0 0 1 1-.3l-.4-.8ZM24 18.4l-.3.8-.7-.4.4.8-.8.2.8.3-.4.7.7-.3.3.7.3-.7.7.3-.3-.7.7-.3-.7-.2.3-.8-.7.4Zm-1.6 4.3A2.8 2.8 0 0 1 21 22a3.7 3.7 0 0 1-1.4.7 8.3 8.3 0 0 1 1.4.8 4.3 4.3 0 0 1 1.3-.8Z"/><path d="M25.6 22.7a4.3 4.3 0 0 1 1.4.8 8.3 8.3 0 0 1 1.3-.8A3.7 3.7 0 0 1 27 22a2.8 2.8 0 0 1-1.4.7Zm-2.9 1-.3.4.3.3.4-.3Zm2.6 0-.4.4.4.3.3-.3Zm-2.6 2.2a4.4 4.4 0 0 1 0 .7 1 1 0 0 0 .5-.7c0-.3.1-1.2-.1-1.3l-.7-.2a4.2 4.2 0 0 1 .3 1.5Zm2.2-1.3c-.2.1-.2 1-.1 1.3a1 1 0 0 0 .6.7 4.4 4.4 0 0 1 0-.7 4.2 4.2 0 0 1 .2-1.5l-.7.2Zm-3.8 0a.4.4 0 0 0-.3.6.4.4 0 0 0-.2 0 .4.4 0 1 0 .1.9.4.4 0 1 0 .8.4.4.4 0 0 0 0-.1.4.4 0 1 0 .5-.6.4.4 0 1 0-.3-.8.4.4 0 0 0-.1 0 .4.4 0 0 0-.5-.4Zm4.6 1.3a1.1 1.1 0 0 0 .9 1 1 1 0 0 1-.2-.5.9.9 0 0 1 1-1 1.1 1.1 0 0 1 .2 0 1.2 1.2 0 0 0-1-.5.9.9 0 0 0-.9 1Z"/><path d="M21.7 20.4c0 .9.5 1.4 1 1.4l.4.1.4-.2c.2 0 .3.3.5.3l.5-.3.4.2.3-.1c.6 0 1-.5 1-1.4 0-.7-.5-1.5-.4-1.6 0 0 1 .8 1 1.7a2 2 0 0 1-1.5 2l.4.7a1.9 1.9 0 0 0-.8.4c-.4.3-.4 1.1-.4 1.7 0 .7 0 1 .3 1.2.2.2.4.2.4.4s-.2.3-.4.4c-.3.1-.4.3-.8.3s-.5-.2-.8-.3c-.2-.1-.4-.2-.4-.4s.2-.2.4-.4c.3-.2.3-.5.3-1.2 0-.6 0-1.4-.4-1.7a1.9 1.9 0 0 0-.8-.4l.4-.7a2 2 0 0 1-1.6-2c0-1 1.1-1.7 1.1-1.7.1.1-.5 1-.5 1.6Zm1.7 6.4-.5.1c0 .1.2.2.5.2a.2.2 0 0 0 .2-.2.2.2 0 0 0-.2-.1Zm1.2 0a.2.2 0 0 0-.2.1.2.2 0 0 0 .2.2c.3 0 .5 0 .5-.2s-.2-.1-.5-.1Zm-.6-7.9.2.5.4-.2-.2.5.5.1-.5.2.2.5-.4-.3-.2.5-.2-.5-.4.3.2-.5-.5-.2.5-.1-.2-.5.4.2.2-.5Zm-3.9 3.9a5.2 5.2 0 0 1 1 .5 3.3 3.3 0 0 1 .7-.6 1.9 1.9 0 0 1-.8-.5 2.7 2.7 0 0 1-.9.6Zm7.8 0a5.2 5.2 0 0 0-1 .5 3.3 3.3 0 0 0-.7-.6 1.9 1.9 0 0 0 .8-.5 2.7 2.7 0 0 0 .9.6Zm-5.2 1 .2.3-.2.2-.1-.2Zm2.6 0 .2.3-.2.2-.2-.2Zm-2.3 1a1.7 1.7 0 0 1 .1.8.7.7 0 0 1-.3.6 5.8 5.8 0 0 0-.2-1.6l.4.1Zm2.4-.2a5.8 5.8 0 0 0-.2 1.6.7.7 0 0 1-.3-.6 1.7 1.7 0 0 1 0-.9h.5Zm-3.9.4a.3.3 0 0 1 0 .1.3.3 0 0 1 0 .1.5.5 0 0 0-.5.2.3.3 0 0 1-.1-.1.3.3 0 0 1 0-.1.3.3 0 0 1 .6-.2Zm.5.7a.3.3 0 0 1-.2 0 .5.5 0 0 0-.3-.5.3.3 0 0 1 .2-.1.3.3 0 1 1 .3.6Zm-.4.7a.3.3 0 0 1-.1-.1.3.3 0 0 1 0-.1.5.5 0 0 0 .3-.4.3.3 0 0 1 .1 0 .3.3 0 0 1 .1 0 .3.3 0 0 1-.4.6Zm-.8-.3a.3.3 0 0 1 .1-.1.5.5 0 0 0 .5.2.3.3 0 0 1 0 .2.3.3 0 0 1-.6-.3Zm0-.8a.3.3 0 0 1 .1 0 .5.5 0 0 0 0 .7.3.3 0 0 1-.2 0 .3.3 0 0 1 0-.7Z" class="d"/><circle cx="21.3" cy="25.7" r=".3" class="d"/><path d="M27.1 25.3a1 1 0 0 0-.9 1.1.9.9 0 0 1-.3-.5.7.7 0 0 1 .7-.8 1 1 0 0 1 .5.2Z" class="d"/><path d="M28.8 18h-9.6a.9.9 0 0 1 .3.6V26a.6.6 0 0 0 0 .2.7.7 0 0 0 .2.1 1.7 1.7 0 0 0 .3.4h.2a16 16 0 0 0 2 1l.5.3a3 3 0 0 1 1.3.8 3 3 0 0 1 1.3-.8l.5-.2a16 16 0 0 0 2-1 2.3 2.3 0 0 0 .4-.3v-.1h.1a.7.7 0 0 0 .1-.2.6.6 0 0 0 0-.3v-7.3a.9.9 0 0 1 .4-.6Zm-.2.6V26a.8.8 0 0 1 0 .2.8.8 0 0 1-.1.2h-.1v.2a2.5 2.5 0 0 1-.5.3 16 16 0 0 1-2 1l-.5.2a2.9 2.9 0 0 0-1.3 1H24a2.8 2.8 0 0 0-1.3-1L22 28a16 16 0 0 1-2-1H20l-.1-.1a1.9 1.9 0 0 1-.4-.4.8.8 0 0 1 0-.2.8.8 0 0 1-.1-.3v-7.3c0-.3-.4-.6-.4-.6V18h10v.1s-.4.3-.4.6Zm-.2-.5h.2l-.1.1a.6.6 0 0 0-.1.4V26s-.1.3-.5.6l-.3.2-.4.2-1.6.7a5 5 0 0 0-1.5 1H24a5 5 0 0 0-1.6-1l-1.6-.7a3.7 3.7 0 0 1-.9-.5v-.1a.7.7 0 0 1-.3-.5v-7.3a.6.6 0 0 0 0-.4h-.2 9Zm-.1.2h-8.6a.7.7 0 0 1 0 .3V26a.6.6 0 0 0 .2.3h.1a3.6 3.6 0 0 0 .9.6l1.5.7a5.9 5.9 0 0 1 1.6.9 5.9 5.9 0 0 1 1.6-.9L27 27a5.3 5.3 0 0 0 .7-.4c.4-.3.4-.5.4-.6v-7.3a.7.7 0 0 1 .1-.3Z"/></svg>