<svg xmlns="http://www.w3.org/2000/svg" viewBox="0 0 48 48"><defs><style>.a{fill:#012169}.b{fill:#fff}.c{fill:#c8102e}</style></defs><path d="M9.3 6.8h-2a21.2 21.2 0 0 1 2-1.8Z" class="a"/><path d="M48 24A24 24 0 1 1 4.4 10.2h4.9V17h3.4v-6.8H28V6.8H12.7v-4A23.8 23.8 0 0 1 24 0h1.4L14 5.7h2.6L27.5.3A24 24 0 0 1 48 24Z" class="a"/><path d="m35.8 14.4.7 2.2-1.9-1.4-1.9 1.4.8-2.2-1.9-1.4h2.3l.7-2.2.7 2.2h2.3l-1.8 1.4z" class="b"/><path d="m35.4 14.2.4 1.5-1.2-.9-1.2.9.5-1.5-1.3-.9h1.5l.5-1.4.5 1.4h1.5l-1.2.9z" class="c"/><path d="m43.6 21.2.6 2-1.7-1.3-1.6 1.3.6-2-1.7-1.2h2.1l.6-2 .7 2h2l-1.6 1.2z" class="b"/><path d="m43.2 21.1.4 1.2-1.1-.8-1 .8.4-1.2-1-.8h1.2l.4-1.2.4 1.2h1.3l-1 .8z" class="c"/><path d="m26.5 23.6.8 2.2-1.9-1.3-1.9 1.3.7-2.2-1.8-1.3h2.3l.7-2.2.7 2.2h2.3l-1.9 1.3z" class="b"/><path d="m26.1 23.5.5 1.5-1.2-.9-1.2.9.4-1.5-1.2-.9h1.5l.5-1.4.5 1.4h1.5l-1.3.9z" class="c"/><path d="m35.9 38.4.8 2.4-2.1-1.5-2.1 1.5.8-2.4-2-1.5h2.5l.8-2.5.8 2.5H38l-2.1 1.5z" class="b"/><path d="m35.5 38.2.6 1.7-1.5-1-1.4 1 .5-1.7-1.4-1h1.8l.5-1.7.6 1.7h1.7l-1.4 1z" class="c"/><path d="m28 1.9-7.5 3.8H28v5.6h-7.5l7.5 3.8V17h-3.8l-10.4-5.2V17H8.2v-5.2L1.7 15A24 24 0 0 1 13.8 2.3v2.9L24.2 0a23.7 23.7 0 0 1 3.8.3Z" class="b"/><path d="M28 6.8v3.4H12.7V17H9.3v-6.8h-5a22.9 22.9 0 0 1 3-3.4h2V5a23.3 23.3 0 0 1 3.4-2.2v4Z" class="c"/><path d="M28 15.7V17l-11.3-5.7h2.5l8.8 4.4zM27.5.3 16.7 5.7H14L25.4 0a20.6 20.6 0 0 1 2 .3ZM7.9 11.3l-5.8 3a17.7 17.7 0 0 1 .8-1.8l2.4-1.2Z" class="c"/></svg>