<svg xmlns="http://www.w3.org/2000/svg" viewBox="0 0 48 48"><defs><style>.c{fill-rule:evenodd}.c,.f,.g,.h{fill:#ff0}.c,.g,.h{stroke:#000;stroke-width:.1px}.c{stroke-linecap:round;stroke-linejoin:round}.j{fill:#fff}.i{fill:#039}</style></defs><circle cx="24" cy="24" r="24" style="fill:red"/><path d="M16.8 1.1v45.8a24 24 0 0 1 0-45.8Z" style="fill-rule:evenodd;fill:#060"/><path d="M26.2 31.4a60.3 60.3 0 0 1-20.4-12l1-1.6A78.9 78.9 0 0 0 27 29.9l-1 1.5" class="c"/><path d="M6.6 17.6c-.4.8 4.3 3.7 9.9 7.1s10.4 5.6 10.8 5.3a3.2 3.2 0 0 0 .2-.3H27a56.4 56.4 0 0 1-10.4-5.2c-4.9-3-9.1-5.7-9.8-6.9a.7.7 0 0 1 0-.3h0l-.2.2h0Zm19.7 13.9a43.5 43.5 0 0 1-10.7-5C9.8 23.1 5.1 20 5.6 19.2l.1-.2h0c-.4 1.4 9.3 6.9 9.9 7.3 5.6 3.4 10.3 5.5 10.7 5l-.1.2v0Z" class="c"/><path d="M16.8 20.3c3.6 0 8.1-.5 10.7-1.5l-.6-1c-1.5 1-6 1.5-10.1 1.6-4.9 0-8.3-.5-10-1.7l-.6 1c3.2 1.3 6.4 1.6 10.6 1.6" class="c"/><path d="M27.7 18.8a15.6 15.6 0 0 1-4.3 1.2 43.9 43.9 0 0 1-6.6.4 46.8 46.8 0 0 1-6.3-.4A18.4 18.4 0 0 1 6 19l.2-.3a19.2 19.2 0 0 0 4.3 1.2 46.3 46.3 0 0 0 6.3.4 44 44 0 0 0 6.6-.5c2.5-.4 3.9-1 4-1.2l.3.3h0Zm-.5-1a12.8 12.8 0 0 1-4 1.2 43.7 43.7 0 0 1-6.4.4 42.3 42.3 0 0 1-6-.4 16.7 16.7 0 0 1-4.2-1l.1-.3a14.4 14.4 0 0 0 4.1 1 43.4 43.4 0 0 0 6 .4 43.1 43.1 0 0 0 6.3-.4 10.8 10.8 0 0 0 3.9-1.1l.2.3v0ZM5 24.7c2.1 1.2 7 1.8 11.8 1.8 4.3 0 9.8-.6 11.9-1.7v-1.2c-.7 1-6.7 2-12 2s-10.2-1-11.8-2v1" class="c"/><path d="M28.8 24.5v.3c-.3.4-2.3 1-4.7 1.3a48.8 48.8 0 0 1-7.4.5 46.1 46.1 0 0 1-7-.4 17.4 17.4 0 0 1-5-1.4v-.3c1.2.7 4.1 1.2 5 1.4a45.9 45.9 0 0 0 7 .5 48.6 48.6 0 0 0 7.3-.5 15.2 15.2 0 0 0 4.8-1.4h0Zm0-1v.3c-.3.3-2.3 1-4.7 1.3a48.8 48.8 0 0 1-7.4.5 46.1 46.1 0 0 1-7-.5 17.4 17.4 0 0 1-5-1.3v-.3c1.2.7 4.1 1.2 5 1.4a45.8 45.8 0 0 0 7 .4 48.6 48.6 0 0 0 7.3-.5 15.2 15.2 0 0 0 4.8-1.3v0ZM16.8 31.2a41 41 0 0 1-10.5-1.6l.7 1a28 28 0 0 0 9.8 1.7c4-.1 7.3-.4 9.7-1.6l.7-1.1a37 37 0 0 1-10.4 1.6" class="c"/><path d="m26.8 30.4-.3.5a27.3 27.3 0 0 1-3.7 1 33.2 33.2 0 0 1-6 .5 29 29 0 0 1-10-1.7l-.2-.3h0l.3.1a32.2 32.2 0 0 0 10 1.6 33.8 33.8 0 0 0 5.8-.5 17.3 17.3 0 0 0 4-1.1h.1Zm.6-1h0l-.2.5a25.5 25.5 0 0 1-4.7 1 36.7 36.7 0 0 1-5.7.5 39 39 0 0 1-10.6-1.6v-.3a44.7 44.7 0 0 0 10.6 1.6 39.7 39.7 0 0 0 5.7-.5 29.2 29.2 0 0 0 4.6-1h0l.3-.1h0Z" class="c"/><path d="M27.5 23.7a11.5 11.5 0 0 1-3.1 7.8 11.2 11.2 0 0 1-7.7 3.1 11.3 11.3 0 0 1-7.4-3 11.4 11.4 0 0 1-3.1-7.7 10.7 10.7 0 0 1 3.7-8 11.2 11.2 0 0 1 7.2-2.6 11 11 0 0 1 8 4 11.2 11.2 0 0 1 2.4 6.4ZM16.8 12.2A11.8 11.8 0 1 1 4.8 24a12 12 0 0 1 12-11.8" class="c"/><path d="M16.8 12.1a11.9 11.9 0 1 1-11.9 12 11.9 11.9 0 0 1 11.9-12Zm-11.6 12a11.6 11.6 0 1 0 11.6-11.7A11.7 11.7 0 0 0 5.2 24Z" class="c"/><path d="M16.8 13.1A10.9 10.9 0 1 1 5.9 24a11 11 0 0 1 10.9-10.9ZM6.2 24a10.6 10.6 0 1 0 10.6-10.6A10.7 10.7 0 0 0 6.2 24Z" class="c"/><path d="M17.3 12h-1v24h1Z" class="c"/><path d="M17.2 12h.2V36h-.2V11.9Zm-1 0h.2V36h-.2V11.9Z" class="c"/><path d="M28.7 24.5v-1L28 23l-4.1-1-5.9-.7-7 .4-5.1 1.2-1 .8v.8l2.5-1.1 6.2-1h5.8l4.4.5 3 .7Z" class="c"/><path d="M16.8 22.2a41.2 41.2 0 0 1 7.7.7c2.2.4 3.8 1 4.3 1.6v.3c-.6-.8-2.7-1.4-4.4-1.7a41 41 0 0 0-7.6-.7 42.5 42.5 0 0 0-7.8.7c-1.7.4-4 1-4.2 1.7v-.3c.1-.5 1.8-1.2 4.2-1.6a42.7 42.7 0 0 1 7.8-.7Zm0-1a41.2 41.2 0 0 1 7.7.6c2.2.5 3.8 1 4.3 1.7v.3c-.6-.8-2.7-1.4-4.4-1.7a41 41 0 0 0-7.6-.7 42.4 42.4 0 0 0-7.8.7c-1.6.3-4 1-4.2 1.7v-.3c.1-.5 1.8-1.2 4.2-1.7a42.7 42.7 0 0 1 7.8-.6ZM16.7 16c4.5 0 8.3.6 10 1.5l.7 1C26 17.9 21.7 17 16.7 17c-4 0-8.4.5-10.5 1.6l.7-1.2c1.8-1 6-1.4 9.8-1.4" class="c"/><path d="M16.8 16.9a40.1 40.1 0 0 1 6.9.5 12.6 12.6 0 0 1 3.8 1l.2.4a13.8 13.8 0 0 0-4-1.2 38.7 38.7 0 0 0-7-.5 39.8 39.8 0 0 0-6.9.5 12.3 12.3 0 0 0-3.7 1.2l.2-.4a12.5 12.5 0 0 1 3.5-1 40.9 40.9 0 0 1 7-.5h0Zm0-1a39.2 39.2 0 0 1 6.6.4 10.8 10.8 0 0 1 3.5 1.1l.3.5c-.5-.5-2.3-1-3.9-1.3a42.4 42.4 0 0 0-6.5-.5 39.8 39.8 0 0 0-6.7.5 10.9 10.9 0 0 0-3.3 1l.2-.3a11.9 11.9 0 0 1 3-1 40 40 0 0 1 6.8-.4ZM22.7 29a31 31 0 0 0-6-.5c-7.3 0-9.7 1.5-10 2l-.5-1c1.9-1.3 5.9-2 10.6-2a37.5 37.5 0 0 1 6.4.6l-.5.9" class="c"/><path d="M16.8 28.4a35.7 35.7 0 0 1 6 .5l-.2.2a31.3 31.3 0 0 0-5.8-.4 28.3 28.3 0 0 0-8 .9c-.7.2-2 .7-2 1l-.2-.2c0-.2.8-.7 2.2-1a28.5 28.5 0 0 1 8-1v0Zm0-1a36.8 36.8 0 0 1 6.5.5l-.2.3a33.6 33.6 0 0 0-6.2-.6 30.2 30.2 0 0 0-8.3 1c-.8.2-2.3.8-2.4 1.2l-.1-.3c0-.3 1.3-.9 2.4-1.2a30.3 30.3 0 0 1 8.3-1Z" class="c"/><path d="m27.3 29.7-.9 1.4-2.5-2.3-6.6-4.4-7.5-4.1L6 19l.8-1.6.3-.1 2.4.6 7.9 4 4.6 3 3.8 2.7 1.6 1.8Z" class="c"/><path d="M5.8 19c.7-.5 5.7 1.8 10.9 4.9 5.2 3.1 10.2 6.7 9.7 7.4l-.1.2h-.1v-.3c-.2-.7-3.7-3.5-9.6-7-5.7-3.5-10.4-5.5-11-5l.2-.2h0Zm21.7 10.7c.4-.9-4.2-4.4-10-7.7-5.8-3.4-10-5.3-10.8-4.7l-.1.3s0 0 0 0a.8.8 0 0 1 .5-.2 37 37 0 0 1 10.4 4.8c2.3 1.4 9.9 6.2 9.8 7.6v.2l.2-.3v0Z" class="c"/><path d="M9.7 25.3a7.2 7.2 0 0 0 7 7.1 7.1 7.1 0 0 0 7.2-7v-9.6H9.7v9.5Z" style="fill:#fff;stroke:#000;stroke-width:.1px"/><path d="M10 25.3a6.8 6.8 0 0 0 2 4.8 6.8 6.8 0 0 0 9.6 0 6.8 6.8 0 0 0 2-4.8v-9.2H10v9.2M21 19v6.5a4.5 4.5 0 0 1 0 .5 4 4 0 0 1-1.2 2.3 4 4 0 0 1-3 1.2 4.1 4.1 0 0 1-4-4v-6.5H21Z" style="stroke:#000;stroke-width:.1px;fill:red"/><path d="M10.8 18.5a.8.8 0 0 1 .5-.8.8.8 0 0 1 .5.8h-1" class="f"/><path d="M10.4 17.7v.8h.4a.7.7 0 0 1 .5-.7.7.7 0 0 1 .5.7h.5v-.8h-1.9ZM10.3 18.5h2a.1.1 0 0 1 0 .2h-2a.1.1 0 0 1 0-.2Z" class="g"/><path d="M11 18.5a.5.5 0 0 1 .3-.5.5.5 0 0 1 .3.5H11M10.3 17.4h2v.2h-2v-.2ZM10.4 17.6h1.9v.1h-2v-.1ZM11 16.3h.1v.1h.1v-.1h.2v.1h.1v-.1h.2v.2l-.1.1H11v-.3Z" class="g"/><path d="M11.5 16.6v.8h-.4v-.8h.4M11 17v.4h-.6V17h.5ZM12.2 17v.4h-.5V17h.5ZM10.4 16.7H11v.2h-.6v-.2ZM11.6 16.7h.7v.2h-.6v-.2Z" class="g"/><path d="M11.3 16.9v.2-.2M10.6 17.1h.1v.2-.2M12 17.1v.2-.2"/><path d="M10.8 24a.8.8 0 0 1 .5-.7.8.8 0 0 1 .5.8h-1" class="f"/><path d="M10.4 23.3v.7h.4a.7.7 0 0 1 .5-.7.7.7 0 0 1 .5.7h.5v-.7h-1.9ZM10.3 24h2a.1.1 0 0 1 0 .2h-2a.1.1 0 0 1 0-.2Z" class="g"/><path d="M11 24a.5.5 0 0 1 .3-.5.5.5 0 0 1 .3.5H11M10.3 23h2v.1h-2V23ZM10.4 23.1h1.9v.2h-2v-.2ZM11 21.9h.7v.2H11v-.2ZM11.5 22.2v.8h-.4v-.8h.4M11 22.5v.5h-.6v-.5h.5ZM12.2 22.5v.5h-.5v-.5h.5ZM10.4 22.2h.1v.1h.5v.2h-.6v-.3ZM11.6 22.2h.2v.1h.5v.2h-.6v-.3Z" class="g"/><path d="M11.3 22.4v.2-.2M10.6 22.7h.1v.1-.1M12 22.7v.1-.1"/><path d="M13 29.9a.8.8 0 0 1-.2-1 .8.8 0 0 1 .9.3l-.7.7" class="f"/><path d="m12.1 29.6.5.6.4-.4a.7.7 0 0 1-.2-.8.7.7 0 0 1 .9.1l.3-.3-.6-.5-1.3 1.3Z" class="h"/><path d="m12.6 30.2 1.4-1.4a.1.1 0 0 1 .2.1l-1.5 1.4a.1.1 0 0 1-.1 0Z" class="h"/><path d="M13.1 29.7a.5.5 0 0 1-.2-.6.5.5 0 0 1 .6.2l-.4.4M11.9 29.4l1.3-1.4.1.2-1.3 1.3h-.1Z" class="h"/><path d="m12 29.5 1.3-1.3.1.1-1.3 1.3H12ZM11.5 28.2l.1-.1h.1l.1-.2h.2-.1v-.2l.3.2-.4.5h-.1l-.2-.2Z" class="h"/><path d="m12.1 28 .6.5-.3.4-.6-.6.3-.3M12 28.7l.3.3-.4.4-.3-.3.4-.4ZM12.9 27.8l.3.3-.4.4-.3-.3.4-.4Z" class="h"/><path d="M11.4 29v-.2h.2v-.2l.1.1v-.2h.1l.2.1v.1l-.4.4-.2-.2ZM12.2 28l.1-.1h.2v-.2h.1l.1-.2.2.2v.1l-.4.4-.3-.2Z" class="h"/><path d="M12.1 28.4h.2v.1l-.2-.1M11.9 29h.1v.1h-.1M12.8 28.1h.1v.1h-.1"/><path d="M16.3 18.5a.8.8 0 0 1 .5-.8.8.8 0 0 1 .5.8h-1" class="f"/><path d="M15.9 17.7v.8h.4a.7.7 0 0 1 .5-.7.7.7 0 0 1 .5.7h.5v-.8h-1.9ZM15.8 18.5h2a.1.1 0 0 1 0 .2h-2a.1.1 0 0 1 0-.2Z" class="g"/><path d="M16.5 18.5a.5.5 0 0 1 .3-.5.5.5 0 0 1 .3.5h-.6M15.8 17.4h2v.2h-2v-.2ZM15.9 17.6h1.8v.1H16v-.1ZM16.5 16.3h.1v.1h.1v-.1h.2v.1-.1h.2V16.6h-.6v-.3Z" class="g"/><path d="M17 16.6v.8h-.5v-.8h.5M16.4 17v.4H16V17h.5ZM17.7 17v.4h-.5V17h.5ZM15.8 16.7h.7v.2h-.6v-.2ZM17.1 16.7h.7v.2h-.6v-.2Z" class="g"/><path d="M16.8 16.9v.2-.2M16.1 17.1h.1v.2-.2M17.4 17.1v.2-.2"/><path d="M22.8 18.5a.8.8 0 0 0-.5-.8.8.8 0 0 0-.5.8h1" class="f"/><path d="M23.2 17.7v.8h-.5a.7.7 0 0 0-.4-.7.7.7 0 0 0-.5.7h-.5v-.8h1.9ZM23.3 18.5h-2a.1.1 0 0 0 0 .2h2a.1.1 0 0 0 0-.2Z" class="g"/><path d="M22.5 18.5a.5.5 0 0 0-.2-.5.5.5 0 0 0-.3.5h.5M23.2 17.4h-2v.2h2v-.2ZM23.2 17.6h-1.9v.1h1.9v-.1ZM22.6 16.3h-.2v.1-.1h-.2v.1H22v-.1h-.2V16.6h.6v-.3Z" class="g"/><path d="M22 16.6v.8h.5v-.8H22M22.7 17v.4h.4V17h-.4ZM21.4 17v.4h.5V17h-.5ZM23.2 16.7H22.6v.2h.6v-.2ZM22 16.7h-.7v.2h.6v-.2Z" class="g"/><path d="M22.3 16.9h-.1v.2h.1v-.2M23 17.1h-.2v.2h.1V17M21.7 17.1h-.1v.2-.2"/><path d="M22.8 24a.8.8 0 0 0-.5-.7.8.8 0 0 0-.5.8h1" class="f"/><path d="M23.2 23.3v.7h-.5a.7.7 0 0 0-.4-.7.7.7 0 0 0-.5.7h-.5v-.7h1.9ZM23.3 24h-2a.1.1 0 0 0 0 .2h2a.1.1 0 0 0 0-.2Z" class="g"/><path d="M22.5 24a.5.5 0 0 0-.2-.5.5.5 0 0 0-.3.5h.5M23.2 23h-2v.1h2V23ZM23.2 23.1h-1.9v.2h1.9v-.2ZM22.6 21.9h-.7v.2h.6v-.2ZM22 22.2v.8h.5v-.8H22M22.7 22.5v.5h.4v-.5h-.4ZM21.4 22.5v.5h.5v-.5h-.5ZM23.2 22.2h-.1v.1h-.5v.2h.6v-.3ZM22 22.2h-.2v.1h-.5v.2h.6v-.3Z" class="g"/><path d="M22.3 22.4h-.1v.2h.1v-.2M23 22.7h-.2v.1h.1v-.1M21.7 22.7h-.1v.1-.1"/><path d="M20.6 29.9a.8.8 0 0 0 .2-1 .8.8 0 0 0-1 .3l.8.7" class="f"/><path d="m21.4 29.6-.4.6-.4-.4a.7.7 0 0 0 .2-.8.7.7 0 0 0-.9.1l-.3-.3.6-.5 1.2 1.3Z" class="h"/><path d="m21 30.2-1.4-1.4a.1.1 0 0 0-.2.1l1.5 1.4Z" class="h"/><path d="M20.5 29.7a.5.5 0 0 0 .1-.6.5.5 0 0 0-.5.2l.4.4M21.7 29.4 20.3 28v.2l1.3 1.3h.1Z" class="h"/><path d="m21.6 29.5-1.3-1.3-.2.1 1.4 1.3ZM22 28.2V28h-.2v-.2h-.1l-.1-.2-.2.2.4.5.2-.2ZM21.4 28l-.5.5.3.4.5-.6-.3-.3M21.6 28.7l-.3.3.4.4.2-.3-.3-.4ZM20.7 27.8l-.3.3.4.4.2-.3-.3-.4Z" class="h"/><path d="M22.2 29v-.2H22v-.2l-.1.1h-.1v-.2l-.2.1v.1l.4.4.2-.2ZM21.3 28v-.1H21v-.2h-.2v-.2l-.2.2v.1l.4.4.2-.2Z" class="h"/><path d="M21.4 28.4h-.2l.1.1.1-.1M21.7 29h-.2l.1.1h.1M20.8 28.1h-.2l.1.1h.1"/><path d="M16 24.3a1 1 0 0 0 .2.7.9.9 0 0 0 1.3 0 1 1 0 0 0 .2-.7V23H16v1.3" class="i"/><circle cx="16.3" cy="23.5" r=".2" class="j"/><circle cx="17.3" cy="23.5" r=".2" class="j"/><circle cx="16.8" cy="24" r=".2" class="j"/><circle cx="16.3" cy="24.5" r=".2" class="j"/><circle cx="17.3" cy="24.5" r=".2" class="j"/><path d="M16 21.2a1 1 0 0 0 .2.7.9.9 0 0 0 1.3 0 1 1 0 0 0 .2-.7v-1.3H16v1.3" class="i"/><circle cx="16.3" cy="20.4" r=".2" class="j"/><circle cx="17.3" cy="20.4" r=".2" class="j"/><circle cx="16.8" cy="20.8" r=".2" class="j"/><circle cx="16.3" cy="21.3" r=".2" class="j"/><circle cx="17.3" cy="21.3" r=".2" class="j"/><path d="M13.4 24.3a1 1 0 0 0 .3.7.9.9 0 0 0 1.3 0 1 1 0 0 0 .2-.7V23h-1.8v1.3" class="i"/><circle cx="13.8" cy="23.5" r=".2" class="j"/><circle cx="14.8" cy="23.5" r=".2" class="j"/><circle cx="14.3" cy="24" r=".2" class="j"/><circle cx="13.8" cy="24.5" r=".2" class="j"/><circle cx="14.8" cy="24.5" r=".2" class="j"/><path d="M18.4 24.3a1 1 0 0 0 .3.7.9.9 0 0 0 1.2 0 1 1 0 0 0 .3-.7V23h-1.8v1.3" class="i"/><circle cx="18.8" cy="23.5" r=".2" class="j"/><circle cx="19.8" cy="23.5" r=".2" class="j"/><circle cx="19.3" cy="24" r=".2" class="j"/><circle cx="18.8" cy="24.5" r=".2" class="j"/><circle cx="19.8" cy="24.5" r=".2" class="j"/><path d="M16 27.4a1 1 0 0 0 .2.7.9.9 0 0 0 1.3 0 1 1 0 0 0 .2-.7V26H16v1.3" class="i"/><circle cx="16.3" cy="26.6" r=".2" class="j"/><circle cx="17.3" cy="26.6" r=".2" class="j"/><circle cx="16.8" cy="27.1" r=".2" class="j"/><circle cx="16.3" cy="27.6" r=".2" class="j"/><circle cx="17.3" cy="27.6" r=".2" class="j"/></svg>