<svg xmlns="http://www.w3.org/2000/svg" viewBox="0 0 48 48"><defs><style>.a{fill:#fff;}.b{fill:#01411c;}</style></defs><title>fi_PK</title><circle class="a" cx="24" cy="24" r="24"/><path class="b" d="M48,24A24.0062,24.0062,0,0,1,24,48a23.7268,23.7268,0,0,1-12-3.23V3.23A23.7268,23.7268,0,0,1,24,0,24.0062,24.0062,0,0,1,48,24Z"/><path class="a" d="M38.739,27.9781A9.6014,9.6014,0,1,1,27.075,14.8539q-.2391.1839-.4677.3877A8.8,8.8,0,1,0,38.3,28.3957C38.4521,28.2608,38.5982,28.1211,38.739,27.9781Z"/><polygon class="a" points="37.544 21.366 35.273 20.868 34.098 22.874 33.87 20.56 31.599 20.062 33.729 19.13 33.494 16.811 35.045 18.554 37.175 17.622 36 19.628 37.544 21.366"/></svg>