<svg xmlns="http://www.w3.org/2000/svg" viewBox="0 0 48 48"><defs><style>.c{fill:#007a3d}</style></defs><circle cx="24" cy="24" r="24"/><path d="M48 24a23.6 23.6 0 0 1-1.4 8H1.4A23.6 23.6 0 0 1 0 24a24 24 0 0 1 48 0Z" style="fill-rule:evenodd;fill:#fff"/><path d="M46.6 16H1.4a24 24 0 0 1 45.2 0Z" style="fill:#ce1126;fill-rule:evenodd"/><path d="m14.4 25.4 1.5 4.6-3.9-2.8L8.1 30l1.5-4.6-3.9-2.8h4.8L12 18l1.5 4.6h4.8l-3.9 2.8zM38.4 25.4l1.5 4.6-3.9-2.8-3.9 2.8 1.5-4.6-3.9-2.8h4.8L36 18l1.5 4.6h4.8l-3.9 2.8z" class="c"/></svg>