<svg xmlns="http://www.w3.org/2000/svg" viewBox="0 0 48 48"><defs><style>.b{fill:#fff}.c{fill:#fc0}.d{fill:#090}.e,.j{fill:#e60000}.f{fill:#004bb3}.g{fill:#003}.h{fill:#00004b}.j{stroke:#000;stroke-miterlimit:1.18;stroke-width:.1734px}</style></defs><circle cx="24" cy="24" r="24" fill="#0047ab"/><path d="M48 24a23.6 23.6 0 0 1-1.4 8H1.4a23.9 23.9 0 0 1 0-16h45.2a23.6 23.6 0 0 1 1.4 8Z" class="b"/><path d="M20.7 30v.5a.2.2 0 0 0-.3.1.3.3 0 0 0 .2.4l.2.1.4-.8h-.1l-.2.3V30h-.2Zm0 .7a.2.2 0 0 1 .1 0v.2h-.1s-.1 0 0-.2Zm-.8-.2.2-.2-.3-.2h.3l.2-.1-.3-.2.1-.1.4.3-.5.7-.4-.3h.3m-.1-1-.2.3h-.1a.3.3 0 0 0-.4 0c-.2 0-.1.2 0 .4l.2.1.6-.7Zm-.5.3a.2.2 0 0 1 .1 0l-.1.3c-.1-.1-.1-.2 0-.2Zm-.6 0-.1-.2.3-.3c.1-.1.2-.2.1-.3 0-.2-.2 0-.3 0l-.4.4V29l.3-.3a.3.3 0 1 1 .5.5l-.4.3m-.4-1.7a.3.3 0 0 0-.1 0 .2.2 0 0 0-.1.3.2.2 0 0 0-.2 0c-.1.2-.1.3 0 .4v.2l.8-.5-.1-.2a.3.3 0 0 0-.3-.2Zm0 .2.2.1-.2.2c0-.1-.1-.2 0-.2Zm-.2.3-.1.2v-.2Zm0-.8-.2-.3h.2l.2.3-.8.5-.1-.2.7-.3m-.2-.7.1.2-.8.4v-.2l.7-.4m-.9-.6a.3.3 0 0 0 0 .2.3.3 0 0 0 .4.2.3.3 0 0 0 0-.5l.2-.1a.5.5 0 0 1 .1.2.5.5 0 0 1-.9.3.5.5 0 0 1 0-.2l.2-.1m.4-1.2-.8.5v.1l1 .2v-.1h-.2l-.1-.4.2-.1Zm-.2.4v.2h-.3Zm-.3-2a.4.4 0 0 0-.4.3v.3h.9V24a.4.4 0 0 0-.4-.5Zm0 .1a.2.2 0 0 1 .3.3h-.5c0-.2 0-.3.2-.3Zm-.1-.7h.2v-.2h.2v.3h.2v-.3h.2l-.1.5-.9-.1.1-.5h.2l-.1.3m.3-1.2.2.1.1-.3h.2l-.1.4h.2l.1-.2h.1l-.1.5-.9-.4.2-.4h.2l-.2.3m.9-.4.1-.3.2.1-.2.4-.8-.4v-.2l.7.4m.3-1.4a.2.2 0 0 0-.2 0 .1.1 0 0 0 0 .2c.1 0 .3-.3.6 0a.3.3 0 0 1 0 .3.3.3 0 0 1-.3.2v-.2a.2.2 0 0 0 .2 0 .1.1 0 0 0 0-.2h-.3a.3.3 0 0 1-.3 0 .3.3 0 0 1 0-.3.4.4 0 0 1 .2-.2v.2m.5-.8h-.1l.4 1 .1-.2v-.1l.1-.3.2.1.2-.1Zm0 .2h.1l.3.2-.2.1Zm1-.2.2-.1h.1l-.3.4-.6-.7.2-.2.4.6m.6-.6-.1-.6h.1l.2.9-.9-.5.2-.1.5.3m.7-1h-.2v1h.3v-.2l.3-.2v.2l.3-.1Zm0 .3.2.2H21Zm1-.6a.6.6 0 0 0-.2 0h-.2l.2 1 .3-.1a.4.4 0 0 0 .3-.6.4.4 0 0 0-.5-.3Zm0 .2a.2.2 0 0 1 .2.2.2.2 0 0 1-.2.3l-.2-.5a.4.4 0 0 1 .2 0Zm1-.5a.5.5 0 0 0 .1 1 .5.5 0 0 0 0-1Zm0 .2a.3.3 0 0 1 .3.2.3.3 0 0 1-.2.4.3.3 0 0 1-.3-.3.3.3 0 0 1 .2-.3Zm.8-.2v.9h.2v-.4l.2.4h.2l-.2-.4a.2.2 0 0 0 .2-.3L24 17Zm.2.1s.2 0 .2.2H24Zm1.7.2v.2h.2v.2h-.3v.2h.3v.2h-.5l.2-1 .4.2v.1h-.3m.7 0h.1l.2.7.3-.5h.1l-.3 1-.1-.1-.3-.8-.2.6-.2-.1.4-.9m1.2 1.5.2.1v.1l-.4-.2.4-.8.2.1-.4.7m1-.2-.8.5.2.1.1-.1.3.2V19.5l.4-1Zm0 .3-.2.3-.1-.2Zm1.4 1.1-1 .3.2.1h.2l.2.2-.1.2v.1l.6-.8Zm-.2.2-.1.3-.2-.2Zm.7 1.3h-.6l.4-.5-.6.2v-.2l.8-.2-.3.6.6-.1v.1l-.7.5v-.1l.4-.3m.4.6h-.2l.1.3h-.1l-.1-.2h-.2v.3h-.1l-.1-.4.8-.3.2.5H31V22m.3.5-1 .2.1.2h.4l-.3.2v.2l.3-.3a.2.2 0 0 0 .3.1c.2 0 .2-.1.2-.3Zm-.2.2v.2h-.2v-.1Zm-.6 1v-.2h1l-1 .2m.7.9a.3.3 0 0 0 .1-.2.3.3 0 1 0-.5.2h-.2a.6.6 0 0 1 0-.2.5.5 0 0 1 .4-.5.5.5 0 0 1 .5.5.4.4 0 0 1 0 .2h-.3m-.6.1v.2l.1.1v.3h-.2v.3l1-.3Zm.3.4.3.1-.4.1Zm-.3 2.2a.3.3 0 0 0 .2-.1.3.3 0 0 0-.2-.4.3.3 0 0 0-.4.1.3.3 0 0 0 0 .3L30 27a.5.5 0 0 1 0-.2.5.5 0 0 1 .6-.3.5.5 0 0 1 .3.6.5.5 0 0 1-.1.2h-.2m-.1.4h-.2l-.2.2v-.4H30l-.1.2h-.1l.2-.5.8.4-.2.4h-.2l.2-.3m-.2.7h-.9l.5.4-.1.2-.7-.5v-.1h.8l-.5-.4.1-.2.8.6m-1.6.5.1-.2.5.6.2-.2v.1l-.3.4h-.1l.1-.2-.5-.5m-.3.2-.1.1.2.3-.4-.1-.2.1.5.2a.2.2 0 0 0 0 .3c.1.1.3.1.4 0l.2-.2-.6-.7Zm.2.5.1.2c0 .1-.1.1-.2 0v-.1Zm-.7 0-.2.1v.2l-.2.2-.2-.1H27l.8.7.1-.1-.1-1Zm-.1.5v.3l-.2-.2Zm-1 .2-.2.1.4-.3.4.8-.2.1-.3-.7M31 22l.2.2h.1V22Zm-13 7.5h.3l-.2.1Z" class="c"/><path d="M22.5 30.5h.3l.2-.3a6 6 0 0 1 1.5-.6 8 8 0 0 0 1.6-.4 7.3 7.3 0 0 0 2.1-1.6 6.6 6.6 0 0 0 .6-1.6 7 7 0 0 0 .3-1.6 7 7 0 0 0-.2-1.6 9.1 9.1 0 0 0-1.2-2.2 14.2 14.2 0 0 1 1.1 2.1 6.6 6.6 0 0 1 .3 1.8 9.5 9.5 0 0 1-.8 2.6c-.3.7-.6.8-1.1 1.2a7.6 7.6 0 0 1-1.1.7 7.8 7.8 0 0 1-1.5.5l-1.5.4a3.8 3.8 0 0 0-.6.6" class="d"/><path d="M28.1 27.6v-.3a1.1 1.1 0 0 1-.2-.2.7.7 0 0 1 0-.3 2.1 2.1 0 0 0 0-.2.9.9 0 0 1 0-.2 1 1 0 0 0 .2-.3.3.3 0 0 0 0 .2.5.5 0 0 1 .1.2 1.5 1.5 0 0 0 0 .3.6.6 0 0 1 0 .3v.5" class="d"/><path d="m28.2 27.5.3-.6a.6.6 0 0 1 0-.2.4.4 0 0 0 0-.5.6.6 0 0 1 0-.2l-.2-.2a2.9 2.9 0 0 0 0 .2.7.7 0 0 0 0 .3v.5a1.6 1.6 0 0 1-.1.7M25 29.4h.3a1.7 1.7 0 0 0 .3-.1 1 1 0 0 0 .3-.2l.3-.4H26a.6.6 0 0 0-.4.1 3.3 3.3 0 0 1-.3.2.6.6 0 0 0 0 .2.6.6 0 0 1-.3.2" class="d"/><path d="m24.7 29.6.6-.3a1.4 1.4 0 0 0 .2-.3l.4-.2.3-.5h-.4l-.4.2a.7.7 0 0 0-.3.3l-.1.4a1.6 1.6 0 0 1-.3.4" class="d"/><path d="M24.3 29.6a1.5 1.5 0 0 0 .7-.4l.3-.2a2.4 2.4 0 0 0 .3-.4l.1-.5h-.3a2.5 2.5 0 0 0-.3.3c-.2 0-.2.3-.2.4a.5.5 0 0 0-.1.3l-.1.2-.4.3M25.1 29.5l.5-.2h.2a.5.5 0 0 1 .3-.1 1.3 1.3 0 0 0 .4 0c.1 0 0 .2-.2.3a.7.7 0 0 1-.3 0h-.4a.6.6 0 0 1-.2 0 .5.5 0 0 0-.3 0" class="d"/><path d="m24.8 29.5.6-.1a2.9 2.9 0 0 1 .4 0 2.4 2.4 0 0 1 .4 0 1.6 1.6 0 0 0 .6 0l-.3.4h-1l-.1-.1a1.5 1.5 0 0 0-.6-.2" class="d"/><path d="M24.4 29.7a1.6 1.6 0 0 1 .9-.1 2.2 2.2 0 0 0 .3 0 1 1 0 0 1 .4.1 3.3 3.3 0 0 0 .7.2l-.5.3h-.9L25 30l-.2-.1a.6.6 0 0 0-.3-.2M27 28.6l.3-.3.2-.2a.5.5 0 0 1 .3-.2c.1 0 .3 0 .3-.2.1 0 0 .3 0 .4a.6.6 0 0 1-.3.2l-.3.1a.5.5 0 0 1-.2.1.6.6 0 0 0-.3.1" class="d"/><path d="m26.7 28.7.5-.3.3-.1.5-.2a.8.8 0 0 0 .3-.1v.3l-.4.2-.4.2h-.2a1.7 1.7 0 0 0-.6 0" class="d"/><path d="M26.6 28.8a1.6 1.6 0 0 1 .6-.2 2.3 2.3 0 0 0 .3 0 1 1 0 0 1 .4-.1h.6l-.2.2c-.2 0-.2.2-.4.3a1.3 1.3 0 0 1-.5 0h-.2l-.6-.2M26.6 28.7v-.5a.5.5 0 0 0 0-.3 1 1 0 0 1 .2-.3.8.8 0 0 0 .1-.5s.3.3.3.5a.5.5 0 0 0 0 .2 1 1 0 0 1-.1.4l-.1.3-.4.2" class="d"/><path d="M26.6 28.8a1.3 1.3 0 0 1 .2-.2l.5-.2.3-.5a1.3 1.3 0 0 0 0-.2 1.5 1.5 0 0 0 0-.3l-.2-.3-.1.3a.8.8 0 0 1 0 .2 1.7 1.7 0 0 0-.3.4 3.5 3.5 0 0 1 0 .4 1 1 0 0 1-.4.4M28.1 27.6h.3l.5-.1.2-.3a1.1 1.1 0 0 0 .2-.3l.4-.4a1 1 0 0 0-.6 0 .7.7 0 0 1-.3.2l-.5.5-.2.4" class="d"/><path d="m28.1 27.6.4-.2.5-.4.2-.3.2-.6-.4.1c-.1 0-.3 0-.3.2l-.2.3-.1.3a2.7 2.7 0 0 1-.3.6M28.7 25.9v-.6a.9.9 0 0 0-.2-.2v-.3a1.3 1.3 0 0 1 0-.4 1.2 1.2 0 0 1 .1 0c0 .2.2.2.2.2l.1.2a.5.5 0 0 1 0 .3.7.7 0 0 0 0 .2 2 2 0 0 1-.2.6" class="d"/><path d="M28.7 26v-.3h-.2v-.2a1 1 0 0 1 0-.2c-.1-.1-.2-.3-.1-.4a.7.7 0 0 1 .2 0 .4.4 0 0 1 .1.3.3.3 0 0 0 0 .2.4.4 0 0 1 .1.3.7.7 0 0 0 0 .2M29 24v-.4c0-.1-.1-.4-.3-.5a.4.4 0 0 1 0 .2.8.8 0 0 0 0 .3l.1.2a.3.3 0 0 0 .2.2" class="d"/><path d="M29 24.2V24a1.5 1.5 0 0 1-.1-.2l-.2-.2a.8.8 0 0 1-.2-.2 1 1 0 0 0 0 .5c0 .1 0 .2.2.3a.5.5 0 0 1 .1 0 .3.3 0 0 0 .2.1M28.8 26s0-.2.2-.2a.8.8 0 0 0 .6-.2 1.9 1.9 0 0 0 .1-.2.7.7 0 0 0 .2-.3 2.8 2.8 0 0 0 0-.4.6.6 0 0 0-.1.1l-.3.1-.1.2h-.2a1.3 1.3 0 0 0-.2.4l-.1.2-.1.2" class="d"/><path d="m28.8 25.8.3-.2.3-.3a.7.7 0 0 1 .1-.3.3.3 0 0 0 .2-.3v-.4s0 .2-.2.2l-.2.1-.2.2v.2a.8.8 0 0 0-.1.2 1.6 1.6 0 0 0-.2.6M29 24.5s0-.2.2-.2a.8.8 0 0 0 .5-.4v-.2a.7.7 0 0 0 .1-.3 2.1 2.1 0 0 0 0-.3.6.6 0 0 0-.2 0l-.1.2a1 1 0 0 0-.1.2l-.2.2a1 1 0 0 0 0 .3.3.3 0 0 1-.1.2v.3" class="d"/><path d="m29 24.4.3-.3a.5.5 0 0 0 .2-.3.9.9 0 0 1 0-.4.4.4 0 0 0 0-.3v-.3a1.6 1.6 0 0 0-.2.2l-.1.2-.1.2v.1a.8.8 0 0 0 0 .3 1.4 1.4 0 0 0 0 .6M28.9 22.9l-.2-.1-.3-.3-.1-.2a.5.5 0 0 1-.2-.3s.2 0 .3 0a.6.6 0 0 1 .2.2l.2.2a.4.4 0 0 1 0 .2v.3" class="d"/><path d="M28.9 22.7v-.2a.7.7 0 0 0 0-.4 1.2 1.2 0 0 0-.5-.3 1 1 0 0 0 0 .2l.1.4s.2.3.4.3" class="d"/><path d="M29 22.9v-.3a.3.3 0 0 0 .1-.2 2 2 0 0 0 0-.3l-.2-.4-.1.3v.6l.2.3M28.3 21.6h-.1l-.3-.1a1 1 0 0 0-.2-.2.4.4 0 0 1-.2-.1l-.1-.2a1 1 0 0 1 .3 0l.4.2.2.4" class="d"/><path d="m28.3 21.6-.3-.2-.1-.2a1.2 1.2 0 0 1-.2-.2v-.3a1.8 1.8 0 0 0 .2.1.2.2 0 0 1 .1.1.6.6 0 0 0 .1.2.4.4 0 0 1 .2.5" class="d"/><path d="M28.3 21.6a2 2 0 0 1-.2-.2V21l-.2-.2.1-.3.2.2a.4.4 0 0 1 0 .2 1.6 1.6 0 0 0 .2.1.6.6 0 0 1 0 .3.6.6 0 0 0 0 .2" class="d"/><path d="M26.4 28.6v-.1M26.8 29h.1M27.8 27.4v-.1.1M28.4 27.7v-.1h.1v.1M28.5 25.9v-.2l.1.1v.1M29 26v-.1h.1v.2M28.8 24.4h-.1v-.2l.2.1-.1.1M29.2 22.9v-.2l.1.1v.1M28.6 23v-.1h.1v.2M28 21.8v-.2.2M28.5 21.5v-.2.2M27.6 20.6v-.2.2M29.4 24.4h.1" class="e"/><path d="M26.3 28.9a1.6 1.6 0 0 0 0-.3.1.1 0 0 1 0-.1 1.4 1.4 0 0 1 0 .4ZM26.7 29a2 2 0 0 0-.3 0 1.8 1.8 0 0 1 .3 0ZM27.9 27.8v-.3a.3.3 0 0 1-.2-.1.2.2 0 0 0 .1 0v.4ZM28.4 27.8a.1.1 0 0 1 0-.1.7.7 0 0 0-.3 0 .6.6 0 0 1 .2 0ZM28.7 26.2a1 1 0 0 0-.2-.3l.2.3a1 1 0 0 1 .3-.2 1 1 0 0 0-.3.2ZM29.1 24.6a1.1 1.1 0 0 0-.3-.2l.3.2a1 1 0 0 1 .3-.2l-.3.2ZM29 23.2l-.3-.2a.2.2 0 0 1-.1 0 .2.2 0 0 0 .1 0l.3.2a.7.7 0 0 1 .1-.3h.1a.6.6 0 0 0-.2.3ZM28.1 21.8a.5.5 0 0 1 .3 0 .4.4 0 0 1 0-.4h.1c0 .1-.1.2 0 .4a.6.6 0 0 0-.3 0H28Z"/><path d="M21.5 28.6v-.2h-.1v.2M21 29h.1-.1M20 27.4h.1v-.1H20v.1M19.3 25.9h.1v-.2l-.1.1v.1M18.8 26V26v.2M19 24.4h.2l-.1-.2-.1.1v.1M18.6 22.9h.1v-.2l-.2.1.1.1M19.2 23v-.1.2M19.8 21.8v-.2l-.1.1v.1M19.3 21.5l.1-.1M18.4 24.4h.1-.1" class="e"/><path d="M21.5 28.9a1.5 1.5 0 0 1 0-.4 1.6 1.6 0 0 0 0 .4ZM21.1 29a1.9 1.9 0 0 1 .3 0 2.1 2.1 0 0 0-.3 0ZM20 27.8v-.4a.2.2 0 0 0 .1 0l-.1.4ZM19.5 27.8v-.1a.7.7 0 0 1 .3 0 .8.8 0 0 0-.3 0ZM19.2 26.2a1.1 1.1 0 0 0-.3-.1h-.1a1 1 0 0 1 .4 0s0-.2.2-.2a1 1 0 0 0-.2.3ZM18.8 24.6a1 1 0 0 0-.3-.2.1.1 0 0 1-.1 0h.1a1.3 1.3 0 0 1 .3.2l.3-.2a1 1 0 0 0-.3.2ZM18.9 23.2a.6.6 0 0 0-.2-.3.7.7 0 0 1 .2.3l.2-.2a.2.2 0 0 0 .1 0l-.3.2ZM19.8 21.8h-.1a.6.6 0 0 0-.3 0v-.3h-.1a.4.4 0 0 1 .2.2.5.5 0 0 1 .2 0l.1.1Z"/><path d="M25.4 30.5H25l-.2-.3a5.9 5.9 0 0 0-1.4-.6 7.6 7.6 0 0 1-1.6-.4 7.3 7.3 0 0 1-2.1-1.6A6.7 6.7 0 0 1 19 26a7.2 7.2 0 0 1-.4-1.6 7 7 0 0 1 .2-1.6 9 9 0 0 1 1.3-2.2 14 14 0 0 0-1.2 2.1 6.6 6.6 0 0 0-.2 1.8 9.6 9.6 0 0 0 .7 2.6c.4.7.7.8 1.2 1.2a7.9 7.9 0 0 0 1 .7 7.8 7.8 0 0 0 1.6.5l1.5.4a3.5 3.5 0 0 1 .6.6" class="d"/><path d="m19.7 27.6.1-.3a1 1 0 0 0 .2-.2.7.7 0 0 0 0-.3 2.1 2.1 0 0 1 0-.2.9.9 0 0 0 0-.2 1.2 1.2 0 0 1-.3-.3.2.2 0 0 1 0 .2.5.5 0 0 0 0 .2 1.5 1.5 0 0 1 0 .3.6.6 0 0 0-.1.3l.1.5" class="d"/><path d="m19.7 27.5-.3-.6a.5.5 0 0 0 0-.2.4.4 0 0 1 0-.5.7.7 0 0 0 0-.2l.2-.2v.2a1 1 0 0 1 0 .3v.5a1.8 1.8 0 0 0 0 .7M22.9 29.4h-.4a1.5 1.5 0 0 1-.2-.1 1 1 0 0 1-.4-.2l-.2-.4h.2a.7.7 0 0 1 .3.1 2.6 2.6 0 0 0 .3.2.5.5 0 0 1 .1.2.6.6 0 0 0 .3.2" class="d"/><path d="m23.2 29.6-.7-.3a1.7 1.7 0 0 1-.2-.3l-.3-.2-.3-.5h.4l.4.2a.8.8 0 0 1 .2.3 3.6 3.6 0 0 0 .2.4 1.6 1.6 0 0 0 .3.4" class="d"/><path d="M23.5 29.6a1.5 1.5 0 0 1-.7-.4l-.2-.2a1.9 1.9 0 0 1-.3-.4 4.6 4.6 0 0 1-.2-.5h.4a2.5 2.5 0 0 1 .3.3l.2.4a.5.5 0 0 1 0 .3l.2.2.3.3M22.7 29.5l-.4-.2H22a.5.5 0 0 0-.3-.1 1.3 1.3 0 0 1-.5 0l.2.3a.7.7 0 0 0 .4 0h.3a.6.6 0 0 0 .2 0 .5.5 0 0 1 .3 0" class="d"/><path d="m23 29.5-.5-.1a3.2 3.2 0 0 0-.4 0 2.4 2.4 0 0 0-.5 0 1.6 1.6 0 0 1-.5 0l.3.4h.9l.2-.1a1.4 1.4 0 0 1 .5-.2" class="d"/><path d="M23.4 29.7a1.6 1.6 0 0 0-.8-.1 2 2 0 0 1-.4 0 1 1 0 0 0-.4.1 3 3 0 0 1-.6.2l.4.3h1l.3-.2.1-.1a.6.6 0 0 1 .4-.2M20.9 28.6l-.3-.3-.3-.2a.6.6 0 0 0-.3-.2.7.7 0 0 1-.3-.2v.4a.6.6 0 0 0 .4.2l.3.1a.5.5 0 0 0 .2.1.6.6 0 0 1 .3.1" class="d"/><path d="m21.1 28.7-.5-.3-.3-.1-.4-.2a.7.7 0 0 1-.3-.1v.3c.3.3.1.2.4.2l.4.2h.2a1.7 1.7 0 0 1 .5 0" class="d"/><path d="M21.3 28.8a1.6 1.6 0 0 0-.6-.2 2.5 2.5 0 0 1-.4 0 1 1 0 0 0-.3-.1h-.6c-.1 0 0 .2.2.2s.1.2.3.3a1.3 1.3 0 0 0 .5 0h.3l.6-.2M21.3 28.7v-.5a.4.4 0 0 1 0-.3.8.8 0 0 0-.2-.3.9.9 0 0 1-.2-.5s-.2.3-.2.5a1 1 0 0 1 0 .2 1 1 0 0 0 .1.4v.3c.1 0 .4.3.5.2" class="d"/><path d="M21.3 28.8a1.1 1.1 0 0 0-.3-.2l-.5-.2-.3-.5v-.2a1 1 0 0 1 0-.3l.3-.3v.3a.8.8 0 0 0 .1.2 1.2 1.2 0 0 1 .2.4l.1.4a1.2 1.2 0 0 0 .3.4M19.7 27.6h-.3l-.4-.1a2.8 2.8 0 0 0-.3-.3 1.4 1.4 0 0 1-.2-.3 1.2 1.2 0 0 0-.3-.4 1 1 0 0 1 .6 0 .7.7 0 0 0 .3.2l.4.5a3 3 0 0 0 .2.4" class="d"/><path d="m19.7 27.6-.4-.2a.8.8 0 0 1-.4-.4l-.2-.3-.3-.6.4.1c.2 0 .3 0 .4.2 0 .2.1.3.2.3l.1.3a2.6 2.6 0 0 0 .2.6M19.1 25.9v-.6a.9.9 0 0 1 .2-.2l.1-.3a1.3 1.3 0 0 0 0-.4.9.9 0 0 0-.2 0l-.1.2-.1.2a.5.5 0 0 0 0 .3.7.7 0 0 1 0 .2 1.8 1.8 0 0 0 .1.6" class="d"/><path d="M19.1 26v-.3h.2v-.2a1 1 0 0 0 .1-.2c0-.1.1-.3 0-.4a.9.9 0 0 0-.1 0 .3.3 0 0 0-.2.3.3.3 0 0 1 0 .2.4.4 0 0 0 0 .3.6.6 0 0 1 0 .2M18.8 24v-.4l.4-.5a.6.6 0 0 0 0 .2.5.5 0 0 1 0 .3l-.2.2a.3.3 0 0 1-.1.2.8.8 0 0 1-.1 0" class="d"/><path d="M18.8 24.2V24l.2-.2.2-.2a.8.8 0 0 0 .2-.2 1 1 0 0 1 0 .5l-.2.3a.4.4 0 0 0-.2 0 .3.3 0 0 1-.1.1.2.2 0 0 0-.1 0M19 26s.1-.2-.1-.2a.8.8 0 0 1-.6-.2 1.5 1.5 0 0 1-.2-.2.6.6 0 0 1-.1-.3 2.8 2.8 0 0 1 0-.4.5.5 0 0 1 .1.1l.2.1.2.2h.2a1.1 1.1 0 0 1 .1.4.3.3 0 0 0 .2.2v.2" class="d"/><path d="m19 25.8-.2-.2-.4-.3a.7.7 0 0 0 0-.3.3.3 0 0 1-.2-.3v-.4l.1.2.3.1.1.2a.5.5 0 0 0 0 .2.8.8 0 0 1 .2.2 1.6 1.6 0 0 1 .1.6M18.8 24.5s0-.2-.2-.2a.8.8 0 0 1-.4-.4l-.1-.2a.7.7 0 0 1 0-.3 2.1 2.1 0 0 1 0-.3.6.6 0 0 1 .1 0l.2.2a1 1 0 0 1 0 .2l.2.2a.9.9 0 0 1 0 .3.3.3 0 0 0 .2.2v.3" class="d"/><path d="m18.8 24.4-.2-.3a.5.5 0 0 1-.2-.3 1.2 1.2 0 0 0 0-.4.4.4 0 0 1-.1-.3l.1-.3.1.2.2.2v.2c.1.1 0 0 0 .1a.8.8 0 0 1 .1.3 1.5 1.5 0 0 1 0 .6M19 22.9l.1-.1.3-.3.2-.2.1-.3h-.2a.6.6 0 0 0-.3.2l-.1.2a.4.4 0 0 0-.1.2v.3" class="d"/><path d="M19 22.7v-.2a.7.7 0 0 1 0-.4 1.2 1.2 0 0 1 .4-.3 1.1 1.1 0 0 1 0 .2v.4l-.4.3" class="d"/><path d="M18.9 22.9v-.3a.3.3 0 0 1-.2-.2.8.8 0 0 1 0-.3s.3-.3.2-.4l.2.3v.6l-.2.3M19.6 21.6l.4-.1a1 1 0 0 1 .2-.2.5.5 0 0 0 .1-.1l.2-.2a1 1 0 0 0-.3 0l-.4.2a3.3 3.3 0 0 1-.2.4" class="d"/><path d="m19.6 21.6.3-.2.1-.2a1.7 1.7 0 0 0 .1-.2v-.3l-.1.1a.2.2 0 0 0-.2.1.6.6 0 0 1 0 .2.4.4 0 0 0-.2.5" class="d"/><path d="m19.5 21.6.3-.2V21l.1-.2v-.3a1.7 1.7 0 0 0-.2.2.3.3 0 0 0-.1.2 1.6 1.6 0 0 1 0 .1.6.6 0 0 0 0 .3.6.6 0 0 1 0 .2" class="d"/><path d="M23.9 29.5s0-.2.2 0v.3H24a1.8 1.8 0 0 1 0-.3" class="f"/><path d="m24 29.4.2-.6s.3-.1.4 0v.7a.4.4 0 0 1-.4.2v-.1a.7.7 0 0 0 .2-.1s.1 0 0-.1V29h-.2l-.1.4m-.2.4s-.5.3-.3.7a.2.2 0 0 1-.1 0s-.1 0 0 .2a.5.5 0 0 1-.1-.7c.2-.4.5-.3.5-.3" class="f"/><path d="M23.9 29.5a.7.7 0 0 0-.6 0 1.6 1.6 0 0 1 0-.6.1.1 0 0 1 0-.1s-.1-.1 0 .3a1.4 1.4 0 0 0 0 .6 2 2 0 0 0 .6 0v-.2" class="f"/><path d="m23.9 29.5-.6-.7h.2a.3.3 0 0 1 .3 0 4.5 4.5 0 0 1 .2.6.2.2 0 0 0-.1.1" class="f"/><path d="M23.9 29.5a3.1 3.1 0 0 1-.4-.1 1.1 1.1 0 0 1 0-.5s-.1-.1-.2-.1v.2a2.5 2.5 0 0 0 0 .5.7.7 0 0 1 .6 0" class="g"/><path d="M24.2 29.8a.4.4 0 0 1 .1.3c0 .2 0 .5.2.6l.1-.2.2.2a.8.8 0 0 1 0-.3 1 1 0 0 0-.2-.4 1 1 0 0 0-.4-.3" class="f"/><path d="m24.2 29-.1.4v.2a.1.1 0 0 0 0-.1 3.5 3.5 0 0 1 .2-.6" class="g"/><path d="M23.9 29.7a.6.6 0 0 0-.4.3s0-.1.4-.3m.3 0 .2.2a2.3 2.3 0 0 0-.2-.1m-.3-.2a2.7 2.7 0 0 1-.5 0 2 2 0 0 0 .5 0m.6-.3v.2a1.5 1.5 0 0 0 .2-.4c0-.2-.1-.2-.2-.2v.2a2.3 2.3 0 0 0 0 .2M24 29.4s.2.4.1.4 0 0 0-.2l-.1-.2" class="h"/><path d="M23.5 20.4a4.6 4.6 0 0 1 0-.7 5.2 5.2 0 0 1 .3-1v-.1l.1-.1a.8.8 0 0 1 .1.3 5 5 0 0 1 0 .5 2.3 2.3 0 0 1-.2.4v.2l-.3.5" class="f"/><path d="M24 19.7a.7.7 0 0 0 0-.4v-.5.5a2.3 2.3 0 0 1-.2.4v.2l.1-.2" class="b"/><path d="M24 19.7a.7.7 0 0 0 0-.4 1.6 1.6 0 0 1 .1.5v.1l-.1-.2" class="f"/><path d="M24 18.6v-.1a.5.5 0 0 1 .2.2s-.1.1-.2 0a.3.3 0 0 1 0-.1M23.9 18.5a.4.4 0 0 1 0 .3l-.2-.1v-.1h.2" class="c"/><path d="m24 18.5.1-.1h.1c0 .2-.1.1-.2 0a1.3 1.3 0 0 1 .1.2l.1-.1v-.2a.3.3 0 0 0-.3.2" class="c"/><path d="M24 18.5c-.1-.1-.2-.2-.3-.1 0 .2.1.1.2 0l-.1.2a.1.1 0 0 1-.2-.1l.2-.2a.3.3 0 0 1 .2.2" class="c"/><path d="M24 18.4h-.1v.1" class="c"/><path d="M24 18a1 1 0 0 0 0 .3 1 1 0 0 0 0 .1.5.5 0 0 0-.2-.1 1.1 1.1 0 0 0 .1-.4" class="c"/><path d="M25.7 22.6a2.3 2.3 0 0 0 0-.4 2.4 2.4 0 0 0 0-.5l-.3.4.3.5m1.5.6v-.4a8.5 8.5 0 0 0 0-1 9.5 9.5 0 0 1 0-1.3v-.3l-.8.8v1.4a4.4 4.4 0 0 1-.2 1l.2.3.8-.5" class="f"/><path d="m25.4 22 1.7-1.9-1.7 2" class="c"/><path d="M27.1 20.1 27 20h-.1l.1.1h.1-.2V20h.1a.3.3 0 0 1 .1.2" class="c"/><path d="M27.1 20.2h.2v.1h-.1a.1.1 0 0 0 0-.1v.1h.2a.2.2 0 0 0 0-.1.3.3 0 0 0-.3 0M27.1 20.1v.1c0-.1 0 0 0 0M27.5 19.8a1.3 1.3 0 0 1-.4.1.5.5 0 0 1 0 .2.5.5 0 0 1 .3 0 .8.8 0 0 1 0-.3" class="c"/><path d="m27.2 20.3-.1-.1v.1a.5.5 0 0 0 0 .2.2.2 0 0 0 .2 0v-.1l-.1-.1" class="c"/><path d="M26.7 24.3a2 2 0 0 0 .1-.4 1.6 1.6 0 0 0 0-.4l-.4.3.3.5" class="f"/><path d="m26.4 23.7 2-1.3v.1l-2 1.3" class="c"/><path d="M27.9 26.3a.4.4 0 0 0 .1-.2l.1-.3v-.3a3.7 3.7 0 0 0 .2-.5 8.6 8.6 0 0 0 .1-1 7 7 0 0 1 0-1.2 2.6 2.6 0 0 0 0-.3l-.9.6v1.2a2.8 2.8 0 0 1-.2 1l.6 1" class="f"/><path d="M28.4 22.4v-.2a.2.2 0 0 0-.2 0l.1.2h-.1v-.2a.2.2 0 0 1 .2 0 .3.3 0 0 1 0 .3" class="c"/><path d="M28.4 22.5h.2a.3.3 0 0 1 0 .1h-.2a.1.1 0 0 0 0-.1v.1s.1.1.2 0a.3.3 0 0 0-.2-.2M28.4 22.4c0 .1 0 .1 0 0M28.8 22.2a1.2 1.2 0 0 1-.3 0 .6.6 0 0 1 0 .2.6.6 0 0 1 .1 0 .8.8 0 0 1 .2-.2" class="c"/><path d="M28.4 22.6v-.1a.4.4 0 0 0-.1.3.2.2 0 0 0 .2 0v-.1a.2.2 0 0 0 0-.1" class="c"/><path d="M26.5 26.6a2.3 2.3 0 0 1-.5.3 1 1 0 0 1-.5.1 1.9 1.9 0 0 1-.5 0h-.2a2.5 2.5 0 0 0-.2-.1.5.5 0 0 1-.3-.2.2.2 0 0 1 0-.1H24v.2h.1a.5.5 0 0 0 0 .1.2.2 0 0 0 .2 0 2 2 0 0 1 .3.2h.2a1.8 1.8 0 0 0 .2 0l.2.1a2.3 2.3 0 0 0 .7 0 1.2 1.2 0 0 0 .4 0l.6-.3a.8.8 0 0 0 .1 0 2.7 2.7 0 0 1 .4-.3h-1" class="f"/><path d="M25.4 26.6h-1.2a.2.2 0 0 0 0 .1.5.5 0 0 0 .4.2 2 2 0 0 0 .3 0 1.5 1.5 0 0 0 .5-.3M22.2 22.6a2.4 2.4 0 0 1-.1-.4 2 2 0 0 1 0-.5l.4.4-.3.5m-1.6.6v-.4a8.5 8.5 0 0 1 0-1 8.6 8.6 0 0 0 .1-1.3 3 3 0 0 1 0-.3l.8.8-.1 1.4a4.4 4.4 0 0 0 .2 1l-.1.3-.9-.5" class="f"/><path d="m22.5 22-1.8-1.9 1.8 2" class="c"/><path d="M20.8 20.1V20a.4.4 0 0 1 .1 0v.1h-.1.1s.1 0 0-.1a.3.3 0 0 0-.2.2" class="c"/><path d="M20.7 20.2h-.2v.1h.2a.1.1 0 0 1 0-.1v.1a.1.1 0 0 1-.2 0 .2.2 0 0 1 0-.1.2.2 0 0 1 .3 0M20.7 20.1v.1c0-.1 0 0 0 0M20.4 19.8a1.3 1.3 0 0 0 .3.1.5.5 0 0 0 0 .2.5.5 0 0 0-.2 0 .8.8 0 0 0-.1-.3" class="c"/><path d="M20.7 20.3a1 1 0 0 0 0-.1v.1a.5.5 0 0 1 0 .2.2.2 0 0 1-.1 0v-.1a.4.4 0 0 1 0-.1" class="c"/><path d="M24 26.6a5 5 0 0 1-.2.6v.4a.3.3 0 0 1-.1 0l-.1-.1a.2.2 0 0 1-.2-.1.3.3 0 0 1 0-.1.5.5 0 0 1 .1-.2 27.3 27.3 0 0 1 .1-.1v-.1l.2-.2a.3.3 0 0 0 0-.1h.1M24 26.6v.6c0 .1.1.3 0 .4a.2.2 0 0 0 .2 0l.1-.1a.2.2 0 0 0 .1-.2.5.5 0 0 0 0-.2.1.1 0 0 0-.1-.1l-.1-.1a.6.6 0 0 1-.1-.2.3.3 0 0 1 0-.1M21.1 24.3a2 2 0 0 1 0-.4 1.6 1.6 0 0 1 0-.4l.3.3-.2.5" class="f"/><path d="m21.5 23.7-2-1.3v.1l2 1.3" class="c"/><path d="M20 26.3a.4.4 0 0 1-.2-.2 1.5 1.5 0 0 1 0-.3l-.1-.3-.2-.5a8.7 8.7 0 0 1 0-1 6.9 6.9 0 0 0 0-1.2 2.6 2.6 0 0 1 0-.3l.8.6v1.2a2.6 2.6 0 0 0 .3 1l-.6 1" class="f"/><path d="M19.5 22.4v-.2a.2.2 0 0 1 .1 0v.2h-.1.2v-.2a.2.2 0 0 0-.2 0 .3.3 0 0 0 0 .3" class="c"/><path d="M19.5 22.5h-.2a.3.3 0 0 0 0 .1h.1v-.1.1s0 .1-.1 0a.3.3 0 0 1 .2-.2M19.4 22.4h.1M19 22.2a1.2 1.2 0 0 0 .4 0 .5.5 0 0 0 0 .2.6.6 0 0 0-.2 0 .8.8 0 0 0-.2-.2M19.5 22.6v-.1a.4.4 0 0 1 0 .3c-.1 0-.1 0 0-.1a.5.5 0 0 1 0-.1" class="c"/><path d="M21.4 26.6a2.2 2.2 0 0 0 .5.3 1 1 0 0 0 .5.1 1.9 1.9 0 0 0 .5 0h.1a2.2 2.2 0 0 1 .3-.1.5.5 0 0 0 .3-.2.3.3 0 0 0 0-.1h.2v.2a.2.2 0 0 1-.1 0l-.1.1a.2.2 0 0 1-.1 0 2.2 2.2 0 0 0-.3.2h-.4l-.2.1a2.3 2.3 0 0 1-.7 0 1.2 1.2 0 0 1-.4 0l-.6-.3a1.4 1.4 0 0 1-.2 0 3 3 0 0 0-.4-.3h1" class="f"/><path d="M22.5 26.6h1.1a.2.2 0 0 1 0 .1.5.5 0 0 1-.3.2 2 2 0 0 1-.4 0 1.5 1.5 0 0 1-.4-.3" class="f"/><path d="m28 26.6-4-7-4.2 7Z" class="c"/><path d="M27.7 26.4 23.9 20l-3.7 6.3Z" class="b"/><path fill="#0088e8" d="m21.3 24.5-1.1 1.9h7.5l-1.1-1.9h-5.3"/><path d="M26.8 25.6a.8.8 0 0 1-.3 0 .8.8 0 0 0-.2 0 .6.6 0 0 0-.3 0 1.2 1.2 0 0 0-.2 0 .8.8 0 0 1-.3 0 1 1 0 0 1-.4 0 .6.6 0 0 0-.5 0 1.4 1.4 0 0 1-.1 0 .6.6 0 0 1-.4 0 .6.6 0 0 0 .4 0 1.4 1.4 0 0 0 .1 0 .8.8 0 0 1 .4-.1.8.8 0 0 1 .1 0 1 1 0 0 0 .4.1.8.8 0 0 0 .3 0 1.2 1.2 0 0 1 .2-.1.7.7 0 0 1 .3 0 .8.8 0 0 1 .2 0 .8.8 0 0 0 .4.1h-.1Z"/><path d="M27.2 26a.7.7 0 0 1-.3-.2.7.7 0 0 0-.1 0 .6.6 0 0 0-.4 0 1 1 0 0 0-.1 0 .7.7 0 0 1-.4.1 1 1 0 0 1-.3 0 .7.7 0 0 0-.2-.1.7.7 0 0 0-.4 0 1.4 1.4 0 0 1-.1 0 .6.6 0 0 1-.3 0 .2.2 0 0 1-.1 0 .6.6 0 0 0-.2 0 1 1 0 0 0-.4 0 .8.8 0 0 1-.3 0 .8.8 0 0 1-.2 0 1.7 1.7 0 0 1-.2 0 1 1 0 0 0-.4 0 .8.8 0 0 0-.2 0 .8.8 0 0 1-.3.1 1.3 1.3 0 0 1-.4 0l-.1-.1a.6.6 0 0 0-.5 0 .7.7 0 0 1 .5 0h.1a1.2 1.2 0 0 0 .4 0 .8.8 0 0 0 .2 0 .8.8 0 0 1 .3 0 1 1 0 0 1 .4 0 1.6 1.6 0 0 0 .2 0 .7.7 0 0 0 .4 0 1 1 0 0 1 .5 0 .6.6 0 0 1 .2 0 .6.6 0 0 0 .4 0h.1a.7.7 0 0 1 .4-.1.7.7 0 0 1 .2 0 1 1 0 0 0 .3.1.7.7 0 0 0 .3 0 1 1 0 0 1 .2 0 .7.7 0 0 1 .3 0 .8.8 0 0 1 .2 0 .7.7 0 0 0 .4 0v.1Z" class="b"/><path d="M26.8 25.7a.8.8 0 0 1-.3 0 1 1 0 0 0-.2-.1.6.6 0 0 0-.3 0 1.2 1.2 0 0 0-.2 0 .8.8 0 0 1-.3 0 1 1 0 0 1-.4 0 .8.8 0 0 0-.1 0 .8.8 0 0 0-.4 0h-.1a1 1 0 0 1-.4 0 .7.7 0 0 0-.3 0 1.2 1.2 0 0 0-.4 0 1 1 0 0 1-.2 0 .7.7 0 0 1-.2 0 1.8 1.8 0 0 1-.3 0 1 1 0 0 0-.3 0 .8.8 0 0 0-.3 0 .9.9 0 0 1-.2 0 1.5 1.5 0 0 1-.4 0h-.2a.7.7 0 0 0-.5 0 .8.8 0 0 1 .5 0h.2a1.4 1.4 0 0 0 .4 0 .9.9 0 0 0 .2 0 .8.8 0 0 1 .3 0 1 1 0 0 1 .3 0 1.8 1.8 0 0 0 .3 0 .7.7 0 0 0 .2 0 1 1 0 0 0 .2 0 1.2 1.2 0 0 1 .4 0 .7.7 0 0 1 .3 0 .9.9 0 0 0 .4 0h.1a.8.8 0 0 1 .4 0 .8.8 0 0 1 .2 0 1 1 0 0 0 .3 0 .8.8 0 0 0 .3 0 1.2 1.2 0 0 1 .2 0 .7.7 0 0 1 .3 0 1 1 0 0 1 .2 0 .8.8 0 0 0 .4 0h-.1ZM26.4 26.3a.7.7 0 0 1-.3 0 .7.7 0 0 0-.1-.1h-.1a.5.5 0 0 0-.3 0 1 1 0 0 0-.2 0 .7.7 0 0 1-.3.1 1 1 0 0 1-.3 0 .7.7 0 0 0-.2-.2.6.6 0 0 0-.4.1h-.1a.7.7 0 0 1-.4 0 .5.5 0 0 0-.3 0 1 1 0 0 0-.3 0 1.3 1.3 0 0 1-.3.1.8.8 0 0 1-.2 0 1.6 1.6 0 0 1-.3 0 .8.8 0 0 0-.3-.1.6.6 0 0 0-.2 0 .7.7 0 0 1-.3.1 1 1 0 0 1-.4 0l-.2-.1a.6.6 0 0 0-.4 0 .7.7 0 0 1 .5 0h.1a1 1 0 0 0 .4 0 .6.6 0 0 0 .2 0 .7.7 0 0 1 .3-.1.9.9 0 0 1 .4 0 1.6 1.6 0 0 0 .2.1.7.7 0 0 0 .2 0 1.2 1.2 0 0 0 .2 0 1 1 0 0 1 .4-.1.6.6 0 0 1 .3.1.6.6 0 0 0 .4 0h.1a.7.7 0 0 1 .4-.1.7.7 0 0 1 .2 0 .9.9 0 0 0 .3.1.6.6 0 0 0 .3 0 1 1 0 0 1 .2-.1.6.6 0 0 1 .3 0 .8.8 0 0 1 .2 0 .6.6 0 0 0 .4.1v.1ZM21.6 26a1.4 1.4 0 0 1-.4-.1H21a.8.8 0 0 0-.5 0 .8.8 0 0 1 .6 0h.1a1.4 1.4 0 0 0 .4 0 .7.7 0 0 0 .2 0 .7.7 0 0 1-.2 0Z" class="b"/><path d="M27.6 26.4a1 1 0 0 1-.4-.1.9.9 0 0 0-.2 0 .8.8 0 0 0-.3 0h-.1a.7.7 0 0 1-.4 0 .7.7 0 0 0-.3 0 1 1 0 0 0-.4 0 1.1 1.1 0 0 1-.2 0 1.1 1.1 0 0 0 .2 0 1 1 0 0 1 .4 0 .7.7 0 0 1 .3 0 .7.7 0 0 0 .3 0h.2a.8.8 0 0 1 .4 0 1 1 0 0 1 .1 0 1 1 0 0 0 .4 0Zm-6-.8a.8.8 0 0 1 .4-.1h.2a1 1 0 0 0 .1 0 .6.6 0 0 0 .3 0 .6.6 0 0 1-.3 0 1 1 0 0 1-.1 0H22a.7.7 0 0 0-.3 0Z"/><path d="M27 25.6a.8.8 0 0 1-.3-.1.8.8 0 0 0-.1 0 .6.6 0 0 0-.4 0 1.2 1.2 0 0 0-.2 0 .8.8 0 0 1-.3 0 .8.8 0 0 0 .3 0 1.2 1.2 0 0 1 .2-.1.7.7 0 0 1 .3 0 .9.9 0 0 1 .2 0 .8.8 0 0 0 .4.1Z" class="b"/><path d="M21.5 26.3a1.5 1.5 0 0 1-.4 0H21a.7.7 0 0 0-.6 0 .7.7 0 0 1 .6-.1h.1a1.4 1.4 0 0 0 .4 0 .9.9 0 0 0 .3 0 .9.9 0 0 1 .2 0 1 1 0 0 1 .4 0 1.8 1.8 0 0 0 .2 0 .7.7 0 0 0 .2 0 .8.8 0 0 0 .3 0 1 1 0 0 1 .4 0 .6.6 0 0 1 .2 0 .6.6 0 0 0-.2 0 1 1 0 0 0-.4 0 .9.9 0 0 1-.3 0 .7.7 0 0 1-.2 0 1.8 1.8 0 0 1-.2 0 1 1 0 0 0-.4 0 .9.9 0 0 0-.2 0 .9.9 0 0 1-.3.1ZM26.9 26a.8.8 0 0 1-.3 0 .8.8 0 0 0-.2 0 .7.7 0 0 0-.3 0 1.2 1.2 0 0 0-.2 0 .8.8 0 0 1-.3 0 1 1 0 0 1-.4 0 1 1 0 0 0-.1 0 .8.8 0 0 0-.4 0 1.5 1.5 0 0 1-.1 0 .7.7 0 0 1-.4 0 .7.7 0 0 0-.3 0 1.2 1.2 0 0 0-.4 0 1 1 0 0 1-.2 0 .8.8 0 0 1-.3 0h-.2a1 1 0 0 0-.3 0 .8.8 0 0 0-.3 0 .9.9 0 0 1-.2 0 1.2 1.2 0 0 1-.4 0h-.2a.7.7 0 0 0-.5 0 .8.8 0 0 1 .5-.1h.2a1.1 1.1 0 0 0 .4 0 .8.8 0 0 0 .2 0 .8.8 0 0 1 .3 0 1.1 1.1 0 0 1 .4 0h.2a.7.7 0 0 0 .2 0 1 1 0 0 0 .2 0 1.2 1.2 0 0 1 .4 0 .7.7 0 0 1 .3 0 .7.7 0 0 0 .4 0 1.5 1.5 0 0 0 .1 0 .9.9 0 0 1 .4 0 1 1 0 0 1 .2 0 1 1 0 0 0 .3 0 .8.8 0 0 0 .3 0 1.2 1.2 0 0 1 .2 0 .7.7 0 0 1 .4 0 .9.9 0 0 1 .1 0 .7.7 0 0 0 .4 0v.2h-.1Z"/><path d="M24 23.3a.5.5 0 1 0-.6-.5.5.5 0 0 0 .5.5" class="b"/><path d="M23.8 24v-.7Zm-.3 0 .3-.8Zm.7 0-.2-.7.2.7Zm-1 0 .5-.8Zm1.2 0-.3-.8.4.7Zm.3-.2-.5-.6.5.6Zm-.2 0-.3-.6.3.6Zm-1 0 .2-.6Zm.2 0 .1-.5Zm-.6 0 .5-.7Zm.1-.1.4-.5Zm1.7 0-.6-.6.6.6Zm-2 0 .6-.6Zm1.3 0-.1-.5.1.4Zm.5 0-.4-.6.4.5Zm-.7-.2v-.2.2Zm-1 0 .5-.5Zm2.1 0-.2-.2.2.1Zm-.4-.2-.4-.2.4.2Zm-1.5-.1.3-.2Zm2 0H25V23h.2Zm-2.6 0 .2-.1Zm2 0-.2-.2.2.1Zm0-.1-.2-.1h.2Zm-1.4 0 .3-.1Zm1.5 0-.3-.2h.3Zm-1.5-.1.2-.1Zm1.5 0-.3-.1h.3Zm-1.5 0 .2-.1Zm2 0-.1-.1h.2Zm-2.6-.1h.2Zm2.1 0h-.3v-.1h.3Zm-1.5 0 .2-.1Zm.2-.1h-.3.3Zm1.3 0h-.3.3Zm-.3 0v-.1h.3Zm-1 0-.2-.1h.2Zm1-.1.3-.1Zm-1 0-.2-.1h.2Zm1.7 0h.2Zm-2.3 0h-.2.2Zm1.6 0v-.1h.3Zm-1-.1h-.2v-.1h.2Zm1 0 .2-.2Zm-1 0-.2-.2.3.1Zm1 0v-.1l.2-.1Zm-1-.1-.2-.1h.3Zm1 0 .2-.2Zm-.9 0-.2-.2.2.2Zm0 0-.2-.3.3.2Zm.8 0 .2-.3Zm.7 0v-.1h.2Zm-2.2-.1h-.2.2Zm.8 0-.2-.2.2.2Zm.7 0 .1-.2Zm0 0V22Zm-.7 0-.1-.3.1.2Zm.6 0 .1-.3Zm-.5 0-.2-.3.2.2Zm0-.1V22v.3Zm.4 0 .1-.3Zm0 0V22Zm-.3 0-.1-.3v.3Zm0 0V22v.3Zm.2 0V22h.1Zm0 0V22Zm-.1 0V22v.3Zm0 0V22Zm1-.1.2-.1Zm-2 0-.1-.1h.1Zm1.9-.2.1-.2ZM23 22l-.2-.1h.2Zm1.5-.2.1-.1Zm-1.3 0-.2-.1.2.1Zm1.1 0v-.3Zm-1 0v-.3.2Zm.3-.2v-.2.2Zm.5 0v-.2Zm-.3 0v-.2Z"/><path d="M24.2 23a.4.4 0 0 0-.1 0 1.5 1.5 0 0 0-.3 0 .6.6 0 0 0 .3 0 .5.5 0 0 0 .1 0Z" class="j"/><path d="M23.7 23a.8.8 0 0 1 .1-.4s0 .1 0 0c-.1 0-.1 0 0 0v-.1a.2.2 0 0 1 .2 0l.1.2a.4.4 0 0 1 .1.2.4.4 0 0 0-.1 0 1.5 1.5 0 0 0-.3 0 .2.2 0 0 0 0 .1Z" class="j"/><path fill="none" stroke="#000" stroke-miterlimit="1.2" stroke-width=".2" d="M23.7 23a.6.6 0 0 1 .3-.1h.2"/><path fill="#fc0" stroke="#000" stroke-miterlimit="1.2" stroke-width=".2" d="M24 23.7V23 24.3v-.6Z"/><path d="m21 25 .2-.1v-.1a1.6 1.6 0 0 1 .2-.1 1 1 0 0 0 .4-.3 1.8 1.8 0 0 1 .5-.6.3.3 0 0 1 .3 0 .3.3 0 0 1 .1.1 1.2 1.2 0 0 0 .4.2c.2 0 .2.1.3.3a.8.8 0 0 0 .2 0v.1l.3.2.3.3a1 1 0 0 0 .3.3 3 3 0 0 1 .3.1H20.7l.3-.4" class="d"/><path d="m24.7 25.4-.2-.1a1 1 0 0 1-.2-.2V25l-.4-.3-.2-.2a.8.8 0 0 1-.3-.1l-.2-.2.2-.1a.3.3 0 0 1 .2 0 1.1 1.1 0 0 0 .4.2c.2 0 .2.1.3.2a.5.5 0 0 0 .1.1 1.3 1.3 0 0 1 .2.2l.3.2a1 1 0 0 0 .3.3l.2.1h-.6" class="d"/><path d="m24 24.3.3.2a.6.6 0 0 0 .1.1 1.2 1.2 0 0 1 .2.2q.2 0 .3.2a1 1 0 0 0 .3.3 1.5 1.5 0 0 1 .2 0h.5-.2a.8.8 0 0 1-.2-.2l-.3-.3-.2-.1a.9.9 0 0 1-.1-.2l-.3-.1a1.1 1.1 0 0 1-.3-.2.3.3 0 0 0-.3 0 1 1 0 0 0-.1 0" class="d"/><path d="M24.8 24.5a.9.9 0 0 0 .2.1l.2.2.3.2a.8.8 0 0 0 .2.2l.1.1h.6a1.3 1.3 0 0 0-.1-.1.8.8 0 0 1-.2-.1l-.2-.3a1 1 0 0 0-.1 0 .5.5 0 0 1-.2-.1c0-.1 0-.2-.2-.2a.7.7 0 0 1-.2-.1.2.2 0 0 0-.2 0 1 1 0 0 0-.2 0" class="d"/><path d="M26.4 25.3a.7.7 0 0 0-.1 0 .8.8 0 0 1-.2-.2l-.2-.2a1 1 0 0 0-.1-.1.5.5 0 0 1-.2-.1l-.1-.2a.2.2 0 0 1 .2 0 .5.5 0 0 0 .3 0l.1.2a.4.4 0 0 0 .1 0v.1a.7.7 0 0 1 .2 0l.1.2a.7.7 0 0 0 .2.2h.1-.4" class="d"/><path d="m24.7 23.1.2.1h-.2Zm.2 0v-.2.1l-.1-.1v.1Zm0-.2v-.1Zm0 0Zm0 0Zm-.1-.2h.2v-.1h-.2Zm0-.2-.1-.2.1.1v-.1h.1-.2Zm0-.3v-.1H24.4v.1h.2Zm0 0h-.2l.1-.2v.2Zm-.4-.1v-.2h.1v-.1l-.2.2Zm-.1-.1V21.6h-.1l-.1.2h.1Zm0-.2h-.1Zm-.2 0-.1-.1h-.1v.2h.2Zm0 0H24Zm0 0H24Zm-.3.1v-.2.2l-.2-.2v.3-.2l.1.1v-.2l.1.2Zm-.2 0-.1.1v-.1h-.1l.1-.1h-.1v.2Zm-.2.2-.1-.2.1.2Zm-.2-.1h-.1v.1h.2-.1Zm0 .2H23l.2.2H23v-.2Zm-.1 0v.1-.1Zm0 .2v.1H23v-.1l-.1.1h.2Zm0 .2H23v.1h-.1.1Zm0 .3-.1.1h-.1.2Zm0 .2-.1.1h.2Z" class="e"/><path d="M21.7 28v-.2h.2a.7.7 0 0 0-.2-.1v.1a.1.1 0 0 0 0 .1Z" class="b"/><path d="M21.7 28a.2.2 0 0 1 0-.2.1.1 0 0 1 0-.1.7.7 0 0 1 .3 0h-.3a.2.2 0 0 1 0 .2Zm0-.3a.2.2 0 0 1 0 .1.1.1 0 0 0 0 .1.2.2 0 0 0 0-.1h.2a.8.8 0 0 0-.2 0Z"/><path d="M21.7 27.8v.1h.4l-.2-.2Z" class="b"/><path d="M21.7 28v-.1a.2.2 0 0 0 0-.1h.2a2.1 2.1 0 0 1 .2 0Zm0-.2h.4-.2Z"/><path d="M26.1 28v-.2H26a.7.7 0 0 1 .3-.1v.1a.1.1 0 0 1 0 .1Z" class="b"/><path d="m26.2 28-.1-.1a.2.2 0 0 1 0-.1H26a.7.7 0 0 1 .3-.1v.1a.2.2 0 0 1 0 .1Zm0-.1v-.1a.8.8 0 0 0-.2 0h.1v.1Z"/><path d="M26.1 27.8v.1h-.4l.2-.2Z" class="b"/><path d="m26.1 28-.4-.1.2-.2h.2a.2.2 0 0 0 0 .2Zm-.3-.2h.3H25.8Z"/><path d="M24 28.4a3.1 3.1 0 0 1-1-.1 3.6 3.6 0 0 1-1-.5.7.7 0 0 0-.3 0v-.1a.7.7 0 0 1 .5-.2h.2a1.7 1.7 0 0 0 .2.1 3 3 0 0 0 1.3.3 2.8 2.8 0 0 0 1.3-.3h.1a1.3 1.3 0 0 0 .2-.1h.2a.7.7 0 0 1 .5.2.7.7 0 0 0-.3 0l-.1.1a3.6 3.6 0 0 1-1 .5 3 3 0 0 1-.9.1Zm-2.3-.7a.7.7 0 0 1 .3 0 3.6 3.6 0 0 0 1.1.5 3.1 3.1 0 0 0 .8.2 3 3 0 0 0 .9-.2 3.6 3.6 0 0 0 1-.4h.1a.6.6 0 0 1 .2-.1.7.7 0 0 0-.4-.2h-.4v.1a2.8 2.8 0 0 1-1.4.3 3 3 0 0 1-1.3-.3h-.2l-.2-.1a.6.6 0 0 0-.5.2Z"/><path d="m25.5 27.9-.1-.3a.3.3 0 0 1 .1 0 .1.1 0 0 1 .1 0 .1.1 0 0 1 0 .1.2.2 0 0 1 0 .1Zm0 0a.3.3 0 0 0 .1-.1.1.1 0 0 0 0-.1.3.3 0 0 0-.2 0Zm-.2-.2.2.2h-.2v.1-.3Zm0 0v.2Zm-.3.1h.1v.2-.2Zm-.1 0h.1V28.2 28v.1Zm0 .1h.1Zm-.2 0h.1v.2Zm-.2 0a.1.1 0 0 1 .1 0V28.3Zm0 0v.2a.1.1 0 0 0 .1 0V28Zm0 .2h.1Zm0-.1v.2Zm-.2 0v.2h.1Zm-.3.3v-.2l.1.1V28v.3L24 28v.2Zm-.2-.3a.1.1 0 0 1 .1 0 .1.1 0 0 1-.1.3.1.1 0 0 1-.1 0 .1.1 0 0 1 0-.1.1.1 0 0 1 0-.1.1.1 0 0 1 .1 0Zm0 0a.1.1 0 0 0 0 .1.1.1 0 0 0-.1 0 .1.1 0 0 0 0 .2.1.1 0 0 0 .1 0 .1.1 0 0 0 .1-.1.1.1 0 0 0 0-.1Zm-.2 0v.3Zm-.3.2V28l.2.2V28v.3l-.1-.3v.2Zm-.1-.3v.2l.1-.1v.2h-.1a.2.2 0 0 1 0-.1Zm-.4.1h.1v.1a.2.2 0 0 0 0-.1v-.1h.1a.2.2 0 0 1 0 .1v.1h-.1Zm0-.2a.1.1 0 0 1-.1.2.1.1 0 0 1 0-.1.1.1 0 0 1 0-.1Zm0 0a.1.1 0 0 0-.1 0 .1.1 0 0 0 0 .2.1.1 0 0 0 .1 0 .1.1 0 0 0 0-.1Zm-.2 0v.2h-.1Zm-.3 0v-.2h.1a.3.3 0 0 1 .1 0 .1.1 0 0 1 0 .1.1.1 0 0 1 0 .1.2.2 0 0 1-.2 0Zm0 0a.3.3 0 0 0 .1 0 .1.1 0 0 0 .1 0v-.1h-.1Z"/></svg>