<svg xmlns="http://www.w3.org/2000/svg" viewBox="0 0 48 48"><defs><style>.b{fill:#fff}</style></defs><circle cx="24" cy="24" r="24" style="fill:#005430"/><path d="m42 19-.4-3.8-.2-1.6c0-.2.3.2.4.2v-.4l-.6-1-.1-.2a1.8 1.8 0 0 0-.3.6.6.6 0 0 1 .1.5l.3 3c.1.8.4 2.8.4 4a3.6 3.6 0 0 1-.1 1c-.2.2-.4.4-1.2.8l-2.5 1.3c-.3.1-.2.2 0 0a19.6 19.6 0 0 0 2.4-.5 2.6 2.6 0 0 0 1.4-1.4A5 5 0 0 0 42 19M39.3 12.7a3.4 3.4 0 0 1 .8 0l-.8.5a1.8 1.8 0 0 0 .6-.2 1.1 1.1 0 0 0 .2-.2c.2-.2.4-.5.3-.6a3.6 3.6 0 0 0-1 0l-.2.4c0 .1 0 0 0 0" class="b"/><path d="M40.4 17.7a2.4 2.4 0 0 0 0-1.4 1.8 1.8 0 0 0-.8-1l-.1.5a1.8 1.8 0 0 1 .7.7 1.8 1.8 0 0 1 .1 1.3l.1-.1M36 20.2a2.1 2.1 0 0 0 0-1.3 1.6 1.6 0 0 0-.7-.9v.5a1.6 1.6 0 0 1 .6.6 1.6 1.6 0 0 1 0 1.2l.2-.1M21 13.3a1.7 1.7 0 0 1 0 1.3l.2-.2a2.3 2.3 0 0 0 0-1.3 1.7 1.7 0 0 0-.9-1v.6a1.7 1.7 0 0 1 .6.6M10.7 13.5a1.5 1.5 0 0 1 0 1.3l.1-.2a2 2 0 0 0 .2-1.3 1.7 1.7 0 0 0-.8-1l-.1.4a1.8 1.8 0 0 1 .6.8" class="b"/><path d="M13.6 21a3 3 0 0 0 .3-1 4.6 4.6 0 0 0 0-1.2c.6-.2 1.2-.6 1.5-.6a.8.8 0 0 0 .9 1l.1 1.4V22c0 .1.1.1.2-.2a7.7 7.7 0 0 0 .2-2.1V19c.4-.2.5-.6.6-.8.2.5 1 .6 1.3.5.3-.2.5-.4.5-1a1 1 0 0 0-.2-1l-.2.8.2.4a1 1 0 0 1-.8 0c-.3 0-.4-.2-.4-.4l.1-.3c0-.1 0-.1-.2 0a2.8 2.8 0 0 0-.3.5 1.1 1.1 0 0 1-.7.6l-.2-1.8-.3-2.5v-.5c0-.1 0 0 0 0l.3.2v-.5a10.4 10.4 0 0 0-.7-1.2 2.2 2.2 0 0 0-.3.7.8.8 0 0 1 .2.5l.1 1.7.2 1.4.2 2c-.4 0-.5-.4-.5-.5v-.4a5.8 5.8 0 0 0-1.2.5l-.6.2-.2-1.3a1.4 1.4 0 0 0 1-.5 2.4 2.4 0 0 0 .3-1.2 5.2 5.2 0 0 0-.4-1.4 2.6 2.6 0 0 1 0-.5c-.1-.1 0 0 .2 0v-.2a6.6 6.6 0 0 0-.7-.8 7 7 0 0 0-.2.7.5.5 0 0 1 .1.3 6 6 0 0 0 .3 1.1 10.7 10.7 0 0 1 .4 1.3 2 2 0 0 1-1 .3l-.3-1.8a4.4 4.4 0 0 1 0-.5c0-.1 0-.1.1 0l.3.2-.1-.5a11 11 0 0 0-.7-1.2 2.1 2.1 0 0 0-.2.6.8.8 0 0 1 .1.5l.2 2.6a1.2 1.2 0 0 1-.6-1.1 12.2 12.2 0 0 0-.2-1.7 1.8 1.8 0 0 0-.4-.8l-.2.8a4.7 4.7 0 0 1 .2 1.4 1.5 1.5 0 0 1-.7 1.5 1.3 1.3 0 0 1-1.8-.4c-.2-.6.3-2 .3-2.4s0-.4-.2-.3a2.1 2.1 0 0 0-.7.9 12.9 12.9 0 0 0-.5 1.7c-.2.4-.4 1-.8.9S7 16 7 15.6a3.8 3.8 0 0 1 0-1.3c0-.4-.1-.3-.2.3a3.3 3.3 0 0 0 0 1.7c.3.6.7.9 1 .8s.7-1 .8-1.3.6-2 .9-2c0 .1-.3.7-.3 1.4s0 1.6 1 1.8a1.6 1.6 0 0 0 1.6-.8 3 3 0 0 0 .4-1 1.9 1.9 0 0 0 1 1.6h.1l.2 1.6H13c-.3-.5-.6-1-1.1-1a1.3 1.3 0 0 0-1 1.3c0 .3.2.6.8.6a3 3 0 0 0 1 0 1.4 1.4 0 0 1 0 .3 7.2 7.2 0 0 1-3.2 1.7c-1.3.1-1.7-.5-1.7-1.2a2.8 2.8 0 0 1 .5-1.4 3.5 3.5 0 0 0 .8-.7.6.6 0 0 1 .3.3s.2-.3.1-.4a2 2 0 0 0-.3-.2c.2-.4.2-.8 0-.8-.2-.1-.5.1-.6.3a.4.4 0 0 0-.1.2.3.3 0 0 0 .1.3l.4.2a8.7 8.7 0 0 1-1.4 1h-.1l-.2.1-1.2.8c-.2 0 0 0 0 0l.4-.2.7-.3a3.8 3.8 0 0 0-.2.4c-.3.8-.8 2.3.3 3.2 1 .8 2.8.5 4.2-.4a6.1 6.1 0 0 0 2-1.5m-4.7-3.6v-.1a.4.4 0 0 1 .2-.1c.1 0 .2.1.1.4a5 5 0 0 1-.3-.2m3.3 1.2c-.7 0-.7-.1-.7-.2a.4.4 0 0 1 .5-.2 1.3 1.3 0 0 1 .4.4h-.2m-2.2 4c-1.5.3-2.8-.3-3-1.5a3.5 3.5 0 0 1 .6-2L8 19a3 3 0 0 0-.4 2c.1.8.8 1.3 2 1.1a7.3 7.3 0 0 0 3-1.6 1.8 1.8 0 0 0 .3-.5 1.6 1.6 0 0 0 .2-.4 2.5 2.5 0 0 0 0-.4h.4v1.3a8.4 8.4 0 0 1-3.6 2.1M34.5 19.4l-.2-3-.2-2.2a4.2 4.2 0 0 1 0-.5c0-.1 0 0 .1 0l.3.2s0-.3-.2-.5a10.6 10.6 0 0 0-.7-1.2 2.3 2.3 0 0 0-.2.7.8.8 0 0 1 .1.4l.3 3 .3 3.1V22c0 .1.2.1.3-.2a6.4 6.4 0 0 0 .2-1.6ZM30.5 16.7c-.1 0-.3-.1-.3-.5a3.1 3.1 0 0 1 .2-.7v-.3a5.5 5.5 0 0 0-.4 1.2c0 .4 0 .6.2.7.2.1.4 0 .5-.3v-.4l-.2.3M28.4 17.8v-.3a5 5 0 0 0-.4 1c0 .4 0 .6.2.7.2.1.3 0 .4-.2.1-.2.1-.4 0-.4l-.1.3c-.1 0-.3-.2-.3-.4a2.8 2.8 0 0 1 .2-.7M22.4 22.1l.1-.3a5.7 5.7 0 0 0-.7 1c-.2.4-.1.7 0 .8.2.2.4 0 .5-.2l.2-.4-.3.3c-.1 0-.3-.2-.2-.5a3.2 3.2 0 0 1 .4-.7M33 16c-.1.1-.4 0-.3-.4a3.2 3.2 0 0 1 .2-.7v-.3a5.6 5.6 0 0 0-.4 1.2c-.1.3 0 .6.2.7.2 0 .3 0 .4-.3.1-.2.1-.5 0-.4v.3M33 20c.2.1.3 0 .4-.3.1-.2.1-.5 0-.4v.3c-.2 0-.5-.2-.4-.5a3.1 3.1 0 0 1 .2-.7v-.3a5.6 5.6 0 0 0-.4 1.2c-.1.3 0 .6.2.7M35.5 15c.1-.3.1-.6 0-.4A6.7 6.7 0 0 0 35 16c-.1.5 0 .8.2.9.3.1.5 0 .6-.3V16c0 .1 0 .4-.2.4-.1 0-.4-.2-.3-.6a3.8 3.8 0 0 1 .2-.8" class="b"/><path d="M15 19.8c.1-.3.2-.6 0-.5a8.6 8.6 0 0 0-.8 1.8c-.2.6 0 1 .2 1.1.2.2.5 0 .7-.3.2-.4.3-.8.1-.7 0 0-.1.4-.3.4-.2 0-.5-.2-.4-.7a5 5 0 0 1 .5-1M37.2 23.3l1.3-.8.2-.4-.7.3c-.2 0-.6-.1-.6-.3a.7.7 0 0 1 .4-.3l.2.3.2-.2s0-.5-.2-.4a1.8 1.8 0 0 0-.8.8c-.1.2.2.3.4.4a1 1 0 0 0-.3.2.8.8 0 0 0-.1.3M33.6 24l1.3-.8.2-.4-.7.3c-.2 0-.6-.1-.6-.3a.7.7 0 0 1 .4-.3l.2.3.2-.2s0-.5-.2-.4a1.8 1.8 0 0 0-.8.8c-.1.2.2.3.4.4a1 1 0 0 0-.3.2.8.8 0 0 0-.1.4M25.5 13.8l1.2 1.4a57.4 57.4 0 0 0 2.3 2.1l.4 3.4v1.5c0 .2.2 0 .2-.2a7.7 7.7 0 0 0 .1-2.2l-.2-2 1 1a5.1 5.1 0 0 1 1 1.4l.1.7s.1-.4 0-.8c0-.7-.2-1-1-2L29.3 17v-.3l-.4-2.5v-.6l.3.3-.1-.5a10.4 10.4 0 0 0-.6-1.2 2.2 2.2 0 0 0-.3.7.8.8 0 0 1 .2.4l.1 1.7.2 1.5-1-1a15 15 0 0 1-1.6-1.6h.5a.5.5 0 0 0-.2-.2l-.9-.6-.4-.2a3.4 3.4 0 0 0 0 .7.6.6 0 0 1 .3.2" class="b"/><path d="M26.3 12.7a4 4 0 0 1 .9 0l-.8.4-.1.2a4.4 4.4 0 0 0 .7-.2 2.7 2.7 0 0 0 .6-.7v-.2a3 3 0 0 0-1.2 0 1.9 1.9 0 0 0-.3.5h.2M29.4 12.6a3.2 3.2 0 0 1 .7 0l-.6.4s-.1.1 0 .1a3.5 3.5 0 0 0 .5-.2 2.2 2.2 0 0 0 .5-.5v-.2a2.5 2.5 0 0 0-1 0 1.5 1.5 0 0 0-.2.4h.1M32 12.6a3.2 3.2 0 0 1 .7 0l-.6.4c-.1 0-.1 0 0 0a3.8 3.8 0 0 0 .5 0l.4-.6c.1 0 0-.2 0-.2a2.2 2.2 0 0 0-.9 0 1.5 1.5 0 0 0-.2.4M30.4 13.9c-.2.2 0 .4 0 .6h-.2c-.1-.2 0-.5-.2-.6a1.6 1.6 0 0 0 0 .2.8.8 0 0 1 0 .3.2.2 0 0 1-.2.2c-.2 0 0-.4-.2-.6v.2a.9.9 0 0 1 0 .2 2.4 2.4 0 0 0 0 .2c0 .2 0 .2.2.2a.3.3 0 0 0 .3-.2c0 .1.3.2.4 0 .2-.1 0-.3 0-.5-.1-.2 0-.3-.1-.2M22.9 13.2a.2.2 0 0 0 .1.2.3.3 0 0 0 .3-.2c0 .1.3.2.4.1.2-.2 0-.3 0-.5v-.2c-.2.2 0 .4 0 .5h-.3l-.1-.5a1.4 1.4 0 0 0 0 .2.7.7 0 0 1 0 .3.2.2 0 0 1-.2.1c-.2 0 0-.3-.2-.5v.1a.7.7 0 0 1 0 .2v.2M28.3 22.5a.4.4 0 0 0 .1-.2c0-.1-.1-.4-.3-.5s-.3 0-.4.3a.7.7 0 0 0-.1.2c0 .1 0 .2-.3.4a7.3 7.3 0 0 1-1.2.8l-.8.4c-.1 0-.1.1 0 0l.9-.2a5.2 5.2 0 0 0 .8-.5 1.5 1.5 0 0 0 .6-.6v-.2a1.4 1.4 0 0 0 .4.1h.3m-.3-.4a.3.3 0 0 1 .2.2 1.3 1.3 0 0 1-.4-.1.2.2 0 0 1 .2-.1" class="b"/><path d="M26 22.7c-.4 0-1.2-.1-1.3-.6a4.7 4.7 0 0 1 1.8-.8 12.4 12.4 0 0 0 2.2-.8.6.6 0 0 1 .1 0l.3-.7-2.6.1H24a8 8 0 0 1 1.9-.9l.3-.1a1.1 1.1 0 0 1 .2.4.8.8 0 0 0 0-.5l1-.2a2.1 2.1 0 0 0 .3-.9 2.2 2.2 0 0 0-.6-.5 1.3 1.3 0 0 0-1-.3c-.5.1-.6 1-.4 1.2l.2.3a10.4 10.4 0 0 0-1 .4A5 5 0 0 0 23 20l-.2.7h3.7a7.1 7.1 0 0 0-1.7.6 1.3 1.3 0 0 0-.5 1.2 2.7 2.7 0 0 1-1.2-1c-.5-.6-.4-1.3-.6-2.1a5.8 5.8 0 0 0-1.2-2.7 4 4 0 0 0-.2.8s.5 1 .7 1.7a7.7 7.7 0 0 1 .5 1.4 7 7 0 0 1-2.3 1.8c-1 .5-1.7.6-2 .2a.6.6 0 0 1-.1-.2l.4-.2a11 11 0 0 0 2.5-1.5 1.6 1.6 0 0 0 .2-1.6 9.2 9.2 0 0 1-.6-1c0-.1.2 0 .4 0l-.1-.3-.8-.6-.2.6v.1a.3.3 0 0 1 .2.2 6.4 6.4 0 0 0 .4.8 6 6 0 0 1 .5 1.1 12.1 12.1 0 0 1-2.8 1.7 5.2 5.2 0 0 1 .3-.9 1 1 0 0 0 .2-.2c0-.2.1-.5 0-.4 0 0 0 .3-.2.3-.1 0-.3-.2-.3-.5a3.4 3.4 0 0 1 .3-.8V19A5.9 5.9 0 0 0 18 20c-.1.4 0 .7.1.8a.3.3 0 0 0 .2 0 5 5 0 0 0-.3.8l-1.5.6-3.3 1.1v-.2l-.2.3c-.2 0-.4-.2-.4-.5a3.4 3.4 0 0 1 .3-.8V22a5.9 5.9 0 0 0-.5 1.2c0 .4 0 .7.2.8.2.1.4 0 .5-.3a1.3 1.3 0 0 0 .3-.1l2.4-.4a6.7 6.7 0 0 0 2-.6v.2c0 .8.6 1 1.3.9a7.2 7.2 0 0 0 2.3-1.2 4.8 4.8 0 0 0 1-1 2.6 2.6 0 0 0 .2-1 3.1 3.1 0 0 0 .6 1.8 3.6 3.6 0 0 0 3 1.3l-.2-.8m0-5c.2-.2.7 0 1 .3a7.4 7.4 0 0 0-.7.2 2.6 2.6 0 0 1-.4-.4M16.6 14.1a8.8 8.8 0 0 0 .8-.4 4.5 4.5 0 0 0 .8-.6 1 1 0 0 0 .2-.2l.2.2.2-.2a.5.5 0 0 0-.1-.4 1.2 1.2 0 0 0-.4-.4l-.1.2a.7.7 0 0 0-.2.4l.2.2a4 4 0 0 1-.7.6l-.9.5c-.2 0 0 .2 0 .1m1.9-1.5v-.1a1 1 0 0 1 .2.4l-.3-.1a1.3 1.3 0 0 0 0-.2m-.3 0a.3.3 0 0 1 .1-.2c.2 0 .2.1.2.3H18" class="b"/><path d="m24.5 17.3.9-.7a4 4 0 0 0 .5-.6l.3.2a.6.6 0 0 1 .2.2s.2-.3.1-.4a3.7 3.7 0 0 0-.4-.2c.1-.3.3-.6 0-.8-.1 0-.4 0-.5.3v.6h.2a10.7 10.7 0 0 1-.8.8l-.7.7-.2-.3c-.2.4.1.7.2 1-.1.1-.4 0-.4-.1-.2-.2-.1-.7-.3-.8a2.4 2.4 0 0 0-.1.3 1.3 1.3 0 0 1 .1.5.3.3 0 0 1-.3.3c-.4 0-.2-.6-.4-1v.3a1.3 1.3 0 0 1 0 .3 4 4 0 0 0 0 .4c0 .2.2.3.3.3a.5.5 0 0 0 .5-.4c0 .2.5.4.7.2.2-.3 0-.6-.1-1h.2m1.2-2c0-.2.3-.2.3-.1a.4.4 0 0 1 0 .4l-.3-.3" class="b"/><path d="M17.8 16.1c-.4 0-.6-.3-.7-.8a3.8 3.8 0 0 1 0-1.3c0-.2-.1 0-.2.3a3.3 3.3 0 0 0 0 1.7c.3.6.7.9 1 .8s.7-.9.8-1.3.6-1.8.9-1.9l-.3 1.3c-.1.7 0 1.6 1 1.8a1.6 1.6 0 0 0 1.6-.8 3 3 0 0 0 .4-1 1.9 1.9 0 0 0 1 1.6 1.3 1.3 0 0 0 1.5-.3 2.4 2.4 0 0 0 .4-1.2 5.2 5.2 0 0 0-.5-1.4 2.6 2.6 0 0 1-.1-.5l.3.1v-.3a6.7 6.7 0 0 0-.7-.8 7 7 0 0 0-.3.7.5.5 0 0 1 .2.3 6.4 6.4 0 0 0 .3 1.2 10 10 0 0 1 .4 1.2 1.5 1.5 0 0 1-1.3.1 1.2 1.2 0 0 1-.8-1.1 12.2 12.2 0 0 0-.2-1.7 1.8 1.8 0 0 0-.4-.8l-.3.8a4.7 4.7 0 0 1 .3 1.4 1.5 1.5 0 0 1-.7 1.5 1.2 1.2 0 0 1-1.7-.4c-.3-.6.3-2 .2-2.3s0-.4-.2-.3a2.1 2.1 0 0 0-.7 1 11.5 11.5 0 0 0-.5 1.5c-.1.5-.4 1-.7 1M7.3 14a1.7 1.7 0 0 0 .9-.4c.1 0 .2-.2 0-.2a1.4 1.4 0 0 1-1.2.4l.5-.4a1.6 1.6 0 0 0 .4-.3h.5a.4.4 0 0 0 0-.4 1.5 1.5 0 0 0-.5-.5c-.2 0-.3.1-.3.2a.8.8 0 0 0 0 .4.2.2 0 0 0 0 .1.3.3 0 0 0 0 .1h.1a2.7 2.7 0 0 1-.4.4 1 1 0 0 0-.4.4c0 .2 0 .3.4.3m.8-1.4v-.1c.1.1.4.3.3.4H8a1 1 0 0 0 0-.3m-.3 0c-.1 0 0 0 0-.1.2-.1.2 0 .3.1a.7.7 0 0 1 0 .2 1.2 1.2 0 0 1-.3-.1M8.6 19a.7.7 0 0 0-.1.6l.5.2v-.2c.2.2.4 1 .4 1l.2-.2.1-.8c0-.3.1-.4.3-.4s.2.1.2.3a2 2 0 0 0 .2-.4c0-.1-.3-.4-.5-.3s-.3.5-.3.8a3 3 0 0 1-.1.6 2.3 2.3 0 0 0-.4-.8c-.2-.3-.4-.4-.5-.3M7 18.6a4.4 4.4 0 0 0 .6-.2 2.7 2.7 0 0 0 .6-.6c.1-.1.1-.2 0-.2a3 3 0 0 0-1.1 0 1.9 1.9 0 0 0-.3.4c0 .1 0 .1 0 0a4 4 0 0 1 1 .1l-.8.4c-.1 0-.1.2 0 .1M41.3 20.7a3.9 3.9 0 0 0-1-2.1 35 35 0 0 0-1-1.3l-.1-.4-.3-2.8a4.6 4.6 0 0 1 0-.5h.1c.1 0 .2.3.3.2l-.2-.4a10.3 10.3 0 0 0-.6-1.2 2.1 2.1 0 0 0-.3.6.8.8 0 0 1 .2.5l.3 3.4-1.4-1.5-.2-.2v-.8a4.2 4.2 0 0 1 0-.6s.3.3.3.3v-.5a10.5 10.5 0 0 0-.8-1.2 2.5 2.5 0 0 0-.2.7.8.8 0 0 1 .1.5l.1 1a8.3 8.3 0 0 1-.8-1c0-.1 0-.1.2 0s.3 0 .3 0a.5.5 0 0 0-.2-.3l-.9-.5-.5-.3a3.4 3.4 0 0 0 0 .7.5.5 0 0 1 .4.2l1 1.4.6.7.1 1.4.4 4.3a2 2 0 0 1-1.2.5 1 1 0 0 1-1-.5l-.1-.3a.7.7 0 0 0-.8-.3 1.8 1.8 0 0 0-.7.6 14 14 0 0 0-.8 1.4c-.3.5-.5.8-1 .7a1 1 0 0 1-.7-.7 2.7 2.7 0 0 0 1-1.2 5.6 5.6 0 0 0 .4-2.4c0-.9-.4-2.9-.5-3.6l-.3-1.6.4.3v-.5c-.2-.1-.4-.7-.6-1l-.1-.3a1.8 1.8 0 0 0-.3.7.6.6 0 0 1 .1.4l.4 3A36 36 0 0 1 32 20a2.6 2.6 0 0 1-.1.8 3 3 0 0 1-1 1c-.2-.7 0-1.3-.2-1.3l-.1.7a4.8 4.8 0 0 0 0 .8 27 27 0 0 1-2.6 1.4c-.3.1-.2.2.1.1a16.7 16.7 0 0 0 2.6-.9 2.6 2.6 0 0 0 .2.4c.3.5.6.8 1 .8s.7-.4.9-.8a6.2 6.2 0 0 1 1-1.6 1.6 1.6 0 0 1 .4-.3.6.6 0 0 1 .5 0 .5.5 0 0 1 .1.3 2 2 0 0 0 .5.6 1.3 1.3 0 0 0 1.5.1 1.4 1.4 0 0 0 .8-1 6.7 6.7 0 0 0 0-2l-.1-2.2-.1-1a34.6 34.6 0 0 0 1.5 1.7l.2 3.3v1.5l.2-.2a7.6 7.6 0 0 0 .2-2.1l-.1-2 .9 1.2a6.1 6.1 0 0 1 .9 1.5l.1.6s.2-.3.1-.7M34.8 35.1a.3.3 0 0 0-.6 0H33a1 1 0 0 1 0-.4h2.6v.1a1.3 1.3 0 0 0 .3.3Zm1.6-1.1h-3a.7.7 0 0 0 .3-.7.4.4 0 0 0-.3-.3h-.1c-.3 0-.4.2-.4.4v.1a1 1 0 0 1 0 .5H10.5a2 2 0 0 0 1.6.7h20.4a.7.7 0 0 0-.3.7.4.4 0 0 0 .4.3c.3 0 .4-.2.4-.4h1.2a.3.3 0 0 0 .6 0H36a1.6 1.6 0 0 0 1 .2.5.5 0 0 0 .5-.5V35a1 1 0 0 0-1-1" class="b"/></svg>