<svg xmlns="http://www.w3.org/2000/svg" viewBox="0 0 48 48"><defs><style>.a{fill:#fe0000;}.b{fill:#000095;}.c{fill:#fff;}</style></defs><title>fi_TW</title><circle class="a" cx="24" cy="24" r="24"/><path class="b" d="M36,3.23V24H0A24.0062,24.0062,0,0,1,24,0,23.7268,23.7268,0,0,1,36,3.23Z"/><path class="c" d="M16.4391,7.1448a5.1054,5.1054,0,0,0-1.8632,1.0784L13.5,4.2056Z"/><path class="c" d="M19.0759,7.0144a5.1174,5.1174,0,0,0-2.152,0L18,3Z"/><path class="c" d="M22.5,4.2056l-1.076,4.0176a5.1054,5.1054,0,0,0-1.8632-1.0784Z"/><path class="c" d="M25.7943,7.5l-2.9392,2.9392A5.0942,5.0942,0,0,0,21.7767,8.576Z"/><path class="c" d="M22.9855,13.076a5.1174,5.1174,0,0,0,0-2.152L27,12Z"/><path class="c" d="M25.7943,16.5l-4.0176-1.076a5.0942,5.0942,0,0,0,1.0784-1.8632Z"/><path class="c" d="M22.5,19.7944l-2.9392-2.9392a5.1054,5.1054,0,0,0,1.8632-1.0784Z"/><path class="c" d="M19.0759,16.9856,18,21l-1.076-4.0144a5.1174,5.1174,0,0,0,2.152,0Z"/><path class="c" d="M16.4391,16.8552,13.5,19.7944l1.076-4.0176A5.1054,5.1054,0,0,0,16.4391,16.8552Z"/><path class="c" d="M14.2231,15.424,10.2055,16.5l2.9392-2.9392A5.0942,5.0942,0,0,0,14.2231,15.424Z"/><path class="c" d="M12.9,12a5.073,5.073,0,0,0,.1144,1.076L9,12l4.0144-1.076A5.073,5.073,0,0,0,12.9,12Z"/><path class="c" d="M14.2231,8.576a5.0942,5.0942,0,0,0-1.0784,1.8632L10.2055,7.5Z"/><circle class="c" cx="17.9999" cy="12" r="4.5"/></svg>