<svg xmlns="http://www.w3.org/2000/svg" viewBox="0 0 48 48"><defs><style>.a{fill:#006a4e;}.b{fill:#ffce00;}.c{fill:#d21034;}.d{fill:#fff;}</style></defs><title>fi_TG</title><circle class="a" cx="24" cy="24" r="24"/><path class="b" d="M47.52,19.2H.48A24.0142,24.0142,0,0,1,4.8,9.6H43.2A24.0142,24.0142,0,0,1,47.52,19.2Z"/><path class="c" d="M26.88.18V33.6H2.01A23.68,23.68,0,0,1,0,24,24.0062,24.0062,0,0,1,24,0,22.7235,22.7235,0,0,1,26.88.18Z"/><path class="b" d="M47.52,28.8a24.0142,24.0142,0,0,1-4.32,9.6H4.8A24.0142,24.0142,0,0,1,.48,28.8Z"/><polygon class="d" points="16.753 15.476 18.801 21.779 13.44 17.884 8.079 21.779 10.127 15.476 4.766 11.581 11.392 11.581 13.44 5.28 15.488 11.581 22.114 11.581 16.753 15.476"/></svg>