<svg xmlns="http://www.w3.org/2000/svg" viewBox="0 0 48 48"><defs><style>.d{fill:#fff}</style></defs><circle cx="24" cy="24" r="24" style="fill:#1eb53a"/><path d="M48 24H0a24 24 0 0 1 48 0Z" style="fill:#0099b5"/><path d="M48 24a23.9 23.9 0 0 1-1.6 8.6H1.6a24 24 0 0 1 0-17.2h44.8A23.9 23.9 0 0 1 48 24Z" style="fill:#ce1126"/><path d="M48 24a23.5 23.5 0 0 1-1.3 7.7H1.3a23.9 23.9 0 0 1 0-15.4h45.4A23.5 23.5 0 0 1 48 24ZM10.4 13.3a5 5 0 0 1-1 .1A5.8 5.8 0 0 1 9.4 2a5 5 0 0 1 1 .1 5.7 5.7 0 0 0 0 11.3ZM22.5 12.4l.3.8-.7-.5-.7.5.3-.8-.7-.5h.9l.2-.8.3.8h.8l-.7.5zM22.5 7.8l.3.8-.7-.5-.7.5.3-.8-.7-.5h.9l.2-.8.3.8h.8l-.7.5zM22.5 3.2l.3.8-.7-.5-.7.5.3-.8-.7-.5h.9l.2-.8.3.8h.8l-.7.5zM27.1 12.4l.3.8-.7-.5-.7.5.3-.8-.7-.5h.9l.2-.8.3.8h.8l-.7.5zM27.1 7.8l.3.8-.7-.5-.7.5.3-.8-.7-.5h.9l.2-.8.3.8h.8l-.7.5zM27.1 3.2l.3.8-.7-.5-.7.5.3-.8-.7-.5h.9l.2-.8.3.8h.8l-.7.5zM31.8 12.4l.2.8-.7-.5-.6.5.2-.8-.7-.5h.9l.2-.8.3.8h.8l-.6.5zM31.8 7.8l.2.8-.7-.5-.6.5.2-.8-.7-.5h.9l.2-.8.3.8h.8l-.6.5zM31.8 3.2l.2.8-.7-.5-.6.5.2-.8-.7-.5h.9l.2-.8.3.8h.8l-.6.5zM13.3 12.4l.3.8-.7-.5-.7.5.3-.8-.7-.5h.8l.3-.8.3.8h.8l-.7.5zM17.9 12.4l.3.8-.7-.5-.7.5.3-.8-.7-.5h.9l.2-.8.3.8h.8l-.7.5zM17.9 7.8l.3.8-.7-.5-.7.5.3-.8-.7-.5h.9l.2-.8.3.8h.8l-.7.5z" class="d"/></svg>